<svg xmlns="http://www.w3.org/2000/svg" style="display: none;">
    <symbol id="icon_bg" viewBox="0 0 626 707">
      <title>2F382775-1755-45C6-8864-D2884EE64BAE</title><defs><path d="M0 45.676C83.15 27.64 164.483 14.893 244 7.433c79.517-7.46 160.85-9.304 244-5.536v565.475c-72.95 3.236-151.27 1.647-234.957-4.767C169.357 556.19 85.01 542.132 0 520.43V45.675z" id="b"/><filter x="-24.6%" y="-15.8%" width="149.2%" height="142.2%" filterUnits="objectBoundingBox" id="a"><feOffset dy="30" in="SourceAlpha" result="shadowOffsetOuter1"/><feGaussianBlur stdDeviation="35" in="shadowOffsetOuter1" result="shadowBlurOuter1"/><feColorMatrix values="0 0 0 0 0.313190901 0 0 0 0 0.313190901 0 0 0 0 0.313190901 0 0 0 0.365857111 0" in="shadowBlurOuter1"/></filter></defs><g transform="translate(69 39)" fill="none" fill-rule="evenodd"><use fill="#000" filter="url(#a)" xlink:href="#b"/><use fill="#FFF" xlink:href="#b"/></g>
    </symbol>
    <symbol id="icon_Big-oval-bg" viewBox="0 0 2384.7 1827.3">
      <style>.st0{fill:url(#Big-oval-bg_1_);} .st1{fill:url(#Small-oval-bg_1_);}</style><title>Group 2</title><g id="Page-1"><g id="Group-2" transform="translate(-116 -663)"><linearGradient id="Big-oval-bg_1_" gradientUnits="userSpaceOnUse" x1="1057.889" y1="1675.538" x2="1058.312" y2="1676.596" gradientTransform="matrix(2281.1245 1481.3796 694.178 -1068.9402 -3575831 225740.563)"><stop offset="0" stop-color="#8F569C"/><stop offset="1" stop-color="#562B63"/></linearGradient><path id="Big-oval-bg" class="st0" d="M1654.8 1042.4c629.9 409.1 985.2 980 793.5 1275.2s-857.7 202.9-1487.7-206.2-985.2-980-793.5-1275.2 857.8-202.9 1487.7 206.2z"/><linearGradient id="Small-oval-bg_1_" gradientUnits="userSpaceOnUse" x1="1057.423" y1="1676.29" x2="1058.481" y2="1675.866" gradientTransform="matrix(2152.4666 1397.8282 569.983 -877.6967 -3231431.75 -6350.784)"><stop offset="0" stop-color="#8F569C"/><stop offset="1" stop-color="#562B63"/></linearGradient><path id="Small-oval-bg" class="st1" d="M1625.3 1166.6c594.4 386 948.6 895.4 791.2 1137.8-157.4 242.4-766.8 125.9-1361.2-260.1S106.6 1148.9 264 906.6s766.9-126 1361.3 260z"/></g></g>
    </symbol>
    <symbol id="icon_logo" viewBox="0 0 206 47">
      <title>EC4B3801-B667-4F3B-88AA-21FE31D31095</title><defs><linearGradient x1="-532.269%" y1="-98.421%" x2="3644.201%" y2="965.071%" id="a"><stop stop-color="#EC6453" offset="0%"/><stop stop-color="#C93A78" offset="100%"/></linearGradient><linearGradient x1="-698.233%" y1="-132.914%" x2="3540.573%" y2="930.578%" id="b"><stop stop-color="#EC6453" offset="0%"/><stop stop-color="#C93A78" offset="100%"/></linearGradient><linearGradient x1="-1020.212%" y1="-167.248%" x2="4051.218%" y2="879.627%" id="c"><stop stop-color="#EC6453" offset="0%"/><stop stop-color="#C93A78" offset="100%"/></linearGradient><linearGradient x1="-1167.447%" y1="-209.424%" x2="3815.009%" y2="854.068%" id="d"><stop stop-color="#EC6453" offset="0%"/><stop stop-color="#C93A78" offset="100%"/></linearGradient><linearGradient x1="-1685.64%" y1="-242.435%" x2="4625.471%" y2="821.057%" id="e"><stop stop-color="#EC6453" offset="0%"/><stop stop-color="#C93A78" offset="100%"/></linearGradient><linearGradient x1="-1647.624%" y1="-277.762%" x2="3921.004%" y2="785.73%" id="f"><stop stop-color="#EC6453" offset="0%"/><stop stop-color="#C93A78" offset="100%"/></linearGradient><linearGradient x1="-1826.106%" y1="-304.497%" x2="3742.522%" y2="758.994%" id="g"><stop stop-color="#EC6453" offset="0%"/><stop stop-color="#C93A78" offset="100%"/></linearGradient><linearGradient x1="-2326.58%" y1="-335.575%" x2="4127.966%" y2="727.917%" id="h"><stop stop-color="#EC6453" offset="0%"/><stop stop-color="#C93A78" offset="100%"/></linearGradient><linearGradient x1="-1641.306%" y1="-369.356%" x2="2597.501%" y2="694.137%" id="i"><stop stop-color="#EC6453" offset="0%"/><stop stop-color="#C93A78" offset="100%"/></linearGradient><linearGradient x1="-2299.102%" y1="-390.495%" x2="3162.437%" y2="624.656%" id="j"><stop stop-color="#EC6453" offset="0%"/><stop stop-color="#C93A78" offset="100%"/></linearGradient><linearGradient x1="-2864.384%" y1="-441.359%" x2="3446.727%" y2="622.133%" id="k"><stop stop-color="#EC6453" offset="0%"/><stop stop-color="#C93A78" offset="100%"/></linearGradient></defs><g fill="none" fill-rule="evenodd"><g fill-rule="nonzero" fill="#FF6653"><path d="M50 1.074h3.12v12.1h8.152v-12.1h3.12v27.6h-3.12v-12.7H53.12v12.6H50M79.484 1.074h3.22l7.045 27.6h-3.22l-1.712-7.4H77.37l-1.71 7.4h-3.222l7.046-27.6zm4.73 17.5l-3.12-13.1-3.12 13.1h6.24zM97.014 1.074h2.214l6.844 20.9 6.743-20.9h2.315v27.6h-3.02v-16.1l-5.132 16.1h-1.61l-5.335-16.1v16.1h-3.02M124.795 20.2h3.02v3.1c0 1.3 1.106 2.4 2.414 2.4h2.918c1.308 0 2.416-1.2 2.416-2.4v-4.9c0-.9-.604-1.9-1.51-2.2l-6.34-2c-1.712-.5-2.92-2.3-2.92-4.1V4.7c0-2.6 2.215-4.7 4.83-4.7h4.23c2.615 0 4.83 2.1 4.83 4.7v3.6h-3.02v-3c0-1.3-1.107-2.4-2.415-2.4h-2.92c-1.308 0-2.415 1.2-2.415 2.4v4.4c0 .9.603 1.9 1.51 2.2l6.34 2c1.71.5 2.92 2.3 2.92 4.1v5.8c0 2.6-2.115 4.7-4.832 4.7h-4.228c-2.616 0-4.83-2.1-4.83-4.7v-3.6zM146.164 3.874v-2.8h15.802v2.8h-6.34v24.8h-3.12v-24.8M169.67 1.074h11.978v2.8h-8.857v9.4h6.644v2.6h-6.643v9.8h9.16v2.9h-12.28M191.142 1.074h7.85c2.617 0 4.83 2.1 4.83 4.7v7.4c0 2.2-1.71 4.1-3.823 4.5h-1.11l6.745 11h-3.422l-6.542-10.8h-1.51v10.8h-3.12v-27.6h.102zm7.045 14.2c1.41 0 2.415-1.2 2.415-2.4v-6.7c0-1.3-1.006-2.4-2.415-2.4h-4.026v11.5h4.027z"/></g><g fill-rule="nonzero"><path fill="url(#a)" d="M6.866 0v6.3H5.452V2.4L3.837 4.9H3.03L1.312 2.4v3.9H0V0h1.313l2.22 3.3L5.756 0h1.11" transform="translate(50 40)"/><path d="M10.722 6.3L13.347 0h1.514l2.627 6.3h-1.414l-.505-1.2H12.64l-.505 1.2h-1.413zM13.044 4h2.02l-.91-2.3c0-.1-.1-.3-.1-.5 0 .2-.1.4-.1.5l-.91 2.3z" fill="url(#b)" transform="translate(50 40)"/><path d="M22.515 6.3V0h2.626c1.212 0 2.525.5 2.525 2.1 0 1.1-.606 1.6-1.414 1.9l1.92 2.4h-1.616l-1.716-2.2h-1.01v2.2h-1.313v-.1zM23.93 3h1.312c.606 0 1.11-.3 1.11-.9 0-.6-.504-.9-1.11-.9H23.93V3z" fill="url(#c)" transform="translate(50 40)"/><path fill="url(#d)" d="M32.165 6.3V0h1.414v2.5h1.008L36.204 0h1.514l-2.02 3.1 2.222 3.2h-1.514L34.69 3.7h-1.01v2.6" transform="translate(50 40)"/><path fill="url(#e)" d="M46.358 0v1.2h-3.13v1.3h2.827v1.2h-2.827v1.4h3.13v1.2h-4.544V0h4.544" transform="translate(50 40)"/><path fill="url(#f)" d="M55.54 0v1.2h-1.917v5.1H52.31V1.2h-1.918V0" transform="translate(50 40)"/><path d="M62.465 0c1.514 0 2.726.5 2.726 2.1s-1.21 2.1-2.725 2.1h-1.01v2.1H60.04V0h2.425zm.1 1.2h-1.11v1.9h1.11c.707 0 1.313-.2 1.313-.9-.1-.8-.606-1-1.312-1z" fill="url(#g)" transform="translate(50 40)"/><path fill="url(#h)" d="M71.003 0v5.1h3.13v1.2H69.69V0h1.313" transform="translate(50 40)"/><path d="M78.268 6.3L80.893 0h1.515l2.625 6.3H83.52l-.506-1.2h-2.928l-.505 1.2H78.27zM80.59 4h2.02l-.91-2.3c0-.1-.1-.3-.1-.5 0 .2-.1.4-.1.5L80.59 4z" fill="url(#i)" transform="translate(50 40)"/><path d="M92.423 0c.606 0 1.312.1 1.817.4v1.3c-.404-.3-1.01-.5-1.615-.5-1.11 0-2.222.6-2.222 2.2 0 1.4 1.11 2 2.222 2 .605 0 1.21-.2 1.615-.5v1.3c-.505.3-1.21.4-1.817.4-1.717 0-3.433-1-3.433-3.2.1-2.4 1.817-3.4 3.433-3.4z" fill="url(#j)" transform="translate(50 40)"/><path fill="url(#k)" d="M103.183 0v1.2h-3.13v1.3h2.827v1.2h-2.827v1.4h3.13v1.2H98.64V0h4.543" transform="translate(50 40)"/></g><path d="M15.722 30.917c.547 0 .99.444.99.99 0 .548-.443.992-.99.992-.547 0-.99-.445-.99-.992 0-.547.443-.99.99-.99zm1.462 2.878h3.508l-1.754 1.93-1.754-1.93zm1.926 6.11V37.54h1.588l-.543 2.365H19.11zm3.045-8.988c.547 0 .99.444.99.99 0 .548-.443.992-.99.992-.548 0-.99-.445-.99-.992 0-.547.442-.99.99-.99zm-4.433 8.988l-.543-2.366h1.586v2.365h-1.044zm10.302-22.182V0h9.853v44.787h-7.982l-3.62-3.868v-.79c.13-.016.262-.038.393-.068 2.18-.485 3.556-2.646 3.072-4.828-.383-1.72-1.81-2.938-3.464-3.138v-.066c0-1.35-.356-2.618-.976-3.72.707-.498 1.084-1.388.885-2.284-.265-1.19-1.443-1.94-2.633-1.675-.576.13-1.048.473-1.352.928-1.067-.567-2.28-.89-3.566-.89-1.238 0-2.41.3-3.446.83-.5-.696-1.382-1.064-2.27-.867-1.19.266-1.94 1.444-1.675 2.633.113.51.395.938.774 1.24-.65 1.124-1.024 2.423-1.024 3.807v.13l-.006.003c-2.182.485-3.557 2.646-3.07 4.828.35 1.586 1.588 2.744 3.076 3.074v.855l-3.62 3.867H0V0h9.853v17.723h18.17z" fill="#D8387F"/></g>
    </symbol></svg>