<?xml version="1.0" encoding="UTF-8"?>
<svg width="191px" height="39px" viewBox="0 0 191 39" version="1.1" xmlns="http://www.w3.org/2000/svg" xmlns:xlink="http://www.w3.org/1999/xlink">
    <!-- Generator: sketchtool 47 (45396) - http://www.bohemiancoding.com/sketch -->
    <title>9C9CE2F9-7F6C-45A9-9987-595D72468F68</title>
    <desc>Created with sketchtool.</desc>
    <defs>
        <linearGradient x1="50%" y1="100%" x2="50%" y2="0%" id="linearGradient-1">
            <stop stop-color="#FCAE3C" offset="0%"></stop>
            <stop stop-color="#FFEC00" offset="100%"></stop>
        </linearGradient>
    </defs>
    <g id="Layout" stroke="none" stroke-width="1" fill="none" fill-rule="evenodd">
        <g id="Cases" transform="translate(-102.000000, -66.000000)">
            <g id="Logo/Horizontal/Dark" transform="translate(102.000000, 66.000000)">
                <g id="Logo-horizontal">
                    <path d="M40.8680439,27.8646288 L30,27.8646288 L30,10.3886463 L40.5049111,10.3886463 C44.0843623,10.3886463 45.6406455,12.7991266 45.6406455,14.8427948 C45.6406455,17.0174672 44.3696809,18.4847162 42.6837075,18.8515284 C44.5512473,19.139738 45.9778401,20.8689956 45.9778401,23.1222707 C45.9778401,25.558952 44.3437429,27.8646288 40.8680439,27.8646288 Z M39.2858227,16.8340611 C39.8305218,16.8340611 40.3233448,16.4148472 40.3233448,15.7860262 C40.3233448,15.1834061 39.8305218,14.790393 39.2858227,14.790393 L35.2394865,14.790393 L35.2394865,16.8340611 L39.2858227,16.8340611 Z M39.441451,23.4628821 C40.1936545,23.4628821 40.6605394,23.0174672 40.6605394,22.3624454 C40.6605394,21.7336245 40.1936545,21.2358079 39.441451,21.2358079 L35.2394865,21.2358079 L35.2394865,23.4628821 L39.441451,23.4628821 Z M52.7142033,27.8646288 L52.7142033,20.1091703 C53.2329643,19.4803493 54.5039289,19.2183406 55.4895749,19.2183406 C55.9305218,19.2183406 56.3195926,19.2707424 56.553035,19.349345 L56.553035,14.8427948 C55.1264422,14.8427948 53.4923449,15.6812227 52.7142033,16.5982533 L52.7142033,15.209607 L48.0453539,15.209607 L48.0453539,27.8646288 L52.7142033,27.8646288 Z M64.3528583,28.1790393 C60.4362125,28.1790393 57.3755223,25.6899563 57.3755223,21.5240175 C57.3755223,17.8558952 60.1508939,14.8951965 64.19723,14.8951965 C67.8804334,14.8951965 70.7076811,17.5676856 70.7076811,22.0218341 L70.7076811,22.9912664 L62.2,22.9912664 C62.4593805,23.8034934 63.3672123,24.5895197 64.8975574,24.5895197 C65.5978848,24.5895197 67.154168,24.2489083 67.7766812,23.69869 L69.6960971,26.6069869 C68.4510706,27.6812227 66.2203981,28.1790393 64.3528583,28.1790393 Z M66.2722742,20.0043668 C66.1425839,19.4541485 65.701637,18.4847162 64.19723,18.4847162 C62.7706371,18.4847162 62.3037522,19.4279476 62.1481239,20.0043668 L66.2722742,20.0043668 Z M84.2916901,27.8646288 L79.6228407,27.8646288 L79.6228407,26.6593886 C78.9225133,27.5502183 77.3921682,28.1790393 75.835885,28.1790393 C73.9683453,28.1790393 71.5301684,26.8951965 71.5301684,24.0131004 C71.5301684,20.8689956 73.9683453,19.9781659 75.835885,19.9781659 C77.4699823,19.9781659 78.9484513,20.5021834 79.6228407,21.3668122 L79.6228407,20.0567686 C79.6228407,19.1659389 78.818761,18.4847162 77.288416,18.4847162 C76.1212036,18.4847162 74.798363,18.9563319 73.812717,19.7161572 L72.2304958,16.8078603 C73.9164692,15.4454148 76.2508939,14.8951965 78.1443717,14.8951965 C81.2569379,14.8951965 84.2916901,15.9956332 84.2916901,20.2139738 L84.2916901,27.8646288 Z M77.781239,25.1135371 C78.5075044,25.1135371 79.311584,24.8777293 79.6228407,24.4323144 L79.6228407,23.7248908 C79.311584,23.279476 78.5075044,23.0436681 77.781239,23.0436681 C77.0030974,23.0436681 76.1471417,23.3056769 76.1471417,24.0917031 C76.1471417,24.8777293 77.0030974,25.1135371 77.781239,25.1135371 Z M100.417628,27.8646288 L95.8265929,20.9737991 L100.13231,15.209607 L94.5037522,15.209607 L91.6246284,19.7161572 L91.6246284,10.3886463 L86.955779,10.3886463 L86.955779,27.8646288 L91.6246284,27.8646288 L91.6246284,25.0087336 L92.5324602,23.7772926 L94.6853186,27.8646288 L100.417628,27.8646288 Z M103.807983,14.2925764 C105.260513,14.2925764 106.427726,13.1135371 106.427726,11.6462882 C106.427726,10.1790393 105.260513,9 103.807983,9 C102.355452,9 101.188239,10.1790393 101.188239,11.6462882 C101.188239,13.1135371 102.355452,14.2925764 103.807983,14.2925764 Z M106.142407,27.8646288 L106.142407,15.209607 L101.473558,15.209607 L101.473558,27.8646288 L106.142407,27.8646288 Z M121.957089,27.8646288 L121.957089,18.8777293 C121.957089,16.6768559 120.686124,14.8951965 117.781062,14.8951965 C115.576328,14.8951965 114.201611,15.8122271 113.475346,16.650655 L113.475346,15.209607 L108.806496,15.209607 L108.806496,27.8646288 L113.475346,27.8646288 L113.475346,20.0567686 C113.864416,19.6113537 114.409115,19.0611354 115.472576,19.0611354 C116.587912,19.0611354 117.288239,19.558952 117.288239,20.8689956 L117.288239,27.8646288 L121.957089,27.8646288 Z M129.886602,33 C127.733744,33 125.814328,32.4235808 124.180231,31.1135371 L126.151523,27.7598253 C127.111231,28.7292576 128.537824,29.1484716 129.886602,29.1484716 C130.976,29.1484716 132.791664,28.7292576 132.791664,26.5021834 L132.791664,25.8209607 C131.728204,27.0524017 130.560992,27.5240175 129.264089,27.5240175 C126.255275,27.5240175 123.765222,25.5327511 123.765222,21.209607 C123.765222,16.9912664 126.177461,14.8951965 129.264089,14.8951965 C130.560992,14.8951965 131.78008,15.3406114 132.791664,16.5458515 L132.791664,15.209607 L137.460513,15.209607 L137.460513,26.5021834 C137.460513,31.9781659 132.999168,33 129.886602,33 Z M130.872248,23.3580786 C131.468823,23.3580786 132.350717,23.069869 132.791664,22.5458515 L132.791664,19.8733624 C132.350717,19.349345 131.468823,19.0611354 130.872248,19.0611354 C129.601284,19.0611354 128.537824,19.6637555 128.537824,21.209607 C128.537824,22.7554585 129.601284,23.3580786 130.872248,23.3580786 Z M158.151549,27.8646288 L152.652682,27.8646288 L150.422009,17.9606987 L148.191337,27.8646288 L142.69247,27.8646288 L137.738302,10.3886463 L143.600301,10.3886463 L145.830974,21.0786026 L148.450717,10.3886463 L152.393301,10.3886463 L155.013044,21.0786026 L157.217779,10.3886463 L163.105717,10.3886463 L158.151549,27.8646288 Z M169.245505,28.1790393 C165.328859,28.1790393 162.268169,25.6899563 162.268169,21.5240175 C162.268169,17.8558952 165.04354,14.8951965 169.089876,14.8951965 C172.77308,14.8951965 175.600327,17.5676856 175.600327,22.0218341 L175.600327,22.9912664 L167.092646,22.9912664 C167.352027,23.8034934 168.259859,24.5895197 169.790204,24.5895197 C170.490531,24.5895197 172.046814,24.2489083 172.669328,23.69869 L174.588743,26.6069869 C173.343717,27.6812227 171.113044,28.1790393 169.245505,28.1790393 Z M171.16492,20.0043668 C171.03523,19.4541485 170.594283,18.4847162 169.089876,18.4847162 C167.663283,18.4847162 167.196399,19.4279476 167.04077,20.0043668 L171.16492,20.0043668 Z M181.94762,23.1746725 C182.388567,23.7248908 183.27046,24.0131004 183.892974,24.0131004 C185.163938,24.0131004 186.227398,23.1222707 186.227398,21.5240175 C186.227398,19.9519651 185.163938,19.0611354 183.892974,19.0611354 C183.27046,19.0611354 182.388567,19.3755459 181.94762,19.9257642 L181.94762,23.1746725 Z M181.94762,27.8646288 L177.27877,27.8646288 L177.27877,10.3886463 L181.94762,10.3886463 L181.94762,16.5458515 C182.933266,15.3406114 184.20423,14.8951965 185.475195,14.8951965 C188.561823,14.8951965 191,17.3318777 191,21.5240175 C191,25.8733624 188.509947,28.1790393 185.475195,28.1790393 C184.20423,28.1790393 183.01108,27.7336245 181.94762,26.5283843 L181.94762,27.8646288 Z" id="BreakingWeb" fill="#26282D" fill-rule="nonzero"></path>
                    <polygon id="Path-2" fill="url(#linearGradient-1)" fill-rule="nonzero" points="21.0097725 0 0 24.3864868 12.7736483 21.18161 1.36394371 39 26 13.7501285 12.4014379 16.9811268"></polygon>
                </g>
            </g>
        </g>
    </g>
</svg>