<svg width="56" height="56" viewBox="0 0 56 56" fill="none" xmlns="http://www.w3.org/2000/svg">
<path d="M27.7502 0.25C12.5643 0.25 0.25 12.8736 0.25 28.4462C0.25 40.9041 8.12965 51.4732 19.0563 55.2015C20.4307 55.4625 20.9353 54.5899 20.9353 53.8451C20.9353 53.1728 20.9098 50.9517 20.8979 48.5956C13.2474 50.3012 11.633 45.2688 11.633 45.2688C10.382 42.0097 8.57958 41.1431 8.57958 41.1431C6.08449 39.3931 8.76766 39.4291 8.76766 39.4291C11.5292 39.628 12.9832 42.3347 12.9832 42.3347C15.436 46.6453 19.4165 45.3991 20.9858 44.6786C21.2327 42.8562 21.9453 41.6124 22.7318 40.9083C16.6236 40.1953 10.2026 37.7776 10.2026 26.9736C10.2026 23.8952 11.2769 21.3799 13.036 19.4053C12.7505 18.6951 11.8092 15.8273 13.3025 11.9435C13.3025 11.9435 15.6117 11.1857 20.867 14.8337C23.0606 14.209 25.4132 13.8957 27.7502 13.8849C30.0873 13.8957 32.4417 14.209 34.6394 14.8337C39.8883 11.1857 42.1944 11.9435 42.1944 11.9435C43.6912 15.8273 42.7495 18.6951 42.464 19.4053C44.2272 21.3799 45.2942 23.8952 45.2942 26.9736C45.2942 37.8033 38.8609 40.1878 32.7372 40.8858C33.7236 41.7608 34.6025 43.4768 34.6025 46.1074C34.6025 49.8801 34.5706 52.9164 34.5706 53.8451C34.5706 54.5955 35.0657 55.4747 36.4596 55.1978C47.3804 51.4653 55.25 40.8999 55.25 28.4462C55.25 12.8736 42.9376 0.25 27.7502 0.25Z" fill="white"/>
<path d="M10.7468 40.5402C10.6864 40.6789 10.4718 40.7205 10.2764 40.6252C10.0773 40.5342 9.96548 40.3451 10.03 40.2059C10.0891 40.0631 10.3041 40.0233 10.5028 40.119C10.7023 40.2101 10.8159 40.401 10.7468 40.5402Z" fill="#161514"/>
<path d="M11.8586 41.8013C11.7277 41.9248 11.4718 41.8675 11.2982 41.6724C11.1186 41.4777 11.085 41.2174 11.2177 41.0922C11.3527 40.9687 11.6009 41.0265 11.7809 41.2211C11.9605 41.4181 11.9955 41.6765 11.8586 41.8013Z" fill="#161514"/>
<path d="M12.9409 43.4093C12.7727 43.5281 12.4977 43.4167 12.3277 43.1684C12.1595 42.9202 12.1595 42.6225 12.3313 42.5032C12.5018 42.3839 12.7727 42.4912 12.945 42.7376C13.1127 42.99 13.1127 43.2877 12.9409 43.4093Z" fill="#161514"/>
<path d="M14.4236 44.9627C14.2732 45.1314 13.9527 45.0861 13.7182 44.8559C13.4782 44.6308 13.4114 44.3113 13.5623 44.1425C13.7146 43.9733 14.0368 44.021 14.2732 44.2493C14.5114 44.474 14.5841 44.7958 14.4236 44.9627Z" fill="#161514"/>
<path d="M16.4691 45.8647C16.4028 46.0833 16.0941 46.1827 15.7832 46.0898C15.4728 45.9941 15.2696 45.738 15.3323 45.517C15.3968 45.2969 15.7068 45.1934 16.02 45.2928C16.33 45.388 16.5337 45.6423 16.4691 45.8647Z" fill="#161514"/>
<path d="M18.7154 46.032C18.7232 46.2622 18.4595 46.4531 18.1332 46.4573C17.805 46.4647 17.5395 46.2784 17.5359 46.0519C17.5359 45.8193 17.7936 45.6302 18.1218 45.6247C18.4482 45.6182 18.7154 45.8031 18.7154 46.032Z" fill="#161514"/>
<path d="M20.8059 45.6699C20.845 45.8946 20.6182 46.1253 20.2941 46.1868C19.9755 46.246 19.6805 46.1073 19.64 45.8844C19.6005 45.6542 19.8314 45.4235 20.1496 45.3639C20.4741 45.3065 20.7646 45.4415 20.8059 45.6699Z" fill="#161514"/>
</svg>
