<svg width="56" height="56" viewBox="0 0 56 56" fill="none" xmlns="http://www.w3.org/2000/svg">
<path d="M4.5 48.385H13.25V27.135L0.75 17.76V44.635C0.75 46.7069 2.42812 48.385 4.5 48.385Z" fill="#4285F4"/>
<path d="M43.25 48.385H52C54.0719 48.385 55.75 46.7069 55.75 44.635V17.76L43.25 27.135V48.385Z" fill="#34A853"/>
<path d="M43.25 10.8851V27.1351L55.75 17.7601V12.7601C55.75 8.12573 50.4594 5.47885 46.75 8.2601L43.25 10.8851Z" fill="#FBBC04"/>
<path fill-rule="evenodd" clip-rule="evenodd" d="M13 29.25V13L28 24.25L43 13V29.25L28 40.5L13 29.25Z" fill="#EA4335"/>
<path d="M0.75 12.7601V17.7601L13.25 27.1351V10.8851L9.75 8.2601C6.04063 5.47885 0.75 8.12573 0.75 12.7601Z" fill="#C5221F"/>
</svg>
