<?xml version="1.0" standalone="no"?>
<!DOCTYPE svg PUBLIC "-//W3C//DTD SVG 20010904//EN"
 "http://www.w3.org/TR/2001/REC-SVG-20010904/DTD/svg10.dtd">
<svg version="1.0" xmlns="http://www.w3.org/2000/svg"
 width="500.000000pt" height="500.000000pt" viewBox="0 0 500.000000 500.000000"
 preserveAspectRatio="xMidYMid meet">
<metadata>
Created by potrace 1.11, written by Peter Selinger 2001-2013
</metadata>
<g transform="translate(0.000000,500.000000) scale(0.100000,-0.100000)"
fill="#000000" stroke="none">
<path d="M2305 4984 c-624 -63 -1144 -303 -1565 -724 -393 -393 -618 -849
-712 -1445 -16 -106 -16 -524 0 -630 40 -249 90 -437 168 -630 311 -762 1006
-1337 1804 -1493 208 -41 264 -46 500 -46 236 0 292 5 500 46 798 156 1493
731 1804 1493 78 193 128 381 168 630 16 106 16 524 0 630 -94 596 -319 1052
-712 1445 -386 386 -848 617 -1414 706 -87 14 -458 26 -541 18z m1397 -886
c118 -54 189 -151 208 -283 13 -94 13 -2316 0 -2409 -31 -215 -230 -353 -435
-303 -114 28 -188 88 -246 197 l-24 45 -3 1244 c-2 1081 0 1252 13 1295 29 99
128 197 234 231 70 22 183 15 253 -17z m-1130 -656 c65 -28 123 -85 155 -150
l28 -57 0 -955 0 -955 -28 -57 c-55 -111 -152 -172 -277 -172 -99 -1 -163 27
-229 100 -87 95 -82 23 -79 1100 l3 949 23 46 c40 82 120 147 207 170 48 13
147 3 197 -19z m-1092 -491 c73 -28 131 -80 171 -153 l34 -63 0 -685 0 -685
-23 -46 c-34 -68 -83 -121 -143 -154 -50 -28 -62 -30 -154 -30 -85 0 -106 3
-143 23 -66 35 -119 88 -149 150 l-28 57 0 685 0 685 25 50 c33 68 108 139
172 164 70 27 171 27 238 2z"/>
</g>
</svg>
