<svg xmlns="http://www.w3.org/2000/svg">
<symbol id="icon_angle-left" viewBox="0 0 1792 1792"><path d="M1203 544q0 13-10 23l-393 393 393 393q10 10 10 23t-10 23l-50 50q-10 10-23 10t-23-10l-466-466q-10-10-10-23t10-23l466-466q10-10 23-10t23 10l50 50q10 10 10 23z"/></symbol>
<symbol id="icon_caret-down" viewBox="0 0 320 512"><path d="M31.3 192h257.3c17.8 0 26.7 21.5 14.1 34.1L174.1 354.8c-7.8 7.8-20.5 7.8-28.3 0L17.2 226.1C4.6 213.5 13.5 192 31.3 192z"/></symbol>
<symbol id="icon_caret-up" viewBox="0 0 320 512"><path d="M288.662 352H31.338c-17.818 0-26.741-21.543-14.142-34.142l128.662-128.662c7.81-7.81 20.474-7.81 28.284 0l128.662 128.662c12.6 12.599 3.676 34.142-14.142 34.142z"/></symbol>
<symbol id="icon_icon-chat" viewBox="0 0 9 8"><g/></symbol>
<symbol id="icon_icon-close" viewBox="0 0 13 13"><g/></symbol>
<symbol id="icon_icon-person" viewBox="0 0 15 20"><g/></symbol>
<symbol id="icon_icon-rating" viewBox="0 0 17 22"><g/></symbol>
<symbol id="icon_logo-1" viewBox="0 0 37 37"><g/></symbol>
<symbol id="icon_logo-10" viewBox="0 0 39 39"><g/></symbol>
<symbol id="icon_logo-2" viewBox="0 0 46 46"><g/></symbol>
<symbol id="icon_logo-3" viewBox="0 0 48 48"><g/></symbol>
<symbol id="icon_logo-4" viewBox="0 0 42 42"><g/></symbol>
<symbol id="icon_logo-5" viewBox="0 0 55 55"><g/></symbol>
<symbol id="icon_logo-6" viewBox="0 0 46 46"><g/></symbol>
<symbol id="icon_logo-7" viewBox="0 0 49 49"><g/></symbol>
<symbol id="icon_logo-8" viewBox="0 0 41 41"><g/></symbol>
<symbol id="icon_logo-9" viewBox="0 0 47 47"><g/></symbol>
<symbol id="icon_logo-project" viewBox="0 0 63 63"><g/></symbol>
<symbol id="icon_logo" viewBox="0 0 187 24"><g/></symbol>
</svg>