<svg xmlns="http://www.w3.org/2000/svg" style="display: none;">
    <symbol id="icon_icon_close" viewBox="0 0 16 16">
      <title>Shape</title><desc>Created using Figma</desc><use xlink:href="#a" transform="translate(.09 .09)" fill="#212121"/><defs><path id="a" d="M10.896 7.912l4.316-4.316c.817-.817.817-2.15 0-2.984-.816-.816-2.15-.816-2.983 0L7.91 4.93 3.596.612c-.817-.817-2.15-.817-2.984 0-.816.816-.816 2.15 0 2.983L4.93 7.912.612 12.23c-.817.816-.817 2.15 0 2.982.416.417.95.617 1.483.617.533 0 1.083-.2 1.483-.617l4.316-4.317 4.317 4.316c.416.417.95.617 1.483.617.533 0 1.083-.2 1.483-.617.816-.817.816-2.15 0-2.984L10.895 7.91z"/></defs>
    </symbol>
    <symbol id="icon_icon_doc" viewBox="0 0 174 210">
      <title>Icon</title><desc>Created using Figma</desc><g opacity=".05"><use xlink:href="#a" transform="rotate(12 40.16 163.83)"/><use xlink:href="#b" transform="rotate(12 -108.37 352.303)"/><use xlink:href="#c" transform="rotate(12 -253.156 337.075)"/><use xlink:href="#b" transform="rotate(12 -402.366 321.398)"/><use xlink:href="#d" transform="rotate(12 -501.277 248.874)"/></g><defs><path id="a" fill-rule="evenodd" d="M154.892 64.282c-.052-.21-.124-.413-.218-.61l-.128-.238c-.118-.2-.254-.39-.417-.563l-.05-.065L92.09.908l-.05-.036c-.182-.175-.385-.318-.598-.44l-.196-.106C90.826.122 90.366 0 89.89 0H29.013C13.015 0 0 12.94 0 28.845V162.92l.013.118c.064 15.918 13.047 28.85 29.006 28.85h96.953c15.998 0 29.013-12.996 29.013-28.97V64.995l-.047-.464-.048-.248zm-10.5-2.392l-29.675-.04h-.004c-11.964 0-21.697-9.72-21.697-21.667L93 10.577l51.392 51.313zM29.012 185.695h96.96c12.58 0 22.813-10.22 22.813-22.776V68.085l-34.07-.047c-15.383 0-27.896-12.495-27.896-27.855L86.8 6.19H29.013C16.433 6.19 6.2 16.353 6.2 28.845v134.012l.005.06c0 12.557 10.23 22.772 22.804 22.78l.003-.002z"/><path id="b" d="M3.23 11.993c1.78 0 3.228-1.343 3.228-3V3c0-1.658-1.446-3-3.23-3C1.446 0 0 1.342 0 3v5.994c0 1.656 1.445 3 3.23 3z"/><path id="c" d="M3.23 11.993c1.78 0 3.228-1.343 3.228-3V3c0-1.658-1.446-3-3.23-3C1.446 0 0 1.342 0 3v5.994c0 1.66 1.445 3 3.23 3z"/><path id="d" fill-rule="evenodd" d="M15.225 0c3.827 0 7.146 2.208 8.66 5.76l5.305 12.423c2.04 4.77 1.568 10.21-1.254 14.552-2.825 4.34-7.577 6.934-12.714 6.934-5.14 0-9.893-2.594-12.715-6.935-2.822-4.34-3.292-9.78-1.255-14.552l5.304-12.42C8.073 2.207 11.396 0 15.222 0h.003zm-.005 33.456c3.11 0 5.873-1.506 7.58-4.133 1.71-2.63 1.983-5.792.75-8.68l-5.304-12.42c-.798-1.87-2.518-2.014-3.026-2.014-.51 0-2.23.144-3.027 2.012L6.89 20.642c-1.235 2.89-.962 6.052.748 8.68 1.707 2.626 4.47 4.134 7.582 4.134z"/></defs>
    </symbol>
    <symbol id="icon_icon_download-white" viewBox="0 0 18 21">
      <title>icon</title><desc>Created using Figma</desc><use xlink:href="#a" transform="translate(7.62 6.75)" fill="#FFF"/><use xlink:href="#b" transform="translate(0 6.75)" fill="#FFF"/><use xlink:href="#c" transform="translate(.187 18.23)" fill="#FFF"/><g transform="translate(-120 -4170)"><use xlink:href="#d" transform="translate(127.62 4170)" fill="#FFF"/></g><defs><path id="a" d="M7.997.374c.505-.5 1.324-.5 1.83 0 .504.498.504 1.306 0 1.805L2.206 9.7c-.505.5-1.324.5-1.828 0-.506-.497-.506-1.306-.002-1.804L7.998.374z"/><path id="b" d="M.38 2.18C-.127 1.68-.127.872.38.373c.504-.5 1.322-.498 1.828 0l7.62 7.521c.504.5.505 1.307 0 1.806-.505.5-1.324.5-1.83 0L.378 2.18z"/><path id="c" d="M16.16 0c.713 0 1.292.57 1.292 1.277 0 .704-.58 1.276-1.293 1.276H1.29C.578 2.553 0 1.983 0 1.277 0 .572.58 0 1.292 0H16.16z"/><path id="d" d="M0 1.277C0 .57.578 0 1.293 0c.714 0 1.293.57 1.293 1.276v14.272c0 .705-.58 1.276-1.293 1.276-.714 0-1.293-.57-1.293-1.276V1.278z"/></defs>
    </symbol>
    <symbol id="icon_icon_download" viewBox="0 0 18 21">
      <title>icon</title><desc>Created using Figma</desc><use xlink:href="#a" transform="translate(7.62 6.75)" fill="#212121"/><use xlink:href="#b" transform="translate(0 6.75)" fill="#212121"/><use xlink:href="#c" transform="translate(.187 18.23)" fill="#212121"/><g transform="translate(-120 -2035)"><use xlink:href="#d" transform="translate(127.62 2035)" fill="#212121"/></g><defs><path id="a" d="M7.997.374c.505-.5 1.324-.5 1.83 0 .504.498.504 1.306 0 1.805L2.206 9.7c-.505.5-1.324.5-1.828 0-.506-.497-.506-1.306-.002-1.804L7.998.374z"/><path id="b" d="M.38 2.18C-.127 1.68-.127.872.38.373c.504-.5 1.322-.498 1.828 0l7.62 7.521c.504.5.505 1.307 0 1.806-.505.5-1.324.5-1.83 0L.378 2.18z"/><path id="c" d="M16.16 0c.713 0 1.292.57 1.292 1.277 0 .704-.58 1.276-1.293 1.276H1.29C.578 2.553 0 1.983 0 1.277 0 .572.58 0 1.292 0H16.16z"/><path id="d" d="M0 1.277C0 .57.578 0 1.293 0c.714 0 1.293.57 1.293 1.276v14.272c0 .705-.58 1.276-1.293 1.276-.714 0-1.293-.57-1.293-1.276V1.278z"/></defs>
    </symbol>
    <symbol id="icon_icon_phone" viewBox="0 0 19 23">
      <title>Phone</title><path d="M13.697 14.433c-1.035-.183-1.952.6-2.848.443-.896-.158-4.214-4.904-4.037-5.907.176-1 1.157-1.33 1.34-2.363.13-.743-1.758-5.74-2.877-5.937C4.158.473 1.114 2.034.786 3.894c-.96 5.44 7.006 17.53 13.106 18.604 1.68.297 4.123-1.135 4.49-3.222.127-.716-3.678-4.666-4.685-4.843z" fill="#FFF" fill-rule="evenodd"/>
    </symbol>
    <symbol id="icon_icon_pickup" viewBox="0 0 115 75">
      <title>icon</title><desc>Created using Figma</desc><use xlink:href="#a" transform="translate(33.455 53.47)" fill="#8AC74F"/><use xlink:href="#b" transform="translate(28.436 61.49)" fill="#8AC74F"/><use xlink:href="#b" transform="translate(37.438 61.49)" fill="#8AC74F"/><use xlink:href="#c" fill="#8AC74F"/><use xlink:href="#d" transform="translate(21.365 25.89)" fill="#8AC74F"/><defs><path id="a" fill-rule="evenodd" d="M1.204 18.448C.54 18.448 0 17.906 0 17.242V1.206C0 .542.54 0 1.204 0 1.868 0 2.41.542 2.41 1.206v16.036c0 .664-.542 1.206-1.206 1.206z"/><path id="b" fill-rule="evenodd" d="M0 2.408h3.444V0H0v2.408z"/><path id="c" fill-rule="evenodd" d="M78.162 65.076h33.714v-1.942H78.162v1.942zM80.93 41.29l14.088-9.868 14.088 9.868H80.93zm27.704 4.686c-.706 0-1.276.57-1.276 1.276v13.332h-4.222V47.252c0-.706-.57-1.276-1.276-1.276-.704 0-1.276.57-1.276 1.276v13.332h-4.222V47.252c0-.706-.57-1.276-1.276-1.276-.704 0-1.274.57-1.274 1.276v13.332h-4.224V47.252c0-.706-.57-1.276-1.274-1.276-.706 0-1.276.57-1.276 1.276v13.332h-4.222V47.252c0-.706-.57-1.276-1.276-1.276-.706 0-1.276.57-1.276 1.276v13.332h-2.102V43.842h33.714v16.742h-1.966V47.252c0-.706-.572-1.276-1.276-1.276zM95.02 19.76c-.756 0-1.37-.617-1.37-1.373s.614-1.367 1.37-1.367c.754 0 1.37.61 1.37 1.367 0 .756-.616 1.372-1.37 1.372zm-34.96 3.154L93.478 2.71c.122-.074.24-.12.356-.148l.026-.006c.116-.022.224-.022.328.008.204.052.386.198.512.408.258.422.13.798-.384 1.11L61.074 24.276c-.324-.46-.664-.916-1.014-1.362zm-8.304-9.685c.652.355 1.124.944 1.332 1.655.136.46.108.922.006 1.38-1.444-1.016-2.958-1.896-4.528-2.65.852-.768 2.13-.966 3.19-.386zm5.68 6.68c-.706-.71-1.446-1.366-2.204-1.996.55-1.176.676-2.488.306-3.744-.252-.86-.722-1.608-1.336-2.228l31.344-7.418L58.38 20.948c-.316-.344-.61-.706-.944-1.038zm7.028 52.582H55.87v-27.88c0-.62-.508-1.13-1.13-1.13l-40.128.002c-.64 0-1.162.52-1.162 1.16v27.848H4.854v-28.6h2.852c.63 0 1.152-.513 1.164-1.143.008-.358.018-.734.03-.955.766-13.462 11.644-24.396 24.764-24.894.336-.01.668-.016 1.002-.016 6.536 0 12.738 2.433 17.552 6.91 5.068 4.715 7.99 11.104 8.228 17.991.006.137.01.54.012.937.004.643.534 1.17 1.178 1.17h2.828v28.6zM52.666 50.486c-.44 0-.798-.358-.798-.796v-3.002c0-.438.358-.796.798-.796.436 0 .794.358.794.796v3.002c0 .438-.358.796-.794.796zm-4.798-.796v-3.002c0-.438.358-.796.796-.796.438 0 .796.358.796.796v3.002c0 .438-.358.796-.796.796-.438 0-.796-.358-.796-.796zm-4.002 0v-3.002c0-.438.358-.796.798-.796.436 0 .794.358.794.796v3.002c0 .438-.358.796-.794.796-.44 0-.798-.358-.798-.796zm-4.002 0v-3.002c0-.438.358-.796.798-.796.438 0 .796.358.796.796v3.002c0 .438-.358.796-.796.796-.44 0-.798-.358-.798-.796zm-4 0v-3.002c0-.438.358-.796.796-.796.438 0 .796.358.796.796v3.002c0 .438-.358.796-.796.796-.438 0-.796-.358-.796-.796zm-4.002 0v-3.002c0-.438.358-.796.798-.796.438 0 .796.358.796.796v3.002c0 .438-.358.796-.796.796-.44 0-.798-.358-.798-.796zm-4.002 0v-3.002c0-.438.358-.796.798-.796.438 0 .796.358.796.796v3.002c0 .438-.358.796-.796.796-.44 0-.798-.358-.798-.796zm-4 0v-3.002c0-.438.358-.796.798-.796.436 0 .794.358.794.796v3.002c0 .438-.358.796-.794.796-.44 0-.798-.358-.798-.796zm-4.002 0v-3.002c0-.438.358-.796.798-.796.438 0 .796.358.796.796v3.002c0 .438-.358.796-.796.796-.44 0-.798-.358-.798-.796zm-4 0v-3.002c0-.438.358-.796.798-.796.436 0 .794.358.794.796v3.002c0 .438-.358.796-.794.796-.44 0-.798-.358-.798-.796zm0 22.802H53.46V52.894H15.858v19.598zm48.578-31.01h-1.59c-.304-7.234-3.346-13.996-8.576-19.058-5.294-5.126-12.26-7.948-19.61-7.948-7.352 0-14.318 2.822-19.612 7.948-5.23 5.062-8.272 11.824-8.576 19.058h-1.59c.294-7.5 3.38-14.548 8.702-19.87 5.63-5.628 13.112-8.73 21.076-8.73 7.962 0 15.444 3.102 21.074 8.73 5.322 5.322 8.408 12.37 8.702 19.87zm49.972.978c-.008-.088-.028-.172-.054-.256-.022-.078-.048-.15-.084-.22-.036-.07-.082-.132-.132-.198-.054-.068-.112-.13-.178-.186-.03-.024-.044-.058-.076-.078L97.636 30.14c.718-.69 1.17-1.654 1.17-2.726 0-1.666-1.08-3.084-2.578-3.59v-1.848c1.498-.504 2.578-1.922 2.578-3.588 0-1.664-1.08-3.082-2.578-3.588V5.828c1.232-1.094 1.522-2.758.652-4.184C96.408.868 95.682.32 94.84.098c-.38-.102-.774-.118-1.168-.076-.07.002-.136-.012-.208.004l-43.852 10.38c-.022.006-.038.022-.06.028-.21.034-.42.058-.628.118-1.148.336-2.11 1.048-2.798 2.004-5.414-2.06-11.38-2.628-17.416-1.552-4.386.78-8.634 2.544-12.288 5.1C7.54 22.32 2.446 32.01 2.446 42.688v29.824H1.2c-.664 0-1.2.536-1.2 1.198 0 .662.536 1.2 1.2 1.2h111.716c.664 0 1.2-.538 1.2-1.2 0-.662-.536-1.198-1.2-1.198H66.872V42.688c0-5.816-1.562-11.376-4.43-16.258L93.81 7.374V14.8c-1.496.506-2.576 1.924-2.576 3.588 0 1.666 1.08 3.084 2.576 3.588v2.86c0 .668.542 1.208 1.21 1.208.754 0 1.37.614 1.37 1.37 0 .59-.38 1.082-.904 1.276-.302-.12-.632-.122-.934 0-.524-.194-.902-.686-.902-1.276 0-.668-.542-1.21-1.208-1.21-.668 0-1.208.542-1.208 1.21 0 1.072.45 2.034 1.17 2.726l-16.25 11.382c-.032.02-.048.054-.074.078-.07.056-.124.118-.178.186-.052.066-.096.128-.134.198-.036.07-.06.142-.084.22-.026.084-.044.168-.052.256-.002.038-.022.068-.022.106v23.786c0 .704.57 1.274 1.276 1.274h36.266c.704 0 1.274-.57 1.274-1.274V42.566c0-.038-.016-.068-.018-.106z"/><path id="d" fill-rule="evenodd" d="M2.042 12.296C2.55 6.534 7.404 2 13.294 2c5.892 0 10.746 4.534 11.254 10.296H2.042zM13.294 0C5.964 0 0 5.964 0 13.296c0 .552.446 1 1 1h24.59c.554 0 1-.448 1-1C26.59 5.964 20.626 0 13.294 0z"/></defs>
    </symbol>
    <symbol id="icon_icon_removal" viewBox="0 0 121 55">
      <title>icon</title><desc>Created using Figma</desc><use xlink:href="#a" transform="translate(81.21 8.14)" fill="#8AC74F"/><use xlink:href="#a" transform="translate(81.21 15.27)" fill="#8AC74F"/><use xlink:href="#b" transform="translate(81.21 22.4)" fill="#8AC74F"/><use xlink:href="#c" transform="translate(81.15 29.62)" fill="#8AC74F"/><use xlink:href="#a" transform="translate(49.28 8.14)" fill="#8AC74F"/><use xlink:href="#d" transform="translate(49.12 15.27)" fill="#8AC74F"/><use xlink:href="#e" transform="translate(49.12 22.4)" fill="#8AC74F"/><use xlink:href="#e" transform="translate(49.12 29.62)" fill="#8AC74F"/><use xlink:href="#a" transform="translate(17.353 8.14)" fill="#8AC74F"/><use xlink:href="#b" transform="translate(17.353 15.27)" fill="#8AC74F"/><use xlink:href="#b" transform="translate(17.353 22.4)" fill="#8AC74F"/><use xlink:href="#f" transform="translate(17.29 29.53)" fill="#8AC74F"/><use xlink:href="#g" fill="#8AC74F"/><defs><path id="a" d="M1.367 2.75h18.93c.756 0 1.37-.616 1.37-1.375C21.664.615 21.052 0 20.296 0H1.368C.612 0 0 .616 0 1.375c0 .76.612 1.375 1.367 1.375z"/><path id="b" d="M1.367 2.75h18.93c.756 0 1.37-.616 1.37-1.375C21.664.615 21.052 0 20.296 0H1.368C.612 0 0 .616 0 1.375c0 .76.612 1.375 1.367 1.375z"/><path id="c" d="M20.298 0H1.368C.61 0 0 .616 0 1.375c0 .76.612 1.375 1.367 1.375h18.93c.756 0 1.37-.616 1.37-1.375C21.664.615 21.052 0 20.296 0z"/><path id="d" d="M20.298 0H1.368C.61 0 0 .616 0 1.375c0 .76.612 1.375 1.367 1.375h18.93c.756 0 1.37-.616 1.37-1.375C21.664.615 21.052 0 20.296 0z"/><path id="e" d="M20.298 0H1.368C.61 0 0 .616 0 1.375c0 .76.612 1.375 1.367 1.375h18.93c.756 0 1.37-.616 1.37-1.375C21.664.615 21.052 0 20.296 0z"/><path id="f" d="M21.666 1.375c0-.76-.613-1.375-1.368-1.375H1.368C.61 0 0 .616 0 1.375c0 .76.612 1.375 1.367 1.375h18.93c.756 0 1.37-.616 1.37-1.375z"/><path id="g" fill-rule="evenodd" d="M106.96 52.208h11.822v-.02c.755 0 1.367.615 1.367 1.374 0 .76-.613 1.375-1.368 1.375H1.367C.612 54.937 0 54.322 0 53.562s.612-1.375 1.367-1.375h11.78c-3.153-3.28-3.153-8.482 0-11.76l-3.997-.002c-.755 0-1.367-.615-1.367-1.374 0-.76.612-1.374 1.367-1.374h1.662v-36.3c0-.76.612-1.375 1.367-1.375h95.79c.37-.01.728.13.994.388.266.26.416.615.415.988v36.32h1.577c.755 0 1.367.617 1.367 1.376 0 .76-.612 1.375-1.367 1.375h-3.997c3.153 3.28 3.153 8.482 0 11.76zM25.6 40.532c.853.918 1.492 2.017 1.87 3.215v-.106c.39-1.156 1.022-2.217 1.852-3.108H25.6zm9.97 0c3.217 0 5.826 2.623 5.826 5.86 0 3.235-2.61 5.858-5.827 5.858-3.22 0-5.827-2.623-5.827-5.86-.028-1.57.573-3.09 1.67-4.21 1.094-1.123 2.593-1.755 4.156-1.755v.106zm13.398 0H41.88l-.127-.106c3.153 3.28 3.153 8.48 0 11.76h36.684c-3.152-3.28-3.152-8.48 0-11.76H71.35v4.844c0 .76-.613 1.375-1.368 1.375H50.336c-.756 0-1.368-.616-1.368-1.375v-4.74zm-3.407-2.75V2.752h29.112v34.924l-29.11.105zm23.14 6.22v-3.45l-16.83-.105V44H68.7zm24.146-.255c-.03-.098-.064-.194-.098-.29.43-1.096 1.078-2.092 1.907-2.925h-3.68c.78.846 1.383 1.84 1.773 2.925-.024.06-.048.122-.07.184l.168.107zm-8.224 8.398c3.218 0 5.826-2.624 5.826-5.86s-2.608-5.86-5.826-5.86c-3.218 0-5.827 2.624-5.827 5.86s2.61 5.86 5.827 5.86zm8.098-3.216c.393 1.224 1.054 2.345 1.935 3.278h-3.89c.873-.935 1.526-2.055 1.913-3.28h.042zm8.098 3.215c3.218 0 5.827-2.624 5.827-5.86h-.042c0-3.22-2.583-5.836-5.785-5.86-3.218 0-5.826 2.624-5.826 5.86s2.608 5.86 5.826 5.86zm5.827-14.47H77.407V2.752h29.196l.042 34.926zM42.742 2.752H13.546v34.926h29.196V2.75zm-17.5 43.535c0 3.236-2.61 5.86-5.827 5.86-3.218 0-5.827-2.624-5.827-5.86s2.61-5.86 5.827-5.86c3.218 0 5.826 2.624 5.826 5.86zm4.206 5.923c-.88-.933-1.542-2.054-1.935-3.28h-.042c-.385 1.225-1.04 2.345-1.913 3.28h3.89z"/></defs>
    </symbol>
    <symbol id="icon_logo" viewBox="0 0 200 29">
      <title>Logo</title><g fill="#FFF" fill-rule="evenodd"><path d="M23.438 3.67v-.03c.377-.094.722-.22 1.067-.314v-.063l-.282-1.474C17.445-.565 7.248-.597.565 1.694V3.325c.376.126.753.25 1.16.345C4.488 10.638 3.452 19.894 0 26.295v1.035c7.06 2.195 18.073 2.258 25.195 0v-1.036c-3.45-6.432-4.518-15.688-1.757-22.623zM3.734 2.76l.094-.28c1.475-.534 3.138-1.225 4.706-1.1.722.064 1.412.41 2.134.472 1.13.125 2.134-.534 3.232-.502 1.286.03 2.51.533 3.796.47 1.38-.063 2.73 1.412 4.142.94-5.114 1.696-13.02 1.664-18.104 0z" fill-rule="nonzero"/><path d="M36.888 14.384c0-2.528.844-4.632 2.532-6.312 1.688-1.68 3.844-2.52 6.468-2.52 1.2 0 2.368.204 3.504.612 1.136.408 2.112 1.012 2.928 1.812l-1.944 3.168c-.576-.512-1.252-.932-2.028-1.26-.776-.328-1.532-.492-2.268-.492-1.6 0-2.808.476-3.624 1.428-.816.952-1.224 2.108-1.224 3.468 0 1.392.42 2.6 1.26 3.624.84 1.024 2.036 1.536 3.588 1.536 1.632 0 3.152-.704 4.56-2.112l2.16 3.072c-1.856 1.92-4.16 2.88-6.912 2.88-2.72 0-4.9-.836-6.54-2.508-1.64-1.672-2.46-3.804-2.46-6.396zM53.64 19.52c0-.784.216-1.464.648-2.04.432-.576 1.004-1.016 1.716-1.32.712-.304 1.452-.524 2.22-.66.768-.136 1.568-.204 2.4-.204h.36v-.216c0-.912-.584-1.368-1.752-1.368-1.088 0-2.224.392-3.408 1.176l-1.44-2.928c.56-.432 1.332-.808 2.316-1.128.984-.32 1.956-.48 2.916-.48 1.712 0 3.06.448 4.044 1.344.984.896 1.476 2.128 1.476 3.696V23h-3.792v-.744l.048-.768h-.048c-.4.56-.932 1-1.596 1.32-.664.32-1.356.48-2.076.48-1.184 0-2.152-.36-2.904-1.08-.752-.72-1.128-1.616-1.128-2.688zm4.104-.384c0 .304.104.556.312.756.208.2.496.3.864.3.576 0 1.072-.232 1.488-.696.416-.464.624-.96.624-1.488v-.336h-.384c-.768 0-1.444.116-2.028.348-.584.232-.876.604-.876 1.116zM66.648 23l3.888-6.12-3.984-6.24h4.68l1.344 2.76.384.816h.048c.16-.336.288-.608.384-.816l1.344-2.76h4.68l-3.96 6.24L79.344 23h-4.56l-1.488-2.784-.288-.624h-.048c-.112.272-.208.48-.288.624L71.208 23h-4.56zm13.44-3.48c0-.784.216-1.464.648-2.04.432-.576 1.004-1.016 1.716-1.32.712-.304 1.452-.524 2.22-.66.768-.136 1.568-.204 2.4-.204h.36v-.216c0-.912-.584-1.368-1.752-1.368-1.088 0-2.224.392-3.408 1.176l-1.44-2.928c.56-.432 1.332-.808 2.316-1.128.984-.32 1.956-.48 2.916-.48 1.712 0 3.06.448 4.044 1.344.984.896 1.476 2.128 1.476 3.696V23h-3.792v-.744l.048-.768h-.048c-.4.56-.932 1-1.596 1.32-.664.32-1.356.48-2.076.48-1.184 0-2.152-.36-2.904-1.08-.752-.72-1.128-1.616-1.128-2.688zm4.104-.384c0 .304.104.556.312.756.208.2.496.3.864.3.576 0 1.072-.232 1.488-.696.416-.464.624-.96.624-1.488v-.336h-.384c-.768 0-1.444.116-2.028.348-.584.232-.876.604-.876 1.116zM94.224 27.8V10.64h3.744v.624l-.048.792h.048c.848-1.136 2.096-1.704 3.744-1.704 1.68 0 3.028.596 4.044 1.788 1.016 1.192 1.524 2.756 1.524 4.692 0 1.936-.544 3.496-1.632 4.68-1.088 1.184-2.464 1.776-4.128 1.776-1.184 0-2.232-.392-3.144-1.176h-.048c.032.288.048.64.048 1.056V27.8h-4.152zm4.032-10.896c0 .8.212 1.492.636 2.076.424.584 1.02.876 1.788.876.688 0 1.264-.264 1.728-.792.464-.528.696-1.248.696-2.16 0-.912-.224-1.648-.672-2.208-.448-.56-1.032-.84-1.752-.84-.688 0-1.264.256-1.728.768-.464.512-.696 1.272-.696 2.28zM115.824 23V5.84h4.2v6.624h1.728l3.552-6.624h4.512l-4.632 8.208v.048L130.08 23h-4.704l-3.624-6.96h-1.728V23h-4.2zm15.912 1.128c.448.304.872.456 1.272.456.992 0 1.656-.416 1.992-1.248l.24-.576-5.256-12.12h4.704l1.824 5.688.456 1.92h.048c.16-.784.296-1.4.408-1.848l1.56-5.76h4.536l-5.064 13.68c-.48 1.28-1.188 2.22-2.124 2.82-.936.6-1.948.9-3.036.9-.48 0-.96-.072-1.44-.216-.48-.144-.84-.288-1.08-.432l-.36-.216 1.32-3.048zm12.792-8.52c0-2.496.54-4.456 1.62-5.88 1.08-1.424 2.836-2.552 5.268-3.384L155.424 5l1.176 3.336-4.656 1.488c-.656.224-1.188.432-1.596.624-.408.192-.796.492-1.164.9-.368.408-.56.892-.576 1.452h.048c.928-.784 2.136-1.176 3.624-1.176 1.632 0 2.928.524 3.888 1.572s1.44 2.412 1.44 4.092c0 1.744-.584 3.18-1.752 4.308-1.168 1.128-2.712 1.692-4.632 1.692-2.176 0-3.836-.696-4.98-2.088-1.144-1.392-1.716-3.256-1.716-5.592zm4.128 1.752c0 .768.232 1.384.696 1.848.464.464 1.032.696 1.704.696.672 0 1.24-.232 1.704-.696.464-.464.696-1.08.696-1.848 0-.784-.232-1.416-.696-1.896-.464-.48-1.032-.72-1.704-.72-.672 0-1.24.24-1.704.72-.464.48-.696 1.112-.696 1.896zm10.224 2.16c0-.784.216-1.464.648-2.04.432-.576 1.004-1.016 1.716-1.32.712-.304 1.452-.524 2.22-.66.768-.136 1.568-.204 2.4-.204h.36v-.216c0-.912-.584-1.368-1.752-1.368-1.088 0-2.224.392-3.408 1.176l-1.44-2.928c.56-.432 1.332-.808 2.316-1.128.984-.32 1.956-.48 2.916-.48 1.712 0 3.06.448 4.044 1.344.984.896 1.476 2.128 1.476 3.696V23h-3.792v-.744l.048-.768h-.048c-.4.56-.932 1-1.596 1.32-.664.32-1.356.48-2.076.48-1.184 0-2.152-.36-2.904-1.08-.752-.72-1.128-1.616-1.128-2.688zm4.104-.384c0 .304.104.556.312.756.208.2.496.3.864.3.576 0 1.072-.232 1.488-.696.416-.464.624-.96.624-1.488v-.336h-.384c-.768 0-1.444.116-2.028.348-.584.232-.876.604-.876 1.116zM173.016 23V10.64h4.152v4.368h3.816V10.64h4.152V23h-4.152v-4.512h-3.816V23h-4.152zm14.904 0V10.64h3.912v5.448c0 .4-.016.808-.048 1.224h.048c.096-.24.32-.648.672-1.224l3.432-5.448h4.032V23h-3.912v-5.4c0-.512.016-.928.048-1.248h-.048c-.048.128-.272.536-.672 1.224L191.952 23h-4.032z"/></g>
    </symbol>
    <symbol id="icon_pin_black" viewBox="0 0 37 54">
      <title>Pin</title><desc>Created using Figma</desc><use xlink:href="#a" fill="#212121"/><defs><path id="a" fill-rule="evenodd" d="M0 18.425C0 8.25 8.283 0 18.5 0S37 8.25 37 18.425C37 30.825 18.5 54 18.5 54S0 30.852 0 18.425zm11.305 0c0 3.958 3.222 7.166 7.195 7.166 3.973 0 7.195-3.207 7.195-7.165s-3.22-7.165-7.195-7.165c-3.974 0-7.195 3.208-7.195 7.165z"/></defs>
    </symbol>
    <symbol id="icon_pin_red" viewBox="0 0 37 54">
      <title>Pin</title><desc>Created using Figma</desc><use xlink:href="#a" fill="#DE273D"/><defs><path id="a" fill-rule="evenodd" d="M0 18.425C0 8.25 8.283 0 18.5 0S37 8.25 37 18.425C37 30.825 18.5 54 18.5 54S0 30.852 0 18.425zm11.305 0c0 3.958 3.222 7.166 7.195 7.166 3.973 0 7.195-3.207 7.195-7.165s-3.22-7.165-7.195-7.165c-3.974 0-7.195 3.208-7.195 7.165z"/></defs>
    </symbol></svg>