<?xml version="1.0" encoding="UTF-8"?>
<svg width="30px" height="17px" viewBox="0 0 30 17" version="1.1" xmlns="http://www.w3.org/2000/svg" xmlns:xlink="http://www.w3.org/1999/xlink">
    <!-- Generator: sketchtool 47.1 (45422) - http://www.bohemiancoding.com/sketch -->
    <style>
        #Desktop-HD{
            fill: #333333;
        }
    </style>
    <title>68FD032A-2637-4B9A-9CB0-D18E211FDE30</title>
    <desc>Created with sketchtool.</desc>
    <defs></defs>
    <g id="vk" stroke="none" stroke-width="1" fill-rule="evenodd">
        <g id="Desktop-HD" transform="translate(-180.000000, -719.000000)">
            <g id="Footer" transform="translate(-716.000000, -157.000000)">
                <g id="Social" transform="translate(840.000000, 871.000000)">
                    <path d="M85.9578431,6.22779421 C86.1973405,6.88971303 85.4163826,8.41003502 83.6149461,10.7888058 C83.3650359,11.1197652 83.0266208,11.5593141 82.5996908,12.1074656 C82.1831736,12.6349322 81.8968224,13.0072559 81.7406285,13.224448 C81.5844346,13.4416401 81.4256398,13.6976127 81.2642395,13.9923734 C81.1028391,14.2871342 81.0403624,14.504323 81.0768077,14.6439465 C81.1132529,14.78357 81.180936,14.9619752 81.2798588,15.1791673 C81.3787816,15.3963594 81.5479891,15.6187194 81.7874865,15.846254 C82.0269838,16.0737886 82.3237478,16.3478602 82.6777873,16.6684772 C82.719439,16.6891621 82.745471,16.7098468 82.7558839,16.7305317 C84.2241067,18.0853968 85.2185264,19.2282239 85.7391727,20.1590473 C85.7704115,20.2107597 85.804253,20.2753992 85.8406983,20.3529678 C85.8771435,20.4305364 85.9135882,20.5675723 85.9500335,20.7640794 C85.9864787,20.9605866 85.9838755,21.1364061 85.9422238,21.2915433 C85.9005721,21.4466805 85.7704125,21.5888875 85.551741,21.7181686 C85.3330695,21.8474496 85.0258927,21.9120891 84.6302015,21.9120891 L80.6316573,21.9741437 C80.381747,22.0258561 80.0901894,22.0000003 79.7569757,21.8965755 C79.423762,21.7931507 79.15303,21.6793851 78.9447714,21.5552753 L78.6323851,21.3691115 C78.3199973,21.1519194 77.9555503,20.820965 77.5390332,20.3762383 C77.1225161,19.9315116 76.7658787,19.5307464 76.4691102,19.1739308 C76.1723418,18.8171152 75.8547523,18.5171877 75.5163321,18.2741394 C75.177912,18.0310911 74.8837512,17.9509381 74.6338409,18.0336779 C74.6026021,18.0440204 74.560951,18.0621195 74.5088864,18.0879757 C74.4568218,18.1138319 74.3683132,18.1888137 74.2433581,18.3129235 C74.1184029,18.4370333 74.0064656,18.5895826 73.9075428,18.770576 C73.80862,18.9515695 73.7201115,19.22047 73.6420145,19.5772856 C73.5639175,19.9341012 73.530076,20.3348663 73.540489,20.779593 C73.540489,20.9347303 73.5222666,21.0769373 73.4858214,21.2062183 C73.4493761,21.3354993 73.4103282,21.4311658 73.3686765,21.4932207 L73.3061993,21.5707889 C73.1187666,21.7672961 72.8428281,21.8810617 72.4783757,21.9120891 L70.6821546,21.9120891 C69.9428367,21.953459 69.1827044,21.8681348 68.4017349,21.656114 C67.6207653,21.4440931 66.9361256,21.1700215 66.3477951,20.8338908 C65.7594647,20.4977602 65.223207,20.1564634 64.7390059,19.8099902 C64.2548047,19.4635171 63.8877545,19.1661752 63.6378443,18.9179557 L63.2473614,18.5456282 C63.1432321,18.4422034 63.0000565,18.2870685 62.8178303,18.0802188 C62.6356041,17.8733692 62.2633475,17.4027934 61.7010494,16.6684772 C61.1387513,15.934161 60.5868744,15.1533153 60.0454022,14.3259168 C59.5039299,13.4985183 58.8661477,12.4074028 58.1320363,11.0525377 C57.3979249,9.69767266 56.7184915,8.29111626 56.0937159,6.83282636 C56.0312383,6.66734666 56,6.52772525 56,6.41395795 C56,6.30019065 56.0156192,6.21745204 56.0468579,6.16573963 L56.1093352,6.07265777 C56.2655291,5.87615061 56.5622931,5.77789851 56.9996361,5.77789851 L61.2793279,5.74687122 C61.4042831,5.76755619 61.5240299,5.80116875 61.6385721,5.84770992 C61.7531143,5.89425108 61.8364165,5.93820597 61.8884812,5.9795759 L61.9665777,6.02611683 C62.1331846,6.13988413 62.2581378,6.30536135 62.3414412,6.52255346 C62.5496998,7.03967754 62.7891935,7.57489294 63.0599297,8.1282157 C63.3306658,8.68153847 63.5441276,9.10298827 63.7003215,9.39257775 L63.9502305,9.84247345 C64.2522054,10.4630223 64.543763,11.0008233 64.8249121,11.4558925 C65.1060611,11.9109617 65.3585708,12.2651864 65.5824488,12.5185772 C65.8063267,12.771968 66.0223917,12.9710578 66.2306503,13.1158525 C66.4389088,13.2606473 66.615926,13.3330435 66.7617069,13.3330435 C66.9074879,13.3330435 67.0480603,13.3071877 67.1834284,13.2554753 C67.2042543,13.2451328 67.2302862,13.219277 67.261525,13.1779071 C67.2927638,13.1365372 67.3552404,13.0227716 67.4489567,12.8366069 C67.5426731,12.6504422 67.6129593,12.4073976 67.6598175,12.1074656 C67.7066756,11.8075336 67.7561363,11.3886694 67.8082009,10.8508604 C67.8602656,10.3130513 67.8602656,9.66665592 67.8082009,8.91165477 C67.7873751,8.4979555 67.7405176,8.12046059 67.6676271,7.77915869 C67.5947366,7.4378568 67.5218472,7.19998329 67.4489567,7.06553103 L67.3552409,6.8793673 C67.0949177,6.52772292 66.6523749,6.3053629 66.0275992,6.21228057 C65.8922312,6.19159561 65.9182631,6.06748769 66.1056958,5.83995309 C66.2723026,5.64344594 66.4701453,5.48831105 66.6992297,5.37454375 C67.2511149,5.10563923 68.4954411,4.98153131 70.4322456,5.00221627 C71.2861057,5.01255875 71.9889677,5.07978388 72.5408529,5.20389366 C72.7491115,5.25560606 72.9235254,5.32541677 73.0640999,5.41332786 C73.2046744,5.50123895 73.3114053,5.62534687 73.3842958,5.78565534 C73.4571863,5.9459638 73.5118534,6.11144102 73.5482986,6.28209197 C73.5847439,6.45274292 73.6029662,6.68803084 73.6029662,6.98796281 C73.6029662,7.28789477 73.5977598,7.57230875 73.5873469,7.84121327 C73.576934,8.11011779 73.563918,8.4746848 73.5482986,8.93492523 C73.5326792,9.39516566 73.5248697,9.82178663 73.5248697,10.2148009 C73.5248697,10.3285682 73.5196633,10.5457571 73.5092503,10.866374 C73.4988374,11.1869909 73.4962342,11.4352068 73.5014407,11.611029 C73.5066471,11.7868511 73.5248695,11.9962833 73.5561083,12.2393316 C73.5873471,12.4823799 73.6472205,12.6840553 73.7357304,12.8443637 C73.8242403,13.0046722 73.941384,13.1313657 74.0871649,13.224448 C74.1704684,13.245133 74.2589769,13.2658176 74.3526933,13.2865026 C74.4464096,13.3071876 74.5817756,13.2503048 74.7587954,13.1158525 C74.9358152,12.9814002 75.1336578,12.8029951 75.3523293,12.5806318 C75.5710008,12.3582684 75.8417329,12.0118005 76.1645336,11.5412176 C76.4873344,11.0706346 76.8413686,10.5147346 77.2266469,9.87350074 C77.8514226,8.79788266 78.4085059,7.63437093 78.8979135,6.38293066 C78.9395652,6.27950585 78.991629,6.18901049 79.0541066,6.11144188 C79.1165842,6.03387327 79.1738544,5.97957605 79.2259191,5.94854861 L79.2883963,5.90200767 L79.3664929,5.86322356 C79.3977317,5.84770984 79.4654147,5.83219635 79.5695439,5.81668263 C79.6736732,5.8011689 79.7778009,5.79858332 79.8819302,5.8089258 L84.3802925,5.77789851 C84.7863967,5.72618611 85.1196053,5.73911401 85.3799285,5.81668263 C85.6402517,5.89425124 85.8016497,5.97957543 85.8641273,6.07265777 L85.9578431,6.22779421 Z" id="VK-icon"></path>
                </g>
            </g>
        </g>
    </g>
</svg>