<?xml version="1.0" encoding="UTF-8"?>
<svg width="14px" height="24px" viewBox="0 0 14 24" version="1.1" xmlns="http://www.w3.org/2000/svg" xmlns:xlink="http://www.w3.org/1999/xlink">
    <!-- Generator: sketchtool 47.1 (45422) - http://www.bohemiancoding.com/sketch -->
    <title>37E1BC7C-FB1B-4C3A-99E6-B19596E76A3A</title>
    <desc>Created with sketchtool.</desc>
    <defs></defs>
    <g id="book" stroke="none" stroke-width="1" fill-rule="evenodd">
        <g id="Desktop-HD" transform="translate(-240.000000, -715.000000)">
            <g id="Footer" transform="translate(-716.000000, -157.000000)">
                <g id="Social" transform="translate(840.000000, 871.000000)">
                    <path d="M130,1.20192308 L130,5.64423077 L127.456019,5.64423077 C126.527002,5.64423077 125.900465,5.84615183 125.576389,6.25 C125.252313,6.65384817 125.090278,7.25961135 125.090278,8.06730769 L125.090278,11.2475962 L129.837963,11.2475962 L129.206019,16.2283654 L125.090278,16.2283654 L125.090278,24.7999386 L120.131944,24.7999386 L120.131944,16.2283654 L116,16.2283654 L116,11.2475962 L120.131944,11.2475962 L120.131944,7.57932692 C120.131944,5.49277803 120.693667,3.87460511 121.81713,2.72475962 C122.940592,1.57491412 124.436719,1 126.305556,1 C127.893526,1 129.124996,1.06730702 130,1.20192308 Z" id="Facebook-icon"></path>
                </g>
            </g>
        </g>
    </g>
</svg>