<?xml version="1.0" encoding="UTF-8"?>
<svg width="26px" height="20px" viewBox="0 0 26 20" version="1.1" xmlns="http://www.w3.org/2000/svg" xmlns:xlink="http://www.w3.org/1999/xlink">
    <!-- Generator: sketchtool 47.1 (45422) - http://www.bohemiancoding.com/sketch -->
    <title>C0C84BFE-02F9-42FA-BDC5-95E9EF261417</title>
    <desc>Created with sketchtool.</desc>
    <defs></defs>
    <g id="twitter" stroke="none" stroke-width="1" fill-rule="evenodd">
        <g id="Desktop-HD" transform="translate(-124.000000, -717.000000)">
            <g id="Footer" transform="translate(-716.000000, -157.000000)">
                <g id="Social" transform="translate(840.000000, 871.000000)">
                    <path d="M26,5.375 C25.2631097,6.39583844 24.3722556,7.26562141 23.3274112,7.984375 C23.3384095,8.13020906 23.3439086,8.34895688 23.3439086,8.640625 C23.3439086,9.99479844 23.1349429,11.3463474 22.7170051,12.6953125 C22.2990673,14.0442776 21.6639214,15.3385355 20.8115482,16.578125 C19.9591751,17.8177145 18.9445913,18.9140577 17.7677665,19.8671875 C16.5909417,20.8203173 15.1721741,21.5807263 13.5114213,22.1484375 C11.8506685,22.7161487 10.0744595,23 8.18274112,23 C5.20218476,23 2.47463166,22.2447992 0,20.734375 C0.384942703,20.7760419 0.813872424,20.796875 1.28680203,20.796875 C3.76143369,20.796875 5.96657239,20.0781322 7.90228426,18.640625 C6.74745615,18.6197916 5.71362555,18.2838574 4.80076142,17.6328125 C3.8878973,16.9817676 3.26100001,16.1510467 2.92005076,15.140625 C3.28299674,15.1927086 3.61844178,15.21875 3.92639594,15.21875 C4.39932555,15.21875 4.86674896,15.1614589 5.3286802,15.046875 C4.09686355,14.8072905 3.07678069,14.2265671 2.26840102,13.3046875 C1.46002134,12.3828079 1.05583756,11.3125061 1.05583756,10.09375 L1.05583756,10.03125 C1.80372624,10.4270853 2.6065947,10.6406248 3.46446701,10.671875 C2.73857505,10.2135394 2.16116966,9.61458703 1.7322335,8.875 C1.30329735,8.13541297 1.08883249,7.33333766 1.08883249,6.46875 C1.08883249,5.55207875 1.33079284,4.70312891 1.81472081,3.921875 C3.14552273,5.47396609 4.76500738,6.71614117 6.67322335,7.6484375 C8.58143932,8.58073383 10.6243546,9.09895781 12.8020305,9.203125 C12.7140436,8.80728969 12.6700508,8.42187688 12.6700508,8.046875 C12.6700508,6.65103469 13.1897156,5.46094242 14.2290609,4.4765625 C15.2684062,3.49218258 16.5249503,3 17.998731,3 C19.5385018,3 20.8362891,3.53124469 21.892132,4.59375 C23.0909535,4.37499891 24.2182688,3.96875297 25.2741117,3.375 C24.8671722,4.57292266 24.0863002,5.49999672 22.9314721,6.15625 C23.9543198,6.05208281 24.9771522,5.79166875 26,5.375 Z" id="Twitter-icon"></path>
                </g>
            </g>
        </g>
    </g>
</svg>