<?xml version="1.0" encoding="UTF-8"?>
<svg width="206px" height="47px" viewBox="0 0 206 47" version="1.1" xmlns="http://www.w3.org/2000/svg" xmlns:xlink="http://www.w3.org/1999/xlink">
    <!-- Generator: sketchtool 47.1 (45422) - http://www.bohemiancoding.com/sketch -->
    <title>EC4B3801-B667-4F3B-88AA-21FE31D31095</title>
    <desc>Created with sketchtool.</desc>
    <defs>
        <linearGradient x1="-532.269118%" y1="-98.4206349%" x2="3644.20147%" y2="965.071429%" id="linearGradient-1">
            <stop stop-color="#EC6453" offset="0%"></stop>
            <stop stop-color="#C93A78" offset="100%"></stop>
        </linearGradient>
        <linearGradient x1="-698.232836%" y1="-132.914286%" x2="3540.57313%" y2="930.577778%" id="linearGradient-2">
            <stop stop-color="#EC6453" offset="0%"></stop>
            <stop stop-color="#C93A78" offset="100%"></stop>
        </linearGradient>
        <linearGradient x1="-1020.2125%" y1="-167.248438%" x2="4051.21786%" y2="879.626562%" id="linearGradient-3">
            <stop stop-color="#EC6453" offset="0%"></stop>
            <stop stop-color="#C93A78" offset="100%"></stop>
        </linearGradient>
        <linearGradient x1="-1167.44737%" y1="-209.42381%" x2="3815.00877%" y2="854.068254%" id="linearGradient-4">
            <stop stop-color="#EC6453" offset="0%"></stop>
            <stop stop-color="#C93A78" offset="100%"></stop>
        </linearGradient>
        <linearGradient x1="-1685.64%" y1="-242.434921%" x2="4625.47111%" y2="821.057143%" id="linearGradient-5">
            <stop stop-color="#EC6453" offset="0%"></stop>
            <stop stop-color="#C93A78" offset="100%"></stop>
        </linearGradient>
        <linearGradient x1="-1647.62353%" y1="-277.761905%" x2="3921.00392%" y2="785.730159%" id="linearGradient-6">
            <stop stop-color="#EC6453" offset="0%"></stop>
            <stop stop-color="#C93A78" offset="100%"></stop>
        </linearGradient>
        <linearGradient x1="-1826.10588%" y1="-304.496825%" x2="3742.52157%" y2="758.993651%" id="linearGradient-7">
            <stop stop-color="#EC6453" offset="0%"></stop>
            <stop stop-color="#C93A78" offset="100%"></stop>
        </linearGradient>
        <linearGradient x1="-2326.57955%" y1="-335.574603%" x2="4127.96591%" y2="727.91746%" id="linearGradient-8">
            <stop stop-color="#EC6453" offset="0%"></stop>
            <stop stop-color="#C93A78" offset="100%"></stop>
        </linearGradient>
        <linearGradient x1="-1641.30597%" y1="-369.355556%" x2="2597.50149%" y2="694.136508%" id="linearGradient-9">
            <stop stop-color="#EC6453" offset="0%"></stop>
            <stop stop-color="#C93A78" offset="100%"></stop>
        </linearGradient>
        <linearGradient x1="-2299.10192%" y1="-390.495455%" x2="3162.43654%" y2="624.656061%" id="linearGradient-10">
            <stop stop-color="#EC6453" offset="0%"></stop>
            <stop stop-color="#C93A78" offset="100%"></stop>
        </linearGradient>
        <linearGradient x1="-2864.38444%" y1="-441.35873%" x2="3446.72667%" y2="622.133333%" id="linearGradient-11">
            <stop stop-color="#EC6453" offset="0%"></stop>
            <stop stop-color="#C93A78" offset="100%"></stop>
        </linearGradient>
    </defs>
    <g id="Page-1" stroke="none" stroke-width="1" fill="none" fill-rule="evenodd">
        <g id="Desktop-HD" transform="translate(-120.000000, -61.000000)">
            <g id="logo" transform="translate(120.000000, 60.000000)">
                <g id="Group" transform="translate(50.000000, 1.000000)" fill-rule="nonzero" fill="#FF6653">
                    <polygon id="Shape" points="0 1.07407407 3.12 1.07407407 3.12 13.1740741 11.2722581 13.1740741 11.2722581 1.07407407 14.3922581 1.07407407 14.3922581 28.6740741 11.2722581 28.6740741 11.2722581 15.9740741 3.12 15.9740741 3.12 28.5740741 0 28.5740741"></polygon>
                    <path d="M29.4835175,1.07407407 L32.7041626,1.07407407 L39.7493239,28.6740741 L36.5286787,28.6740741 L34.817711,21.2740741 L27.3699691,21.2740741 L25.6590013,28.6740741 L22.4383562,28.6740741 L29.4835175,1.07407407 Z M34.21384,18.5740741 L31.09384,5.47407407 L27.97384,18.5740741 L34.21384,18.5740741 Z" id="Shape"></path>
                    <polygon id="Shape" points="47.0136986 1.07407407 49.2278922 1.07407407 56.0717631 21.9740741 62.814989 1.07407407 65.1298277 1.07407407 65.1298277 28.6740741 62.1104728 28.6740741 62.1104728 12.5740741 56.9775696 28.6740741 55.367247 28.6740741 50.0330535 12.5740741 50.0330535 28.6740741 47.0136986 28.6740741"></polygon>
                    <path d="M74.7945205,20.2 L77.8138754,20.2 L77.8138754,23.3 C77.8138754,24.6 78.9209722,25.7 80.2293593,25.7 L83.1480689,25.7 C84.456456,25.7 85.5635528,24.5 85.5635528,23.3 L85.5635528,18.4 C85.5635528,17.5 84.9596818,16.5 84.0538754,16.2 L77.7132302,14.2 C76.0022625,13.7 74.7945205,11.9 74.7945205,10.1 L74.7945205,4.7 C74.7945205,2.1 77.0087141,0 79.6254883,0 L83.8525851,0 C86.4693593,0 88.6835528,2.1 88.6835528,4.7 L88.6835528,8.3 L85.664198,8.3 L85.664198,5.3 C85.664198,4 84.5571012,2.9 83.2487141,2.9 L80.3300044,2.9 C79.0216173,2.9 77.9145205,4.1 77.9145205,5.3 L77.9145205,9.7 C77.9145205,10.6 78.5183915,11.6 79.424198,11.9 L85.7648431,13.9 C87.4758109,14.4 88.6835528,16.2 88.6835528,18 L88.6835528,23.8 C88.6835528,26.4 86.5700044,28.5 83.8525851,28.5 L79.6254883,28.5 C77.0087141,28.5 74.7945205,26.4 74.7945205,23.8 L74.7945205,20.2 Z" id="Shape"></path>
                    <polygon id="Shape" points="96.1643836 3.87407407 96.1643836 1.07407407 111.965674 1.07407407 111.965674 3.87407407 105.625029 3.87407407 105.625029 28.6740741 102.505029 28.6740741 102.505029 3.87407407"></polygon>
                    <polygon id="Shape" points="119.671233 1.07407407 131.648007 1.07407407 131.648007 3.87407407 122.791233 3.87407407 122.791233 13.2740741 129.433814 13.2740741 129.433814 15.8740741 122.791233 15.8740741 122.791233 25.6740741 131.949943 25.6740741 131.949943 28.5740741 119.671233 28.5740741"></polygon>
                    <path d="M141.141741,1.07407407 L148.992064,1.07407407 C151.608838,1.07407407 153.823031,3.17407407 153.823031,5.77407407 L153.823031,13.1740741 C153.823031,15.3740741 152.112064,17.2740741 149.998515,17.6740741 L148.891418,17.6740741 L155.634644,28.6740741 L152.212709,28.6740741 L145.670773,17.8740741 L144.161096,17.8740741 L144.161096,28.6740741 L141.041096,28.6740741 L141.041096,1.07407407 L141.141741,1.07407407 Z M148.186902,15.2740741 C149.595935,15.2740741 150.602386,14.0740741 150.602386,12.8740741 L150.602386,6.17407407 C150.602386,4.87407407 149.595935,3.77407407 148.186902,3.77407407 L144.161096,3.77407407 L144.161096,15.2740741 L148.186902,15.2740741 Z" id="Shape"></path>
                </g>
                <g id="Group" transform="translate(50.000000, 41.000000)" fill-rule="nonzero">
                    <polygon id="Shape" fill="url(#linearGradient-1)" points="6.86601942 0 6.86601942 6.3 5.45242718 6.3 5.45242718 2.4 3.8368932 4.9 3.02912621 4.9 1.31262136 2.4 1.31262136 6.3 0 6.3 0 7.10542736e-15 1.31262136 7.10542736e-15 3.53398058 3.3 5.75533981 7.10542736e-15 6.86601942 7.10542736e-15"></polygon>
                    <path d="M10.7216495,6.3 L13.3468922,0 L14.8614553,0 L17.486698,6.3 L16.0731058,6.3 L15.5682514,5.1 L12.6400961,5.1 L12.1352417,6.3 L10.7216495,6.3 Z M13.0439796,4 L15.0633971,4 L14.1546592,1.7 C14.1546592,1.6 14.0536883,1.4 14.0536883,1.2 C14.0536883,1.4 13.9527174,1.6 13.9527174,1.7 L13.0439796,4 Z" id="Shape" fill="url(#linearGradient-2)"></path>
                    <path d="M22.5154639,6.3 L22.5154639,0 L25.1407066,0 C26.3523571,0 27.6649785,0.5 27.6649785,2.1 C27.6649785,3.2 27.0591532,3.7 26.2513862,4 L28.1698328,6.4 L26.5542989,6.4 L24.837794,4.2 L23.8280853,4.2 L23.8280853,6.4 L22.5154639,6.4 L22.5154639,6.3 Z M23.9290562,3 L25.2416775,3 C25.8475028,3 26.3523571,2.7 26.3523571,2.1 C26.3523571,1.5 25.8475028,1.2 25.2416775,1.2 L23.9290562,1.2 L23.9290562,3 Z" id="Shape" fill="url(#linearGradient-3)"></path>
                    <polygon id="Shape" fill="url(#linearGradient-4)" points="32.1649485 6.3 32.1649485 0 33.5785407 0 33.5785407 2.5 34.5882494 2.5 36.2037834 0 37.7183465 0 35.698929 3.1 37.9202883 6.3 36.4057252 6.3 34.6892203 3.7 33.6795116 3.7 33.6795116 6.3"></polygon>
                    <polygon id="Shape" fill="url(#linearGradient-5)" points="46.3581223 0 46.3581223 1.2 43.2280252 1.2 43.2280252 2.5 46.0552097 2.5 46.0552097 3.7 43.2280252 3.7 43.2280252 5.1 46.3581223 5.1 46.3581223 6.3 41.814433 6.3 41.814433 2.13162821e-14 46.3581223 2.13162821e-14"></polygon>
                    <polygon id="Shape" fill="url(#linearGradient-6)" points="55.5412671 0 55.5412671 1.2 53.6228205 1.2 53.6228205 6.3 52.3101992 6.3 52.3101992 1.2 50.3917526 1.2 50.3917526 0"></polygon>
                    <path d="M62.4645381,7.10542736e-15 C63.9791012,7.10542736e-15 65.1907517,0.5 65.1907517,2.1 C65.1907517,3.7 63.9791012,4.2 62.4645381,4.2 L61.4548293,4.2 L61.4548293,6.3 L60.0412371,6.3 L60.0412371,0 L62.4645381,0 L62.4645381,7.10542736e-15 Z M62.565509,1.2 L61.4548293,1.2 L61.4548293,3.1 L62.565509,3.1 C63.2723051,3.1 63.8781303,2.9 63.8781303,2.2 C63.7771594,1.4 63.2723051,1.2 62.565509,1.2 Z" id="Shape" fill="url(#linearGradient-7)"></path>
                    <polygon id="Shape" fill="url(#linearGradient-8)" points="71.003343 0 71.003343 5.1 74.1334401 5.1 74.1334401 6.3 69.6907216 6.3 69.6907216 7.10542736e-15 71.003343 7.10542736e-15"></polygon>
                    <path d="M78.2680412,6.3 L80.893284,0 L82.4078471,0 L85.0330898,6.3 L83.5185267,6.3 L83.0136723,5.1 L80.085517,5.1 L79.5806626,6.3 L78.2680412,6.3 Z M80.5903713,4 L82.6097888,4 L81.7010509,1.7 C81.7010509,1.6 81.6000801,1.4 81.6000801,1.2 C81.6000801,1.4 81.4991092,1.6 81.4991092,1.7 L80.5903713,4 Z" id="Shape" fill="url(#linearGradient-9)"></path>
                    <path d="M92.4227004,0 C93.0285257,0 93.7353218,0.1 94.2401762,0.4 L94.2401762,1.7 C93.8362927,1.4 93.2304674,1.2 92.6246422,1.2 C91.5139626,1.2 90.403283,1.8 90.403283,3.4 C90.403283,4.8 91.5139626,5.4 92.6246422,5.4 C93.2304674,5.4 93.8362927,5.2 94.2401762,4.9 L94.2401762,6.2 C93.7353218,6.5 93.0285257,6.6 92.4227004,6.6 C90.7061956,6.6 88.9896907,5.6 88.9896907,3.4 C89.0906616,1 90.8071664,0 92.4227004,0 Z" id="Shape" fill="url(#linearGradient-10)"></path>
                    <polygon id="Shape" fill="url(#linearGradient-11)" points="103.182865 0 103.182865 1.2 100.052767 1.2 100.052767 2.5 102.879952 2.5 102.879952 3.7 100.052767 3.7 100.052767 5.1 103.182865 5.1 103.182865 6.3 98.6391753 6.3 98.6391753 2.13162821e-14 103.182865 2.13162821e-14"></polygon>
                </g>
                <g id="Page-1" fill="#D8387F">
                    <g id="Group-12" transform="translate(0.000000, 0.786700)">
                        <path d="M15.7223,31.1299 C16.2693,31.1299 16.7133,31.5739 16.7133,32.1209 C16.7133,32.6679 16.2693,33.1119 15.7223,33.1119 C15.1753,33.1119 14.7313,32.6679 14.7313,32.1209 C14.7313,31.5739 15.1753,31.1299 15.7223,31.1299 Z M17.1842,34.0078 L20.6922,34.0078 L18.9382,35.9398 L17.1842,34.0078 Z M19.11,40.1187 L19.11,37.7527 L20.698,37.7527 L20.155,40.1187 L19.11,40.1187 Z M22.155,31.1299 C22.702,31.1299 23.146,31.5739 23.146,32.1209 C23.146,32.6679 22.702,33.1119 22.155,33.1119 C21.607,33.1119 21.164,32.6679 21.164,32.1209 C21.164,31.5739 21.607,31.1299 22.155,31.1299 Z M17.7223,40.1187 L17.1793,37.7527 L18.7663,37.7527 L18.7663,40.1187 L17.7223,40.1187 Z M28.0241,17.936 L28.0241,0.213 L37.8771,0.213 L37.8771,45 L29.8951,45 L26.2761,41.132 L26.2761,40.343 C26.4061,40.327 26.5371,40.305 26.6681,40.275 C28.8491,39.79 30.2241,37.629 29.7401,35.447 C29.3571,33.727 27.9311,32.509 26.2761,32.309 L26.2761,32.243 C26.2761,30.894 25.9201,29.625 25.3001,28.522 C26.0071,28.025 26.3841,27.135 26.1851,26.239 C25.9201,25.049 24.7421,24.3 23.5521,24.564 C22.9761,24.692 22.5041,25.036 22.2001,25.491 C21.1331,24.924 19.9201,24.601 18.6341,24.601 C17.3961,24.601 16.2251,24.901 15.1881,25.43 C14.6891,24.735 13.8061,24.367 12.9191,24.564 C11.7281,24.829 10.9781,26.007 11.2431,27.196 C11.3561,27.707 11.6381,28.134 12.0171,28.437 C11.3671,29.56 10.9931,30.859 10.9931,32.243 L10.9931,32.374 L10.9871,32.376 C8.8051,32.861 7.4301,35.022 7.9161,37.204 C8.2671,38.789 9.5051,39.947 10.9931,40.277 L10.9931,41.132 L7.3741,45 L0.0001,45 L0.0001,0.213 L9.8531,0.213 L9.8531,17.936 L28.0241,17.936 Z" id="Combined-Shape"></path>
                    </g>
                </g>
            </g>
        </g>
    </g>
</svg>