<svg xmlns="http://www.w3.org/2000/svg" viewBox="4550.005 1633.673 35.787 35.787">
  <defs>
    <style>
      .cls-1 {
        fill: #fff;
      }
    </style>
  </defs>
  <g id="insta" transform="translate(4238 799)">
    <path id="Path_490" data-name="Path 490" class="cls-1" d="M23.438,27.02a3.576,3.576,0,1,0-3.581-3.583A3.588,3.588,0,0,0,23.438,27.02Z" transform="translate(306.46 829.129)"/>
    <path id="Path_491" data-name="Path 491" class="cls-1" d="M34.341,17.41V13.96h-.449l-3,.009.012,3.45Z" transform="translate(303.379 830.775)"/>
    <path id="Path_492" data-name="Path 492" class="cls-1" d="M17.894,0A17.894,17.894,0,1,0,35.787,17.894,17.914,17.914,0,0,0,17.894,0ZM28.07,15.805v8.332a3.937,3.937,0,0,1-3.933,3.934H11.65a3.937,3.937,0,0,1-3.933-3.934V11.651A3.937,3.937,0,0,1,11.65,7.718H24.136a3.937,3.937,0,0,1,3.934,3.933Z" transform="translate(312.005 834.673)"/>
    <path id="Path_493" data-name="Path 493" class="cls-1" d="M27.218,24.017a5.566,5.566,0,1,1-10.723-2.088H13.457v8.332a1.95,1.95,0,0,0,1.95,1.949H27.893a1.951,1.951,0,0,0,1.95-1.949V21.929H26.8A5.49,5.49,0,0,1,27.218,24.017Z" transform="translate(308.247 828.55)"/>
  </g>
</svg>
