<svg xmlns="http://www.w3.org/2000/svg" viewBox="4488.389 944.726 160.803 45.321">
  <defs>
    <style>
      .cls-1, .cls-2 {
        fill: #cba67a;
      }

      .cls-1 {
        stroke: rgba(0,0,0,0);
      }
    </style>
  </defs>
  <g id="logo" transform="translate(4407 915)">
    <path id="Path_951" data-name="Path 951" class="cls-1" d="M31.82-27.01c-.111-.925-.333-1.443-.7-1.443s-.666.37-1.258,1.332L19.721-9.213,9.139-26.936C8.362-28.083,8.1-28.453,7.7-28.453c-.37,0-.629.333-.777,1.443L3.552-4.255C3.182-1.813,2.812-.962,1.739-.74c-.407.074-.814.074-1.11.111-.518,0-.74.148-.74.37,0,.37.444.37.814.37C2.072.111,3.811,0,4.958,0,6.068,0,8.1.111,9.731.111c.592,0,.74-.111.74-.407,0-.222-.111-.333-.666-.333A10.021,10.021,0,0,1,8.436-.814C7.511-1,7.141-1.443,7.141-2.516a28.374,28.374,0,0,1,.148-2.96L8.362-15.91c.7,1.258,2.331,4.292,2.96,5.365,1.406,2.368,3.663,6.586,4.958,8.658,1.036,1.628,1.258,2,1.665,2,.3,0,.518-.222,1.517-2.109L27.084-16.28,28.416-3.034c.148,1.665.111,1.887-.481,2.109-.259.074-.407.222-.407.37,0,.185.148.407.851.444C32.6.111,35.594.111,38.665.111c.592,0,.888-.074.888-.37,0-.259-.222-.37-.7-.37a10.6,10.6,0,0,1-2.109-.333c-1.221-.37-1.591-1.295-1.887-3.7ZM57.461.629C67.155.629,73-5.957,73-14.578c0-7.511-5.883-13.8-15.281-13.8-10.878,0-15.836,7.215-15.836,14.615C41.884-7.215,46.546.629,57.461.629Zm1.11-2.368c-6.364,0-9.287-6.7-9.287-13.69,0-8.769,3.811-10.656,7.215-10.656,6.549,0,9.1,6.993,9.1,13.135C65.6-2.738,60.865-1.739,58.571-1.739ZM80.549-5.328c-.111,3.441-.3,4.366-1.739,4.588-.407.074-.888.074-1.221.111-.518,0-.7.148-.7.37,0,.3.3.37.814.37C79.143.111,81.881,0,82.732,0c2.294.037,3.478.111,4.773.111.592,0,.888-.074.888-.37,0-.222-.185-.333-.74-.37a9.7,9.7,0,0,1-1.961-.259c-1.036-.37-1.184-1.369-1.258-4.033l-.37-12.617c2.7,2.627,6.4,6.105,8.473,7.992,2.22,2.035,5.476,4.958,7.992,7.178,2.405,2.109,3.552,3,4.144,3,.481,0,.74-.407.74-2.294.148-7.437.148-14.837.444-22.274.111-2.294.481-2.923,1.7-3.071a4.453,4.453,0,0,1,.925-.111c.444,0,.629-.222.629-.407,0-.222-.259-.333-.814-.333-1.554,0-3.4.111-4.218.111-1.48,0-3.885-.111-5.365-.111-.407,0-.74.111-.74.37,0,.185.185.37.666.37a12.184,12.184,0,0,1,1.628.185c1.48.259,1.665,1.221,1.739,3.293l.222,13.875c-1-.888-3.552-3.367-7.326-6.845-8.473-7.77-10.4-9.62-11.951-10.915-.962-.777-1.147-.888-1.443-.888-.444,0-.592.666-.629,1.776C80.66-21.867,80.734-12.95,80.549-5.328Zm36.038-5.291c0,3.626-.074,6.29-.222,7.844-.111,1.073-.37,1.887-1.147,2-.407.074-.777.111-1.147.148-.444,0-.74.111-.74.37,0,.3.3.37.888.37,1.258,0,5.143-.111,5.328-.111.333,0,4.292.111,6.808.111.592,0,.777-.185.777-.37,0-.222-.148-.37-.777-.37a12.184,12.184,0,0,1-1.628-.185c-1.11-.259-1.332-.925-1.406-1.887-.148-1.554-.185-5-.185-7.918v-6.512c0-5.735,0-6.7.111-7.881.074-1.332.444-1.813,1.406-2,.481-.074.7-.074,1.073-.111.37,0,.7-.074.7-.37,0-.222-.185-.37-.814-.37-1.332,0-5.7.111-6.031.111-.3,0-3.922-.111-5.4-.111-.629,0-.814.111-.814.333,0,.259.259.407.7.407a6.213,6.213,0,0,1,1.11.148c.814.148,1.221.814,1.3,1.85.111,1.184.111,2.257.111,7.992Zm29.3,3.071a.31.31,0,0,1,.3.222l2.479,5.883c.111.333-.037.592-.444.666-.333.074-.518.222-.518.444s.222.333.814.333c2.368.037,6.586.111,10.212.111.7,0,.962-.111.962-.37,0-.222-.222-.37-.7-.37A7.379,7.379,0,0,1,157.8-.777c-1.295-.185-2.109-1.073-3.367-3.959-2.516-5.624-8.732-19.8-9.694-21.867-.629-1.332-.962-1.85-1.332-1.85-.407,0-.814.555-1.517,2.146L132.016-3.959c-.777,1.776-1.517,2.923-2.812,3.182a10.33,10.33,0,0,1-1.184.148c-.444,0-.7.074-.7.37,0,.222.222.37.74.37,1.85,0,4.292-.111,4.7-.111,1.961,0,3.219.111,4.884.111.481,0,.777-.074.777-.37,0-.185-.111-.37-.666-.37-.3-.037-.888-.074-1.295-.148-.777-.074-1.11-.407-1.11-1.11a8.277,8.277,0,0,1,.592-2.368l1.147-3.034c.074-.185.148-.259.333-.259Zm-7.4-2.96c-.111,0-.185-.074-.148-.185l3.145-7.918c.074-.185.148-.259.259,0L145-10.693c.037.074.037.185-.185.185Z" transform="translate(82 73.918)"/>
    <path id="Path_499" data-name="Path 499" class="cls-2" d="M6106.88-1189.506h11.051v-7.768l-4.121,3.113-2.936-6.787-2.716,6.787-3.872-3.113v7.768Z" transform="translate(-5971.709 1230.674)"/>
  </g>
</svg>
