<svg xmlns="http://www.w3.org/2000/svg" viewBox="5507 5603.113 51.875 70.554">
  <defs>
    <style>
      .cls-1 {
        fill: #812e42;
      }
    </style>
  </defs>
  <g id="placeholder" transform="translate(5450.521 5603.114)">
    <path id="Subtraction_2" data-name="Subtraction 2" class="cls-1" d="M2886.417-634.56h0l-20.565-28.807a26.969,26.969,0,0,1-5.373-15.814,25.965,25.965,0,0,1,25.939-25.932,25.766,25.766,0,0,1,18.343,7.6,25.758,25.758,0,0,1,7.594,18.331,26.968,26.968,0,0,1-5.368,15.81l-20.567,28.81Zm0-60.81a16.209,16.209,0,0,0-16.194,16.188,16.211,16.211,0,0,0,16.194,16.191,16.209,16.209,0,0,0,16.191-16.191A16.208,16.208,0,0,0,2886.417-695.371Z" transform="translate(-2804 705.114)"/>
  </g>
</svg>
