<svg xmlns="http://www.w3.org/2000/svg" viewBox="5384 5205 46.074 57">
  <defs>
    <style>
      .cls-1 {
        fill: #cba67a;
      }
    </style>
  </defs>
  <g id="point" transform="translate(5384 5205)">
    <path id="Path_563" data-name="Path 563" class="cls-1" d="M153.97,97.4a11.924,11.924,0,1,0,11.918,11.929A11.932,11.932,0,0,0,153.97,97.4Zm0,20.99a9.061,9.061,0,1,1,9.061-9.061A9.07,9.07,0,0,1,153.97,118.39Z" transform="translate(-130.95 -86.042)"/>
    <path id="Path_564" data-name="Path 564" class="cls-1" d="M69.868,0c-.268,0-.548,0-.816.012A23.015,23.015,0,0,0,47.257,27.346a7.294,7.294,0,0,0,.163.77,22.011,22.011,0,0,0,1.539,4.525c2.367,5.609,7.556,14.25,18.821,23.6a3.318,3.318,0,0,0,4.221,0C83.255,46.9,88.444,38.249,90.8,32.686a22.611,22.611,0,0,0,1.551-4.56c.07-.28.117-.513.152-.735A23.016,23.016,0,0,0,69.868,0Zm19.8,26.9c0,.023-.035.222-.117.583a20.975,20.975,0,0,1-1.376,4.046c-2.251,5.318-7.195,13.539-18,22.506a.471.471,0,0,1-.292.1.5.5,0,0,1-.292-.1c-10.81-8.979-15.766-17.2-18.028-22.553A20.087,20.087,0,0,1,50.2,27.474c-.07-.3-.1-.49-.117-.548,0-.023-.012-.047-.012-.07a20.537,20.537,0,0,1-.268-5.8,20.169,20.169,0,0,1,40.243,1.971A20.923,20.923,0,0,1,89.669,26.9Z" transform="translate(-46.848)"/>
  </g>
</svg>
