<svg xmlns="http://www.w3.org/2000/svg" viewBox="4548 1418 40.004 40.005">
  <g id="telephone" transform="translate(2918 1194)">
    <g id="Ellipse_1" data-name="Ellipse 1" class="cls-1" transform="translate(1630 224)" stroke="#cba67a" stroke-width="2px">
      <circle class="cls-3" cx="20.002" cy="20.002" r="20.002" stroke="#812E42" fill="#812E42"/>
      <circle class="cls-4" cx="20.002" cy="20.002" r="19.002" fill="#812E42"/>
    </g>
    <g id="phone-call_1_" data-name="phone-call (1)" transform="translate(1638.127 234)">
      <g id="Group_34" data-name="Group 34" transform="translate(0.344 0)">
        <path id="Path_30" data-name="Path 30" class="cls-2" d="M16.937,39.208a2.067,2.067,0,0,0-1.5-.687,2.137,2.137,0,0,0-1.517.683l-1.4,1.4c-.115-.062-.231-.12-.342-.177-.16-.08-.31-.155-.439-.235a15.232,15.232,0,0,1-3.65-3.326,8.987,8.987,0,0,1-1.2-1.889c.364-.333.7-.679,1.029-1.011.124-.124.248-.253.373-.377a2.035,2.035,0,0,0,0-3.069L7.082,29.3c-.137-.137-.279-.279-.412-.421-.266-.275-.546-.559-.834-.825a2.1,2.1,0,0,0-1.486-.652,2.172,2.172,0,0,0-1.508.652l-.009.009L1.325,29.588A3.245,3.245,0,0,0,.363,31.65,7.775,7.775,0,0,0,.93,34.941,19.1,19.1,0,0,0,4.323,40.6a20.871,20.871,0,0,0,6.95,5.442,10.828,10.828,0,0,0,3.9,1.153c.093,0,.191.009.279.009a3.342,3.342,0,0,0,2.559-1.1c0-.009.013-.013.018-.022a10.083,10.083,0,0,1,.776-.8c.191-.182.386-.373.577-.572a2.213,2.213,0,0,0,.67-1.535,2.132,2.132,0,0,0-.683-1.521Zm1.588,4.67s0,0,0,0c-.173.186-.35.355-.541.541a11.662,11.662,0,0,0-.856.887,2.138,2.138,0,0,1-1.668.705c-.067,0-.137,0-.2,0A9.619,9.619,0,0,1,11.8,44.969,19.7,19.7,0,0,1,5.25,39.842a18.006,18.006,0,0,1-3.193-5.318,6.333,6.333,0,0,1-.5-2.776,2.036,2.036,0,0,1,.612-1.317l1.512-1.512a1.008,1.008,0,0,1,.674-.315.949.949,0,0,1,.648.31l.013.013c.271.253.528.514.8.794.137.142.279.284.421.43L7.45,31.362a.846.846,0,0,1,0,1.375c-.129.129-.253.257-.381.381-.373.381-.727.736-1.113,1.082-.009.009-.018.013-.022.022A.9.9,0,0,0,5.7,35.23l.013.04a9.721,9.721,0,0,0,1.433,2.337l0,0a16.279,16.279,0,0,0,3.938,3.584,6.057,6.057,0,0,0,.546.3c.16.08.31.155.439.235.018.009.035.022.053.031a.961.961,0,0,0,.439.111.948.948,0,0,0,.674-.306l1.517-1.517a1,1,0,0,1,.67-.333.9.9,0,0,1,.639.324l.009.009L18.52,42.49A.877.877,0,0,1,18.525,43.878Z" transform="translate(-0.344 -26.191)" fill="#ffffff"/>
        <path id="Path_31" data-name="Path 31" class="cls-2" d="M245.437,87.113a5.708,5.708,0,0,1,4.648,4.648.6.6,0,0,0,.59.5.791.791,0,0,0,.1-.009.6.6,0,0,0,.492-.692,6.9,6.9,0,0,0-5.624-5.624.6.6,0,0,0-.692.488A.592.592,0,0,0,245.437,87.113Z" transform="translate(-234.095 -82.114)" fill="#ffffff"/>
        <path id="Path_32" data-name="Path 32" class="cls-2" d="M258.731,9.27A11.365,11.365,0,0,0,249.471.009a.6.6,0,1,0-.2,1.18,10.151,10.151,0,0,1,8.276,8.276.6.6,0,0,0,.59.5.792.792,0,0,0,.1-.009A.588.588,0,0,0,258.731,9.27Z" transform="translate(-237.757 0)" fill="#ffffff"/>
      </g>
    </g>
  </g>
</svg>
