<svg xmlns="http://www.w3.org/2000/svg" viewBox="5043.607 5205.473 54.793 60.054">
  <defs>
    <style>
      .cls-1 {
        fill: #cba67a;
      }
    </style>
  </defs>
  <g id="telephone2" transform="translate(5043.607 5205.473)">
    <g id="Group_194" data-name="Group 194" transform="translate(0 0)">
      <path id="Path_553" data-name="Path 553" class="cls-1" d="M68.456,23.538c.454,0,.909.012,1.363.012s.933,0,1.338-.025a4.854,4.854,0,0,0,5.059-5.059V13.482a7.585,7.585,0,0,0-1.842-5.034,18.146,18.146,0,0,0-6.385-4.506A44.408,44.408,0,0,0,53.1.2a48.728,48.728,0,0,0-20.407,2.48A25.2,25.2,0,0,0,24.34,7.22a8.037,8.037,0,0,0-2.91,6.557v.074a25.462,25.462,0,0,1,.049,2.578c-.012.614-.025,1.252,0,1.891a4.928,4.928,0,0,0,5.157,5.12h8.141a4.75,4.75,0,0,0,4.96-5.059V13.863c.27-.074.528-.16.774-.246a10.6,10.6,0,0,1,1.093-.332,32.664,32.664,0,0,1,7.134-.761,39.7,39.7,0,0,1,4.285.233,20.24,20.24,0,0,1,4.973,1.105c-.049,1.117-.037,2.21-.025,3.278v1.228a4.834,4.834,0,0,0,5.157,5.157h3.978C67.56,23.526,68.014,23.538,68.456,23.538Zm-7.478-5.169V17.117c-.012-1.24-.012-2.407.049-3.61v-.086a2.2,2.2,0,0,0-1.338-2.136c-.037-.012-.061-.037-.1-.049A22.589,22.589,0,0,0,53.353,9.75,46.226,46.226,0,0,0,48.737,9.5a34.861,34.861,0,0,0-7.785.835c-.491.111-.945.258-1.4.405a9.918,9.918,0,0,1-1.105.332l-.147.037a2.219,2.219,0,0,0-1.584,2.259v5a1.8,1.8,0,0,1-1.952,2.05H26.623a1.948,1.948,0,0,1-2.149-2.186c-.012-.577-.012-1.142,0-1.756a28.281,28.281,0,0,0-.049-2.873A4.915,4.915,0,0,1,26.316,9.48a22.486,22.486,0,0,1,7.355-3.966A45.606,45.606,0,0,1,52.813,3.193,41.593,41.593,0,0,1,66.737,6.668a14.666,14.666,0,0,1,5.341,3.708,4.607,4.607,0,0,1,1.13,3.094v4.96a1.91,1.91,0,0,1-2.1,2.087c-.872.025-1.731.025-2.615.012-.467,0-.933-.012-1.4-.012H63.115C61.641,20.518,60.978,19.855,60.978,18.369Z" transform="translate(-21.423 0)"/>
      <path id="Path_554" data-name="Path 554" class="cls-1" d="M212.868,217.5a4.69,4.69,0,1,0,4.69,4.69A4.7,4.7,0,0,0,212.868,217.5Zm0,6.385a1.682,1.682,0,1,1,1.682-1.682A1.685,1.685,0,0,1,212.868,223.887Z" transform="translate(-185.247 -190.796)"/>
      <path id="Path_555" data-name="Path 555" class="cls-1" d="M314.868,217.5a4.69,4.69,0,1,0,4.69,4.69A4.7,4.7,0,0,0,314.868,217.5Zm0,6.385a1.682,1.682,0,1,1,1.682-1.682A1.685,1.685,0,0,1,314.868,223.887Z" transform="translate(-274.723 -190.796)"/>
      <path id="Path_556" data-name="Path 556" class="cls-1" d="M110.868,217.5a4.69,4.69,0,1,0,4.69,4.69A4.7,4.7,0,0,0,110.868,217.5Zm0,6.385a1.682,1.682,0,1,1,1.682-1.682A1.685,1.685,0,0,1,110.868,223.887Z" transform="translate(-95.771 -190.796)"/>
      <path id="Path_557" data-name="Path 557" class="cls-1" d="M212.868,315.1a4.69,4.69,0,1,0,4.69,4.69A4.7,4.7,0,0,0,212.868,315.1Zm0,6.385a1.682,1.682,0,1,1,1.682-1.682A1.685,1.685,0,0,1,212.868,321.487Z" transform="translate(-185.247 -276.412)"/>
      <path id="Path_558" data-name="Path 558" class="cls-1" d="M314.868,315.1a4.69,4.69,0,1,0,4.69,4.69A4.7,4.7,0,0,0,314.868,315.1Zm0,6.385a1.682,1.682,0,1,1,1.682-1.682A1.685,1.685,0,0,1,314.868,321.487Z" transform="translate(-274.723 -276.412)"/>
      <path id="Path_559" data-name="Path 559" class="cls-1" d="M110.868,315.1a4.69,4.69,0,1,0,4.69,4.69A4.7,4.7,0,0,0,110.868,315.1Zm0,6.385a1.682,1.682,0,1,1,1.682-1.682A1.685,1.685,0,0,1,110.868,321.487Z" transform="translate(-95.771 -276.412)"/>
      <path id="Path_560" data-name="Path 560" class="cls-1" d="M212.868,412.7a4.69,4.69,0,1,0,4.69,4.69A4.7,4.7,0,0,0,212.868,412.7Zm0,6.385a1.682,1.682,0,1,1,1.682-1.682A1.685,1.685,0,0,1,212.868,419.087Z" transform="translate(-185.247 -362.029)"/>
      <path id="Path_561" data-name="Path 561" class="cls-1" d="M314.868,412.7a4.69,4.69,0,1,0,4.69,4.69A4.7,4.7,0,0,0,314.868,412.7Zm0,6.385a1.682,1.682,0,1,1,1.682-1.682A1.685,1.685,0,0,1,314.868,419.087Z" transform="translate(-274.723 -362.029)"/>
      <path id="Path_562" data-name="Path 562" class="cls-1" d="M110.868,412.7a4.69,4.69,0,1,0,4.69,4.69A4.7,4.7,0,0,0,110.868,412.7Zm0,6.385a1.682,1.682,0,1,1,1.682-1.682A1.685,1.685,0,0,1,110.868,419.087Z" transform="translate(-95.771 -362.029)"/>
    </g>
  </g>
</svg>
