<svg xmlns="http://www.w3.org/2000/svg" viewBox="4998 1556 59.451 63.07">
  <g id="tissue" transform="translate(4984.723 1556)" fill="#CBA67A">
    <path id="Path_500" data-name="Path 500" class="cls-1" d="M72.728,13.32a1.363,1.363,0,1,0-2.725,0v1.2H67.571v-1.2a1.363,1.363,0,1,0-2.725,0v1.2H62.414V7.251a1.363,1.363,0,1,0-2.725,0v1.2H57.257v-1.2a1.363,1.363,0,1,0-2.725,0v1.2H52.1V1.363a1.363,1.363,0,1,0-2.725,0v1.2H46.943v-1.2a1.363,1.363,0,1,0-2.725,0v1.2H41.787v-1.2a1.363,1.363,0,1,0-2.725,0v1.2H36.63v-1.2a1.363,1.363,0,1,0-2.725,0v1.2H31.473v-1.2a1.363,1.363,0,1,0-2.725,0v1.2H26.316v-1.2a1.363,1.363,0,1,0-2.725,0v1.2H21.159v-1.2a1.363,1.363,0,1,0-2.725,0v1.2H16v-1.2a1.363,1.363,0,1,0-2.725,0V49.75a1.363,1.363,0,0,0,2.725,0v-1.2h2.432v1.2a1.363,1.363,0,0,0,2.725,0v-1.2H23.59v7.086a1.363,1.363,0,1,0,2.725,0v-1.2h2.432v1.2a1.363,1.363,0,1,0,2.725,0v-1.2H33.9v7.266a1.363,1.363,0,0,0,2.725,0v-1.2h2.432v1.2a1.363,1.363,0,0,0,2.725,0v-1.2h2.432v1.2a1.363,1.363,0,0,0,2.725,0v-1.2h2.432v1.2a1.363,1.363,0,0,0,2.725,0v-1.2h2.432v1.2a1.363,1.363,0,0,0,2.725,0v-1.2h2.432v1.2a1.363,1.363,0,0,0,2.725,0v-1.2h2.432v1.2a1.363,1.363,0,1,0,2.725,0v-1.2H70v1.2a1.363,1.363,0,1,0,2.725,0V13.32ZM70,45.431H62.414V41.872H70Zm0-6.284H62.414V35.588H70Zm0-6.284H62.414V29.3H70Zm0-6.284H62.414V23.02H70ZM62.414,51.715V48.156H70v3.559ZM70,17.243v3.052H62.414V17.243H70ZM59.689,11.174V51.715H26.316V49.753s0,0,0,0v-1.2h2.432v1.2a1.363,1.363,0,1,0,2.725,0v-1.2H33.9v1.2a1.363,1.363,0,1,0,2.725,0v-1.2h2.432v1.2a1.363,1.363,0,1,0,2.725,0v-1.2h2.432v1.2a1.363,1.363,0,1,0,2.725,0v-1.2h2.432v1.2a1.363,1.363,0,1,0,2.725,0V11.174h7.588ZM44.143,44.49a4.315,4.315,0,0,1,5.232-4.216v5.553H44.354a4.3,4.3,0,0,1-.21-1.337ZM16,5.285H49.375V24.558a5.715,5.715,0,1,0,0,4.3v8.653a7.034,7.034,0,0,0-7.828,8.315H16V5.285ZM47.071,26.708a2.99,2.99,0,1,1-2.99-2.99A2.993,2.993,0,0,1,47.071,26.708ZM36.629,57.784V55.642s0,0,0,0v-1.2h2.432v1.2a1.363,1.363,0,1,0,2.725,0v-1.2h2.432v1.2a1.363,1.363,0,1,0,2.725,0v-1.2h2.432v1.2a1.363,1.363,0,1,0,2.725,0v-1.2h2.432v1.2a1.363,1.363,0,1,0,2.725,0v-1.2h2.432v1.2a1.363,1.363,0,1,0,2.725,0v-1.2H70v3.344H36.629Z" fill="#CBA67A"/>
    <path id="Path_501" data-name="Path 501" class="cls-1" d="M50.2,73.856c.17,0,.338-.008.505-.021a5.426,5.426,0,1,0,6.309-7.683,6.866,6.866,0,1,0-6.814,7.7Zm6.573-4.882a2.7,2.7,0,1,1-3.35,4.077A6.9,6.9,0,0,0,56.778,68.974ZM50.2,62.847a4.142,4.142,0,1,1-4.142,4.142A4.146,4.146,0,0,1,50.2,62.847Z" transform="translate(-25.965 -51.929)" fill="#CBA67A"/>
    <path id="Path_502" data-name="Path 502" class="cls-1" d="M146.673,226.263a4.563,4.563,0,1,0,4.563-4.563A4.568,4.568,0,0,0,146.673,226.263Zm4.563-1.838a1.838,1.838,0,1,1-1.838,1.838A1.84,1.84,0,0,1,151.236,224.425Z" transform="translate(-115.219 -191.49)"/>
    <path id="Path_503" data-name="Path 503" class="cls-1" d="M185.406,75.224a4.563,4.563,0,1,0-4.563-4.563A4.568,4.568,0,0,0,185.406,75.224Zm0-6.4a1.838,1.838,0,1,1-1.838,1.838A1.84,1.84,0,0,1,185.406,68.823Z" transform="translate(-144.733 -57.091)" fill="#CBA67A"/>
    <path id="Path_504" data-name="Path 504" class="cls-1" d="M46.156,198.463c0-.137-.007-.274-.019-.409a6.485,6.485,0,1,0-8.509-1.843,4.562,4.562,0,1,0,8.528,2.252ZM42.9,188.684a3.758,3.758,0,1,1-3.758,3.758A3.762,3.762,0,0,1,42.9,188.684Zm-3.142,9.779a1.867,1.867,0,0,1,.031-.335,6.443,6.443,0,0,0,3.111.8c.161,0,.319-.008.477-.019a1.836,1.836,0,0,1-3.619-.443Z" transform="translate(-19.985 -160.619)" fill="#CBA67A"/>
  </g>
</svg>
