<svg xmlns="http://www.w3.org/2000/svg" viewBox="4611.998 1633.673 35.787 35.787">
  <defs>
    <style>
      .cls-1 {
        fill: #cba67a;
      }
    </style>
  </defs>
  <path id="vk" class="cls-1" d="M17.894,0A17.893,17.893,0,1,0,35.787,17.893,17.894,17.894,0,0,0,17.894,0ZM26.97,19.829a34.025,34.025,0,0,1,2.465,2.48,7.026,7.026,0,0,1,.882,1.271c.34.659.033,1.382-.557,1.422H26.094a2.832,2.832,0,0,1-2.335-.951c-.507-.516-.978-1.067-1.466-1.6a3.428,3.428,0,0,0-.66-.587.765.765,0,0,0-1.22.3,3.84,3.84,0,0,0-.386,1.711c-.04.864-.3,1.09-1.168,1.131a9.387,9.387,0,0,1-5.246-1.129,11.579,11.579,0,0,1-3.53-3.3,44.531,44.531,0,0,1-4.647-8.283c-.293-.653-.079-1,.641-1.016,1.2-.023,2.393-.02,3.589,0a1.055,1.055,0,0,1,1,.746A22.274,22.274,0,0,0,13.1,16.522a3.854,3.854,0,0,0,.92,1.01.558.558,0,0,0,.949-.279,3.074,3.074,0,0,0,.211-.946,14.129,14.129,0,0,0-.058-3.313,1.382,1.382,0,0,0-1.177-1.265c-.35-.066-.3-.2-.129-.4a1.318,1.318,0,0,1,1.125-.559h4.142c.653.128.8.421.888,1.079l0,4.6c-.008.254.128,1.009.585,1.175.366.121.608-.173.827-.4a14.314,14.314,0,0,0,2.335-3.586c.28-.568.521-1.155.755-1.744a.892.892,0,0,1,.937-.642l3.988,0a2.075,2.075,0,0,1,.353.021c.672.115.856.4.648,1.06a9.938,9.938,0,0,1-1.585,2.749c-.666.921-1.377,1.81-2.037,2.735C26.169,18.669,26.217,19.094,26.97,19.829Z" transform="translate(4611.998 1633.673)"/>
</svg>
