<?xml version="1.0" encoding="UTF-8"?>
<svg width="100px" height="100px" viewBox="0 0 100 100" version="1.1" xmlns="http://www.w3.org/2000/svg" xmlns:xlink="http://www.w3.org/1999/xlink" id="arenas-arena">
    <!-- Generator: sketchtool 48.2 (47327) - http://www.bohemiancoding.com/sketch -->
    <title>01847BB6-4909-4570-B6E1-073E25F6A8BF</title>
    <desc>Created with sketchtool.</desc>
    <defs></defs>
    <g id="Symbols" stroke="none" stroke-width="1" fill="none" fill-rule="evenodd">
        <g id="ico/round/arena">
            <g id="Group-6">
                <circle id="Oval" stroke="#EE3522" stroke-width="2" cx="50" cy="50" r="50"></circle>
                <path d="M72.2830169,37.7884848 L68.5617235,35.0252391 C68.2826286,34.8170458 67.9048912,34.7838869 67.5886419,34.9386286 C67.2723054,35.0951838 67.0732759,35.4139069 67.0732759,35.7620758 L67.0732759,44.0204674 C63.9009271,43.0717243 59.2827798,42.618552 55.5540729,42.4049185 C55.4591807,42.3312608 55.3493743,42.2740961 55.224741,42.2409372 C54.9698054,42.1728059 54.7112066,42.2206446 54.4990945,42.3496536 C52.7222198,42.2612297 51.233685,42.2298842 50.3275862,42.2170178 L50.3275862,39.9069444 L53.6767241,37.4200233 C53.9111638,37.2468887 54.0488796,36.9723775 54.0488796,36.6831865 C54.0488796,36.3939956 53.9111638,36.1194844 53.6767241,35.9463498 L49.9554307,33.1831041 C49.6763359,32.9749108 49.2967669,32.9417518 48.9823491,33.0964936 C48.6660126,33.2530487 48.4669831,33.5717719 48.4669831,33.9199408 L48.4669831,42.2170178 C47.5608843,42.2298842 46.074181,42.2630431 44.2991379,42.3478402 C44.0870259,42.2207309 43.8284271,42.1728059 43.5734914,42.2410235 C43.4488581,42.2741825 43.3390517,42.3312608 43.2441595,42.4031051 C38.6930822,42.6646636 32.8097633,43.2800039 29.8606031,44.7205184 L29.8606031,41.7491658 L33.209741,39.2622446 C33.4441807,39.08911 33.5818966,38.8145988 33.5818966,38.5254079 C33.5818966,38.236217 33.4441807,37.9617058 33.209741,37.7885712 L29.4884476,35.0253255 C29.2093528,34.8171322 28.8316154,34.7839732 28.515366,34.938715 C28.1991167,35.0952701 28,35.4139932 28,35.7621622 L28,46.815145 C28,46.907282 28.0074135,46.9957059 28.0241591,47.0841297 L29.8606031,63.3946193 C29.8606031,67.9484482 48.5990298,68 49.397241,68 C50.1954522,68 68.933879,67.9484482 68.9282971,63.4977229 L70.7703229,47.0840434 C70.7870686,46.9956195 70.7944821,46.9053823 70.7944821,46.8169584 C70.7944821,46.815145 70.7944821,46.815145 70.7944821,46.815145 C70.7944821,45.9695918 70.0874128,45.2805938 68.933879,44.7187914 L68.933879,41.7491658 L72.2811853,39.2622446 C72.5174566,39.08911 72.6551724,38.8145988 72.6551724,38.5254079 C72.6551724,38.2361306 72.5174566,37.9617058 72.2830169,37.7884848 Z M50.3275862,35.7621622 L51.5685988,36.6832729 L50.3275862,37.6042972 L50.3275862,35.7621622 Z M29.8606031,37.6042972 L31.1016157,38.5254079 L29.8606031,39.4465186 L29.8606031,37.6042972 Z M55.6433833,44.2268473 C58.5794609,44.3981685 61.0596545,44.681833 63.0579735,45.0134225 L59.8948697,48.9279918 C59.8651286,48.9666772 59.8539648,49.0108891 59.8297185,49.0532877 C59.7738995,49.0588142 59.7180805,49.0661541 59.66043,49.0716806 C59.4594817,49.0937865 59.2659469,49.1158925 59.0594168,49.1379984 C58.7189211,49.1711574 58.3579294,49.2006032 58.000688,49.2319488 C57.7904075,49.2503417 57.5894592,49.2706342 57.373684,49.2872137 C56.9978654,49.3166596 56.5996319,49.3406653 56.2052361,49.366398 C55.9893737,49.3811641 55.7810119,49.3958438 55.5595676,49.4087965 C55.1483388,49.4327159 54.7167012,49.4511951 54.2887268,49.4695879 C54.2570669,49.4714013 54.2273259,49.473301 54.1975849,49.473301 L55.6433833,44.2268473 Z M49.397241,44.0518993 C50.9285123,44.0518993 52.3742235,44.0813452 53.738125,44.1347967 L52.2495902,49.5378919 C52.2160988,49.5378919 52.184439,49.5397053 52.1528664,49.541605 C51.9575,49.5471315 51.7695471,49.5544714 51.5705176,49.5581845 C50.8653671,49.5710509 50.1415521,49.5784771 49.3973283,49.5784771 C48.6437722,49.5784771 47.9087934,49.5711372 47.1962295,49.5581845 C46.9729536,49.5544714 46.7664234,49.5453181 46.5468979,49.5397916 L45.0583631,44.134883 C46.4220902,44.0813452 47.8678014,44.0518993 49.397241,44.0518993 Z M43.1548491,44.2250339 L44.6005603,49.4733874 C42.512931,49.3831502 40.6336635,49.2375616 38.9684267,49.0551874 C38.9442676,49.0127889 38.9331038,48.9649502 38.901444,48.924365 L35.740259,45.0134225 C37.7404095,44.6819193 40.2131897,44.3963552 43.1548491,44.2250339 Z M29.886681,46.8445909 C30.1583624,46.4282906 31.4645262,45.892221 33.7121117,45.4003632 C33.7381897,45.4501016 33.751185,45.5016535 33.7884267,45.5477651 L36.3523488,48.7199712 C32.456185,48.13045 30.2253452,47.3658944 29.886681,46.8445909 Z M54.0488796,66.0380955 C52.605,66.1117533 51.062565,66.1559652 49.3973283,66.1559652 C47.7320915,66.1559652 46.1914881,66.1117533 44.7457769,66.0380955 L44.7457769,61.5523979 C44.7457769,61.0439607 45.1625876,60.6312872 45.676122,60.6312872 L53.1185345,60.6312872 C53.632069,60.6312872 54.0488796,61.0439607 54.0488796,61.5523979 L54.0488796,66.0380955 Z M67.0788578,63.3504073 C66.7588581,64.1369825 62.8515305,65.4062621 55.9094828,65.923939 L55.9094828,61.5524843 C55.9094828,60.028986 54.6573064,58.7892385 53.1185345,58.7892385 L45.6760348,58.7892385 C44.1391817,58.7892385 42.8850865,60.028986 42.8850865,61.5524843 L42.8850865,65.9221256 C35.9430388,65.4026354 32.0357112,64.1242025 31.7157115,63.293329 L30.1155388,49.0312681 C30.1527805,49.0478476 30.1992672,49.0607139 30.236509,49.0772934 C30.5230172,49.2006896 30.8244397,49.320459 31.15194,49.4309888 C31.1705172,49.4365153 31.1854314,49.4438552 31.2040086,49.4493817 C31.5482546,49.565438 31.9203229,49.6704414 32.3018107,49.7736313 C32.3837076,49.7957373 32.467436,49.8178432 32.5511645,49.8399492 C32.932565,49.9376127 33.3270481,50.0296633 33.7382769,50.1144604 C33.8034281,50.1273268 33.8684921,50.1402795 33.9336433,50.1531458 C34.3113807,50.2305167 34.6983631,50.3023611 35.0928462,50.368679 C35.1747431,50.3834451 35.2565527,50.3981248 35.3384496,50.4110776 C35.7700872,50.4829219 36.211057,50.5492398 36.6576088,50.6100312 C36.7599145,50.6247973 36.8623074,50.6376637 36.9646131,50.6505301 C37.4055829,50.7095081 37.8483843,50.764773 38.294936,50.8145114 C38.315432,50.8163248 38.3358409,50.8200379 38.3581684,50.8218513 C38.8252162,50.8734031 39.2940955,50.9195148 39.7592245,50.9637267 C39.8615302,50.9729663 39.9620043,50.9821196 40.0624784,50.9913592 C40.5127805,51.031858 40.9611638,51.06873 41.4021336,51.101889 C41.4802802,51.1074155 41.5565952,51.112942 41.6347417,51.1184685 C42.0292248,51.1479143 42.4180388,51.1737334 42.7995265,51.1958393 C42.8850865,51.2031792 42.968815,51.2087057 43.0525434,51.2142322 C43.4674353,51.2381515 43.8675003,51.2602575 44.2582331,51.2787367 C44.3605388,51.2842632 44.4573498,51.2879763 44.5578239,51.2935028 C44.9188157,51.3100823 45.2704751,51.3248484 45.6034702,51.3377147 C45.6407119,51.3395281 45.6797852,51.3414278 45.7169397,51.3414278 C45.7485995,51.3432412 45.7745902,51.3432412 45.80625,51.345141 C45.8136635,51.345141 45.8192454,51.3524808 45.826746,51.3524808 C45.8397414,51.3524808 45.8509052,51.3469543 45.8639877,51.3469543 C46.1672417,51.3580073 46.4538372,51.3672469 46.7254314,51.3745868 C46.7905826,51.3764002 46.853815,51.3782999 46.9170474,51.3801133 C47.2166383,51.3874532 47.4957331,51.3948794 47.74875,51.4004059 C47.8175643,51.4022193 47.8753021,51.4022193 47.940366,51.404119 C48.1506466,51.4078321 48.340431,51.4114589 48.5097195,51.4133586 C48.5469612,51.4133586 48.5841157,51.415172 48.6176071,51.415172 C48.7999781,51.4169853 48.9487705,51.4188851 49.0715723,51.4188851 C49.1311416,51.4188851 49.1627142,51.4188851 49.2073693,51.4188851 C49.2892662,51.4188851 49.3543302,51.4188851 49.3878216,51.4188851 L49.3971538,51.4188851 C49.4306452,51.4188851 49.5013783,51.4188851 49.5906886,51.4188851 C49.6315935,51.4188851 49.659503,51.4188851 49.7116588,51.4188851 C49.8382109,51.4188851 49.9925852,51.4170717 50.1823697,51.415172 C50.2065288,51.415172 50.2326067,51.415172 50.2567659,51.4133586 C50.4391369,51.4115452 50.6456671,51.4078321 50.8763564,51.404119 C50.928425,51.4023056 50.9730802,51.4023056 51.0288992,51.4023056 C51.2912483,51.3967791 51.5833385,51.3894392 51.8940931,51.382013 C51.9424987,51.3801996 51.9908169,51.3782999 52.041054,51.3782999 C52.3015716,51.37096 52.5750845,51.3617204 52.8634244,51.3524808 C52.8969157,51.3561939 52.9304071,51.3653472 52.9657301,51.3653472 C52.9862261,51.3653472 53.0029718,51.3469543 53.0233806,51.3469543 C53.0550404,51.345141 53.0829499,51.345141 53.1145225,51.3432412 C53.1201044,51.3432412 53.1238547,51.3432412 53.1294366,51.3432412 C53.4885096,51.3303749 53.8699973,51.3137954 54.2625616,51.2953162 C54.3462901,51.2916031 54.428187,51.2879763 54.5155785,51.2842632 C54.9174751,51.2639706 55.3305354,51.2418647 55.7565911,51.2179453 C55.8235739,51.2142322 55.8923882,51.2087057 55.9612897,51.2050789 C56.3631863,51.1811596 56.7724963,51.1535271 57.189307,51.1221816 C57.2525394,51.1166551 57.3139403,51.112942 57.3772599,51.1093152 C57.827562,51.0761563 58.2852775,51.0374708 58.7448246,50.996972 C58.8359665,50.9896321 58.9252768,50.9803925 59.0145871,50.9711529 C59.4890484,50.926941 59.9653411,50.8809157 60.4417211,50.8274641 C60.4491346,50.8274641 60.4566352,50.8256508 60.4640487,50.8256508 C60.9255145,50.774099 61.3832301,50.7169343 61.8390268,50.6561429 C61.9357506,50.6432765 62.0306428,50.6303238 62.1274539,50.6174575 C62.5777559,50.5548527 63.0223889,50.4885348 63.4577768,50.4166904 C63.5359234,50.403824 63.6122383,50.3890579 63.6884661,50.3761916 C64.0903627,50.3080603 64.482927,50.2343162 64.8662463,50.1569453 C64.9276472,50.1440789 64.9908796,50.133026 65.0504489,50.1200732 C65.4616777,50.0334628 65.8579923,49.9414121 66.2412244,49.8437487 C66.3249529,49.8234561 66.404931,49.8013501 66.4868279,49.7792442 C66.8701472,49.6760542 67.2422154,49.5710509 67.5864615,49.4549945 C67.6032072,49.4494681 67.6181213,49.4421282 67.6366985,49.4366017 C67.9660304,49.3260719 68.2674529,49.2063024 68.5558799,49.0829062 C68.5931216,49.0663268 68.6396084,49.0534604 68.6768501,49.0368809 L67.0788578,63.3504073 Z M68.8110772,46.8961427 C68.7794174,46.9274882 68.7515079,46.9569341 68.7106031,46.9882796 C68.660366,47.0269651 68.5933833,47.0656505 68.5282321,47.1061493 C68.4761635,47.1374949 68.4277579,47.1687541 68.3663571,47.2019131 C68.286379,47.2443116 68.1914867,47.2866238 68.0965945,47.3290224 C68.0258614,47.3603679 67.9607974,47.3916272 67.8807321,47.4247861 C67.7728445,47.468998 67.6462924,47.51321 67.5216591,47.5592353 C67.4323488,47.5905809 67.3504519,47.6237398 67.2537281,47.654999 C67.1160123,47.7010243 66.9616379,47.7452363 66.8090079,47.7913479 C66.7011204,47.8226935 66.6006462,47.8558524 66.4852579,47.8871117 C66.3196326,47.933137 66.1335985,47.9792486 65.9512274,48.0252739 C65.8284257,48.0566195 65.7130374,48.0878787 65.5828223,48.1174109 C65.3837055,48.165336 65.16418,48.2113613 64.9464861,48.2573866 C64.8125205,48.2868324 64.6841369,48.3163646 64.5445895,48.3439971 C64.3119814,48.3919221 64.0589645,48.436134 63.8096107,48.4821594 C63.6626499,48.5097918 63.524934,48.5356109 63.3723912,48.5632433 C63.1174555,48.6074553 62.8421111,48.6498538 62.5704297,48.692166 C62.5313564,48.6976925 62.4941147,48.703219 62.4569602,48.7105589 L65.0116373,45.5494058 C65.048879,45.5033805 65.0618743,45.4499289 65.0879522,45.4001905 C67.2667235,45.8772822 68.5710557,46.3967724 68.8966373,46.8076325 C68.8724781,46.837251 68.8427371,46.8666968 68.8110772,46.8961427 Z M68.933879,39.4464322 L68.933879,37.6042972 L70.1748916,38.5254079 L68.933879,39.4464322 Z" id="Shape" fill="#EE3522" fill-rule="nonzero"></path>
            </g>
        </g>
    </g>
</svg>