<?xml version="1.0" encoding="UTF-8"?>
<svg width="100px" height="100px" viewBox="0 0 100 100" version="1.1" xmlns="http://www.w3.org/2000/svg" xmlns:xlink="http://www.w3.org/1999/xlink" id="arenas-people">
    <!-- Generator: sketchtool 48.2 (47327) - http://www.bohemiancoding.com/sketch -->
    <title>BCFFBCFD-81BD-4309-A2F6-FC71BE15C3C6</title>
    <desc>Created with sketchtool.</desc>
    <defs></defs>
    <g id="Symbols" stroke="none" stroke-width="1" fill="none" fill-rule="evenodd">
        <g id="ico/round/people" stroke="#EE3522" stroke-width="2">
            <g id="Group-5">
                <path d="M55.725887,43.6813822 L55.7340542,43.5456294 C55.7628794,43.0877842 55.8493551,42.6289785 55.9986057,42.144399 C56.7848937,39.5795053 59.1098082,37.8571429 61.7868709,37.8571429 C64.3238109,37.8571429 66.611733,39.4600813 67.4835359,41.8490408 C67.7150986,42.4746559 67.8406484,43.1217224 67.8571429,43.7750323 L67.8571429,43.9365588 C67.8571429,44.7390686 67.6946006,45.5313329 67.3714378,46.2906196 C66.9278496,47.33694 66.2136246,48.2300583 65.2985839,48.8801665 L65.1288354,48.9963887 C65.00841,49.0756312 64.8849419,49.1465491 64.7819718,49.2062611 L64.6769199,49.2680542 C64.5544127,49.3338494 64.4246992,49.3914803 64.2991493,49.4481507 L64.1385288,49.5262725 C64.0562167,49.5613313 63.9697411,49.5899866 63.7927862,49.6517797 L63.5910096,49.7279805 C63.5024521,49.7547149 63.4140548,49.7742453 63.2471888,49.8133062 L63.0093807,49.8770204 C62.9363568,49.8914281 62.861251,49.900713 62.788067,49.909998 L62.4062929,49.9685894 C61.587016,50.0519941 60.748202,49.9685894 59.981451,49.7268599 C59.9207579,49.7073295 59.8640683,49.6845973 59.8064178,49.6620252 L59.6457973,49.6034338 C59.5716524,49.57766 59.4976676,49.5541274 59.4235227,49.5221103 C57.2025392,48.5827272 55.7483066,46.4191684 55.7143569,43.929355 C55.7135562,43.8449898 55.7196415,43.7636662 55.725887,43.6813822 Z M35.7292992,41.1086794 L35.7398684,40.9329995 C35.7771716,40.3404939 35.8890813,39.7467453 36.0822292,39.1196424 C37.0997784,35.8003682 40.1084913,33.5714286 43.5729253,33.5714286 C46.8560242,33.5714286 49.8168646,35.6458196 50.9450801,38.7374141 C51.2447494,39.5470336 51.4072257,40.3844139 51.4285714,41.2298737 L51.4285714,41.438908 C51.4285714,42.4774501 51.2182227,43.5027334 50.800012,44.4853396 C50.2259567,45.8394013 49.3016655,46.9952015 48.1174951,47.836518 L47.8978206,47.9869232 C47.7419759,48.0894723 47.5821938,48.1812485 47.4489383,48.2585228 L47.3129888,48.3384903 C47.15445,48.4236371 46.9865855,48.4982182 46.8241092,48.5715563 L46.6162473,48.6726552 C46.5097259,48.7180254 46.3978162,48.7551087 46.1688158,48.8350763 L45.9076931,48.9336891 C45.7930893,48.9682864 45.6786928,48.9935612 45.4627485,49.0441106 L45.1549968,49.1265642 C45.0604953,49.1452094 44.9632997,49.1572253 44.8685909,49.1692411 L44.3745303,49.2450653 C43.3142896,49.3530007 42.2287656,49.2450653 41.2364996,48.9322389 C41.1579556,48.9069642 41.0845925,48.8775461 41.0099861,48.8483351 L40.8021242,48.772511 C40.706172,48.7391567 40.610427,48.7087027 40.5144748,48.6672688 C37.6402608,47.4515965 35.7583128,44.651697 35.7143779,41.4295854 C35.7133417,41.3204069 35.7212168,41.2151647 35.7292992,41.1086794 Z M27.8571429,65 C28.039921,56.3032771 35.0194379,49.2857143 43.5724501,49.2857143 C47.6965101,49.2857143 51.4447983,50.9287444 54.2516925,53.5922453 C54.4688889,53.797624 54.677913,54.0102288 54.8819078,54.2258845 C54.9647317,54.3146839 55.0455124,54.4054103 55.1262931,54.4951732 C55.7464501,55.1835694 56.3040571,55.922387 56.7948707,56.7047211 C56.8756514,56.833665 56.9564321,56.9637328 57.0342268,57.0968517 C57.1736285,57.3332219 57.3089441,57.5705556 57.4351443,57.8130278 C57.4987945,57.9328187 57.5542723,58.0555 57.6139935,58.1773784 C57.8453344,58.6510824 58.0554585,59.1350633 58.2402798,59.6294818 C58.2817703,59.7399592 58.3260896,59.8493125 58.365537,59.9607534 C58.4625053,60.2404796 58.5514584,60.5232567 58.6331821,60.8079609 C59.0199552,62.1444483 59.2553822,63.5448457 59.2857143,65 L27.8571429,65 Z M58.353572,59.9988977 C58.3495375,59.9877173 58.344572,59.9776392 58.3405375,59.9664588 C58.1461058,59.3784643 57.9197086,58.8066893 57.6683285,58.2479844 C57.6255007,58.1528723 57.5786385,58.0607521 57.5347246,57.9676871 C57.3063101,57.4829932 57.0580334,57.0123142 56.7888084,56.5528156 C56.7259634,56.4455782 56.6621873,56.3381834 56.596394,56.2320484 C56.3152207,55.7745969 56.0140301,55.3313177 55.6939084,54.9033132 C55.6340117,54.8233182 55.5772184,54.7414336 55.5163906,54.6623835 C55.1284583,54.162415 54.721595,53.680713 54.2857143,53.2253086 C56.2404274,51.1657533 58.9180911,50 61.7613242,50 C67.3110832,50 71.8607528,54.4378307 72.1428571,60 L58.353572,60 L58.353572,59.9988977 L58.353572,59.9988977 Z" id="Shape" fill-rule="nonzero"></path>
                <circle id="Oval" cx="50" cy="50" r="50"></circle>
            </g>
        </g>
    </g>
</svg>