<?xml version="1.0" encoding="UTF-8"?>
<svg width="530px" height="378px" viewBox="0 0 530 378" version="1.1" xmlns="http://www.w3.org/2000/svg" xmlns:xlink="http://www.w3.org/1999/xlink">
    <!-- Generator: sketchtool 48.2 (47327) - http://www.bohemiancoding.com/sketch -->
    <title>B056878B-6579-4C31-999A-5DA244049457</title>
    <desc>Created with sketchtool.</desc>
    <defs></defs>
    <g id="Symbols" stroke="none" stroke-width="1" fill="none" fill-rule="evenodd">
        <g id="5_color/pattern/blue-dark">
            <g id="Page-1-Copy-2" transform="translate(265.000000, 189.000000) rotate(90.000000) translate(-265.000000, -189.000000) translate(76.000000, -76.000000)">
                <polygon id="Fill-1" fill="#43B4E4" points="0.18431405 529.949769 377.728215 529.949769 377.728215 0.909090909 0.18431405 0.909090909"></polygon>
                <polygon id="Fill-2" fill="#1E96D2" points="0.185563636 0.907841322 0.185563636 529.948519 377.729464 529.948519 0.210555372 0.907841322"></polygon>
                <polygon id="Fill-3" fill="#008DCD" points="377.717593 0.907841322 263.817759 369.723379 377.733213 529.948519 377.733213 0.907841322"></polygon>
                <polygon id="Fill-4" fill="#008DCD" points="204.662633 529.946957 377.730402 529.946957 263.818071 369.728064"></polygon>
                <polygon id="Fill-5" fill="#1E96D2" points="0.185563636 0.907841322 0.185563636 529.948519 101.10844 142.242354 0.210555372 0.907841322"></polygon>
                <polygon id="Fill-6" fill="#00A8E0" points="0.185563636 529.946957 263.81401 369.728064 101.10844 142.24704"></polygon>
                <polygon id="Fill-7" fill="#00A8E0" points="263.818071 369.726815 377.730402 529.945707 377.730402 318.146997"></polygon>
                <polygon id="Fill-8" fill="#008DCD" points="0 245.846218 100.919752 142.514764 0 1.14276364"></polygon>
                <polygon id="Fill-9" fill="#008DCD" points="0.267099174 0.907841322 177.917727 79.9004694 377.636058 0.907841322"></polygon>
                <polygon id="Fill-10" fill="#00A8E0" points="0.213679339 0.907841322 100.917878 142.514139 177.917415 79.9004694 0.266786777 0.907841322"></polygon>
                <polygon id="Fill-11" fill="#1E96D2" points="377.636058 0.907841322 177.914603 79.9004694 344.409545 108.80966 377.717281 0.907841322"></polygon>
                <polygon id="Fill-12" fill="#5CBAE6" points="101.113438 142.243291 344.407983 108.810597 177.916165 79.8951587"></polygon>
                <polygon id="Fill-13" fill="#1E96D2" points="0.267099174 0.907841322 177.917727 79.9004694 204.649512 0.907841322"></polygon>
                <polygon id="Fill-14" fill="#008DCD" points="0.185563636 318.142936 64.7704562 281.867431 0.185563636 245.560688"></polygon>
                <polygon id="Fill-15" fill="#00A8E0" points="377.717593 0.907841322 312.539147 211.931808 377.733213 246.742172 377.733213 0.907841322"></polygon>
            </g>
        </g>
    </g>
</svg>