<?xml version="1.0" encoding="UTF-8"?>
<svg width="50px" height="60px" viewBox="0 0 50 60" version="1.1" xmlns="http://www.w3.org/2000/svg" xmlns:xlink="http://www.w3.org/1999/xlink">
    <!-- Generator: sketchtool 48.2 (47327) - http://www.bohemiancoding.com/sketch -->
    <title>DEA45625-43C4-4965-8F91-491C7D392ACC</title>
    <desc>Created with sketchtool.</desc>
    <defs></defs>
    <g id="Symbols" stroke="none" stroke-width="1" fill="none" fill-rule="evenodd">
        <g id="ico/cup/bro" fill="#CD7F32" fill-rule="nonzero">
            <g id="trophy-(1)">
                <path d="M42.623485,2.10526316 C42.0467913,2.10526316 41.4528829,2.17958411 40.8599308,2.32536751 L41.3161213,4.1748158 C44.9321726,3.29058705 48.0853386,6.03188675 48.0853386,9.45350901 C48.0853386,17.4677849 38.9251856,23.3743949 35.106383,24.4863507 L35.642909,26.3157895 C40.4936394,24.9027386 49.9990436,18.3043721 50,9.45350901 C50,5.4011115 46.6909449,2.10526316 42.623485,2.10526316 Z" id="Shape"></path>
                <path d="M1.91203779,9.45344808 C1.91203779,6.03181346 5.06465237,3.2866925 8.68212457,4.17568863 L9.1402867,2.32528083 C4.353975,1.15329236 0,4.82742856 0,9.45344808 C0,18.3052959 9.50758161,24.9036863 14.3570221,26.3157895 L14.893617,24.4863441 C11.0733674,23.3734314 1.91203779,17.467753 1.91203779,9.45344808 Z" id="Shape"></path>
                <path d="M28.8348349,34.7368421 L22.2289948,34.7368421 C21.7032705,34.7368421 21.2765957,35.1428182 21.2765957,35.6450661 L21.2765957,39.091776 C21.2765957,39.3651514 21.4070744,39.6258117 21.6308882,39.7983743 C21.8013676,39.9300668 22.0128002,40 22.2289948,40 C22.2956628,40 22.3632831,39.9927342 22.429951,39.9791108 C24.3918932,39.5749512 26.672889,39.5749512 28.6338787,39.9791108 C28.9157889,40.0354207 29.2091278,39.9700286 29.4329416,39.7983743 C29.6567554,39.6258117 29.787234,39.3669679 29.787234,39.091776 L29.787234,35.6450661 C29.787234,35.1428182 29.3615116,34.7368421 28.8348349,34.7368421 Z M27.8824359,38.0091731 C26.3566925,37.8084556 24.7071373,37.8075473 23.1813939,38.0100813 L23.1813939,36.55329 L23.1813939,36.5523818 L27.8824359,36.5523818 L27.8824359,38.0091731 Z" id="Shape"></path>
                <path d="M38.4077263,54.7368421 L12.6561035,54.7368421 C12.1295088,54.7368421 11.7021277,55.1500194 11.7021277,55.6611761 L11.7021277,59.075666 C11.7021277,59.5868227 12.1295088,60 12.6561035,60 L38.4077263,60 C38.9352749,60 39.3617021,59.5868227 39.3617021,59.075666 L39.3617021,55.6611761 C39.3617021,55.1500194 38.9352749,54.7368421 38.4077263,54.7368421 Z M37.4537505,58.151332 L13.6100793,58.151332 L13.6100793,56.5855101 L37.4537505,56.5855101 L37.4537505,58.151332 Z" id="Shape"></path>
                <path d="M36.2757124,41.0526316 L13.7242876,41.0526316 C13.1952893,41.0526316 12.7659574,41.4620646 12.7659574,41.9685892 L12.7659574,54.8735161 C12.7659574,55.3800406 13.1952893,55.7894737 13.7242876,55.7894737 L36.2757124,55.7894737 C36.8047107,55.7894737 37.2340426,55.3791247 37.2340426,54.8735161 L37.2340426,41.9685892 C37.2340426,41.4620646 36.805669,41.0526316 36.2757124,41.0526316 Z M35.3173823,53.9575584 L14.6826177,53.9575584 L14.6826177,42.8845468 L35.3173823,42.8845468 L35.3173823,53.9575584 Z" id="Shape"></path>
                <path d="M33.0717395,45.2631579 L17.9920903,45.2631579 C17.4562011,45.2631579 17.0212766,45.6703385 17.0212766,46.1740766 L17.0212766,51.7206603 C17.0212766,52.2243983 17.4562011,52.6315789 17.9920903,52.6315789 L33.0717395,52.6315789 C33.6076287,52.6315789 34.0425532,52.2234874 34.0425532,51.7206603 L34.0425532,46.1740766 C34.0425532,45.6703385 33.6085995,45.2631579 33.0717395,45.2631579 Z M32.1009258,50.8097416 L18.962904,50.8097416 L18.962904,47.0849952 L32.1009258,47.0849952 L32.1009258,50.8097416 Z" id="Shape"></path>
                <path d="M41.0315622,0.470090624 C40.7308426,0.167288711 40.3305097,0 39.9038638,0 L9.03593944,0 C8.61117304,0 8.21084011,0.166354137 7.91012054,0.467286902 C7.60940096,0.769154241 7.44494495,1.16821726 7.44682444,1.59251376 C7.45340268,2.22895852 7.4787759,2.85512297 7.50790811,3.56820278 C7.53140182,4.14390025 7.56429303,4.71399027 7.60282272,5.28127657 C8.07175731,12.2027302 9.6223426,18.5269911 12.0882431,23.5708859 C12.4509861,24.3129375 12.8428613,25.0400359 13.2516519,25.7297514 C15.1349083,28.9101061 17.2916315,31.1914007 19.6644968,32.5119535 C19.9135302,32.6502704 20.2095511,32.6680273 20.4689217,32.5652242 C20.6869434,32.5727008 20.9331575,32.5727008 21.2094436,32.5727008 L28.4849778,32.5727008 C28.5911694,32.6119529 28.7029995,32.6315789 28.8148296,32.6315789 C28.9727073,32.6315789 29.1305851,32.5923268 29.2743667,32.5128881 C31.6462923,31.1932699 33.8039552,28.9110406 35.6872116,25.730686 C36.093183,25.0419051 36.4841184,24.3157412 36.8487409,23.5727551 C39.3165209,18.5260565 40.8671062,12.200861 41.335101,5.28221114 C41.372691,4.71492484 41.4055822,4.14670397 41.4290759,3.56633364 C41.4563286,2.91306655 41.4826416,2.25886488 41.4892198,1.59718663 C41.4948583,1.17289012 41.3322818,0.772892536 41.0315622,0.470090624 Z M39.5514581,3.49156773 C39.5270246,4.05137744 39.4969526,4.60464513 39.4593627,5.15604368 C39.0082833,11.8373118 37.5206612,17.9223218 35.1581331,22.7540684 C34.8160645,23.4531296 34.4486228,24.1363031 34.0670849,24.7820936 C32.4638736,27.4895539 30.6012918,29.5287939 28.6625903,30.7026186 L21.2103834,30.7026186 C21.2122629,30.7035532 20.5788723,30.7026186 20.277213,30.7026186 C18.3375717,29.5278593 16.4749899,27.4895539 14.8727184,24.781159 C14.4893009,24.1334993 14.1218592,23.452195 13.7807304,22.7540684 C11.419142,17.924191 9.93245966,11.839181 9.47950081,5.15604368 C9.44285061,4.60557971 9.41089915,4.05137744 9.38458619,3.40745609 C9.36391172,2.89624422 9.3422975,2.38503235 9.33290001,1.86914761 L39.6050237,1.86914761 C39.5956263,2.41400414 39.5730723,2.95231865 39.5514581,3.49156773 Z" id="Shape"></path>
                <path d="M36.3354202,4.21052632 C36.3197049,4.51094541 36.3020251,4.79414303 36.282381,5.07447041 C35.8728001,11.0024855 34.4878864,16.589898 32.3820319,20.8072463 C32.0873694,21.3966035 31.7671695,21.9802203 31.4302721,22.5389615 C30.2663552,24.4639399 28.9619826,25.9583814 27.6595745,26.8615522 L28.7989361,28.4210526 C30.3252877,27.3628885 31.8192265,25.6646596 33.1235991,23.5100615 C33.4870162,22.906353 33.8327535,22.2787259 34.1490246,21.6444015 C36.3619398,17.2098712 37.8156081,11.3708337 38.2428687,5.20076124 C38.2625128,4.90895288 38.2801926,4.61905802 38.2978723,4.31002818 L36.3354202,4.21052632 Z" id="Shape"></path>
                <path d="M28.970742,30.5263158 L22.0474682,30.5263158 C20.378385,30.5263158 20.212766,33.7600238 20.212766,33.7927275 C20.212766,33.8234493 20.4071452,36.8421053 22.0920961,36.8421053 L29.0163616,36.8421053 C30.6566846,36.8421053 30.8510638,33.8234493 30.8510638,33.7927275 C30.8510638,33.7600238 30.6854448,30.5263158 28.970742,30.5263158 Z M28.6087602,34.8600593 L22.4540779,34.8600593 C22.3251529,34.5350038 22.199203,33.9948962 22.1952361,33.7937186 C22.1982113,33.5529 22.3420123,32.8908966 22.4838298,32.5083618 L28.5790082,32.5083618 C28.7218175,32.8908966 28.8646267,33.5529 28.8676019,33.7917365 C28.8646267,33.9948962 28.7376852,34.5359948 28.6087602,34.8600593 Z" id="Shape"></path>
                <path d="M29.02251,38.2530718 C26.8061387,37.7762403 24.2586399,37.7743444 22.0413198,38.2530718 C18.8979815,38.9327699 17.0212766,40.412559 17.0212766,42.2099197 C17.0212766,42.7341499 17.4463341,43.1578947 17.9700657,43.1578947 L33.0937641,43.1578947 C33.6174957,43.1578947 34.0425532,42.7341499 34.0425532,42.2099197 C34.0425532,40.411611 32.1658483,38.9327699 29.02251,38.2530718 Z M19.5886999,41.2619446 C20.1750516,40.8211362 21.1371237,40.3888596 22.4417088,40.106363 C24.3971631,39.6845141 26.669513,39.6845141 28.6211722,40.106363 C29.926706,40.3888596 30.8887782,40.8211362 31.4751299,41.2619446 L19.5886999,41.2619446 Z" id="Shape"></path>
            </g>
        </g>
    </g>
</svg>