<?xml version="1.0" encoding="UTF-8"?>
<svg width="75px" height="90px" viewBox="0 0 75 90" version="1.1" xmlns="http://www.w3.org/2000/svg" xmlns:xlink="http://www.w3.org/1999/xlink">
    <!-- Generator: sketchtool 48.2 (47327) - http://www.bohemiancoding.com/sketch -->
    <title>76D5D664-92DF-4ED0-B014-1834A9852773</title>
    <desc>Created with sketchtool.</desc>
    <defs></defs>
    <g id="1_inpage/team/graph-year/desk" stroke="none" stroke-width="1" fill="none" fill-rule="evenodd" transform="translate(-16.000000, 0.000000)">
        <g id="ico/cup/1_gold" transform="translate(16.000000, 0.000000)" fill="#E8B328">
            <g id="trophy-(1)">
                <path d="M63.9352275,3.15789474 C63.0701869,3.15789474 62.1793243,3.26937616 61.2898962,3.48805127 L61.974182,6.2622237 C67.3982589,4.93588057 72.128008,9.04783013 72.128008,14.1802635 C72.128008,26.2016774 58.3877784,35.0615923 52.6595745,36.729526 L53.4643634,39.4736842 C60.7404591,37.3541078 74.9985654,27.4565581 75,14.1802635 C75,8.10166725 70.0364174,3.15789474 63.9352275,3.15789474 Z" id="Shape" fill-rule="nonzero"></path>
                <path d="M2.86805668,14.1801721 C2.86805668,9.04772019 7.59697856,4.93003876 13.0231869,6.26353295 L13.7104301,3.48792124 C6.5309625,1.72993854 0,7.24114284 0,14.1801721 C0,27.4579439 14.2613724,37.3555294 21.5355332,39.4736842 L22.3404255,36.7295161 C16.6100511,35.0601472 2.86805668,26.2016294 2.86805668,14.1801721 Z" id="Shape" fill-rule="nonzero"></path>
                <path d="M43.2522524,52.1052632 L33.3434923,52.1052632 C32.5549058,52.1052632 31.9148936,52.7142273 31.9148936,53.4675991 L31.9148936,58.637664 C31.9148936,59.0477272 32.1106116,59.4387176 32.4463323,59.6975614 C32.7020515,59.8951001 33.0192004,60 33.3434923,60 C33.4434942,60 33.5449247,59.9891013 33.6449266,59.9686663 C36.5878398,59.3624268 40.0093335,59.3624268 42.9508181,59.9686663 C43.3736833,60.0531311 43.8136917,59.9550429 44.1494124,59.6975614 C44.4851331,59.4387176 44.6808511,59.0504518 44.6808511,58.637664 L44.6808511,53.4675991 C44.6808511,52.7142273 44.0422675,52.1052632 43.2522524,52.1052632 Z M41.8236538,57.0137596 C39.5350388,56.7126833 37.0607059,56.711321 34.7720909,57.0151219 L34.7720909,54.8299351 L34.7720909,54.8285727 L41.8236538,54.8285727 L41.8236538,57.0137596 Z" id="Shape" fill-rule="nonzero"></path>
                <path d="M57.6115895,82.1052632 L18.9841552,82.1052632 C18.1942632,82.1052632 17.5531915,82.7250291 17.5531915,83.4917642 L17.5531915,88.613499 C17.5531915,89.380234 18.1942632,90 18.9841552,90 L57.6115895,90 C58.4029124,90 59.0425532,89.380234 59.0425532,88.613499 L59.0425532,83.4917642 C59.0425532,82.7250291 58.4029124,82.1052632 57.6115895,82.1052632 Z M56.1806258,87.2269979 L20.4151189,87.2269979 L20.4151189,84.8782652 L56.1806258,84.8782652 L56.1806258,87.2269979 Z" id="Shape" fill-rule="nonzero"></path>
                <path d="M54.4135686,61.5789474 L20.5864314,61.5789474 C19.792934,61.5789474 19.1489362,62.193097 19.1489362,62.9528838 L19.1489362,82.3102741 C19.1489362,83.0700609 19.792934,83.6842105 20.5864314,83.6842105 L54.4135686,83.6842105 C55.207066,83.6842105 55.8510638,83.068687 55.8510638,82.3102741 L55.8510638,62.9528838 C55.8510638,62.193097 55.2085035,61.5789474 54.4135686,61.5789474 Z M52.9760734,80.9363377 L22.0239266,80.9363377 L22.0239266,64.3268202 L52.9760734,64.3268202 L52.9760734,80.9363377 Z" id="Shape" fill-rule="nonzero"></path>
                <path d="M49.6076092,67.8947368 L26.9881354,67.8947368 C26.1843017,67.8947368 25.5319149,68.5055078 25.5319149,69.2611148 L25.5319149,77.5809904 C25.5319149,78.3365975 26.1843017,78.9473684 26.9881354,78.9473684 L49.6076092,78.9473684 C50.411443,78.9473684 51.0638298,78.3352311 51.0638298,77.5809904 L51.0638298,69.2611148 C51.0638298,68.5055078 50.4128992,67.8947368 49.6076092,67.8947368 Z M48.1513887,76.2146124 L28.444356,76.2146124 L28.444356,70.6274928 L48.1513887,70.6274928 L48.1513887,76.2146124 Z" id="Shape" fill-rule="nonzero"></path>
                <path d="M61.5473433,0.705135935 C61.096264,0.250933066 60.4957646,0 59.8557957,0 L13.5539092,0 C12.9167596,0 12.3162602,0.249531206 11.8651808,0.700930353 C11.4141014,1.15373136 11.1674174,1.75232588 11.1702367,2.38877064 C11.180104,3.34343778 11.2181638,4.28268446 11.2618622,5.35230418 C11.2971027,6.21585037 11.3464395,7.0709854 11.4042341,7.92191485 C12.107636,18.3040952 14.4335139,27.7904866 18.1323646,35.3563289 C18.6764791,36.4694063 19.2642919,37.5600539 19.8774779,38.5946271 C22.7023624,43.3651591 25.9374472,46.7871011 29.4967452,48.7679303 C29.8702953,48.9754056 30.3143266,49.002041 30.7033825,48.8478363 C31.0304151,48.8590512 31.3997363,48.8590512 31.8141655,48.8590512 L42.7274667,48.8590512 C42.8867541,48.9179293 43.0544992,48.9473684 43.2222444,48.9473684 C43.459061,48.9473684 43.6958777,48.8884903 43.91155,48.7693321 C47.4694384,46.7899048 50.7059328,43.3665609 53.5308173,38.596029 C54.1397745,37.5628576 54.7261776,36.4736119 55.2731114,35.3591326 C58.9747813,27.7890848 61.3006593,18.3012915 62.0026515,7.92331671 C62.0590365,7.07238726 62.1083733,6.22005595 62.1436138,5.34950046 C62.1844929,4.36959982 62.2239624,3.38829733 62.2338297,2.39577995 C62.2422875,1.75933519 61.9984227,1.1593388 61.5473433,0.705135935 Z M59.3271871,5.2373516 C59.2905369,6.07706616 59.245429,6.9069677 59.189044,7.73406552 C58.512425,17.7559677 56.2809918,26.8834828 52.7371996,34.1311026 C52.2240968,35.1796944 51.6729342,36.2044546 51.1006273,37.1731403 C48.6958105,41.2343308 45.9019377,44.2931909 42.9938854,46.0539279 L31.8155751,46.0539279 C31.8183943,46.0553298 30.8683084,46.0539279 30.4158194,46.0539279 C27.5063576,44.291789 24.7124848,41.2343308 22.3090776,37.1717385 C21.7339514,36.200249 21.1827888,35.1782926 20.6710957,34.1311026 C17.1287131,26.8862865 14.8986895,17.7587714 14.2192512,7.73406552 C14.1642759,6.90836956 14.1163487,6.07706616 14.0768793,5.11118414 C14.0458676,4.34436633 14.0134463,3.57754852 13.99935,2.80372141 L59.4075356,2.80372141 C59.3934394,3.6210062 59.3596084,4.42847797 59.3271871,5.2373516 Z" id="Shape" fill-rule="nonzero"></path>
                <path d="M54.5031303,6.31578947 C54.4795573,6.76641812 54.4530377,7.19121455 54.4235714,7.61170561 C53.8092001,16.5037282 51.7318296,24.884847 48.5730478,31.2108695 C48.1310541,32.0949053 47.6507542,32.9703304 47.1454081,33.8084423 C45.3995329,36.6959099 43.442974,38.9375721 41.4893617,40.2923283 L43.1984041,42.6315789 C45.4879316,41.0443328 47.7288398,38.4969894 49.6853987,35.2650922 C50.2305243,34.3595295 50.7491303,33.4180888 51.2235369,32.4666022 C54.5429097,25.8148067 56.7234121,17.0562506 57.364303,7.80114186 C57.3937693,7.36342932 57.4202889,6.92858703 57.4468085,6.46504227 L54.5031303,6.31578947 Z" id="Shape" fill-rule="nonzero"></path>
                <path d="M43.4561129,45.7894737 L33.0712023,45.7894737 C30.5675775,45.7894737 30.3191489,50.6400357 30.3191489,50.6890913 C30.3191489,50.7351739 30.6107178,55.2631579 33.1381442,55.2631579 L43.5245424,55.2631579 C45.9850268,55.2631579 46.2765957,50.7351739 46.2765957,50.6890913 C46.2765957,50.6400357 46.0281671,45.7894737 43.4561129,45.7894737 Z M42.9131402,52.2900889 L33.6811168,52.2900889 C33.4877293,51.8025056 33.2988046,50.9923443 33.2928542,50.6905778 C33.297317,50.32935 33.5130185,49.3363449 33.7257447,48.7625426 L42.8685123,48.7625426 C43.0827262,49.3363449 43.2969401,50.32935 43.3014029,50.6876048 C43.2969401,50.9923443 43.1065278,51.8039922 42.9131402,52.2900889 Z" id="Shape" fill-rule="nonzero"></path>
                <path d="M43.533765,57.3796077 C40.209208,56.6643605 36.3879599,56.6615165 33.0619796,57.3796077 C28.3469722,58.3991548 25.5319149,60.6188384 25.5319149,63.3148795 C25.5319149,64.1012248 26.1695012,64.7368421 26.9550986,64.7368421 L49.6406461,64.7368421 C50.4262435,64.7368421 51.0638298,64.1012248 51.0638298,63.3148795 C51.0638298,60.6174165 48.2487725,58.3991548 43.533765,57.3796077 Z M29.3830499,61.8929169 C30.2625774,61.2317043 31.7056856,60.5832894 33.6625632,60.1595445 C36.5957447,59.5267712 40.0042696,59.5267712 42.9317583,60.1595445 C44.8900591,60.5832894 46.3331673,61.2317043 47.2126948,61.8929169 L29.3830499,61.8929169 Z" id="Shape" fill-rule="nonzero"></path>
            </g>
        </g>
    </g>
</svg>