<?xml version="1.0" encoding="UTF-8"?>
<svg width="15px" height="10px" viewBox="0 0 15 10" version="1.1" xmlns="http://www.w3.org/2000/svg" xmlns:xlink="http://www.w3.org/1999/xlink">
    <!-- Generator: Sketch 48.2 (47327) - http://www.bohemiancoding.com/sketch -->
    <title>flag/bl</title>
    <desc>Created with Sketch.</desc>
    <defs></defs>
    <g id="Symbols" stroke="none" stroke-width="1" fill="none" fill-rule="evenodd">
        <g id="flag/bl">
            <g id="Belarus">
                <rect id="Rectangle-path" fill="#C8313E" fill-rule="nonzero" x="0.00187479169" y="0.00222123501" width="15" height="9.99555753"></rect>
                <rect id="Rectangle-path" fill="#4AA657" fill-rule="nonzero" x="0.00187479169" y="6.66592625" width="15" height="3.33185251"></rect>
                <rect id="Rectangle-path" fill="#FFFFFF" fill-rule="nonzero" x="0.00187479169" y="0.00222123501" width="1.87479169" height="9.99555753"></rect>
                <g id="a" fill="#C8313E">
                    <path d="M0.327901067,0.00222123501 L0.572373903,0.00222123501 L0.572373903,0.166081741 L0.653889846,0.166081741 L0.653889846,0.329942248 L0.735405788,0.329942248 L0.735405788,0.493802754 L0.816921731,0.493802754 L0.816921731,0.657663261 L0.898437674,0.657663261 L0.898437674,0.821523767 L0.816921731,0.821523767 L0.816921731,0.985384274 L0.735405788,0.985384274 L0.735405788,1.14924478 L0.653889846,1.14924478 L0.653889846,1.31310529 L0.572373903,1.31310529 L0.572373903,1.47696579 L0.49085796,1.47696579 L0.49085796,1.6408263 L0.409342018,1.6408263 L0.409342018,1.47696579 L0.327826075,1.47696579 L0.327826075,1.31310529 L0.246310132,1.31310529 L0.246310132,1.14924478 L0.16479419,1.14924478 L0.16479419,0.985384274 L0.0832782469,0.985384274 L0.0832782469,0.821523767 L0.00176230419,0.821523767 L0.00176230419,0.657663261 L0.0832782469,0.657663261 L0.0832782469,0.493802754 L0.16479419,0.493802754 L0.16479419,0.329942248 L0.246310132,0.329942248 L0.246310132,0.166081741 L0.327826075,0.166081741 L0.327901067,0.00222123501 Z M0.409417009,0.329853398 L0.490932952,0.329853398 L0.490932952,0.493713905 L0.572448895,0.493713905 L0.572448895,0.657574411 L0.653964837,0.657574411 L0.653964837,0.821434918 L0.572448895,0.821434918 L0.572448895,0.985295424 L0.490932952,0.985295424 L0.490932952,1.14915593 L0.409417009,1.14915593 L0.409417009,0.985295424 L0.327901067,0.985295424 L0.327901067,0.821434918 L0.246385124,0.821434918 L0.246385124,0.657574411 L0.327901067,0.657574411 L0.327901067,0.493713905 L0.409417009,0.493713905 L0.409417009,0.329853398 Z M0.409417009,0.657485562 L0.577886307,0.657485562 L0.577886307,0.857086351 L0.409417009,0.857086351 L0.409417009,0.657485562 Z M0.00183729586,0.165926255 L0.170306593,0.165926255 L0.170306593,0.365527044 L0.00183729586,0.365527044 L0.00183729586,0.165926255 Z M0.00183729586,1.14904487 L0.170306593,1.14904487 L0.170306593,1.34864566 L0.00183729586,1.34864566 L0.00183729586,1.14904487 Z M0.898362682,0.00199911151 L1.06683198,0.00199911151 L1.06683198,0.329631275 L0.898362682,0.329631275 L0.898362682,0.00199911151 Z M0.898362682,1.14904487 L1.06683198,1.14904487 L1.06683198,1.47667703 L0.898362682,1.47667703 L0.898362682,1.14904487 Z M0.164756694,1.47667703 L0.246272636,1.47667703 L0.246272636,1.64053754 L0.327788579,1.64053754 L0.327788579,1.80439805 L0.409304522,1.80439805 L0.409304522,1.96825855 L0.327788579,1.96825855 L0.327788579,2.13211906 L0.246272636,2.13211906 L0.246272636,2.29597956 L0.164756694,2.29597956 L0.164756694,2.13211906 L0.083240751,2.13211906 L0.083240751,1.96825855 L0.00172480835,1.96825855 L0.00172480835,1.80439805 L0.083240751,1.80439805 L0.083240751,1.64053754 L0.164756694,1.64053754 L0.164756694,1.47667703 Z M0.164756694,1.8043092 L0.333225991,1.8043092 L0.333225991,2.00390999 L0.164756694,2.00390999 L0.164756694,1.8043092 Z M0.653889846,1.47667703 L0.735405788,1.47667703 L0.735405788,1.64053754 L0.816921731,1.64053754 L0.816921731,1.80439805 L0.898437674,1.80439805 L0.898437674,1.96825855 L0.816921731,1.96825855 L0.816921731,2.13211906 L0.735405788,2.13211906 L0.735405788,2.29597956 L0.653889846,2.29597956 L0.653889846,2.13211906 L0.572373903,2.13211906 L0.572373903,1.96825855 L0.49085796,1.96825855 L0.49085796,1.80439805 L0.572373903,1.80439805 L0.572373903,1.64053754 L0.653889846,1.64053754 L0.653889846,1.47667703 Z M0.653889846,1.8043092 L0.822359143,1.8043092 L0.822359143,2.00390999 L0.653889846,2.00390999 L0.653889846,1.8043092 Z M0.00183729586,2.45979565 L0.170306593,2.45979565 L0.170306593,2.65939644 L0.00183729586,2.65939644 L0.00183729586,2.45979565 Z M0.898362682,2.29593514 L1.06683198,2.29593514 L1.06683198,2.6235673 L0.898362682,2.6235673 L0.898362682,2.29593514 Z M0.00183729586,2.95142159 L0.0833532385,2.95142159 L0.0833532385,2.78756108 L0.164869181,2.78756108 L0.164869181,2.62370058 L0.246385124,2.62370058 L0.246385124,2.45984007 L0.327901067,2.45984007 L0.327901067,2.29597956 L0.409417009,2.29597956 L0.409417009,2.13211906 L0.490932952,2.13211906 L0.490932952,2.29597956 L0.572448895,2.29597956 L0.572448895,2.45984007 L0.653964837,2.45984007 L0.653964837,2.62370058 L0.73548078,2.62370058 L0.73548078,2.78756108 L0.816996723,2.78756108 L0.816996723,2.95142159 L0.898512665,2.95142159 L0.898512665,3.1152821 L0.94742598,3.1152821 L0.94742598,3.77076855 L0.898512665,3.77076855 L0.898512665,3.93462905 L0.816996723,3.93462905 L0.816996723,4.09848956 L0.73548078,4.09848956 L0.73548078,4.26235007 L0.653964837,4.26235007 L0.653964837,4.42621057 L0.572448895,4.42621057 L0.572448895,4.59007108 L0.490932952,4.59007108 L0.490932952,5.01610395 L0.327919814,5.01610395 L0.327919814,4.91779209 L0.246403872,4.91779209 L0.246403872,4.75393159 L0.164887929,4.75393159 L0.164887929,4.59007108 L0.0833719864,4.59007108 L0.0833719864,4.42621057 L0.00185604377,4.42621057 L0.00185604377,3.93465127 L0.0833719864,3.93465127 L0.0833719864,4.09851177 L0.164887929,4.09851177 L0.164887929,4.26237228 L0.246403872,4.26237228 L0.246403872,4.42623279 L0.327919814,4.42623279 L0.327919814,4.26237228 L0.409435757,4.26237228 L0.409435757,4.09851177 L0.4909517,4.09851177 L0.4909517,3.93465127 L0.572467642,3.93465127 L0.572467642,3.77079076 L0.653983585,3.77079076 L0.653983585,3.60693025 L0.735499528,3.60693025 L0.735499528,3.44306975 L0.653983585,3.44306975 L0.653983585,3.27920924 L0.572467642,3.27920924 L0.572467642,3.11534873 L0.327994806,3.11534873 L0.327994806,3.27920924 L0.491007944,3.27920924 L0.491007944,3.44306975 L0.409492001,3.44306975 L0.409492001,3.60693025 L0.327976058,3.60693025 L0.327976058,3.77079076 L0.246460116,3.77079076 L0.246460116,3.60693025 L0.164944173,3.60693025 L0.164944173,3.44306975 L0.0834282302,3.44306975 L0.0834282302,3.27920924 L0.00191228752,3.27920924 L0.00183729586,2.95142159 Z M0.00183729586,3.60690804 L0.170306593,3.60690804 L0.170306593,3.80650883 L0.00183729586,3.80650883 L0.00183729586,3.60690804 Z M0.898362682,4.09846735 L1.06683198,4.09846735 L1.06683198,4.29806814 L0.898362682,4.29806814 L0.898362682,4.09846735 Z M0.735349544,4.42609951 L0.816865487,4.42609951 L0.816865487,4.58996002 L0.89838143,4.58996002 L0.89838143,4.75382052 L0.947294745,4.75382052 L0.947294745,5.01592625 L0.89838143,5.01592625 L0.89838143,4.91761439 L0.816865487,4.91761439 L0.816865487,4.75375389 L0.735349544,4.75375389 L0.735349544,4.42609951 Z M0.572336407,4.91765882 L0.740805705,4.91765882 L0.740805705,5.11725961 L0.572336407,5.11725961 L0.572336407,4.91765882 Z" id="b"></path>
                    <g id="b-link" transform="translate(1.404219, 2.508885) scale(-1, 1) translate(-1.404219, -2.508885) translate(0.929897, 0.000000)">
                        <path d="M0.327901067,0.00222123501 L0.572373903,0.00222123501 L0.572373903,0.166081741 L0.653889846,0.166081741 L0.653889846,0.329942248 L0.735405788,0.329942248 L0.735405788,0.493802754 L0.816921731,0.493802754 L0.816921731,0.657663261 L0.898437674,0.657663261 L0.898437674,0.821523767 L0.816921731,0.821523767 L0.816921731,0.985384274 L0.735405788,0.985384274 L0.735405788,1.14924478 L0.653889846,1.14924478 L0.653889846,1.31310529 L0.572373903,1.31310529 L0.572373903,1.47696579 L0.49085796,1.47696579 L0.49085796,1.6408263 L0.409342018,1.6408263 L0.409342018,1.47696579 L0.327826075,1.47696579 L0.327826075,1.31310529 L0.246310132,1.31310529 L0.246310132,1.14924478 L0.16479419,1.14924478 L0.16479419,0.985384274 L0.0832782469,0.985384274 L0.0832782469,0.821523767 L0.00176230419,0.821523767 L0.00176230419,0.657663261 L0.0832782469,0.657663261 L0.0832782469,0.493802754 L0.16479419,0.493802754 L0.16479419,0.329942248 L0.246310132,0.329942248 L0.246310132,0.166081741 L0.327826075,0.166081741 L0.327901067,0.00222123501 Z M0.409417009,0.329853398 L0.490932952,0.329853398 L0.490932952,0.493713905 L0.572448895,0.493713905 L0.572448895,0.657574411 L0.653964837,0.657574411 L0.653964837,0.821434918 L0.572448895,0.821434918 L0.572448895,0.985295424 L0.490932952,0.985295424 L0.490932952,1.14915593 L0.409417009,1.14915593 L0.409417009,0.985295424 L0.327901067,0.985295424 L0.327901067,0.821434918 L0.246385124,0.821434918 L0.246385124,0.657574411 L0.327901067,0.657574411 L0.327901067,0.493713905 L0.409417009,0.493713905 L0.409417009,0.329853398 Z M0.409417009,0.657485562 L0.577886307,0.657485562 L0.577886307,0.857086351 L0.409417009,0.857086351 L0.409417009,0.657485562 Z M0.00183729586,0.165926255 L0.170306593,0.165926255 L0.170306593,0.365527044 L0.00183729586,0.365527044 L0.00183729586,0.165926255 Z M0.00183729586,1.14904487 L0.170306593,1.14904487 L0.170306593,1.34864566 L0.00183729586,1.34864566 L0.00183729586,1.14904487 Z M0.898362682,0.00199911151 L1.06683198,0.00199911151 L1.06683198,0.329631275 L0.898362682,0.329631275 L0.898362682,0.00199911151 Z M0.898362682,1.14904487 L1.06683198,1.14904487 L1.06683198,1.47667703 L0.898362682,1.47667703 L0.898362682,1.14904487 Z M0.164756694,1.47667703 L0.246272636,1.47667703 L0.246272636,1.64053754 L0.327788579,1.64053754 L0.327788579,1.80439805 L0.409304522,1.80439805 L0.409304522,1.96825855 L0.327788579,1.96825855 L0.327788579,2.13211906 L0.246272636,2.13211906 L0.246272636,2.29597956 L0.164756694,2.29597956 L0.164756694,2.13211906 L0.083240751,2.13211906 L0.083240751,1.96825855 L0.00172480835,1.96825855 L0.00172480835,1.80439805 L0.083240751,1.80439805 L0.083240751,1.64053754 L0.164756694,1.64053754 L0.164756694,1.47667703 Z M0.164756694,1.8043092 L0.333225991,1.8043092 L0.333225991,2.00390999 L0.164756694,2.00390999 L0.164756694,1.8043092 Z M0.653889846,1.47667703 L0.735405788,1.47667703 L0.735405788,1.64053754 L0.816921731,1.64053754 L0.816921731,1.80439805 L0.898437674,1.80439805 L0.898437674,1.96825855 L0.816921731,1.96825855 L0.816921731,2.13211906 L0.735405788,2.13211906 L0.735405788,2.29597956 L0.653889846,2.29597956 L0.653889846,2.13211906 L0.572373903,2.13211906 L0.572373903,1.96825855 L0.49085796,1.96825855 L0.49085796,1.80439805 L0.572373903,1.80439805 L0.572373903,1.64053754 L0.653889846,1.64053754 L0.653889846,1.47667703 Z M0.653889846,1.8043092 L0.822359143,1.8043092 L0.822359143,2.00390999 L0.653889846,2.00390999 L0.653889846,1.8043092 Z M0.00183729586,2.45979565 L0.170306593,2.45979565 L0.170306593,2.65939644 L0.00183729586,2.65939644 L0.00183729586,2.45979565 Z M0.898362682,2.29593514 L1.06683198,2.29593514 L1.06683198,2.6235673 L0.898362682,2.6235673 L0.898362682,2.29593514 Z M0.00183729586,2.95142159 L0.0833532385,2.95142159 L0.0833532385,2.78756108 L0.164869181,2.78756108 L0.164869181,2.62370058 L0.246385124,2.62370058 L0.246385124,2.45984007 L0.327901067,2.45984007 L0.327901067,2.29597956 L0.409417009,2.29597956 L0.409417009,2.13211906 L0.490932952,2.13211906 L0.490932952,2.29597956 L0.572448895,2.29597956 L0.572448895,2.45984007 L0.653964837,2.45984007 L0.653964837,2.62370058 L0.73548078,2.62370058 L0.73548078,2.78756108 L0.816996723,2.78756108 L0.816996723,2.95142159 L0.898512665,2.95142159 L0.898512665,3.1152821 L0.94742598,3.1152821 L0.94742598,3.77076855 L0.898512665,3.77076855 L0.898512665,3.93462905 L0.816996723,3.93462905 L0.816996723,4.09848956 L0.73548078,4.09848956 L0.73548078,4.26235007 L0.653964837,4.26235007 L0.653964837,4.42621057 L0.572448895,4.42621057 L0.572448895,4.59007108 L0.490932952,4.59007108 L0.490932952,5.01610395 L0.327919814,5.01610395 L0.327919814,4.91779209 L0.246403872,4.91779209 L0.246403872,4.75393159 L0.164887929,4.75393159 L0.164887929,4.59007108 L0.0833719864,4.59007108 L0.0833719864,4.42621057 L0.00185604377,4.42621057 L0.00185604377,3.93465127 L0.0833719864,3.93465127 L0.0833719864,4.09851177 L0.164887929,4.09851177 L0.164887929,4.26237228 L0.246403872,4.26237228 L0.246403872,4.42623279 L0.327919814,4.42623279 L0.327919814,4.26237228 L0.409435757,4.26237228 L0.409435757,4.09851177 L0.4909517,4.09851177 L0.4909517,3.93465127 L0.572467642,3.93465127 L0.572467642,3.77079076 L0.653983585,3.77079076 L0.653983585,3.60693025 L0.735499528,3.60693025 L0.735499528,3.44306975 L0.653983585,3.44306975 L0.653983585,3.27920924 L0.572467642,3.27920924 L0.572467642,3.11534873 L0.327994806,3.11534873 L0.327994806,3.27920924 L0.491007944,3.27920924 L0.491007944,3.44306975 L0.409492001,3.44306975 L0.409492001,3.60693025 L0.327976058,3.60693025 L0.327976058,3.77079076 L0.246460116,3.77079076 L0.246460116,3.60693025 L0.164944173,3.60693025 L0.164944173,3.44306975 L0.0834282302,3.44306975 L0.0834282302,3.27920924 L0.00191228752,3.27920924 L0.00183729586,2.95142159 Z M0.00183729586,3.60690804 L0.170306593,3.60690804 L0.170306593,3.80650883 L0.00183729586,3.80650883 L0.00183729586,3.60690804 Z M0.898362682,4.09846735 L1.06683198,4.09846735 L1.06683198,4.29806814 L0.898362682,4.29806814 L0.898362682,4.09846735 Z M0.735349544,4.42609951 L0.816865487,4.42609951 L0.816865487,4.58996002 L0.89838143,4.58996002 L0.89838143,4.75382052 L0.947294745,4.75382052 L0.947294745,5.01592625 L0.89838143,5.01592625 L0.89838143,4.91761439 L0.816865487,4.91761439 L0.816865487,4.75375389 L0.735349544,4.75375389 L0.735349544,4.42609951 Z M0.572336407,4.91765882 L0.740805705,4.91765882 L0.740805705,5.11725961 L0.572336407,5.11725961 L0.572336407,4.91765882 Z" id="b"></path>
                    </g>
                </g>
                <g id="a-link" transform="translate(0.939271, 7.491115) scale(-1, 1) rotate(-180.000000) translate(-0.939271, -7.491115) translate(0.000000, 4.982230)" fill="#C8313E">
                    <g id="a">
                        <path d="M0.327901067,0.00222123501 L0.572373903,0.00222123501 L0.572373903,0.166081741 L0.653889846,0.166081741 L0.653889846,0.329942248 L0.735405788,0.329942248 L0.735405788,0.493802754 L0.816921731,0.493802754 L0.816921731,0.657663261 L0.898437674,0.657663261 L0.898437674,0.821523767 L0.816921731,0.821523767 L0.816921731,0.985384274 L0.735405788,0.985384274 L0.735405788,1.14924478 L0.653889846,1.14924478 L0.653889846,1.31310529 L0.572373903,1.31310529 L0.572373903,1.47696579 L0.49085796,1.47696579 L0.49085796,1.6408263 L0.409342018,1.6408263 L0.409342018,1.47696579 L0.327826075,1.47696579 L0.327826075,1.31310529 L0.246310132,1.31310529 L0.246310132,1.14924478 L0.16479419,1.14924478 L0.16479419,0.985384274 L0.0832782469,0.985384274 L0.0832782469,0.821523767 L0.00176230419,0.821523767 L0.00176230419,0.657663261 L0.0832782469,0.657663261 L0.0832782469,0.493802754 L0.16479419,0.493802754 L0.16479419,0.329942248 L0.246310132,0.329942248 L0.246310132,0.166081741 L0.327826075,0.166081741 L0.327901067,0.00222123501 Z M0.409417009,0.329853398 L0.490932952,0.329853398 L0.490932952,0.493713905 L0.572448895,0.493713905 L0.572448895,0.657574411 L0.653964837,0.657574411 L0.653964837,0.821434918 L0.572448895,0.821434918 L0.572448895,0.985295424 L0.490932952,0.985295424 L0.490932952,1.14915593 L0.409417009,1.14915593 L0.409417009,0.985295424 L0.327901067,0.985295424 L0.327901067,0.821434918 L0.246385124,0.821434918 L0.246385124,0.657574411 L0.327901067,0.657574411 L0.327901067,0.493713905 L0.409417009,0.493713905 L0.409417009,0.329853398 Z M0.409417009,0.657485562 L0.577886307,0.657485562 L0.577886307,0.857086351 L0.409417009,0.857086351 L0.409417009,0.657485562 Z M0.00183729586,0.165926255 L0.170306593,0.165926255 L0.170306593,0.365527044 L0.00183729586,0.365527044 L0.00183729586,0.165926255 Z M0.00183729586,1.14904487 L0.170306593,1.14904487 L0.170306593,1.34864566 L0.00183729586,1.34864566 L0.00183729586,1.14904487 Z M0.898362682,0.00199911151 L1.06683198,0.00199911151 L1.06683198,0.329631275 L0.898362682,0.329631275 L0.898362682,0.00199911151 Z M0.898362682,1.14904487 L1.06683198,1.14904487 L1.06683198,1.47667703 L0.898362682,1.47667703 L0.898362682,1.14904487 Z M0.164756694,1.47667703 L0.246272636,1.47667703 L0.246272636,1.64053754 L0.327788579,1.64053754 L0.327788579,1.80439805 L0.409304522,1.80439805 L0.409304522,1.96825855 L0.327788579,1.96825855 L0.327788579,2.13211906 L0.246272636,2.13211906 L0.246272636,2.29597956 L0.164756694,2.29597956 L0.164756694,2.13211906 L0.083240751,2.13211906 L0.083240751,1.96825855 L0.00172480835,1.96825855 L0.00172480835,1.80439805 L0.083240751,1.80439805 L0.083240751,1.64053754 L0.164756694,1.64053754 L0.164756694,1.47667703 Z M0.164756694,1.8043092 L0.333225991,1.8043092 L0.333225991,2.00390999 L0.164756694,2.00390999 L0.164756694,1.8043092 Z M0.653889846,1.47667703 L0.735405788,1.47667703 L0.735405788,1.64053754 L0.816921731,1.64053754 L0.816921731,1.80439805 L0.898437674,1.80439805 L0.898437674,1.96825855 L0.816921731,1.96825855 L0.816921731,2.13211906 L0.735405788,2.13211906 L0.735405788,2.29597956 L0.653889846,2.29597956 L0.653889846,2.13211906 L0.572373903,2.13211906 L0.572373903,1.96825855 L0.49085796,1.96825855 L0.49085796,1.80439805 L0.572373903,1.80439805 L0.572373903,1.64053754 L0.653889846,1.64053754 L0.653889846,1.47667703 Z M0.653889846,1.8043092 L0.822359143,1.8043092 L0.822359143,2.00390999 L0.653889846,2.00390999 L0.653889846,1.8043092 Z M0.00183729586,2.45979565 L0.170306593,2.45979565 L0.170306593,2.65939644 L0.00183729586,2.65939644 L0.00183729586,2.45979565 Z M0.898362682,2.29593514 L1.06683198,2.29593514 L1.06683198,2.6235673 L0.898362682,2.6235673 L0.898362682,2.29593514 Z M0.00183729586,2.95142159 L0.0833532385,2.95142159 L0.0833532385,2.78756108 L0.164869181,2.78756108 L0.164869181,2.62370058 L0.246385124,2.62370058 L0.246385124,2.45984007 L0.327901067,2.45984007 L0.327901067,2.29597956 L0.409417009,2.29597956 L0.409417009,2.13211906 L0.490932952,2.13211906 L0.490932952,2.29597956 L0.572448895,2.29597956 L0.572448895,2.45984007 L0.653964837,2.45984007 L0.653964837,2.62370058 L0.73548078,2.62370058 L0.73548078,2.78756108 L0.816996723,2.78756108 L0.816996723,2.95142159 L0.898512665,2.95142159 L0.898512665,3.1152821 L0.94742598,3.1152821 L0.94742598,3.77076855 L0.898512665,3.77076855 L0.898512665,3.93462905 L0.816996723,3.93462905 L0.816996723,4.09848956 L0.73548078,4.09848956 L0.73548078,4.26235007 L0.653964837,4.26235007 L0.653964837,4.42621057 L0.572448895,4.42621057 L0.572448895,4.59007108 L0.490932952,4.59007108 L0.490932952,5.01610395 L0.327919814,5.01610395 L0.327919814,4.91779209 L0.246403872,4.91779209 L0.246403872,4.75393159 L0.164887929,4.75393159 L0.164887929,4.59007108 L0.0833719864,4.59007108 L0.0833719864,4.42621057 L0.00185604377,4.42621057 L0.00185604377,3.93465127 L0.0833719864,3.93465127 L0.0833719864,4.09851177 L0.164887929,4.09851177 L0.164887929,4.26237228 L0.246403872,4.26237228 L0.246403872,4.42623279 L0.327919814,4.42623279 L0.327919814,4.26237228 L0.409435757,4.26237228 L0.409435757,4.09851177 L0.4909517,4.09851177 L0.4909517,3.93465127 L0.572467642,3.93465127 L0.572467642,3.77079076 L0.653983585,3.77079076 L0.653983585,3.60693025 L0.735499528,3.60693025 L0.735499528,3.44306975 L0.653983585,3.44306975 L0.653983585,3.27920924 L0.572467642,3.27920924 L0.572467642,3.11534873 L0.327994806,3.11534873 L0.327994806,3.27920924 L0.491007944,3.27920924 L0.491007944,3.44306975 L0.409492001,3.44306975 L0.409492001,3.60693025 L0.327976058,3.60693025 L0.327976058,3.77079076 L0.246460116,3.77079076 L0.246460116,3.60693025 L0.164944173,3.60693025 L0.164944173,3.44306975 L0.0834282302,3.44306975 L0.0834282302,3.27920924 L0.00191228752,3.27920924 L0.00183729586,2.95142159 Z M0.00183729586,3.60690804 L0.170306593,3.60690804 L0.170306593,3.80650883 L0.00183729586,3.80650883 L0.00183729586,3.60690804 Z M0.898362682,4.09846735 L1.06683198,4.09846735 L1.06683198,4.29806814 L0.898362682,4.29806814 L0.898362682,4.09846735 Z M0.735349544,4.42609951 L0.816865487,4.42609951 L0.816865487,4.58996002 L0.89838143,4.58996002 L0.89838143,4.75382052 L0.947294745,4.75382052 L0.947294745,5.01592625 L0.89838143,5.01592625 L0.89838143,4.91761439 L0.816865487,4.91761439 L0.816865487,4.75375389 L0.735349544,4.75375389 L0.735349544,4.42609951 Z M0.572336407,4.91765882 L0.740805705,4.91765882 L0.740805705,5.11725961 L0.572336407,5.11725961 L0.572336407,4.91765882 Z" id="b"></path>
                        <g id="b-link" transform="translate(1.404219, 2.508885) scale(-1, 1) translate(-1.404219, -2.508885) translate(0.929897, 0.000000)">
                            <path d="M0.327901067,0.00222123501 L0.572373903,0.00222123501 L0.572373903,0.166081741 L0.653889846,0.166081741 L0.653889846,0.329942248 L0.735405788,0.329942248 L0.735405788,0.493802754 L0.816921731,0.493802754 L0.816921731,0.657663261 L0.898437674,0.657663261 L0.898437674,0.821523767 L0.816921731,0.821523767 L0.816921731,0.985384274 L0.735405788,0.985384274 L0.735405788,1.14924478 L0.653889846,1.14924478 L0.653889846,1.31310529 L0.572373903,1.31310529 L0.572373903,1.47696579 L0.49085796,1.47696579 L0.49085796,1.6408263 L0.409342018,1.6408263 L0.409342018,1.47696579 L0.327826075,1.47696579 L0.327826075,1.31310529 L0.246310132,1.31310529 L0.246310132,1.14924478 L0.16479419,1.14924478 L0.16479419,0.985384274 L0.0832782469,0.985384274 L0.0832782469,0.821523767 L0.00176230419,0.821523767 L0.00176230419,0.657663261 L0.0832782469,0.657663261 L0.0832782469,0.493802754 L0.16479419,0.493802754 L0.16479419,0.329942248 L0.246310132,0.329942248 L0.246310132,0.166081741 L0.327826075,0.166081741 L0.327901067,0.00222123501 Z M0.409417009,0.329853398 L0.490932952,0.329853398 L0.490932952,0.493713905 L0.572448895,0.493713905 L0.572448895,0.657574411 L0.653964837,0.657574411 L0.653964837,0.821434918 L0.572448895,0.821434918 L0.572448895,0.985295424 L0.490932952,0.985295424 L0.490932952,1.14915593 L0.409417009,1.14915593 L0.409417009,0.985295424 L0.327901067,0.985295424 L0.327901067,0.821434918 L0.246385124,0.821434918 L0.246385124,0.657574411 L0.327901067,0.657574411 L0.327901067,0.493713905 L0.409417009,0.493713905 L0.409417009,0.329853398 Z M0.409417009,0.657485562 L0.577886307,0.657485562 L0.577886307,0.857086351 L0.409417009,0.857086351 L0.409417009,0.657485562 Z M0.00183729586,0.165926255 L0.170306593,0.165926255 L0.170306593,0.365527044 L0.00183729586,0.365527044 L0.00183729586,0.165926255 Z M0.00183729586,1.14904487 L0.170306593,1.14904487 L0.170306593,1.34864566 L0.00183729586,1.34864566 L0.00183729586,1.14904487 Z M0.898362682,0.00199911151 L1.06683198,0.00199911151 L1.06683198,0.329631275 L0.898362682,0.329631275 L0.898362682,0.00199911151 Z M0.898362682,1.14904487 L1.06683198,1.14904487 L1.06683198,1.47667703 L0.898362682,1.47667703 L0.898362682,1.14904487 Z M0.164756694,1.47667703 L0.246272636,1.47667703 L0.246272636,1.64053754 L0.327788579,1.64053754 L0.327788579,1.80439805 L0.409304522,1.80439805 L0.409304522,1.96825855 L0.327788579,1.96825855 L0.327788579,2.13211906 L0.246272636,2.13211906 L0.246272636,2.29597956 L0.164756694,2.29597956 L0.164756694,2.13211906 L0.083240751,2.13211906 L0.083240751,1.96825855 L0.00172480835,1.96825855 L0.00172480835,1.80439805 L0.083240751,1.80439805 L0.083240751,1.64053754 L0.164756694,1.64053754 L0.164756694,1.47667703 Z M0.164756694,1.8043092 L0.333225991,1.8043092 L0.333225991,2.00390999 L0.164756694,2.00390999 L0.164756694,1.8043092 Z M0.653889846,1.47667703 L0.735405788,1.47667703 L0.735405788,1.64053754 L0.816921731,1.64053754 L0.816921731,1.80439805 L0.898437674,1.80439805 L0.898437674,1.96825855 L0.816921731,1.96825855 L0.816921731,2.13211906 L0.735405788,2.13211906 L0.735405788,2.29597956 L0.653889846,2.29597956 L0.653889846,2.13211906 L0.572373903,2.13211906 L0.572373903,1.96825855 L0.49085796,1.96825855 L0.49085796,1.80439805 L0.572373903,1.80439805 L0.572373903,1.64053754 L0.653889846,1.64053754 L0.653889846,1.47667703 Z M0.653889846,1.8043092 L0.822359143,1.8043092 L0.822359143,2.00390999 L0.653889846,2.00390999 L0.653889846,1.8043092 Z M0.00183729586,2.45979565 L0.170306593,2.45979565 L0.170306593,2.65939644 L0.00183729586,2.65939644 L0.00183729586,2.45979565 Z M0.898362682,2.29593514 L1.06683198,2.29593514 L1.06683198,2.6235673 L0.898362682,2.6235673 L0.898362682,2.29593514 Z M0.00183729586,2.95142159 L0.0833532385,2.95142159 L0.0833532385,2.78756108 L0.164869181,2.78756108 L0.164869181,2.62370058 L0.246385124,2.62370058 L0.246385124,2.45984007 L0.327901067,2.45984007 L0.327901067,2.29597956 L0.409417009,2.29597956 L0.409417009,2.13211906 L0.490932952,2.13211906 L0.490932952,2.29597956 L0.572448895,2.29597956 L0.572448895,2.45984007 L0.653964837,2.45984007 L0.653964837,2.62370058 L0.73548078,2.62370058 L0.73548078,2.78756108 L0.816996723,2.78756108 L0.816996723,2.95142159 L0.898512665,2.95142159 L0.898512665,3.1152821 L0.94742598,3.1152821 L0.94742598,3.77076855 L0.898512665,3.77076855 L0.898512665,3.93462905 L0.816996723,3.93462905 L0.816996723,4.09848956 L0.73548078,4.09848956 L0.73548078,4.26235007 L0.653964837,4.26235007 L0.653964837,4.42621057 L0.572448895,4.42621057 L0.572448895,4.59007108 L0.490932952,4.59007108 L0.490932952,5.01610395 L0.327919814,5.01610395 L0.327919814,4.91779209 L0.246403872,4.91779209 L0.246403872,4.75393159 L0.164887929,4.75393159 L0.164887929,4.59007108 L0.0833719864,4.59007108 L0.0833719864,4.42621057 L0.00185604377,4.42621057 L0.00185604377,3.93465127 L0.0833719864,3.93465127 L0.0833719864,4.09851177 L0.164887929,4.09851177 L0.164887929,4.26237228 L0.246403872,4.26237228 L0.246403872,4.42623279 L0.327919814,4.42623279 L0.327919814,4.26237228 L0.409435757,4.26237228 L0.409435757,4.09851177 L0.4909517,4.09851177 L0.4909517,3.93465127 L0.572467642,3.93465127 L0.572467642,3.77079076 L0.653983585,3.77079076 L0.653983585,3.60693025 L0.735499528,3.60693025 L0.735499528,3.44306975 L0.653983585,3.44306975 L0.653983585,3.27920924 L0.572467642,3.27920924 L0.572467642,3.11534873 L0.327994806,3.11534873 L0.327994806,3.27920924 L0.491007944,3.27920924 L0.491007944,3.44306975 L0.409492001,3.44306975 L0.409492001,3.60693025 L0.327976058,3.60693025 L0.327976058,3.77079076 L0.246460116,3.77079076 L0.246460116,3.60693025 L0.164944173,3.60693025 L0.164944173,3.44306975 L0.0834282302,3.44306975 L0.0834282302,3.27920924 L0.00191228752,3.27920924 L0.00183729586,2.95142159 Z M0.00183729586,3.60690804 L0.170306593,3.60690804 L0.170306593,3.80650883 L0.00183729586,3.80650883 L0.00183729586,3.60690804 Z M0.898362682,4.09846735 L1.06683198,4.09846735 L1.06683198,4.29806814 L0.898362682,4.29806814 L0.898362682,4.09846735 Z M0.735349544,4.42609951 L0.816865487,4.42609951 L0.816865487,4.58996002 L0.89838143,4.58996002 L0.89838143,4.75382052 L0.947294745,4.75382052 L0.947294745,5.01592625 L0.89838143,5.01592625 L0.89838143,4.91761439 L0.816865487,4.91761439 L0.816865487,4.75375389 L0.735349544,4.75375389 L0.735349544,4.42609951 Z M0.572336407,4.91765882 L0.740805705,4.91765882 L0.740805705,5.11725961 L0.572336407,5.11725961 L0.572336407,4.91765882 Z" id="b"></path>
                        </g>
                    </g>
                </g>
            </g>
        </g>
    </g>
</svg>