<?xml version="1.0" encoding="UTF-8"?>
<svg width="15px" height="10px" viewBox="0 0 15 10" version="1.1" xmlns="http://www.w3.org/2000/svg" xmlns:xlink="http://www.w3.org/1999/xlink">
    <!-- Generator: Sketch 48.2 (47327) - http://www.bohemiancoding.com/sketch -->
    <title>flag/kz</title>
    <desc>Created with Sketch.</desc>
    <defs></defs>
    <g id="Symbols" stroke="none" stroke-width="1" fill="none" fill-rule="evenodd">
        <g id="flag/kz" fill-rule="nonzero">
            <g id="Flag_of_Kazakhstan">
                <rect id="Rectangle-path" fill="#00AFCA" x="0" y="0" width="15" height="10"></rect>
                <g id="sun" transform="translate(4.945046, 0.618182)" fill="#FEC50C">
                    <ellipse id="Oval" cx="3.309375" cy="3.2" rx="1.26140344" ry="1.22317909"></ellipse>
                    <g id="r16" transform="translate(0.496875, 0.481818)">
                        <g id="r4" transform="translate(0.834375, 0.800000)">
                            <g id="r-link" transform="translate(3.679688, 1.918182) rotate(90.000000) translate(-3.679688, -1.918182) translate(3.576563, 1.650000)">
                                <path d="M0.25,0.528181818 C0.431818182,0.527272727 0.5,0.481818182 0.5,0.427272727 C0.5,0.354545455 0.25,0.00818181818 0.25,0.00818181818 C0.25,0.00818181818 0,0.354545455 0,0.427272727 C0,0.481818182 0.0681818182,0.528181818 0.25,0.528181818 Z" id="r"></path>
                            </g>
                            <g id="r-link" transform="translate(1.978125, 3.568182) rotate(180.000000) translate(-1.978125, -3.568182) translate(1.875000, 3.300000)">
                                <path d="M0.25,0.528181818 C0.431818182,0.527272727 0.5,0.481818182 0.5,0.427272727 C0.5,0.354545455 0.25,0.00818181818 0.25,0.00818181818 C0.25,0.00818181818 0,0.354545455 0,0.427272727 C0,0.481818182 0.0681818182,0.528181818 0.25,0.528181818 Z" id="r"></path>
                            </g>
                            <g id="r-link" transform="translate(0.276563, 1.918182) rotate(-90.000000) translate(-0.276563, -1.918182) translate(0.173438, 1.650000)">
                                <path d="M0.25,0.528181818 C0.431818182,0.527272727 0.5,0.481818182 0.5,0.427272727 C0.5,0.354545455 0.25,0.00818181818 0.25,0.00818181818 C0.25,0.00818181818 0,0.354545455 0,0.427272727 C0,0.481818182 0.0681818182,0.528181818 0.25,0.528181818 Z" id="r"></path>
                            </g>
                        </g>
                        <g id="r4-link" transform="translate(2.810706, 2.722381) rotate(22.500000) translate(-2.810706, -2.722381) translate(0.832581, 0.799654)">
                            <g id="r4">
                                <g id="r-link" transform="translate(3.679688, 1.918182) rotate(90.000000) translate(-3.679688, -1.918182) translate(3.576563, 1.650000)">
                                    <path d="M0.25,0.528181818 C0.431818182,0.527272727 0.5,0.481818182 0.5,0.427272727 C0.5,0.354545455 0.25,0.00818181818 0.25,0.00818181818 C0.25,0.00818181818 0,0.354545455 0,0.427272727 C0,0.481818182 0.0681818182,0.528181818 0.25,0.528181818 Z" id="r"></path>
                                </g>
                                <g id="r-link" transform="translate(1.978125, 3.568182) rotate(180.000000) translate(-1.978125, -3.568182) translate(1.875000, 3.300000)">
                                    <path d="M0.25,0.528181818 C0.431818182,0.527272727 0.5,0.481818182 0.5,0.427272727 C0.5,0.354545455 0.25,0.00818181818 0.25,0.00818181818 C0.25,0.00818181818 0,0.354545455 0,0.427272727 C0,0.481818182 0.0681818182,0.528181818 0.25,0.528181818 Z" id="r"></path>
                                </g>
                                <g id="r-link" transform="translate(0.276562, 1.918182) rotate(-90.000000) translate(-0.276562, -1.918182) translate(0.173437, 1.650000)">
                                    <path d="M0.25,0.528181818 C0.431818182,0.527272727 0.5,0.481818182 0.5,0.427272727 C0.5,0.354545455 0.25,0.00818181818 0.25,0.00818181818 C0.25,0.00818181818 0,0.354545455 0,0.427272727 C0,0.481818182 0.0681818182,0.528181818 0.25,0.528181818 Z" id="r"></path>
                                </g>
                            </g>
                        </g>
                        <g id="r4-link" transform="translate(2.809185, 2.721396) rotate(45.000000) translate(-2.809185, -2.721396) translate(0.831060, 0.798669)">
                            <g id="r4">
                                <g id="r-link" transform="translate(3.679688, 1.918182) rotate(90.000000) translate(-3.679688, -1.918182) translate(3.576563, 1.650000)">
                                    <path d="M0.25,0.528181818 C0.431818182,0.527272727 0.5,0.481818182 0.5,0.427272727 C0.5,0.354545455 0.25,0.00818181818 0.25,0.00818181818 C0.25,0.00818181818 0,0.354545455 0,0.427272727 C0,0.481818182 0.0681818182,0.528181818 0.25,0.528181818 Z" id="r"></path>
                                </g>
                                <g id="r-link" transform="translate(1.978125, 3.568182) rotate(180.000000) translate(-1.978125, -3.568182) translate(1.875000, 3.300000)">
                                    <path d="M0.25,0.528181818 C0.431818182,0.527272727 0.5,0.481818182 0.5,0.427272727 C0.5,0.354545455 0.25,0.00818181818 0.25,0.00818181818 C0.25,0.00818181818 0,0.354545455 0,0.427272727 C0,0.481818182 0.0681818182,0.528181818 0.25,0.528181818 Z" id="r"></path>
                                </g>
                                <g id="r-link" transform="translate(0.276563, 1.918182) rotate(-90.000000) translate(-0.276563, -1.918182) translate(0.173438, 1.650000)">
                                    <path d="M0.25,0.528181818 C0.431818182,0.527272727 0.5,0.481818182 0.5,0.427272727 C0.5,0.354545455 0.25,0.00818181818 0.25,0.00818181818 C0.25,0.00818181818 0,0.354545455 0,0.427272727 C0,0.481818182 0.0681818182,0.528181818 0.25,0.528181818 Z" id="r"></path>
                                </g>
                            </g>
                        </g>
                        <g id="r4-link" transform="translate(2.808169, 2.719921) rotate(67.500000) translate(-2.808169, -2.719921) translate(0.830044, 0.797194)">
                            <g id="r4">
                                <g id="r-link" transform="translate(3.679688, 1.918182) rotate(90.000000) translate(-3.679688, -1.918182) translate(3.576563, 1.650000)">
                                    <path d="M0.25,0.528181818 C0.431818182,0.527272727 0.5,0.481818182 0.5,0.427272727 C0.5,0.354545455 0.25,0.00818181818 0.25,0.00818181818 C0.25,0.00818181818 0,0.354545455 0,0.427272727 C0,0.481818182 0.0681818182,0.528181818 0.25,0.528181818 Z" id="r"></path>
                                </g>
                                <g id="r-link" transform="translate(1.978125, 3.568182) rotate(180.000000) translate(-1.978125, -3.568182) translate(1.875000, 3.300000)">
                                    <path d="M0.25,0.528181818 C0.431818182,0.527272727 0.5,0.481818182 0.5,0.427272727 C0.5,0.354545455 0.25,0.00818181818 0.25,0.00818181818 C0.25,0.00818181818 0,0.354545455 0,0.427272727 C0,0.481818182 0.0681818182,0.528181818 0.25,0.528181818 Z" id="r"></path>
                                </g>
                                <g id="r-link" transform="translate(0.276563, 1.918182) rotate(-90.000000) translate(-0.276563, -1.918182) translate(0.173437, 1.650000)">
                                    <path d="M0.25,0.528181818 C0.431818182,0.527272727 0.5,0.481818182 0.5,0.427272727 C0.5,0.354545455 0.25,0.00818181818 0.25,0.00818181818 C0.25,0.00818181818 0,0.354545455 0,0.427272727 C0,0.481818182 0.0681818182,0.528181818 0.25,0.528181818 Z" id="r"></path>
                                </g>
                            </g>
                        </g>
                    </g>
                    <g id="r16-link" transform="translate(3.303863, 3.203571) rotate(11.250000) translate(-3.303863, -3.203571) translate(0.496051, 0.480844)">
                        <g id="r16">
                            <g id="r4" transform="translate(0.834375, 0.800000)">
                                <g id="r-link" transform="translate(3.679688, 1.918182) rotate(90.000000) translate(-3.679688, -1.918182) translate(3.576563, 1.650000)">
                                    <path d="M0.25,0.528181818 C0.431818182,0.527272727 0.5,0.481818182 0.5,0.427272727 C0.5,0.354545455 0.25,0.00818181818 0.25,0.00818181818 C0.25,0.00818181818 0,0.354545455 0,0.427272727 C0,0.481818182 0.0681818182,0.528181818 0.25,0.528181818 Z" id="r"></path>
                                </g>
                                <g id="r-link" transform="translate(1.978125, 3.568182) rotate(180.000000) translate(-1.978125, -3.568182) translate(1.875000, 3.300000)">
                                    <path d="M0.25,0.528181818 C0.431818182,0.527272727 0.5,0.481818182 0.5,0.427272727 C0.5,0.354545455 0.25,0.00818181818 0.25,0.00818181818 C0.25,0.00818181818 0,0.354545455 0,0.427272727 C0,0.481818182 0.0681818182,0.528181818 0.25,0.528181818 Z" id="r"></path>
                                </g>
                                <g id="r-link" transform="translate(0.276562, 1.918182) rotate(-90.000000) translate(-0.276562, -1.918182) translate(0.173437, 1.650000)">
                                    <path d="M0.25,0.528181818 C0.431818182,0.527272727 0.5,0.481818182 0.5,0.427272727 C0.5,0.354545455 0.25,0.00818181818 0.25,0.00818181818 C0.25,0.00818181818 0,0.354545455 0,0.427272727 C0,0.481818182 0.0681818182,0.528181818 0.25,0.528181818 Z" id="r"></path>
                                </g>
                            </g>
                            <g id="r4-link" transform="translate(2.810706, 2.722381) rotate(22.500000) translate(-2.810706, -2.722381) translate(0.832581, 0.799654)">
                                <g id="r4">
                                    <g id="r-link" transform="translate(3.679688, 1.918182) rotate(90.000000) translate(-3.679688, -1.918182) translate(3.576563, 1.650000)">
                                        <path d="M0.25,0.528181818 C0.431818182,0.527272727 0.5,0.481818182 0.5,0.427272727 C0.5,0.354545455 0.25,0.00818181818 0.25,0.00818181818 C0.25,0.00818181818 0,0.354545455 0,0.427272727 C0,0.481818182 0.0681818182,0.528181818 0.25,0.528181818 Z" id="r"></path>
                                    </g>
                                    <g id="r-link" transform="translate(1.978125, 3.568182) rotate(180.000000) translate(-1.978125, -3.568182) translate(1.875000, 3.300000)">
                                        <path d="M0.25,0.528181818 C0.431818182,0.527272727 0.5,0.481818182 0.5,0.427272727 C0.5,0.354545455 0.25,0.00818181818 0.25,0.00818181818 C0.25,0.00818181818 0,0.354545455 0,0.427272727 C0,0.481818182 0.0681818182,0.528181818 0.25,0.528181818 Z" id="r"></path>
                                    </g>
                                    <g id="r-link" transform="translate(0.276562, 1.918182) rotate(-90.000000) translate(-0.276562, -1.918182) translate(0.173437, 1.650000)">
                                        <path d="M0.25,0.528181818 C0.431818182,0.527272727 0.5,0.481818182 0.5,0.427272727 C0.5,0.354545455 0.25,0.00818181818 0.25,0.00818181818 C0.25,0.00818181818 0,0.354545455 0,0.427272727 C0,0.481818182 0.0681818182,0.528181818 0.25,0.528181818 Z" id="r"></path>
                                    </g>
                                </g>
                            </g>
                            <g id="r4-link" transform="translate(2.809185, 2.721396) rotate(45.000000) translate(-2.809185, -2.721396) translate(0.831060, 0.798669)">
                                <g id="r4">
                                    <g id="r-link" transform="translate(3.679688, 1.918182) rotate(90.000000) translate(-3.679688, -1.918182) translate(3.576563, 1.650000)">
                                        <path d="M0.25,0.528181818 C0.431818182,0.527272727 0.5,0.481818182 0.5,0.427272727 C0.5,0.354545455 0.25,0.00818181818 0.25,0.00818181818 C0.25,0.00818181818 0,0.354545455 0,0.427272727 C0,0.481818182 0.0681818182,0.528181818 0.25,0.528181818 Z" id="r"></path>
                                    </g>
                                    <g id="r-link" transform="translate(1.978125, 3.568182) rotate(180.000000) translate(-1.978125, -3.568182) translate(1.875000, 3.300000)">
                                        <path d="M0.25,0.528181818 C0.431818182,0.527272727 0.5,0.481818182 0.5,0.427272727 C0.5,0.354545455 0.25,0.00818181818 0.25,0.00818181818 C0.25,0.00818181818 0,0.354545455 0,0.427272727 C0,0.481818182 0.0681818182,0.528181818 0.25,0.528181818 Z" id="r"></path>
                                    </g>
                                    <g id="r-link" transform="translate(0.276562, 1.918182) rotate(-90.000000) translate(-0.276562, -1.918182) translate(0.173437, 1.650000)">
                                        <path d="M0.25,0.528181818 C0.431818182,0.527272727 0.5,0.481818182 0.5,0.427272727 C0.5,0.354545455 0.25,0.00818181818 0.25,0.00818181818 C0.25,0.00818181818 0,0.354545455 0,0.427272727 C0,0.481818182 0.0681818182,0.528181818 0.25,0.528181818 Z" id="r"></path>
                                    </g>
                                </g>
                            </g>
                            <g id="r4-link" transform="translate(2.808169, 2.719921) rotate(67.500000) translate(-2.808169, -2.719921) translate(0.830044, 0.797194)">
                                <g id="r4">
                                    <g id="r-link" transform="translate(3.679688, 1.918182) rotate(90.000000) translate(-3.679688, -1.918182) translate(3.576563, 1.650000)">
                                        <path d="M0.25,0.528181818 C0.431818182,0.527272727 0.5,0.481818182 0.5,0.427272727 C0.5,0.354545455 0.25,0.00818181818 0.25,0.00818181818 C0.25,0.00818181818 0,0.354545455 0,0.427272727 C0,0.481818182 0.0681818182,0.528181818 0.25,0.528181818 Z" id="r"></path>
                                    </g>
                                    <g id="r-link" transform="translate(1.978125, 3.568182) rotate(180.000000) translate(-1.978125, -3.568182) translate(1.875000, 3.300000)">
                                        <path d="M0.25,0.528181818 C0.431818182,0.527272727 0.5,0.481818182 0.5,0.427272727 C0.5,0.354545455 0.25,0.00818181818 0.25,0.00818181818 C0.25,0.00818181818 0,0.354545455 0,0.427272727 C0,0.481818182 0.0681818182,0.528181818 0.25,0.528181818 Z" id="r"></path>
                                    </g>
                                    <g id="r-link" transform="translate(0.276562, 1.918182) rotate(-90.000000) translate(-0.276562, -1.918182) translate(0.173437, 1.650000)">
                                        <path d="M0.25,0.528181818 C0.431818182,0.527272727 0.5,0.481818182 0.5,0.427272727 C0.5,0.354545455 0.25,0.00818181818 0.25,0.00818181818 C0.25,0.00818181818 0,0.354545455 0,0.427272727 C0,0.481818182 0.0681818182,0.528181818 0.25,0.528181818 Z" id="r"></path>
                                    </g>
                                </g>
                            </g>
                        </g>
                    </g>
                </g>
                <g id="bird" transform="translate(5.325000, 3.990909)" fill="#FEC50C">
                    <path d="M4.164375,2.791 C4.09645125,2.83054818 4.04460937,2.76043364 3.98783438,2.73940727 C3.94728844,2.76076 3.94350187,2.83220727 3.90561,2.86604364 C3.86028938,2.91606091 3.804735,2.85207727 3.80887875,2.80272636 C3.75466781,2.84703636 3.72725344,2.94747182 3.63959438,2.93405364 C3.59805562,2.90118909 3.56720156,2.83222636 3.53547563,2.91074818 C3.50958844,2.94913091 3.44069438,3.00373909 3.40501313,2.94577818 C3.39396563,2.89460818 3.36750563,2.83441455 3.33879375,2.91570727 C3.31908375,2.97320455 3.25581844,3.01550727 3.19461563,2.99033273 C3.16111219,2.96377273 3.22147406,2.86554182 3.17882719,2.87253273 C3.11507906,2.91340364 3.07801781,3.01487818 2.98905844,3.00675091 C2.95451438,2.96915182 3.01002094,2.90544182 2.97213,2.86370545 C2.92740094,2.91937364 2.87778938,3.00087818 2.80042688,3.00675091 C2.76303563,2.97737 2.80189969,2.89310545 2.77802719,2.88063273 C2.6986425,2.92679727 2.61488344,3.00906909 2.51505844,2.98330545 C2.55396188,2.83900545 2.71652719,2.78837818 2.85323344,2.77712364 C3.08844281,2.74909182 3.33589594,2.80063545 3.56220844,2.71831455 C3.59877469,2.69673818 3.68736469,2.66614 3.655815,2.61609636 C3.62787281,2.57658455 3.72849844,2.59203273 3.73817906,2.54588 C3.73218844,2.48742364 3.784365,2.49546909 3.83534156,2.49035273 C4.06386656,2.48079273 4.28960719,2.52746 4.51744781,2.53539455 C4.53465844,2.64304909 4.41150094,2.71864 4.31236031,2.68539455 C4.26499875,2.69283345 4.19398219,2.57980364 4.20790406,2.66203273 C4.1983575,2.70518909 4.20503906,2.76218727 4.16437313,2.79101455 M2.21999812,2.57057818 C2.27290594,2.61753545 2.31000281,2.56173691 2.35945125,2.54134636 C2.52531375,2.48602818 2.67002625,2.38935545 2.812695,2.29276455 C2.89914187,2.22339636 2.97407625,2.13344636 3.09016687,2.11094636 C3.31662,2.04455545 3.55734187,2.05260727 3.78467625,1.99133727 C3.95777625,1.76151 4.25178562,1.67952818 4.49807625,1.54741909 C4.55338031,1.53076818 4.57474594,1.48663091 4.5924075,1.43790091 C4.68642,1.29399182 4.81449187,1.16647364 4.96595437,1.07936455 C5.03761781,1.04139455 5.12311687,1.01952364 5.20424812,1.03689364 C5.19843469,1.13059364 5.14300219,1.21363909 5.07607312,1.27843909 C5.13084187,1.27726991 5.17791375,1.24372 5.23326375,1.24560818 C5.25223219,1.34177182 5.14513219,1.39209909 5.0881575,1.45197182 C5.11989656,1.45913127 5.24146687,1.46804818 5.17521844,1.49887273 C5.09079281,1.55568818 4.99438406,1.5947 4.91644969,1.66068182 C4.98835031,1.67320727 4.99654594,1.68802909 4.92342937,1.71324545 C4.88385281,1.73926091 4.8077325,1.74835091 4.80037312,1.79904 C4.85469094,1.83141091 4.77535594,1.86355273 4.74475125,1.87408182 C4.68623812,1.88729545 4.62477,1.91194727 4.70250094,1.95505545 C4.67309625,1.99813182 4.61001375,2.00731545 4.55853844,2.00306 C4.57415812,2.05187909 4.59676594,2.10649636 4.53142687,2.12803273 C4.38495187,2.23540545 4.21305187,2.31350545 4.0289175,2.33136909 C4.2589425,2.34852 4.49585812,2.30711455 4.69241437,2.18581455 C4.71836437,2.15606273 4.85443312,2.12409091 4.77832312,2.09907 C4.74249187,2.08461182 4.66567312,2.06855455 4.66047937,2.04206364 C4.7669325,1.97837273 4.90107937,2.00102727 5.01560437,1.96319273 C5.01856969,1.92723727 4.9284975,1.93724091 4.89491062,1.92905273 C4.81482281,1.92269136 4.81951969,1.90286818 4.8967425,1.89552364 C4.99444875,1.87044182 5.10511125,1.86549818 5.18730187,1.80372364 C5.12038031,1.77366364 5.03621437,1.80013164 4.96481437,1.77558273 C5.085855,1.72422091 5.22864562,1.71906727 5.33724562,1.64191 C5.38671094,1.58853727 5.2738725,1.60522273 5.2409925,1.60651818 C5.17395281,1.61783364 5.1429675,1.58671909 5.21912625,1.55971 C5.34916687,1.46673727 5.51381062,1.40633727 5.60515125,1.27155545 C5.62678687,1.24138636 5.65608375,1.15047364 5.58707906,1.18317727 C5.49631969,1.21243636 5.41647281,1.31136818 5.31306656,1.28076818 C5.51681344,1.12764091 5.71068844,0.953313636 5.84994469,0.741404545 C5.85713906,0.680284545 5.75820844,0.673669091 5.73245719,0.721659091 C5.60155406,0.843968182 5.48308219,0.988340909 5.31548531,1.06502273 C5.47599469,0.914795455 5.60869781,0.736913636 5.72447906,0.55255 C5.74930031,0.497712727 5.81601844,0.431768182 5.77981125,0.370886364 C5.72144719,0.324039091 5.64843937,0.366922182 5.61811125,0.422980909 C5.516355,0.55179 5.43908625,0.702144545 5.30823,0.807071818 C5.42278312,0.595053636 5.54139562,0.369362727 5.54428312,0.124826364 C5.54393625,0.0744790909 5.53350844,0.000335454545 5.46300844,0.00974454545 C5.40711281,0.0194545455 5.42038594,0.100573636 5.39734406,0.141599091 C5.346615,0.308662727 5.32280531,0.48959 5.21875031,0.635880909 C5.24216062,0.500117273 5.28312,0.358608182 5.25167531,0.221517273 C5.2369875,0.160248182 5.13495656,0.186597273 5.14810031,0.247233636 C5.02620656,0.845960909 4.61190656,1.36959727 4.07006906,1.67250636 C3.82196906,1.80862455 3.54485344,1.89637909 3.26291906,1.93616091 C3.18707625,1.95226818 3.10505344,1.94281527 3.03255656,1.96789364 C2.85690656,2.09850273 2.75056594,2.31704818 2.52816281,2.38548455 C2.42848781,2.43351636 2.29851281,2.44326273 2.22724406,2.53305727 C2.22107531,2.54454091 2.2197525,2.55784455 2.21998875,2.57057818" id="Shape"></path>
                    <path d="M2.885625,1.96318182 C2.85280687,2.02094545 2.8335075,2.08734545 2.7913125,2.13906364 C2.66436563,2.02705455 2.48033437,2.03075455 2.31930938,2.0233 C2.1864,2.01642209 2.04186562,2.00453091 1.93903125,1.91260909 C1.83085313,1.82668182 1.74255,1.71511818 1.62166875,1.6454 C1.51133438,1.61630818 1.40010938,1.57990727 1.31140313,1.50657273 C1.12184063,1.35673636 1.01327813,1.13441818 0.828046875,0.979909091 C0.792732188,0.946201818 0.7510875,0.92008 0.711525,0.891483636 C0.673935,0.900365 0.690942188,0.979039091 0.644941875,0.938932727 C0.61991625,0.921664545 0.557304375,0.919983636 0.551668125,0.944108818 C0.608296875,1.01647245 0.66498375,1.09909973 0.672830625,1.19165427 C0.6342075,1.19549427 0.56553375,1.18373936 0.54639,1.19768864 C0.597685313,1.27223682 0.6634275,1.33835227 0.7381275,1.39098864 C0.702299063,1.39657536 0.631693125,1.393533 0.61795875,1.40753227 C0.6921075,1.46613409 0.771624375,1.52602318 0.868711875,1.54107773 C0.888586875,1.566485 0.83965875,1.61553318 0.88080375,1.63722318 C0.904670625,1.64667682 0.983413125,1.66249682 0.92917125,1.688815 C0.891947813,1.71313773 0.905760938,1.769825 0.953355938,1.76854773 C0.983450625,1.78344864 1.05102469,1.78710409 1.05631219,1.81290227 C1.0296375,1.83922591 0.946643438,1.87043682 1.0172775,1.89509227 C1.08326813,1.93058318 1.15853063,1.95362318 1.23388688,1.95615409 C1.19607188,1.987005 1.14947438,2.00452318 1.11054938,2.03354227 C1.28445563,2.13242409 1.47723375,2.19745136 1.66773375,2.26007864 C1.74358594,2.28465227 1.8203025,2.30756682 1.89893063,2.32198955 C1.67047125,2.30920227 1.44966188,2.243615 1.24159313,2.15385318 C1.1337525,2.10798773 1.02518063,2.06367409 0.91465875,2.02417136 C0.96312,1.99971955 1.01917125,1.99374318 1.06943063,1.97257955 C0.965105625,1.952315 0.85113375,1.94566591 0.7594275,1.89006318 C0.773487188,1.86573773 0.826767188,1.86458955 0.85623375,1.85220682 C0.911653125,1.83933409 0.946026563,1.82371682 0.867894375,1.81904773 C0.789090938,1.79830955 0.6987225,1.807615 0.629281875,1.76152227 C0.633752813,1.73388591 0.706422188,1.74351045 0.736025625,1.73158227 C0.773292188,1.72537318 0.81473625,1.720175 0.8445225,1.69586045 C0.72270375,1.64687864 0.56336625,1.68158136 0.4679475,1.57726045 C0.44593875,1.53752227 0.53627625,1.56953264 0.562006875,1.56291318 C0.627372188,1.56291345 0.697635,1.58305682 0.759885,1.55749873 C0.58237875,1.48193145 0.392244375,1.41118055 0.256869375,1.27139873 C0.241832813,1.24892964 0.196802813,1.187536 0.233134688,1.17994418 C0.338500313,1.19346145 0.414765938,1.30497145 0.527472188,1.28761691 C0.542446875,1.26804782 0.462001875,1.23597236 0.441921563,1.20799691 C0.277596563,1.07126055 0.118099688,0.922869636 0.0029371875,0.743760545 C-0.0049839375,0.683949636 0.0919725,0.674987818 0.117499688,0.721186 C0.243171563,0.838558727 0.356693438,0.975522364 0.513209063,1.05564964 C0.568753125,1.08176236 0.481322813,1.02474055 0.469678125,1.00405782 C0.32505,0.841203273 0.18736875,0.669203273 0.0862875,0.477403273 C0.0681946875,0.442832364 0.03820875,0.380257818 0.0923477813,0.361857818 C0.146462156,0.335567818 0.200169656,0.371381455 0.227610281,0.416463273 C0.333941531,0.546508727 0.412185281,0.701072364 0.544644656,0.809417818 C0.431797781,0.597063273 0.311310281,0.373526909 0.308394656,0.129163273 C0.311040844,0.0817914545 0.314181656,0.0101450909 0.380424656,0.0120905455 C0.436047469,0.003914 0.427264031,0.0729632727 0.445496531,0.105890545 C0.500293406,0.285408727 0.524195906,0.479717818 0.634130906,0.638217818 C0.609845906,0.505045091 0.574110281,0.367899636 0.597855281,0.232517818 C0.603332344,0.188065091 0.654934031,0.174608727 0.688622156,0.201483273 C0.715852781,0.266119636 0.721534031,0.345928727 0.746347781,0.415037818 C0.887535281,0.883392364 1.20455091,1.29532873 1.61766966,1.57176509 C1.95790716,1.79804691 2.36168841,1.93311964 2.77379466,1.95668327 C2.81101153,1.95982873 2.84837841,1.96091491 2.88565716,1.96313364" id="Shape"></path>
                </g>
                <g id="ornament" transform="translate(0.553125, 0.490909)" fill="#FEC50C">
                    <g id="oh">
                        <g id="oq">
                            <path d="M0.571875,0.191302733 C0.571875,0.191302733 0.481772813,0.10965179 0.45118125,0.150606671 C0.401968125,0.216477817 0.60249375,0.544575854 0.60249375,0.660113727 C0.60249375,0.849768519 0.485146875,0.901350093 0.340246875,0.928424858 C0.24301875,0.946603774 0.08469375,0.920822086 0.08469375,0.920822086 C0.1145025,0.877625804 0.133891875,0.864897226 0.184125,0.861444638 C0.128205,0.830135775 0.071259375,0.762175888 0.071259375,0.65637199 C0.071259375,0.493215691 0.13354125,0.425973619 0.13354125,0.242031017 C0.13354125,0.139990087 0.0559546875,0.0100959153 0.0559546875,0.0100959153 C0.193092188,0.0248970569 0.261060938,0.161837947 0.222389063,0.271279448 C0.244219688,0.274670567 0.264040313,0.269371374 0.281063438,0.251975281 C0.291100313,0.282310544 0.275256094,0.317520883 0.254031563,0.347856146 C0.271125,0.357706589 0.283679063,0.351799377 0.31090125,0.345738895 C0.30831975,0.376994175 0.290953125,0.410198676 0.248466563,0.441451933 C0.371757188,0.406932112 0.447619688,0.499602019 0.447619688,0.596611168 C0.447619688,0.669888951 0.400003125,0.722410761 0.353457188,0.722410761 C0.338415938,0.722410761 0.316321875,0.71573023 0.303855938,0.705696795 C0.295069219,0.725864361 0.299596969,0.752856224 0.308648531,0.773025813 C0.274534781,0.76330124 0.252882281,0.741453077 0.268295719,0.695974952 C0.242094469,0.693379192 0.221251031,0.683831748 0.207072281,0.665639689 C0.221437594,0.645799689 0.243229781,0.634372277 0.268295719,0.635304426 C0.249217594,0.5928482 0.270478594,0.569078416 0.301457906,0.549813679 C0.301457906,0.549813679 0.281756344,0.635302404 0.332071031,0.635302404 C0.354695719,0.635302404 0.375310406,0.627359832 0.375310406,0.591403471 C0.375310406,0.560092586 0.349927594,0.516720389 0.291255094,0.519478416 C0.232580719,0.522236139 0.185017594,0.563105387 0.185017594,0.664113068 C0.185017594,0.75728949 0.254705719,0.803632026 0.346539469,0.806624606 C0.429356344,0.80938233 0.491861344,0.761001907 0.491861344,0.668874911 C0.491861344,0.54625999 0.327723844,0.266767121 0.327723844,0.157497492 C0.327723844,0.075514939 0.396088219,0.029756765 0.462976969,0.029756765 C0.549712594,0.029756765 0.622895719,0.122377133 0.622895719,0.122377133 L0.571940719,0.191273211 L0.571875,0.191302733 Z" id="Shape"></path>
                            <path d="M0.5908125,2.40761192 C0.5908125,2.61254303 0.42020625,2.71786973 0.28614375,2.71786973 C0.105525,2.71786973 0.00935625,2.60141184 0.00935625,2.44896211 C0.00935625,2.36254629 0.0240384375,2.30832093 0.060988125,2.22561045 C0.060988125,2.22561045 0.358925625,1.55742586 0.4749225,1.29899226 C0.489388125,1.26675934 0.494055,1.23006687 0.494055,1.17627624 C0.494055,1.09320079 0.41933625,1.02530258 0.340989375,1.0232199 C0.269570625,1.02129363 0.191758125,1.09502364 0.191758125,1.17903629 C0.191758125,1.28107722 0.24084375,1.32657253 0.291245625,1.32657253 C0.353267813,1.32657253 0.37798125,1.29907517 0.37798125,1.25211288 C0.37798125,1.21939063 0.36332625,1.20523148 0.342267188,1.20523148 C0.289069688,1.20523148 0.30400125,1.28244815 0.30400125,1.28244815 C0.277579688,1.27621023 0.255874688,1.24709829 0.268287188,1.21074652 C0.24895875,1.2061056 0.23085375,1.19516387 0.216629063,1.17765323 C0.230889375,1.16274391 0.247247813,1.1512336 0.268287188,1.14731797 C0.25582875,1.10296307 0.272476594,1.08129113 0.308465625,1.07216982 C0.301203188,1.08923158 0.300953344,1.10492746 0.303363656,1.11974175 C0.360022406,1.10236658 0.446857406,1.13001661 0.446857406,1.2355627 C0.446857406,1.34035357 0.379418344,1.42859425 0.252973031,1.40654419 C0.283054594,1.42205405 0.298354594,1.45379057 0.301442719,1.48927691 C0.278482406,1.47962483 0.252973031,1.47824582 0.252973031,1.47824582 C0.267757406,1.5063599 0.288290531,1.53059171 0.287411156,1.58579673 C0.263968031,1.57430361 0.242198344,1.5530209 0.212156156,1.56649257 C0.259306781,1.6665499 0.201377719,1.80419041 0.0539905313,1.83675494 C0.107931469,1.7685696 0.134347406,1.694941 0.134347406,1.621643 C0.134347406,1.38409681 0.0731239688,1.34417214 0.0731239688,1.17902416 C0.0731239688,1.10992891 0.106061156,1.03530952 0.171336469,0.984597415 L0.171336469,0.987355037 C0.128191781,0.974895388 0.100553344,0.95198496 0.0846674063,0.920856056 C0.183245531,0.890711873 0.326533031,0.891264894 0.403473656,0.923909499 C0.491917406,0.93495475 0.553651781,1.00813447 0.571839281,1.04527077 C0.590032406,1.08238281 0.625366781,1.21666678 0.571839281,1.3375731 C0.513257719,1.46989369 0.237048656,2.10147983 0.150929906,2.30003148 C0.132663656,2.34214397 0.121592719,2.38680318 0.121592719,2.43516267 C0.121592719,2.5567868 0.224905219,2.5992491 0.283583344,2.5992491 C0.353735531,2.5992491 0.425164594,2.54161361 0.425164594,2.46963801 C0.425164594,2.42402946 0.402204281,2.39655737 0.369042094,2.39655737 C0.289741781,2.39655737 0.294558656,2.4693064 0.310367719,2.51513837 C0.261014906,2.49121087 0.232327406,2.44849583 0.240215531,2.40345244 C0.212273344,2.39932531 0.185677406,2.38503189 0.161134594,2.35519202 C0.180445219,2.32889573 0.203998969,2.30901832 0.240215531,2.30831062 C0.224397094,2.23843083 0.267783656,2.20887606 0.310367719,2.19248966 C0.296895844,2.24377703 0.288052406,2.30280063 0.369042094,2.30280063 C0.428091469,2.30280063 0.474585844,2.31383173 0.501698344,2.35519809 C0.50329275,2.30004463 0.508075875,2.08217566 0.508075875,2.08217566 C0.511477219,2.00030735 0.40646025,2.00264784 0.33971025,2.02702119 C0.364901813,1.93271851 0.416565563,1.88172938 0.53613525,1.89465005 C0.507116813,1.88155044 0.476185875,1.85210284 0.476185875,1.79537119 C0.476204625,1.71860544 0.533955563,1.63355953 0.571867125,1.60841579 L0.590823375,2.40762689 L0.5908125,2.40761192 Z" id="op"></path>
                            <g id="op-link" transform="translate(0.304688, 3.625269) scale(-1, 1) rotate(-180.000000) translate(-0.304688, -3.625269) translate(0.000000, 2.710307)">
                                <path d="M0.5908125,1.51792582 C0.5908125,1.72285692 0.42020625,1.82818363 0.28614375,1.82818363 C0.105525,1.82818363 0.00935625,1.71172574 0.00935625,1.559276 C0.00935625,1.47286018 0.0240384375,1.41863483 0.060988125,1.33592435 C0.060988125,1.33592435 0.358925625,0.667739752 0.4749225,0.409306159 C0.489388125,0.377073236 0.494055,0.340380761 0.494055,0.286590137 C0.494055,0.203514686 0.41933625,0.135616471 0.340989375,0.133533796 C0.269570625,0.131607525 0.191758125,0.205337531 0.191758125,0.289350186 C0.191758125,0.391391116 0.24084375,0.436886428 0.291245625,0.436886428 C0.353267813,0.436886428 0.37798125,0.409389061 0.37798125,0.362426778 C0.37798125,0.329704528 0.36332625,0.315545375 0.342267188,0.315545375 C0.289069688,0.315545375 0.30400125,0.392762041 0.30400125,0.392762041 C0.277579688,0.386524129 0.255874688,0.357412184 0.268287188,0.321060418 C0.24895875,0.316419492 0.23085375,0.305477768 0.216629063,0.287967128 C0.230889375,0.273057809 0.247247813,0.261547495 0.268287188,0.257631865 C0.25582875,0.213276969 0.272476594,0.191605024 0.308465625,0.182483719 C0.301203188,0.199545472 0.300953344,0.215241355 0.303363656,0.23005564 C0.360022406,0.212680475 0.446857406,0.240330503 0.446857406,0.345876595 C0.446857406,0.450667464 0.379418344,0.538908149 0.252973031,0.516858088 C0.283054594,0.532367945 0.298354594,0.564104464 0.301442719,0.599590808 C0.278482406,0.589938724 0.252973031,0.588559711 0.252973031,0.588559711 C0.267757406,0.616673792 0.288290531,0.640905606 0.287411156,0.696110629 C0.263968031,0.684617502 0.242198344,0.663334795 0.212156156,0.676806463 C0.259306781,0.776863797 0.201377719,0.914504304 0.0539905313,0.947068837 C0.107931469,0.878883496 0.134347406,0.805254894 0.134347406,0.731956891 C0.134347406,0.494410701 0.0731239688,0.454486037 0.0731239688,0.289338054 C0.0731239688,0.220242806 0.106061156,0.145623417 0.171336469,0.0949113093 L0.171336469,0.0976689319 C0.128191781,0.0852092824 0.100553344,0.0622988541 0.0846674063,0.0311699505 C0.183245531,0.00102576764 0.326533031,0.00157878843 0.403473656,0.0342233937 C0.491917406,0.0452686445 0.553651781,0.11844836 0.571839281,0.155584667 C0.590032406,0.192696709 0.625366781,0.326980673 0.571839281,0.447886992 C0.513257719,0.58020758 0.237048656,1.21179372 0.150929906,1.41034538 C0.132663656,1.45245786 0.121592719,1.49711707 0.121592719,1.54547656 C0.121592719,1.6671007 0.224905219,1.70956299 0.283583344,1.70956299 C0.353735531,1.70956299 0.425164594,1.65192751 0.425164594,1.5799519 C0.425164594,1.53434336 0.402204281,1.50687126 0.369042094,1.50687126 C0.289741781,1.50687126 0.294558656,1.57962029 0.310367719,1.62545227 C0.261014906,1.60152477 0.232327406,1.55880972 0.240215531,1.51376633 C0.212273344,1.5096392 0.185677406,1.49534579 0.161134594,1.46550592 C0.180445219,1.43920963 0.203998969,1.41933222 0.240215531,1.41862451 C0.224397094,1.34874472 0.267783656,1.31918996 0.310367719,1.30280356 C0.296895844,1.35409093 0.288052406,1.41311453 0.369042094,1.41311453 C0.428091469,1.41311453 0.474585844,1.42414562 0.501698344,1.46551198 C0.50329275,1.41035852 0.508075875,1.19248956 0.508075875,1.19248956 C0.511477219,1.11062125 0.40646025,1.11296173 0.33971025,1.13733509 C0.364901813,1.0430324 0.416565563,0.992043279 0.53613525,1.00496395 C0.507116813,0.99186433 0.476185875,0.962416731 0.476185875,0.905685088 C0.476204625,0.828919331 0.533955563,0.743873428 0.571867125,0.718729685 L0.590823375,1.51794078 L0.5908125,1.51792582 Z" id="op"></path>
                            </g>
                        </g>
                        <g id="oq-link" transform="translate(0.829688, 2.274766) scale(-1, 1) translate(-0.829688, -2.274766) translate(0.515625, 0.000000)">
                            <g id="oq">
                                <path d="M0.571875,0.191302733 C0.571875,0.191302733 0.481772812,0.10965179 0.45118125,0.150606671 C0.401968125,0.216477817 0.60249375,0.544575854 0.60249375,0.660113727 C0.60249375,0.849768519 0.485146875,0.901350093 0.340246875,0.928424858 C0.24301875,0.946603774 0.08469375,0.920822086 0.08469375,0.920822086 C0.1145025,0.877625804 0.133891875,0.864897226 0.184125,0.861444638 C0.128205,0.830135775 0.071259375,0.762175888 0.071259375,0.65637199 C0.071259375,0.493215691 0.13354125,0.425973619 0.13354125,0.242031017 C0.13354125,0.139990087 0.0559546875,0.0100959153 0.0559546875,0.0100959153 C0.193092188,0.0248970569 0.261060938,0.161837947 0.222389063,0.271279448 C0.244219688,0.274670567 0.264040313,0.269371374 0.281063438,0.251975281 C0.291100313,0.282310544 0.275256094,0.317520883 0.254031563,0.347856146 C0.271125,0.357706589 0.283679063,0.351799377 0.31090125,0.345738895 C0.30831975,0.376994175 0.290953125,0.410198676 0.248466563,0.441451933 C0.371757188,0.406932112 0.447619688,0.499602019 0.447619688,0.596611168 C0.447619688,0.669888951 0.400003125,0.722410761 0.353457188,0.722410761 C0.338415938,0.722410761 0.316321875,0.71573023 0.303855938,0.705696795 C0.295069219,0.725864361 0.299596969,0.752856224 0.308648531,0.773025813 C0.274534781,0.76330124 0.252882281,0.741453077 0.268295719,0.695974952 C0.242094469,0.693379192 0.221251031,0.683831748 0.207072281,0.665639689 C0.221437594,0.645799689 0.243229781,0.634372277 0.268295719,0.635304426 C0.249217594,0.5928482 0.270478594,0.569078416 0.301457906,0.549813679 C0.301457906,0.549813679 0.281756344,0.635302404 0.332071031,0.635302404 C0.354695719,0.635302404 0.375310406,0.627359832 0.375310406,0.591403471 C0.375310406,0.560092586 0.349927594,0.516720389 0.291255094,0.519478416 C0.232580719,0.522236139 0.185017594,0.563105387 0.185017594,0.664113068 C0.185017594,0.75728949 0.254705719,0.803632026 0.346539469,0.806624606 C0.429356344,0.80938233 0.491861344,0.761001907 0.491861344,0.668874911 C0.491861344,0.54625999 0.327723844,0.266767121 0.327723844,0.157497492 C0.327723844,0.075514939 0.396088219,0.029756765 0.462976969,0.029756765 C0.549712594,0.029756765 0.622895719,0.122377133 0.622895719,0.122377133 L0.571940719,0.191273211 L0.571875,0.191302733 Z" id="Shape"></path>
                                <path d="M0.5908125,2.40761192 C0.5908125,2.61254303 0.42020625,2.71786973 0.28614375,2.71786973 C0.105525,2.71786973 0.00935625,2.60141184 0.00935625,2.44896211 C0.00935625,2.36254629 0.0240384375,2.30832093 0.060988125,2.22561045 C0.060988125,2.22561045 0.358925625,1.55742586 0.4749225,1.29899226 C0.489388125,1.26675934 0.494055,1.23006687 0.494055,1.17627624 C0.494055,1.09320079 0.41933625,1.02530258 0.340989375,1.0232199 C0.269570625,1.02129363 0.191758125,1.09502364 0.191758125,1.17903629 C0.191758125,1.28107722 0.24084375,1.32657253 0.291245625,1.32657253 C0.353267813,1.32657253 0.37798125,1.29907517 0.37798125,1.25211288 C0.37798125,1.21939063 0.36332625,1.20523148 0.342267188,1.20523148 C0.289069688,1.20523148 0.30400125,1.28244815 0.30400125,1.28244815 C0.277579688,1.27621023 0.255874688,1.24709829 0.268287188,1.21074652 C0.24895875,1.2061056 0.23085375,1.19516387 0.216629063,1.17765323 C0.230889375,1.16274391 0.247247813,1.1512336 0.268287188,1.14731797 C0.25582875,1.10296307 0.272476594,1.08129113 0.308465625,1.07216982 C0.301203188,1.08923158 0.300953344,1.10492746 0.303363656,1.11974175 C0.360022406,1.10236658 0.446857406,1.13001661 0.446857406,1.2355627 C0.446857406,1.34035357 0.379418344,1.42859425 0.252973031,1.40654419 C0.283054594,1.42205405 0.298354594,1.45379057 0.301442719,1.48927691 C0.278482406,1.47962483 0.252973031,1.47824582 0.252973031,1.47824582 C0.267757406,1.5063599 0.288290531,1.53059171 0.287411156,1.58579673 C0.263968031,1.57430361 0.242198344,1.5530209 0.212156156,1.56649257 C0.259306781,1.6665499 0.201377719,1.80419041 0.0539905313,1.83675494 C0.107931469,1.7685696 0.134347406,1.694941 0.134347406,1.621643 C0.134347406,1.38409681 0.0731239688,1.34417214 0.0731239688,1.17902416 C0.0731239688,1.10992891 0.106061156,1.03530952 0.171336469,0.984597415 L0.171336469,0.987355037 C0.128191781,0.974895388 0.100553344,0.95198496 0.0846674063,0.920856056 C0.183245531,0.890711873 0.326533031,0.891264894 0.403473656,0.923909499 C0.491917406,0.93495475 0.553651781,1.00813447 0.571839281,1.04527077 C0.590032406,1.08238281 0.625366781,1.21666678 0.571839281,1.3375731 C0.513257719,1.46989369 0.237048656,2.10147983 0.150929906,2.30003148 C0.132663656,2.34214397 0.121592719,2.38680318 0.121592719,2.43516267 C0.121592719,2.5567868 0.224905219,2.5992491 0.283583344,2.5992491 C0.353735531,2.5992491 0.425164594,2.54161361 0.425164594,2.46963801 C0.425164594,2.42402946 0.402204281,2.39655737 0.369042094,2.39655737 C0.289741781,2.39655737 0.294558656,2.4693064 0.310367719,2.51513837 C0.261014906,2.49121087 0.232327406,2.44849583 0.240215531,2.40345244 C0.212273344,2.39932531 0.185677406,2.38503189 0.161134594,2.35519202 C0.180445219,2.32889573 0.203998969,2.30901832 0.240215531,2.30831062 C0.224397094,2.23843083 0.267783656,2.20887606 0.310367719,2.19248966 C0.296895844,2.24377703 0.288052406,2.30280063 0.369042094,2.30280063 C0.428091469,2.30280063 0.474585844,2.31383173 0.501698344,2.35519809 C0.50329275,2.30004463 0.508075875,2.08217566 0.508075875,2.08217566 C0.511477219,2.00030735 0.40646025,2.00264784 0.33971025,2.02702119 C0.364901813,1.93271851 0.416565563,1.88172938 0.53613525,1.89465005 C0.507116813,1.88155044 0.476185875,1.85210284 0.476185875,1.79537119 C0.476204625,1.71860544 0.533955563,1.63355953 0.571867125,1.60841579 L0.590823375,2.40762689 L0.5908125,2.40761192 Z" id="op"></path>
                                <g id="op-link" transform="translate(0.304688, 3.625269) scale(-1, 1) rotate(-180.000000) translate(-0.304688, -3.625269) translate(0.000000, 2.710307)">
                                    <path d="M0.5908125,1.51792582 C0.5908125,1.72285692 0.42020625,1.82818363 0.28614375,1.82818363 C0.105525,1.82818363 0.00935625,1.71172574 0.00935625,1.559276 C0.00935625,1.47286018 0.0240384375,1.41863483 0.060988125,1.33592435 C0.060988125,1.33592435 0.358925625,0.667739752 0.4749225,0.409306159 C0.489388125,0.377073236 0.494055,0.340380761 0.494055,0.286590137 C0.494055,0.203514686 0.41933625,0.135616471 0.340989375,0.133533796 C0.269570625,0.131607525 0.191758125,0.205337531 0.191758125,0.289350186 C0.191758125,0.391391116 0.24084375,0.436886428 0.291245625,0.436886428 C0.353267813,0.436886428 0.37798125,0.409389061 0.37798125,0.362426778 C0.37798125,0.329704528 0.36332625,0.315545375 0.342267188,0.315545375 C0.289069688,0.315545375 0.30400125,0.392762041 0.30400125,0.392762041 C0.277579688,0.386524129 0.255874688,0.357412184 0.268287188,0.321060418 C0.24895875,0.316419492 0.23085375,0.305477768 0.216629063,0.287967128 C0.230889375,0.273057809 0.247247813,0.261547495 0.268287188,0.257631865 C0.25582875,0.213276969 0.272476594,0.191605024 0.308465625,0.182483719 C0.301203188,0.199545472 0.300953344,0.215241355 0.303363656,0.23005564 C0.360022406,0.212680475 0.446857406,0.240330503 0.446857406,0.345876595 C0.446857406,0.450667464 0.379418344,0.538908149 0.252973031,0.516858088 C0.283054594,0.532367945 0.298354594,0.564104464 0.301442719,0.599590808 C0.278482406,0.589938724 0.252973031,0.588559711 0.252973031,0.588559711 C0.267757406,0.616673792 0.288290531,0.640905606 0.287411156,0.696110629 C0.263968031,0.684617502 0.242198344,0.663334795 0.212156156,0.676806463 C0.259306781,0.776863797 0.201377719,0.914504304 0.0539905313,0.947068837 C0.107931469,0.878883496 0.134347406,0.805254894 0.134347406,0.731956891 C0.134347406,0.494410701 0.0731239688,0.454486037 0.0731239688,0.289338054 C0.0731239688,0.220242806 0.106061156,0.145623417 0.171336469,0.0949113093 L0.171336469,0.0976689319 C0.128191781,0.0852092824 0.100553344,0.0622988541 0.0846674063,0.0311699505 C0.183245531,0.00102576764 0.326533031,0.00157878843 0.403473656,0.0342233937 C0.491917406,0.0452686445 0.553651781,0.11844836 0.571839281,0.155584667 C0.590032406,0.192696709 0.625366781,0.326980673 0.571839281,0.447886992 C0.513257719,0.58020758 0.237048656,1.21179372 0.150929906,1.41034538 C0.132663656,1.45245786 0.121592719,1.49711707 0.121592719,1.54547656 C0.121592719,1.6671007 0.224905219,1.70956299 0.283583344,1.70956299 C0.353735531,1.70956299 0.425164594,1.65192751 0.425164594,1.5799519 C0.425164594,1.53434336 0.402204281,1.50687126 0.369042094,1.50687126 C0.289741781,1.50687126 0.294558656,1.57962029 0.310367719,1.62545227 C0.261014906,1.60152477 0.232327406,1.55880972 0.240215531,1.51376633 C0.212273344,1.5096392 0.185677406,1.49534579 0.161134594,1.46550592 C0.180445219,1.43920963 0.203998969,1.41933222 0.240215531,1.41862451 C0.224397094,1.34874472 0.267783656,1.31918996 0.310367719,1.30280356 C0.296895844,1.35409093 0.288052406,1.41311453 0.369042094,1.41311453 C0.428091469,1.41311453 0.474585844,1.42414562 0.501698344,1.46551198 C0.50329275,1.41035852 0.508075875,1.19248956 0.508075875,1.19248956 C0.511477219,1.11062125 0.40646025,1.11296173 0.33971025,1.13733509 C0.364901813,1.0430324 0.416565563,0.992043279 0.53613525,1.00496395 C0.507116813,0.99186433 0.476185875,0.962416731 0.476185875,0.905685088 C0.476204625,0.828919331 0.533955563,0.743873428 0.571867125,0.718729685 L0.590823375,1.51794078 L0.5908125,1.51792582 Z" id="op"></path>
                                </g>
                            </g>
                        </g>
                    </g>
                    <g id="oh-link" transform="translate(0.571875, 6.743416) scale(-1, 1) rotate(-180.000000) translate(-0.571875, -6.743416) translate(0.000000, 4.468651)">
                        <g id="oh">
                            <g id="oq">
                                <path d="M0.571875,0.191302733 C0.571875,0.191302733 0.481772813,0.10965179 0.45118125,0.150606671 C0.401968125,0.216477817 0.60249375,0.544575854 0.60249375,0.660113727 C0.60249375,0.849768519 0.485146875,0.901350093 0.340246875,0.928424858 C0.24301875,0.946603774 0.08469375,0.920822086 0.08469375,0.920822086 C0.1145025,0.877625804 0.133891875,0.864897226 0.184125,0.861444638 C0.128205,0.830135775 0.071259375,0.762175888 0.071259375,0.65637199 C0.071259375,0.493215691 0.13354125,0.425973619 0.13354125,0.242031017 C0.13354125,0.139990087 0.0559546875,0.0100959153 0.0559546875,0.0100959153 C0.193092188,0.0248970569 0.261060938,0.161837947 0.222389063,0.271279448 C0.244219688,0.274670567 0.264040313,0.269371374 0.281063438,0.251975281 C0.291100313,0.282310544 0.275256094,0.317520883 0.254031563,0.347856146 C0.271125,0.357706589 0.283679063,0.351799377 0.31090125,0.345738895 C0.30831975,0.376994175 0.290953125,0.410198676 0.248466563,0.441451933 C0.371757188,0.406932112 0.447619688,0.499602019 0.447619688,0.596611168 C0.447619688,0.669888951 0.400003125,0.722410761 0.353457188,0.722410761 C0.338415938,0.722410761 0.316321875,0.71573023 0.303855938,0.705696795 C0.295069219,0.725864361 0.299596969,0.752856224 0.308648531,0.773025813 C0.274534781,0.76330124 0.252882281,0.741453077 0.268295719,0.695974952 C0.242094469,0.693379192 0.221251031,0.683831748 0.207072281,0.665639689 C0.221437594,0.645799689 0.243229781,0.634372277 0.268295719,0.635304426 C0.249217594,0.5928482 0.270478594,0.569078416 0.301457906,0.549813679 C0.301457906,0.549813679 0.281756344,0.635302404 0.332071031,0.635302404 C0.354695719,0.635302404 0.375310406,0.627359832 0.375310406,0.591403471 C0.375310406,0.560092586 0.349927594,0.516720389 0.291255094,0.519478416 C0.232580719,0.522236139 0.185017594,0.563105387 0.185017594,0.664113068 C0.185017594,0.75728949 0.254705719,0.803632026 0.346539469,0.806624606 C0.429356344,0.80938233 0.491861344,0.761001907 0.491861344,0.668874911 C0.491861344,0.54625999 0.327723844,0.266767121 0.327723844,0.157497492 C0.327723844,0.075514939 0.396088219,0.029756765 0.462976969,0.029756765 C0.549712594,0.029756765 0.622895719,0.122377133 0.622895719,0.122377133 L0.571940719,0.191273211 L0.571875,0.191302733 Z" id="Shape"></path>
                                <path d="M0.5908125,2.40761192 C0.5908125,2.61254303 0.42020625,2.71786973 0.28614375,2.71786973 C0.105525,2.71786973 0.00935625,2.60141184 0.00935625,2.44896211 C0.00935625,2.36254629 0.0240384375,2.30832093 0.060988125,2.22561045 C0.060988125,2.22561045 0.358925625,1.55742586 0.4749225,1.29899226 C0.489388125,1.26675934 0.494055,1.23006687 0.494055,1.17627624 C0.494055,1.09320079 0.41933625,1.02530258 0.340989375,1.0232199 C0.269570625,1.02129363 0.191758125,1.09502364 0.191758125,1.17903629 C0.191758125,1.28107722 0.24084375,1.32657253 0.291245625,1.32657253 C0.353267813,1.32657253 0.37798125,1.29907517 0.37798125,1.25211288 C0.37798125,1.21939063 0.36332625,1.20523148 0.342267188,1.20523148 C0.289069688,1.20523148 0.30400125,1.28244815 0.30400125,1.28244815 C0.277579688,1.27621023 0.255874688,1.24709829 0.268287188,1.21074652 C0.24895875,1.2061056 0.23085375,1.19516387 0.216629063,1.17765323 C0.230889375,1.16274391 0.247247813,1.1512336 0.268287188,1.14731797 C0.25582875,1.10296307 0.272476594,1.08129113 0.308465625,1.07216982 C0.301203188,1.08923158 0.300953344,1.10492746 0.303363656,1.11974175 C0.360022406,1.10236658 0.446857406,1.13001661 0.446857406,1.2355627 C0.446857406,1.34035357 0.379418344,1.42859425 0.252973031,1.40654419 C0.283054594,1.42205405 0.298354594,1.45379057 0.301442719,1.48927691 C0.278482406,1.47962483 0.252973031,1.47824582 0.252973031,1.47824582 C0.267757406,1.5063599 0.288290531,1.53059171 0.287411156,1.58579673 C0.263968031,1.57430361 0.242198344,1.5530209 0.212156156,1.56649257 C0.259306781,1.6665499 0.201377719,1.80419041 0.0539905313,1.83675494 C0.107931469,1.7685696 0.134347406,1.694941 0.134347406,1.621643 C0.134347406,1.38409681 0.0731239688,1.34417214 0.0731239688,1.17902416 C0.0731239688,1.10992891 0.106061156,1.03530952 0.171336469,0.984597415 L0.171336469,0.987355037 C0.128191781,0.974895388 0.100553344,0.95198496 0.0846674063,0.920856056 C0.183245531,0.890711873 0.326533031,0.891264894 0.403473656,0.923909499 C0.491917406,0.93495475 0.553651781,1.00813447 0.571839281,1.04527077 C0.590032406,1.08238281 0.625366781,1.21666678 0.571839281,1.3375731 C0.513257719,1.46989369 0.237048656,2.10147983 0.150929906,2.30003148 C0.132663656,2.34214397 0.121592719,2.38680318 0.121592719,2.43516267 C0.121592719,2.5567868 0.224905219,2.5992491 0.283583344,2.5992491 C0.353735531,2.5992491 0.425164594,2.54161361 0.425164594,2.46963801 C0.425164594,2.42402946 0.402204281,2.39655737 0.369042094,2.39655737 C0.289741781,2.39655737 0.294558656,2.4693064 0.310367719,2.51513837 C0.261014906,2.49121087 0.232327406,2.44849583 0.240215531,2.40345244 C0.212273344,2.39932531 0.185677406,2.38503189 0.161134594,2.35519202 C0.180445219,2.32889573 0.203998969,2.30901832 0.240215531,2.30831062 C0.224397094,2.23843083 0.267783656,2.20887606 0.310367719,2.19248966 C0.296895844,2.24377703 0.288052406,2.30280063 0.369042094,2.30280063 C0.428091469,2.30280063 0.474585844,2.31383173 0.501698344,2.35519809 C0.50329275,2.30004463 0.508075875,2.08217566 0.508075875,2.08217566 C0.511477219,2.00030735 0.40646025,2.00264784 0.33971025,2.02702119 C0.364901813,1.93271851 0.416565563,1.88172938 0.53613525,1.89465005 C0.507116813,1.88155044 0.476185875,1.85210284 0.476185875,1.79537119 C0.476204625,1.71860544 0.533955563,1.63355953 0.571867125,1.60841579 L0.590823375,2.40762689 L0.5908125,2.40761192 Z" id="op"></path>
                                <g id="op-link" transform="translate(0.304688, 3.625269) scale(-1, 1) rotate(-180.000000) translate(-0.304688, -3.625269) translate(0.000000, 2.710307)">
                                    <path d="M0.5908125,1.51792582 C0.5908125,1.72285692 0.42020625,1.82818363 0.28614375,1.82818363 C0.105525,1.82818363 0.00935625,1.71172574 0.00935625,1.559276 C0.00935625,1.47286018 0.0240384375,1.41863483 0.060988125,1.33592435 C0.060988125,1.33592435 0.358925625,0.667739752 0.4749225,0.409306159 C0.489388125,0.377073236 0.494055,0.340380761 0.494055,0.286590137 C0.494055,0.203514686 0.41933625,0.135616471 0.340989375,0.133533796 C0.269570625,0.131607525 0.191758125,0.205337531 0.191758125,0.289350186 C0.191758125,0.391391116 0.24084375,0.436886428 0.291245625,0.436886428 C0.353267813,0.436886428 0.37798125,0.409389061 0.37798125,0.362426778 C0.37798125,0.329704528 0.36332625,0.315545375 0.342267188,0.315545375 C0.289069688,0.315545375 0.30400125,0.392762041 0.30400125,0.392762041 C0.277579688,0.386524129 0.255874688,0.357412184 0.268287188,0.321060418 C0.24895875,0.316419492 0.23085375,0.305477768 0.216629063,0.287967128 C0.230889375,0.273057809 0.247247813,0.261547495 0.268287188,0.257631865 C0.25582875,0.213276969 0.272476594,0.191605024 0.308465625,0.182483719 C0.301203188,0.199545472 0.300953344,0.215241355 0.303363656,0.23005564 C0.360022406,0.212680475 0.446857406,0.240330503 0.446857406,0.345876595 C0.446857406,0.450667464 0.379418344,0.538908149 0.252973031,0.516858088 C0.283054594,0.532367945 0.298354594,0.564104464 0.301442719,0.599590808 C0.278482406,0.589938724 0.252973031,0.588559711 0.252973031,0.588559711 C0.267757406,0.616673792 0.288290531,0.640905606 0.287411156,0.696110629 C0.263968031,0.684617502 0.242198344,0.663334795 0.212156156,0.676806463 C0.259306781,0.776863797 0.201377719,0.914504304 0.0539905313,0.947068837 C0.107931469,0.878883496 0.134347406,0.805254894 0.134347406,0.731956891 C0.134347406,0.494410701 0.0731239688,0.454486037 0.0731239688,0.289338054 C0.0731239688,0.220242806 0.106061156,0.145623417 0.171336469,0.0949113093 L0.171336469,0.0976689319 C0.128191781,0.0852092824 0.100553344,0.0622988541 0.0846674063,0.0311699505 C0.183245531,0.00102576764 0.326533031,0.00157878843 0.403473656,0.0342233937 C0.491917406,0.0452686445 0.553651781,0.11844836 0.571839281,0.155584667 C0.590032406,0.192696709 0.625366781,0.326980673 0.571839281,0.447886992 C0.513257719,0.58020758 0.237048656,1.21179372 0.150929906,1.41034538 C0.132663656,1.45245786 0.121592719,1.49711707 0.121592719,1.54547656 C0.121592719,1.6671007 0.224905219,1.70956299 0.283583344,1.70956299 C0.353735531,1.70956299 0.425164594,1.65192751 0.425164594,1.5799519 C0.425164594,1.53434336 0.402204281,1.50687126 0.369042094,1.50687126 C0.289741781,1.50687126 0.294558656,1.57962029 0.310367719,1.62545227 C0.261014906,1.60152477 0.232327406,1.55880972 0.240215531,1.51376633 C0.212273344,1.5096392 0.185677406,1.49534579 0.161134594,1.46550592 C0.180445219,1.43920963 0.203998969,1.41933222 0.240215531,1.41862451 C0.224397094,1.34874472 0.267783656,1.31918996 0.310367719,1.30280356 C0.296895844,1.35409093 0.288052406,1.41311453 0.369042094,1.41311453 C0.428091469,1.41311453 0.474585844,1.42414562 0.501698344,1.46551198 C0.50329275,1.41035852 0.508075875,1.19248956 0.508075875,1.19248956 C0.511477219,1.11062125 0.40646025,1.11296173 0.33971025,1.13733509 C0.364901813,1.0430324 0.416565563,0.992043279 0.53613525,1.00496395 C0.507116813,0.99186433 0.476185875,0.962416731 0.476185875,0.905685088 C0.476204625,0.828919331 0.533955563,0.743873428 0.571867125,0.718729685 L0.590823375,1.51794078 L0.5908125,1.51792582 Z" id="op"></path>
                                </g>
                            </g>
                            <g id="oq-link" transform="translate(0.829688, 2.274766) scale(-1, 1) translate(-0.829688, -2.274766) translate(0.515625, 0.000000)">
                                <g id="oq">
                                    <path d="M0.571875,0.191302733 C0.571875,0.191302733 0.481772812,0.10965179 0.45118125,0.150606671 C0.401968125,0.216477817 0.60249375,0.544575854 0.60249375,0.660113727 C0.60249375,0.849768519 0.485146875,0.901350093 0.340246875,0.928424858 C0.24301875,0.946603774 0.08469375,0.920822086 0.08469375,0.920822086 C0.1145025,0.877625804 0.133891875,0.864897226 0.184125,0.861444638 C0.128205,0.830135775 0.071259375,0.762175888 0.071259375,0.65637199 C0.071259375,0.493215691 0.13354125,0.425973619 0.13354125,0.242031017 C0.13354125,0.139990087 0.0559546875,0.0100959153 0.0559546875,0.0100959153 C0.193092188,0.0248970569 0.261060938,0.161837947 0.222389063,0.271279448 C0.244219688,0.274670567 0.264040313,0.269371374 0.281063438,0.251975281 C0.291100313,0.282310544 0.275256094,0.317520883 0.254031563,0.347856146 C0.271125,0.357706589 0.283679063,0.351799377 0.31090125,0.345738895 C0.30831975,0.376994175 0.290953125,0.410198676 0.248466563,0.441451933 C0.371757188,0.406932112 0.447619688,0.499602019 0.447619688,0.596611168 C0.447619688,0.669888951 0.400003125,0.722410761 0.353457188,0.722410761 C0.338415938,0.722410761 0.316321875,0.71573023 0.303855938,0.705696795 C0.295069219,0.725864361 0.299596969,0.752856224 0.308648531,0.773025813 C0.274534781,0.76330124 0.252882281,0.741453077 0.268295719,0.695974952 C0.242094469,0.693379192 0.221251031,0.683831748 0.207072281,0.665639689 C0.221437594,0.645799689 0.243229781,0.634372277 0.268295719,0.635304426 C0.249217594,0.5928482 0.270478594,0.569078416 0.301457906,0.549813679 C0.301457906,0.549813679 0.281756344,0.635302404 0.332071031,0.635302404 C0.354695719,0.635302404 0.375310406,0.627359832 0.375310406,0.591403471 C0.375310406,0.560092586 0.349927594,0.516720389 0.291255094,0.519478416 C0.232580719,0.522236139 0.185017594,0.563105387 0.185017594,0.664113068 C0.185017594,0.75728949 0.254705719,0.803632026 0.346539469,0.806624606 C0.429356344,0.80938233 0.491861344,0.761001907 0.491861344,0.668874911 C0.491861344,0.54625999 0.327723844,0.266767121 0.327723844,0.157497492 C0.327723844,0.075514939 0.396088219,0.029756765 0.462976969,0.029756765 C0.549712594,0.029756765 0.622895719,0.122377133 0.622895719,0.122377133 L0.571940719,0.191273211 L0.571875,0.191302733 Z" id="Shape"></path>
                                    <path d="M0.5908125,2.40761192 C0.5908125,2.61254303 0.42020625,2.71786973 0.28614375,2.71786973 C0.105525,2.71786973 0.00935625,2.60141184 0.00935625,2.44896211 C0.00935625,2.36254629 0.0240384375,2.30832093 0.060988125,2.22561045 C0.060988125,2.22561045 0.358925625,1.55742586 0.4749225,1.29899226 C0.489388125,1.26675934 0.494055,1.23006687 0.494055,1.17627624 C0.494055,1.09320079 0.41933625,1.02530258 0.340989375,1.0232199 C0.269570625,1.02129363 0.191758125,1.09502364 0.191758125,1.17903629 C0.191758125,1.28107722 0.24084375,1.32657253 0.291245625,1.32657253 C0.353267813,1.32657253 0.37798125,1.29907517 0.37798125,1.25211288 C0.37798125,1.21939063 0.36332625,1.20523148 0.342267188,1.20523148 C0.289069688,1.20523148 0.30400125,1.28244815 0.30400125,1.28244815 C0.277579688,1.27621023 0.255874688,1.24709829 0.268287188,1.21074652 C0.24895875,1.2061056 0.23085375,1.19516387 0.216629063,1.17765323 C0.230889375,1.16274391 0.247247813,1.1512336 0.268287188,1.14731797 C0.25582875,1.10296307 0.272476594,1.08129113 0.308465625,1.07216982 C0.301203188,1.08923158 0.300953344,1.10492746 0.303363656,1.11974175 C0.360022406,1.10236658 0.446857406,1.13001661 0.446857406,1.2355627 C0.446857406,1.34035357 0.379418344,1.42859425 0.252973031,1.40654419 C0.283054594,1.42205405 0.298354594,1.45379057 0.301442719,1.48927691 C0.278482406,1.47962483 0.252973031,1.47824582 0.252973031,1.47824582 C0.267757406,1.5063599 0.288290531,1.53059171 0.287411156,1.58579673 C0.263968031,1.57430361 0.242198344,1.5530209 0.212156156,1.56649257 C0.259306781,1.6665499 0.201377719,1.80419041 0.0539905313,1.83675494 C0.107931469,1.7685696 0.134347406,1.694941 0.134347406,1.621643 C0.134347406,1.38409681 0.0731239688,1.34417214 0.0731239688,1.17902416 C0.0731239688,1.10992891 0.106061156,1.03530952 0.171336469,0.984597415 L0.171336469,0.987355037 C0.128191781,0.974895388 0.100553344,0.95198496 0.0846674063,0.920856056 C0.183245531,0.890711873 0.326533031,0.891264894 0.403473656,0.923909499 C0.491917406,0.93495475 0.553651781,1.00813447 0.571839281,1.04527077 C0.590032406,1.08238281 0.625366781,1.21666678 0.571839281,1.3375731 C0.513257719,1.46989369 0.237048656,2.10147983 0.150929906,2.30003148 C0.132663656,2.34214397 0.121592719,2.38680318 0.121592719,2.43516267 C0.121592719,2.5567868 0.224905219,2.5992491 0.283583344,2.5992491 C0.353735531,2.5992491 0.425164594,2.54161361 0.425164594,2.46963801 C0.425164594,2.42402946 0.402204281,2.39655737 0.369042094,2.39655737 C0.289741781,2.39655737 0.294558656,2.4693064 0.310367719,2.51513837 C0.261014906,2.49121087 0.232327406,2.44849583 0.240215531,2.40345244 C0.212273344,2.39932531 0.185677406,2.38503189 0.161134594,2.35519202 C0.180445219,2.32889573 0.203998969,2.30901832 0.240215531,2.30831062 C0.224397094,2.23843083 0.267783656,2.20887606 0.310367719,2.19248966 C0.296895844,2.24377703 0.288052406,2.30280063 0.369042094,2.30280063 C0.428091469,2.30280063 0.474585844,2.31383173 0.501698344,2.35519809 C0.50329275,2.30004463 0.508075875,2.08217566 0.508075875,2.08217566 C0.511477219,2.00030735 0.40646025,2.00264784 0.33971025,2.02702119 C0.364901813,1.93271851 0.416565563,1.88172938 0.53613525,1.89465005 C0.507116813,1.88155044 0.476185875,1.85210284 0.476185875,1.79537119 C0.476204625,1.71860544 0.533955563,1.63355953 0.571867125,1.60841579 L0.590823375,2.40762689 L0.5908125,2.40761192 Z" id="op"></path>
                                    <g id="op-link" transform="translate(0.304688, 3.625269) scale(-1, 1) rotate(-180.000000) translate(-0.304688, -3.625269) translate(0.000000, 2.710307)">
                                        <path d="M0.5908125,1.51792582 C0.5908125,1.72285692 0.42020625,1.82818363 0.28614375,1.82818363 C0.105525,1.82818363 0.00935625,1.71172574 0.00935625,1.559276 C0.00935625,1.47286018 0.0240384375,1.41863483 0.060988125,1.33592435 C0.060988125,1.33592435 0.358925625,0.667739752 0.4749225,0.409306159 C0.489388125,0.377073236 0.494055,0.340380761 0.494055,0.286590137 C0.494055,0.203514686 0.41933625,0.135616471 0.340989375,0.133533796 C0.269570625,0.131607525 0.191758125,0.205337531 0.191758125,0.289350186 C0.191758125,0.391391116 0.24084375,0.436886428 0.291245625,0.436886428 C0.353267813,0.436886428 0.37798125,0.409389061 0.37798125,0.362426778 C0.37798125,0.329704528 0.36332625,0.315545375 0.342267188,0.315545375 C0.289069688,0.315545375 0.30400125,0.392762041 0.30400125,0.392762041 C0.277579688,0.386524129 0.255874688,0.357412184 0.268287188,0.321060418 C0.24895875,0.316419492 0.23085375,0.305477768 0.216629063,0.287967128 C0.230889375,0.273057809 0.247247813,0.261547495 0.268287188,0.257631865 C0.25582875,0.213276969 0.272476594,0.191605024 0.308465625,0.182483719 C0.301203188,0.199545472 0.300953344,0.215241355 0.303363656,0.23005564 C0.360022406,0.212680475 0.446857406,0.240330503 0.446857406,0.345876595 C0.446857406,0.450667464 0.379418344,0.538908149 0.252973031,0.516858088 C0.283054594,0.532367945 0.298354594,0.564104464 0.301442719,0.599590808 C0.278482406,0.589938724 0.252973031,0.588559711 0.252973031,0.588559711 C0.267757406,0.616673792 0.288290531,0.640905606 0.287411156,0.696110629 C0.263968031,0.684617502 0.242198344,0.663334795 0.212156156,0.676806463 C0.259306781,0.776863797 0.201377719,0.914504304 0.0539905313,0.947068837 C0.107931469,0.878883496 0.134347406,0.805254894 0.134347406,0.731956891 C0.134347406,0.494410701 0.0731239688,0.454486037 0.0731239688,0.289338054 C0.0731239688,0.220242806 0.106061156,0.145623417 0.171336469,0.0949113093 L0.171336469,0.0976689319 C0.128191781,0.0852092824 0.100553344,0.0622988541 0.0846674063,0.0311699505 C0.183245531,0.00102576764 0.326533031,0.00157878843 0.403473656,0.0342233937 C0.491917406,0.0452686445 0.553651781,0.11844836 0.571839281,0.155584667 C0.590032406,0.192696709 0.625366781,0.326980673 0.571839281,0.447886992 C0.513257719,0.58020758 0.237048656,1.21179372 0.150929906,1.41034538 C0.132663656,1.45245786 0.121592719,1.49711707 0.121592719,1.54547656 C0.121592719,1.6671007 0.224905219,1.70956299 0.283583344,1.70956299 C0.353735531,1.70956299 0.425164594,1.65192751 0.425164594,1.5799519 C0.425164594,1.53434336 0.402204281,1.50687126 0.369042094,1.50687126 C0.289741781,1.50687126 0.294558656,1.57962029 0.310367719,1.62545227 C0.261014906,1.60152477 0.232327406,1.55880972 0.240215531,1.51376633 C0.212273344,1.5096392 0.185677406,1.49534579 0.161134594,1.46550592 C0.180445219,1.43920963 0.203998969,1.41933222 0.240215531,1.41862451 C0.224397094,1.34874472 0.267783656,1.31918996 0.310367719,1.30280356 C0.296895844,1.35409093 0.288052406,1.41311453 0.369042094,1.41311453 C0.428091469,1.41311453 0.474585844,1.42414562 0.501698344,1.46551198 C0.50329275,1.41035852 0.508075875,1.19248956 0.508075875,1.19248956 C0.511477219,1.11062125 0.40646025,1.11296173 0.33971025,1.13733509 C0.364901813,1.0430324 0.416565563,0.992043279 0.53613525,1.00496395 C0.507116813,0.99186433 0.476185875,0.962416731 0.476185875,0.905685088 C0.476204625,0.828919331 0.533955563,0.743873428 0.571867125,0.718729685 L0.590823375,1.51794078 L0.5908125,1.51792582 Z" id="op"></path>
                                    </g>
                                </g>
                            </g>
                        </g>
                    </g>
                </g>
            </g>
        </g>
    </g>
</svg>