<svg width="12px" height="10px" viewBox="0 0 12 10" version="1.1" xmlns="http://www.w3.org/2000/svg" xmlns:xlink="http://www.w3.org/1999/xlink" id="icon_photo">
    <!-- Generator: sketchtool 48.2 (47327) - http://www.bohemiancoding.com/sketch -->
    <title>8D299A27-411A-4811-9732-F13FD5CE128B</title>
    <desc>Created with sketchtool.</desc>
    <defs></defs>
    <g id="Symbols" stroke="none" stroke-width="1" fill="none" fill-rule="evenodd">
        <g id="ico/photo/white" fill="#FFFFFF" fill-rule="nonzero">
            <g id="ico/photo-white">
                <path d="M11.2111012,1.98922298 C10.907242,1.68877148 10.5407252,1.53850364 10.1112955,1.53850364 L8.75017556,1.53850364 L8.44033576,0.721260406 C8.3633334,0.52497974 8.22263063,0.35568372 8.01795077,0.213393393 C7.81335605,0.0711662124 7.60373851,0 7.38901302,0 L4.27782388,0 C4.06311967,0 3.85345956,0.0711662124 3.64886484,0.213393393 C3.44427011,0.35568372 3.30354606,0.52497974 3.22656498,0.721260406 L2.91668262,1.53850364 L1.55556265,1.53850364 C1.12609038,1.53850364 0.759552322,1.68877148 0.455693084,1.98922298 C0.151897695,2.28969553 0,2.65224118 0,3.07694413 L0,8.46151741 C0,8.88624141 0.151897695,9.24882916 0.455693084,9.54921751 C0.759552322,9.84973215 1.12611166,10 1.55556265,10 L10.1111466,10 C10.5405763,10 10.9070717,9.84973215 11.2109523,9.54921751 C11.5147264,9.24882916 11.6666666,8.88624141 11.6666666,8.46151741 L11.6666666,3.07694413 C11.6667518,2.65224118 11.5148115,2.28969553 11.2111012,1.98922298 Z M7.75655138,7.67132197 C7.22385593,8.19817506 6.58285064,8.46166475 5.83336524,8.46166475 C5.08387984,8.46166475 4.44291711,8.19817506 3.9101791,7.67132197 C3.37744109,7.14455308 3.11112529,6.51045602 3.11112529,5.76938864 C3.11112529,5.02808971 3.37752622,4.39420314 3.9101791,3.867329 C4.44285326,3.34045487 5.08390112,3.07707042 5.83336524,3.07707042 C6.58282936,3.07707042 7.22385593,3.34051801 7.75655138,3.867329 C8.28926811,4.39414 8.55562647,5.02808971 8.55562647,5.76938864 C8.55562647,6.51045602 8.28928939,7.14448993 7.75655138,7.67132197 Z" id="Shape"></path>
                <path d="M5.83333333,4.16666667 C5.3742237,4.16666667 4.98167696,4.3296717 4.65567284,4.6557223 C4.32966873,4.98173237 4.16666667,5.37422546 4.16666667,5.83344481 C4.16666667,6.29248174 4.32966873,6.68503564 4.65567284,7.01104571 C4.98167696,7.33699497 5.37420343,7.5 5.83333333,7.5 C6.29238216,7.5 6.68496943,7.33699497 7.01097355,7.01104571 C7.33697767,6.68503564 7.5,6.29250201 7.5,5.83344481 C7.5,5.37424573 7.33697767,4.98175264 7.01097355,4.6557223 C6.6849897,4.32969197 6.29238216,4.16666667 5.83333333,4.16666667 Z" id="Shape"></path>
            </g>
        </g>
    </g>
</svg>