<?xml version="1.0" encoding="UTF-8"?>
<svg width="8px" height="17px" viewBox="0 0 8 17" version="1.1" xmlns="http://www.w3.org/2000/svg" xmlns:xlink="http://www.w3.org/1999/xlink" id="icon_fb">
    <!-- Generator: sketchtool 48.2 (47327) - http://www.bohemiancoding.com/sketch -->
    <title>6E719D1A-5E82-45E2-9A68-951A09F79A44</title>
    <desc>Created with sketchtool.</desc>
    <defs></defs>
    <g id="18-vote-1400" stroke="none" stroke-width="1" fill="none" fill-rule="evenodd" transform="translate(-550.000000, -540.000000)">
        <g id="table1" transform="translate(80.000000, 420.000000)" fill="#13B5EA">
            <g id="1_inpage/vote/!template" transform="translate(0.000000, 113.000000)">
                <g id="btn/match_page-play" transform="translate(445.000000, 0.000000)">
                    <g id="soc" transform="translate(25.000000, 7.000000)">
                        <g id="ico/soc/blue/fb" transform="translate(0.141667, 0.000000)">
                            <g id="Facebook">
                                <path d="M1.72915774,3.29235873 C1.72915774,3.72076575 1.72915774,5.63292584 1.72915774,5.63292584 L0,5.63292584 L0,8.49498038 L1.72915774,8.49498038 L1.72915774,17 L5.28121481,17 L5.28121481,8.49521752 L7.66481004,8.49521752 C7.66481004,8.49521752 7.88804416,7.12288427 7.99625352,5.62237278 C7.68601349,5.62237278 5.29464633,5.62237278 5.29464633,5.62237278 C5.29464633,5.62237278 5.29464633,3.95732042 5.29464633,3.66547085 C5.29464633,3.3729889 5.68192824,2.97956114 6.06470641,2.97956114 C6.44676717,2.97956114 7.25313618,2.97956114 8,2.97956114 C8,2.58988822 8,1.24348309 8,0 C7.00295932,0 5.86865416,0 5.36865914,0 C1.64135471,-0.000197622945 1.72915774,2.86470268 1.72915774,3.29235873 Z" fill-rule="nonzero"></path>
                            </g>
                        </g>
                    </g>
                </g>
            </g>
        </g>
    </g>
</svg>