<?xml version="1.0" encoding="UTF-8"?>
<svg width="120px" height="120px" viewBox="0 0 300 300" version="1.1" xmlns="http://www.w3.org/2000/svg" xmlns:xlink="http://www.w3.org/1999/xlink" id="icon_team-logo">
    <!-- Generator: sketchtool 48.2 (47327) - http://www.bohemiancoding.com/sketch -->
    <title>773DBEC9-4A82-4114-BC65-C8B9A090E358</title>
    <desc>Created with sketchtool.</desc>
    <defs></defs>
    <g id="Symbols" stroke="none" stroke-width="1" fill="none" fill-rule="evenodd">
        <g id="logo_team/Автомобилист">
            <g id="Group" transform="translate(0.000000, 53.000000)">
                <path d="M222.981818,96.6163636 C222.981818,137.236364 190.052727,170.165455 149.432727,170.165455 C108.818182,170.165455 75.8890909,137.236364 75.8890909,96.6163636 C75.8890909,55.9963636 108.818182,23.0672727 149.432727,23.0672727 C190.052727,23.0672727 222.981818,55.9963636 222.981818,96.6163636" id="Fill-103" fill="#FFFFFE"></path>
                <path d="M228.469091,98.0618182 L228.501818,96.6327273 C228.501818,94.7236364 228.409091,92.8418182 228.283636,90.9709091 C267.376364,83.9781818 286.767273,63.3436364 294.965455,34.9636364 C294.965455,34.9636364 269.58,56.8090909 221.585455,63.9763636 C211.129091,40.4672727 189.747273,22.9472727 163.936364,18.0218182 L163.025455,17.8527273 L166.156364,29.6236364 C195.807273,37.2818182 217.729091,64.3745455 217.729091,96.6327273 C217.729091,134.830909 186.987273,165.796364 149.050909,165.796364 C111.12,165.796364 80.3672727,134.830909 80.3672727,96.6327273 C80.3727273,64.3745455 102.289091,37.2818182 131.94,29.6236364 L135.076364,17.8527273 L134.105455,18.0327273 C108.36,22.9745455 87.0272727,40.4290909 76.5654545,63.8781818 C29.0290909,56.6072727 3.9,34.9636364 3.9,34.9636364 C12.0436364,63.1636364 31.2327273,83.7272727 69.8290909,90.84 C69.6927273,92.76 69.6,94.68 69.6,96.6327273 L69.6327273,97.9145455 C45.5236364,93.1854545 28.1836364,85.2654545 17.6345455,74.16 C23.6345455,99.3109091 42.36,115.336364 73.7727273,122.209091 C74.5854545,124.630909 75.5072727,126.992727 76.5327273,129.3 C58.8163636,127.096364 44.8909091,121.909091 34.8,113.732727 C41.9945455,135.796364 61.1945455,146.307273 88.8,148.750909 C103.374545,165.818182 124.952727,176.645455 149.050909,176.645455 C173.121818,176.645455 194.667273,165.850909 209.241818,148.821818 C237.289091,146.514545 256.8,136.014545 264.065455,113.732727 C253.816364,122.029091 239.629091,127.249091 221.530909,129.409091 C222.550909,127.123636 223.461818,124.783636 224.274545,122.389091 C256.183636,115.603636 275.170909,99.5290909 281.230909,74.16 C270.567273,85.3745455 252.970909,93.3381818 228.469091,98.0618182" id="Fill-104" fill="#D8232A"></path>
                <path d="M149.050909,3.06 C112.38,3.06 80.6781818,24.4581818 65.5690909,55.5381818 C70.5109091,56.6290909 74.6672727,57.1418182 79.6527273,57.7145455 C91.0581818,37.1236364 111.218182,22.1236364 135.076364,17.8527273 L101.661818,143.427273 L128.830909,143.427273 L132.261818,128.901818 L165.834545,128.901818 L169.270909,143.427273 L196.434545,143.427273 L163.02,17.8472727 C187.052727,22.1509091 207.332727,37.3418182 218.694545,58.1563636 C223.385455,57.3981818 227.950909,56.6945455 232.603636,55.68 C217.521818,24.5290909 185.781818,3.06 149.050909,3.06 Z M137.345455,107.389091 L149.050909,57.8290909 L160.756364,107.389091 L137.345455,107.389091 Z M202.565455,155.683636 C188.443636,168.676364 169.674545,176.618182 149.045455,176.618182 C128.012727,176.618182 108.9,168.365455 94.6909091,154.925455 C87.7636364,154.930909 81.6763636,154.363636 74.8690909,152.945455 C91.8272727,175.554545 118.74,190.172727 149.045455,190.172727 C179.263636,190.172727 206.105455,175.630909 223.074545,153.125455 C216.621818,154.418182 209.138182,155.345455 202.565455,155.683636 Z" id="Fill-105" fill="#1A1919"></path>
            </g>
        </g>
    </g>
</svg>