<?xml version="1.0" encoding="UTF-8"?>
<svg width="21px" height="12px" viewBox="0 0 21 12" version="1.1" xmlns="http://www.w3.org/2000/svg" xmlns:xlink="http://www.w3.org/1999/xlink" id="icon_vk">
    <!-- Generator: sketchtool 48.2 (47327) - http://www.bohemiancoding.com/sketch -->
    <title>660C388C-288D-4AD8-A092-50E1903E6A9E</title>
    <desc>Created with sketchtool.</desc>
    <defs></defs>
    <g id="18-vote-1400" stroke="none" stroke-width="1" fill="none" fill-rule="evenodd" transform="translate(-572.000000, -543.000000)">
        <g id="table1" transform="translate(80.000000, 420.000000)" fill="#13B5EA">
            <g id="1_inpage/vote/!template" transform="translate(0.000000, 113.000000)">
                <g id="btn/match_page-play" transform="translate(445.000000, 0.000000)">
                    <g id="soc" transform="translate(25.000000, 7.000000)">
                        <g id="ico/soc/blue/vk" transform="translate(22.791667, 3.400000)">
                            <g id="XMLID_807_">
                                <path d="M17.2128498,6.99430117 C17.8762748,7.62381254 18.5764983,8.21609097 19.1715174,8.90908355 C19.4343641,9.21703768 19.6832141,9.53482693 19.8735808,9.8922121 C20.1433272,10.4002534 19.8990113,10.9593223 19.43029,10.9896579 L16.5166348,10.9883806 C15.7651562,11.0489879 15.1656687,10.7549563 14.6615945,10.2556005 C14.2581906,9.85625644 13.8846198,9.43123887 13.4967238,9.0184194 C13.3377016,8.84968966 13.1712539,8.69092277 12.9724104,8.56542923 C12.5746577,8.31450601 12.2294086,8.39133488 12.002112,8.79451082 C11.7706098,9.20458412 11.7181062,9.65865999 11.69537,10.1156736 C11.6641569,10.7824818 11.4567709,10.9577896 10.767587,10.9883168 C9.29472572,11.0558214 7.8969072,10.8392573 6.598379,10.1171425 C5.45355039,9.48054219 4.5657858,8.58184238 3.79308234,7.56441865 C2.28861379,5.58328115 1.13649118,3.40633541 0.101006776,1.16839917 C-0.132072497,0.664189742 0.0383835596,0.393532422 0.610797867,0.383952762 C1.56131709,0.366006866 2.51170489,0.367284154 3.46334121,0.382675474 C3.84966009,0.388167812 4.10540988,0.603518563 4.25457536,0.958221431 C4.76883485,2.18716405 5.39808974,3.35639345 6.18794395,4.44017229 C6.39828698,4.72871164 6.61276986,5.01725099 6.91819767,5.22033978 C7.25608705,5.44520632 7.51334822,5.37067657 7.67230473,5.0048613 C7.77317214,4.7729058 7.81733037,4.52306828 7.84006661,4.27463577 C7.91537218,3.41993853 7.92529464,2.56671016 7.79321419,1.71501455 C7.712126,1.18347116 7.40406972,0.839369786 6.85833435,0.738783359 C6.57984831,0.687500247 6.62131237,0.586786091 6.75615271,0.432298112 C6.99034908,0.165855842 7.21061458,0 7.64969992,0 L10.9425771,0 C11.4609764,0.099436868 11.5761033,0.325772295 11.6470719,0.832727888 L11.6498975,4.38761189 C11.6442463,4.58386718 11.7507649,5.16624663 12.1144789,5.29614682 C12.4055816,5.38862246 12.5974597,5.16228704 12.7721213,4.98289194 C13.5605298,4.1696427 14.1232188,3.20854737 14.625913,2.21334845 C14.8490041,1.77574959 15.0408165,1.32129053 15.2267148,0.867214664 C15.3644464,0.530266098 15.5805721,0.364474121 15.9710965,0.371818526 L19.1403044,0.374564696 C19.2342721,0.374564696 19.3293568,0.375905848 19.4203675,0.39104171 C19.9544062,0.479493902 20.1007461,0.702763838 19.9358098,1.2095917 C19.6759202,2.00476732 19.1702689,2.66742432 18.6758543,3.33314681 C18.1473354,4.0438937 17.5820837,4.73030825 17.0579674,5.44527019 C16.5764324,6.09815593 16.6146766,6.42724917 17.2128498,6.99430117 Z"></path>
                            </g>
                        </g>
                    </g>
                </g>
            </g>
        </g>
    </g>
</svg>