<?xml version="1.0" encoding="UTF-8"?>
<svg width="9px" height="13px" viewBox="0 0 9 13" version="1.1" xmlns="http://www.w3.org/2000/svg" xmlns:xlink="http://www.w3.org/1999/xlink" id="icon_point-blue">
    <!-- Generator: sketchtool 48.2 (47327) - http://www.bohemiancoding.com/sketch -->
    <title>5B7A3AF0-7BE2-4E46-9433-CAA04F92CE26</title>
    <desc>Created with sketchtool.</desc>
    <defs></defs>
    <g id="1_inpage/program/1400" stroke="none" stroke-width="1" fill="none" fill-rule="evenodd" transform="translate(-813.000000, -5.000000)">
        <g id="ico/gps" transform="translate(813.000000, 5.000000)" fill="#13b5ea" fill-rule="nonzero">
            <path d="M4.50094052,0 C2.01534089,0 0,1.96408189 0,4.38697862 C0,5.62648002 1.23922585,7.84709958 1.23922585,7.84709958 L4.33503323,13 L7.56514651,7.90726596 C7.56514651,7.90726596 9,5.78852324 9,4.38697862 C9.00037621,1.96408189 6.98541153,0 4.50094052,0 Z M4.49985922,6.38447104 C3.4344217,6.38447104 2.57142857,5.53773743 2.57142857,4.49126862 C2.57142857,3.44618109 3.43414014,2.6 4.49985922,2.6 C5.56473361,2.6 6.42857143,3.44618109 6.42857143,4.49126862 C6.42857143,5.53773743 5.56473361,6.38447104 4.49985922,6.38447104 Z" id="Shape"></path>
        </g>
    </g>
</svg>