<?xml version="1.0" encoding="UTF-8"?>
<svg width="25px" height="25px" viewBox="0 0 80 80" version="1.1" xmlns="http://www.w3.org/2000/svg" xmlns:xlink="http://www.w3.org/1999/xlink" id="logo-ska">
    <!-- Generator: sketchtool 48.2 (47327) - http://www.bohemiancoding.com/sketch -->
    <title>C222667F-7BA4-4316-AB60-1088BDCDA927</title>
    <desc>Created with sketchtool.</desc>
    <defs></defs>
    <g id="Symbols" stroke="none" stroke-width="1" fill="none" fill-rule="evenodd">
        <g id="logo_team/logo-template">
            <g id="logo_team/Салават">
                <g id="Group" transform="translate(0.533333, 15.733333)">
                    <polyline id="Fill-8609" fill="#FFFFFE" points="79.4245614 40.3477193 64.6245614 23.9119298 61.2750877 23.9119298 39.7614035 0.0171929825 18.2477193 23.9119298 14.8982456 23.9119298 0.098245614 40.3498246 79.4245614 40.3477193"></polyline>
                    <path d="M40.8782456,3.11087719 L39.7614035,1.87087719 L36.9698246,4.97087719 L38.0866667,6.21087719 L40.8782456,3.11087719 Z M39.7614035,8.07087719 L42.5529825,4.97087719 L41.4361404,3.73087719 L38.6445614,6.83087719 L39.7614035,8.07087719 Z M24.3824561,25.1508772 L25.4992982,25.1508772 L32.3992982,17.4877193 C31.9277193,18.4561404 31.4235088,19.6361404 31.4235088,19.6361404 L32.0687719,20.3350877 L27.7329825,25.1508772 L28.8498246,25.1508772 L32.0414035,21.605614 L32.8014035,22.4761404 C32.7077193,22.8045614 32.5161404,23.297193 32.3666667,23.7245614 L26.8540351,29.8466667 L11.2224561,29.8466667 L15.4508772,25.1508772 L18.8003509,25.1508772 L32.7908772,9.61192982 L32.7908772,12.0919298 L21.0329825,25.1508772 L22.1498246,25.1508772 L33.0603509,13.0329825 C33.597193,13.6750877 33.6529825,14.5603509 33.4835088,15.0435088 L24.3824561,25.1508772 Z" id="Fill-8610" fill="#2A366F"></path>
                    <path d="M55.1403509,25.1498246 L59.3687719,29.8466667 L61.6014035,29.8466667 L57.3729825,25.1498246 L55.1403509,25.1498246 Z M58.4898246,25.1498246 L62.7182456,29.8466667 L64.9508772,29.8466667 L60.7235088,25.1498246 L58.4898246,25.1498246 Z M33.6203509,9.93087719 L33.6203509,12.4119298 C34.4614035,13.3350877 34.5677193,14.7035088 34.1940351,15.4950877 L32.1529825,19.4066667 L33.6645614,19.4066667 L33.0624561,20.4719298 L33.6329825,21.1066667 L33.2466667,21.7866667 L33.6203509,22.3319298 L33.0424561,24.3203509 L36.2992982,24.3203509 L39.2035088,23.5708772 L40.6087719,25.1498246 L47.3245614,25.1498246 L33.6203509,9.93087719 Z M54.9024561,29.8466667 L34.737193,7.45087719 L33.6203509,8.69087719 L52.6698246,29.8466667 L54.9024561,29.8466667 Z M58.2519298,29.8466667 L36.4119298,5.58982456 L35.2950877,6.83087719 L56.0192982,29.8466667 L58.2519298,29.8466667 Z M64.0729825,25.1498246 L68.3014035,29.8466667 L66.0687719,29.8466667 L61.8392982,25.1498246 L64.0729825,25.1498246 Z" id="Fill-8611" fill="#C8A564"></path>
                    <polyline id="Fill-8612" fill="#2A366F" points="76.6392982 39.1077193 2.88140351 39.1098246 10.4750877 30.6761404 69.0487719 30.6761404 76.6392982 39.1077193"></polyline>
                    <path d="M26.8540351,29.8424561 L51.5529825,29.8424561 L47.3245614,25.1498246 L31.0824561,25.1498246 L26.8540351,29.8424561 Z M41.437193,7.45087719 L40.3203509,8.69087719 L55.1403509,25.1498246 L57.3740351,25.1498246 L41.437193,7.45087719 Z M60.7235088,25.1498246 L58.4898246,25.1498246 L41.9950877,6.83192982 L43.1119298,5.58982456 L60.7235088,25.1498246 Z" id="Fill-8613" fill="#009949"></path>
                    <path d="M15.3992982,33.9508772 C15.265614,33.837193 15.1298246,33.7624561 14.9908772,33.7245614 C14.8519298,33.6877193 14.7182456,33.6687719 14.5887719,33.6687719 L14.3540351,33.7045614 L14.1424561,33.8129825 L13.9877193,34.0066667 C13.9466667,34.0877193 13.925614,34.185614 13.925614,34.3035088 L13.925614,35.4487719 C13.925614,35.565614 13.9466667,35.665614 13.9877193,35.7445614 L14.145614,35.9382456 L14.3603509,36.0466667 L14.5950877,36.0824561 C14.7203509,36.0824561 14.8498246,36.0645614 14.9824561,36.0266667 C15.1150877,35.9887719 15.2561404,35.9140351 15.405614,35.8014035 L15.845614,36.5277193 C15.6814035,36.6645614 15.4877193,36.7687719 15.2666667,36.8361404 C15.045614,36.9045614 14.8161404,36.9403509 14.577193,36.9403509 C14.3898246,36.9403509 14.2003509,36.9140351 14.0108772,36.8624561 C13.8214035,36.8129825 13.6508772,36.7340351 13.5003509,36.6277193 C13.3498246,36.5224561 13.2266667,36.3877193 13.1329825,36.225614 C13.0403509,36.0645614 12.9919298,35.8708772 12.9919298,35.6477193 L12.9919298,34.1214035 C12.9919298,33.8982456 13.0382456,33.705614 13.1298246,33.5435088 C13.2224561,33.3803509 13.3424561,33.245614 13.4908772,33.1382456 C13.6403509,33.0298246 13.8077193,32.9508772 13.9929825,32.897193 C14.1792982,32.8445614 14.3677193,32.8192982 14.5592982,32.8192982 C14.7982456,32.8192982 15.0329825,32.8508772 15.2635088,32.9182456 C15.4950877,32.9845614 15.6908772,33.0877193 15.8508772,33.2287719 L15.3992982,33.9508772" id="Fill-8614" fill="#FFFFFE"></path>
                    <path d="M18.117193,35.3361404 L18.9508772,35.3361404 L18.8698246,35.0603509 L18.545614,33.945614 L18.5235088,33.945614 L18.1992982,35.0603509 L18.117193,35.3361404 Z M19.185614,36.1003509 L17.8835088,36.1003509 L17.6424561,36.8982456 L16.6382456,36.8982456 L18.0645614,32.8540351 L19.0277193,32.8540351 L20.4308772,36.8982456 L19.4319298,36.8982456 L19.185614,36.1003509 Z" id="Fill-8615" fill="#FFFFFE"></path>
                    <path d="M22.7192982,33.6929825 L22.7192982,34.6561404 C22.7192982,34.9719298 22.7024561,35.2687719 22.6698246,35.5414035 C22.6361404,35.8150877 22.5666667,36.057193 22.4614035,36.2645614 C22.3550877,36.4708772 22.2024561,36.6382456 22.0003509,36.7635088 C21.7982456,36.8887719 21.5277193,36.9592982 21.1877193,36.9750877 L21.0466667,36.2235088 C21.2308772,36.1761404 21.3740351,36.1108772 21.4750877,36.025614 C21.577193,35.9414035 21.6519298,35.8392982 21.7014035,35.7150877 C21.7498246,35.5908772 21.7792982,35.4477193 21.7887719,35.2803509 C21.7982456,35.1140351 21.8035088,34.9245614 21.8035088,34.7077193 L21.8035088,32.8540351 L24.557193,32.8540351 L24.557193,36.8982456 L23.6119298,36.8982456 L23.6119298,33.6929825 L22.7192982,33.6929825" id="Fill-8616" fill="#FFFFFE"></path>
                    <path d="M27.0340351,35.3361404 L27.8677193,35.3361404 L27.785614,35.0603509 L27.4624561,33.945614 L27.4392982,33.945614 L27.1161404,35.0603509 L27.0340351,35.3361404 Z M28.1024561,36.1003509 L26.7992982,36.1003509 L26.5582456,36.8982456 L25.5550877,36.8982456 L26.9814035,32.8540351 L27.9435088,32.8540351 L29.3466667,36.8982456 L28.3487719,36.8982456 L28.1024561,36.1003509 Z" id="Fill-8617" fill="#FFFFFE"></path>
                    <path d="M32.4814035,35.6540351 C32.4814035,35.5287719 32.4466667,35.4224561 32.3729825,35.3361404 C32.3003509,35.2498246 32.1835088,35.2066667 32.017193,35.2066667 L31.2719298,35.2066667 L31.2719298,36.0698246 L32.017193,36.0698246 C32.1708772,36.0698246 32.285614,36.0319298 32.3645614,35.9550877 C32.4424561,35.8803509 32.4814035,35.7782456 32.4814035,35.6540351 M32.4403509,34.0687719 C32.4403509,33.9550877 32.4077193,33.8624561 32.3403509,33.7887719 C32.2740351,33.717193 32.1529825,33.6814035 31.977193,33.6814035 L31.2719298,33.6814035 L31.2719298,34.4140351 L31.977193,34.4140351 C32.1424561,34.4140351 32.2592982,34.3835088 32.3319298,34.317193 C32.405614,34.2540351 32.4403509,34.1708772 32.4403509,34.0687719 M33.485614,35.6887719 C33.485614,35.8603509 33.4603509,36.0214035 33.4098246,36.1666667 C33.3582456,36.3140351 33.2824561,36.4424561 33.1835088,36.5519298 C33.0845614,36.6614035 32.9603509,36.745614 32.8129825,36.8077193 C32.6677193,36.8666667 32.497193,36.8982456 32.305614,36.8982456 L30.3403509,36.8982456 L30.3403509,32.8540351 L32.2298246,32.8540351 C32.4403509,32.8540351 32.6214035,32.8835088 32.7687719,32.9445614 C32.9182456,33.0045614 33.0414035,33.085614 33.1361404,33.1877193 C33.2319298,33.2908772 33.3024561,33.4066667 33.345614,33.5392982 C33.3887719,33.6729825 33.4098246,33.8140351 33.4098246,33.9624561 L33.377193,34.185614 L33.2824561,34.4140351 L33.1287719,34.6203509 L32.9098246,34.7729825 C33.0077193,34.8203509 33.0929825,34.8803509 33.1666667,34.9529825 L33.345614,35.1877193 L33.4498246,35.445614 L33.485614,35.6887719" id="Fill-8618" fill="#FFFFFE"></path>
                    <path d="M35.8277193,35.3361404 L36.6614035,35.3361404 L36.5792982,35.0603509 L36.2561404,33.945614 L36.2329825,33.945614 L35.9098246,35.0603509 L35.8277193,35.3361404 Z M36.8961404,36.1003509 L35.5929825,36.1003509 L35.3519298,36.8982456 L34.3487719,36.8982456 L35.7750877,32.8540351 L36.737193,32.8540351 L38.1403509,36.8982456 L37.1424561,36.8982456 L36.8961404,36.1003509 Z" id="Fill-8619" fill="#FFFFFE"></path>
                    <polyline id="Fill-8620" fill="#FFFFFE" points="40.6245614 33.6929825 40.6245614 36.8982456 39.6898246 36.8982456 39.6898246 33.6929825 38.6635088 33.6929825 38.6635088 32.8540351 41.645614 32.8540351 41.645614 33.6929825 40.6245614 33.6929825"></polyline>
                    <path d="M48.2382456,34.3035088 C48.2382456,34.1866667 48.2203509,34.0877193 48.1877193,34.0066667 L48.0592982,33.8129825 L47.8698246,33.7045614 L47.6498246,33.6698246 L47.4277193,33.7045614 L47.2403509,33.8129825 L47.1077193,34.0066667 C47.0750877,34.0877193 47.057193,34.1866667 47.057193,34.3035088 L47.057193,35.4477193 C47.057193,35.565614 47.0750877,35.6645614 47.1077193,35.7445614 L47.2403509,35.937193 L47.4277193,36.0466667 L47.6498246,36.0824561 L47.8698246,36.0466667 L48.0592982,35.937193 L48.1877193,35.7445614 C48.2203509,35.6645614 48.2382456,35.565614 48.2382456,35.4477193 L48.2382456,34.3035088 Z M49.1719298,35.6182456 C49.1719298,35.8414035 49.1319298,36.0350877 49.0529825,36.1992982 C48.9761404,36.3645614 48.8677193,36.5014035 48.7287719,36.6108772 C48.5898246,36.7203509 48.4287719,36.8024561 48.2414035,36.857193 C48.057193,36.9119298 47.8592982,36.9392982 47.6466667,36.9392982 C47.437193,36.9392982 47.2403509,36.9119298 47.0550877,36.857193 C46.8729825,36.8024561 46.7119298,36.7203509 46.5719298,36.6108772 C46.4340351,36.5014035 46.3245614,36.3645614 46.2435088,36.1992982 C46.1645614,36.0350877 46.1245614,35.8414035 46.1245614,35.6182456 L46.1245614,35.2603509 L45.725614,35.2603509 L45.725614,36.8982456 L44.7919298,36.8982456 L44.7919298,32.8540351 L45.725614,32.8540351 L45.725614,34.4203509 L46.1245614,34.4203509 L46.1245614,34.0982456 C46.1245614,33.8750877 46.1687719,33.6835088 46.257193,33.5224561 C46.3445614,33.3624561 46.4592982,33.2298246 46.6024561,33.1235088 C46.7445614,33.0182456 46.905614,32.9392982 47.0887719,32.8887719 C47.2698246,32.8382456 47.457193,32.8119298 47.6466667,32.8119298 C47.8392982,32.8119298 48.0266667,32.8403509 48.2108772,32.8940351 C48.3929825,32.9498246 48.557193,33.0308772 48.6992982,33.1382456 C48.8424561,33.245614 48.9561404,33.3824561 49.0424561,33.5466667 C49.1287719,33.7108772 49.1719298,33.9045614 49.1719298,34.1277193 L49.1719298,35.6182456 Z" id="Fill-8621" fill="#FFFFFE"></path>
                    <path d="M51.7361404,33.6929825 L51.7361404,34.6561404 C51.7361404,34.9719298 51.7203509,35.2687719 51.685614,35.5414035 C51.6529825,35.8150877 51.5835088,36.057193 51.4782456,36.2645614 C51.3729825,36.4708772 51.2192982,36.6382456 51.0182456,36.7635088 C50.8150877,36.8887719 50.5445614,36.9592982 50.2035088,36.9750877 L50.0624561,36.2235088 C50.2466667,36.1761404 50.3898246,36.1108772 50.4929825,36.025614 C50.5929825,35.9414035 50.6698246,35.8392982 50.7182456,35.7150877 C50.7666667,35.5908772 50.7961404,35.4477193 50.805614,35.2803509 C50.8150877,35.1140351 50.8203509,34.9245614 50.8203509,34.7077193 L50.8203509,32.8540351 L53.5740351,32.8540351 L53.5740351,36.8982456 L52.6277193,36.8982456 L52.6277193,33.6929825 L51.7361404,33.6929825" id="Fill-8622" fill="#FFFFFE"></path>
                    <path d="M56.0508772,35.3361404 L56.8845614,35.3361404 L56.8024561,35.0603509 L56.4792982,33.945614 L56.4561404,33.945614 L56.1329825,35.0603509 L56.0508772,35.3361404 Z M57.1192982,36.1003509 L55.8161404,36.1003509 L55.5750877,36.8982456 L54.5708772,36.8982456 L55.9982456,32.8540351 L56.9603509,32.8540351 L58.3635088,36.8982456 L57.365614,36.8982456 L57.1192982,36.1003509 Z" id="Fill-8623" fill="#FFFFFE"></path>
                    <polyline id="Fill-8624" fill="#FFFFFE" points="59.3561404 32.8540351 62.1803509 32.8540351 62.1803509 33.6814035 60.2898246 33.6814035 60.2898246 34.4445614 61.9024561 34.4445614 61.9024561 35.2719298 60.2898246 35.2719298 60.2898246 36.0698246 62.1803509 36.0698246 62.1803509 36.8982456 59.3561404 36.8982456 59.3561404 32.8540351"></polyline>
                    <path d="M65.525614,35.6540351 C65.525614,35.5287719 65.4898246,35.4224561 65.417193,35.3361404 C65.3445614,35.2498246 65.2266667,35.2066667 65.0624561,35.2066667 L64.3161404,35.2066667 L64.3161404,36.0698246 L65.0624561,36.0698246 C65.2150877,36.0698246 65.3298246,36.0319298 65.4087719,35.9550877 C65.4866667,35.8803509 65.525614,35.7782456 65.525614,35.6540351 M65.4845614,34.0687719 C65.4845614,33.9550877 65.4519298,33.8624561 65.3845614,33.7887719 C65.3182456,33.717193 65.197193,33.6814035 65.0203509,33.6814035 L64.3161404,33.6814035 L64.3161404,34.4140351 L65.0203509,34.4140351 C65.185614,34.4140351 65.3035088,34.3835088 65.3761404,34.317193 C65.4487719,34.2540351 65.4845614,34.1708772 65.4845614,34.0687719 M66.5298246,35.6887719 C66.5298246,35.8603509 66.5045614,36.0214035 66.4529825,36.1666667 C66.4024561,36.3140351 66.3277193,36.4424561 66.2266667,36.5519298 C66.1277193,36.6614035 66.0045614,36.745614 65.857193,36.8077193 C65.7108772,36.8666667 65.5414035,36.8982456 65.3498246,36.8982456 L63.3835088,36.8982456 L63.3835088,32.8540351 L65.2729825,32.8540351 C65.4845614,32.8540351 65.6645614,32.8835088 65.8129825,32.9445614 C65.9614035,33.0045614 66.0845614,33.085614 66.1803509,33.1877193 C66.2761404,33.2908772 66.345614,33.4066667 66.3887719,33.5392982 C66.4319298,33.6729825 66.4529825,33.8140351 66.4529825,33.9624561 L66.4203509,34.185614 L66.3277193,34.4140351 L66.1708772,34.6203509 L65.9540351,34.7729825 C66.0519298,34.8203509 66.137193,34.8803509 66.2098246,34.9529825 L66.3887719,35.1877193 L66.4940351,35.445614 L66.5298246,35.6887719" id="Fill-8625" fill="#FFFFFE"></path>
                    <path d="M35.1782456,17.9024561 L35.1782456,21.7224561 L34.0098246,22.2298246 L33.8550877,22.9266667 L35.2235088,22.405614 L35.9066667,18.3487719 L37.9603509,16.5382456 L35.1782456,17.9024561 Z M33.9024561,19.897193 L33.6498246,20.3519298 L34.5761404,21.2708772 C34.4866667,20.7740351 34.3561404,20.2424561 33.9024561,19.897193 Z M32.8003509,19.0666667 L33.8908772,19.0666667 L34.4424561,19.5014035 L34.4424561,18.2624561 L32.8003509,19.0666667 Z M35.8919298,16.0835088 L37.3182456,15.7603509 L35.885614,15.4582456 C35.885614,15.4582456 35.7308772,15.7677193 35.8919298,16.0835088 Z M34.9519298,13.8908772 L37.265614,14.5308772 L35.3477193,14.5645614 L34.9519298,15.2361404 L34.9519298,13.8908772 Z" id="Fill-8626" fill="#FFFFFE"></path>
                </g>
            </g>
        </g>
    </g>
</svg>