<?xml version="1.0" encoding="UTF-8"?>
<svg width="139px" height="122px" viewBox="0 0 139 122" version="1.1" xmlns="http://www.w3.org/2000/svg" xmlns:xlink="http://www.w3.org/1999/xlink">
    <!-- Generator: sketchtool 48.2 (47327) - http://www.bohemiancoding.com/sketch -->
    <title>346E4EEE-9C1D-4C46-AD7A-41A31CFD676A</title>
    <desc>Created with sketchtool.</desc>
    <defs></defs>
    <g id="0-about-1400" stroke="none" stroke-width="1" fill="none" fill-rule="evenodd" transform="translate(-564.000000, -3543.000000)" opacity="0.162420743">
        <g id="SUPPORT" transform="translate(-83.000000, 3368.000000)" fill="#FFFFFF">
            <g id="ico/quotations" transform="translate(647.000000, 175.000000)">
                <g id="Capa_1">
                    <g fill-rule="nonzero">
                        <g id="Group">
                            <path d="M41.5808131,6.2676218 L37.557582,3.3870426 L37.4195806,3.28212448 L37.1604204,3.17720636 L34.2249015,1.76328361 L34.3112882,1.97257054 C31.5311568,0.820119137 28.6130238,0 25.4357308,0 C11.379686,-1.9515395e-15 0,11.9590179 0,26.7112748 C0,41.4635317 11.3965287,53.4225496 25.4357308,53.4225496 C29.9425102,53.4225496 34.104286,52.0959671 37.7819702,49.9311382 C36.5214846,64.2120875 29.4068038,85.0402572 3.33268055,106.287001 C-0.310774906,109.25492 -0.984482744,114.771636 1.84780674,118.595379 C3.50545401,120.847549 5.97481056,122 8.46155312,122 C10.2572018,122 12.0533939,121.389168 13.5898824,120.166954 C45.5872015,94.0489336 53.5820489,67.23329 54.6529184,49.3208553 C56.4833391,26.415197 49.6109759,14.3688388 43.3253904,8.08418844 L41.5808131,6.2676218 Z" id="Shape"></path>
                            <path d="M127.344543,8.08308982 L125.584236,6.2676218 L121.580377,3.3870426 L121.166091,3.17720636 L118.232426,1.76328361 C115.540382,0.820119137 112.606717,0 109.43143,0 C95.4016367,0 84.0465116,11.9590179 84.0465116,26.7112748 C84.0465116,41.4635317 95.4016367,53.4225496 109.46618,53.4225496 C113.970114,53.4225496 118.129262,52.0959671 121.804624,49.9311382 C120.562309,64.2120875 113.452121,85.0402572 87.3944627,106.287001 C83.735933,109.25492 83.0800256,114.771636 85.9105266,118.595379 C87.5671271,120.847549 90.0349243,122 92.5200966,122 C94.3146114,122 96.1096692,121.389168 97.6451874,120.166954 C129.639676,94.0489336 137.6121,67.23329 138.699668,49.3208553 C140.528933,26.4146477 133.66091,14.3682895 127.344543,8.08308982 Z" id="Shape"></path>
                        </g>
                    </g>
                </g>
            </g>
        </g>
    </g>
</svg>