<?xml version="1.0" encoding="UTF-8"?>
<svg width="13px" height="15px" viewBox="0 0 13 15" version="1.1" xmlns="http://www.w3.org/2000/svg" xmlns:xlink="http://www.w3.org/1999/xlink">
    <!-- Generator: sketchtool 48.2 (47327) - http://www.bohemiancoding.com/sketch -->
    <title>2BE34BF3-D95B-4A91-9DBE-A3E62F841F3F</title>
    <desc>Created with sketchtool.</desc>
    <defs></defs>
    <g id="ico/cup/small-red" stroke="none" stroke-width="1" fill="none" fill-rule="evenodd">
        <g fill="#EE3522" fill-rule="nonzero" id="Shape">
            <path d="M7.5999,9.8088 C7.5999,9.67155 7.49115,9.58755 7.3584,9.62205 C7.3584,9.62205 6.73635,9.78375 6.2772,9.78375 C5.81805,9.78375 5.196,9.62205 5.196,9.62205 C5.06325,9.58755 4.9545,9.67155 4.9545,9.8088 L4.9545,10.53255 C4.9545,10.6698 5.06685,10.78215 5.2041,10.78215 L7.3506,10.78215 C7.48785,10.78215 7.6002,10.6698 7.6002,10.53255 L7.6002,9.8088 L7.5999,9.8088 Z"></path>
            <path d="M10.07085,0.4992 C10.07085,0.2235 9.8472,0 9.57165,0 L2.9826,0 C2.7069,0 2.4834,0.2235 2.4834,0.4992 L2.4834,4.6173 C2.4834,5.90625 2.8668,7.0797 3.56295,7.92105 C4.2636,8.7681 5.22765,9.2346 6.2772,9.2346 C7.32675,9.2346 8.29065,8.7681 8.99145,7.92105 C9.6876,7.07955 10.071,5.90625 10.071,4.6173 L10.071,0.4992 L10.07085,0.4992 Z"></path>
            <path d="M2.0085,5.6175 C1.3254,5.36325 1.01085,4.77375 1.01085,3.79365 L1.01085,1.56405 L1.9344,1.56405 L1.9344,0.5658 L0.5118,0.5658 C0.2361,0.5658 0.0126,0.7893 0.0126,1.065 L0.0126,3.79365 C0.0126,5.45835 0.81,6.47235 2.2761,6.7092 C2.15565,6.36285 2.0655,5.99745 2.0085,5.6175 Z"></path>
            <path d="M2.9826,11.5308 C2.7069,11.5308 2.4834,11.7543 2.4834,12.03 L2.4834,14.5008 C2.4834,14.7765 2.7069,15 2.9826,15 L9.57165,15 C9.84735,15 10.07085,14.7765 10.07085,14.5008 L10.07085,12.03 C10.07085,11.7543 9.84735,11.5308 9.57165,11.5308 L2.9826,11.5308 Z"></path>
            <path d="M12.04245,0.5658 L10.61985,0.5658 L10.61985,1.5642 L11.5434,1.5642 L11.5434,3.7938 C11.5434,4.7739 11.22885,5.3634 10.54575,5.61765 C10.48875,5.9976 10.3986,6.363 10.27815,6.7095 C11.74425,6.47265 12.54165,5.45865 12.54165,3.79395 L12.54165,1.065 C12.54165,0.7893 12.31815,0.5658 12.04245,0.5658 Z"></path>
        </g>
    </g>
</svg>