<svg id="Слой_2" data-name="Слой 2" xmlns="http://www.w3.org/2000/svg" viewBox="0 0 1244.7 995.67"><defs><style>.cls-1{opacity:0.1;}.cls-2{fill:#fff;}.cls-3{fill:#ffbc00;}</style></defs><title>4_stadium_1</title><g class="cls-1"><rect class="cls-2" x="662.63" width="74.89" height="125.08"/><path class="cls-2" d="M881.18,125.12l1.4,0,2.79,0.08L887,125.3l2.53,0.12,1.76,0.11,1.62,0.1h0V0.45C886.89,0.15,880.78,0,874.78,0H818.07V125.08H877Q879.08,125.08,881.18,125.12Z"/><rect class="cls-2" x="740.35" width="74.89" height="125.08"/><rect class="cls-2" x="429.46" width="74.89" height="125.08"/><path class="cls-2" d="M353.36,125.53l1.77-.11,2.52-.12,1.68-.07,2.79-.08,1.4,0q2.09,0,4.18,0h58.93V0H369.92c-6,0-12.12.15-18.18,0.45V125.62h0Z"/><rect class="cls-2" x="584.91" width="74.89" height="125.08"/><rect class="cls-2" x="507.18" width="74.89" height="125.08"/><rect class="cls-2" x="662.63" y="870.59" width="74.89" height="125.08"/><path class="cls-2" d="M891.33,870.13l-1.75.11-2.54.12-1.67.07-2.8.08-1.4,0q-2.1,0-4.18,0H818.07V995.67h56.71c6,0,12.12-.15,18.18-0.45V870h0Z"/><rect class="cls-2" x="740.35" y="870.59" width="74.89" height="125.08"/><rect class="cls-2" x="429.46" y="870.59" width="74.89" height="125.08"/><rect class="cls-2" x="584.91" y="870.59" width="74.89" height="125.08"/><path class="cls-2" d="M363.52,870.55l-1.39,0-2.8-.08-1.67-.07-2.54-.12-1.76-.11-1.62-.1h0V995.22c6.06,0.3,12.17.45,18.18,0.45h56.71V870.59H367.7Q365.61,870.59,363.52,870.55Z"/><rect class="cls-2" x="507.18" y="870.59" width="74.89" height="125.08"/></g><path class="cls-3" d="M287.49,139.53h0l1.27-.46,1.84-.67,2-.7,1.83-.63,2-.67,1.82-.59,2.05-.64,1.8-.55,2.12-.61,1.75-.5,2.22-.6,1.67-.45,2.37-.6,1.54-.39,2.84-.66,1.08-.25q2-.44,3.93-0.84l1-.21,2.91-.57,1.5-.27,2.47-.44,1.65-.27,2.33-.37,1.74-.25,2.26-.32,1.79-.22,2.21-.27,1.83-.2,2.19-.23,1.84-.17,1.51-.14h0V0.6a366.38,366.38,0,0,0-100.1,19.89l35.09,108,3.59,11.06h0Z"/><path class="cls-3" d="M897.28,126l1.86,0.17,2.17,0.22,1.85,0.2,2.19,0.27,1.81,0.23,2.24,0.31,1.75,0.25,2.33,0.37,1.66,0.27,2.48,0.44,1.49,0.26,3,0.59,0.94,0.19q2,0.4,3.95.84l0.9,0.21,3,0.7,1.41,0.35,2.5,0.63,1.59,0.43,2.31,0.63,1.68,0.48,2.2,0.64,1.71,0.52,2.15,0.67,1.73,0.56,2.11,0.7,1.75,0.6,2.07,0.72,1.75,0.64,1.32,0.48L990.94,35.73l5-15.25A366.38,366.38,0,0,0,895.79.6V125.84h0Z"/><path class="cls-3" d="M181.08,775.31l-1.21-1.68-1.11-1.56-1.2-1.72-1.07-1.55L175.3,767l-1-1.53-1.19-1.85-1-1.5c-0.4-.64-0.8-1.29-1.2-1.93l-0.9-1.45c-0.42-.7-0.84-1.4-1.25-2.1L168,755.35c-0.51-.88-1-1.77-1.52-2.65l-0.46-.8q-1-1.73-1.91-3.47l-0.6-1.14c-0.42-.79-0.84-1.58-1.25-2.37l-0.72-1.42c-0.36-.71-0.72-1.41-1.07-2.12l-0.75-1.54c-0.33-.67-0.66-1.35-1-2L158,736.18c-0.31-.66-0.62-1.32-0.92-2l-0.73-1.64c-0.29-.66-0.59-1.33-0.88-2l-0.71-1.66c-0.28-.67-0.56-1.33-0.84-2l-0.68-1.68c-0.18-.45-0.37-0.9-0.55-1.36L37.53,761.28l-10.31,3.35A370.87,370.87,0,0,0,79,853.54l41.1-29.86L183,777.95l-0.79-1.07Z"/><path class="cls-3" d="M235,167.25l1.48-1,1.81-1.24,1.47-1,1.87-1.23,1.45-.95,1.95-1.24,1.41-.89,2.06-1.26,1.32-.8,2.27-1.33,1.15-.67q1.5-.86,3-1.7l0.43-.24q1.74-1,3.49-1.89l1-.52,2.52-1.31,1.34-.67,2.21-1.1,1.49-.71,2.09-1,1.59-.72,2-.91,1.66-.72,2-.85,1.71-.71,1.94-.8,1.76-.7,1.3-.51L246.13,21.43a369.87,369.87,0,0,0-89.67,46.84l74.21,102.14,1.13-.82,1.49-1.08Z"/><path class="cls-3" d="M189.24,209.83c1-1.21,2-2.4,3-3.59,0.69-.81,1.37-1.63,2.07-2.43,1.14-1.3,2.32-2.57,3.48-3.84,0.61-.66,1.21-1.34,1.82-2q2.62-2.79,5.33-5.48l0.53-.52q2.61-2.59,5.31-5.09c0.67-.63,1.37-1.23,2-1.84,1.27-1.15,2.53-2.3,3.82-3.42,0.81-.7,1.64-1.37,2.45-2.06,1.19-1,2.38-2,3.59-3,0.88-.71,1.78-1.4,2.66-2.09s2-1.58,3-2.34L154.15,69.92a374.45,374.45,0,0,0-73.41,70L148.35,189l36.39,26.44c0.77-1,1.58-2,2.37-3S188.52,210.71,189.24,209.83Z"/><path class="cls-3" d="M1014,825.26h0l-1.14.83-1.47,1.07-1.76,1.25-1.49,1-1.78,1.22-1.51,1-1.8,1.18-1.53,1L999.74,835l-1.54,1-1.84,1.12-1.55.94-1.9,1.11-1.53.89-2.13,1.2-1.83,1q-1.46.8-2.93,1.58l-1.54.8-2,1-1.65.82-1.9.94-1.7.81-1.88.89-1.7.78-1.92.87-1.69.74-2,.85-1.68.7-2,.82-1.66.66-1.37.55,38.7,119.12a369.84,369.84,0,0,0,89.67-46.84L1014,825.26h0Z"/><path class="cls-3" d="M279.76,853.08l-1.62-.68-2.06-.89-1.58-.69-2.07-.94-1.54-.7-2.09-1-1.49-.71-2.19-1.08-1.36-.68-2.47-1.28-1.05-.55q-1.75-.93-3.48-1.88l-0.69-.39c-0.92-.51-1.85-1-2.77-1.56l-1.3-.76-2.12-1.24-1.46-.89L246.49,836l-1.51-1-1.84-1.17-1.55-1-1.77-1.16-1.57-1.06-1.71-1.17-1.57-1.1-1.68-1.19L231.74,826l-1.07-.78L178.51,897l-22,30.35a369.86,369.86,0,0,0,89.67,46.84l38.7-119.12-1.37-.54-1.66-.66Z"/><path class="cls-3" d="M153.93,268.77c0.27-.67.55-1.33,0.83-2l0.71-1.67c0.29-.67.59-1.34,0.88-2l0.72-1.62c0.31-.68.63-1.36,0.94-2l0.73-1.56c0.33-.7.68-1.4,1-2.11l0.71-1.47c0.37-.75.75-1.49,1.12-2.23l0.67-1.32c0.44-.85.88-1.69,1.33-2.53l0.52-1q0.94-1.75,1.92-3.49l0.32-.56q0.82-1.45,1.66-2.89l0.71-1.2c0.44-.74.88-1.48,1.32-2.22l0.85-1.37c0.41-.67.83-1.34,1.25-2l0.93-1.45,1.22-1.9,1-1.49,1.22-1.82,1-1.51,1.23-1.77,1.08-1.51,1.24-1.72,1.12-1.52,0.82-1.1h0L120.08,172,79,142.12A370.88,370.88,0,0,0,27.22,231l6.21,2L152.7,271.81c0.18-.45.36-0.89,0.54-1.34Z"/><path class="cls-3" d="M1090.76,726.92c-0.27.64-.54,1.28-0.81,1.93s-0.49,1.15-.73,1.73-0.57,1.3-.86,2-0.49,1.12-.74,1.67-0.61,1.32-.92,2l-0.75,1.61c-0.32.68-.66,1.36-1,2l-0.74,1.52c-0.36.73-.73,1.46-1.1,2.19l-0.69,1.35c-0.44.85-.89,1.69-1.34,2.54l-0.51,1q-0.94,1.75-1.92,3.49l-0.27.47q-0.84,1.5-1.71,3l-0.66,1.12c-0.45.77-.91,1.54-1.37,2.3l-0.8,1.3c-0.43.7-.86,1.4-1.3,2.09l-0.87,1.36c-0.42.66-.85,1.33-1.28,2l-0.94,1.41-1.28,1.91-1,1.43-1.29,1.85-1,1.43-1.31,1.81-1.06,1.43-0.86,1.16,104,75.59a370.83,370.83,0,0,0,51.77-88.91l-114-37L1092,723.86c-0.17.43-.35,0.86-0.52,1.29Z"/><path class="cls-3" d="M1062.56,218.92l1,1.37,1.35,1.86,1,1.39,1.31,1.89,1,1.4,1.29,1.92,0.93,1.39c0.43,0.66.86,1.32,1.28,2l0.87,1.36c0.44,0.7.87,1.4,1.31,2.1l0.79,1.28c0.47,0.77.92,1.55,1.38,2.32l0.65,1.1q0.87,1.49,1.71,3l0.27,0.47q1,1.74,1.92,3.49l0.53,1c0.44,0.83.89,1.67,1.32,2.51l0.69,1.36c0.37,0.73.74,1.45,1.1,2.18l0.74,1.52c0.33,0.68.66,1.36,1,2s0.5,1.08.76,1.63,0.61,1.31.91,2,0.5,1.13.76,1.7,0.57,1.28.85,1.92,0.5,1.17.75,1.76,0.53,1.26.79,1.89,0.49,1.21.73,1.81c0.17,0.42.34,0.84,0.51,1.26l106.48-34.6,19-6.17a370.85,370.85,0,0,0-51.77-88.91l-56.36,40.95-47.68,34.64Z"/><path class="cls-3" d="M1060,780.21h0c-0.77,1-1.58,2-2.36,3s-1.41,1.79-2.13,2.67c-1,1.22-2,2.41-3.05,3.61-0.69.8-1.36,1.62-2.06,2.41-1.16,1.32-2.35,2.61-3.54,3.9-0.59.64-1.17,1.3-1.76,1.93q-2.7,2.87-5.5,5.65l-0.05,0q-2.77,2.75-5.64,5.41c-0.63.59-1.29,1.15-1.92,1.73-1.31,1.19-2.61,2.38-3.94,3.53-0.79.68-1.6,1.34-2.39,2-1.21,1-2.42,2.05-3.65,3-0.87.71-1.77,1.39-2.65,2.08s-2,1.58-3,2.35l74.24,102.19a374.38,374.38,0,0,0,73.41-70l-66.86-48.57-37.14-27h0Z"/><path class="cls-3" d="M1019.35,174.51c0.86,0.68,1.73,1.34,2.58,2,1.24,1,2.46,2,3.68,3.07,0.79,0.67,1.59,1.32,2.37,2,1.32,1.14,2.61,2.32,3.9,3.5,0.65,0.59,1.32,1.17,2,1.77q2.76,2.56,5.43,5.21l0.29,0.28q2.78,2.76,5.46,5.62c0.6,0.64,1.19,1.31,1.78,2,1.18,1.29,2.37,2.57,3.53,3.88,0.69,0.78,1.35,1.59,2,2.38,1,1.21,2.08,2.41,3.09,3.64,0.7,0.86,1.38,1.73,2.07,2.6s1.62,2,2.41,3h0l104-75.56a374.41,374.41,0,0,0-73.41-70l-37.41,51.49-36.83,50.7C1017.33,172.89,1018.34,173.71,1019.35,174.51Z"/><path class="cls-3" d="M964.87,142.56l1.71,0.71,2,0.85,1.68,0.73,2,0.89,1.64,0.75,2,0.95,1.58,0.75,2.07,1L981,150l2.28,1.18,1.24,0.64q1.74,0.92,3.47,1.87l0.79,0.44,2.67,1.5,1.27,0.74,2.15,1.26,1.38,0.84,2,1.23,1.43,0.9,1.93,1.22,1.44,0.94,1.89,1.24,1.43,1,1.86,1.27,1.42,1,1.84,1.31,1.39,1,1.19,0.87h0l74.21-102.14a369.82,369.82,0,0,0-89.67-46.84l-38.7,119.12,1.32,0.52,1.74,0.69Z"/><polygon class="cls-3" points="1014.03 170.41 1088.24 68.27 1088.24 68.27 1014.03 170.4 1014.03 170.41"/><path class="cls-3" d="M225.38,821.18c-0.87-.69-1.75-1.36-2.61-2.06-1.23-1-2.43-2-3.64-3-0.8-.68-1.61-1.34-2.4-2-1.31-1.14-2.59-2.31-3.88-3.47-0.66-.6-1.34-1.18-2-1.79q-2.74-2.54-5.39-5.18l-0.37-.36q-2.75-2.74-5.42-5.57c-0.63-.67-1.23-1.35-1.85-2-1.16-1.26-2.33-2.52-3.46-3.81-0.72-.81-1.41-1.65-2.11-2.47-1-1.18-2-2.35-3-3.54-0.74-.9-1.45-1.82-2.18-2.73s-1.56-1.93-2.32-2.91h0l-104,75.56a374.4,374.4,0,0,0,73.41,70l41.76-57.48,32.48-44.71C227.38,822.78,226.39,822,225.38,821.18Z"/><path class="cls-3" d="M1107,661.1c-0.06.61-.11,1.22-0.18,1.84s-0.16,1.49-.24,2.24-0.13,1.19-.2,1.79c-0.09.76-.19,1.52-0.29,2.28-0.08.58-.15,1.16-0.23,1.74-0.11.78-.22,1.56-0.34,2.35-0.08.55-.16,1.11-0.25,1.66-0.13.83-.27,1.65-0.41,2.47-0.08.51-.16,1-0.25,1.52-0.16.9-.33,1.81-0.49,2.71-0.08.43-.15,0.85-0.24,1.28q-0.33,1.73-.69,3.45l-0.1.52q-0.42,2-.88,4l-0.14.6c-0.26,1.11-.52,2.23-0.8,3.34-0.1.41-.21,0.82-0.32,1.24-0.23.9-.46,1.79-0.69,2.68-0.13.49-.27,1-0.4,1.46-0.22.82-.45,1.63-0.68,2.44-0.15.52-.31,1-0.46,1.56-0.23.77-.45,1.55-0.69,2.32-0.17.54-.34,1.08-0.51,1.62-0.23.75-.47,1.5-0.71,2.24-0.18.55-.37,1.11-0.55,1.66-0.24.73-.49,1.46-0.74,2.19-0.19.56-.39,1.12-0.59,1.68-0.25.72-.51,1.43-0.77,2.15l-0.63,1.7c-0.17.45-.33,0.91-0.5,1.36h0L1218.54,762a366.07,366.07,0,0,0,24.61-102.42h-136C1107.1,660.08,1107.05,660.59,1107,661.1Z"/><polygon class="cls-3" points="1093.03 721.21 1218.54 761.99 1218.54 761.99 1093.03 721.21 1093.03 721.21"/><path class="cls-3" d="M955.88,856.61l-1.76.64-2.06.72-1.77.61-2.07.68-1.77.58-2.08.65-1.78.55-2.12.61-1.76.51-2.17.59-1.73.47-2.25.57-1.66.42-2.6.6-1.33.31q-2,.44-3.91.84l-1.3.25-2.66.52-1.61.29-2.36.42-1.72.28-2.27.36-1.75.25-2.24.31-1.78.22-2.23.27-1.78.19-2.25.23-1.77.16-1.56.14h0V995.07a366.42,366.42,0,0,0,100.1-19.89L989.67,956l-32.46-99.9Z"/><polygon class="cls-3" points="995.89 975.18 989.67 956.02 995.89 975.18 995.89 975.18"/><path class="cls-3" d="M1108,644c0,0.47,0,.94,0,1.41,0,1-.05,2.06-0.1,3.1,0,0.56-.05,1.12-0.08,1.68,0,0.95-.09,1.9-0.14,2.85,0,0.61-.08,1.22-0.12,1.82s-0.08,1.24-.12,1.87h136c0.86-10.27,1.3-20.69,1.3-31V579.41H1108v60.16Q1108,641.78,1108,644Z"/><path class="cls-3" d="M137.69,334.57c0.06-.62.11-1.24,0.18-1.85s0.16-1.47.24-2.2,0.13-1.23.21-1.84,0.18-1.47.28-2.21,0.15-1.22.24-1.82,0.21-1.48.32-2.22,0.17-1.2.27-1.8c0.12-.75.24-1.5,0.37-2.25,0.1-.58.19-1.17,0.29-1.75,0.14-.78.28-1.56,0.43-2.34,0.1-.55.2-1.1,0.3-1.65,0.17-.89.35-1.77,0.53-2.65,0.09-.44.17-0.88,0.27-1.32q0.41-2,.86-3.92c0.1-.46.22-0.91,0.33-1.37,0.2-.86.4-1.72,0.61-2.57,0.14-.55.28-1.1,0.42-1.65,0.19-.76.38-1.51,0.59-2.27,0.16-.58.32-1.17,0.48-1.75s0.39-1.44.6-2.15,0.35-1.2.53-1.8,0.41-1.39.62-2.08,0.38-1.22.57-1.83,0.43-1.36.65-2,0.4-1.22.61-1.83,0.45-1.35.68-2,0.42-1.21.64-1.82,0.48-1.34.72-2,0.44-1.2.67-1.81c0.16-.43.32-0.86,0.48-1.29L26.15,233.67A366,366,0,0,0,1.55,336.09h136C137.59,335.58,137.65,335.08,137.69,334.57Z"/><rect class="cls-3" x="1108.02" y="499.25" width="136.67" height="77.33"/><path class="cls-3" d="M1093,274.46c0.16,0.43.32,0.87,0.48,1.3,0.22,0.6.45,1.2,0.67,1.8s0.48,1.35.72,2,0.43,1.21.64,1.81,0.46,1.36.69,2,0.41,1.21.6,1.81,0.44,1.37.65,2.06,0.38,1.21.57,1.81,0.41,1.39.62,2.08,0.36,1.2.53,1.8,0.4,1.42.59,2.13,0.33,1.19.49,1.78,0.38,1.47.57,2.2c0.15,0.57.3,1.14,0.44,1.72,0.2,0.81.39,1.63,0.59,2.45,0.12,0.5.24,1,.36,1.49q0.45,2,.86,3.91c0.1,0.49.2,1,.3,1.47,0.17,0.83.34,1.67,0.5,2.51,0.11,0.58.21,1.15,0.32,1.73,0.14,0.75.28,1.5,0.41,2.26s0.2,1.21.3,1.82,0.24,1.45.36,2.18,0.18,1.24.28,1.86,0.21,1.43.31,2.15,0.17,1.26.25,1.88,0.19,1.43.27,2.15,0.14,1.25.21,1.88,0.16,1.44.23,2.16,0.12,1.25.18,1.87,0.1,1,.14,1.51h136a366.07,366.07,0,0,0-24.61-102.42L1093,274.45h0Z"/><rect class="cls-3" x="1108.02" y="419.09" width="136.67" height="77.33"/><path class="cls-3" d="M1107.5,340.79c0,0.61.08,1.22,0.12,1.82,0.06,1,.1,1.9.15,2.85,0,0.56.06,1.11,0.08,1.67,0,1,.07,2.07.1,3.1,0,0.47,0,.93,0,1.4q0,2.24,0,4.46v60.15H1244.7V369.92c0-10.3-.44-20.72-1.3-31h-136C1107.42,339.55,1107.46,340.17,1107.5,340.79Z"/><path class="cls-3" d="M347.33,869.68l-1.75-.16-2.27-.23-1.76-.19-2.26-.27-1.76-.22-2.27-.32-1.73-.25-2.29-.36-1.7-.27-2.37-.42-1.6-.28-2.68-.52-1.28-.25q-2-.4-3.91-0.84l-1.35-.31-2.57-.6-1.68-.42-2.23-.56-1.76-.47-2.14-.58-1.78-.51L302.1,861l-1.8-.55-2.06-.64-1.79-.58-2.06-.68-1.77-.61-2.05-.72-1.76-.64-1.33-.48h0l-3.83,11.79L248.81,975.18a366.41,366.41,0,0,0,100.1,19.89V869.83h0Z"/><path class="cls-3" d="M151.67,721.21h0c-0.17-.45-0.33-0.9-0.5-1.35l-0.64-1.72c-0.26-.7-0.5-1.4-0.75-2.11s-0.41-1.15-.61-1.72-0.48-1.42-.72-2.14-0.38-1.14-.57-1.71c-0.24-.73-0.46-1.46-0.69-2.19-0.18-.56-0.35-1.12-0.53-1.68-0.23-.75-0.45-1.5-0.67-2.26-0.16-.54-0.32-1.09-0.48-1.63-0.22-.78-0.44-1.57-0.65-2.36-0.14-.52-0.29-1-0.43-1.55-0.23-.85-0.44-1.71-0.66-2.57-0.12-.45-0.24-0.9-0.35-1.36-0.26-1-.5-2.08-0.75-3.12-0.06-.28-0.13-0.55-0.2-0.83q-0.45-2-.87-4c-0.05-.25-0.1-0.5-0.15-0.76-0.22-1.07-.44-2.14-0.65-3.22-0.09-.46-0.17-0.92-0.25-1.37-0.16-.87-0.32-1.74-0.48-2.61-0.09-.53-0.18-1.06-0.26-1.59-0.13-.8-0.27-1.61-0.39-2.41-0.09-.56-0.17-1.12-0.25-1.68-0.12-.78-0.23-1.55-0.34-2.33-0.08-.58-0.15-1.16-0.23-1.75-0.1-.76-0.2-1.52-0.29-2.28-0.07-.6-0.14-1.2-0.2-1.8s-0.17-1.49-.24-2.24-0.12-1.23-.18-1.84-0.1-1-.15-1.53H1.55A366,366,0,0,0,26.15,762l125.51-40.78h0Z"/><polygon class="cls-3" points="26.15 761.99 26.15 761.99 151.67 721.21 151.67 721.21 26.15 761.99"/><rect class="cls-3" y="499.25" width="136.67" height="77.33"/><path class="cls-3" d="M136.72,351.65c0-.5,0-1,0-1.51,0-1,.05-2,0.09-3,0-.61.06-1.21,0.09-1.82,0-.9.08-1.79,0.14-2.69,0-.65.08-1.29,0.13-1.94s0.07-1.19.12-1.79H1.3c-0.86,10.28-1.3,20.7-1.3,31v46.33H136.67V356.1Q136.67,353.89,136.72,351.65Z"/><rect class="cls-3" y="419.09" width="136.67" height="77.33"/><path class="cls-3" d="M137.2,654.94c0-.64-0.09-1.28-0.13-1.93-0.05-.9-0.1-1.8-0.14-2.69,0-.61-0.06-1.21-0.09-1.82,0-1-.07-2-0.09-3,0-.5,0-1,0-1.51q0-2.24,0-4.45V579.41H0v46.33c0,10.29.44,20.71,1.3,31h136C137.28,656.14,137.24,655.54,137.2,654.94Z"/></svg>