<svg id="Слой_3" data-name="Слой 3" xmlns="http://www.w3.org/2000/svg" viewBox="0 0 1244.7 995.67"><defs><style>.cls-1{opacity:0.7;}.cls-2{fill:#fff;}</style></defs><title>4_stadium_4</title><g class="cls-1"><polygon class="cls-2" points="957.08 315.65 957.08 315.65 960.93 314.39 957.08 315.65"/><rect class="cls-2" x="507.18" y="262.5" width="74.89" height="34.69"/><rect class="cls-2" x="584.91" y="262.5" width="74.89" height="34.69"/><rect class="cls-2" x="662.63" y="262.5" width="74.89" height="34.69"/><path class="cls-2" d="M893,266.43l-1.34-.38-1.59-.43-1.9-.46-1.58-.37-1.94-.39L883,264.1c-0.66-.12-1.33-0.22-2-0.33l-1.54-.25c-0.68-.1-1.37-0.18-2.06-0.26l-1.49-.18c-0.72-.08-1.44-0.14-2.16-0.2l-1.4-.12c-0.8-.06-1.6-0.09-2.4-0.13l-1.18-.06q-1.79-.06-3.59-0.07H818.07v34.69H893V266.43Z"/><path class="cls-2" d="M893,266.42l-1.34-.36,1.34,0.38h0Z"/><rect class="cls-2" x="740.35" y="262.5" width="74.89" height="34.69"/><rect class="cls-2" x="429.46" y="262.5" width="74.89" height="34.69"/><path class="cls-2" d="M426.63,262.5H379.47q-1.8,0-3.59.07l-1.19.06c-0.8,0-1.59.07-2.39,0.13l-1.41.12c-0.72.06-1.44,0.12-2.15,0.2l-1.51.19c-0.68.08-1.36,0.16-2,.26l-1.56.25c-0.66.11-1.32,0.21-2,.33l-1.58.31-1.92.39-1.59.37-1.89.46-1.6.43-1.34.38v30.76h74.89V262.5Z"/><path class="cls-2" d="M351.74,266.42h0l1.34-.38Z"/><path class="cls-2" d="M818.07,733.17h47.16q1.8,0,3.59-.07L870,733c0.8,0,1.6-.07,2.4-0.13l1.41-.12c0.72-.06,1.44-0.12,2.15-0.2l1.51-.19c0.68-.08,1.36-0.16,2-0.26l1.56-.25c0.66-.11,1.31-0.21,2-0.33l1.59-.31,1.91-.39,1.63-.38L890,730l1.65-.45,1.3-.36V698.48H818.07v34.69Z"/><path class="cls-2" d="M893,729.25h0l-1.3.36Z"/><rect class="cls-2" x="662.63" y="698.48" width="74.89" height="34.69"/><rect class="cls-2" x="740.35" y="698.48" width="74.89" height="34.69"/><rect class="cls-2" x="584.91" y="698.48" width="74.89" height="34.69"/><path class="cls-2" d="M921.18,297.19v38.9h41l-0.11-.4c-0.1-.36-0.21-0.72-0.32-1.08s-0.27-.91-0.42-1.37L961,332.18q-0.22-.69-0.46-1.38l-0.36-1q-0.25-.69-0.5-1.38l-0.38-1c-0.18-.47-0.37-0.93-0.55-1.4l-0.39-1c-0.2-.49-0.41-1-0.62-1.45l-0.39-.9c-0.24-.53-0.48-1.06-0.72-1.58l-0.34-.75q-0.55-1.16-1.12-2.3a101.61,101.61,0,0,0-24.19-31h0a101.4,101.4,0,0,0-9.06-7q-1.58-1.08-3.19-2.1-2.15-1.36-4.37-2.61-1.16-.65-2.33-1.27l-0.76-.39-1.61-.82-0.92-.44-1.48-.7-1-.45-1.43-.63-1-.44-1.41-.58-1.07-.42-1.42-.54-1.08-.39-1.43-.5-1.08-.36-0.43-.13v29.9h25.39Z"/><path class="cls-2" d="M930.91,287h0a101.43,101.43,0,0,0-9.06-7,101.4,101.4,0,0,1,9.06,7h0Z"/><path class="cls-2" d="M895.79,267.28h0l0.43,0.13Z"/><path class="cls-2" d="M962.15,336.09l-0.12-.4,0.11,0.4h0Z"/><path class="cls-2" d="M965.86,416.25V363.13q0-1.57,0-3.13c0-.34,0-0.69,0-1,0-.7-0.06-1.4-0.1-2.1,0-.41-0.06-0.81-0.09-1.22,0-.63-0.09-1.27-0.15-1.9,0-.43-0.09-0.87-0.14-1.3-0.06-.6-0.13-1.21-0.2-1.81-0.06-.45-0.12-0.89-0.18-1.33s-0.16-1.18-.25-1.76-0.15-.9-0.23-1.36-0.2-1.15-.3-1.72-0.18-.91-0.28-1.37-0.23-1.13-.36-1.69-0.21-.92-0.32-1.37-0.18-.74-0.27-1.11h-41.7v77.33h44.68Z"/><path class="cls-2" d="M962.9,338.93h0q0.14,0.55.27,1.11C963.07,339.66,963,339.29,962.9,338.93Z"/><path class="cls-2" d="M962.88,656.74q0.14-.56.27-1.12c0.11-.45.21-0.9,0.31-1.35s0.24-1.14.36-1.71,0.19-.9.27-1.36,0.21-1.15.31-1.73,0.16-.9.23-1.35,0.17-1.17.25-1.76,0.13-.89.18-1.33c0.08-.6.14-1.2,0.2-1.81,0-.43.1-0.87,0.14-1.3,0.06-.63.1-1.26,0.15-1.9,0-.41.07-0.82,0.09-1.22,0-.7.07-1.4,0.1-2.09,0-.35,0-0.69,0-1q0-1.57,0-3.13V579.41H921.18v77.33h41.7Z"/><path class="cls-2" d="M962.9,656.74c0.09-.37.17-0.75,0.26-1.12q-0.13.56-.27,1.12h0Z"/><rect class="cls-2" x="921.18" y="499.25" width="44.68" height="77.33"/><rect class="cls-2" x="921.18" y="419.09" width="44.68" height="77.33"/><path class="cls-2" d="M921.18,698.48H895.79v29.9l0.4-.13,1.14-.38,1.38-.48,1.11-.4,1.4-.53,1.08-.42,1.4-.57,1-.44,1.42-.63,1-.45,1.48-.7,0.92-.44,1.62-.83,0.74-.38q1.18-.62,2.34-1.27a101.61,101.61,0,0,0,40.83-42.65q0.58-1.14,1.12-2.3l0.34-.75c0.24-.53.49-1.05,0.72-1.58l0.39-.91c0.21-.48.41-1,0.61-1.44l0.4-1c0.18-.46.36-0.91,0.54-1.37l0.39-1q0.25-.67.49-1.35l0.37-1.08q0.23-.67.45-1.34l0.35-1.1c0.14-.44.27-0.88,0.4-1.32s0.22-.75.33-1.13l0.11-.38h-41v38.9Z"/><path class="cls-2" d="M962.15,659.57h0L962,660Z"/><path class="cls-2" d="M895.79,728.38l0.4-.13-0.4.13h0Z"/><path class="cls-2" d="M281.81,338.93q-0.14.55-.27,1.1c-0.11.46-.22,0.92-0.32,1.38s-0.24,1.12-.35,1.68-0.19.92-.28,1.38-0.2,1.14-.3,1.7-0.16.92-.23,1.38-0.17,1.16-.25,1.74-0.13.9-.19,1.36-0.14,1.19-.2,1.79c0,0.44-.1.88-0.14,1.32-0.06.63-.1,1.26-0.15,1.88,0,0.41-.07.82-0.09,1.23,0,0.7-.07,1.39-0.1,2.09,0,0.35,0,.69,0,1q0,1.57,0,3.13v53.12h44.68V338.93h-41.7Z"/><path class="cls-2" d="M281.8,338.93c-0.09.37-.17,0.74-0.26,1.1q0.13-.55.27-1.1h0Z"/><rect class="cls-2" x="278.84" y="419.09" width="44.68" height="77.33"/><rect class="cls-2" x="278.84" y="499.25" width="44.68" height="77.33"/><path class="cls-2" d="M323.51,297.19H348.9v-29.9l-0.43.14-1.07.36-1.44.5-1.09.39-1.41.53-1.08.42-1.4.57-1.06.45-1.4.62-1,.46-1.45.69-0.95.46-1.58.81-0.78.4q-1.17.62-2.33,1.27A101.6,101.6,0,0,0,289.6,318q-0.58,1.14-1.12,2.3l-0.34.75c-0.24.53-.49,1.05-0.72,1.58l-0.39.9c-0.21.48-.42,1-0.62,1.46L286,326c-0.19.47-.38,0.94-0.56,1.41l-0.38,1q-0.26.7-.51,1.4l-0.36,1q-0.24.7-.47,1.41l-0.33,1q-0.23.72-.44,1.44l-0.29,1-0.12.43h41v-38.9Z"/><path class="cls-2" d="M282.55,336.09h0l0.12-.43Z"/><path class="cls-2" d="M348.9,267.28l-0.43.14,0.43-.14h0Z"/><path class="cls-2" d="M351.74,729.23L353,729.6l1.66,0.45,1.83,0.44,1.64,0.38,1.89,0.38,1.61,0.32,1.95,0.32,1.58,0.25c0.67,0.1,1.35.18,2,.26l1.53,0.19c0.71,0.08,1.43.13,2.14,0.2l1.42,0.13c0.8,0.06,1.59.09,2.39,0.13l1.19,0.06q1.79,0.06,3.59.07h47.16V698.48H351.74v30.76Z"/><path class="cls-2" d="M351.74,729.25L353,729.6l-1.29-.36h0Z"/><path class="cls-2" d="M278.84,579.41v53.13q0,1.57,0,3.13c0,0.35,0,.69,0,1,0,0.7.06,1.4,0.1,2.09,0,0.41.06,0.82,0.09,1.23,0,0.63.09,1.26,0.15,1.88,0,0.44.09,0.88,0.14,1.32,0.06,0.6.13,1.2,0.2,1.79s0.12,0.9.19,1.35,0.16,1.16.25,1.74,0.15,0.91.23,1.37,0.2,1.14.3,1.71,0.18,0.91.27,1.36,0.23,1.14.36,1.7,0.21,0.9.32,1.35,0.18,0.75.27,1.12h41.7V579.41H278.84Z"/><path class="cls-2" d="M281.8,656.74h0q-0.14-.56-0.27-1.12C281.63,656,281.71,656.37,281.8,656.74Z"/><rect class="cls-2" x="429.46" y="698.48" width="74.89" height="34.69"/><rect class="cls-2" x="507.18" y="698.48" width="74.89" height="34.69"/><path class="cls-2" d="M323.51,698.48v-38.9h-41l0.12,0.43,0.3,1c0.14,0.48.29,1,.44,1.44l0.33,1q0.23,0.7.47,1.41l0.36,1q0.25,0.7.51,1.4l0.38,1c0.18,0.47.37,0.94,0.56,1.41l0.39,1c0.2,0.49.41,1,.62,1.46L287.4,673c0.23,0.53.48,1.06,0.72,1.58l0.34,0.75q0.55,1.16,1.12,2.3a101.62,101.62,0,0,0,40.82,42.65q1.16,0.65,2.33,1.27l0.76,0.39,1.6,0.82,0.94,0.45,1.46,0.69,1,0.46,1.42,0.63,1.05,0.44,1.4,0.57,1.08,0.42,1.4,0.53,1.1,0.4,1.39,0.48,1.13,0.38,0.41,0.13v-29.9H323.51Z"/><path class="cls-2" d="M282.55,659.57l0.13,0.43-0.12-.43h0Z"/><path class="cls-2" d="M348.9,728.38h0l-0.41-.13Z"/></g></svg>