<svg id="Слой_5" data-name="Слой 5" xmlns="http://www.w3.org/2000/svg" viewBox="0 0 284 284"><defs><style>.cls-1,.cls-2,.cls-3,.cls-4,.cls-5{fill:#fff;}.cls-1{opacity:0.05;}.cls-2{opacity:0.1;}.cls-3{opacity:0.3;}.cls-3,.cls-4,.cls-5{isolation:isolate;}.cls-4{opacity:0.5;}.cls-5,.cls-6{opacity:0.7;}</style></defs><title>4star_hotel</title><circle class="cls-1" cx="142" cy="142" r="142"/><circle class="cls-2" cx="142" cy="142" r="131.27"/><rect class="cls-3" x="85.49" y="179.2" width="113.09" height="5.34"/><rect class="cls-4" x="70.99" y="170.32" width="142.1" height="5.66"/><path class="cls-5" d="M207.31,158.41a5.75,5.75,0,0,0,.14-1.24V91.31a5.84,5.84,0,0,0-5.84-5.84H184c-0.15-6.76-6.59-12.76-16.52-16.58V68.21A6.19,6.19,0,0,0,161,62.38H123.08a6.19,6.19,0,0,0-6.46,5.84v0.68c-9.91,3.82-16.37,9.81-16.52,16.58H82.48a5.84,5.84,0,0,0-5.81,5.84V157.2a5.84,5.84,0,0,0,.14,1.24H71.29v8.15H212.8v-8.15h-5.49v0ZM140,71.74a1.54,1.54,0,0,1,1.07-.3h8.67a1.54,1.54,0,0,1,1.05.31,1.05,1.05,0,0,1,.35.82,1,1,0,0,1-.35.82,1.56,1.56,0,0,1-1.05.31h-3v9.81a1.8,1.8,0,0,1-.38,1.24,1.38,1.38,0,0,1-2,0A1.8,1.8,0,0,1,144,83.5V73.7H141.1a1.51,1.51,0,0,1-1.08-.33,1.14,1.14,0,0,1,0-1.61h0Zm15.5,42.72h-7.71a4,4,0,0,1,0-8h7.71A4,4,0,0,1,155.53,114.46Zm4,10.33a4,4,0,0,1-4,4h-7.71a4,4,0,0,1,0-8h7.71a4,4,0,0,1,4,4h0Zm-4-24.67h-7.71a4,4,0,0,1,0-8h7.71a4,4,0,0,1,.45,8h-0.45Zm-29-24.78a6.19,6.19,0,0,1,1.24-2.22,5.64,5.64,0,0,1,2.14-1.44,7.43,7.43,0,0,1,2.76-.48,7.22,7.22,0,0,1,3.61.85,5.54,5.54,0,0,1,2.28,2.48,8.3,8.3,0,0,1,.77,3.72,9,9,0,0,1-.42,2.85,6.19,6.19,0,0,1-1.24,2.22,5.56,5.56,0,0,1-2.08,1.44,8.21,8.21,0,0,1-5.67,0,5.64,5.64,0,0,1-2.13-1.49A6.19,6.19,0,0,1,126.57,81a9.11,9.11,0,0,1-.43-2.82,8.67,8.67,0,0,1,.43-2.91v0Zm2,16.79h7.71a4,4,0,0,1,0,8h-7.71a4,4,0,1,1,0-8.07v0Zm0,14.35h7.71a4,4,0,0,1,0,8h-7.71a4,4,0,1,1,0-8.08v0Zm0,14.35h7.71a4,4,0,0,1,0,8h-7.71a4,4,0,1,1,0-8.08v0Zm-6.12-35.65a1.24,1.24,0,0,1-1-.42,1.85,1.85,0,0,1-.37-1.24V79h-5.9v4.55a1.78,1.78,0,0,1-.38,1.24,1.31,1.31,0,0,1-1,.42,1.24,1.24,0,0,1-1-.42,1.85,1.85,0,0,1-.37-1.24V72.87a1.85,1.85,0,0,1,.37-1.24,1.24,1.24,0,0,1,1-.41,1.31,1.31,0,0,1,1,.41,1.78,1.78,0,0,1,.38,1.24v3.88h5.91V72.87a1.8,1.8,0,0,1,.37-1.24,1.24,1.24,0,0,1,1-.41,1.3,1.3,0,0,1,1,.41,1.78,1.78,0,0,1,.38,1.24V83.53a1.76,1.76,0,0,1-.38,1.24A1.24,1.24,0,0,1,122.42,85.19ZM160.58,156h-37.1v-1.46h1V135.13h35v19.45h1V156h0Zm2.29-71.38a1.4,1.4,0,0,1-1,.3h-7.43a1.44,1.44,0,0,1-1.69-1.67V73.12a2.29,2.29,0,0,1,.17-1,1.08,1.08,0,0,1,.55-0.55,2.3,2.3,0,0,1,1-.17h7.22a1.41,1.41,0,0,1,1,.28,1.09,1.09,0,0,1,0,1.54,1.41,1.41,0,0,1-1,.28h-6.19v3.32h5.67a1.35,1.35,0,0,1,.94.28,1,1,0,0,1,.31.74,1,1,0,0,1-.31.76,1.33,1.33,0,0,1-.94.28h-5.67v3.84h6.38a1.39,1.39,0,0,1,1,.3,1,1,0,0,1,.32.79A1,1,0,0,1,162.88,84.65Zm2.84-.1a1.77,1.77,0,0,1-.4-1.24V72.87a1.82,1.82,0,0,1,.37-1.24,1.24,1.24,0,0,1,1-.41,1.3,1.3,0,0,1,1,.41,1.77,1.77,0,0,1,.38,1.24v9.84h5.55a1.46,1.46,0,0,1,1,.32,1.05,1.05,0,0,1,.36.82,1,1,0,0,1-.35.81,1.51,1.51,0,0,1-1,.31H167a1.75,1.75,0,0,1-1.28-.45v0Zm36.09,59.32H168.06a3.93,3.93,0,0,1-.59,0v-8a4.16,4.16,0,0,1,.59,0h33.75v8Zm0-14.58H168.06a3.72,3.72,0,0,1-.59,0v-8a3.93,3.93,0,0,1,.59,0h33.75v8Zm0-14.58H168.06a4.14,4.14,0,0,1-.59,0v-8a4.14,4.14,0,0,1,.59,0h33.75v8Zm0-14.58H168.06a4.14,4.14,0,0,1-.59,0v-8a4.14,4.14,0,0,1,.59,0h33.75v8Zm-84.55,43.75H83.48a3.93,3.93,0,0,1-.59,0v-8a4.16,4.16,0,0,1,.59,0h33.77v8Zm0-14.58H83.48a3.72,3.72,0,0,1-.59,0v-8a3.93,3.93,0,0,1,.59,0h33.77v8Zm0-14.58H83.48a4.14,4.14,0,0,1-.59,0v-8a4.14,4.14,0,0,1,.59,0h33.77v8Zm0-14.58H83.48a4.14,4.14,0,0,1-.59,0v-8a4.14,4.14,0,0,1,.59,0h33.77v8Z"/><path class="cls-5" d="M130,81.68a3.43,3.43,0,0,0,1.24.92,3.63,3.63,0,0,0,4.81-1.78h0a7.21,7.21,0,0,0,0-5.28,3.57,3.57,0,0,0-1.36-1.65,3.95,3.95,0,0,0-3.56-.25,3.32,3.32,0,0,0-1.24.9,4.32,4.32,0,0,0-.79,1.51,6.85,6.85,0,0,0-.3,2.06,7,7,0,0,0,.3,2.08A4.31,4.31,0,0,0,130,81.68Z"/><g class="cls-6"><polygon class="cls-5" points="82.88 185.37 86.58 192.87 94.86 194.07 88.86 199.9 90.27 208.14 82.88 204.25 75.48 208.14 76.89 199.9 70.91 194.07 79.18 192.87 82.88 185.37"/><polygon class="cls-5" points="112.44 185.67 116.14 193.16 124.41 194.37 118.42 200.2 119.83 208.44 112.44 204.55 105.04 208.44 106.45 200.2 100.47 194.37 108.75 193.16 112.44 185.67"/><polygon class="cls-5" points="142 185.67 145.71 193.16 153.97 194.37 147.98 200.2 149.4 208.44 142 204.55 134.6 208.44 136.02 200.2 130.03 194.37 138.31 193.16 142 185.67"/><polygon class="cls-5" points="171.56 185.07 175.27 192.57 183.53 193.77 177.55 199.61 178.96 207.84 171.56 203.96 164.16 207.84 165.58 199.61 159.59 193.77 167.86 192.57 171.56 185.07"/><polygon class="cls-5" points="201.12 185.37 204.82 192.87 213.09 194.07 207.11 199.9 208.52 208.14 201.12 204.25 193.73 208.14 195.14 199.9 189.16 194.07 197.42 192.87 201.12 185.37"/></g></svg>