<svg id="Слой_5" data-name="Слой 5" xmlns="http://www.w3.org/2000/svg" viewBox="0 0 284 284"><defs><style>.cls-1,.cls-2,.cls-3,.cls-4,.cls-5{fill:#fff;}.cls-1{opacity:0.05;}.cls-2{opacity:0.1;}.cls-3{opacity:0.7;}.cls-3,.cls-4,.cls-5{isolation:isolate;}.cls-4{opacity:0.3;}.cls-5{opacity:0.5;}</style></defs><title>5star_hotel</title><circle class="cls-1" cx="142" cy="142" r="142"/><circle class="cls-2" cx="142" cy="142" r="131.27"/><path class="cls-3" d="M212.71,129.84v-6c-1-16.78-36.05-8.62-37.84,19.55v3.58C177.21,120.72,211.07,113.57,212.71,129.84Z"/><path class="cls-3" d="M212.71,121.61v-3c-0.44-17.24-36.54-8.21-37.85,21.63V142C176.44,113.17,212,104.64,212.71,121.61Z"/><path class="cls-3" d="M206.68,107.5l0.1-3.08c-6.69-1.87-17.41,4.32-24.64,13.62v0.23C189.33,109.36,200,105.58,206.68,107.5Z"/><path class="cls-3" d="M182,115c7.18-9.35,18.09-13.42,24.77-11.56v-1.53c-6.69-1.83-17.57,3.36-24.83,12.88V115H182Z"/><path class="cls-4" d="M181.86,134.08a26.5,26.5,0,0,0-7,15.35v3.63A24.35,24.35,0,0,1,182,138.94Z"/><path class="cls-3" d="M200.67,125.35a26.12,26.12,0,0,0-13.32,4.18q0,2.67.08,5.36a25.9,25.9,0,0,1,13.09-3.53Z"/><path class="cls-5" d="M212.71,134a9.3,9.3,0,0,0-6.63-7.88l-0.2,6.14a9.9,9.9,0,0,1,6.83,7.77v-6Z"/><path class="cls-4" d="M182.25,147.57q-0.08-2.51-.14-4.91a22.81,22.81,0,0,0-7.26,13.17v3.64A20.91,20.91,0,0,1,182.25,147.57Z"/><path class="cls-3" d="M200.42,135.87a25.85,25.85,0,0,0-12.93,3q0,2.67.08,5.36a26,26,0,0,1,12.7-2.37Z"/><path class="cls-5" d="M212.71,144.6a10.43,10.43,0,0,0-7-7.72l-0.2,6.14a11.3,11.3,0,0,1,7.17,7.53v-6h0Z"/><path class="cls-4" d="M182.49,156.16q-0.08-2.51-.14-4.91a19.62,19.62,0,0,0-7.53,10.92v3.58A18.09,18.09,0,0,1,182.49,156.16Z"/><path class="cls-3" d="M200.17,146.39a26.24,26.24,0,0,0-12.55,1.9q0,2.67.08,5.36A26.84,26.84,0,0,1,200,152.39Q200.09,149.43,200.17,146.39Z"/><path class="cls-5" d="M212.71,155.17a12,12,0,0,0-7.32-7.53l-0.2,6.14a13.08,13.08,0,0,1,7.53,7.39v-6h0Z"/><path class="cls-4" d="M182.74,164.75l-0.14-4.91a17.11,17.11,0,0,0-7.73,8.67v3.63A16.09,16.09,0,0,1,182.74,164.75Z"/><path class="cls-3" d="M199.9,157a27.53,27.53,0,0,0-12.16.75q0,2.67.08,5.36a28.87,28.87,0,0,1,12-.1Q199.84,159.93,199.9,157Z"/><path class="cls-5" d="M212.71,165.75a14.08,14.08,0,0,0-7.67-7.32l-0.2,6.15a15.69,15.69,0,0,1,7.87,7.21v-6Z"/><path class="cls-4" d="M183,173.28q-0.08-2.51-.14-4.91a15.6,15.6,0,0,0-8,6.43v3.63A15.39,15.39,0,0,1,183,173.28Z"/><path class="cls-3" d="M199.71,167.43a30.24,30.24,0,0,0-11.79-.39q0,2.67.08,5.36a32.79,32.79,0,0,1,11.57,1Q199.58,170.45,199.71,167.43Z"/><path class="cls-5" d="M212.71,176.3a17.19,17.19,0,0,0-8-7.13l-0.2,6.15a19.63,19.63,0,0,1,8.22,7v-6Z"/><path class="cls-4" d="M183.09,177a15.69,15.69,0,0,0-8.23,4.18v3.63a17,17,0,0,1,8.37-2.9Q183.17,179.46,183.09,177Z"/><path class="cls-3" d="M199.4,178A35.3,35.3,0,0,0,188,176.43q0,2.67.08,5.36A40,40,0,0,1,199.25,184Z"/><path class="cls-5" d="M212.71,186.87a22,22,0,0,0-8.37-6.94l-0.2,6.15a26.07,26.07,0,0,1,8.57,6.84v-6h0Z"/><path class="cls-5" d="M203.78,196.82a38.2,38.2,0,0,1,8.91,6.65v-6a30.25,30.25,0,0,0-8.71-6.75Z"/><path class="cls-3" d="M117.5,131.86v-4.47c-2.17-34.37-45-44.34-46.17-23.85v7.36C73.32,91,114.64,99.77,117.5,131.86Z"/><path class="cls-3" d="M117.5,125.78v-2.21c-1.59-36.4-45.69-47.41-46.17-26.36v3.68C72.21,80.15,115.61,90.56,117.5,125.78Z"/><path class="cls-3" d="M78.56,79.9q0,1.87.13,3.77c8.13-2.35,21.25,2.28,30,13.16v-0.2C99.89,85.41,86.73,77.61,78.56,79.9Z"/><path class="cls-3" d="M108.75,92.78a0.94,0.94,0,0,0,0-.18C100,81,86.62,74.56,78.46,76.8v1.87C86.73,76.4,100,81.37,108.75,92.78Z"/><path class="cls-4" d="M117.5,134.88A32.34,32.34,0,0,0,109,116.05l-0.18,6a29.7,29.7,0,0,1,8.71,17.24v-4.39Z"/><path class="cls-3" d="M102.26,110.52a31.86,31.86,0,0,0-16.24-5l0.18,7.33a31.6,31.6,0,0,1,16,4.24Q102.21,113.81,102.26,110.52Z"/><path class="cls-5" d="M79.67,113.91q-0.13-3.77-.24-7.53A11.3,11.3,0,0,0,71.34,116v7.37A12.09,12.09,0,0,1,79.67,113.91Z"/><path class="cls-4" d="M117.5,142.62a27.84,27.84,0,0,0-8.79-16.06l-0.18,6a25.52,25.52,0,0,1,9,14.49v-4.42H117.5Z"/><path class="cls-3" d="M102.11,122a31.52,31.52,0,0,0-15.78-3.77l0.18,7.33A31.67,31.67,0,0,1,102,128.46Q102.06,125.24,102.11,122Z"/><path class="cls-5" d="M80.08,127l-0.24-7.53a12.73,12.73,0,0,0-8.51,9.39v7.37A13.72,13.72,0,0,1,80.08,127Z"/><path class="cls-4" d="M117.5,150.35A23.94,23.94,0,0,0,108.36,137l-0.18,6a22.07,22.07,0,0,1,9.31,11.75v-4.42Z"/><path class="cls-3" d="M101.95,133.41a32,32,0,0,0-15.31-2.31l0.18,7.33A32.71,32.71,0,0,1,101.87,140Q101.9,136.69,101.95,133.41Z"/><path class="cls-5" d="M80.46,140.14q-0.13-3.77-.24-7.53a14.6,14.6,0,0,0-8.94,9.15v7.37A16,16,0,0,1,80.46,140.14Z"/><path class="cls-4" d="M117.5,158.08a20.88,20.88,0,0,0-9.43-10.58l-0.18,6a19.63,19.63,0,0,1,9.62,9v-4.42h0Z"/><path class="cls-3" d="M101.8,144.86a33.57,33.57,0,0,0-14.85-.92l0.18,7.33a35.24,35.24,0,0,1,14.59.11Q101.8,148.18,101.8,144.86Z"/><path class="cls-5" d="M80.93,153.26q-0.13-3.77-.24-7.53a17.19,17.19,0,0,0-9.36,8.93V162A19.16,19.16,0,0,1,80.93,153.26Z"/><path class="cls-4" d="M117.5,165.81a19,19,0,0,0-9.74-7.83l-0.18,6a18.83,18.83,0,0,1,9.92,6.28v-4.42h0Z"/><path class="cls-3" d="M101.64,156.3a36.93,36.93,0,0,0-14.39.48l0.18,7.33a40,40,0,0,1,14.11-1.26Q101.6,159.56,101.64,156.3Z"/><path class="cls-5" d="M81.36,166.38q-0.13-3.77-.24-7.53a21,21,0,0,0-9.79,8.7v7.37A24,24,0,0,1,81.36,166.38Z"/><path class="cls-4" d="M117.5,173.55a19.16,19.16,0,0,0-10-5.1l-0.18,6A20.75,20.75,0,0,1,117.5,178v-4.42Z"/><path class="cls-3" d="M101.48,167.73a43.12,43.12,0,0,0-13.92,1.87l0.18,7.33a48.87,48.87,0,0,1,13.65-2.67Z"/><path class="cls-5" d="M81.79,179.56L81.55,172a26.8,26.8,0,0,0-10.21,8.47v7.37A31.78,31.78,0,0,1,81.79,179.56Z"/><path class="cls-4" d="M117.5,181.29a23.16,23.16,0,0,0-10.34-2.36l-0.18,6a28.87,28.87,0,0,1,10.52.79v-4.42Z"/><path class="cls-3" d="M101.32,179.18a54.82,54.82,0,0,0-13.46,3.26L88,189.78a66.22,66.22,0,0,1,13.18-4.07Q101.28,182.45,101.32,179.18Z"/><path class="cls-5" d="M82,185.12a36.92,36.92,0,0,0-10.63,8.25v7.37a46.58,46.58,0,0,1,10.88-8.11Z"/><path class="cls-3" d="M171.76,77.88V70.1c-2.17-36-58.36-36-60.56,0v7.78C114.35,43.81,168.58,43.81,171.76,77.88Z"/><path class="cls-3" d="M171.76,67.3V63.43c-1.36-37.66-59.2-37.66-60.56,0V67.3C113.1,30.63,169.91,30.63,171.76,67.3Z"/><path class="cls-5" d="M122.37,73.41q-0.14-4.42-.28-8.79a26,26,0,0,0-10.9,18.63v7.68c0.1-.62.23-1.26,0.35-1.82A25.32,25.32,0,0,1,122.37,73.41Z"/><path class="cls-3" d="M152.14,60.3a36.4,36.4,0,0,0-21.34,0L131,69.4a37.31,37.31,0,0,1,21,0Q152,64.85,152.14,60.3Z"/><path class="cls-5" d="M171.76,83.2a26,26,0,0,0-11-18.63q-0.14,4.42-.28,8.79a25.38,25.38,0,0,1,11.17,17.57V83.2h0.06Z"/><path class="cls-5" d="M122.57,80a25.32,25.32,0,0,0-9.73,11.3,36.92,36.92,0,0,1,2.1,4.82,26.12,26.12,0,0,1,7.9-7.26Z"/><path class="cls-3" d="M151.82,76.22a38.16,38.16,0,0,0-20.7,0l0.18,9.1a39.43,39.43,0,0,1,20.35,0Z"/><path class="cls-5" d="M171.76,96.71A25,25,0,0,0,160.38,80l-0.28,8.79a24.72,24.72,0,0,1,11.65,15.58V96.71Z"/><path class="cls-5" d="M123.33,104.37l-0.28-8.79a27.06,27.06,0,0,0-6.67,5.32c0.56,2.16,1.08,4.56,1.54,7.23A28.5,28.5,0,0,1,123.33,104.37Z"/><path class="cls-3" d="M151.52,92.14a40.55,40.55,0,0,0-20.09,0l0.18,9.1a42.27,42.27,0,0,1,19.73,0Q151.43,96.71,151.52,92.14Z"/><path class="cls-5" d="M171.76,110.27a24.59,24.59,0,0,0-11.85-14.74q-0.14,4.42-.28,8.79A24.64,24.64,0,0,1,171.76,118v-7.78Z"/><path class="cls-5" d="M123.8,119.84l-0.28-8.79a29.74,29.74,0,0,0-4.71,2.94q0.49,3.77.88,8.17A31.6,31.6,0,0,1,123.8,119.84Z"/><path class="cls-3" d="M151.22,108a43.77,43.77,0,0,0-19.47,0l0.18,9.1a46.18,46.18,0,0,1,19.13,0Q151.13,112.61,151.22,108Z"/><path class="cls-5" d="M171.76,123.79A24.84,24.84,0,0,0,159.43,111l-0.28,8.79a25.45,25.45,0,0,1,12.55,11.67v-7.67h0.05Z"/><path class="cls-5" d="M124.28,135.31L124,126.52a33.2,33.2,0,0,0-3.77,1.95q0.26,4,.48,8.54A36.07,36.07,0,0,1,124.28,135.31Z"/><path class="cls-3" d="M150.91,124a48.34,48.34,0,0,0-18.83,0l0.18,9.1a51.78,51.78,0,0,1,18.5,0Z"/><path class="cls-5" d="M171.76,137.32A26.19,26.19,0,0,0,159,126.47q-0.14,4.42-.28,8.79A27.69,27.69,0,0,1,171.76,145v-7.67Z"/><path class="cls-5" d="M124.76,150.79q-0.14-4.42-.28-8.79a38.61,38.61,0,0,0-3.58,1.49q0.14,4.14.23,8.67A30.82,30.82,0,0,1,124.76,150.79Z"/><path class="cls-3" d="M150.61,139.9a55,55,0,0,0-18.25,0l0.18,9.1a60.37,60.37,0,0,1,17.9,0Q150.52,144.41,150.61,139.9Z"/><path class="cls-5" d="M171.76,150.84a29.37,29.37,0,0,0-13.28-8.94l-0.28,8.79a32.64,32.64,0,0,1,13.56,7.78v-7.63Z"/><path class="cls-5" d="M121.24,158.65q0,4.19.08,8.71,1.91-.62,3.92-1.09-0.14-4.42-.28-8.79A32.49,32.49,0,0,0,121.24,158.65Z"/><path class="cls-3" d="M150.3,155.82a65.46,65.46,0,0,0-17.64,0l0.18,9.1a74.87,74.87,0,0,1,17.3,0Q150.22,160.38,150.3,155.82Z"/><path class="cls-5" d="M171.76,164.37a36.08,36.08,0,0,0-13.81-7q-0.14,4.42-.28,8.79a42.93,42.93,0,0,1,14,5.84v-7.67h0.05Z"/><path class="cls-5" d="M125.65,181.73l-0.28-8.79c-1.41.29-2.77,0.63-4.12,1v8.7C122.72,182.26,124.21,182,125.65,181.73Z"/><path class="cls-3" d="M150,171.75a84.65,84.65,0,0,0-17,0q0.1,4.54.23,9.06a104.33,104.33,0,0,1,16.68,0Q149.9,176.3,150,171.75Z"/><path class="cls-5" d="M171.76,177.9a50.68,50.68,0,0,0-14.24-5l-0.28,8.79a67.49,67.49,0,0,1,14.51,3.89V177.9Z"/><path class="cls-4" d="M182.64,187.74l0.77,0.15v-2.3A20.7,20.7,0,0,0,176,187,43.71,43.71,0,0,1,182.64,187.74Z"/><path class="cls-3" d="M198.52,194.3l0.48,0.2,0.15-6a44.9,44.9,0,0,0-11-2.67v3.35A42.12,42.12,0,0,1,198.52,194.3Z"/><polygon class="cls-3" points="83.23 200.23 86.91 207.69 95.13 208.88 89.18 214.68 90.59 222.87 83.23 219 75.88 222.87 77.28 214.68 71.33 208.88 79.55 207.69 83.23 200.23"/><polygon class="cls-3" points="112.63 190.61 116.31 198.05 124.53 199.25 118.58 205.06 119.99 213.24 112.63 209.37 105.28 213.24 106.68 205.06 100.72 199.25 108.95 198.05 112.63 190.61"/><polygon class="cls-3" points="142.02 185.96 145.7 193.42 153.92 194.61 147.97 200.41 149.38 208.61 142.02 204.74 134.66 208.61 136.07 200.41 130.12 194.61 138.34 193.42 142.02 185.96"/><polygon class="cls-3" points="171.41 190.02 175.08 197.46 183.31 198.66 177.36 204.47 178.76 212.65 171.41 208.78 164.05 212.65 165.46 204.47 159.5 198.66 167.73 197.46 171.41 190.02"/><polygon class="cls-3" points="200.79 200.23 204.47 207.69 212.71 208.88 206.74 214.68 208.15 222.87 200.79 219 193.44 222.87 194.84 214.68 188.89 208.88 197.12 207.69 200.79 200.23"/></svg>