<svg id="Слой_1" data-name="Слой 1" xmlns="http://www.w3.org/2000/svg" viewBox="0 0 50 50"><defs><style>.cls-1{fill:none;}.cls-2{fill:#bc2424;}</style></defs><title>attention</title><path class="cls-1" d="M25,1A24,24,0,1,0,49,25,24,24,0,0,0,25,1Zm0,46.5A22.5,22.5,0,1,1,47.5,25,22.5,22.5,0,0,1,25,47.5Z"/><path class="cls-2" d="M25,0A25,25,0,1,0,50,25,25,25,0,0,0,25,0Zm0,49A24,24,0,1,1,49,25,24,24,0,0,1,25,49Z"/><path class="cls-2" d="M25,2.5A22.5,22.5,0,1,0,47.5,25,22.5,22.5,0,0,0,25,2.5Zm2.88,7.16L27.06,30.59H22.94L22.08,9.66h5.8ZM25,40.34A3.15,3.15,0,1,1,25,34,3.15,3.15,0,0,1,25,40.34Z"/></svg>