<svg id="Слой_1" data-name="Слой 1" xmlns="http://www.w3.org/2000/svg" viewBox="0 0 400 400"><defs><style>.cls-1{opacity:0.4;}.cls-2{fill:#fff;}</style></defs><title>ball</title><g class="cls-1"><path class="cls-2" d="M273.1,126.36c-3.63,4.62-6.9,8.56-9.93,12.68q-15.8,21.47-31.47,43a6.64,6.64,0,0,1-.78,1.24c-3,2.52-2.27,4.94,0,7.56,4.89,5.77,9.6,11.69,14.5,17.45,5.07,6,10.14,12,15.47,17.69,5.12,5.52,10.58,10.73,15.87,16.09A7.23,7.23,0,0,1,277,244l-75.67-17.65L167,282.84c-1.17-4.5-2.44-8.48-3.23-12.56q-2.67-13.79-4.92-27.66c-0.82-5-1.33-10.06-1.91-15.1-0.55-4.8-.8-9.64-1.68-14.37-0.22-1.18-2.24-2.37-3.68-2.91-7.14-2.67-14.43-4.94-21.53-7.7-11.21-4.36-22.3-9-34.6-14,8.51-3.95,15.9-7.57,23.45-10.84,11.17-4.84,22.47-9.4,33.67-14.18a3.6,3.6,0,0,0,2-2.29c0.66-5.92.87-11.9,1.66-17.81q2.2-16.51,4.93-33c0.78-4.71,2.48-9.29,3-14,0.21-1.8-1.2-4.23-2.58-5.71-10.26-11-18.61-23.37-26.32-36.22a9.49,9.49,0,0,0-1.33-1.1L85,71.74c2.32-2.74,4.74-6.34,7.86-9.16,9.86-8.93,19.93-17.64,30.05-26.27,1.73-1.48,2-2.35.7-4.18C120,27.1,116.64,22,113,16.6c1.8-.35,4-0.94,6.19-1.18,5.68-.61,11.36-1.15,17.06-1.57,5-.37,10-0.66,15-0.73,2.84,0,5.74.91,8.52,0.58A67.93,67.93,0,0,0,173,10.95c10.9-3.61,21.95-6.51,33.38-7.68C217.51,2.13,228.68,1.29,240,1c-11.94,5.21-23.35,11-32.83,19.54l44,16.85-0.34,1.08c-6,.36-12,0.63-18.05,1.09-12.26.94-24.52,2-36.77,3-2.34.19-4.7,0.84-7,.68-2.6-.18-3.69,1.21-4.86,3.05a136.91,136.91,0,0,0-18.44,46.39c-0.47,2.27,1.4,5.32,2.8,7.63,6.89,11.37,14,22.63,21,33.9,0.92,1.46,2.17,2.71,3.15,4.14,5.89,8.58,5.81,8.37,15.68,5.49,17.69-5.16,35.45-10.06,53.21-15C265,127.84,268.64,127.29,273.1,126.36Z"/><path class="cls-2" d="M96.2,188.14c-3.86,3.57-7.05,6.32-10,9.31C76,207.83,65.91,218.35,55.65,228.68c-3.94,4-1.51,8-.18,11.65,4.12,11.31,8.65,22.47,13.14,33.64,0.94,2.34,2.36,4.48,4.08,7.69-13.53-7-24.89-15.31-36.59-24-6.43,10.56-10.84,21.87-14.55,34C20.38,288.29,19,285,18,281.69A129.38,129.38,0,0,1,12.72,239a10.94,10.94,0,0,0-2.09-6.82c-3.69-5.76-6.59-12-10-18-1.58-2.79,0-4.31,1.94-5.48,4.34-2.59,8.76-5,13.26-7.33,2.14-1.09,3.06-2.44,3.83-4.83A162.51,162.51,0,0,1,34.55,163a9.46,9.46,0,0,1,.95-1.57c4.88-5.39,3.71-10.15-.46-15.65-3.91-5.15-6.57-11.25-10.4-18L3.33,160.1c-0.11-8,7.87-38.75,24.38-65.39C40.54,74,55.94,55.71,75.17,40.6A192.52,192.52,0,0,0,56.2,76l26.9-3.48,0.35,0.95c-2.76,2.2-5.58,4.34-8.28,6.62C67,87,58.83,94,50.56,100.87a15.41,15.41,0,0,0-5.34,9.44c-2.72,13.91-5.23,27.9-4.46,42.1,0.7,13,2.37,25.94,3.77,38.88,0.07,0.64,1.69,1.66,2.5,1.58,9.74-.94,19.46-2.11,29.2-3.09C82.52,189.15,88.83,188.74,96.2,188.14Z"/><path class="cls-2" d="M291.14,327c5.24-7.75,10.58-15.43,15.7-23.25,4-6.06,7.68-12.28,11.68-18.7a280.23,280.23,0,0,1-40.11-40.51c14.9,0.38,30.08.91,45.26,1.05,5.05,0,10.13-.82,15.16-1.51a4.06,4.06,0,0,0,2.57-2.12c6-13.2,12.06-26.4,17.82-39.72,2.92-6.76,5.27-13.76,7.92-20.64a22.45,22.45,0,0,1,2-3c1.32,12.69,2.57,24.31,3.74,35.94,0.57,5.68,1,11.38,1.51,17.07,0.24,2.92,1,3.13,3.79,1.8,8.58-4.15,15.48-10.18,21.83-17.41-0.5,2.52-.91,5.05-1.51,7.54s-1.35,5-2.08,7.45a132.48,132.48,0,0,1-20.83,42.15c-2,2.7-2.07,7-2.67,10.58-1.91,11.59-4.76,22.88-10.08,33.44-0.23.45-.5,0.87-0.71,1.23l-15.86-15.85a153.47,153.47,0,0,1-55.21,24.38Z"/><path class="cls-2" d="M202.18,366l-43,2.43c0.49,9.72,1.54,19.4,5.68,29.29-3.88-1.47-7.84-2.79-11.64-4.45-12.8-5.59-23-14.72-32.26-24.82a18.64,18.64,0,0,0-11.17-5.81,131.71,131.71,0,0,1-36.62-12.14C66,346.87,58.91,343,53.47,336.35c14.28,3.27,27.52.4,40.55-4.18L72.28,283.68l1.34-.9c3.82,3.32,7.52,6.8,11.5,9.92C96,301.23,107,309.58,117.94,318.07c2.64,2.06,4.67.06,6.37-1.1,8.23-5.64,16.46-11.33,24.31-17.49,6.16-4.83,11.76-10.37,18.29-16.2-0.7,4.91-1.29,9.17-1.92,13.44-1.17,7.93-2.43,15.85-3.51,23.8-0.87,6.37-1.52,12.78-2.28,19.17-0.32,2.68.19,4.69,3,6.08C175.33,352.26,188.35,359,202.18,366Z"/><path class="cls-2" d="M273.83,126.21c8.27-10.61,16.45-21,24.5-31.52a49,49,0,0,0,5.05-8.16,4.27,4.27,0,0,0-.45-3.89c-7.09-7.19-14.08-14.52-21.65-21.18-8.84-7.79-18.23-15-27.41-22.42A199.35,199.35,0,0,1,318,58.21l2.8-21.7C326.43,43.59,332.09,50,336.93,57c4,5.73,6.79,12.24,10.45,18.2a30.68,30.68,0,0,0,6.34,7.31A111.8,111.8,0,0,1,377.44,110c3.73,6.09,7.23,12.32,10.82,18.5,0.39,0.67.67,1.42,1.27,2.73a58.68,58.68,0,0,0-24.91-10.38l4.87,57-1.06.34c-1.52-2.6-3.07-5.19-4.55-7.81-5.52-9.74-10.78-19.63-16.59-29.18-4.48-7.35-9.58-14.32-14.6-21.32a5.06,5.06,0,0,0-3.88-1.71c-9.63.83-19.28,1.59-28.83,3-8.37,1.25-16.61,3.35-24.91,5A5.2,5.2,0,0,1,273.83,126.21Z"/><path class="cls-2" d="M291.06,326.86v36.41a152.7,152.7,0,0,0,46.75-17.68c-38.69,35.72-84.11,54.57-137.7,55,5.76-2.16,10.86-3.83,15.76-6s9.62-4.74,14.66-7.26l-27.72-20.62,0.67-1c6.35,0.72,12.68,1.64,19,2.1,4.88,0.35,9.81.12,14.71,0.14,3.27,0,6.64-.51,9.79.1,7.84,1.54,12.54-3.12,17.07-8.06,4.78-5.21,9.37-10.61,13.85-16.08,3.83-4.68,7.4-9.57,11.1-14.36,0.68-.88,1.41-1.72,2.11-2.58Z"/></g></svg>