<svg id="Слой_5" data-name="Слой 5" xmlns="http://www.w3.org/2000/svg" viewBox="0 0 284 284"><defs><style>.cls-1,.cls-2,.cls-3,.cls-4,.cls-5{fill:#fff;}.cls-1{opacity:0.05;}.cls-2{opacity:0.1;}.cls-3{opacity:0.3;}.cls-3,.cls-4,.cls-5{isolation:isolate;}.cls-4{opacity:0.7;}.cls-5{opacity:0.5;}</style></defs><title>emotions</title><circle class="cls-1" cx="142" cy="142" r="142"/><circle class="cls-2" cx="142" cy="142" r="131.27"/><path class="cls-3" d="M171.44,173.63L185.82,147c10.35,0.59,20.56-5.56,26.88-16.45,7-12.07,14.35-31.8-12.39-51.17h0l0.31,13.55c0.2,8.27.31,13.25-5.05,18.19a11,11,0,0,1-2.13,1.4c-2.82-6.64-7.81-11.71-13.28-13.3L140,87.55c-5.2-1.52-14.79,1.37-21.4,6.44l-0.12.09a4.2,4.2,0,0,1-1.15-1.15c-13-20,5.34-41.69-.79-41.41h0L107.84,55c-12.65,6.9-19.83,27-18.66,41.41,0.52,6.4,3.16,15.25,7.89,20.63a27.39,27.39,0,0,0,11.58,8.05l0.16,29.78c-23.69-1.85-40.26,3.75-43.48,15-4.72,16.17,20.26,36.7,58.09,47.74s69.93,7.17,74.65-9C201.26,197.62,191.35,184.7,171.44,173.63Zm-47.16,41.06C88.61,204.34,64,184.91,68.16,170.56c3.06-10.48,20.53-15,43.61-12.54l-0.15-25.86V123a25.31,25.31,0,0,1-12.31-7.9c-4.33-4.87-6.78-13.18-7.25-18.91C91,82.92,97.82,63.81,109.23,57.56L113.92,55l-1.55,5.14c-2.12,6.9-6.07,24.16,2.75,34.72a10.91,10.91,0,0,0,3.78,2.7c0.48-.44,1-0.87,1.51-1.28,6.36-4.85,15-7,18.82-5.91l17.45,5.1,4.2,1.22,18.49,5.4c5.38,1.56,10.28,7.32,12.44,14.47a20.59,20.59,0,0,0,5.75-3.22c6.33-5.82,6.19-11.94,6-20.4l-0.15-6.43,3.82,3.7c11.27,10.92,9.44,27.86,3,39C204,139.84,194,145.39,184.19,144l-7.11,13.18-9.51,17.66c19.36,10.19,30.68,22.77,27.74,32.84C191.1,222,159.94,225.09,124.28,214.69Z"/><path class="cls-4" d="M167.55,174.81l-11.64,21.66c-0.55,1.75-2.47,5.06-23.17,1h0l-1.93-.4h0l-2.3-.48V196.5c-4.6-1.36-13.22-4.2-16-9.61a7.91,7.91,0,0,1-.58-6.09L111.75,158c-22-2.4-37.2,6.18-39.42,13.8-3,10.35,17.62,28.34,53.15,38.71s62.61,6.27,65.57-4.06C193.22,199.18,185.72,184.33,167.55,174.81Z"/><path class="cls-3" d="M118,100.44l-1.48-.82a12.45,12.45,0,0,1-3.65-2.91c-7.48-9-6.79-21.86-4.89-31.16L109,60.38l-3.55,3.89C98.76,71.63,94.14,85.53,95,95.92c0.43,5.42,2.83,13.13,6.45,17.24a22,22,0,0,0,9.59,6.56l2,0.72Z"/><path class="cls-3" d="M186.31,141.25c8.14,0.47,16.11-4.6,21.36-13.62,4.37-7.52,7.41-20,1.54-30.23l-2.62-4.6-0.09,5.29c-0.12,6.63-1.35,12.11-7,17.26a24.91,24.91,0,0,1-7.37,4.14l-1.06.41,0.14,1.15C192.06,127.2,186.31,141.25,186.31,141.25Z"/><path class="cls-5" d="M114.74,181.33c-0.51,1.48.35,4,1,5.33,1.61,3.11,5.54,4.6,13.56,7l1.38,0.41,10.08-33.56,2.36-8.13-1.79-.52q-1.88-.55-3.69-1.15l-0.74-.29-0.47-.17c-0.82-.29-1.62-0.59-2.43-0.9l-1.09-.44-0.24-.1q-1.1-.45-2.17-0.93l-1.33-.6q-1.07-.51-2.12-1l-0.32-.16-0.92-.47c-0.76-.4-1.5-0.81-2.23-1.23l-0.4-.23-0.58-.32c-1-.62-2.08-1.27-3.15-2l-0.13-.09c-0.85-.56-1.69-1.15-2.51-1.73l-2.3-1.69,0.23,42.8Z"/><path class="cls-5" d="M145.38,149.88l-0.4,1.47,2.3,0.55,1.45,0.31,2.15,0.43,1.48,0.26,2.22,0.35h0.32l1.15,0.16c0.79,0.1,1.59.2,2.39,0.28h0.45l0.86,0.22c1,0.09,2,.17,3,0.24h0.76q1.89,0.12,3.8.17h8l9.76-18.1,0.08-.08c3.12-9.4,6.26-27.54-6.59-31.28L158.8,99.11l-0.36,1.48C154.76,115.83,150.49,132,145.38,149.88Z"/></svg>