<svg id="Слой_2" data-name="Слой 2" xmlns="http://www.w3.org/2000/svg" viewBox="0 0 65.7 62.83"><defs><style>.cls-1{fill:#fff;}</style></defs><title>put_02</title><path class="cls-1" d="M1.1,62.8H7.7a1.11,1.11,0,0,0,1.1-1.1V25.9a0.91,0.91,0,0,0-.4-0.8L1.8,18.8a1.06,1.06,0,0,0-1.8.8V61.7A1.11,1.11,0,0,0,1.1,62.8Z" transform="translate(0 0.03)"/><path class="cls-1" d="M17.2,62.8h6.3a1.11,1.11,0,0,0,1.1-1.1V40.6a1.14,1.14,0,0,0-.3-0.8L18,33.6a1,1,0,0,0-1.8.8V61.8A0.94,0.94,0,0,0,17.2,62.8Z" transform="translate(0 0.03)"/><path class="cls-1" d="M32.1,35.1V61.7a1.11,1.11,0,0,0,1.1,1.1H40a1.11,1.11,0,0,0,1.1-1.1V28.4a1.09,1.09,0,0,0-1.8-.8l-6.8,6.7A1.2,1.2,0,0,0,32.1,35.1Z" transform="translate(0 0.03)"/><path class="cls-1" d="M55.7,62.8H49.5a1.11,1.11,0,0,1-1.1-1.1v-16a1.11,1.11,0,0,1,1.1-1.1h6.2a1.11,1.11,0,0,1,1.1,1.1v16A1.11,1.11,0,0,1,55.7,62.8Z" transform="translate(0 0.03)"/><path class="cls-1" d="M0.3,9L23.9,32.6a1.09,1.09,0,0,0,1.5,0l15-13.5a1.09,1.09,0,0,1,1.5,0L52.7,30.3a1.09,1.09,0,0,1,0,1.5l-4.5,4.9a1.09,1.09,0,0,0,.8,1.8H64.6a1.11,1.11,0,0,0,1.1-1.1V21.6a1.09,1.09,0,0,0-1.8-.8l-4.8,4.5a1,1,0,0,1-1.5-.1L41.8,8a1,1,0,0,0-1.5,0l-15,14.4a1.09,1.09,0,0,1-1.5,0L1.8,0.3A1,1,0,0,0,0,1V8.2A1.14,1.14,0,0,0,.3,9Z" transform="translate(0 0.03)"/></svg>