<svg id="Слой_1" data-name="Слой 1" xmlns="http://www.w3.org/2000/svg" viewBox="0 0 36.67 33.9"><title>Безымянный-4</title><path id="WhatsApp" d="M36.54,25.08c-.23-.37-.83-.6-1.73-1s-5.34-2.61-6.16-2.91-1.43-.45-2,.45-2.33,2.91-2.86,3.51-1.05.67-2,.22a24.67,24.67,0,0,1-7.25-4.44,27,27,0,0,1-5-6.2c-.53-.9-.06-1.38.4-1.83s.9-1,1.35-1.57a6.09,6.09,0,0,0,.9-1.49,1.64,1.64,0,0,0-.07-1.57c-.23-.45-2-4.85-2.78-6.64S7.82.07,7.29.07,6.16,0,5.56,0A3.33,3.33,0,0,0,3.16,1.12,10,10,0,0,0,0,8.59C0,13,3.23,17.25,3.68,17.84s6.24,9.93,15.41,13.51,9.17,2.39,10.83,2.24,5.34-2.16,6.09-4.25a7.45,7.45,0,0,0,.53-4.26Z" style="fill:#fff"/></svg>