<svg id="Слой_2" data-name="Слой 2" xmlns="http://www.w3.org/2000/svg" viewBox="0 0 63 63.6"><defs><style>.cls-1{fill:#fff;}</style></defs><title>call_02</title><path class="cls-1" d="M0,46.2V62.5a1.11,1.11,0,0,0,1.1,1.1H7.7a1.11,1.11,0,0,0,1.1-1.1V40.2A1.09,1.09,0,0,0,7,39.4l-6.6,6A0.91,0.91,0,0,0,0,46.2Z" transform="translate(0 0)"/><path class="cls-1" d="M32,46.2V62.5a1.11,1.11,0,0,0,1.1,1.1h6.6a1.11,1.11,0,0,0,1.1-1.1V40.2a1.09,1.09,0,0,0-1.8-.8l-6.6,6A0.91,0.91,0,0,0,32,46.2Z" transform="translate(0 0)"/><path class="cls-1" d="M15.9,36.6V62.5A1.11,1.11,0,0,0,17,63.6h6.7a1.11,1.11,0,0,0,1.1-1.1V42.8a1.14,1.14,0,0,0-.3-0.8l-6.7-6.2A1.15,1.15,0,0,0,15.9,36.6Z" transform="translate(0 0)"/><path class="cls-1" d="M56.8,23.8V62.4a1.11,1.11,0,0,1-1.1,1.1H49a1.11,1.11,0,0,1-1.1-1.1V30a1.14,1.14,0,0,1,.3-0.8L54.9,23A1.15,1.15,0,0,1,56.8,23.8Z" transform="translate(0 0)"/><path class="cls-1" d="M0,34.3V27.2a1.14,1.14,0,0,1,.3-0.8L13.9,13a1.09,1.09,0,0,1,1.5,0L28.9,27.5a1.09,1.09,0,0,0,1.5,0L50.6,7.8a1.09,1.09,0,0,0,0-1.5l-5-4.4A1.09,1.09,0,0,1,46.3,0H61.9A1.11,1.11,0,0,1,63,1.1V16a1.09,1.09,0,0,1-1.8.8l-4.6-4.3a1.09,1.09,0,0,0-1.5,0L30.6,37.1a1.09,1.09,0,0,1-1.5,0L14.4,22.8,1.8,35A1,1,0,0,1,0,34.3Z" transform="translate(0 0)"/></svg>