<svg id="Слой_1" data-name="Слой 1" xmlns="http://www.w3.org/2000/svg" viewBox="0 0 32 26.09"><defs><style>.cls-1{fill:#36a9e1;}</style></defs><title>1471016819_twitter</title><path class="cls-1" d="M32,3.12a13,13,0,0,1-3.77,1A6.59,6.59,0,0,0,31.12.49,13.14,13.14,0,0,1,27,2.08a6.57,6.57,0,0,0-11.19,6A18.64,18.64,0,0,1,2.23,1.24a6.57,6.57,0,0,0,2,8.76,6.54,6.54,0,0,1-3-.82v.08A6.57,6.57,0,0,0,6.49,15.7a6.59,6.59,0,0,1-3,.11,6.57,6.57,0,0,0,6.13,4.56,13.17,13.17,0,0,1-8.15,2.81A13.26,13.26,0,0,1,0,23.09a18.59,18.59,0,0,0,10.06,3C22.13,26,28.73,16,28.73,7.37V6.52A13.32,13.32,0,0,0,32,3.12Z" transform="translate(0 0)"/></svg>