<svg xmlns="http://www.w3.org/2000/svg" viewBox="0 0 649.3 139.2"><circle cx="66.2" cy="66.2" r="66.2" fill="#f70" class="svg-logo-circle"/><g fill="#fff" class="svg-logo-lines"><path d="M36.1 53.7c-4.8 0-9 3.9-9 8.6v31.9c0 4.8 4.2 8.6 9 8.6s9-3.9 9-8.6V62.3c0-4.8-4.3-8.6-9-8.6zM94.6 22.8c-5.3 0-9.5 4.3-9.5 9.6v61.7c0 5.3 4.2 9.6 9.5 9.6s9.5-4.3 9.5-9.6V32.4c0-5.3-4.3-9.6-9.5-9.6zM65.1 40.5c-4.6 0-8 3.7-8 8.3v46.7c0 4.6 3.4 8.3 8 8.3s8-3.7 8-8.3V48.8c0-4.6-3.5-8.3-8-8.3z"/></g><g fill="#fff" class="svg-logo-text"><path d="M214.1 78.9c-5.3 1.8-14.4 2.8-20.5 2.8h-4.9V38.5c-2.9.4-5.6 1-7.6 1.7V28c5.4-1.8 14.5-2.8 20.5-2.8h4.8v43.1c2.9-.4 5.6-.9 7.6-1.7v12.3zM188.7 4.3h17.7v14.6h-17.7V4.3zM253.4 74l-4 2.8c-5.2 3.5-9.7 5.7-15.8 5.7-11.7 0-18.1-6.9-18.1-18.6V52.7c0-16.9 12.9-27.4 29.8-27.4h25.8v75.8h-17.7V74zm0-12.9V39.8h-6.5c-8.9 0-13.6 4-13.6 12.9v8c0 4.4 2 6.4 6.4 6.4 3.2 0 7.2-2 10.5-4l3.2-2zM294.8 53.5c0-20.2 10.5-29.1 29-29.1 19.4 0 29.1 8.9 29.1 29.1 0 21.7-9.7 29-29.1 29-18.5 0-29-7.3-29-29zm40.3 0c0-10.1-3.3-13.7-11.4-13.7-8 0-11.2 3.6-11.2 13.7 0 10 3.2 13.6 11.2 13.6 8.1 0 11.4-3.6 11.4-13.6zM352.5 28c5.4-1.8 14.5-2.8 20.5-2.8h4.8v7.6l4-2.8c5.2-3.6 9.7-5.7 15.8-5.7 11.7 0 18.1 6.9 18.1 18.6v11.2c0 16.9-12.9 27.4-29.8 27.4h-8v19.4h-17.7V38.5c-2.9.4-5.6 1-7.6 1.7V28zm25.4 17.8v21.4h6.6c8.8 0 13.6-4 13.6-12.9v-8c0-4.4-2.1-6.4-6.5-6.4-3.2 0-7.1 2-10.5 4l-3.2 1.9zM457.1 80.4c-3.8 1.3-7.7 2.1-11.5 2.1-13.1 0-22.4-7-22.4-21.8V39.8h-8.9V25.2h8.9V10.8H441v14.4h14.4v14.5H441v16.9c0 8.2 3.1 11.2 8.9 11.2 2.2 0 4.5-.7 7.2-2v14.6zM485.8 78.9c-5.3 1.8-14.4 2.8-20.5 2.8h-4.8v-42c-3.3.2-5 .1-7.6.1V25.2h25.4v43.1c2.9-.4 5.6-.9 7.6-1.7v12.3zM460.4 4.3h17.7v14.6h-17.7V4.3zM485.6 53.5c0-20.2 10.5-29.1 29-29.1 19.4 0 29.1 8.9 29.1 29.1 0 21.7-9.7 29-29.1 29-18.5 0-29-7.3-29-29zm40.3 0c0-10.1-3.3-13.7-11.4-13.7-8 0-11.2 3.6-11.2 13.7 0 10 3.2 13.6 11.2 13.6 8.1 0 11.4-3.6 11.4-13.6zM613.5 78.9c-5.4 1.8-14.5 2.8-20.5 2.8h-4.9V47c0-4.4-.8-7.2-5.3-7.2-3.2 0-7.2 2.5-10.9 4.9l-3.2 2v35.1H551V38.5c-2.9.4-5.6 1-7.6 1.7V28c5.4-1.8 14.5-2.8 20.5-2.8h4.9v8.6l2.5-1.7c6.4-4.6 11.2-7.7 18.5-7.7 10.9 0 16.2 6.9 16.2 17.7v26.2c2.8-.4 5.5-.9 7.6-1.7v12.3zM613.5 78.9c-5.4 1.8-14.5 2.8-20.5 2.8h-4.9V47c0-4.4-.8-7.2-5.3-7.2-3.2 0-7.2 2.5-10.9 4.9l-3.2 2v35.1H551V38.5c-2.9.4-14.8 3.3-16.9 4V30.3c5.4-1.8 23.8-5.1 29.8-5.1h4.9v8.6l2.5-1.7c6.4-4.6 11.2-7.7 18.5-7.7 10.9 0 16.2 6.9 16.2 17.7v26.2c2.8-.4 5.5-.9 7.6-1.7v12.3zM205.9 107.5V124c0 2.7-.8 4.7-2.4 6.1-1.6 1.4-3.8 2.1-6.4 2.1-2.6 0-4.7-.7-6.3-2.1s-2.4-3.5-2.4-6.1v-16.6h2V124c0 2.1.6 3.7 1.8 4.8 1.2 1.1 2.8 1.7 4.8 1.7s3.7-.6 4.9-1.7c1.3-1.1 1.9-2.7 1.9-4.8v-16.6h2.1zM214.1 131.9h-2v-26.2h2v26.2zM223.3 109.1v4.7h4v1.6h-4v11.8c0 1.2.2 2 .6 2.5.4.5 1 .7 1.7.7h.9c.3 0 .7-.1 1.1-.1l.3 1.5c-.3.1-.7.3-1.2.3-.5.1-1 .1-1.4.1-1.3 0-2.3-.4-3-1.2-.7-.8-1.1-2.1-1.1-3.8v-11.8h-3.1v-1.6h3.1v-4.7h2.1zM234.4 108.5h-2v-2.8h2v2.8zm0 23.4h-2v-18.2h2v18.2zM242.1 113.7l.2 3c.6-1.1 1.4-1.9 2.3-2.5s2.1-.9 3.5-.9 2.5.3 3.5 1c.9.7 1.6 1.7 2 3.1.5-1.3 1.3-2.3 2.3-3 1-.7 2.2-1.1 3.7-1.1 1.9 0 3.4.6 4.5 1.9 1.1 1.3 1.6 3.3 1.6 6v10.6h-2v-10.6c0-2.2-.4-3.8-1.2-4.8-.8-.9-1.9-1.4-3.3-1.4-1.6 0-2.8.5-3.6 1.5s-1.4 2.2-1.6 3.8v11.5h-2v-10.6c0-2.2-.4-3.8-1.2-4.7-.8-.9-1.9-1.4-3.3-1.4s-2.5.4-3.4 1.1-1.4 1.7-1.8 2.9v12.8h-2v-18.2h1.8zM282.9 131.9c-.1-.6-.2-1.1-.3-1.6-.1-.4-.1-.9-.1-1.4-.7 1-1.6 1.7-2.7 2.4s-2.4.9-3.8.9c-1.8 0-3.1-.5-4.1-1.4-1-.9-1.5-2.2-1.5-3.8 0-1.7.7-3 2.2-4 1.4-1 3.4-1.5 5.9-1.5h4v-2.2c0-1.3-.4-2.3-1.3-3.1-.8-.7-2-1.1-3.5-1.1-1.4 0-2.6.4-3.5 1.1-.9.7-1.4 1.6-1.4 2.6H271v-.1c-.1-1.4.6-2.6 1.9-3.6 1.3-1.1 3-1.6 5-1.6s3.6.5 4.8 1.5c1.2 1 1.8 2.5 1.8 4.4v8.9c0 .6 0 1.3.1 1.9s.2 1.2.4 1.8h-2.1zm-6.6-1.4c1.4 0 2.7-.3 3.8-1 1.1-.7 1.9-1.5 2.4-2.6v-3.8h-4c-1.8 0-3.3.4-4.4 1.2-1.1.8-1.6 1.7-1.6 2.9 0 1 .3 1.8 1 2.4.7.6 1.6.9 2.8.9zM293.6 109.1v4.7h4v1.6h-4v11.8c0 1.2.2 2 .6 2.5.4.5 1 .7 1.7.7h.9c.3 0 .7-.1 1.1-.1l.3 1.5c-.3.1-.7.3-1.2.3-.5.1-1 .1-1.4.1-1.3 0-2.3-.4-3-1.2-.7-.8-1.1-2.1-1.1-3.8v-11.8h-3.1v-1.6h3.1v-4.7h2.1zM309.2 132.3c-2.3 0-4.2-.8-5.7-2.5s-2.3-3.8-2.3-6.4v-.9c0-2.6.7-4.8 2.2-6.5 1.5-1.7 3.3-2.6 5.4-2.6 2.2 0 4 .7 5.3 2.1 1.3 1.4 1.9 3.3 1.9 5.6v1.7h-12.8v.5c0 2 .5 3.8 1.6 5.1 1.1 1.4 2.5 2.1 4.3 2.1 1.3 0 2.3-.2 3.2-.5.9-.3 1.6-.8 2.3-1.5l.9 1.4c-.7.7-1.5 1.3-2.6 1.7-1 .5-2.3.7-3.7.7zm-.3-17.2c-1.5 0-2.7.6-3.7 1.7s-1.6 2.6-1.8 4.3v.1H314v-.5c0-1.6-.5-2.9-1.4-4-.8-1-2.1-1.6-3.7-1.6zM332.6 109.1v4.7h4v1.6h-4v11.8c0 1.2.2 2 .6 2.5.4.5 1 .7 1.7.7h.9c.3 0 .7-.1 1.1-.1l.3 1.5c-.3.1-.7.3-1.2.3s-1 .1-1.4.1c-1.3 0-2.3-.4-3-1.2s-1.1-2.1-1.1-3.8v-11.8h-3.1v-1.6h3.1v-4.7h2.1zM349.8 115.5l-1.5-.1c-1.3 0-2.3.4-3.1 1.1s-1.4 1.7-1.7 2.9v12.5h-2v-18.2h1.8l.3 3v.2c.5-1.1 1.2-2 2.1-2.6.9-.6 1.9-.9 3.2-.9.3 0 .5 0 .7.1.2 0 .4.1.6.1l-.4 1.9zM365.1 131.9c-.1-.6-.2-1.1-.3-1.6-.1-.4-.1-.9-.1-1.4-.7 1-1.6 1.7-2.7 2.4s-2.4.9-3.8.9c-1.8 0-3.1-.5-4.1-1.4-1-.9-1.5-2.2-1.5-3.8 0-1.7.7-3 2.2-4 1.4-1 3.4-1.5 5.9-1.5h4v-2.2c0-1.3-.4-2.3-1.3-3.1-.8-.7-2-1.1-3.5-1.1-1.4 0-2.6.4-3.5 1.1-.9.7-1.4 1.6-1.4 2.6h-1.8v-.1c-.1-1.4.6-2.6 1.9-3.6 1.3-1.1 3-1.6 5-1.6s3.6.5 4.8 1.5c1.2 1 1.8 2.5 1.8 4.4v8.9c0 .6 0 1.3.1 1.9.1.6.2 1.2.4 1.8h-2.1zm-6.6-1.4c1.4 0 2.7-.3 3.8-1 1.1-.7 1.9-1.5 2.4-2.6v-3.8h-4c-1.8 0-3.3.4-4.4 1.2-1.1.8-1.6 1.7-1.6 2.9 0 1 .3 1.8 1 2.4.7.6 1.6.9 2.8.9zM371.8 123c0-2.9.6-5.2 1.8-7 1.2-1.7 2.9-2.6 5.1-2.6 1.3 0 2.4.3 3.3.8.9.5 1.7 1.3 2.3 2.3v-10.8h2v26.2h-1.8l-.2-2.6c-.6 1-1.4 1.7-2.3 2.2s-2.1.8-3.4.8c-2.2 0-3.9-.8-5.1-2.4-1.2-1.6-1.8-3.8-1.8-6.5v-.4zm2 .3c0 2.2.4 4 1.3 5.3.9 1.3 2.2 2 4 2 1.3 0 2.4-.3 3.2-.9.9-.6 1.5-1.4 2-2.4v-8.6c-.5-1.1-1.1-1.9-1.9-2.6-.8-.7-1.9-1-3.3-1-1.8 0-3.1.7-4 2.2-.9 1.5-1.3 3.3-1.3 5.7v.3zM394.5 108.5h-2v-2.8h2v2.8zm0 23.4h-2v-18.2h2v18.2zM402.4 113.7l.2 3.2c.6-1.1 1.4-2 2.4-2.6 1-.6 2.2-.9 3.5-.9 2 0 3.5.6 4.5 1.8 1 1.2 1.5 3.1 1.5 5.6v11.1h-2v-11.1c0-2.1-.4-3.6-1.2-4.4-.8-.9-1.9-1.3-3.3-1.3s-2.6.4-3.5 1.1-1.5 1.7-1.9 3v12.7h-2v-18.2h1.8zM419.5 123c0-2.9.6-5.2 1.9-7 1.2-1.7 3-2.6 5.2-2.6 1.3 0 2.4.3 3.3.8s1.7 1.4 2.3 2.4l.2-2.9h1.7v17.9c0 2.3-.6 4.2-1.9 5.5-1.3 1.4-3.1 2-5.4 2-.9 0-1.8-.1-2.8-.3-1-.2-1.8-.5-2.6-.9l.5-1.7c.7.4 1.5.6 2.3.8.8.2 1.6.3 2.6.3 1.8 0 3.1-.5 4-1.5.9-1 1.4-2.4 1.4-4.2v-2.3c-.6.9-1.4 1.6-2.3 2.1s-2 .7-3.3.7c-2.2 0-3.9-.8-5.1-2.4s-1.9-3.8-1.9-6.5v-.2zm2 .3c0 2.2.4 3.9 1.3 5.3.9 1.3 2.2 2 4 2 1.3 0 2.4-.3 3.2-.9.9-.6 1.5-1.4 2-2.5v-8.4c-.4-1.1-1.1-1.9-1.9-2.6-.8-.7-1.9-1-3.3-1-1.8 0-3.1.7-4 2.2-.9 1.5-1.4 3.4-1.4 5.7v.2zM455.6 132.3c-2.3 0-4.2-.8-5.7-2.5s-2.3-3.8-2.3-6.4v-.9c0-2.6.7-4.8 2.2-6.5 1.5-1.7 3.3-2.6 5.4-2.6 2.2 0 4 .7 5.3 2.1 1.3 1.4 1.9 3.3 1.9 5.6v1.7h-12.8v.5c0 2 .5 3.8 1.6 5.1 1.1 1.4 2.5 2.1 4.3 2.1 1.3 0 2.3-.2 3.2-.5.9-.3 1.6-.8 2.3-1.5l.9 1.4c-.7.7-1.5 1.3-2.6 1.7-1 .5-2.2.7-3.7.7zm-.2-17.2c-1.5 0-2.7.6-3.7 1.7s-1.6 2.6-1.8 4.3v.1h10.6v-.5c0-1.6-.5-2.9-1.4-4-.9-1-2.1-1.6-3.7-1.6zM472.7 121.2l4.9-7.4h2.4l-6.2 8.9 6.4 9.3h-2.4l-5.2-7.7-5.2 7.7H465l6.4-9.3-6.2-8.9h2.4l5.1 7.4zM499 123.3c0 2.7-.6 4.9-1.8 6.5-1.2 1.6-2.9 2.4-5.1 2.4-1.3 0-2.4-.2-3.3-.7-1-.5-1.7-1.2-2.3-2.1v9.4h-2v-25.2h1.7l.3 2.8c.6-1 1.4-1.8 2.3-2.3 1-.5 2.1-.8 3.4-.8 2.2 0 3.9.9 5.1 2.6 1.2 1.7 1.8 4.1 1.8 7v.4zm-2-.3c0-2.3-.5-4.2-1.4-5.6s-2.3-2.2-4-2.2c-1.4 0-2.5.3-3.3 1-.8.6-1.5 1.5-1.9 2.5v8.7c.5 1 1.1 1.8 2 2.4.9.6 2 .9 3.2.9 1.8 0 3.1-.7 4-2 .9-1.3 1.4-3.1 1.4-5.3v-.4zM510.8 132.3c-2.3 0-4.2-.8-5.7-2.5s-2.3-3.8-2.3-6.4v-.9c0-2.6.7-4.8 2.2-6.5 1.5-1.7 3.3-2.6 5.4-2.6 2.2 0 4 .7 5.3 2.1 1.3 1.4 1.9 3.3 1.9 5.6v1.7h-12.8v.5c0 2 .5 3.8 1.6 5.1 1.1 1.4 2.5 2.1 4.3 2.1 1.3 0 2.3-.2 3.2-.5.9-.3 1.6-.8 2.3-1.5l.9 1.4c-.7.7-1.5 1.3-2.6 1.7-1 .5-2.2.7-3.7.7zm-.2-17.2c-1.5 0-2.7.6-3.7 1.7s-1.6 2.6-1.8 4.3v.1h10.6v-.5c0-1.6-.5-2.9-1.4-4-.9-1-2.1-1.6-3.7-1.6zM530.6 115.5l-1.5-.1c-1.3 0-2.3.4-3.1 1.1s-1.4 1.7-1.7 2.9v12.5h-2v-18.2h1.8l.3 3v.2c.5-1.1 1.2-2 2.1-2.6.9-.6 1.9-.9 3.2-.9.3 0 .5 0 .7.1.2 0 .4.1.6.1l-.4 1.9zM536.7 108.5h-2v-2.8h2v2.8zm0 23.4h-2v-18.2h2v18.2zM549.6 132.3c-2.3 0-4.2-.8-5.7-2.5s-2.3-3.8-2.3-6.4v-.9c0-2.6.7-4.8 2.2-6.5 1.5-1.7 3.3-2.6 5.4-2.6 2.2 0 4 .7 5.3 2.1 1.3 1.4 1.9 3.3 1.9 5.6v1.7h-12.8v.5c0 2 .5 3.8 1.6 5.1 1.1 1.4 2.5 2.1 4.3 2.1 1.3 0 2.3-.2 3.2-.5.9-.3 1.6-.8 2.3-1.5l.9 1.4c-.7.7-1.5 1.3-2.6 1.7-1 .5-2.2.7-3.7.7zm-.2-17.2c-1.5 0-2.7.6-3.7 1.7s-1.6 2.6-1.8 4.3v.1h10.6v-.5c0-1.6-.5-2.9-1.4-4-.9-1-2.2-1.6-3.7-1.6zM562.8 113.7l.2 3.2c.6-1.1 1.4-2 2.4-2.6 1-.6 2.2-.9 3.5-.9 2 0 3.5.6 4.5 1.8 1 1.2 1.5 3.1 1.5 5.6v11.1h-2v-11.1c0-2.1-.4-3.6-1.2-4.4-.8-.9-1.9-1.3-3.3-1.3s-2.6.4-3.5 1.1-1.5 1.7-1.9 3v12.7h-2v-18.2h1.8zM587.4 130.6c1.3 0 2.5-.4 3.5-1.1 1-.8 1.5-1.8 1.5-3.2h1.8v.1c.1 1.7-.6 3.1-2 4.2s-3 1.7-4.9 1.7c-2.5 0-4.4-.8-5.7-2.5-1.3-1.7-2-3.9-2-6.5v-.7c0-2.6.7-4.8 2-6.5s3.3-2.6 5.7-2.6c2 0 3.7.6 5 1.8 1.3 1.2 2 2.7 1.9 4.6v.1h-1.8c0-1.5-.5-2.6-1.5-3.5s-2.2-1.3-3.6-1.3c-1.9 0-3.4.7-4.3 2.1-.9 1.4-1.4 3.1-1.4 5.3v.7c0 2.1.5 3.9 1.4 5.3 1 1.3 2.4 2 4.4 2zM605.8 132.3c-2.3 0-4.2-.8-5.7-2.5s-2.3-3.8-2.3-6.4v-.9c0-2.6.7-4.8 2.2-6.5 1.5-1.7 3.3-2.6 5.4-2.6 2.2 0 4 .7 5.3 2.1 1.3 1.4 1.9 3.3 1.9 5.6v1.7h-12.8v.5c0 2 .5 3.8 1.6 5.1 1.1 1.4 2.5 2.1 4.3 2.1 1.3 0 2.3-.2 3.2-.5.9-.3 1.6-.8 2.3-1.5l.9 1.4c-.7.7-1.5 1.3-2.6 1.7-1 .5-2.2.7-3.7.7zm-.2-17.2c-1.5 0-2.7.6-3.7 1.7s-1.6 2.6-1.8 4.3v.1h10.6v-.5c0-1.6-.5-2.9-1.4-4-.9-1-2.1-1.6-3.7-1.6zM645.4 34.1c-2.6 2.5-5.6 3.7-9.2 3.7-3.7 0-6.8-1.3-9.4-3.8-2.5-2.5-3.8-5.7-3.8-9.4 0-3.8 1.4-7 4.1-9.6 2.6-2.4 5.6-3.6 9.1-3.6 3.6 0 6.7 1.3 9.3 3.9 2.6 2.6 3.9 5.7 3.9 9.3-.1 3.8-1.4 6.9-4 9.5zm-17-17.1c-2.1 2.1-3.1 4.7-3.1 7.6 0 3 1.1 5.6 3.2 7.8 2.1 2.1 4.7 3.2 7.7 3.2s5.5-1.1 7.7-3.2c2.1-2.2 3.2-4.7 3.2-7.8 0-2.9-1.1-5.5-3.2-7.6-2.1-2.2-4.7-3.3-7.7-3.3-3.1 0-5.7 1.1-7.8 3.3zm2 15V17.4h7.1c1.2.1 2.1.3 2.9.8 1.3.7 1.9 1.9 1.9 3.5 0 1.2-.3 2.1-1 2.7-.7.5-1.5.9-2.5 1 .9.2 1.6.5 2.1.8.9.7 1.3 1.8 1.3 3.3v1.7c0 .1.1.3.1.4l.1.4h-3.6c-.1-.5-.2-1.1-.2-2 0-.9-.1-1.5-.2-1.8-.2-.5-.5-.9-1.1-1.1-.3-.1-.7-.2-1.3-.2l-.8-.1h-.8V32h-4zm6.9-11.7c-.5-.2-1.3-.3-2.2-.3h-.9v4.2h1.5c.9 0 1.6-.2 2.1-.5.5-.4.8-.9.8-1.7s-.5-1.4-1.3-1.7z"/></g></svg>