<?xml version="1.0" encoding="utf-8"?>
<!-- Generator: Adobe Illustrator 20.0.0, SVG Export Plug-In . SVG Version: 6.00 Build 0)  -->
<svg version="1.1" id="lay" xmlns="http://www.w3.org/2000/svg" xmlns:xlink="http://www.w3.org/1999/xlink" x="0px" y="0px"
	 viewBox="0 0 649.3 139.2" enable-background="new 0 0 649.3 139.2" xml:space="preserve">
<g>
	<path d="M214.1,78.9c-5.3,1.8-14.4,2.8-20.5,2.8h-4.9V38.5c-2.9,0.4-5.6,1-7.6,1.7V28c5.4-1.8,14.5-2.8,20.5-2.8h4.8v43.1
		c2.9-0.4,5.6-0.9,7.6-1.7V78.9z M188.7,4.3h17.7v14.6h-17.7V4.3z"/>
	<path d="M253.4,74l-4,2.8c-5.2,3.5-9.7,5.7-15.8,5.7c-11.7,0-18.1-6.9-18.1-18.6V52.7c0-16.9,12.9-27.4,29.8-27.4h25.8v75.8h-17.7
		V74z M253.4,61.1V39.8h-6.5c-8.9,0-13.6,4-13.6,12.9v8c0,4.4,2,6.4,6.4,6.4c3.2,0,7.2-2,10.5-4L253.4,61.1z"/>
	<path d="M294.8,53.5c0-20.2,10.5-29.1,29-29.1c19.4,0,29.1,8.9,29.1,29.1c0,21.7-9.7,29-29.1,29C305.3,82.5,294.8,75.2,294.8,53.5z
		 M335.1,53.5c0-10.1-3.3-13.7-11.4-13.7c-8,0-11.2,3.6-11.2,13.7c0,10,3.2,13.6,11.2,13.6C331.8,67.1,335.1,63.5,335.1,53.5z"/>
	<path d="M352.5,28c5.4-1.8,14.5-2.8,20.5-2.8h4.8v7.6l4-2.8c5.2-3.6,9.7-5.7,15.8-5.7c11.7,0,18.1,6.9,18.1,18.6v11.2
		c0,16.9-12.9,27.4-29.8,27.4h-8v19.4h-17.7V38.5c-2.9,0.4-5.6,1-7.6,1.7V28z M377.9,45.8v21.4h6.6c8.8,0,13.6-4,13.6-12.9v-8
		c0-4.4-2.1-6.4-6.5-6.4c-3.2,0-7.1,2-10.5,4L377.9,45.8z"/>
	<path d="M457.1,80.4c-3.8,1.3-7.7,2.1-11.5,2.1c-13.1,0-22.4-7-22.4-21.8V39.8h-8.9V25.2h8.9V10.8H441v14.4h14.4v14.5H441v16.9
		c0,8.2,3.1,11.2,8.9,11.2c2.2,0,4.5-0.7,7.2-2V80.4z"/>
	<path d="M485.8,78.9c-5.3,1.8-14.4,2.8-20.5,2.8h-4.8v-42c-3.3,0.2-5,0.1-7.6,0.1V25.2c7.9,0,14.5,0,20.5,0h4.9v43.1
		c2.9-0.4,5.6-0.9,7.6-1.7V78.9z M460.4,4.3h17.7v14.6h-17.7V4.3z"/>
	<path d="M485.6,53.5c0-20.2,10.5-29.1,29-29.1c19.4,0,29.1,8.9,29.1,29.1c0,21.7-9.7,29-29.1,29C496.1,82.5,485.6,75.2,485.6,53.5z
		 M525.9,53.5c0-10.1-3.3-13.7-11.4-13.7c-8,0-11.2,3.6-11.2,13.7c0,10,3.2,13.6,11.2,13.6C522.6,67.1,525.9,63.5,525.9,53.5z"/>
	<path display="none" d="M613.5,78.9c-5.4,1.8-14.5,2.8-20.5,2.8h-4.9V47c0-4.4-0.8-7.2-5.3-7.2c-3.2,0-7.2,2.5-10.9,4.9l-3.2,2
		v35.1H551V38.5c-2.9,0.4-5.6,1-7.6,1.7V28c5.4-1.8,14.5-2.8,20.5-2.8h4.9v8.6l2.5-1.7c6.4-4.6,11.2-7.7,18.5-7.7
		c10.9,0,16.2,6.9,16.2,17.7v26.2c2.8-0.4,5.5-0.9,7.6-1.7V78.9z"/>
	<path d="M613.5,78.9c-5.4,1.8-14.5,2.8-20.5,2.8h-4.9V47c0-4.4-0.8-7.2-5.3-7.2c-3.2,0-7.2,2.5-10.9,4.9l-3.2,2v35.1H551V38.5
		c-2.9,0.4-14.8,3.3-16.9,4V30.3c5.4-1.8,23.8-5.1,29.8-5.1h4.9v8.6l2.5-1.7c6.4-4.6,11.2-7.7,18.5-7.7c10.9,0,16.2,6.9,16.2,17.7
		v26.2c2.8-0.4,5.5-0.9,7.6-1.7V78.9z"/>
</g>
<g>
	<circle fill="#FF6600" cx="66.2" cy="66.2" r="66.2"/>
	<path fill="#FFFFFF" d="M45.3,94.2c0,4.8-4.2,8.6-9.3,8.6l0,0c-5.1,0-9.3-3.9-9.3-8.6V62.3c0-4.8,4.2-8.6,9.3-8.6l0,0
		c5.1,0,9.3,3.9,9.3,8.6V94.2z"/>
	<path fill="#FFFFFF" d="M103,94.1c0,5.3-4,9.6-8.9,9.6l0,0c-4.9,0-8.9-4.3-8.9-9.6V32.4c0-5.3,4-9.6,8.9-9.6l0,0
		c4.9,0,8.9,4.3,8.9,9.6V94.1z"/>
	<path fill="#FFFFFF" d="M74.1,95.4c0,4.6-4,8.3-8.9,8.3l0,0c-4.9,0-8.9-3.7-8.9-8.3V48.7c0-4.6,4-8.3,8.9-8.3l0,0
		c4.9,0,8.9,3.7,8.9,8.3V95.4z"/>
</g>
<g>
	<path d="M205.9,107.5V124c0,2.7-0.8,4.7-2.4,6.1c-1.6,1.4-3.8,2.1-6.4,2.1c-2.6,0-4.7-0.7-6.3-2.1s-2.4-3.5-2.4-6.1v-16.6h2V124
		c0,2.1,0.6,3.7,1.8,4.8c1.2,1.1,2.8,1.7,4.8,1.7c2,0,3.7-0.6,4.9-1.7c1.3-1.1,1.9-2.7,1.9-4.8v-16.6H205.9z"/>
	<path d="M214.1,131.9h-2v-26.2h2V131.9z"/>
	<path d="M223.3,109.1v4.7h4v1.6h-4v11.8c0,1.2,0.2,2,0.6,2.5c0.4,0.5,1,0.7,1.7,0.7c0.3,0,0.6,0,0.9,0c0.3,0,0.7-0.1,1.1-0.1
		l0.3,1.5c-0.3,0.1-0.7,0.3-1.2,0.3c-0.5,0.1-1,0.1-1.4,0.1c-1.3,0-2.3-0.4-3-1.2c-0.7-0.8-1.1-2.1-1.1-3.8v-11.8h-3.1v-1.6h3.1
		v-4.7H223.3z"/>
	<path d="M234.4,108.5h-2v-2.8h2V108.5z M234.4,131.9h-2v-18.2h2V131.9z"/>
	<path d="M242.1,113.7l0.2,3c0.6-1.1,1.4-1.9,2.3-2.5s2.1-0.9,3.5-0.9c1.4,0,2.5,0.3,3.5,1c0.9,0.7,1.6,1.7,2,3.1
		c0.5-1.3,1.3-2.3,2.3-3c1-0.7,2.2-1.1,3.7-1.1c1.9,0,3.4,0.6,4.5,1.9c1.1,1.3,1.6,3.3,1.6,6v10.6h-2v-10.6c0-2.2-0.4-3.8-1.2-4.8
		c-0.8-0.9-1.9-1.4-3.3-1.4c-1.6,0-2.8,0.5-3.6,1.5s-1.4,2.2-1.6,3.8c0,0.1,0,0.2,0,0.3c0,0.1,0,0.3,0,0.3v10.9h-2v-10.6
		c0-2.2-0.4-3.8-1.2-4.7c-0.8-0.9-1.9-1.4-3.3-1.4c-1.4,0-2.5,0.4-3.4,1.1s-1.4,1.7-1.8,2.9v12.8h-2v-18.2H242.1z"/>
	<path d="M282.9,131.9c-0.1-0.6-0.2-1.1-0.3-1.6c-0.1-0.4-0.1-0.9-0.1-1.4c-0.7,1-1.6,1.7-2.7,2.4s-2.4,0.9-3.8,0.9
		c-1.8,0-3.1-0.5-4.1-1.4c-1-0.9-1.5-2.2-1.5-3.8c0-1.7,0.7-3,2.2-4c1.4-1,3.4-1.5,5.9-1.5h4v-2.2c0-1.3-0.4-2.3-1.3-3.1
		c-0.8-0.7-2-1.1-3.5-1.1c-1.4,0-2.6,0.4-3.5,1.1c-0.9,0.7-1.4,1.6-1.4,2.6l-1.8,0l0-0.1c-0.1-1.4,0.6-2.6,1.9-3.6
		c1.3-1.1,3-1.6,5-1.6c2,0,3.6,0.5,4.8,1.5c1.2,1,1.8,2.5,1.8,4.4v8.9c0,0.6,0,1.3,0.1,1.9s0.2,1.2,0.4,1.8H282.9z M276.3,130.5
		c1.4,0,2.7-0.3,3.8-1c1.1-0.7,1.9-1.5,2.4-2.6v-3.8h-4c-1.8,0-3.3,0.4-4.4,1.2c-1.1,0.8-1.6,1.7-1.6,2.9c0,1,0.3,1.8,1,2.4
		C274.2,130.2,275.1,130.5,276.3,130.5z"/>
	<path d="M293.6,109.1v4.7h4v1.6h-4v11.8c0,1.2,0.2,2,0.6,2.5c0.4,0.5,1,0.7,1.7,0.7c0.3,0,0.6,0,0.9,0c0.3,0,0.7-0.1,1.1-0.1
		l0.3,1.5c-0.3,0.1-0.7,0.3-1.2,0.3c-0.5,0.1-1,0.1-1.4,0.1c-1.3,0-2.3-0.4-3-1.2c-0.7-0.8-1.1-2.1-1.1-3.8v-11.8h-3.1v-1.6h3.1
		v-4.7H293.6z"/>
	<path d="M309.2,132.3c-2.3,0-4.2-0.8-5.7-2.5s-2.3-3.8-2.3-6.4v-0.9c0-2.6,0.7-4.8,2.2-6.5c1.5-1.7,3.3-2.6,5.4-2.6
		c2.2,0,4,0.7,5.3,2.1c1.3,1.4,1.9,3.3,1.9,5.6v1.7h-12.8v0.5c0,2,0.5,3.8,1.6,5.1c1.1,1.4,2.5,2.1,4.3,2.1c1.3,0,2.3-0.2,3.2-0.5
		c0.9-0.3,1.6-0.8,2.3-1.5l0.9,1.4c-0.7,0.7-1.5,1.3-2.6,1.7C311.9,132.1,310.6,132.3,309.2,132.3z M308.9,115.1
		c-1.5,0-2.7,0.6-3.7,1.7c-1,1.1-1.6,2.6-1.8,4.3l0,0.1h10.6v-0.5c0-1.6-0.5-2.9-1.4-4C311.8,115.7,310.5,115.1,308.9,115.1z"/>
	<path d="M332.6,109.1v4.7h4v1.6h-4v11.8c0,1.2,0.2,2,0.6,2.5c0.4,0.5,1,0.7,1.7,0.7c0.3,0,0.6,0,0.9,0c0.3,0,0.7-0.1,1.1-0.1
		l0.3,1.5c-0.3,0.1-0.7,0.3-1.2,0.3s-1,0.1-1.4,0.1c-1.3,0-2.3-0.4-3-1.2s-1.1-2.1-1.1-3.8v-11.8h-3.1v-1.6h3.1v-4.7H332.6z"/>
	<path d="M349.8,115.5l-1.5-0.1c-1.3,0-2.3,0.4-3.1,1.1s-1.4,1.7-1.7,2.9v12.5h-2v-18.2h1.8l0.3,3v0.2c0.5-1.1,1.2-2,2.1-2.6
		c0.9-0.6,1.9-0.9,3.2-0.9c0.3,0,0.5,0,0.7,0.1c0.2,0,0.4,0.1,0.6,0.1L349.8,115.5z"/>
	<path d="M365.1,131.9c-0.1-0.6-0.2-1.1-0.3-1.6c-0.1-0.4-0.1-0.9-0.1-1.4c-0.7,1-1.6,1.7-2.7,2.4s-2.4,0.9-3.8,0.9
		c-1.8,0-3.1-0.5-4.1-1.4c-1-0.9-1.5-2.2-1.5-3.8c0-1.7,0.7-3,2.2-4c1.4-1,3.4-1.5,5.9-1.5h4v-2.2c0-1.3-0.4-2.3-1.3-3.1
		c-0.8-0.7-2-1.1-3.5-1.1c-1.4,0-2.6,0.4-3.5,1.1c-0.9,0.7-1.4,1.6-1.4,2.6l-1.8,0l0-0.1c-0.1-1.4,0.6-2.6,1.9-3.6
		c1.3-1.1,3-1.6,5-1.6c2,0,3.6,0.5,4.8,1.5c1.2,1,1.8,2.5,1.8,4.4v8.9c0,0.6,0,1.3,0.1,1.9c0.1,0.6,0.2,1.2,0.4,1.8H365.1z
		 M358.5,130.5c1.4,0,2.7-0.3,3.8-1c1.1-0.7,1.9-1.5,2.4-2.6v-3.8h-4c-1.8,0-3.3,0.4-4.4,1.2c-1.1,0.8-1.6,1.7-1.6,2.9
		c0,1,0.3,1.8,1,2.4C356.4,130.2,357.3,130.5,358.5,130.5z"/>
	<path d="M371.8,123c0-2.9,0.6-5.2,1.8-7c1.2-1.7,2.9-2.6,5.1-2.6c1.3,0,2.4,0.3,3.3,0.8c0.9,0.5,1.7,1.3,2.3,2.3v-10.8h2v26.2h-1.8
		l-0.2-2.6c-0.6,1-1.4,1.7-2.3,2.2s-2.1,0.8-3.4,0.8c-2.2,0-3.9-0.8-5.1-2.4c-1.2-1.6-1.8-3.8-1.8-6.5V123z M373.8,123.3
		c0,2.2,0.4,4,1.3,5.3c0.9,1.3,2.2,2,4,2c1.3,0,2.4-0.3,3.2-0.9c0.9-0.6,1.5-1.4,2-2.4v-8.6c-0.5-1.1-1.1-1.9-1.9-2.6
		c-0.8-0.7-1.9-1-3.3-1c-1.8,0-3.1,0.7-4,2.2c-0.9,1.5-1.3,3.3-1.3,5.7V123.3z"/>
	<path d="M394.5,108.5h-2v-2.8h2V108.5z M394.5,131.9h-2v-18.2h2V131.9z"/>
	<path d="M402.4,113.7l0.2,3.2c0.6-1.1,1.4-2,2.4-2.6c1-0.6,2.2-0.9,3.5-0.9c2,0,3.5,0.6,4.5,1.8c1,1.2,1.5,3.1,1.5,5.6v11.1h-2
		v-11.1c0-2.1-0.4-3.6-1.2-4.4c-0.8-0.9-1.9-1.3-3.3-1.3c-1.4,0-2.6,0.4-3.5,1.1s-1.5,1.7-1.9,3v12.7h-2v-18.2H402.4z"/>
	<path d="M419.5,123c0-2.9,0.6-5.2,1.9-7c1.2-1.7,3-2.6,5.2-2.6c1.3,0,2.4,0.3,3.3,0.8s1.7,1.4,2.3,2.4l0.2-2.9h1.7v17.9
		c0,2.3-0.6,4.2-1.9,5.5c-1.3,1.4-3.1,2-5.4,2c-0.9,0-1.8-0.1-2.8-0.3c-1-0.2-1.8-0.5-2.6-0.9l0.5-1.7c0.7,0.4,1.5,0.6,2.3,0.8
		c0.8,0.2,1.6,0.3,2.6,0.3c1.8,0,3.1-0.5,4-1.5c0.9-1,1.4-2.4,1.4-4.2v-2.3c-0.6,0.9-1.4,1.6-2.3,2.1s-2,0.7-3.3,0.7
		c-2.2,0-3.9-0.8-5.1-2.4s-1.9-3.8-1.9-6.5V123z M421.5,123.3c0,2.2,0.4,3.9,1.3,5.3c0.9,1.3,2.2,2,4,2c1.3,0,2.4-0.3,3.2-0.9
		c0.9-0.6,1.5-1.4,2-2.5v-8.4c-0.4-1.1-1.1-1.9-1.9-2.6c-0.8-0.7-1.9-1-3.3-1c-1.8,0-3.1,0.7-4,2.2c-0.9,1.5-1.4,3.4-1.4,5.7V123.3z
		"/>
	<path d="M455.6,132.3c-2.3,0-4.2-0.8-5.7-2.5c-1.5-1.7-2.3-3.8-2.3-6.4v-0.9c0-2.6,0.7-4.8,2.2-6.5c1.5-1.7,3.3-2.6,5.4-2.6
		c2.2,0,4,0.7,5.3,2.1c1.3,1.4,1.9,3.3,1.9,5.6v1.7h-12.8v0.5c0,2,0.5,3.8,1.6,5.1c1.1,1.4,2.5,2.1,4.3,2.1c1.3,0,2.3-0.2,3.2-0.5
		c0.9-0.3,1.6-0.8,2.3-1.5l0.9,1.4c-0.7,0.7-1.5,1.3-2.6,1.7C458.3,132.1,457.1,132.3,455.6,132.3z M455.4,115.1
		c-1.5,0-2.7,0.6-3.7,1.7c-1,1.1-1.6,2.6-1.8,4.3l0,0.1h10.6v-0.5c0-1.6-0.5-2.9-1.4-4C458.2,115.7,457,115.1,455.4,115.1z"/>
	<path d="M472.7,121.2l4.9-7.4h2.4l-6.2,8.9l6.4,9.3h-2.4l-5.2-7.7l-5.2,7.7h-2.4l6.4-9.3l-6.2-8.9h2.4L472.7,121.2z"/>
	<path d="M499,123.3c0,2.7-0.6,4.9-1.8,6.5c-1.2,1.6-2.9,2.4-5.1,2.4c-1.3,0-2.4-0.2-3.3-0.7c-1-0.5-1.7-1.2-2.3-2.1v9.4h-2v-25.2
		h1.7l0.3,2.8c0.6-1,1.4-1.8,2.3-2.3c1-0.5,2.1-0.8,3.4-0.8c2.2,0,3.9,0.9,5.1,2.6c1.2,1.7,1.8,4.1,1.8,7V123.3z M497,123
		c0-2.3-0.5-4.2-1.4-5.6s-2.3-2.2-4-2.2c-1.4,0-2.5,0.3-3.3,1c-0.8,0.6-1.5,1.5-1.9,2.5v8.7c0.5,1,1.1,1.8,2,2.4
		c0.9,0.6,2,0.9,3.2,0.9c1.8,0,3.1-0.7,4-2c0.9-1.3,1.4-3.1,1.4-5.3V123z"/>
	<path d="M510.8,132.3c-2.3,0-4.2-0.8-5.7-2.5c-1.5-1.7-2.3-3.8-2.3-6.4v-0.9c0-2.6,0.7-4.8,2.2-6.5c1.5-1.7,3.3-2.6,5.4-2.6
		c2.2,0,4,0.7,5.3,2.1c1.3,1.4,1.9,3.3,1.9,5.6v1.7h-12.8v0.5c0,2,0.5,3.8,1.6,5.1c1.1,1.4,2.5,2.1,4.3,2.1c1.3,0,2.3-0.2,3.2-0.5
		c0.9-0.3,1.6-0.8,2.3-1.5l0.9,1.4c-0.7,0.7-1.5,1.3-2.6,1.7C513.5,132.1,512.3,132.3,510.8,132.3z M510.6,115.1
		c-1.5,0-2.7,0.6-3.7,1.7c-1,1.1-1.6,2.6-1.8,4.3l0,0.1h10.6v-0.5c0-1.6-0.5-2.9-1.4-4C513.4,115.7,512.2,115.1,510.6,115.1z"/>
	<path d="M530.6,115.5l-1.5-0.1c-1.3,0-2.3,0.4-3.1,1.1s-1.4,1.7-1.7,2.9v12.5h-2v-18.2h1.8l0.3,3v0.2c0.5-1.1,1.2-2,2.1-2.6
		c0.9-0.6,1.9-0.9,3.2-0.9c0.3,0,0.5,0,0.7,0.1c0.2,0,0.4,0.1,0.6,0.1L530.6,115.5z"/>
	<path d="M536.7,108.5h-2v-2.8h2V108.5z M536.7,131.9h-2v-18.2h2V131.9z"/>
	<path d="M549.6,132.3c-2.3,0-4.2-0.8-5.7-2.5c-1.5-1.7-2.3-3.8-2.3-6.4v-0.9c0-2.6,0.7-4.8,2.2-6.5c1.5-1.7,3.3-2.6,5.4-2.6
		c2.2,0,4,0.7,5.3,2.1c1.3,1.4,1.9,3.3,1.9,5.6v1.7h-12.8v0.5c0,2,0.5,3.8,1.6,5.1c1.1,1.4,2.5,2.1,4.3,2.1c1.3,0,2.3-0.2,3.2-0.5
		c0.9-0.3,1.6-0.8,2.3-1.5l0.9,1.4c-0.7,0.7-1.5,1.3-2.6,1.7C552.3,132.1,551.1,132.3,549.6,132.3z M549.4,115.1
		c-1.5,0-2.7,0.6-3.7,1.7c-1,1.1-1.6,2.6-1.8,4.3l0,0.1h10.6v-0.5c0-1.6-0.5-2.9-1.4-4C552.2,115.7,550.9,115.1,549.4,115.1z"/>
	<path d="M562.8,113.7l0.2,3.2c0.6-1.1,1.4-2,2.4-2.6c1-0.6,2.2-0.9,3.5-0.9c2,0,3.5,0.6,4.5,1.8c1,1.2,1.5,3.1,1.5,5.6v11.1h-2
		v-11.1c0-2.1-0.4-3.6-1.2-4.4c-0.8-0.9-1.9-1.3-3.3-1.3c-1.4,0-2.6,0.4-3.5,1.1s-1.5,1.7-1.9,3v12.7h-2v-18.2H562.8z"/>
	<path d="M587.4,130.6c1.3,0,2.5-0.4,3.5-1.1c1-0.8,1.5-1.8,1.5-3.2h1.8l0,0.1c0.1,1.7-0.6,3.1-2,4.2c-1.4,1.1-3,1.7-4.9,1.7
		c-2.5,0-4.4-0.8-5.7-2.5c-1.3-1.7-2-3.9-2-6.5v-0.7c0-2.6,0.7-4.8,2-6.5s3.3-2.6,5.7-2.6c2,0,3.7,0.6,5,1.8c1.3,1.2,2,2.7,1.9,4.6
		l0,0.1h-1.8c0-1.5-0.5-2.6-1.5-3.5s-2.2-1.3-3.6-1.3c-1.9,0-3.4,0.7-4.3,2.1c-0.9,1.4-1.4,3.1-1.4,5.3v0.7c0,2.1,0.5,3.9,1.4,5.3
		C584,129.9,585.4,130.6,587.4,130.6z"/>
	<path d="M605.8,132.3c-2.3,0-4.2-0.8-5.7-2.5c-1.5-1.7-2.3-3.8-2.3-6.4v-0.9c0-2.6,0.7-4.8,2.2-6.5c1.5-1.7,3.3-2.6,5.4-2.6
		c2.2,0,4,0.7,5.3,2.1c1.3,1.4,1.9,3.3,1.9,5.6v1.7h-12.8v0.5c0,2,0.5,3.8,1.6,5.1c1.1,1.4,2.5,2.1,4.3,2.1c1.3,0,2.3-0.2,3.2-0.5
		c0.9-0.3,1.6-0.8,2.3-1.5l0.9,1.4c-0.7,0.7-1.5,1.3-2.6,1.7C608.5,132.1,607.3,132.3,605.8,132.3z M605.6,115.1
		c-1.5,0-2.7,0.6-3.7,1.7c-1,1.1-1.6,2.6-1.8,4.3l0,0.1h10.6v-0.5c0-1.6-0.5-2.9-1.4-4C608.4,115.7,607.2,115.1,605.6,115.1z"/>
</g>
<g>
	<path d="M645.4,34.1c-2.6,2.5-5.6,3.7-9.2,3.7c-3.7,0-6.8-1.3-9.4-3.8c-2.5-2.5-3.8-5.7-3.8-9.4c0-3.8,1.4-7,4.1-9.6
		c2.6-2.4,5.6-3.6,9.1-3.6c3.6,0,6.7,1.3,9.3,3.9c2.6,2.6,3.9,5.7,3.9,9.3C649.3,28.4,648,31.5,645.4,34.1z M628.4,17
		c-2.1,2.1-3.1,4.7-3.1,7.6c0,3,1.1,5.6,3.2,7.8c2.1,2.1,4.7,3.2,7.7,3.2c3,0,5.5-1.1,7.7-3.2c2.1-2.2,3.2-4.7,3.2-7.8
		c0-2.9-1.1-5.5-3.2-7.6c-2.1-2.2-4.7-3.3-7.7-3.3C633.1,13.7,630.5,14.8,628.4,17z M630.4,32V17.4c0.9,0,2.3,0,4.1,0
		c1.8,0,2.8,0,3,0c1.2,0.1,2.1,0.3,2.9,0.8c1.3,0.7,1.9,1.9,1.9,3.5c0,1.2-0.3,2.1-1,2.7c-0.7,0.5-1.5,0.9-2.5,1
		c0.9,0.2,1.6,0.5,2.1,0.8c0.9,0.7,1.3,1.8,1.3,3.3v1.3c0,0.1,0,0.3,0,0.4c0,0.1,0.1,0.3,0.1,0.4l0.1,0.4h-3.6
		c-0.1-0.5-0.2-1.1-0.2-2c0-0.9-0.1-1.5-0.2-1.8c-0.2-0.5-0.5-0.9-1.1-1.1c-0.3-0.1-0.7-0.2-1.3-0.2l-0.8-0.1h-0.8V32H630.4z
		 M637.3,20.3c-0.5-0.2-1.3-0.3-2.2-0.3h-0.9v4.2h1.5c0.9,0,1.6-0.2,2.1-0.5c0.5-0.4,0.8-0.9,0.8-1.7S638.1,20.6,637.3,20.3z"/>
</g>
</svg>
