<svg id="Слой_5" data-name="Слой 5" xmlns="http://www.w3.org/2000/svg" viewBox="0 0 284 284"><defs><style>.cls-1,.cls-2,.cls-3,.cls-6{fill:#fff;}.cls-1{opacity:0.05;}.cls-2{opacity:0.1;}.cls-3{opacity:0.5;}.cls-3,.cls-6{isolation:isolate;}.cls-4,.cls-6{opacity:0.7;}.cls-5{opacity:0.1;}</style></defs><title>plane</title><circle class="cls-1" cx="142" cy="142" r="142"/><circle class="cls-2" cx="142" cy="142" r="131.27"/><path class="cls-3" d="M85.42,184.35l-21.82-14,2.15-2.15c2.46-2.46,5.9-1.6,29.58.1-3.18,5.46-5.77,10.29-7.46,13.54L86,183.76C85.79,184,85.61,184.16,85.42,184.35Z"/><path class="cls-3" d="M181.14,132.57l-28.37,28.37c2.82,3.35,6.53,9.63,9.58,21.41,9.52,36.89,10.54,40.33,10.54,40.33l5.51-5.5C187.7,207.89,185.39,205.51,181.14,132.57Z"/><path class="cls-3" d="M151.75,102.92c-72-5.22-75.85-6-85.15,3.26l-5.51,5.5s4.09,0.7,40.75,10.16c11.79,3,18.07,6.74,21.41,9.58Z"/><path class="cls-3" d="M115.84,188.74c-5.43,3.17-10.23,5.78-13.47,7.49l-2,2-0.59.56,14,21.83,2.15-2.15C118.41,216,117.54,212.53,115.84,188.74Z"/><g class="cls-4"><path class="cls-3" d="M83.7,202.85c1.89-1.08,8.07-4.39,12.52-8.86l7-7c5.5-5.5-.58-11.49-6-6l-7,7c-4.48,4.48-7.17,9.67-8.86,12.52C80.24,202.39,81.82,203.93,83.7,202.85Z"/></g><g class="cls-5"><path class="cls-6" d="M188,147l0.2-.21,2.27-2.27c4.81-1.37,11.33,5.37,10.08,10.08l-2.31,2.25a42.69,42.69,0,0,1-9.16,7.23C188.72,159,188.35,153.32,188,147Z"/><path class="cls-6" d="M137.49,95.92l2.17-2.16C141,89,134.29,82.44,129.58,83.68L127.31,86a43.86,43.86,0,0,0-7,8.72Z"/></g><path class="cls-6" d="M209.5,74.68C208.11,73.29,194,69.06,173,90.06l-51.2,51.2c-7.85,7.86-16.3,21.26-22.35,31.85a9.65,9.65,0,0,1,11.65,11.52c10.71-6.17,24.29-14.71,31.83-22.24l51.24-51.21C215.34,90,210.89,76.08,209.5,74.68Zm-14.61,27.1-0.9-.9c1.53-4.94,3.32-9.5,1.08-11.74s-6.84-.53-11.77,1l-0.9-.9c6.87-5,13.64-6.74,16.45-3.94S200,94.84,194.89,101.78Z"/></svg>