<svg xmlns="http://www.w3.org/2000/svg" xmlns:xlink="http://www.w3.org/1999/xlink" x="0px" y="0px"
	 viewBox="0 0 111.1 65.8" style="enable-background:new 0 0 111.1 65.8;" xml:space="preserve">
<g>
	<path class="st0" d="M59,7.1L59,7.1l1.9,0c1.1,0.1,2.1-0.3,3-0.9C64.6,5.5,65,4.6,65,3.7c0-0.6-0.2-1.3-0.5-1.8
		c-0.3-0.5-0.8-1-1.4-1.2c-0.7-0.3-1.4-0.5-2.1-0.4h-4.2v10.7H59V7.1z M59,1.9h2c0.5,0,0.9,0.2,1.3,0.5c0.3,0.3,0.5,0.8,0.5,1.3
		c0,0.4-0.1,0.9-0.4,1.2c-0.4,0.3-0.9,0.4-1.3,0.4h-2l0,0V1.9z"/>
	<polygon class="st0" points="52.7,3.7 52.7,10.8 54.9,10.8 54.9,0.1 52.7,0.1 48.4,7.2 48.4,0.1 46.2,0.1 46.2,10.8 48.4,10.8 	"/>
	<path class="st0" d="M104.7,10.8l1.9-3.8h1.8v3.8h2.2V0.1h-3.8c-1-0.1-2,0.3-2.9,0.9c-0.7,0.6-1.1,1.5-1,2.4
		c-0.1,1.2,0.6,2.3,1.7,2.8l-2.3,4.6H104.7z M105.2,3.6c0-0.1,0-0.3,0-0.4c0.1-0.8,0.9-1.4,1.7-1.3h1.5v3.4h-1.5
		c-0.5,0-0.9-0.1-1.3-0.4C105.3,4.6,105.1,4.1,105.2,3.6L105.2,3.6z"/>
	<path class="st0" d="M37.5,10.3c0.5-0.4,0.9-1,1.1-1.6c0.3-1,0.5-2,0.5-3l0.2-3.8h2.8v8.9h2.2V0.1v0h-7.2L37,5c0,1-0.1,2-0.4,3
		c-0.2,0.5-0.6,0.9-1.2,1l-0.4,0v1.8h0.6C36.2,10.9,36.9,10.7,37.5,10.3z"/>
	<path class="st0" d="M49.4,39.7c1.5,0.9,3.3,1.3,5.1,1.3c1.8,0,3.6-0.4,5.1-1.4c1.5-0.9,2.7-2.3,3.5-3.9c0.8-1.8,1.3-3.8,1.2-5.8
		v-1c0-2-0.4-3.9-1.2-5.7c-0.8-1.6-2-2.9-3.5-3.9C58,18.5,56.2,18,54.4,18c-1.8,0-3.6,0.4-5.1,1.4c-1.5,0.9-2.7,2.3-3.5,3.9
		c-0.8,1.8-1.3,3.8-1.2,5.8v1.3c0,1.9,0.4,3.9,1.3,5.6C46.7,37.5,47.9,38.8,49.4,39.7z M50.1,28.4c0.2-4.1,1.6-6.1,4.3-6.1
		c1.3,0,2.5,0.6,3.2,1.7c0.8,1.6,1.2,3.3,1.1,5.1v1c0.1,1.7-0.3,3.5-1.1,5c-0.7,1.1-1.9,1.8-3.2,1.7c-1.3,0.1-2.6-0.6-3.2-1.8
		c-0.8-1.6-1.2-3.3-1.1-5.1L50.1,28.4z"/>
	<polygon class="st0" points="83.1,9.1 78.2,9.1 78.2,6.2 82.4,6.2 82.4,6.2 82.4,4.5 78.2,4.5 78.2,1.9 83.1,1.9 83.1,0.1 76,0.1
		76,10.8 83.1,10.8 	"/>
	<path class="st0" d="M97.7,11c1.1,0.1,2.2-0.3,3-1c0.8-0.7,1.2-1.7,1.3-2.7h-2.2c0,0.5-0.2,1-0.6,1.4c-0.4,0.3-1,0.5-1.5,0.5
		c-0.7,0-1.3-0.3-1.7-0.8c-0.4-0.8-0.6-1.7-0.5-2.5V5c-0.1-0.9,0.1-1.7,0.6-2.4c0.4-0.5,1-0.8,1.7-0.8c0.5,0,1.1,0.1,1.5,0.5
		c0.4,0.4,0.6,0.9,0.6,1.5h2.2c-0.1-1.1-0.5-2.1-1.3-2.8c-1.5-1.2-3.6-1.3-5.3-0.4c-0.7,0.4-1.2,1.1-1.6,1.8
		c-0.4,0.9-0.6,1.8-0.5,2.7v0.7c-0.1,1.4,0.3,2.7,1.2,3.8C95.3,10.5,96.5,11,97.7,11z"/>
	<polygon class="st0" points="87.1,10.8 89.3,10.8 89.3,1.9 92.6,1.9 92.6,1.9 92.6,0.1 83.9,0.1 83.9,1.9 87.1,1.9 	"/>
	<path class="st0" d="M69.2,8.4C69.1,8.7,69,8.9,68.7,9c-0.2,0.1-0.5,0.2-0.7,0.2c-0.2,0-0.4,0-0.6,0l0,1.8l0.8,0
		c1.1,0,2-0.5,2.5-1.4l0.3-0.6l3.7-8.8h-2.4l-1.9,5l-2.4-5.1h-2.4l3.8,7.6L69.2,8.4z"/>
	<path class="st0" d="M81.2,41.7v-2.8c1.7,0,3.5-0.4,5-1.2c1.4-0.7,2.6-1.8,3.4-3.2c0.8-1.5,1.2-3.1,1.2-4.8c0-1.7-0.4-3.4-1.2-4.9
		c-0.8-1.4-1.9-2.6-3.4-3.3c-1.5-0.8-3.3-1.2-5-1.2v0v-2.8H76v2.8c-1.8,0-3.5,0.4-5.1,1.2c-1.4,0.8-2.6,1.9-3.4,3.3
		c-0.8,1.5-1.2,3.2-1.2,4.9c0,1.7,0.4,3.3,1.2,4.8c0.8,1.4,2,2.5,3.4,3.2c1.6,0.8,3.3,1.2,5.1,1.1v2.8H81.2z M81.2,24.6
		c1.2,0,2.4,0.4,3.3,1.3c0.8,1.1,1.3,2.4,1.2,3.7c0.1,1.3-0.3,2.6-1.2,3.5c-0.9,0.9-2.1,1.3-3.3,1.3V24.6z M76,34.5
		c-1.3,0.1-2.5-0.4-3.4-1.3c-0.8-1-1.3-2.2-1.2-3.5v0c-0.1-1.4,0.3-2.7,1.2-3.7c0.9-0.9,2.1-1.4,3.3-1.4V34.5z"/>
	<path class="st0" d="M107,19.3c-1.4-0.7-3-1-4.6-0.9h-9v22.4h5.4v-7.6l0,0h3.4c2.3,0.1,4.6-0.6,6.4-2c1.6-1.3,2.4-3.2,2.3-5.2
		c0-1.4-0.4-2.8-1.1-4C109.3,20.8,108.2,19.9,107,19.3z M104.8,28.2c-0.7,0.6-1.5,0.8-2.4,0.8h-3.6v-6.5h3.6c0.9,0,1.7,0.3,2.3,1
		c0.6,0.7,0.9,1.6,0.8,2.5C105.7,26.8,105.4,27.6,104.8,28.2z"/>
	<polygon class="st0" points="102,7.3 102,7.3 102,7.3 	"/>
	<path class="st0" d="M8.3,54.1L8.3,54.1l-1.4,0v2.5h1.4c0.4,0,0.7-0.1,1-0.3c0.2-0.2,0.4-0.6,0.3-0.9c0-0.3-0.1-0.7-0.3-0.9
		C9,54.1,8.6,54,8.3,54.1z"/>
	<polygon class="st0" points="52.7,57.8 54.7,57.8 53.7,54.8 	"/>
	<path class="st0" d="M83.7,53.9L83.7,53.9c-0.3,0-0.7,0.2-0.8,0.4c-0.2,0.4-0.3,0.9-0.3,1.4v2c0,0.5,0.1,1,0.3,1.5
		c0.3,0.5,0.9,0.6,1.4,0.3c0.1-0.1,0.2-0.2,0.3-0.3c0.2-0.4,0.3-0.9,0.3-1.4v-2c0-0.5-0.1-1-0.3-1.5C84.4,54,84,53.9,83.7,53.9z"/>
	<path class="st0" d="M90.1,53.9L90.1,53.9c-0.3,0-0.7,0.1-0.8,0.4c-0.2,0.4-0.3,0.9-0.3,1.4v2c0,0.5,0.1,1,0.3,1.5
		c0.2,0.3,0.5,0.5,0.9,0.5c0.4,0,0.7-0.2,0.9-0.5c0.2-0.4,0.3-0.9,0.3-1.4v-2c0-0.5-0.1-1-0.3-1.5C90.8,54,90.4,53.9,90.1,53.9z"/>
	<polygon class="st0" points="60.2,57.8 62.3,57.8 61.2,54.8 	"/>
	<path class="st0" d="M96.5,56L96.5,56c0.3,0,0.5-0.1,0.7-0.3c0.2-0.2,0.3-0.5,0.2-0.8c0-0.3-0.1-0.6-0.2-0.8
		c-0.2-0.2-0.4-0.3-0.7-0.3c-0.3,0-0.5,0.1-0.7,0.3c-0.2,0.2-0.3,0.5-0.2,0.8c0,0.3,0.1,0.6,0.2,0.8C95.9,55.9,96.2,56.1,96.5,56z"
		/>
	<path class="st0" d="M96.4,57.4L96.4,57.4c-0.3,0-0.6,0.1-0.8,0.3c-0.2,0.2-0.3,0.5-0.3,0.9c0,0.3,0.1,0.6,0.3,0.8
		c0.2,0.2,0.5,0.3,0.8,0.3c0.3,0,0.6-0.1,0.8-0.3c0.4-0.5,0.4-1.2,0-1.7C97.1,57.5,96.8,57.3,96.4,57.4z"/>
	<path class="st0" d="M108.2,47.5L108.2,47.5l-105.7,0C1.1,47.5,0,48.6,0,50v13.4c0,1.4,1.1,2.5,2.5,2.5h105.7
		c1.4,0,2.5-1.1,2.5-2.5V50C110.6,48.6,109.5,47.5,108.2,47.5z M11.6,60.9L11.6,60.9l-1.8,0l-1.6-3H6.9v3H5.2v-8.2h3.1
		c0.8-0.1,1.6,0.2,2.2,0.7c0.5,0.5,0.8,1.1,0.8,1.8c0,0.5-0.1,1-0.4,1.4c-0.3,0.4-0.7,0.7-1.1,0.9L11.6,60.9L11.6,60.9z M17.8,60.2
		c-1.4,1-3.2,1-4.6,0c-0.6-0.5-0.9-1.3-0.9-2.1v-5.5H14v5.4c0,0.4,0.1,0.9,0.4,1.2c0.3,0.3,0.7,0.4,1.1,0.4c0.7,0.1,1.4-0.4,1.5-1.2
		c0-0.1,0-0.2,0-0.3v-5.5h1.7v5.4l0,0C18.6,58.9,18.3,59.7,17.8,60.2z M27.7,57.5L27.7,57.5c0.1,0.9-0.2,1.8-0.7,2.6
		c-1.1,1.1-2.9,1.2-4,0.2c0,0-0.1-0.1-0.1-0.1c-0.5-0.7-0.8-1.6-0.7-2.5v-1.5c-0.1-0.9,0.2-1.9,0.7-2.6c1.1-1.1,2.9-1.2,4-0.1
		c0,0,0.1,0.1,0.1,0.1c0.5,0.7,0.8,1.6,0.7,2.5V57.5z M33.3,60.4L33.3,60.4c-0.6,0.5-1.4,0.7-2.1,0.7c-0.7,0-1.4-0.2-2-0.7
		c-0.5-0.4-0.8-1.1-0.8-1.7H30c0,0.3,0.1,0.6,0.3,0.8c0.2,0.2,0.5,0.3,0.8,0.3c0.3,0,0.7-0.1,0.9-0.3c0.2-0.2,0.3-0.5,0.3-0.8
		c0.1-0.6-0.4-1.2-1-1.2c-0.1,0-0.2,0-0.3,0h-0.9v-1.3h0.9c0.3,0,0.7-0.1,0.9-0.3c0.2-0.2,0.3-0.5,0.3-0.8c0-0.3-0.1-0.6-0.3-0.8
		c-0.2-0.2-0.5-0.3-0.8-0.3c-0.3,0-0.6,0.1-0.8,0.3c-0.2,0.2-0.3,0.4-0.3,0.7h-1.6c0-0.4,0.1-0.8,0.3-1.2c0.2-0.4,0.6-0.6,1-0.8
		c0.4-0.2,0.9-0.3,1.4-0.3c0.7,0,1.5,0.2,2.1,0.6c0.5,0.4,0.8,1.1,0.8,1.7c0,0.4-0.1,0.7-0.3,1c-0.2,0.3-0.5,0.6-0.9,0.7
		c0.4,0.1,0.8,0.4,1,0.7c0.2,0.3,0.4,0.8,0.3,1.2C34.1,59.3,33.8,59.9,33.3,60.4z M40.4,56.5L40.4,56.5c0.1,1.2-0.3,2.3-1,3.2
		c-0.7,0.8-1.8,1.3-2.9,1.3l-0.4,0v-1.4l0.4,0c1.2,0.1,2.2-0.7,2.3-1.9c0,0,0-0.1,0-0.1c-0.4,0.4-0.9,0.6-1.5,0.6
		c-0.7,0-1.3-0.2-1.8-0.8c-0.5-0.6-0.7-1.3-0.7-2c0-0.5,0.1-1,0.4-1.5c0.2-0.4,0.6-0.8,1-1.1c0.4-0.3,0.9-0.4,1.4-0.4
		c1.1,0,2,0.6,2.4,1.6c0.2,0.6,0.4,1.1,0.4,1.7V56.5z M46.6,59.7L46.6,59.7c-0.2,0.4-0.6,0.8-1,1c-0.5,0.2-1,0.4-1.5,0.3
		c-0.5,0-1-0.1-1.4-0.3c-0.4-0.2-0.8-0.5-1-0.9c-0.2-0.4-0.4-0.8-0.4-1.2H43c0,0.3,0.1,0.6,0.4,0.8c0.2,0.2,0.5,0.3,0.8,0.3
		c0.3,0,0.7-0.1,0.9-0.4c0.2-0.3,0.3-0.7,0.3-1.1c0-0.4-0.1-0.8-0.3-1.1c-0.3-0.3-0.6-0.4-1-0.4c-0.3,0-0.7,0.1-0.9,0.3l-0.2,0.1
		l-1.3-0.3l0.5-4.2h4.6V54h-3.3l-0.2,1.8c0.4-0.2,0.8-0.3,1.2-0.3c0.7,0,1.4,0.2,1.8,0.7c0.5,0.6,0.7,1.3,0.7,2
		C47,58.8,46.8,59.3,46.6,59.7z M63.3,60.9l-0.6-1.7h-3l-0.6,1.7h-1.6l-0.1-0.3l-0.1,0.3h-1.6l-0.6-1.7h-3l-0.6,1.7h-1.8l3.1-8.2
		h1.6l3,8l3-8H62l3.1,8.2H63.3z M70.4,60.9l-2.9-8.2h1.9l1.9,6.2l1.9-6.2H75l-2.9,8.2H70.4z M78.5,60.9h-1.6l-2.1-6.1h1.7l1.1,4.1
		l1.1-4.1h1.7L78.5,60.9z M86.5,57.5c0.1,0.9-0.2,1.8-0.7,2.6c-1.1,1.1-2.9,1.2-4,0.1c0,0-0.1-0.1-0.1-0.1c-0.5-0.7-0.8-1.6-0.7-2.5
		v-1.5c-0.1-0.9,0.2-1.9,0.7-2.6c1.1-1.1,2.9-1.2,4-0.1c0,0,0.1,0.1,0.1,0.1c0.5,0.7,0.8,1.6,0.7,2.5V57.5z M92.9,57.5
		c0.1,0.9-0.2,1.8-0.7,2.6c-1.1,1.1-2.9,1.2-4,0.1c0,0-0.1-0.1-0.1-0.1c-0.5-0.7-0.8-1.6-0.7-2.5v-1.5c-0.1-0.9,0.2-1.9,0.7-2.6
		c1.1-1.1,2.9-1.2,4-0.1c0,0,0.1,0.1,0.1,0.1c0.5,0.7,0.8,1.6,0.7,2.5V57.5z M98.5,60.4L98.5,60.4c-1.2,0.8-2.9,0.8-4.1,0
		c-0.5-0.4-0.8-1.1-0.8-1.7c0-0.4,0.1-0.8,0.3-1.2c0.2-0.3,0.6-0.6,0.9-0.8c-0.3-0.2-0.6-0.4-0.8-0.7c-0.2-0.3-0.3-0.7-0.3-1.1
		c0-0.6,0.2-1.3,0.7-1.7c1.1-0.8,2.7-0.8,3.8,0c0.5,0.4,0.7,1,0.7,1.7c0,0.4-0.1,0.7-0.3,1.1c-0.2,0.3-0.5,0.6-0.8,0.7
		c0.4,0.2,0.7,0.5,0.9,0.8c0.2,0.3,0.4,0.8,0.4,1.2C99.3,59.3,99,60,98.5,60.4z M105.4,59.7c-0.2,0.4-0.6,0.8-1,1
		c-0.4,0.2-0.9,0.4-1.4,0.4c-0.9,0-1.5-0.3-2.1-0.9c-0.5-0.6-0.8-1.4-0.8-2.4v-0.6c0-0.9,0.2-1.7,0.5-2.3s0.8-1.2,1.4-1.6
		c0.6-0.4,1.3-0.6,2.2-0.6h0.3V54h-0.2c-0.7,0-1.3,0.2-1.8,0.6s-0.7,0.9-0.8,1.5c0.4-0.4,1-0.7,1.6-0.7c0.7,0,1.3,0.3,1.7,0.8
		s0.6,1.2,0.6,2C105.8,58.8,105.7,59.2,105.4,59.7z"/>
	<path class="st0" d="M103,56.8c-0.3,0-0.5,0.1-0.7,0.2c-0.2,0.1-0.4,0.3-0.5,0.5V58c0,0.5,0.1,1,0.3,1.3s0.5,0.5,0.9,0.5
		c0.3,0,0.6-0.1,0.8-0.4c0.2-0.3,0.3-0.6,0.3-1.1c0-0.4-0.1-0.8-0.3-1.1C103.6,56.9,103.3,56.8,103,56.8z"/>
	<polygon class="st0" points="20.4,1.9 25.2,1.9 25.2,0.1 18.2,0.1 18.2,10.8 20.4,10.8 	"/>
	<path class="st0" d="M38.2,19.3c-1.4-0.7-3-1-4.6-0.9h-8.9v22.4h5.4v-7.6v0h3.4c2.3,0.1,4.6-0.6,6.4-2c1.6-1.3,2.4-3.2,2.3-5.2
		c0-1.4-0.4-2.8-1.1-4C40.5,20.8,39.5,19.9,38.2,19.3z M36.1,28.2c-0.7,0.6-1.5,0.8-2.4,0.8h-3.5v-6.5h3.6c0.9,0,1.7,0.3,2.3,1
		c0.6,0.7,0.9,1.6,0.8,2.5C36.9,26.8,36.6,27.6,36.1,28.2z"/>
	<polygon class="st0" points="16.9,9.1 11.9,9.1 11.9,6.2 16.1,6.2 16.1,4.5 11.9,4.5 11.9,1.9 16.8,1.9 16.8,0.1 9.7,0.1 9.7,10.8
		16.9,10.8 	"/>
	<path class="st0" d="M2.2,7.1L2.2,7.1h1.9c1.1,0.1,2.1-0.3,3-0.9c0.7-0.6,1.1-1.5,1.1-2.5C8.2,3,8,2.4,7.7,1.8
		c-0.3-0.5-0.8-1-1.4-1.2C5.6,0.3,4.9,0.1,4.2,0.1H0v10.7h2.2V7.1z M2.2,1.9h2c0.5,0,0.9,0.2,1.3,0.5C5.8,2.8,6,3.2,6,3.7
		c0,0.4-0.1,0.9-0.4,1.2C5.1,5.2,4.7,5.3,4.2,5.3h-2l0,0V1.9z"/>
	<path class="st0" d="M29.3,8.4C29.2,8.7,29,8.9,28.8,9c-0.2,0.1-0.5,0.2-0.7,0.2c-0.2,0-0.4,0-0.6,0l0,1.8l0.8,0
		c1.1,0,2-0.5,2.5-1.4l0.3-0.6l3.7-8.8h-2.4l-1.9,5l-2.4-5.1h-2.4l3.8,7.6L29.3,8.4z"/>
	<path class="st0" d="M24.9,53.9L24.9,53.9c-0.3,0-0.7,0.2-0.9,0.4c-0.2,0.4-0.3,0.9-0.3,1.4v2c0,0.5,0.1,1,0.3,1.5
		c0.2,0.3,0.5,0.5,0.9,0.5c0.4,0,0.7-0.2,0.9-0.5c0.2-0.4,0.3-0.9,0.3-1.4v-2c0-0.5-0.1-1-0.3-1.5C25.6,54,25.3,53.9,24.9,53.9z"/>
	<path class="st0" d="M37.6,53.9L37.6,53.9c-0.3,0-0.6,0.2-0.8,0.5c-0.2,0.3-0.3,0.7-0.3,1.1c0,0.4,0.1,0.8,0.3,1.1
		c0.2,0.3,0.5,0.4,0.9,0.4c0.2,0,0.5-0.1,0.7-0.2c0.2-0.1,0.3-0.3,0.4-0.5v-0.7c0-0.5-0.1-0.9-0.3-1.3C38.3,54,38,53.9,37.6,53.9z"
		/>
	<polygon class="st0" points="16.9,40.7 16.9,44.5 22,44.5 22.3,36.6 18.9,36.6 18.9,18.3 13.4,18.3 13.4,36.6 5.4,36.6 5.4,18.3
		0,18.3 0,40.7 	"/>
	<polygon class="st0" points="0,18.3 0,18.3 0,18.3 	"/>
</g>
</svg>
