<?xml version="1.0" encoding="utf-8"?>
<!-- Generator: Adobe Illustrator 19.0.1, SVG Export Plug-In . SVG Version: 6.00 Build 0)  -->
<svg version="1.1" id="Слой_1" xmlns="http://www.w3.org/2000/svg" xmlns:xlink="http://www.w3.org/1999/xlink" x="0px" y="0px"
	 viewBox="-632 633.6 152.5 151.7" style="enable-background:new -632 633.6 152.5 151.7;" xml:space="preserve">
<g id="igiYG0.tif">
	<g>
		<path d="M-621,698.5c0.9,2.8,1.7,5.3,2.5,7.9c2.8,0,5.5,0,8.5,0c-0.6,0.4-0.9,0.7-1.2,1c-1.6,1.2-3.3,2.5-4.9,3.7
			c-0.6,0.4-0.6,0.8-0.4,1.5c0.7,2.1,1.4,4.1,2,6.2c0.1,0.3,0.2,0.6,0.3,1.1c-2.4-1.7-4.6-3.4-6.8-5c-2.2,1.6-4.4,3.2-6.6,4.9
			c-0.1,0-0.1-0.1-0.2-0.1c0.4-1.1,0.7-2.2,1.1-3.4c0.4-1.3,0.8-2.5,1.2-3.8c0.2-0.6,0.1-0.9-0.4-1.3c-1.8-1.4-3.6-2.7-5.4-4.1
			c-0.2-0.1-0.4-0.3-0.7-0.6c2.3,0,4.3,0,6.3,0c2.1,0,2.1,0,2.7-2C-622.3,702.5-621.7,700.7-621,698.5z"/>
		<path d="M-605.8,687.3c-2.2-1.6-4.4-3.1-6.6-4.7c-2.2,1.6-4.3,3.2-6.7,4.9c0.9-2.6,1.6-4.9,2.4-7.2c0.2-0.7,0.1-1-0.4-1.4
			c-2-1.5-4-3-6.1-4.6c0.4,0,0.6-0.1,0.8-0.1c2.2,0,4.5,0,6.7,0c0.6,0,0.8-0.2,1-0.7c0.7-2.3,1.5-4.7,2.3-7.3
			c0.3,0.9,0.5,1.5,0.7,2.2c0.5,1.7,1.1,3.3,1.5,5c0.2,0.6,0.4,0.8,1.1,0.8c2.5,0,5,0,7.7,0c-0.3,0.3-0.5,0.5-0.7,0.6
			c-1.8,1.3-3.5,2.7-5.3,4c-0.6,0.5-0.7,0.9-0.5,1.6c0.8,2.3,1.5,4.5,2.2,6.8C-605.7,687.2-605.7,687.3-605.8,687.3z"/>
		<path d="M-523.5,658.5c-2.2,1.6-4.4,3.2-6.7,4.9c0.5-1.4,0.8-2.6,1.2-3.7c0.4-1.2,0.8-2.5,1.2-3.7c0.2-0.5,0.1-0.8-0.4-1.1
			c-1.8-1.3-3.7-2.7-5.5-4.1c-0.2-0.2-0.5-0.4-0.9-0.7c0.9,0,1.5,0,2.1,0c1.9,0,3.7,0,5.6,0c0.7,0,0.9-0.2,1.1-0.8
			c0.7-2.3,1.4-4.5,2.2-7.1c0.7,2.3,1.3,4.3,2,6.3c0.7,1.9,0.1,1.5,2.2,1.6c2.2,0,4.3,0,6.6,0.2c-2.2,1.7-4.4,3.4-6.6,5.1
			c0.9,2.6,1.7,5.2,2.7,8C-519.1,661.7-521.3,660.1-523.5,658.5z"/>
		<path d="M-506.2,752.7c0.8-2.3,1.5-4.7,2.3-7c0.3-0.8,0.1-1.1-0.5-1.6c-2-1.4-3.9-2.9-5.9-4.5c0.4,0,0.6-0.1,0.8-0.1
			c2.1,0,4.3,0,6.4,0c0.8,0,1.1-0.3,1.3-1c0.6-2,1.3-4,2-6c0.1-0.2,0.2-0.4,0.4-0.9c0.8,2.7,1.6,5.3,2.4,7.8c2.8,0,5.5,0,8.5,0
			c-1.5,1.2-2.8,2.2-4.1,3.2c-0.5,0.4-1,0.9-1.5,1.2c-1,0.6-1.1,1.2-0.7,2.2c0.8,2.2,1.4,4.4,2.1,6.8c-1.2-0.9-2.1-1.6-3-2.3
			c-0.6-0.5-1.2-0.9-1.8-1.4c-1.9-1.4-1.9-1.4-3.8,0c-1.6,1.2-3.1,2.3-4.7,3.5C-506.1,752.8-506.1,752.7-506.2,752.7z"/>
		<path d="M-556.1,633.6c0.7,2.1,1.3,3.9,1.9,5.8c0.7,2.1,0.7,2.1,2.8,2.1c2,0,4,0,6.3,0c-2.1,1.6-4,3.1-5.9,4.5
			c-0.8,0.5-0.9,1-0.6,1.9c0.8,2.2,1.4,4.4,2.2,6.9c-0.6-0.5-1.1-0.8-1.6-1.1c-1.5-1.1-3.1-2.2-4.6-3.4c-0.4-0.3-0.7-0.3-1.1,0
			c-2,1.5-4,2.9-6.3,4.5c0.9-2.8,1.8-5.4,2.7-8c-2.2-1.7-4.4-3.4-6.8-5.2c2.9,0,5.6,0,8.4,0C-557.8,639-557,636.4-556.1,633.6z"/>
		<path d="M-600,650.2c2.4,0,4.6,0,6.8,0c1.6,0,1.7,0,2.2-1.6c0.7-2,1.3-4,2-6.3c0.2,0.5,0.3,0.8,0.4,1.1c0.6,2,1.3,4,1.9,6
			c0.2,0.6,0.4,0.8,1,0.7c2.5,0,5,0,7.7,0c-0.3,0.3-0.5,0.5-0.7,0.6c-1.7,1.3-3.5,2.6-5.3,3.9c-0.7,0.5-0.7,0.9-0.5,1.6
			c0.7,2,1.4,4.1,2,6.1c0.1,0.3,0.1,0.5,0.3,1c-2.4-1.8-4.6-3.4-6.8-5c-2.2,1.6-4.4,3.3-6.9,5.1c0.8-2.6,1.6-5,2.4-7.3
			c0.3-0.7,0.1-1.1-0.5-1.5c-1.8-1.3-3.6-2.6-5.3-3.9C-599.5,650.7-599.7,650.5-600,650.2z"/>
		<path d="M-499.4,682.4c-2.3,1.7-4.5,3.3-6.9,5.1c0.8-2.3,1.4-4.4,2.1-6.5c0.5-1.7,0.5-1.7-0.8-2.7c-1.7-1.3-3.4-2.5-5.1-3.8
			c0,0-0.1-0.1-0.2-0.3c0.5,0,0.9,0,1.4,0c2,0,3.9,0,5.9,0c0.7,0,1-0.2,1.2-0.8c0.7-2.3,1.5-4.6,2.4-7.2c0.2,0.5,0.3,0.7,0.3,1
			c0.6,2.1,1.3,4.2,1.8,6.3c0.2,0.6,0.4,0.7,1,0.7c2.2,0,4.4,0,6.6,0c0.3,0,0.6,0,0.9,0c0,0.1,0,0.1,0.1,0.2c-1.3,1-2.7,2-4,3
			c-0.7,0.5-1.3,1-2,1.5c-0.4,0.3-0.5,0.6-0.3,1.1c0.8,2.4,1.5,4.8,2.3,7.5C-495.1,685.7-497.2,684.1-499.4,682.4z"/>
		<path d="M-555.7,764.1c0.8,2.5,1.6,4.7,2.2,7c0.2,0.7,0.5,0.9,1.2,0.9c2.1,0,4.2,0,6.4,0c0.3,0,0.6,0,1.1,0.1
			c-2.4,1.8-4.5,3.4-6.8,5c0.9,2.7,1.7,5.3,2.7,8.2c-1.7-1.2-3.2-2.3-4.7-3.3c-0.7-0.5-1.5-1.4-2.2-1.4s-1.5,0.9-2.2,1.4
			c-1.5,1-2.9,2.1-4.6,3.3c0.3-1,0.6-1.8,0.8-2.6c0.5-1.6,1-3.2,1.6-4.8c0.2-0.6,0.1-0.9-0.4-1.3c-2-1.4-3.9-2.9-6.1-4.5
			c0.4,0,0.7-0.1,0.9-0.1c2.2,0,4.4,0,6.6,0c0.6,0,0.9-0.2,1.1-0.8c0.6-2,1.2-4,1.9-6C-556.1,764.9-555.9,764.6-555.7,764.1z"/>
		<path d="M-577.9,763.6c-2.2,1.7-4.4,3.3-6.6,5c0.9,2.6,1.7,5.2,2.6,7.8l-0.1,0.1c-2.2-1.6-4.3-3.2-6.5-4.9
			c-2.2,1.6-4.5,3.3-6.9,5.1c0.8-2.5,1.6-4.8,2.4-7.1c0.3-0.8,0.1-1.2-0.5-1.6c-2-1.4-3.9-2.9-6.1-4.5c0.4,0,0.6-0.1,0.8-0.1
			c2.3,0,4.5,0,6.8,0c0.6,0,0.9-0.2,1-0.8c0.7-2.3,1.5-4.6,2.5-6.9c0.8,2.5,1.5,5,2.3,7.6c2.8,0,5.5,0,8.2,0
			C-578,763.4-578,763.5-577.9,763.6z"/>
		<path d="M-501.5,706.4c2.7,0,5.1,0,7.5,0c0.7,0,1-0.3,1.2-0.9c0.6-2,1.3-4,2-6c0.1-0.3,0.2-0.5,0.4-1.1c0.7,2.4,1.3,4.5,2,6.6
			c0.5,1.6,0.1,1.3,1.8,1.3c2.3,0,4.5,0,7.1,0c-0.5,0.4-0.7,0.6-0.9,0.7c-1.8,1.3-3.5,2.6-5.3,3.9c-0.5,0.4-0.6,0.7-0.4,1.3
			c0.8,2.4,1.6,4.8,2.4,7.4c-2.4-1.8-4.5-3.4-6.7-5.1c-2.2,1.7-4.5,3.3-6.9,5.1c0.9-2.6,1.6-5,2.4-7.3c0.2-0.7,0.1-1.1-0.5-1.5
			c-1.8-1.3-3.6-2.6-5.5-3.9C-501,706.9-501.1,706.7-501.5,706.4z"/>
		<path d="M-534.2,763.4c2.4,0,4.8,0,7.2,0c0.8,0,1.1-0.3,1.3-1c0.6-2,1.2-3.9,1.8-5.9c0.1-0.3,0.2-0.6,0.4-1.2
			c0.8,2.5,1.5,4.8,2.2,7.1c0.2,0.7,0.5,1,1.3,0.9c2.1-0.1,4.2,0,6.4,0c0.3,0,0.6,0,0.9,0c0,0.1,0,0.1,0.1,0.2
			c-1.2,0.9-2.4,1.8-3.6,2.7c-0.8,0.6-1.6,1.2-2.4,1.7c-0.5,0.3-0.6,0.7-0.4,1.3c0.8,2.4,1.6,4.8,2.5,7.4c-2.4-1.8-4.6-3.4-6.9-5.1
			c-2.2,1.6-4.3,3.3-6.7,5.1c0.8-2.6,1.6-4.9,2.4-7.2c0.3-0.8,0.1-1.1-0.5-1.6c-2-1.4-4-2.9-5.9-4.3
			C-534.3,763.5-534.3,763.4-534.2,763.4z"/>
		<path d="M-619.1,753.1c0.7-2.2,1.3-4.2,2-6.1c0.7-2.1,0.7-2.1-1-3.3c-1.6-1.2-3.2-2.4-4.8-3.8c1.3,0,2.7,0,4,0c1,0,2.1,0,3.1,0
			c0.6,0,0.9-0.1,1.1-0.8c0.7-2.3,1.5-4.7,2.3-7.3c0.2,0.5,0.3,0.8,0.4,1.1c0.7,2.1,1.3,4.1,2,6.2c0.2,0.5,0.4,0.7,1,0.7
			c2.5,0,5,0,7.8,0c-0.8,0.6-1.5,1.1-2.1,1.6c-1.3,1-2.6,2-3.9,2.9c-0.6,0.4-0.7,0.8-0.4,1.4c0.7,2.1,1.3,4.1,1.9,6.2
			c0.1,0.3,0.2,0.6,0.3,1c-2.1-1.5-4.1-3-6-4.4c-0.6-0.5-1-0.5-1.6,0C-615.1,750.2-617,751.6-619.1,753.1z"/>
	</g>
</g>
</svg>
