<?xml version="1.0" encoding="utf-8"?>
<!-- Generator: Adobe Illustrator 19.2.1, SVG Export Plug-In . SVG Version: 6.00 Build 0)  -->
<svg version="1.1" id="Layer_2" xmlns="http://www.w3.org/2000/svg" xmlns:xlink="http://www.w3.org/1999/xlink" x="0px" y="0px"
	 viewBox="0 0 62.1 45" style="enable-background:new 0 0 62.1 45;" xml:space="preserve">
<style type="text/css">
	.st0{fill:#9BA3A7;}
	.st1{enable-background:new    ;}
	.st2{fill:#FFFFFF;}
</style>
<path class="st0" d="M59.3,44.9L2.9,45.1c-1.6,0-2.8-1.3-2.9-2.8V37c0-1.6,1.3-2.8,2.8-2.9L59.2,34c1.6,0,2.8,1.3,2.9,2.8v5.3
	C62.1,43.6,60.8,44.9,59.3,44.9z"/>
<g class="st1">
	<path class="st0" d="M7.5,2.9c-1.2,0-2.2,0.5-2.8,1.4s-1,2.2-1,3.8c0,3.4,1.3,5.1,3.9,5.1c1.1,0,2.4-0.3,3.9-0.8v2.7
		C10.1,15.7,8.7,16,7.1,16c-2.2,0-3.9-0.7-5.1-2c-1.2-1.4-1.8-3.3-1.8-5.8c0-1.6,0.3-3,0.9-4.2s1.4-2.1,2.5-2.8s2.4-1,3.8-1
		c1.5,0,3,0.4,4.5,1.1l-1.1,2.6c-0.6-0.3-1.2-0.5-1.7-0.7C8.6,3,8,2.9,7.5,2.9z"/>
	<path class="st0" d="M12.7,4h3.5l2.2,6.6c0.2,0.6,0.3,1.3,0.4,2h0.1c0.1-0.7,0.2-1.4,0.5-2L21.5,4h3.4l-5,13.2
		c-0.5,1.2-1.1,2.1-1.9,2.8c-0.8,0.6-1.8,0.9-3,0.9c-0.6,0-1.1-0.1-1.6-0.2v-2.5c0.4,0.1,0.8,0.1,1.3,0.1c0.6,0,1.1-0.2,1.5-0.5
		c0.4-0.3,0.8-0.9,1-1.6l0.2-0.6L12.7,4z"/>
	<path class="st0" d="M35.9,11.5c0,1.4-0.5,2.5-1.5,3.3S32,16,30.3,16c-1.6,0-3.1-0.3-4.3-0.9v-3c1,0.5,1.9,0.8,2.6,1
		c0.7,0.2,1.4,0.3,2,0.3c0.7,0,1.3-0.1,1.6-0.4c0.4-0.3,0.6-0.7,0.6-1.2c0-0.3-0.1-0.6-0.3-0.8s-0.4-0.5-0.7-0.7c-0.3-0.2-1-0.6-2-1
		c-0.9-0.4-1.6-0.9-2.1-1.3c-0.5-0.4-0.8-0.9-1.1-1.4c-0.3-0.5-0.4-1.2-0.4-1.9c0-1.4,0.5-2.4,1.4-3.2c0.9-0.8,2.2-1.2,3.8-1.2
		c0.8,0,1.6,0.1,2.3,0.3c0.7,0.2,1.5,0.5,2.3,0.8l-1,2.5c-0.8-0.3-1.5-0.6-2-0.7c-0.5-0.1-1.1-0.2-1.6-0.2c-0.6,0-1.1,0.1-1.4,0.4
		S29.3,4,29.3,4.5c0,0.3,0.1,0.5,0.2,0.8s0.3,0.4,0.6,0.6c0.3,0.2,1,0.6,2.1,1.1c1.4,0.7,2.4,1.4,3,2.1
		C35.7,9.7,35.9,10.5,35.9,11.5z"/>
	<path class="st0" d="M47.5,15.8h-8.8V0.4h8.8v2.7H42v3.4h5.2v2.7H42v4h5.6V15.8z"/>
	<path class="st0" d="M57.3,2.9c-1.2,0-2.2,0.5-2.8,1.4s-1,2.2-1,3.8c0,3.4,1.3,5.1,3.9,5.1c1.1,0,2.4-0.3,3.9-0.8v2.7
		C59.9,15.7,58.5,16,57,16c-2.2,0-3.9-0.7-5.1-2c-1.2-1.4-1.8-3.3-1.8-5.8c0-1.6,0.3-3,0.9-4.2s1.4-2.1,2.5-2.8c1.1-0.6,2.4-1,3.8-1
		c1.5,0,3,0.4,4.5,1.1l-1,2.6c-0.6-0.3-1.2-0.5-1.7-0.7S57.8,2.9,57.3,2.9z"/>
</g>
<g class="st1">
	<path class="st0" d="M1.6,27.8v3H0V23h2.3c1.1,0,1.8,0.2,2.3,0.6c0.5,0.4,0.8,1,0.8,1.8c0,0.5-0.1,0.9-0.4,1.2
		c-0.3,0.4-0.6,0.6-1.1,0.8c1.2,1.7,1.9,2.9,2.3,3.4H4.4l-1.9-3H1.6z M1.6,26.5h0.5c0.5,0,0.9-0.1,1.2-0.3s0.4-0.4,0.4-0.8
		c0-0.4-0.1-0.6-0.4-0.8c-0.3-0.2-0.6-0.2-1.2-0.2H1.6V26.5z"/>
	<path class="st0" d="M11.6,30.8H7.2V23h4.5v1.3H8.8v1.7h2.6v1.3H8.8v2h2.8V30.8z"/>
	<path class="st0" d="M16.2,26.4h3.1v4c-0.5,0.2-1,0.3-1.4,0.3c-0.4,0.1-0.9,0.1-1.4,0.1c-1.2,0-2.1-0.3-2.7-1
		c-0.6-0.7-0.9-1.7-0.9-3c0-1.3,0.4-2.2,1.1-2.9s1.7-1.1,3-1.1c0.8,0,1.6,0.2,2.3,0.5l-0.5,1.3c-0.6-0.3-1.2-0.4-1.8-0.4
		c-0.7,0-1.3,0.2-1.7,0.7c-0.4,0.5-0.6,1.1-0.6,1.9c0,0.8,0.2,1.5,0.5,1.9c0.3,0.4,0.8,0.7,1.5,0.7c0.3,0,0.7,0,1-0.1v-1.6h-1.5
		V26.4z"/>
	<path class="st0" d="M27.5,23v5c0,0.6-0.1,1.1-0.4,1.5c-0.3,0.4-0.6,0.8-1.1,1s-1.1,0.3-1.7,0.3c-1,0-1.8-0.3-2.3-0.8
		c-0.6-0.5-0.8-1.2-0.8-2.1v-5h1.6v4.8c0,0.6,0.1,1,0.4,1.3c0.2,0.3,0.6,0.4,1.2,0.4c0.5,0,0.9-0.1,1.2-0.4c0.2-0.3,0.4-0.7,0.4-1.3
		V23H27.5z"/>
	<path class="st0" d="M29.4,30.8V23H31v6.4h3.2v1.4H29.4z"/>
	<path class="st0" d="M40.3,30.8L39.7,29h-2.8l-0.6,1.8h-1.8l2.7-7.8h2l2.8,7.8H40.3z M39.3,27.6c-0.5-1.7-0.8-2.6-0.9-2.8
		s-0.1-0.4-0.1-0.5c-0.1,0.5-0.5,1.6-1,3.4H39.3z"/>
	<path class="st0" d="M46,30.8h-1.6v-6.4h-2.1V23h5.9v1.4H46V30.8z"/>
	<path class="st0" d="M53.8,30.8h-4.5V23h4.5v1.3H51v1.7h2.6v1.3H51v2h2.8V30.8z"/>
	<path class="st0" d="M61.9,26.8c0,1.3-0.4,2.3-1.1,2.9c-0.7,0.7-1.8,1-3.2,1h-2.2V23h2.4c1.3,0,2.3,0.3,3,1
		C61.5,24.7,61.9,25.6,61.9,26.8z M60.1,26.9c0-1.7-0.7-2.5-2.2-2.5h-0.9v5.1h0.7C59.4,29.4,60.1,28.6,60.1,26.9z"/>
</g>
<g class="st1">
	<path class="st2" d="M4.5,41.9v-4.4h0.9v3.6h1.8v0.8H4.5z"/>
	<path class="st2" d="M8,41.9v-4.4h0.9v4.4H8z"/>
	<path class="st2" d="M11.8,38.3c-0.3,0-0.6,0.1-0.8,0.4c-0.2,0.3-0.3,0.6-0.3,1.1c0,1,0.4,1.5,1.1,1.5c0.3,0,0.7-0.1,1.1-0.2v0.8
		c-0.4,0.1-0.8,0.2-1.2,0.2c-0.6,0-1.1-0.2-1.5-0.6C10,41,9.8,40.5,9.8,39.7c0-0.5,0.1-0.8,0.2-1.2c0.2-0.3,0.4-0.6,0.7-0.8
		s0.7-0.3,1.1-0.3c0.4,0,0.8,0.1,1.3,0.3l-0.3,0.8c-0.2-0.1-0.3-0.1-0.5-0.2S12,38.3,11.8,38.3z"/>
	<path class="st2" d="M16.4,41.9h-2.5v-4.4h2.5v0.8h-1.6v1h1.5V40h-1.5v1.1h1.6V41.9z"/>
	<path class="st2" d="M21.2,41.9H20l-1.9-3.3h0c0,0.6,0.1,1,0.1,1.2v2h-0.8v-4.4h1.2l1.9,3.3h0c0-0.6,0-1,0-1.2v-2.1h0.8V41.9z"/>
	<path class="st2" d="M24.8,40.7c0,0.4-0.1,0.7-0.4,0.9c-0.3,0.2-0.7,0.3-1.2,0.3c-0.5,0-0.9-0.1-1.2-0.3v-0.9
		c0.3,0.1,0.5,0.2,0.7,0.3c0.2,0.1,0.4,0.1,0.6,0.1c0.2,0,0.4,0,0.5-0.1c0.1-0.1,0.2-0.2,0.2-0.3c0-0.1,0-0.2-0.1-0.2
		c0-0.1-0.1-0.1-0.2-0.2c-0.1-0.1-0.3-0.2-0.6-0.3c-0.3-0.1-0.5-0.2-0.6-0.4c-0.1-0.1-0.2-0.2-0.3-0.4c-0.1-0.2-0.1-0.3-0.1-0.5
		c0-0.4,0.1-0.7,0.4-0.9s0.6-0.3,1.1-0.3c0.2,0,0.4,0,0.6,0.1c0.2,0.1,0.4,0.1,0.6,0.2l-0.3,0.7c-0.2-0.1-0.4-0.2-0.6-0.2
		c-0.2,0-0.3-0.1-0.4-0.1c-0.2,0-0.3,0-0.4,0.1c-0.1,0.1-0.1,0.2-0.1,0.3c0,0.1,0,0.2,0.1,0.2c0,0.1,0.1,0.1,0.2,0.2
		c0.1,0.1,0.3,0.2,0.6,0.3c0.4,0.2,0.7,0.4,0.8,0.6C24.8,40.2,24.8,40.4,24.8,40.7z"/>
	<path class="st2" d="M28.1,41.9h-2.5v-4.4h2.5v0.8h-1.6v1H28V40h-1.5v1.1h1.6V41.9z"/>
	<path class="st2" d="M33.7,41.9h-1l-1.5-3.1h0c0,0.5,0.1,0.9,0.1,1.2v1.9h-0.8v-4.4h1l1.5,3.1H33c0-0.5-0.1-0.9-0.1-1.2v-1.9h0.8
		V41.9z M36.1,40c0,0.3-0.1,0.6-0.3,0.8s-0.4,0.3-0.7,0.3c-0.3,0-0.5-0.1-0.7-0.3c-0.2-0.2-0.3-0.5-0.3-0.8c0-0.3,0.1-0.6,0.3-0.8
		c0.2-0.2,0.4-0.3,0.8-0.3c0.3,0,0.6,0.1,0.7,0.3C36,39.4,36.1,39.7,36.1,40z M34.2,41.9v-0.6h1.9v0.6H34.2z M34.7,40
		c0,0.2,0,0.3,0.1,0.4c0.1,0.1,0.2,0.2,0.3,0.2c0.1,0,0.2-0.1,0.3-0.2c0.1-0.1,0.1-0.2,0.1-0.4c0-0.2,0-0.3-0.1-0.4
		c-0.1-0.1-0.2-0.1-0.3-0.1c-0.1,0-0.2,0-0.3,0.1S34.7,39.8,34.7,40z"/>
	<path class="st2" d="M41.2,41.9h-3v-0.6l1.1-1.1c0.3-0.3,0.5-0.6,0.6-0.7c0.1-0.1,0.2-0.2,0.2-0.4c0-0.1,0.1-0.2,0.1-0.3
		c0-0.2,0-0.3-0.1-0.4c-0.1-0.1-0.2-0.1-0.4-0.1c-0.2,0-0.3,0-0.5,0.1c-0.2,0.1-0.3,0.2-0.5,0.3l-0.5-0.6c0.2-0.2,0.4-0.3,0.5-0.4
		c0.1-0.1,0.3-0.1,0.5-0.2c0.2,0,0.4-0.1,0.6-0.1c0.3,0,0.5,0,0.7,0.1c0.2,0.1,0.4,0.2,0.5,0.4s0.2,0.4,0.2,0.6c0,0.2,0,0.4-0.1,0.6
		s-0.2,0.4-0.3,0.5c-0.1,0.2-0.4,0.4-0.8,0.8l-0.6,0.5v0h1.9V41.9z"/>
	<path class="st2" d="M44.8,41h-0.5v0.9h-0.9V41h-1.9v-0.6l1.9-2.8h0.8v2.7h0.5V41z M43.4,40.3v-0.7c0-0.1,0-0.3,0-0.5s0-0.4,0-0.4
		h0c-0.1,0.2-0.2,0.3-0.3,0.5l-0.8,1.2H43.4z"/>
	<path class="st2" d="M45.6,41.9l1.6-3.6h-2.1v-0.8h3.1v0.6l-1.6,3.8H45.6z"/>
	<path class="st2" d="M50.9,37.5l-1.6,4.4h-0.8l1.6-4.4H50.9z"/>
	<path class="st2" d="M53.4,41.9h-0.9v-2.5l0-0.4l0-0.5c-0.2,0.2-0.3,0.3-0.3,0.3l-0.5,0.4l-0.4-0.6l1.4-1.1h0.8V41.9z"/>
	<path class="st2" d="M57.8,41h-0.5v0.9h-0.9V41h-1.9v-0.6l1.9-2.8h0.8v2.7h0.5V41z M56.3,40.3v-0.7c0-0.1,0-0.3,0-0.5s0-0.4,0-0.4
		h0c-0.1,0.2-0.2,0.3-0.3,0.5l-0.8,1.2H56.3z"/>
</g>
</svg>
