<svg id="Слой_5" data-name="Слой 5" xmlns="http://www.w3.org/2000/svg" viewBox="0 0 284 284"><defs><style>.cls-1,.cls-2,.cls-3,.cls-4,.cls-5{fill:#fff;}.cls-1{opacity:0.05;}.cls-2{opacity:0.1;}.cls-3{opacity:0.1;}.cls-3,.cls-4,.cls-5{isolation:isolate;}.cls-4{opacity:0.5;}.cls-5{opacity:0.7;}</style></defs><title>restaurant</title><circle class="cls-1" cx="142" cy="142" r="142"/><circle class="cls-2" cx="142" cy="142" r="131.27"/><path class="cls-3" d="M142.07,115.28a3,3,0,0,1-2.29-.89v2.31a0.75,0.75,0,0,0,.49.56h0a3.76,3.76,0,0,0,1.54.36h0.26a4,4,0,0,0,1.81-.36,0.75,0.75,0,0,0,.49-0.56v-2.27A3.08,3.08,0,0,1,142.07,115.28Z"/><path class="cls-4" d="M142.07,105.78a4.48,4.48,0,0,0-2.51,8.15l0.08,0.09,0.14,0.09a4.44,4.44,0,0,0,4.59,0l0.14-.09,0.14-.09A4.48,4.48,0,0,0,142.07,105.78Z"/><path class="cls-3" d="M90.89,196.62c4.88,7.77,20.24,11.1,51.18,11.1s46.3-3.32,51.18-11.1c-14.46,3.07-32.6,4.75-51.18,4.75S105.36,199.68,90.89,196.62Z"/><path class="cls-4" d="M208.56,165.44v1.45l0.08,0.48a53.57,53.57,0,0,1,.69,8.53c0,0.87,0,1.77-.08,2.73v0.08h-0.08a30.24,30.24,0,0,1-2.85,1.37c-0.71.38-1.58,0.78-2.58,1.25a57.12,57.12,0,0,1-6.42,2.26c-2.51.74-5.4,1.43-8.58,2s-6.62,1.17-10.27,1.67-7.52.94-11.54,1.25-8.16.61-12.38,0.8q-3.16.15-6.37,0.2H142c-4.29,0-8.58-.09-12.8-0.29s-8.36-.46-12.38-0.82-7.88-.78-11.54-1.25c-1.83-.25-3.6-0.54-5.32-0.83s-3.36-.6-4.94-0.93c-3.16-.66-6-1.37-8.55-2.11a67.89,67.89,0,0,1-6.43-2.19l-1.35-.58a33.17,33.17,0,0,1-4-1.77H74.62V178.7c0-1-.08-1.86-0.08-2.73a53.57,53.57,0,0,1,.69-8.53l0.09-.49v-0.13l0.06-.39v-0.18l0.06-.35v-0.43c-15.31,3.47-23.75,8-23.75,12.64,0,5.66,12.2,11,33.47,14.56a355,355,0,0,0,56.76,4.19,355,355,0,0,0,56.92-4.21c21.32-3.6,33.47-8.9,33.47-14.56C232.3,173.44,223.92,168.95,208.56,165.44Z"/><path class="cls-5" d="M51.84,179.23v0.54a4.85,4.85,0,0,0,.53,1.49,7.79,7.79,0,0,0,1.59,2,16.89,16.89,0,0,0,2.78,2,43.28,43.28,0,0,0,8.58,3.65,116.77,116.77,0,0,0,11.75,3c4.35,0.9,9.12,1.69,14.17,2.38s10.41,1.25,16,1.72c2.77,0.24,5.59.43,8.45,0.61s5.76,0.31,8.68.43c5.84,0.24,11.78.35,17.71,0.35s11.86-.11,17.71-0.35c2.92-.11,5.82-0.28,8.68-0.43s5.68-.38,8.45-0.61c5.54-.48,10.9-1,16-1.72s9.81-1.48,14.17-2.38a116.94,116.94,0,0,0,11.75-3,43.28,43.28,0,0,0,8.58-3.65,16.88,16.88,0,0,0,2.78-2,7.8,7.8,0,0,0,1.59-2,4.85,4.85,0,0,0,.53-1.49v0a4.9,4.9,0,0,1-.46,1.53,7.93,7.93,0,0,1-1.54,2.07,15.88,15.88,0,0,1-2.76,2.14,43.73,43.73,0,0,1-8.55,4,104.51,104.51,0,0,1-11.74,3.35q-3.27.75-6.83,1.43c-2.37.45-4.83,0.85-7.36,1.25-5,.78-10.43,1.43-16,1.94s-11.29.94-17.18,1.18S148,199,142,199s-11.91-.15-17.78-0.41-11.62-.66-17.18-1.19-10.92-1.17-16-1.94c-2.51-.4-5-0.79-7.36-1.25s-4.65-.93-6.83-1.43a104.66,104.66,0,0,1-11.74-3.35,43.71,43.71,0,0,1-8.49-4,15.88,15.88,0,0,1-2.76-2.14,7.93,7.93,0,0,1-1.54-2.07,4.9,4.9,0,0,1-.46-1.53Z"/><path class="cls-5" d="M76.82,179c0.92,0.38,2.28.88,4,1.4s3.94,1.09,6.45,1.64,5.35,1.08,8.48,1.55c1.57,0.24,3.19.49,4.88,0.7L105.9,185c3.6,0.41,7.41.75,11.35,1.05s8,0.51,12.18.65,8.38,0.23,12.54.21h6.32l3.15-.08,3.12-.09c4.15-.14,8.24-0.35,12.18-0.64s7.75-.61,11.35-1,7-.89,10.11-1.42,6-1.08,8.46-1.61,4.68-1.07,6.45-1.57,3.16-1,4.09-1.25c0.48-.16.82-0.31,1.07-0.4l0.36-.14c0-.93.06-1.79,0.06-2.63a53.75,53.75,0,0,0-.68-8.48c-0.11-.66-0.24-1.37-0.39-2.14-5.51-27.17-31.58-47.65-62.54-48.76l-0.25.9a1.25,1.25,0,0,1-.8.82,4.74,4.74,0,0,1-2,.4h-0.21a4.49,4.49,0,0,1-1.73-.39,1.17,1.17,0,0,1-.66-0.7l-0.3-1.17c-31,1.1-57.13,21.58-62.64,48.76-0.16.78-.29,1.48-0.39,2.14a53.75,53.75,0,0,0-.68,8.48c0,0.82,0,1.63.06,2.51l0.33,0.15A10.37,10.37,0,0,0,76.82,179Zm79.5-56.83c23,4.92,40.48,21.24,44.61,41.6,0.13,0.61.23,1.17,0.31,1.71a46.4,46.4,0,0,1,.61,7.52c0,0.76,0,1.54-.06,2.4v0h-0.08a36.13,36.13,0,0,1-6.14,2.51h-0.19v-1.45a59.75,59.75,0,0,0-.54-8,58.79,58.79,0,0,0-1.1-5.87c-4.7-19.39-19.07-34.82-37.55-40.15ZM82.89,165.53c0.09-.54.19-1.1,0.31-1.71,4.13-20.37,21.58-36.69,44.61-41.61l0.08,0.28c-18.42,5.33-32.78,20.77-37.49,40.24a58.75,58.75,0,0,0-1.1,5.87,59.75,59.75,0,0,0-.54,8q0,0.63,0,1.25v0.2H88.56a36.13,36.13,0,0,1-6.14-2.51H82.34v-0.08c0-.85-0.06-1.63-0.06-2.4A46.4,46.4,0,0,1,82.89,165.53Z"/><path class="cls-3" d="M122.21,111l-0.1-.73a16.48,16.48,0,0,1-.16-2v-2.31l0.13-.9a9.68,9.68,0,0,1,.28-1l0.11-.5,0.14-.5c0.1-.34.2-0.69,0.33-1s0.24-.7.38-1.05a34,34,0,0,0,1.45-4.34,20.4,20.4,0,0,0,.49-4.85v-1h0v-0.3l-0.09-1.42L125,87.84a7.14,7.14,0,0,0-.24-1.25,21.64,21.64,0,0,0-1.91-5,9.79,9.79,0,0,1-.7-1.4c-0.1-.24-0.21-0.48-0.31-0.73l-0.29-.75a9.31,9.31,0,0,1-.45-1.53c-0.11-.5-0.26-1.05-0.35-1.58s-0.18-1.05-.23-1.58l-0.1-1.55V68.78l0.1-.75a13.32,13.32,0,0,1,.24-1.47,18.27,18.27,0,0,1,.84-2.7c0.18-.43.33-0.85,0.53-1.25s0.36-.79.58-1.15l0.29-.54,0.29-.51,0.56-1A25.32,25.32,0,0,0,125.59,56l0.3-.88c0.1-.25.16-0.51,0.24-0.75l0.21-.7,0.15-.65,0.14-.59a3.25,3.25,0,0,1,.11-0.53L126.9,51l0.14-.7a3.79,3.79,0,0,0,.1.71,16.79,16.79,0,0,1,.23,2.09v2.31l-0.13.9a5.33,5.33,0,0,1-.19,1l-0.11.5-0.14.5c-0.1.34-.2,0.69-0.33,1s-0.36.76-.49,1.07a33.93,33.93,0,0,0-1.45,4.34,17.46,17.46,0,0,0-.38,2.35,7.3,7.3,0,0,1-.08,1.25V70.7h0V71l0.09,1.32,0.18,1.25a6.72,6.72,0,0,0,.24,1.25,21.66,21.66,0,0,0,1.91,5c0.21,0.46.43,0.9,0.64,1.39,0.1,0.24.21,0.48,0.31,0.73l0.28,0.73c0.2,0.5.34,1,.5,1.54a11.48,11.48,0,0,1,.35,1.58c0.09,0.53.18,1.05,0.23,1.58s0.08,1.08.1,1.61,0,1,0,1.42v1.53a20.26,20.26,0,0,1-1.17,5.62,27.88,27.88,0,0,1-2.24,4.44,25.33,25.33,0,0,0-1.88,3.45l-0.3.79c-0.1.25-.16,0.51-0.24,0.75l-0.21.7-0.15.65-0.14.59a3.25,3.25,0,0,1-.11.53l-0.1.82Z"/><path class="cls-3" d="M158,111l-0.08-.45a10.16,10.16,0,0,1-.15-1.25v-1a9.14,9.14,0,0,1,.09-1.14,13.59,13.59,0,0,1,.68-2.65,21.81,21.81,0,0,0,.87-2.78,13.25,13.25,0,0,0,.26-3.06V98h0V96.93l-0.11-.78a4.38,4.38,0,0,0-.15-0.79,13.92,13.92,0,0,0-1.25-3.15,14.71,14.71,0,0,1-1.37-3.94,15,15,0,0,1-.15-4V83.84l0.06-.5a8.4,8.4,0,0,1,.16-1,11.84,11.84,0,0,1,.53-1.78,17.3,17.3,0,0,1,1.5-2.86A17,17,0,0,0,160,75.55l0.2-.5c0.06-.16.11-0.33,0.16-0.48l0.15-.44,0.11-.41c0.06-.26.15-0.5,0.19-0.71l0.13-.54,0.11-.45a2,2,0,0,0,.08.45,10.4,10.4,0,0,1,.15,1.25v1a9.14,9.14,0,0,1-.09,1.14,13.61,13.61,0,0,1-.68,2.65,21.76,21.76,0,0,0-.87,2.78,11.29,11.29,0,0,0-.21,1.48V85h0v1l0.11,0.82a4.52,4.52,0,0,0,.15.8A13.93,13.93,0,0,0,161,90.77c0.28,0.59.56,1.25,0.8,1.87a9.57,9.57,0,0,1,.33,1,10.29,10.29,0,0,1,.23,1c0.06,0.34.11,0.69,0.15,1l0.06,1.05v1.89a13.09,13.09,0,0,1-.8,3.67,17.27,17.27,0,0,1-1.5,2.86,17,17,0,0,0-1.18,2.18l-0.2.5c-0.06.16-.11,0.33-0.16,0.48l-0.15.44-0.11.41c-0.06.26-.15,0.5-0.19,0.71l-0.13.54Z"/><path class="cls-3" d="M138.81,102.32l-0.16-1-0.13-1.13c-0.06-.45,0-1-0.09-1.58v-2a6,6,0,0,1,.08-1.14l0.16-1.25q0.09-.63.25-1.25l0.15-.68,0.19-.68c0.13-.46.26-0.94,0.43-1.4s0.33-1,.5-1.42A45.83,45.83,0,0,0,142.12,83a27.59,27.59,0,0,0,.64-6.52V74.75l-0.11-1.91-0.24-1.68c-0.09-.56-0.21-1.14-0.31-1.71a29.16,29.16,0,0,0-2.51-6.72l-0.87-1.87c-0.14-.33-0.29-0.64-0.43-1l-0.49-1c-0.14-.34-0.25-0.69-0.36-1l-0.33-1.05c-0.16-.71-0.35-1.43-0.48-2.14l-0.16-1.07c0-.35-0.13-0.71-0.14-1.07,0-.7-0.1-1.4-0.14-2.09v-3.1l0.11-1,0.08-.93,0.14-1a17.86,17.86,0,0,1,.33-2,24.65,24.65,0,0,1,1-3.6c0.24-.58.44-1.15,0.7-1.69s0.5-1.08.78-1.55l0.4-.74,0.4-.69c0.26-.46.51-0.89,0.76-1.25a34.31,34.31,0,0,0,2.38-4.64l0.4-1.05a5,5,0,0,0,.18-0.51l0.15-.5,0.29-.94,0.21-.88,0.2-.79c0.06-.25.13-0.49,0.16-0.7l0.21-1.13,0.2-1,0.14,1a10.1,10.1,0,0,0,.15,1.15c0.06,0.45,0,1,.09,1.58v2a6,6,0,0,1-.08,1.14l-0.16,1.19q-0.09.63-.25,1.25l-0.15.68-0.15.68c-0.13.46-.26,0.94-0.43,1.4s-0.33,1-.5,1.43A45.75,45.75,0,0,0,142,40a23.52,23.52,0,0,0-.5,3.15,7.36,7.36,0,0,0-.06.82v4h0v0.39l0.09,1.69,0.23,1.74a5,5,0,0,0,.15.87l0.16,0.85a29.18,29.18,0,0,0,2.51,6.72l0.87,1.87c0.14,0.33.29,0.64,0.43,1l0.39,1c0.28,0.68.46,1.39,0.68,2.09a18.21,18.21,0,0,1,.48,2.14l0.16,1.07,0.08,0.53v0.54c0,0.73.1,1.47,0.14,2.17v3l-0.08,1a27.32,27.32,0,0,1-1.59,7.6c-0.24.58-.44,1.15-0.7,1.68l-0.38.8c-0.13.26-.26,0.5-0.4,0.75l-0.4.74-0.3.7c-0.26.46-.51,0.89-0.76,1.25a34.36,34.36,0,0,0-2.38,4.64l-0.4,1.05a5.19,5.19,0,0,0-.18.51l-0.15.5-0.29.94-0.21.87-0.19.79a7.14,7.14,0,0,0-.16.71L139,101.36Z"/></svg>