<svg id="Слой_1" data-name="Слой 1" xmlns="http://www.w3.org/2000/svg" viewBox="0 0 1244.7 995.67"><defs><style>.cls-1{opacity:0.3;}.cls-2{fill:#fff;}</style></defs><title>VIP_stadium_2</title><g class="cls-1"><path class="cls-2" d="M251.46,263.93h0c0.43-.51.88-1,1.32-1.52s0.84-1,1.27-1.45c0.63-.71,1.28-1.41,1.93-2.1,0.4-.44.8-0.88,1.21-1.31,0.74-.78,1.49-1.54,2.24-2.3l1-1q1.65-1.64,3.34-3.22l0.29-.27q1.55-1.44,3.14-2.85l1.19-1c0.78-.67,1.55-1.34,2.34-2l1.43-1.16c0.72-.59,1.45-1.17,2.18-1.74l1.57-1.2c0.51-.39,1-0.78,1.53-1.16h0l-47.38-65.21v0c-1,.75-2,1.54-2.93,2.31s-1.74,1.35-2.6,2c-1.23,1-2.43,2-3.63,3-0.78.65-1.56,1.3-2.33,2-1.34,1.16-2.64,2.35-4,3.54-0.61.55-1.23,1.09-1.84,1.65q-5.71,5.3-11,11c-0.58.61-1.14,1.25-1.71,1.87-1.19,1.29-2.37,2.57-3.53,3.89-0.68.77-1.34,1.57-2,2.35-1,1.19-2,2.38-3,3.59-0.7.85-1.38,1.73-2.07,2.59s-1.55,1.95-2.32,2.93l64.4,46.79h0Z"/><path class="cls-2" d="M1014,746.82l-20.77-15.09h0c-0.42.5-.86,1-1.29,1.48s-0.87,1-1.31,1.5c-0.63.7-1.27,1.39-1.91,2.08-0.41.44-.81,0.89-1.23,1.33-0.74.78-1.49,1.54-2.25,2.3l-1,1q-1.65,1.64-3.34,3.22l-0.27.24q-1.56,1.46-3.17,2.87l-1.19,1c-0.78.67-1.55,1.34-2.34,2l-1.44,1.17c-0.72.58-1.44,1.17-2.17,1.73l-1.58,1.2c-0.51.39-1,.78-1.53,1.16h0l47.38,65.21c1-.77,2-1.55,3-2.33s1.71-1.32,2.54-2c1.24-1,2.45-2,3.66-3.06,0.77-.65,1.55-1.28,2.31-1.94,1.34-1.16,2.64-2.35,4-3.54,0.61-.55,1.24-1.09,1.84-1.66q5.7-5.3,11-11c0.58-.61,1.13-1.25,1.7-1.86,1.19-1.29,2.38-2.58,3.54-3.9,0.67-.76,1.32-1.55,2-2.32,1-1.2,2.06-2.4,3.07-3.62,0.69-.84,1.36-1.71,2-2.56s1.59-2,2.36-2.95h0Z"/><path class="cls-2" d="M181.11,225.18L179.87,227l-1,1.45-1.23,1.84-1,1.43c-0.42.63-.82,1.27-1.23,1.91L174.56,235c-0.43.68-.85,1.37-1.27,2.05l-0.79,1.28c-0.49.8-1,1.61-1.44,2.42l-0.57,1q-1,1.69-1.95,3.4l-0.36.65c-0.52.93-1,1.86-1.53,2.79L166,249.73c-0.4.76-.8,1.51-1.2,2.27l-0.7,1.39c-0.36.7-.72,1.4-1.07,2.11L162.33,257c-0.33.68-.67,1.37-1,2.06l-0.71,1.53c-0.31.68-.63,1.35-0.94,2l-0.7,1.57c-0.3.67-.6,1.34-0.89,2l-0.68,1.6c-0.28.67-.57,1.34-0.84,2l-0.66,1.63c-0.17.42-.35,0.85-0.52,1.27h0L230.12,297c0.31-.64.63-1.27,0.94-1.91s0.57-1.18.87-1.76c0.44-.87.91-1.74,1.37-2.6,0.29-.53.56-1.07,0.85-1.6,0.54-1,1.11-2,1.67-2.94,0.23-.39.45-0.79,0.68-1.19q1.21-2,2.47-4l0.61-.93c0.66-1,1.32-2,2-3,0.34-.5.69-1,1-1.47,0.56-.81,1.12-1.62,1.7-2.42,0.39-.54.79-1.07,1.19-1.6,0.55-.74,1.1-1.48,1.66-2.21,0.42-.55.86-1.09,1.29-1.63s0.78-1,1.18-1.49l-64.32-46.73-0.86,1.15L183.41,222l-1.27,1.75Z"/><path class="cls-2" d="M967.24,239.64c0.52,0.38,1,.78,1.53,1.17l1.57,1.19c0.74,0.57,1.47,1.16,2.19,1.75l1.42,1.15c0.8,0.66,1.58,1.33,2.36,2l1.17,1q1.6,1.4,3.15,2.85l0.29,0.26q1.7,1.58,3.34,3.22l1,1c0.75,0.76,1.49,1.51,2.22,2.28,0.41,0.44.82,0.89,1.23,1.33,0.64,0.69,1.28,1.38,1.91,2.09,0.43,0.48.85,1,1.27,1.45s0.89,1,1.32,1.52L1023,242.32l34.65-25.18c-0.75-1-1.51-1.93-2.28-2.88s-1.4-1.78-2.12-2.65c-1-1.19-2-2.35-3-3.52-0.69-.8-1.36-1.62-2.06-2.41-1.13-1.28-2.29-2.54-3.45-3.8-0.6-.65-1.18-1.32-1.79-2q-2.65-2.81-5.38-5.53l0,0q-2.76-2.74-5.61-5.39c-0.62-.58-1.26-1.13-1.89-1.7-1.29-1.17-2.58-2.35-3.9-3.49-0.78-.68-1.58-1.33-2.37-2-1.19-1-2.38-2-3.59-3-0.87-.71-1.76-1.39-2.64-2.08s-1.92-1.54-2.9-2.28v0L996.07,200Z"/><rect class="cls-2" x="740.35" y="127.91" width="74.89" height="82.15"/><path class="cls-2" d="M215.5,361.71c0-1.79,0-3.59.1-5.39,0-.15,0-0.3,0-0.45,0.07-1.71.17-3.43,0.29-5.14,0-.23,0-0.46,0-0.69q0.19-2.51.48-5c0-.26.06-0.53,0.09-0.79q0.29-2.47.66-4.93c0-.13,0-0.26.05-0.39H140.16c0,0.64-.08,1.29-0.13,1.93s-0.09,1.24-.12,1.87c-0.05.92-.1,1.83-0.14,2.75,0,0.58-.06,1.16-0.08,1.73,0,1-.07,2-0.09,3,0,0.48,0,1,0,1.45q0,2.22,0,4.42v60.15h76V361.71Z"/><rect class="cls-2" x="139.51" y="499.25" width="75.99" height="77.33"/><path class="cls-2" d="M933.75,220.92h0c0.62,0.25,1.24.52,1.86,0.78l1.75,0.74c0.87,0.38,1.74.77,2.6,1.17l1.62,0.74c1,0.45,1.91.92,2.86,1.39l1.3,0.64q2.06,1,4.1,2.16l0.31,0.18q1.87,1,3.71,2.11l1.37,0.83c0.87,0.52,1.73,1,2.59,1.58l1.59,1c0.77,0.5,1.54,1,2.29,1.5l1.67,1.15c0.52,0.36,1,.71,1.56,1.07l47.42-65.27h0l-1-.76-1.58-1.15-1.62-1.15-1.58-1.11-1.66-1.14-1.57-1.06-1.73-1.14-1.54-1L998.23,163l-1.5-.94-2-1.2-1.38-.84-2.31-1.36-1.06-.62q-1.69-1-3.41-1.92l-0.58-.32q-1.43-.78-2.86-1.55l-1.19-.62-2.28-1.18-1.37-.68-2.13-1.06-1.47-.7-2.06-1-1.54-.71-2-.91-1.6-.7-2-.86-1.64-.68-2-.81-1.68-.67-1.24-.49h0l-17,52.3Z"/><path class="cls-2" d="M217.69,336.09c0.13-.75.28-1.5,0.42-2.25s0.25-1.35.38-2c0.21-1,.43-2,0.66-3,0.14-.6.26-1.21,0.4-1.82,0.29-1.22.61-2.44,0.93-3.65,0.1-.39.19-0.78,0.3-1.16q0.65-2.39,1.38-4.77c0.13-.43.28-0.85,0.41-1.27,0.37-1.16.74-2.31,1.13-3.46,0.2-.59.42-1.17,0.63-1.76,0.35-1,.7-1.95,1.07-2.91,0.24-.64.5-1.27,0.76-1.91,0.36-.91.72-1.82,1.1-2.72,0.27-.65.56-1.3,0.85-1.95s0.53-1.24.8-1.85h0L223,297.63l-68.6-22.29h0c-0.18.47-.35,0.94-0.53,1.42s-0.42,1.12-.63,1.68-0.5,1.4-.75,2.1-0.4,1.11-.59,1.67c-0.25.71-.48,1.43-0.72,2.14-0.18.55-.37,1.11-0.55,1.66-0.24.73-.46,1.45-0.69,2.18-0.17.55-.35,1.09-0.51,1.64-0.23.76-.45,1.51-0.68,2.27-0.15.52-.31,1-0.46,1.56-0.23.81-.45,1.61-0.67,2.42-0.13.48-.27,1-0.4,1.44-0.26,1-.51,1.95-0.75,2.92-0.08.32-.17,0.63-0.24,0.95q-0.48,1.94-.93,3.88c-0.08.36-.16,0.73-0.24,1.09-0.21.94-.42,1.87-0.62,2.81-0.11.51-.21,1-0.31,1.52-0.16.8-.33,1.59-0.48,2.39-0.11.56-.21,1.12-0.31,1.68-0.14.75-.28,1.5-0.41,2.25-0.1.58-.19,1.16-0.29,1.74-0.12.73-.25,1.47-0.36,2.21s-0.18,1.19-.27,1.79-0.22,1.45-.32,2.17-0.16,1.21-.24,1.82-0.19,1.44-.27,2.16-0.14,1.21-.21,1.82-0.16,1.44-.24,2.17-0.12,1.22-.18,1.83c0,0.46-.09.91-0.13,1.37h77.3Z"/><rect class="cls-2" x="139.51" y="419.09" width="75.99" height="77.33"/><rect class="cls-2" x="662.63" y="127.91" width="74.89" height="82.15"/><path class="cls-2" d="M899.83,211.73c1,0.15,1.95.31,2.92,0.48l1.77,0.3c1.12,0.2,2.23.43,3.34,0.66l1.31,0.26q2.32,0.5,4.62,1.06l0.92,0.24c1.22,0.31,2.44.63,3.65,1l1.63,0.48c1,0.28,1.94.57,2.91,0.87l1.82,0.6c0.89,0.29,1.78.59,2.67,0.9l1.9,0.69c0.6,0.22,1.21.43,1.81,0.66l6.29-19.35,18.94-58.29h0l-1.38-.5-1.71-.62-2.07-.73-1.7-.59-2.11-.7-1.67-.54-2.19-.68-1.61-.49-2.31-.67-1.51-.44-2.53-.69-1.31-.35-3.15-.79-0.71-.18q-1.94-.47-3.9-0.91l-0.7-.15-3.19-.68-1.32-.26-2.58-.5-1.55-.28-2.37-.42-1.65-.27-2.29-.36-1.71-.25-2.23-.31-1.75-.22-2.2-.27-1.79-.19L899,129l-1.81-.17-1.36-.12h0v82.47h0c0.71,0.09,1.41.19,2.12,0.29Z"/><path class="cls-2" d="M889.48,128.26l-2.51-.12-1.66-.07-2.79-.08-1.38,0q-2.08,0-4.15,0H818.07v82.15h59.47q2,0,4,.06l1.35,0.05c0.9,0,1.8.07,2.71,0.12l1.61,0.1,2.47,0.18,1.69,0.15,1.55,0.14h0V128.48h0l-1.7-.1Z"/><path class="cls-2" d="M253.51,201.85L279.76,238c0.52-.37,1.06-0.73,1.59-1.09l1.63-1.12c0.78-.52,1.56-1,2.35-1.54l1.54-1c0.88-.55,1.77-1.09,2.66-1.62l1.31-.79q1.89-1.11,3.81-2.16l0.22-.13q2-1.11,4.11-2.16l1.27-.62c1-.48,1.92-1,2.89-1.41l1.6-.73c0.87-.4,1.74-0.79,2.62-1.17l1.74-.73c0.62-.26,1.24-0.53,1.87-0.78l-22.21-68.37-3-9.3h0l-1.29.51-1.62.64-2,.83-1.61.67-2,.87-1.59.69-2,.91-1.55.71-2,1-1.5.71-2.1,1-1.41.7-2.26,1.17-1.21.63q-1.46.77-2.91,1.57l-0.53.29q-1.72.95-3.41,1.92l-0.94.55-2.44,1.43-1.27.77-2.07,1.26-1.37.87-1.94,1.23-1.42.93-1.85,1.22-1.45,1-1.79,1.23-1.45,1-1.75,1.25-1.45,1.06-1.13.83h0Z"/><rect class="cls-2" x="584.91" y="127.91" width="74.89" height="82.15"/><path class="cls-2" d="M363.55,128l-1.38,0-2.79.08-1.67.07-2.5.12-1.78.11-1.69.1h0v82.37h0l1.54-.14,1.69-.15,2.47-.18,1.61-.1c0.91,0,1.81-.08,2.71-0.12l1.35-.05q2-.06,4-0.06h59.47V127.91H367.7Q365.63,127.91,363.55,128Z"/><rect class="cls-2" x="507.18" y="127.91" width="74.89" height="82.15"/><path class="cls-2" d="M345.73,129l-2.17.22-1.79.19-2.19.27-1.77.22-2.21.31-1.73.25-2.26.36-1.67.27-2.35.41-1.57.28-2.52.49-1.39.27-3.05.65-0.84.18q-1.95.44-3.89,0.9l-0.83.21-3,.76-1.39.38-2.45.66-1.55.45-2.28.66-1.62.5-2.18.68-1.67.54-2.12.7-1.69.58-2.08.73-1.71.62-1.39.5h0l5.93,18.26,19.29,59.38h0c0.61-.23,1.22-0.44,1.84-0.67l1.86-.68c0.9-.31,1.8-0.61,2.7-0.91l1.8-.59c1-.31,1.94-0.59,2.92-0.88l1.62-.48c1.21-.34,2.43-0.66,3.64-1l0.94-.25q2.3-.57,4.61-1.06l1.31-.26c1.11-.23,2.22-0.45,3.34-0.66l1.76-.3c1-.16,1.95-0.33,2.93-0.48l1.9-.26c0.71-.1,1.42-0.21,2.13-0.29h0V128.69h0l-1.36.12Z"/><rect class="cls-2" x="429.46" y="127.91" width="74.89" height="82.15"/><path class="cls-2" d="M277.46,756h0c-0.51-.38-1-0.77-1.52-1.16l-1.58-1.2c-0.73-.57-1.45-1.15-2.17-1.73l-1.44-1.17c-0.78-.65-1.55-1.31-2.32-2l-1.21-1q-1.53-1.35-3-2.74l-0.41-.37q-1.69-1.58-3.33-3.21l-1.08-1.1c-0.72-.73-1.45-1.47-2.16-2.21-0.43-.45-0.85-0.92-1.28-1.38-0.62-.67-1.25-1.35-1.86-2-0.45-.5-0.88-1-1.32-1.52s-0.86-1-1.28-1.47h0l-50.58,36.75-13.82,10c0.78,1,1.57,2,2.37,3,0.67,0.84,1.33,1.69,2,2.52,1,1.23,2,2.43,3.07,3.63,0.66,0.77,1.31,1.55,2,2.32,1.15,1.3,2.33,2.58,3.5,3.86,0.58,0.63,1.15,1.28,1.74,1.91q2.58,2.74,5.24,5.39l0.29,0.29q2.71,2.69,5.51,5.28c0.65,0.61,1.33,1.19,2,1.79,1.26,1.14,2.51,2.29,3.8,3.4,0.79,0.68,1.6,1.34,2.4,2,1.19,1,2.37,2,3.57,3,0.85,0.69,1.72,1.36,2.58,2s2,1.56,3,2.32v0L251.33,792Z"/><path class="cls-2" d="M1014.58,698.7c-0.3.63-.62,1.25-0.93,1.88s-0.59,1.21-.89,1.8c-0.44.86-.89,1.71-1.35,2.56-0.29.55-.57,1.1-0.87,1.64-0.54,1-1.1,2-1.67,2.93-0.23.4-.45,0.8-0.68,1.19q-1.21,2-2.48,4l-0.55.84c-0.68,1.05-1.36,2.1-2.06,3.14-0.32.47-.65,0.93-1,1.39-0.58.84-1.16,1.68-1.76,2.5-0.37.51-.76,1-1.14,1.53-0.57.76-1.14,1.53-1.72,2.28-0.41.53-.83,1-1.24,1.57s-0.8,1-1.21,1.53h0l53.24,38.68,11.08,8h0l0.85-1.15,1.06-1.43,1.28-1.77,1-1.43,1.27-1.82,1-1.41,1.26-1.89L1068,764c0.43-.66.86-1.32,1.28-2l0.85-1.32c0.45-.71.88-1.42,1.32-2.13l0.75-1.21c0.5-.83,1-1.67,1.49-2.51l0.52-.87q1-1.7,2-3.41l0.34-.62q0.78-1.4,1.55-2.81l0.66-1.25c0.39-.74.79-1.48,1.17-2.22l0.74-1.45c0.35-.68.69-1.36,1-2l0.76-1.56c0.32-.65.64-1.31,0.95-2l0.76-1.63c0.3-.64.59-1.28,0.89-1.92l0.75-1.69c0.28-.63.56-1.26,0.83-1.89l0.74-1.74c0.26-.62.52-1.24,0.78-1.86l0.72-1.78,0.47-1.16h0Z"/><path class="cls-2" d="M1027,659.57h0c-0.13.76-.29,1.52-0.43,2.28s-0.24,1.32-.37,2c-0.21,1-.44,2.07-0.67,3.11-0.13.58-.25,1.17-0.39,1.75-0.3,1.27-.62,2.52-1,3.78-0.09.34-.17,0.69-0.26,1q-0.65,2.4-1.39,4.78c-0.12.38-.25,0.76-0.37,1.15-0.38,1.2-.76,2.39-1.17,3.58-0.2.57-.41,1.14-0.62,1.71-0.35,1-.71,2-1.08,3-0.24.63-.5,1.26-0.75,1.89-0.36.91-.73,1.83-1.11,2.73-0.28.66-.57,1.31-0.85,2s-0.52,1.23-.8,1.83h0l74.53,24.22h0c0.18-.47.35-0.94,0.53-1.41s0.42-1.12.63-1.68,0.5-1.4.75-2.1,0.4-1.12.59-1.68,0.48-1.42.72-2.14c0.18-.55.37-1.11,0.55-1.66,0.24-.73.46-1.46,0.69-2.19,0.17-.54.35-1.09,0.51-1.63,0.23-.76.45-1.52,0.68-2.28,0.15-.52.31-1,0.46-1.55,0.24-.83.46-1.65,0.69-2.48,0.13-.46.26-0.91,0.38-1.37,0.27-1,.54-2.05.8-3.08l0.2-.79q0.48-1.95.93-3.9c0.07-.29.13-0.58,0.19-0.86,0.23-1,.46-2,0.67-3,0.1-.45.18-0.9,0.27-1.36,0.17-.85.35-1.71,0.52-2.56,0.1-.51.19-1,0.29-1.55,0.15-.8.3-1.59,0.44-2.39,0.09-.54.18-1.09,0.27-1.63,0.13-.77.26-1.55,0.38-2.32,0.09-.56.17-1.12,0.25-1.67,0.11-.76.23-1.53,0.33-2.29,0.08-.57.15-1.14,0.23-1.71,0.1-.75.2-1.51,0.29-2.26,0.07-.58.13-1.15,0.2-1.73,0.08-.76.17-1.51,0.25-2.27,0.06-.58.11-1.15,0.17-1.73s0.1-1,.14-1.43H1027Z"/><path class="cls-2" d="M963.36,758.78l-1.65,1.13c-0.76.51-1.53,1-2.29,1.5l-1.6,1c-0.84.53-1.69,1-2.54,1.55l-1.42.86q-1.79,1-3.6,2l-0.42.24q-2,1.11-4.09,2.15l-1.33.65c-0.94.47-1.88,0.93-2.83,1.38l-1.65.75c-0.85.39-1.7,0.78-2.56,1.15l-1.82.76c-0.6.25-1.2,0.51-1.8,0.76h0L950,824.83l9,27.58h0l1.11-.44,1.88-.75,1.76-.72,1.85-.77,1.76-.76,1.82-.8,1.77-.8,1.78-.81,1.8-.86,1.72-.82,1.84-.91,1.65-.82,1.94-1,1.52-.79,2.34-1.26,1.09-.59q1.7-.94,3.38-1.9l1.17-.69,2.2-1.29,1.37-.83,2-1.21,1.43-.9,1.89-1.2,1.44-.94,1.84-1.22,1.44-1,1.8-1.23,1.44-1,1.77-1.25,1.43-1,1.14-.84-47.42-65.27C964.42,758.06,963.88,758.41,963.36,758.78Z"/><path class="cls-2" d="M937.11,794.26l-6-18.49c-0.59.23-1.19,0.43-1.79,0.65l-1.94.7c-0.87.3-1.74,0.59-2.62,0.88l-1.88.62c-0.94.3-1.89,0.57-2.84,0.85l-1.69.5c-1.2.34-2.4,0.65-3.6,1l-1,.26q-2.3.57-4.61,1.06l-1.29.26c-1.12.23-2.23,0.46-3.36,0.66l-1.78.3c-1,.16-1.93.33-2.9,0.47l-2,.27c-0.69.09-1.38,0.2-2.07,0.28h0V867h0l1.29-.12,1.92-.17,2.08-.21,1.87-.2,2.12-.26,1.82-.23,2.18-.3,1.75-.25,2.26-.36,1.66-.27,2.37-.42,1.55-.28,2.54-.5,1.36-.27,3.12-.67,0.77-.16q2-.44,3.89-0.91l0.75-.19,3.1-.78,1.41-.38,2.43-.66,1.6-.46,2.22-.65,1.69-.52,2.11-.65,1.75-.57,2-.67,1.78-.61,2-.69,1.8-.66,1.32-.48h0Z"/><path class="cls-2" d="M1029.2,634c0,1.79,0,3.59-.1,5.38,0,0.15,0,.3,0,0.45-0.07,1.71-.17,3.42-0.29,5.14,0,0.23,0,.46,0,0.7q-0.19,2.5-.47,5c0,0.27-.06.55-0.09,0.82q-0.29,2.45-.65,4.89c0,0.14,0,.28-0.06.42h77.07c0-.66.09-1.32,0.13-2s0.08-1.21.12-1.82c0.05-.91.1-1.82,0.14-2.73,0-.59.06-1.18,0.08-1.77,0-1,.07-2,0.09-3,0-.5,0-1,0-1.5q0-2.22,0-4.42V579.41h-76V634Z"/><path class="cls-2" d="M995,266.12c0.41,0.5.8,1,1.2,1.52s0.85,1.06,1.26,1.6c0.57,0.74,1.13,1.49,1.69,2.24,0.39,0.53.79,1,1.17,1.58,0.58,0.8,1.15,1.62,1.71,2.43,0.34,0.49.69,1,1,1.47,0.68,1,1.33,2,2,3,0.21,0.32.42,0.63,0.62,1q1.27,2,2.47,4c0.24,0.41.47,0.83,0.71,1.24,0.55,1,1.11,1.91,1.64,2.88,0.3,0.55.59,1.1,0.88,1.65,0.45,0.85.9,1.69,1.34,2.54,0.31,0.6.6,1.22,0.9,1.82s0.62,1.23.92,1.86l74.71-24.28h0l-0.49-1.22-0.69-1.7c-0.27-.65-0.54-1.3-0.81-1.94l-0.71-1.67c-0.28-.65-0.57-1.3-0.86-2l-0.72-1.62c-0.3-.67-0.61-1.33-0.92-2l-0.73-1.56c-0.33-.69-0.66-1.37-1-2.05l-0.71-1.47c-0.36-.72-0.72-1.43-1.08-2.15l-0.68-1.35c-0.41-.79-0.83-1.58-1.25-2.36l-0.58-1.1q-0.83-1.54-1.69-3.07l-0.2-.37q-1-1.72-2-3.43l-0.42-.7c-0.53-.89-1.05-1.78-1.59-2.67l-0.71-1.15c-0.45-.73-0.9-1.46-1.35-2.18l-0.84-1.3c-0.43-.67-0.85-1.33-1.29-2l-0.92-1.39-1.26-1.88-1-1.43-1.25-1.8-1-1.46L1061.3,222l-1.1-1.48-0.83-1.11-23,16.7Z"/><path class="cls-2" d="M1015.78,299.55c0.27,0.6.52,1.21,0.79,1.82s0.58,1.32.86,2c0.38,0.9.74,1.81,1.1,2.72,0.25,0.63.51,1.26,0.75,1.9,0.38,1,.73,2,1.08,3,0.2,0.57.42,1.14,0.62,1.71,0.41,1.19.79,2.39,1.17,3.58,0.12,0.38.25,0.76,0.37,1.14q0.73,2.38,1.39,4.79c0.09,0.34.17,0.68,0.26,1,0.33,1.26.66,2.52,1,3.79,0.14,0.57.25,1.15,0.38,1.73,0.23,1,.47,2.08.68,3.13,0.13,0.65.25,1.31,0.37,2s0.3,1.53.43,2.3h77.3c0-.48-0.09-1-0.14-1.44s-0.11-1.14-.17-1.71c-0.08-.76-0.16-1.53-0.25-2.29-0.06-.57-0.13-1.14-0.19-1.7-0.09-.77-0.19-1.53-0.29-2.29-0.07-.56-0.14-1.12-0.22-1.68-0.11-.78-0.22-1.55-0.34-2.32-0.08-.55-0.16-1.09-0.25-1.64-0.12-.79-0.26-1.57-0.39-2.36-0.09-.53-0.17-1.06-0.27-1.59-0.14-.82-0.29-1.63-0.45-2.44-0.09-.5-0.18-1-0.28-1.49-0.17-.88-0.35-1.76-0.53-2.63-0.09-.43-0.17-0.86-0.26-1.29-0.22-1.06-.46-2.12-0.7-3.17l-0.16-.74q-0.45-2-.94-3.91l-0.17-.67c-0.27-1.07-.54-2.14-0.83-3.2-0.12-.44-0.24-0.87-0.36-1.31-0.23-.85-0.46-1.7-0.71-2.55-0.14-.5-0.3-1-0.44-1.51-0.23-.78-0.45-1.55-0.69-2.33-0.16-.54-0.34-1.07-0.5-1.61-0.23-.74-0.46-1.48-0.7-2.21-0.18-.55-0.36-1.1-0.55-1.65-0.24-.72-0.48-1.44-0.73-2.15-0.19-.56-0.39-1.11-0.59-1.66-0.25-.71-0.5-1.41-0.76-2.11s-0.41-1.12-.62-1.68-0.35-.95-0.53-1.42h0l-21.23,6.9Z"/><path class="cls-2" d="M889.73,785.1l-2.52.18-1.56.1c-0.92,0-1.84.08-2.75,0.12l-1.32.05q-2,.06-4,0.06H818.07v82.15H877q2.07,0,4.15,0l1.37,0,2.8-.08,1.63-.07,2.55-.12,1.68-.1,1.77-.11h0V784.82h0l-1.56.14Z"/><rect class="cls-2" x="1029.2" y="499.25" width="75.99" height="77.33"/><path class="cls-2" d="M1105.14,351.68c0-.5,0-1,0-1.49,0-1-.05-2-0.09-3,0-.59-0.06-1.18-0.08-1.77,0-.91-0.09-1.82-0.14-2.73,0-.61-0.08-1.22-0.12-1.82s-0.08-1.32-.13-2h-77.07c0,0.14,0,.27.05,0.41q0.37,2.44.65,4.9c0,0.27.06,0.54,0.09,0.82q0.28,2.49.47,5c0,0.23,0,.46,0,0.7,0.13,1.71.23,3.43,0.29,5.14,0,0.15,0,.3,0,0.45,0.06,1.8.1,3.59,0.1,5.38v54.54h76V356.1Q1105.19,353.9,1105.14,351.68Z"/><path class="cls-2" d="M217.23,656.74c0-.13,0-0.26-0.05-0.39q-0.37-2.46-.66-4.93c0-.26-0.06-0.53-0.09-0.79q-0.28-2.5-.48-5c0-.23,0-0.46,0-0.69-0.13-1.71-.23-3.43-0.29-5.14,0-.15,0-0.3,0-0.45-0.06-1.8-.1-3.6-0.1-5.39V579.41h-76v60.16q0,2.2,0,4.42c0,0.48,0,1,0,1.45,0,1,.05,2,0.09,3,0,0.58.05,1.16,0.08,1.73,0,0.92.09,1.83,0.14,2.75,0,0.62.08,1.24,0.12,1.86s0.08,1.29.13,1.93h77.07Z"/><rect class="cls-2" x="1029.2" y="419.09" width="75.99" height="77.33"/><path class="cls-2" d="M344.86,783.94c-1-.15-2-0.31-2.92-0.48l-1.75-.29c-1.14-.21-2.27-0.44-3.4-0.67l-1.24-.25q-2.32-.5-4.62-1.07L330,781c-1.23-.31-2.46-0.63-3.68-1l-1.66-.49c-1-.28-1.92-0.56-2.88-0.86L320,778c-0.88-.29-1.77-0.58-2.64-0.89l-1.91-.69c-0.6-.22-1.21-0.43-1.8-0.65l-19,58.5-6.22,19.15h0l1.32,0.48,1.8,0.66,2,0.69,1.78,0.61,2,0.67,1.75,0.57,2.11,0.66,1.69,0.52,2.23,0.65,1.59,0.46,2.44,0.66,1.4,0.38,3.1,0.78,0.75,0.19q1.94,0.47,3.89.91l0.77,0.16,3.12,0.67,1.36,0.27,2.54,0.5,1.55,0.28,2.37,0.42,1.66,0.27,2.27,0.36,1.75,0.25,2.18,0.3,1.82,0.23,2.13,0.26,1.87,0.2,2.09,0.21,1.92,0.17L348.9,867h0V784.5h0c-0.7-.08-1.39-0.19-2.09-0.29Z"/><path class="cls-2" d="M285.71,852.42h0l25.23-77.67h0c-0.61-.24-1.2-0.51-1.81-0.76l-1.82-.76c-0.85-.37-1.69-0.75-2.53-1.14l-1.68-.76c-0.93-.44-1.86-0.9-2.79-1.36l-1.37-.67q-2.06-1-4.09-2.15l-0.37-.21q-1.84-1-3.66-2.08l-1.34-.81c-0.88-.53-1.76-1.06-2.63-1.6l-1.54-1c-0.79-.51-1.58-1-2.36-1.54l-1.6-1.1c-0.54-.37-1.08-0.73-1.62-1.11l-26.24,36.12L232.34,823h0l1.23,0.9,1.31,1,1.9,1.35,1.3,0.92,2,1.34,1.29,0.88,2,1.33,1.26,0.83,2.11,1.34,1.21,0.76,2.27,1.38,1.08,0.65,2.66,1.56,0.72,0.42q1.71,1,3.43,1.93l0.43,0.23q1.5,0.82,3,1.62l1.26,0.65,2.21,1.14,1.48,0.74,2,1,1.6,0.77,1.92,0.91,1.69,0.77,1.86,0.84,1.74,0.76,1.85,0.8,1.77,0.74,1.84,0.76,1.8,0.72Z"/><path class="cls-2" d="M363.12,785.55l-1.31-.05c-0.92,0-1.84-.07-2.76-0.12l-1.56-.1L355,785.1l-1.67-.15-1.56-.14h0v82.37h0l1.76,0.11,1.7,0.1,2.54,0.12,1.63,0.07,2.79,0.08,1.38,0q2.08,0,4.15,0h58.93V785.6H367.16Q365.15,785.6,363.12,785.55Z"/><rect class="cls-2" x="740.35" y="785.6" width="74.89" height="82.15"/><path class="cls-2" d="M248.46,728c-0.43-.54-0.86-1.07-1.27-1.61-0.57-.74-1.13-1.49-1.68-2.23-0.39-.53-0.79-1-1.17-1.58-0.59-.81-1.16-1.63-1.73-2.45-0.33-.48-0.68-1-1-1.44-0.69-1-1.37-2.06-2-3.1l-0.57-.87q-1.27-2-2.48-4.05c-0.22-.38-0.43-0.76-0.65-1.14-0.57-1-1.15-2-1.7-3-0.29-.52-0.56-1.05-0.84-1.57-0.47-.87-0.94-1.75-1.39-2.63-0.29-.57-0.57-1.16-0.86-1.73s-0.65-1.28-1-1.93l-13.52,4.39L155.41,723h0l0.5,1.23,0.68,1.69c0.27,0.65.54,1.3,0.82,2l0.7,1.65c0.28,0.66.57,1.31,0.86,2l0.72,1.62c0.3,0.66.61,1.32,0.92,2l0.73,1.57c0.32,0.68.65,1.35,1,2l0.73,1.5c0.35,0.71.71,1.41,1.07,2.12l0.7,1.37c0.4,0.78.81,1.55,1.23,2.33l0.6,1.14q0.81,1.49,1.64,3l0.25,0.46q1,1.72,2,3.42l0.45,0.76c0.51,0.87,1,1.74,1.55,2.61l0.71,1.15c0.45,0.73.9,1.46,1.36,2.19l0.82,1.27c0.44,0.68.87,1.36,1.31,2l0.88,1.33,1.3,1.94,0.94,1.36,1.31,1.88,1,1.37,1.32,1.83,1,1.37,0.89,1.19,64.32-46.73C249.25,729,248.86,728.54,248.46,728Z"/><path class="cls-2" d="M228.91,696.11h0c-0.28-.61-0.53-1.23-0.8-1.85s-0.57-1.3-.85-2c-0.38-.9-0.74-1.8-1.1-2.71-0.25-.64-0.51-1.27-0.76-1.92-0.37-1-.71-1.93-1.06-2.9-0.21-.59-0.43-1.18-0.64-1.77-0.39-1.14-.76-2.29-1.13-3.44-0.14-.43-0.28-0.85-0.42-1.29q-0.73-2.37-1.38-4.77c-0.11-.39-0.2-0.79-0.3-1.18-0.32-1.21-.63-2.42-0.92-3.63-0.14-.61-0.27-1.22-0.41-1.84-0.22-1-.45-2-0.66-3-0.14-.68-0.26-1.36-0.39-2s-0.29-1.48-.42-2.23h-77.3c0,0.45.09,0.9,0.13,1.35,0.06,0.62.12,1.23,0.18,1.85s0.15,1.43.23,2.15,0.14,1.23.21,1.84,0.18,1.43.27,2.14,0.16,1.23.24,1.84,0.21,1.43.31,2.14,0.18,1.22.27,1.82,0.23,1.44.35,2.15,0.2,1.2.3,1.8,0.26,1.45.4,2.18,0.21,1.17.33,1.76c0.14,0.75.3,1.5,0.45,2.24,0.11,0.56.22,1.12,0.34,1.67,0.18,0.84.37,1.67,0.55,2.51,0.1,0.46.2,0.93,0.31,1.39q0.44,1.93.92,3.85c0.11,0.43.22,0.86,0.33,1.28,0.22,0.86.44,1.73,0.67,2.59,0.14,0.54.3,1.08,0.45,1.61,0.21,0.75.41,1.49,0.62,2.24,0.16,0.57.33,1.14,0.5,1.7s0.42,1.42.63,2.13,0.36,1.16.54,1.73,0.44,1.39.66,2.09,0.38,1.15.57,1.72,0.46,1.39.7,2.08,0.4,1.14.6,1.71,0.49,1.38.74,2.07,0.42,1.13.63,1.69,0.34,0.94.52,1.41h0l74-24.06Z"/><rect class="cls-2" x="429.46" y="785.6" width="74.89" height="82.15"/><rect class="cls-2" x="662.63" y="785.6" width="74.89" height="82.15"/><rect class="cls-2" x="584.91" y="785.6" width="74.89" height="82.15"/><rect class="cls-2" x="507.18" y="785.6" width="74.89" height="82.15"/></g></svg>