<svg id="Слой_1" data-name="Слой 1" xmlns="http://www.w3.org/2000/svg" viewBox="0 0 1244.7 995.67"><defs><style>.cls-1{opacity:0.5;}.cls-2{fill:#fff;}.cls-3{fill:#ffbc00;}</style></defs><title>VIP_stadium_3</title><g class="cls-1"><path class="cls-2" d="M266.23,311.68l-34.58-11.24h0c-0.3.67-.59,1.34-0.88,2s-0.55,1.24-.81,1.86c-0.4.94-.77,1.88-1.14,2.83-0.22.56-.46,1.13-0.68,1.69-0.44,1.15-.86,2.31-1.27,3.47-0.13.37-.27,0.74-0.4,1.11q-0.79,2.3-1.51,4.62c-0.13.42-.25,0.85-0.37,1.28-0.34,1.13-.67,2.26-1,3.4-0.16.59-.31,1.18-0.46,1.77-0.26,1-.51,2-0.75,2.95-0.15.65-.29,1.3-0.44,1.94-0.21.94-.42,1.88-0.61,2.82-0.14.67-.26,1.35-0.39,2s-0.25,1.26-.36,1.89h59c0-.14.08-0.27,0.12-0.41,0.37-1.35.77-2.69,1.2-4l0.15-.46q0.65-2,1.38-3.95l0.12-.33c0.5-1.33,1-2.65,1.59-4l0.29-.67q0.83-1.91,1.73-3.78l0.14-.3Z"/><path class="cls-2" d="M247.75,273.2c-0.35.48-.71,0.95-1.06,1.43-0.66.91-1.3,1.83-1.94,2.75-0.25.35-.5,0.7-0.74,1.06q-1.31,1.92-2.55,3.89l-0.52.85c-0.65,1-1.29,2.07-1.91,3.12-0.29.48-.56,1-0.84,1.46-0.49.86-1,1.71-1.47,2.58-0.3.55-.59,1.11-0.89,1.66-0.44.82-.87,1.63-1.29,2.45-0.3.58-.58,1.17-0.87,1.76s-0.55,1.09-.82,1.65h0l21.29,6.92,33.48,10.88h0l0.19-.34q0.9-1.71,1.86-3.4l0.29-.49q1-1.7,2-3.36l0.1-.17c0.72-1.13,1.46-2.24,2.22-3.34l0.37-.54q1.11-1.59,2.28-3.13l0.19-.26-35.82-26L252,267.8l-1.27,1.58c-0.4.51-.81,1-1.21,1.53C248.89,271.66,248.32,272.43,247.75,273.2Z"/><path class="cls-2" d="M276,363.13q0-1.59.05-3.18c0-.35,0-0.7,0-1,0-.71.06-1.42,0.1-2.13,0-.42.06-0.83,0.09-1.25,0-.64.09-1.28,0.15-1.92,0-.44.09-0.89,0.14-1.33,0.06-.61.13-1.22,0.2-1.83,0.06-.46.12-0.91,0.18-1.37s0.16-1.18.26-1.78,0.15-.92.23-1.38,0.2-1.16.31-1.75,0.18-.93.27-1.39,0.24-1.15.36-1.72,0.21-.92.31-1.39c0.06-.25.11-0.5,0.17-0.75H220.1c0,0.14,0,.29-0.06.44q-0.38,2.47-.67,5c0,0.23-.05.47-0.08,0.7q-0.29,2.54-.49,5.09c0,0.19,0,.37,0,0.56-0.13,1.75-.24,3.49-0.3,5.24,0,0.11,0,.23,0,0.34q-0.1,2.73-.11,5.46v54.54H276V363.13Z"/><path class="cls-2" d="M299.36,269.78l-20.22-27.83h0c-0.51.38-1,.77-1.52,1.16l-1.5,1.14c-0.74.58-1.47,1.17-2.2,1.76l-1.34,1.08c-0.82.68-1.63,1.38-2.44,2.07l-1,.87q-1.71,1.5-3.38,3.06l-0.21.2q-1.55,1.45-3.06,2.95l-1,1.06c-0.71.72-1.43,1.45-2.13,2.18-0.4.43-.8,0.86-1.2,1.29-0.63.68-1.26,1.36-1.88,2L255,264.22l-1.2,1.4,35.09,25.49,10,7.29c0.51-.63,1-1.23,1.56-1.85,0.34-.4.67-0.81,1-1.21q1.48-1.7,3-3.35l0.14-.16q1.64-1.72,3.35-3.35c0.36-.34.73-0.67,1.09-1,0.62-.58,1.23-1.16,1.86-1.72Z"/><path class="cls-2" d="M221.32,663.49c0.19,0.94.4,1.88,0.61,2.82,0.15,0.65.28,1.3,0.44,1.95,0.23,1,.49,2,0.74,2.94,0.15,0.6.3,1.19,0.46,1.79,0.31,1.12.64,2.24,1,3.36,0.13,0.44.25,0.88,0.39,1.32q0.72,2.32,1.51,4.61c0.14,0.39.29,0.78,0.43,1.17,0.4,1.14.81,2.27,1.24,3.4,0.22,0.58.46,1.16,0.69,1.73,0.37,0.93.74,1.86,1.13,2.79,0.27,0.63.55,1.25,0.82,1.88s0.57,1.34.87,2h0l20.73-6.73,34-11-0.14-.32q-0.9-1.86-1.72-3.76l-0.29-.69c-0.55-1.3-1.09-2.62-1.59-3.94l-0.12-.34q-0.73-2-1.38-4l-0.15-.45c-0.43-1.34-.83-2.69-1.2-4,0-.13-0.08-0.26-0.12-0.4h-59c0.11,0.63.24,1.26,0.36,1.89S221.18,662.81,221.32,663.49Z"/><path class="cls-2" d="M297.15,695l-0.2-.27q-1.16-1.53-2.27-3.11l-0.38-.55c-0.76-1.1-1.5-2.21-2.22-3.33l-0.1-.17q-1-1.66-2-3.36l-0.29-.49q-1-1.68-1.86-3.4l-0.19-.34h0L254.14,690.9l-21.29,6.92h0c0.27,0.56.55,1.11,0.83,1.66s0.57,1.16.86,1.73c0.43,0.84.88,1.68,1.32,2.51,0.29,0.53.57,1.07,0.86,1.6,0.5,0.9,1,1.79,1.52,2.68,0.26,0.45.52,0.91,0.78,1.36,0.66,1.12,1.34,2.23,2,3.33l0.39,0.64q1.26,2,2.57,3.92l0.62,0.88c0.68,1,1.36,2,2.06,2.93,0.32,0.44.66,0.88,1,1.32,0.6,0.81,1.2,1.61,1.82,2.41,0.38,0.48.76,1,1.14,1.44s0.86,1.11,1.31,1.65h0l33.11-24.06Z"/><rect class="cls-2" x="218.34" y="419.09" width="57.67" height="77.33"/><path class="cls-2" d="M218.34,634q0,2.72.11,5.46c0,0.11,0,.23,0,0.34,0.07,1.75.17,3.49,0.3,5.24,0,0.19,0,.37,0,0.56q0.2,2.54.49,5.08c0,0.23.05,0.47,0.08,0.7q0.29,2.48.67,5c0,0.15,0,.3.06,0.44h58.78c-0.06-.25-0.11-0.5-0.17-0.75q-0.16-.69-0.31-1.38-0.19-.86-0.36-1.72-0.14-.69-0.27-1.39c-0.11-.58-0.21-1.16-0.31-1.75s-0.16-.92-0.23-1.38-0.17-1.18-.26-1.78-0.13-.91-0.18-1.37c-0.08-.61-0.14-1.22-0.2-1.83,0-.44-0.1-0.89-0.14-1.33-0.06-.64-0.11-1.28-0.15-1.92,0-.42-0.07-0.83-0.09-1.25,0-.71-0.07-1.42-0.1-2.13,0-.35,0-0.7,0-1q0-1.59-.05-3.18V579.41H218.34V634Z"/><rect class="cls-2" x="218.34" y="499.25" width="57.67" height="77.33"/><path class="cls-2" d="M917,273.66q1.74,1,3.43,2.08l0.43,0.28q1.68,1.08,3.33,2.22l0.23,0.15c1.11,0.78,2.2,1.59,3.28,2.41l0.55,0.42q1.57,1.21,3.08,2.47l0.25,0.2,12.81-17.63,18.88-26h0c-0.52-.37-1.05-0.72-1.58-1.09l-1.55-1.06c-0.78-.52-1.57-1-2.35-1.54l-1.46-.94c-0.9-.56-1.8-1.11-2.71-1.65l-1.17-.71q-2-1.15-4-2.24l-0.34-.18q-1.82-1-3.66-1.93l-1.39-.68c-0.89-.44-1.78-0.88-2.67-1.3l-1.66-.76c-0.82-.37-1.64-0.75-2.47-1.11l-1.78-.75-1.66-.7v0l-16.19,49.82Z"/><path class="cls-2" d="M294.58,258.38l18.54,25.52,0.26-.21q1.51-1.26,3.08-2.47l0.54-.41c1.08-.82,2.18-1.63,3.29-2.41l0.21-.14q1.65-1.15,3.34-2.23l0.42-.27q1.69-1.07,3.42-2.08l0.33-.2-16.19-49.82v0l-1.65.7-1.79.75c-0.83.36-1.65,0.73-2.47,1.1l-1.66.76c-0.9.42-1.79,0.86-2.68,1.3l-1.39.68q-1.84.93-3.64,1.92l-0.36.19q-2,1.09-3.95,2.24L291,234c-0.9.54-1.79,1.08-2.68,1.63l-1.47,1c-0.78.5-1.56,1-2.34,1.53L283,239.19c-0.52.36-1.05,0.71-1.57,1.08h0Z"/><path class="cls-2" d="M897.78,265l1.75,0.61,0.79,0.28q1.25,0.45,2.49.94h0q1.25,0.49,2.49,1l0.77,0.34,1.69,0.75,0.92,0.43,1.51,0.72,1,0.48,1.45,0.74,1,0.5,0.56,0.29h0L923.92,242l6.3-19.39h0c-0.62-.24-1.26-0.46-1.88-0.69l-1.82-.66c-0.9-.32-1.81-0.61-2.71-0.91l-1.68-.56c-1.05-.33-2.11-0.64-3.17-1l-1.27-.38q-2.23-.63-4.47-1.19l-0.94-.22c-1.19-.29-2.38-0.57-3.57-0.82l-1.66-.33c-1-.2-1.92-0.39-2.89-0.57l-1.88-.32c-0.9-.15-1.8-0.3-2.7-0.44l-2-.28-1.8-.25V264.3h0l1,0.34Z"/><path class="cls-2" d="M345.13,214.55c-0.91.14-1.81,0.29-2.71,0.44l-1.87.32c-1,.18-1.94.37-2.9,0.57l-1.65.33c-1.2.26-2.4,0.54-3.59,0.83l-0.93.22q-2.25.56-4.48,1.19l-1.28.38c-1.06.31-2.11,0.62-3.16,0.95l-1.7.56c-0.9.3-1.8,0.59-2.69,0.91l-1.84.67c-0.62.23-1.25,0.44-1.86,0.68h0l16.07,49.45,0.55-.29,1-.51,1.45-.74,1-.48,1.5-.71,0.94-.44,1.67-.74,0.79-.35q1.24-.52,2.48-1l0.07,0q1.22-.48,2.44-0.92l0.8-.28,1.73-.6,1-.31,1-.34h0V214l-1.8.25Z"/><path class="cls-2" d="M933.73,285.75c0.63,0.56,1.24,1.14,1.86,1.72,0.37,0.34.74,0.67,1.1,1q1.71,1.64,3.35,3.35l0.12,0.13q1.57,1.65,3.07,3.37c0.34,0.39.67,0.8,1,1.2,0.52,0.62,1.05,1.23,1.56,1.86l30.46-22.13,14.66-10.65-1.15-1.34c-0.44-.5-0.87-1-1.32-1.5-0.59-.66-1.18-1.3-1.78-1.95-0.43-.46-0.85-0.93-1.29-1.39-0.66-.7-1.33-1.38-2-2.06-0.39-.39-0.77-0.79-1.16-1.18q-1.4-1.39-2.84-2.73l-0.43-.41q-1.66-1.55-3.36-3l-1.08-.92c-0.79-.68-1.58-1.36-2.38-2L970.79,246c-0.73-.59-1.46-1.18-2.2-1.76l-1.47-1.12c-0.51-.39-1-0.79-1.54-1.17h0l-13.44,18.51Z"/><path class="cls-2" d="M968.69,632.54q0,1.59-.05,3.18c0,0.35,0,.69,0,1,0,0.71-.06,1.43-0.1,2.14,0,0.41-.06.82-0.09,1.23,0,0.65-.09,1.29-0.15,1.94,0,0.43-.09.87-0.14,1.3-0.07.62-.13,1.24-0.21,1.86-0.05.44-.12,0.89-0.18,1.33-0.08.61-.17,1.21-0.26,1.82-0.07.45-.14,0.89-0.22,1.34-0.1.6-.21,1.2-0.32,1.81q-0.12.66-.26,1.32-0.18.9-.38,1.8-0.14.65-.29,1.3c-0.06.26-.12,0.53-0.18,0.79h58.78c0-.14,0-0.28.06-0.42q0.38-2.49.68-5c0-.23.05-0.47,0.08-0.7q0.29-2.54.49-5.08c0-.19,0-0.38,0-0.57,0.13-1.74.24-3.49,0.3-5.23,0-.12,0-0.23,0-0.35,0.07-1.82.11-3.64,0.11-5.45V579.41H968.69v53.13Z"/><path class="cls-2" d="M965.09,659.57h0c0,0.14-.09.28-0.12,0.42-0.37,1.35-.77,2.69-1.2,4l-0.15.45q-0.65,2-1.38,4l-0.12.33c-0.5,1.33-1,2.64-1.59,3.95l-0.29.69q-0.82,1.9-1.72,3.76l-0.14.31L1000,691l13.05,4.24h0c0.32-.7.62-1.42,0.93-2.13s0.51-1.15.75-1.72c0.42-1,.82-2,1.21-3,0.2-.51.41-1,0.61-1.53,0.47-1.23.92-2.46,1.35-3.7,0.1-.3.22-0.59,0.32-0.89q0.8-2.31,1.52-4.64c0.13-.4.24-0.81,0.36-1.22,0.34-1.15.68-2.29,1-3.45,0.16-.6.31-1.2,0.47-1.8,0.25-1,.51-1.94.74-2.91,0.16-.66.3-1.33,0.45-2,0.21-.92.41-1.84,0.6-2.76,0.14-.69.27-1.39,0.4-2.08s0.25-1.23.35-1.85h-59Z"/><path class="cls-2" d="M931.58,711.77l-0.26.21q-1.51,1.26-3.07,2.47l-0.55.42c-1.08.82-2.17,1.63-3.29,2.41l-0.21.15q-1.64,1.15-3.33,2.22l-0.44.29Q918.75,721,917,722l-0.35.21L932.86,772v0l1.65-.7,1.8-.76c0.82-.35,1.63-0.72,2.44-1.09l1.69-.77c0.87-.41,1.74-0.84,2.6-1.27l1.46-.72c1.16-.59,2.31-1.2,3.46-1.82l0.54-.29q2-1.08,3.93-2.23l1.26-.76c0.88-.53,1.76-1.05,2.62-1.6l1.49-1c0.78-.5,1.55-1,2.32-1.52l1.56-1.07,1.57-1.1-7.18-9.89Z"/><rect class="cls-2" x="968.69" y="499.25" width="57.67" height="77.33"/><path class="cls-2" d="M945.8,697.27c-0.5.63-1,1.23-1.55,1.84-0.34.4-.67,0.81-1,1.21q-1.49,1.72-3.06,3.37l-0.12.13q-1.64,1.72-3.36,3.36c-0.36.34-.72,0.67-1.09,1-0.62.58-1.23,1.17-1.87,1.73l31.83,43.81,1.59-1.19,1.41-1.07c0.77-.6,1.52-1.21,2.28-1.82l1.27-1c0.85-.7,1.69-1.42,2.52-2.14l0.94-.8q1.72-1.51,3.39-3.07l0.14-.14q1.58-1.48,3.12-3l1-1.06c0.71-.72,1.42-1.44,2.12-2.18,0.42-.44.82-0.89,1.23-1.33,0.62-.66,1.23-1.33,1.83-2,0.44-.49.86-1,1.29-1.48s0.79-.89,1.17-1.34h0Z"/><path class="cls-2" d="M985.15,689.14L957.08,680h0l-0.18.33q-0.9,1.72-1.87,3.41l-0.28.47q-1,1.71-2,3.38l-0.1.16c-0.72,1.13-1.46,2.24-2.22,3.34l-0.37.54q-1.11,1.58-2.27,3.12l-0.2.27,33.84,24.59,11.35,8.24h0c0.43-.53.85-1.07,1.28-1.61s0.8-1,1.19-1.5c0.6-.77,1.18-1.55,1.76-2.34,0.34-.46.7-0.92,1-1.39,0.68-.93,1.33-1.87,2-2.82l0.69-1q1.31-1.93,2.56-3.9l0.45-.73c0.67-1.07,1.34-2.15,2-3.24,0.27-.46.53-0.93,0.8-1.39,0.51-.88,1-1.76,1.51-2.65,0.29-.53.58-1.08,0.87-1.62,0.44-.83.89-1.66,1.31-2.49,0.3-.58.58-1.16,0.87-1.75s0.56-1.1.82-1.65h0Z"/><path class="cls-2" d="M304.66,703.83l-0.13-.14q-1.57-1.65-3.06-3.36c-0.34-.4-0.67-0.8-1-1.2-0.52-.62-1.05-1.22-1.56-1.85l-2.28,1.66L253.78,730h0c0.4,0.47.81,0.92,1.21,1.39l1.24,1.42c0.62,0.69,1.25,1.37,1.87,2,0.4,0.43.79,0.87,1.2,1.29,0.7,0.74,1.42,1.47,2.14,2.19l1,1.05q1.52,1.51,3.08,3l0.18,0.18q1.67,1.56,3.38,3.06l1,0.84c0.82,0.71,1.64,1.41,2.48,2.1l1.3,1.05c0.74,0.6,1.49,1.2,2.24,1.79l1.45,1.1,1.56,1.17,28.92-39.8,2.91-4c-0.63-.56-1.23-1.14-1.85-1.71-0.37-.34-0.74-0.68-1.11-1Q306.3,705.54,304.66,703.83Z"/><path class="cls-2" d="M958.51,318.52q0.9,1.86,1.72,3.76l0.3,0.69c0.55,1.3,1.09,2.62,1.59,3.94l0.13,0.35q0.73,2,1.38,3.94l0.15,0.46c0.43,1.33.82,2.67,1.2,4,0,0.14.09,0.28,0.12,0.42h59c-0.11-.62-0.24-1.24-0.36-1.86s-0.26-1.38-.4-2.06c-0.19-.94-0.4-1.87-0.61-2.8-0.15-.65-0.28-1.3-0.44-2-0.24-1-.49-2-0.75-3-0.15-.59-0.3-1.18-0.46-1.76-0.32-1.16-.66-2.3-1-3.45-0.12-.41-0.23-0.81-0.36-1.22q-0.72-2.33-1.52-4.63c-0.12-.33-0.24-0.66-0.36-1-0.42-1.2-.85-2.39-1.31-3.58-0.21-.54-0.43-1.07-0.64-1.61-0.39-1-.77-2-1.18-2.92-0.25-.59-0.51-1.17-0.77-1.76s-0.6-1.41-.92-2.1h0l-54.69,17.77Z"/><path class="cls-2" d="M1026.24,355.91c-0.07-1.74-.17-3.49-0.3-5.23,0-.19,0-0.38,0-0.58q-0.2-2.54-.49-5.08c0-.23-0.05-0.47-0.08-0.7q-0.29-2.5-.68-5c0-.14,0-0.28-0.06-0.42H965.82c0.06,0.26.12,0.53,0.18,0.79q0.15,0.65.3,1.31,0.2,0.9.38,1.8,0.13,0.66.26,1.32c0.11,0.6.22,1.2,0.32,1.8,0.08,0.45.15,0.89,0.22,1.34,0.09,0.61.18,1.21,0.26,1.82,0.06,0.44.12,0.89,0.18,1.33,0.08,0.62.14,1.24,0.21,1.86,0,0.43.1,0.87,0.14,1.3,0.06,0.65.11,1.29,0.15,1.94,0,0.41.07,0.82,0.09,1.23,0,0.71.07,1.42,0.1,2.14,0,0.35,0,.69,0,1q0,1.59.05,3.18v53.12h57.67V361.71c0-1.81,0-3.63-.11-5.45C1026.25,356.15,1026.25,356,1026.24,355.91Z"/><rect class="cls-2" x="968.69" y="419.09" width="57.67" height="77.33"/><path class="cls-2" d="M947.74,300.9q1.16,1.54,2.27,3.12l0.37,0.54c0.76,1.1,1.51,2.22,2.23,3.35l0.08,0.13q1.07,1.68,2.06,3.41L955,311.9q1,1.69,1.87,3.41l0.18,0.33,3.86-1.25,50.91-16.54h0c-0.26-.55-0.55-1.09-0.82-1.64s-0.58-1.18-.88-1.76c-0.42-.82-0.85-1.64-1.29-2.45-0.3-.56-0.59-1.11-0.89-1.67-0.47-.86-1-1.71-1.46-2.56-0.28-.49-0.56-1-0.85-1.48-0.6-1-1.23-2-1.86-3-0.19-.31-0.38-0.62-0.57-0.93q-1.24-2-2.55-3.87c-0.26-.39-0.54-0.76-0.8-1.15-0.62-.89-1.24-1.78-1.87-2.66-0.36-.5-0.74-1-1.11-1.48-0.56-.75-1.12-1.5-1.69-2.24-0.41-.53-0.83-1.05-1.25-1.57l-1.24-1.54-45.19,32.83Z"/><path class="cls-2" d="M346.91,730.71l-1.73-.6-0.8-.28q-1.24-.45-2.47-0.93h0q-1.25-.49-2.49-1l-0.77-.34-1.69-.75-0.93-.43-1.5-.71-1-.49-1.41-.72-1-.53-0.53-.28-16.07,49.45h0c0.62,0.24,1.25.45,1.87,0.68l1.83,0.67c0.9,0.32,1.8.61,2.71,0.91l1.68,0.56c1.06,0.33,2.13.65,3.19,1l1.24,0.37q2.23,0.63,4.48,1.19l0.85,0.2c1.22,0.29,2.44.58,3.67,0.84l1.61,0.32c1,0.2,2,.4,2.94.58l1.85,0.31c0.91,0.15,1.82.31,2.73,0.44l2,0.27,1.8,0.25V731.36h0l-1-.34Z"/><path class="cls-2" d="M923.56,752.56l-9.41-28.94-0.53.28-1,.53-1.4.71-1,.5-1.46.69-1,.45-1.62.72-0.84.36q-1.23.52-2.47,1l-0.16.06q-1.17.46-2.35,0.89l-0.84.29-1.7.59-1,.32-1,.33h0v50.27l1.81-.25,2-.27c0.91-.14,1.82-0.29,2.73-0.44l1.85-.31c1-.18,2-0.38,2.95-0.58l1.6-.32c1.24-.27,2.47-0.56,3.7-0.85l0.81-.19q2.25-.56,4.49-1.19l1.21-.36c1.08-.31,2.15-0.63,3.23-1l1.67-.55c0.91-.3,1.82-0.6,2.72-0.92l1.83-.67c0.62-.23,1.25-0.45,1.87-0.68h0Z"/><path class="cls-2" d="M328,722.2l-0.35-.21q-1.72-1-3.4-2.06l-0.44-.29q-1.68-1.08-3.33-2.22l-0.21-.15c-1.11-.78-2.21-1.59-3.29-2.41l-0.55-.42q-1.56-1.2-3.07-2.46l-0.26-.21-31.69,43.61,1.56,1.09,1.56,1.07c0.77,0.52,1.55,1,2.33,1.52l1.49,1c0.87,0.55,1.76,1.08,2.64,1.61l1.23,0.75q2,1.15,3.94,2.24l0.46,0.24q1.76,1,3.55,1.87l1.43,0.7c0.88,0.43,1.75.87,2.63,1.28l1.68,0.77c0.81,0.37,1.62.74,2.44,1.09l1.81,0.76,1.64,0.69v0l3.73-11.48Z"/></g><rect class="cls-3" x="429.46" y="736" width="74.89" height="46.77"/><path class="cls-3" d="M375.83,735.93l-1.21-.06c-0.81,0-1.61-.08-2.42-0.13l-1.45-.12c-0.72-.06-1.45-0.12-2.17-0.2l-1.54-.18L365,735l-1.58-.24-2-.33-1.6-.3-2-.4-1.61-.36-1.92-.46-1.61-.42-0.94-.25v49.75h0l1.7,0.16,1.65,0.15,2.51,0.18,1.53,0.1c0.92,0.05,1.83.08,2.74,0.12l1.28,0.05q2,0.06,4,.06h59.47V736H379.47Q377.64,736,375.83,735.93Z"/><rect class="cls-3" x="507.18" y="736" width="74.89" height="46.77"/><path class="cls-3" d="M890.41,732.86l-1.94.47-1.6.36-2,.4-1.6.3-2,.33-1.58.24-2.06.26-1.54.18c-0.72.08-1.44,0.14-2.17,0.2l-1.45.12c-0.8.06-1.61,0.09-2.42,0.13l-1.21.06q-1.82.06-3.64,0.07H818.07v46.77h59.47q2,0,4-.06l1.28-.05c0.92,0,1.83-.07,2.75-0.12l1.52-.1,2.51-.18,1.65-.15L893,782h0V732.19l-1,.25Z"/><rect class="cls-3" x="740.35" y="736" width="74.89" height="46.77"/><rect class="cls-3" x="584.91" y="736" width="74.89" height="46.77"/><rect class="cls-3" x="662.63" y="736" width="74.89" height="46.77"/><rect class="cls-3" x="740.35" y="212.9" width="74.89" height="46.77"/><path class="cls-3" d="M889.59,213.4l-2.47-.17-1.57-.1c-0.91,0-1.81-.08-2.71-0.12l-1.31-.05q-2-.06-4-0.06H818.07v46.77h47.16q1.82,0,3.64.07l1.21,0.06c0.81,0,1.61.08,2.42,0.13L874,260c0.72,0.06,1.45.12,2.17,0.2l1.54,0.18,2.06,0.26,1.58,0.25,2,0.33,1.6,0.3,2,0.4,1.6,0.36,1.94,0.47,1.59,0.42,1,0.25V213.72h0l-1.69-.15Z"/><rect class="cls-3" x="662.63" y="212.9" width="74.89" height="46.77"/><rect class="cls-3" x="584.91" y="212.9" width="74.89" height="46.77"/><path class="cls-3" d="M363.16,213l-1.31.05c-0.9,0-1.81.07-2.71,0.12l-1.57.1-2.46.17-1.68.15-1.68.15h0v49.75l0.94-.25,1.61-.42,1.92-.46,1.61-.36,2-.4,1.61-.3,2-.33,1.58-.25,2.06-.26,1.54-.18c0.72-.08,1.45-0.14,2.17-0.2l1.44-.12c0.8-.06,1.61-0.09,2.42-0.13l1.21-.06q1.82-.06,3.64-0.07h47.16V212.9H367.16Q365.17,212.9,363.16,213Z"/><rect class="cls-3" x="507.18" y="212.9" width="74.89" height="46.77"/><rect class="cls-3" x="429.46" y="212.9" width="74.89" height="46.77"/></svg>