<svg id="Слой_1" data-name="Слой 1" xmlns="http://www.w3.org/2000/svg" viewBox="0 0 1244.7 995.67"><defs><style>.cls-1{fill:#fff;}.cls-2{fill:none;stroke:#fff;stroke-miterlimit:10;stroke-width:2.83px;}</style></defs><title>VIP_stadium_5</title><path class="cls-1" d="M915.51,302.86V692.81H329.18V302.86H915.51m2.83-2.83h-592V695.64h592V300h0Z"/><path class="cls-1" d="M915.51,380.33v235H825.85v-235h89.66m2.83-2.83H823V618.17h95.33V377.5h0Z"/><path class="cls-1" d="M915.51,446V549.66h-31V446h31m2.83-2.83H881.68V552.5h36.67V443.17h0Z"/><path class="cls-1" d="M622.35,435.33a62.5,62.5,0,1,1-62.5,62.5,62.57,62.57,0,0,1,62.5-62.5m0-2.83a65.33,65.33,0,1,0,65.33,65.33,65.33,65.33,0,0,0-65.33-65.33h0Z"/><path class="cls-2" d="M823,535.92c-11.69,0-21.17-17.05-21.17-38.08s9.48-38.08,21.17-38.08"/><path class="cls-1" d="M418.85,380.33v235H329.18v-235h89.66m2.83-2.83H326.35V618.17h95.33V377.5h0Z"/><path class="cls-1" d="M360.18,446V549.66h-31V446h31m2.83-2.83H326.35V552.5H363V443.17h0Z"/><path class="cls-2" d="M421.68,459.75c11.69,0,21.17,17.05,21.17,38.08s-9.48,38.08-21.17,38.08"/><line class="cls-2" x1="622.35" y1="300.17" x2="622.35" y2="695.5"/></svg>