<svg id="Слой_5" data-name="Слой 5" xmlns="http://www.w3.org/2000/svg" viewBox="0 0 284 284"><defs><style>.cls-1,.cls-2,.cls-4{fill:#fff;}.cls-1{opacity:0.05;}.cls-2{opacity:0.1;}.cls-3{opacity:0.7;}.cls-5{opacity:0.5;}.cls-6{opacity:0.3;}.cls-7{opacity:0.1;}</style></defs><title>view</title><circle class="cls-1" cx="142" cy="142" r="142"/><circle class="cls-2" cx="142" cy="142" r="131.27"/><g class="cls-3"><polygon class="cls-4" points="194.56 113.34 194.56 113.34 195.17 113.15 194.56 113.34"/><rect class="cls-4" x="123.85" y="105" width="11.77" height="5.45"/><rect class="cls-4" x="136.07" y="105" width="11.77" height="5.45"/><rect class="cls-4" x="148.28" y="105" width="11.77" height="5.45"/><path class="cls-4" d="M184.49,105.6h-0.21l-0.25-.11-0.3-.08h-11v5.45h11.77V105.6h0Z"/><rect class="cls-4" x="160.5" y="105" width="11.77" height="5.45"/><rect class="cls-4" x="111.63" y="105" width="11.77" height="5.45"/><path class="cls-4" d="M111.18,105h-9.1l-0.25.11h-1.67l-0.28.38-0.25.06H99.41v4.83h11.77V105Z"/><path class="cls-4" d="M172.71,179h11l0.29-.08,0.27-.08h0.2v-5.3H172.73V179h0Z"/><rect class="cls-4" x="148.28" y="173.52" width="11.77" height="5.45"/><rect class="cls-4" x="160.5" y="173.52" width="11.77" height="5.45"/><rect class="cls-4" x="136.07" y="173.52" width="11.77" height="5.45"/><path class="cls-4" d="M188.92,110.45v6.12h6.47V116.4l-0.06-.21V116l-0.08-.21v-0.16l-0.08-.21v-0.16L195.1,115V114.9l-0.1-.23v-0.14l-0.11-.25v-0.11l-0.18-.37a16,16,0,0,0-3.79-4.87h0a15.93,15.93,0,0,0-1.43-1.1L189,107.5l-1.16-.49-0.34-.25h-0.11l-0.25-.13-0.14-.08-0.23-.11-0.19-.06-0.23-.1-0.16-.06-0.23-.09-0.16-.06-0.23-.09h-0.16l-0.23-.08h-0.23v4.7h4v-0.15Z"/><path class="cls-4" d="M190.45,108.85h0a16,16,0,0,0-1.43-1.1,15.93,15.93,0,0,1,1.43,1.1h0Z"/><path class="cls-4" d="M195.94,129.16V117h-6.55v12.15h6.55Z"/><path class="cls-4" d="M195.47,167V154.8h-7V167h7Z"/><rect class="cls-4" x="188.92" y="142.21" width="7.02" height="12.15"/><rect class="cls-4" x="188.92" y="129.6" width="7.02" height="12.15"/><path class="cls-4" d="M188.92,173.52h-4v4.7h0.18l0.21-.08,0.18-.06,0.21-.09,0.16-.06,0.21-.09,0.16-.06,0.29-.21,0.15-.08,0.23-.11,0.14-.08,0.25-.13h0.11l0.37-.2a16,16,0,0,0,6.41-6.7l0.18-.37v-0.11l0.11-.25v-0.14l0.1-.23,0.06-.15,0.09-.21v-0.16l0.08-.21v-0.16l0.08-.21v-0.18l0.06-.2v-0.18h-6.44v6h0.39Z"/><path class="cls-4" d="M88.42,117v12.14h7V117h-7Z"/><rect class="cls-4" x="87.96" y="129.6" width="7.02" height="12.15"/><rect class="cls-4" x="87.96" y="142.21" width="7.02" height="12.15"/><path class="cls-4" d="M95,110.45h4v-4.7H98.74l-0.23.08H98.35l-0.23.09L98,106l-0.21.09-0.16.08-0.21.1-0.16.08-0.23.11-0.2.2-0.25.13H96.39L96,107a16,16,0,0,0-6.41,6.7l-0.18.37v0.11l-0.11.25v0.14l-0.14.28V115l-0.09.23v0.15l-0.24.27v0.16l-0.08.23v0.16l-0.06.23v0.21h6.44v-6.16H95Z"/><path class="cls-4" d="M99.41,178.35h0.2l0.27,0.08,0.29,0.08h1.35l0.3,0.33h9.36v-5.31H99.41v4.83Z"/><path class="cls-4" d="M87.92,154.8v12.14h6.55V154.8H87.92Z"/><rect class="cls-4" x="111.63" y="173.52" width="11.77" height="5.45"/><rect class="cls-4" x="123.85" y="173.52" width="11.77" height="5.45"/><path class="cls-4" d="M95,173.52v-6.07H88.54v0.16l0.06,0.23V168l0.08,0.21v0.16l0.08,0.21v0.15L88.84,169v0.15l0.34,0.25v0.14l0.11,0.25v0.11l0.18,0.37a16,16,0,0,0,6.41,6.7l0.37,0.2h0.11l0.25,0.13,0.15,0.08,0.4,0.2h0.16l0.23,0.1,0.16,0.08,0.21,0.09,0.16,0.06L98.32,178H98.5l0.21,0.08H99v-4.54H95Z"/></g><g class="cls-5"><polygon class="cls-4" points="83.37 105.56 83.37 105.56 83.37 105.56 73.26 98.22 73.26 98.22 83.37 105.56 83.37 105.56"/><path class="cls-4" d="M210,97.41l0.35,0.49h0Z"/><polygon class="cls-4" points="88.11 101.14 83.97 95.46 88.11 101.14 88.11 101.14"/><polygon class="cls-4" points="200.53 105.56 207.03 100.83 200.53 105.56 200.53 105.56"/><polygon class="cls-4" points="83.97 188.5 88.11 182.82 88.11 182.82 83.97 188.5"/><polygon class="cls-4" points="73.26 185.75 83.37 178.4 83.37 178.4 83.37 178.4 83.37 178.4 73.26 185.75 73.26 185.75"/><path class="cls-4" d="M86,112.72L80.53,111h0l-0.14.32-0.06.29-0.18.44-0.1.27-0.2.54-0.06.18-0.24.72v0.2l-0.15.53-0.08.28-0.25.48v0.3l-0.1.44v0.62h9.28V116.5a2.41,2.41,0,0,1,.19-0.63v-0.08q0.1-.32.21-0.62h0c0.08-.21.16-0.42,0.25-0.62v-0.1l0.28-.59h0Z"/><path class="cls-4" d="M83.08,106.68l-0.21.21-0.3.43-0.11.16-0.4.61-0.08.14-0.3.49-0.13.23-0.23.4-0.14.27L81,110l-0.14.28-0.13.25h0l3.43,1.09,5.26,1.71h0l0.29-.53v-0.08L90,112.2h0l0.46-.61v-0.09L90.8,111h0l-5.63-4.08-1.48-1.07-0.2.25-0.19.24Z"/><path class="cls-4" d="M87.51,120.8q0-.25,0-0.51V117H78.73v0.06a3.13,3.13,0,0,1-.1.78V118a4.18,4.18,0,0,1-.08.8v0.91h0v9.43h9.07v-8.35Z"/><path class="cls-4" d="M91.18,106.13L88,101.76h0l-0.24.18-0.24.18-0.34.28-0.21.16-0.38.33-0.16.14-0.53.48h0l-0.51.49-0.16.23-0.33.34-0.19.2-0.29.32-0.19.23-0.2.18,5.51,4,1.58,1.15,0.24-.29,0.16-.19,0.48-.53h0l0.53-.53,0.18-.16,0.27-.29Z"/><path class="cls-4" d="M78.92,168l0.15,0.44v0.25l0.11,0.46,0.08,0.28L79.42,170v0.2q0.11,0.37.24,0.72l0.06,0.19,0.19,0.53L80,171.9l0.3,0.49,0.13,0.29L80.6,173h0l3.26-1.06,5.32-1.72h0l-0.27-.59v-0.11c-0.09-.2-0.18-0.42-0.25-0.62h0q-0.11-.3-0.21-0.62v-0.08l-0.19-.63H78.8v0.29Z"/><path class="cls-4" d="M90.84,173h0l-0.39-.47v-0.09l-0.35-.52h0l-0.39-.66v-0.08l-0.29-.53h0l-5.29,1.69-3.35,1.09h0l0.13,0.27L81,174l0.2,0.39,0.14,0.25L81.6,175l0.13,0.21L82,175.77v0.1l0.4,0.62,0.1,0.14,0.32,0.44,0.15,0.2,0.29,0.38,0.18,0.23,0.2,0.27h0l5.21-3.79Z"/><rect class="cls-4" x="78.45" y="129.6" width="9.07" height="12.15"/><path class="cls-4" d="M78.45,163.38v0.86h0v0.91a4.18,4.18,0,0,0,.08.8v0.11a3.13,3.13,0,0,0,.1.78v0.08h9.29V154.8H78.45v8.57Z"/><rect class="cls-4" x="78.45" y="142.21" width="9.07" height="12.15"/><rect class="cls-4" x="160.5" y="97.19" width="11.77" height="7.35"/><path class="cls-4" d="M184,97.27H172.78v7.35h11.08l0.3,0.08,0.25,0.06h0.15V97.32H184.3Z"/><rect class="cls-4" x="148.28" y="97.19" width="11.77" height="7.35"/><path class="cls-4" d="M188.27,106.75l0.54,0.33h0.06l0.52,0.35h0l0.52,0.38,0.09,0.06,0.48,0.39h0l2-2.77,3-4.08h0l-0.25-.18-0.24-.16-0.37-.24-0.23-.15-0.43-.27h-0.11l-0.62-.35h0l-0.58-.3-0.21-.11-0.42-.2-0.27-.11-0.43-.18L191,99.05l-0.27-.11h0l-2.53,7.83h0Z"/><path class="cls-4" d="M90.45,104.34l2.91,4h0l0.48-.39,0.09-.06,0.52-.38h0l0.53-.35H95l0.59-.4h0L93.1,98.93h0L92.84,99l-0.24.13-0.39.18-0.27.11-0.42.2-0.21.1-0.57.3h0l-0.67.37-0.19.11-0.42.25-0.28.13-0.37.24-0.24.16-0.25.16h0Z"/><rect class="cls-4" x="136.07" y="97.19" width="11.77" height="7.35"/><path class="cls-4" d="M185.28,105.37l0.24,0.11h0.13l0.39,0.15h0l0.39,0.16h0.13l0.27,0.11L187,106l0.24,0.11,0.15,0.08,0.23,0.11,0.15,0.08h0.09l1.53-4.73,1-2.91h0l-0.29-.11-0.29-.1-0.43-.14-0.25-.09-0.49-.15h-0.2l-0.71-.23h-0.15L187,97.77H186.7l-0.46-.09H186l-0.43-.06h-0.59v7.9h0.16Z"/><path class="cls-4" d="M101.21,97.21H99.4V105h0.15L99.8,105l0.3-.08h11.08V97.19h-10Z"/><rect class="cls-4" x="123.85" y="97.19" width="11.77" height="7.35"/><path class="cls-4" d="M98.38,97.46l-0.43.06H97.65l-0.46.09H96.95l-0.57.13H96.23l-0.72.33H95.3l-0.49.15-0.27.09-0.42.14-0.29.1-0.29.1h0l2.53,7.78h0.09l0.15-.08,0.23-.11,0.15-.08,0.24-.11,0.15-.06,0.27-.11h0.13l0.39-.16h0l0.38-.14h0.13l0.28-.09H99V97.37H98.69Z"/><rect class="cls-4" x="111.63" y="97.19" width="11.77" height="7.35"/><path class="cls-4" d="M190.9,108.65l0.29,0.27,0.18,0.16,0.53,0.53h0l0.48,0.53,0.16,0.19,0.24,0.29,4.79-3.48,2.3-1.66-0.18-.21-0.2-.24-0.3-.3-0.2-.21-0.29-.29-0.18-.19-0.44-.43-0.06-.06-0.53-.48-0.16-.14-0.38-.32-0.28-.21-0.34-.28-0.23-.18-0.2-.24h0l-2.11,2.91Z"/><path class="cls-4" d="M196.39,163.15V167h9.24v-0.06a3.13,3.13,0,0,1,.1-0.78V166a4.18,4.18,0,0,1,.08-0.8v-0.91h0V154.8h-9.07v8.35h-0.35Z"/><path class="cls-4" d="M195.82,167.45h0v0.06a2.41,2.41,0,0,1-.19.63v0.08q-0.1.32-.21,0.62h0c-0.08.2-.16,0.42-0.25,0.62v0.11l-0.27.59h0l6.55,2.12,2,0.67h0l0.15-.33,0.11-.27,0.19-.47,0.1-.24,0.21-.58v-0.14q0.13-.37.24-0.73V170l0.15-.54,0.08-.28,0.11-.46,0.08-.32L205,168v-0.62h-9.28Z"/><path class="cls-4" d="M190.56,175.6h0l-0.48.39-0.09.06-0.52.38h0l-0.52.35h-0.06l-0.53.33h0l2.53,7.83h0l0.27-.11,0.28-.11,0.38-.18,0.27-.13,0.4-.2,0.23-.11,0.54-.29h0.09l0.62-.35,0.2-.11,0.42-.25,0.24-.15,0.37-.24,0.24-.16,0.24-.18-1.13-1.56Z"/><rect class="cls-4" x="196.39" y="142.21" width="9.07" height="12.15"/><path class="cls-4" d="M192.79,173.33l-0.24.29-0.16.19-0.48.53h0l-0.53.53-0.16.15-0.29.27,5.06,6.89,0.25-.19,0.23-.16,0.35-.29,0.2-.16,0.39-.34,0.15-.13,0.53-.48h0l0.49-.47,0.16-.16,0.33-.34,0.19-.21,0.29-.32,0.2-.23,0.19-.21h0Z"/><path class="cls-4" d="M199,172.05l-4.41-1.43h0l-0.29.53-0.14.09-0.32.53h0l-0.35.52v0.09l-0.35.49h0l5.32,3.87,1.78,1.26h0l0.2-.25,0.19-.24,0.28-.37,0.16-.21,0.32-.44,0.11-.15,0.4-.61,0.08-.11,0.32-.51,0.13-.21,0.24-.42,0.14-.25,0.2-.39,0.14-.28,0.13-.27h0Z"/><path class="cls-4" d="M92,174.35h0l-0.51-.58-0.16-.19-0.24-.29-0.35.27L84,178.45h0l0.19,0.21,0.19,0.23,0.29,0.32,0.19,0.2,0.34,0.34,0.16,0.2,0.48,0.47h0l0.53,0.48L86.55,181,87,181.36l0.2,0.16,0.35,0.28L87.75,182,88,182.17l4.54-6.26,0.46-.63L92.72,175l-0.18-.16Z"/><path class="cls-4" d="M194.79,113.8l0.27,0.54v0.11c0.09,0.2.18,0.42,0.25,0.62h0q0.11,0.3.21,0.62v0.08l0.19,0.63v0.06H205v-0.62l-0.1-.44-0.06-.3-0.11-.47-0.08-.28-0.15-.54v-0.19q-0.11-.37-0.24-0.73v-0.15l-0.2-.57-0.1-.25-0.19-.46-0.13-.28-0.14-.33h0l-8.6,2.79Z"/><path class="cls-4" d="M205.44,119.68v-0.91a4.18,4.18,0,0,0-.08-0.8v-0.11a3.13,3.13,0,0,0-.1-0.78V117H196v12.15h9.5v-9.43h0Z"/><rect class="cls-4" x="196.39" y="129.6" width="9.07" height="12.15"/><path class="cls-4" d="M193.1,111l0.35,0.49v0.09l0.35,0.53h0l0.33,0.53v0.08l0.29,0.53h0l0.61-.2,8.14-2.53h0l-0.13-.25-0.14-.28-0.2-.38-0.14-.27-0.23-.4-0.14-.23-0.29-.48-0.09-.15-0.4-.61-0.13-.18L201,106.9l-0.18-.23-0.27-.35-0.2-.25-0.19-.24L193.06,111Z"/><rect class="cls-4" x="111.63" y="179.41" width="11.77" height="7.35"/><path class="cls-4" d="M98.65,178.59l-0.28-.09H98.25l-0.39-.15h0l-0.39-.16H97.34l-0.27-.11L96.92,178l-0.24-.11-0.15-.08-0.2-.25H96.07l-2.53,7.78h0l0.29,0.1,0.29,0.1,0.43,0.14,0.27,0.09,0.51,0.15h0.19l0.71,0.19h0.14l0.58,0.13H97.2l0.46,0.18h0.29l0.43,0.08H99v-7.9h-0.3Z"/><path class="cls-4" d="M103.21,179.41h-3.09l-0.3-.08-0.25-.06H99.41v7.81h11.77v-7.35h-8v-0.33Z"/><path class="cls-4" d="M189.29,182l-1.48-4.55h-0.09l-0.16.09-0.21.11-0.16.08-0.23.11-0.15.08-0.25.11h-0.13l-0.39.16h0l-0.37.14h-0.13l-0.27.09H185v7.9h0.58l0.43-.08h0.29l0.47-.09H187l0.58-.14h0.13l0.71-.19h0.19l0.51-.15,0.27-.09,0.43-.14,0.29-.1,0.29-.1h0Z"/><path class="cls-4" d="M95.68,177.25h0l-0.53-.33H95.09l-0.52-.35h0l-0.52-.38L94,176.12l-0.48-.39h0l-5,6.85,0.11,0,0.24,0.16L89.18,183l0.23,0.15,0.42,0.25L90,183.56l0.67,0.33h0.08l0.56,0.29,0.23,0.11,0.42,0.2,0.27,0.13,0.38,0.18,0.29,0.11L93.15,185h0l0.58-1.81Z"/><rect class="cls-4" x="123.85" y="179.41" width="11.77" height="7.35"/><path class="cls-4" d="M184.08,178.92l-0.3.08H172.7v7.35h11.76v-7.51h-0.15Z"/><rect class="cls-4" x="160.5" y="179.41" width="11.77" height="7.35"/><rect class="cls-4" x="136.07" y="179.41" width="11.77" height="7.35"/><rect class="cls-4" x="148.28" y="179.41" width="11.77" height="7.35"/></g><g class="cls-6"><polygon class="cls-4" points="72.9 97.95 63.01 90.76 72.9 97.95 72.9 97.95"/><polygon class="cls-4" points="80.03 193.18 74.92 200.2 80.03 193.18 80.03 193.18 80.03 193.18 80.03 193.18"/><polygon class="cls-4" points="88.72 200.15 89.32 198.3 89.32 198.3 88.72 200.15"/><path class="cls-4" d="M83.66,105.21h0l0.2-.24,0.27-.21,0.3-.33,0.13-.2,0.35-.37,0.15-.16,0.53-.51h0l0.49-.44,0.19-.16,0.38-.35,0.23-.18,0.34-.28,0.25-.19,0.24-.18h0L80.33,91.15h0l-0.46.37-0.4.32-0.57.48-0.37.3-0.73.56-0.29.27q-0.9.83-1.73,1.72l-0.27.29L75,96.06l-0.32.37L74.16,97l-0.33.4-0.3.51,10.12,7.36h0v-0.05Z"/><path class="cls-4" d="M203.52,181.12l-3.26-2.38h0l-0.2.23-0.2.24-0.3.33-0.19.2-0.35.37-0.15.16-0.53.51h0l-0.49.46-0.19.16-0.37.32-0.23.18-0.34.28-0.25.19-0.24.18h0l7.45,10.25,0.47-.37,0.4-.32,0.58-.48,0.37-.3,0.62-.56,0.29-.27q0.9-.83,1.73-1.72l0.27-.29,0.56-.61,0.32-.37,0.48-.57,0.32-.4,0.37-.47h0Z"/><path class="cls-4" d="M72.59,99.17l-0.19.28-0.15.23-0.19.29-0.15.23-0.2.24-0.14.21-0.2.33-0.13.2-0.23.38-0.09.14-0.3.53v0.1l-0.24.44-0.16.19-0.19.35-0.11.21-0.16.33-0.11.23-0.15.33-0.11.24-0.15.32-0.11.24-0.15.35-0.1.25-0.13.32-0.1.25-0.08.2h0l11.75,3.79,0.15-.3,0.14-.28,0.21-.4,0.14-.25,0.27-.47,0.1-.19,0.39-.63,0.1-.15,0.32-.48,0.16-.23,0.27-.38,0.19-.25L83,106l0.2-.25,0.19-.24L73.28,98.18l-0.14.18L73,98.58l-0.23.32Z"/><path class="cls-4" d="M196.16,101.39l0.24,0.18,0.27,0.2L197,102l0.23,0.18,0.37,0.32,0.19,0.15,0.49,0.44h0l0.53,0.51,0.16,0.16,0.37,0.42,0.19,0.21,0.3,0.33L200,105l0.2,0.24,4.68-3.4,5.45-3.93L210,97.45,209.69,97l-0.47-.56-0.33-.38-0.54-.59-0.3-.34-0.85-.87h0l-0.89-.85-0.3-.27-0.61-.54L205,92.31l-0.57-.47L204,91.52l-0.46-.35h0l-2.92,4Z"/><rect class="cls-4" x="160.5" y="83.84" width="11.77" height="12.91"/><path class="cls-4" d="M78,120.59v-1.83a4.12,4.12,0,0,1,.08-0.78v-0.13a3,3,0,0,1,.1-0.77h-12v12.15H78.11v-8.64H78Z"/><rect class="cls-4" x="66.06" y="142.21" width="11.95" height="12.15"/><path class="cls-4" d="M190.9,98.46h0l0.29,0.13,0.28,0.11,0.4,0.18L192.12,99l0.46,0.18,0.2,0.1,0.64,0.34h0L194,99.94l0.21,0.13,0.4,0.25,0.25,0.16,0.37,0.24,0.27,0.18,0.24,0.16,7.45-10.25h0L203,90.69l-0.25-.18-0.25-.18-0.25-.18L202,90l-0.25-.16-0.27-.18-0.24-.16L201,89.3l-0.24-.15-0.28-.1-0.21-.13-0.37-.21-0.16-.1-0.52-.33H199.1L198.65,88l-0.19-.1-0.35-.19-0.18-.15-0.34-.16-0.23-.11L197,87.17l-0.24-.11-0.32-.14-0.25-.11-0.32-.14-0.25-.1-0.32-.13-0.27-.1-0.19-.08h0l-2.67,8.22Z"/><path class="cls-4" d="M78.35,116.55l0.06-.35v-0.32l0.1-.48,0.06-.29,0.15-.57v-0.18q0.1-.38.21-0.75l0.13-.2,0.18-.54,0.1-.28,0.16-.46,0.16-.33,0.18-.43,0.14-.3,0.13-.29h0l-0.94-.24L68.39,107h0l-0.09.23-0.1.27-0.11.33-0.09.27-0.11.34-0.09.27-0.11.33-0.08.25-0.1.35-0.08.24-0.1.38v0.23l-0.11.46v0.15l-0.15.61v0.18l-0.1.44v0.24l-0.08.38v0.27l-0.06.35v3H78.35Z"/><rect class="cls-4" x="66.06" y="129.6" width="11.95" height="12.15"/><rect class="cls-4" x="148.28" y="83.84" width="11.77" height="12.91"/><path class="cls-4" d="M185.56,97L186,97.08h0.28l0.53,0.1H187l0.78,0.27H188l0.57,0.15,0.25,0.08,0.42,0.23h0.29L189.9,98l0.3,0.11,0.28,0.1,1-3,3-9.17h0L194.22,86l-0.27-.1-0.33-.11-0.27-.09L193,85.55l-0.27-.09-0.34-.1-0.25-.08-0.37,0-0.2-.1L191.21,85H191l-0.49-.13H190.4l-0.61-.14h-0.11l-0.51-.1H189l-0.4-.08h-0.24L188,84.54h-3V96.93h0.33Z"/><path class="cls-4" d="M183.94,83.89H172.71V96.75h11.77V83.93h-0.54v0Z"/><path class="cls-4" d="M84,95.46l4.12,5.68,0.25-.18,0.25-.18,0.37-.24,0.21-.11,0.42-.25,0.2-.13,0.64-.38h0l0.64-.34,0.23-.16L91.78,99,92,98.84l0.42-.19,0.28-.11L93,98.41,89.52,87.66,89,86.19h0l-0.2.08-0.25.1-0.32.13L88,86.6l-0.32.14-0.25.11L87.13,87l-0.24.11-0.32.15-0.24.11L86,87.53l-0.21.11-0.4.24L85.2,88l-0.46.25H84.66l-0.53.34L84,88.67l-0.38.23-0.2.13-0.33.2-0.2.11-0.3.19-0.23.15L82,89.87,81.81,90l-0.21.2-0.23.16-0.28.19-0.23.16-0.18.13h0Z"/><rect class="cls-4" x="136.07" y="83.84" width="11.77" height="12.91"/><path class="cls-4" d="M101.27,83.84H99.41v13h11.77v-13h-9.91Z"/><rect class="cls-4" x="123.85" y="83.84" width="11.77" height="12.91"/><path class="cls-4" d="M98.48,84H96l-0.37.06H95.38L95,84.13H94.77l-0.53.53H94.11l-0.61.14H93.38L93,85H92.76l-0.38.1-0.29.16-0.38.06-0.25.08-0.34.1-0.27.09-0.33.11-0.27.09-0.33.11-0.27.1-0.21.08h0l1,2.88,3,9.33h0l0.29-.1,0.29-.1,0.37-.19h0.28l0.46-.14,0.25-.08L96,97.53h0.15l0.72-.16h0.2l0.52-.1h0.28l0.46-.08H99V84H98.48Z"/><rect class="cls-4" x="111.63" y="83.84" width="11.77" height="12.91"/><path class="cls-4" d="M87.74,182.62h0l-0.24-.18-0.25-.19L86.91,182l-0.25-.24-0.37-.32-0.19-.16-0.48-.43H85.55L85,180.32l-0.14-.23-0.34-.35-0.2-.21-0.23-.32-0.2-.24-0.2-.23h0l-8,5.78-2.17,1.58L74,186.57,74.27,187l0.48,0.57,0.32,0.37,0.56,0.61,0.28,0.3,0.82,0.85h0l0.86,0.83,0.32,0.28,0.59,0.53,0.38,0.32,0.56,0.47,0.4,0.32,0.49,0.42h0l3.34-4.6Z"/><path class="cls-4" d="M203.61,173.56l-0.15.29-0.14.28-0.21.4-0.14.25-0.27.46-0.1.19-0.39.63-0.09.13-0.33.49-0.15.21-0.28.39-0.18.24-0.27.35-0.19.25-0.19.24h0l8.37,6.08,1.74,1.26h0l0.14-.18,0.16-.23,0.2-.28,0.16-.23,0.2-.29,0.15-.23,0.2-.29,0.14-.21,0.2-.32,0.14-.2,0.2-.34,0.11-.19,0.24-.39,0.08-.14,0.3-.53v-0.1l0.24-.44,0.1-.19,0.19-.35,0.11-.23,0.16-.32,0.11-.24,0.15-.3,0.11-.25,0.14-.3,0.11-.27,0.13-.3,0.11-.28,0.13-.29,0.11-.28,0.08-.18h0Z"/><path class="cls-4" d="M205.51,167.45h0l-0.06.35v0.32l-0.1.49v0.28a2.57,2.57,0,0,1-.15.59v0.16q-0.1.38-.21,0.75v0.18l-0.19.56-0.1.27-0.16.47-0.11.29-0.18.43-0.14.3-0.13.29h0L215.68,177h0l0.09-.23,0.1-.27,0.11-.33,0.09-.27,0.11-.34,0.09-.27,0.11-.34,0.08-.25,0.1-.35,0.08-.24,0.11-.39v-0.21l0.13-.48v-0.13l0.15-.61v-0.14l0.1-.48v-0.21l0.08-.4v-0.24l0.06-.38v-3H205.51v0Z"/><path class="cls-4" d="M195.55,183l-0.25.18-0.37.24-0.25.16-0.4.24L194,184l-0.57.32h-0.06l-0.64.34-0.21.1-0.44.21-0.27.11-0.4.18-0.29.11-0.28.11h0l2.53,7.88,1.4,4.34h0l0.18-.06,0.29-.11,0.28-.11,0.29-.13,0.28-.11,0.29-.13,0.28-.13,0.28-.13,0.28-.14,0.27-.13,0.29-.14,0.27-.13,0.3-.15,0.24-.13,0.37-.2,0.18-.09,0.53-.3,0.19-.11,0.34-.2,0.21-.13,0.32-.19,0.23-.14,0.29-.19,0.23-.15,0.29-.19,0.23-.15,0.28-.19,0.23-.16,0.28-.2,0.23-.16,0.18-.13-7.45-10.25Z"/><path class="cls-4" d="M191.43,188.58l-0.95-2.91-0.28.1-0.3.11-0.42.14-0.29.1-0.44.14-0.27.08-0.57.15h-0.15l-0.72.16h-0.2l-0.53.1H186l-0.46.08h-0.64v13h3l0.37-.06h0.24l0.4-.08h0.21l0.49-.1h0.13l0.61-.14h0.11l0.49-.13h0.23l0.38-.1,0.25-.08,0.35-.1,0.27-.08,0.33-.1,0.28-.09,0.32-.1,0.28-.1,0.32-.11,0.28-.1,0.2-.08h0Z"/><path class="cls-4" d="M205.89,163.38v1.83a4.12,4.12,0,0,1-.08.78v0.19a3.08,3.08,0,0,1-.1.77V167h12.11V154.8H205.89v8.57Z"/><path class="cls-4" d="M200.53,105.56l0.19,0.24,0.2,0.25,0.27,0.35,0.19,0.25,0.27,0.38,0.16,0.23,0.32,0.48,0.1,0.15,0.39,0.63,0.11,0.19,0.25,0.46,0.14,0.27,0.21,0.4,0.14,0.29,0.14,0.29,11.75-3.79h0l-0.08-.19-0.11-.27-0.13-.3-0.11-.27-0.14-.3-0.11-.25-0.14-.32-0.18-.3-0.15-.33-0.11-.23-0.16-.34-0.11-.21-0.15-.37-0.09-.18-0.27-.48h0l-0.34-.61-0.06-.11-0.25-.42-0.11-.18-0.21-.34-0.13-.2-0.2-.32-0.16-.2-0.2-.29-0.15-.23-0.18-.24-0.16-.23-0.2-.27-0.18-.23-0.13-.18L207,100.9Z"/><path class="cls-4" d="M203.79,110.81l0.13,0.29,0.14,0.32,0.19,0.39,0.11,0.3,0.16,0.47,0.1,0.27,0.19,0.57v0.18q0.11,0.38.21,0.75v0.16a2.57,2.57,0,0,0,.15.59v0.27l0.1,0.49v0.3l0.23,0.39h12.15v-3l-0.08-.38v-0.24l-0.09-.42v-0.2l-0.54-.52V111.7l-0.15-.62V111l-0.13-.51v-0.2l-0.11-.4-0.08-.24-0.2-.34-0.08-.25-0.11-.34-0.09-.25-0.11-.34-0.09-.27-0.18-.33v-0.27l-0.09-.23h0l-3.34,1.09Z"/><path class="cls-4" d="M184,187.14H172.76V200h11.77v-13H184.3Z"/><rect class="cls-4" x="205.89" y="142.21" width="11.95" height="12.15"/><path class="cls-4" d="M217.83,119v-2H205.72v0.06a3.08,3.08,0,0,0,.1.77V118a4.12,4.12,0,0,0,.08.78v10.42h11.95V119.7Q217.84,119.4,217.83,119Z"/><path class="cls-4" d="M78.27,167h0a3,3,0,0,0-.1-0.77v-0.13a4.12,4.12,0,0,0-.08-0.78V154.8h-12V167H78.27Z"/><rect class="cls-4" x="205.89" y="129.6" width="11.95" height="12.15"/><path class="cls-4" d="M98.34,186.95l-0.46-.08H97.6l-0.53-.1H96.88l-0.72-.16H96l-0.58-.15-0.27-.08-0.46-.14-0.29-.1L94,186l-0.3-.11-0.28-.1-3,9.08-1,3h0l0.2,0.08L90,198l0.32,0.11,0.28,0.1,0.32,0.1,0.28,0.09,0.33,0.1,0.24,0.08,0.35,0.1,0.25,0.08,0.38,0.1h0.21L93.41,199h0.11l0.61,0.14h0.13l0.49,0.1H95l0.4,0.08h0.24L96,199.41h3V187H98.63Z"/><path class="cls-4" d="M89,197.71h0L93,185.5h0l-0.28-.11-0.29-.11L92,185.1,91.75,185l-0.44-.21-0.21-.1-0.64-.35h0l-0.61-.42-0.21-.13-0.42-.25L89,183.35l-0.37-.24-0.25-.18-0.25-.18L84,188.44,80.65,193h0l0.19,0.14,0.2,0.15,0.3,0.21,0.25,0.21L81.86,194l0.2,0.14,0.32,0.21,0.2,0.13,0.28,0.15,0.19,0.11L83.4,195l0.16,0.1,0.48,0.2,0.08,0.11,0.54,0.3h0.06l0.47,0.25,0.19,0.14,0.34,0.18L86,196.37l0.37,0.16,0.25,0.13,0.3,0.14,0.27,0.13L87.44,197l0.28,0.11L88,197.29l0.28,0.11,0.29,0.11,0.28,0.11Z"/><path class="cls-4" d="M101.21,187.2H99.43v12.95h11.76V187.21h-10Z"/><rect class="cls-4" x="160.5" y="187.21" width="11.77" height="12.91"/><path class="cls-4" d="M83.19,178.16L83,177.9l-0.27-.34-0.19-.25-0.27-.38-0.16-.23-0.32-.49-0.09-.14-0.39-.63-0.1-.18-0.27-.47-0.13-.25-0.21-.42-0.14-.28-0.13-.29-2.12.7-9.62,3.12h0l0.05,0.19,0.11,0.27,0.13,0.3L69,178.4l0.14,0.3L69.2,179l0.14,0.32,0.11,0.25,0.15,0.32,0.15,0.25,0.16,0.33L70,180.64,70.22,181l0.09,0.18,0.25,0.47v0.08l0.3,0.54,0.08,0.13,0.24,0.4L71.29,183l0.21,0.34,0.13,0.2,0.2,0.32L72,184l0.2,0.3,0.15,0.21,0.2,0.29L72.74,185l0.2,0.29,0.16,0.21,0.14,0.19,10.12-7.35Z"/><path class="cls-4" d="M80.12,173.15h0L80,172.86l-0.14-.35-0.18-.43-0.11-.3-0.16-.46-0.1-.28-0.23-.49v-0.2q-0.13-.37-0.23-0.75v-0.19l-0.14-.57-0.06-.29-0.1-.48v-0.32l-0.19-.3H66.19v3.64l0.08,0.35v0.27l0.09,0.39v0.21l0.14,0.61v0.2l0.1,0.4,0.08,0.25,0.1,0.35,0.08,0.27,0.1,0.33,0.73,0.21,0.1,0.33,0.09,0.27L68,175.87l0.09,0.27,0.11,0.33,0.1,0.27L68.38,177h0L80,173.16h0.1Z"/><rect class="cls-4" x="111.63" y="187.21" width="11.77" height="12.91"/><rect class="cls-4" x="148.28" y="187.21" width="11.77" height="12.91"/><rect class="cls-4" x="136.07" y="187.21" width="11.77" height="12.91"/><rect class="cls-4" x="123.85" y="187.21" width="11.77" height="12.91"/></g><g class="cls-7"><rect class="cls-4" x="148.28" y="63.74" width="11.77" height="19.66"/><path class="cls-4" d="M182.63,83.4h1.85V63.76c-0.95,0-1.91-.08-2.86-0.08h-8.85v19.7h9.86Z"/><rect class="cls-4" x="160.5" y="63.74" width="11.77" height="19.66"/><path class="cls-4" d="M89.32,85.66h0l0.2-.08,0.29-.1,0.32-.11,0.32-.11,0.32-.1,0.29-.09,0.33-.1,0.28-.09,0.33-.1,0.28-.08,0.35-.09,0.27-.08,0.37-.09h0.24l0.44-.1H94.1l0.62-.13h0.16L95.3,84h0.2l0.39-.06h3V63.82a57.58,57.58,0,0,0-15.7,3.12l5.51,17,0.57,1.73h0Z"/><rect class="cls-4" x="111.63" y="63.74" width="11.77" height="19.66"/><path class="cls-4" d="M99.67,83.46h11.52V63.76h-8.85c-0.95,0-1.91,0-2.86.08V83.47h0.19Z"/><path class="cls-4" d="M185.17,83.54H188L188.36,84h0.23l0.49,0.1h0.15l0.62,0.13H190l0.48,0.11h0.23l0.39,0.1,0.25,0.06,0.37,0.1L192,84.67l0.34,0.1,0.27,0.09,0.29,0.21,0.27,0.09,0.37,0.09,0.28,0.09,0.35,0.14,0.28,0.1,0.2,0.08,5.3-16.31,0.78-2.4A57.58,57.58,0,0,0,185,63.82V83.51h0Z"/><rect class="cls-4" x="136.07" y="63.74" width="11.77" height="19.66"/><rect class="cls-4" x="123.85" y="63.74" width="11.77" height="19.66"/><path class="cls-4" d="M72.59,185.59l-0.19-.27-0.18-.24L72,184.82l-0.16-.24-0.19-.28-0.2-.25-0.19-.29-0.15-.24-0.19-.3L70.81,183l-0.15-.37-0.13-.2L70.29,182l-0.08-.13-0.29-.52-0.09-.18-0.2-.37-0.11-.23-0.16-.33L69.24,180l-0.15-.32L69,179.45l-0.14-.32-0.11-.25-0.14-.32-0.11-.27L68.34,178l-0.1-.27-0.11-.15L50,183.39l-1.62.53a58.29,58.29,0,0,0,8.13,14L63,193.2,72.85,186l-0.13-.16Z"/><path class="cls-4" d="M81.08,90l0.23-.16,0.29-.2,0.23-.15,0.29-.19,0.23-.15,0.3-.19,0.21-.15,0.33-.2,0.2-.13,0.35-.21,0.18-.1,0.48-.27h0.06L85,87.62l0.15-.08,0.39-.2,0.21-.1,0.34-.18L86.35,87l0.3-.19,0.25-.11,0.37-.13,0.27-.11,0.32-.14,0.27-.11,0.3-.13,0.28-.11,0.2-.08-6-18.74a58.17,58.17,0,0,0-14.1,7.36L80.33,90.52l0.18-.13,0.24-.16Z"/><path class="cls-4" d="M73.87,96.71l0.48-.57,0.33-.38,0.59-.61,0.29-.32L76.4,94l0.09-.09,0.83-.8,0.27-.25,0.59-.54L78.56,92l0.57-.47,0.42-.33L80,90.81,68.34,74.75a58.86,58.86,0,0,0-11.53,11l10.62,7.73,5.72,4.16,0.37-.47Z"/><path class="cls-4" d="M203.52,193.45h0l-0.18.13-0.23.16-0.28.2-0.24.16-0.28.19-0.24.16-0.28.19-0.24.15-0.29.18-0.24.15-0.29.18-0.24.15-0.3.18-0.24.14-0.33.19-0.29.16-0.46.25-0.24.13-0.32.16-0.27.13-0.3.15-0.27.13-0.29.14-0.27.13-0.3.14-0.27.11-0.3.14-0.27.11-0.32.13-0.27.1-0.21.09,6.08,18.73a58.17,58.17,0,0,0,14.1-7.36l-11.66-16.06h0v0Z"/><path class="cls-4" d="M88.11,197.8l-0.25-.1-0.33-.14-0.25-.11-0.33-.15-0.29-.09L86.33,197l-0.24-.11-0.34-.16-0.21-.1-0.39-.2L85,196.38l-0.54-.29H84.31l-0.43-.24-0.2-.11-0.33-.19-0.18-.28-0.32-.14L82.62,195l-0.29-.19-0.24-.16-0.28-.18-0.21-.15-0.27-.19-0.24-.18-0.27-.19-0.25-.18-0.16-.13-8.19,11.28-3.46,4.77a58.17,58.17,0,0,0,14.11,7.38l6.08-18.73L88.73,198l-0.27-.1Z"/><path class="cls-4" d="M68.33,106l0.13-.32,0.11-.27,0.14-.32,0.11-.25,0.13-.32,0.13-.29,0.16-.33,0.11-.23,0.18-.35,0.1-.2,0.21-.39,0.08-.15,0.29-.52V102l0.27-.46,0.11-.19,0.2-.35,0.14-.21,0.25-.32,0.15-.23,0.14-.29,0.15-.24,0.19-.29L72,99.17l0.19-.28,0.16-.24,0.19-.27,0.16-.25L72.87,98h0L63,90.76l-6.46-4.69a58.29,58.29,0,0,0-8.14,14l1,0.32,18.75,6.09,0.09-.21Z"/><path class="cls-4" d="M215.63,178l-0.13.3-0.11.27-0.14.3-0.11.27-0.14.32-0.11.25-0.15.32-0.11.24-0.18.34-0.11.21-0.21.4-0.08.15-0.3.54V182l-0.27.47-0.1.18-0.21.37-0.13.2-0.2.33-0.14.21-0.2.32-0.15.21-0.2.3-0.15.23-0.2.29-0.16.23-0.2.29-0.16.23-0.14.18,16.35,11.89a58.29,58.29,0,0,0,8-14l-17.92-5.82-1.81-.58-0.09.2Z"/><path class="cls-4" d="M211.14,98.14l0.16,0.21,0.21,0.29,0.15,0.21,0.16,0.3L212,99.38l0.2,0.3,0.15,0.21,0.2,0.32,0.16,0.21,0.2,0.33L213,101l0.21,0.37,0.1,0.18,0.27,0.47V102l0.3,0.54,0.09,0.15,0.2,0.39,0.15,0.23,0.18,0.34,0.11,0.24,0.16,0.28,0.11,0.25,0.14,0.3,0.11,0.27,0.14,0.3,0.11,0.28,0.13,0.29,0.06,0.34,0.08,0.2L232.45,101l3-1a58.29,58.29,0,0,0-8.13-14l-8.85,6.44L211,97.9Z"/><path class="cls-4" d="M210.74,186.41h0l-0.37.47-0.33.42-0.48.57-0.33.38-0.56.61-0.28.3-0.86.89h0l-0.89.85-0.3.28-0.62.56-0.38.32-0.57.48-0.42.33-0.47.37,11.67,16.06a58.85,58.85,0,0,0,11.53-11l-10.51-7.59-5.85-4.27h0Z"/><path class="cls-4" d="M204.35,91.16l0.4,0.32L205.34,92l0.38,0.32,0.61,0.57,0.3,0.28,0.86,0.82h0l0.86,0.89,0.28,0.3,0.56,0.61,0.32,0.38L210,96.69l0.33,0.4,0.38,0.48h0L227,85.7a58.85,58.85,0,0,0-11.53-11l-5.88,8.09-5.79,8Z"/><path class="cls-4" d="M195.79,86.14l0.27,0.11,0.3,0.14,0.3,0.13,0.3,0.14,0.25,0.11,0.32,0.15L197.79,87l0.33,0.16,0.23,0.11,0.35,0.19,0.19,0.1,0.54,0.29L199.56,88,200,88.22l0.2,0.11,0.28,0.18,0.21,0.13L201,88.82,201.22,89l0.3,0.19,0.2,0.15L202,89.49l0.23,0.15,0.29,0.2L202.76,90,203,90.2l0.21,0.16,0.19,0.14h0l11.66-16.06A58.17,58.17,0,0,0,201,67.09l-6.08,18.73,0.2,0.09L195.41,86Z"/><polygon class="cls-4" points="203.52 90.52 215.18 74.46 215.18 74.46 203.52 90.52 203.52 90.52"/><path class="cls-4" d="M79.56,192.8l-0.4-.33L78.59,192l-0.38-.32-0.61-.54-0.32-.28L76.44,190h0l-0.85-.87-0.32-.38-0.54-.59-0.33-.39-0.47-.56-0.34-.43-0.42-.4h0L56.82,198.29a58.85,58.85,0,0,0,11.53,11l6.56-9,5.06-7Z"/><path class="cls-4" d="M218.16,167.64v2.19l-0.06.39v0.24l-0.08.43v0.2l-0.11.54v0.08l-0.14.63v0.09l-0.13.53v0.19l-0.11.42-0.06.23-0.1.38-0.08.24-0.11.37-0.08.25-0.11.35-0.09.27-0.11.34-0.09.27-0.13.34-0.1.27-0.08.21h0l19.73,6.41a57.53,57.53,0,0,0,3.41-16H218.16v0.19Z"/><polygon class="cls-4" points="215.93 177.1 235.66 183.49 235.66 183.49 215.93 177.1 215.93 177.1"/><path class="cls-4" d="M194.37,198.38l-0.28.1-0.33.11-0.28.1-0.33.11-0.28.09-0.33.1-0.28.09-0.33.1-0.28.08-0.34.09-0.28.08-0.35.09-0.27.06-0.4.1h-0.2l-0.62.13H189l-0.42.08h-0.25l-0.37.06h-3v19.69a57.6,57.6,0,0,0,15.73-3.12l-1-3-5.06-15.7Z"/><polygon class="cls-4" points="200.66 217 199.69 213.99 200.66 217 200.66 217"/><path class="cls-4" d="M218.29,164.92v2h21.38c0.14-1.62.2-3.25,0.2-4.87V154.8h-21.5v9.46A2.62,2.62,0,0,0,218.29,164.92Z"/><rect class="cls-4" x="148.28" y="200.56" width="11.77" height="19.66"/><path class="cls-4" d="M184.23,200.5H172.71v19.66h8.85c0.95,0,1.91,0,2.86-.08v-19.6h-0.19Z"/><rect class="cls-4" x="160.5" y="200.56" width="11.77" height="19.66"/><path class="cls-4" d="M65.78,116.31v-2.82l0.44-.42v-0.25l0.09-.42v-0.2l0.14-.62v-0.21l0.1-.4,0.06-.27,0.09-.35,0.08-.28,0.09-.34,0.09-.28,0.1-.33,0.09-.29,0.1-.32,0.1-.29,0.23-.2,0.11-.34,0.11-.32,0.1-.28,0.08-.2-19.74-6.45a57.53,57.53,0,0,0-3.87,16.1H65.75Z"/><rect class="cls-4" x="218.29" y="142.21" width="21.48" height="12.15"/><path class="cls-4" d="M215.93,106.87l0.08,0.2,0.1,0.28,0.11,0.32,0.1,0.35,0.11,0.32,0.09,0.29,0.1,0.33,0.09,0.29,0.1,0.33,0.08,0.21,0.09,0.33,0.08,0.28,0.09,0.34,0.06,0.27,0.09,0.38v0.24l0.14,0.62v0.23l0.08,0.39v0.27l0.06,0.35v3.06h22a57.53,57.53,0,0,0-3.87-16.11l-19.73,6.41h0v0Z"/><rect class="cls-4" x="218.29" y="129.6" width="21.48" height="12.15"/><path class="cls-4" d="M218.16,117.3v11.86h21.5v-7.23c0-1.62-.06-3.26-0.2-4.87H218.16v0.24Z"/><rect class="cls-4" x="111.63" y="200.56" width="11.77" height="19.66"/><rect class="cls-4" x="136.07" y="200.56" width="11.77" height="19.66"/><path class="cls-4" d="M98.72,200.43H98.44l-0.4-.1H95.87L95.51,200H95.25l-0.42-.08h-0.2L94,199.81H93.8l-0.4-.09-0.27-.06-0.35-.09-0.28-.08-0.34-.09-0.28-.08-0.27-.27L91.33,199l-0.33-.1-0.28-.09-0.28-.1-0.28-.1-0.33-.11-0.28-.1-0.2-.08h0l-0.61,1.86L83.24,217A57.6,57.6,0,0,0,99,220.13V200.45h0Z"/><path class="cls-4" d="M101.27,200.56H99.41v19.68c0.95,0,1.91.08,2.86,0.08h8.85V200.56h-9.85Z"/><path class="cls-4" d="M68,177.1h0l-0.08-.21-0.1-.27-0.1-.32-0.1-.27-0.11-.34-0.09-.27L67.27,175l-0.09-.27-0.1-.35L67,174.16l-0.1-.39-0.06-.24-0.1-.4v-0.21l-0.18-.4v-0.13l-0.14-.67V171.6l-0.1-.51v-0.21l-0.08-.4v-3.06H44.37a57.53,57.53,0,0,0,3.87,16.1L68,177.1h0Z"/><polygon class="cls-4" points="48.24 183.49 48.24 183.49 67.97 177.1 67.97 177.1 48.24 183.49"/><rect class="cls-4" x="44.13" y="142.21" width="21.48" height="12.15"/><path class="cls-4" d="M65.63,119v-2H44.33c-0.14,1.62-.2,3.25-0.2,4.87v7.28h21.5V119.7Q65.61,119.4,65.63,119Z"/><rect class="cls-4" x="44.13" y="129.6" width="21.48" height="12.15"/><path class="cls-4" d="M65.7,166.68V154.8H44.21v7.28c0,1.62.06,3.25,0.2,4.87H65.71A2,2,0,0,1,65.7,166.68Z"/><rect class="cls-4" x="123.85" y="200.56" width="11.77" height="19.66"/></g><path class="cls-4" d="M188,111.33v61.29H95.87V111.33H188m0.44-.44h-93v62.19h93.05V110.89h0Z"/><path class="cls-4" d="M188,123.51v36.94H173.9V123.51H188m0.44-.44h-15V160.9h15V123.06h0Z"/><path class="cls-4" d="M188,133.84v16.29h-4.87V133.84H188m0.44-.44h-5.72v17.17h5.77V133.38h-0.05Z"/><path class="cls-4" d="M141.95,132.16a9.82,9.82,0,1,1-9.77,9.88V142a9.84,9.84,0,0,1,9.82-9.82m0-.44A10.27,10.27,0,1,0,152.27,142,10.27,10.27,0,0,0,142,131.71h0Z"/><path class="cls-4" d="M173.49,148.19c-2,0-3.55-2.78-3.55-6.21s1.59-6.21,3.55-6.21v0.44c-1.71,0-3.1,2.53-3.1,5.77s1.39,5.77,3.1,5.77v0.44Z"/><path class="cls-4" d="M110,123.51v36.94H95.87V123.51H110m0.44-.44h-15V160.9h15V123.06h0Z"/><path class="cls-4" d="M100.74,133.84v16.29H95.87V133.84h4.87m0.44-.44H95.43v17.17h5.77V133.38h0Z"/><path class="cls-4" d="M110.41,148.19v-0.44c1.71,0,3.1-2.53,3.1-5.77s-1.39-5.77-3.1-5.77v-0.44c2,0,3.55,2.78,3.55,6.21S112.37,148.19,110.41,148.19Z"/><rect class="cls-4" x="141.72" y="110.91" width="0.44" height="62.14"/></svg>