<svg id="Слой_5" data-name="Слой 5" xmlns="http://www.w3.org/2000/svg" viewBox="0 0 284 284"><defs><style>.cls-1,.cls-2,.cls-4,.cls-5{fill:#fff;}.cls-1{opacity:0.05;}.cls-2{opacity:0.1;}.cls-3{fill:none;}.cls-4{opacity:0.5;}.cls-5{opacity:0.7;}</style></defs><title>VIP_chair</title><circle class="cls-1" cx="142" cy="142" r="142"/><circle class="cls-2" cx="142" cy="142" r="131.27"/><path class="cls-3" d="M67.3,157.72l1.06,0.09c0.12-1.48.22-3,.3-4.49l-1.06-.05C67.52,154.75,67.42,156.25,67.3,157.72Z"/><path class="cls-3" d="M78.85,132c-1.48.05-3,.12-4.46,0.21l0.06,1.06c1.47-.09,3-0.16,4.44-0.21Z"/><path class="cls-3" d="M69.84,147l0.1,1.06,2.23-.2-0.09-1.06Z"/><path class="cls-3" d="M69.84,161.49l0.1,1.06,2.23-.2-0.09-1.06Z"/><path class="cls-3" d="M67.76,144.33q0,0.86,0,1.71c0,0.92,0,1.85,0,2.76l1.06,0c0-.92,0-1.85,0-2.78q0-.86,0-1.72H67.76Z"/><path class="cls-3" d="M68.7,139.81c-0.06-1.5-.15-3-0.26-4.49l-1.06.08c0.11,1.48.2,3,.26,4.46Z"/><path class="cls-3" d="M69.93,132.53l-2.24.2,0.1,1.06,2.23-.2Z"/><path class="cls-3" d="M76.19,161l0.06,1.06c1.36-.08,2.73-0.14,4.09-0.19l0-1.06C78.94,160.86,77.56,160.92,76.19,161Z"/><path class="cls-3" d="M217.77,119.08l-1-.21c-0.29,1.46-.56,2.95-0.81,4.43l1,0.17C217.21,122,217.48,120.53,217.77,119.08Z"/><path class="cls-3" d="M216.29,127.9l-1.05-.14c-0.2,1.48-.38,3-0.54,4.47l1.05,0.11C215.91,130.86,216.09,129.37,216.29,127.9Z"/><path class="cls-3" d="M215.05,134.13l-2.24-.2L212.73,135l2.23,0.2Z"/><polygon class="cls-3" points="216.12 172.59 216.21 173.07 217.25 172.88 217.16 172.41 216.12 172.59"/><path class="cls-3" d="M212.9,148.38l-2.24-.2-0.09,1.06,2.23,0.2Z"/><path class="cls-3" d="M84.43,161.77h0.84l-0.19-1.06H84.41v1.06Z"/><path class="cls-3" d="M76.25,147.56l1.59-.08v-1.06l-1.66.09Z"/><path class="cls-3" d="M212.9,162.88l-2.24-.2-0.09,1.06,2.23,0.2Z"/><path class="cls-3" d="M208.36,133.61c-1.48-.09-3-0.16-4.46-0.21l0,1.06c1.47,0.05,3,.12,4.44.21Z"/><path class="cls-3" d="M101.07,133.59h0.13c0-.35,0-0.71,0-1.06h-0.07Z"/><path class="cls-3" d="M193.59,133.07l0-1.06c-1.48.05-3,.12-4.46,0.21l0.06,1.06C190.63,133.19,192.12,133.12,193.59,133.07Z"/><path class="cls-3" d="M96.7,132.22c-1.48-.09-3-0.16-4.46-0.21l0,1.06c1.47,0.05,3,.12,4.44.21Z"/><path class="cls-3" d="M66.29,166.6l1,0.15c0.22-1.48.41-3,.58-4.47l-1.05-.12C66.7,163.64,66.51,165.13,66.29,166.6Z"/><path class="cls-3" d="M66.83,121.91c-0.25-1.48-.52-3-0.81-4.43l-1,.21c0.29,1.45.56,2.93,0.8,4.4Z"/><polygon class="cls-3" points="65.5 171.49 66.54 171.68 66.63 171.2 65.58 171.01 65.5 171.49"/><path class="cls-3" d="M87.77,133V131.9q-2.23,0-4.47,0V133Q85.54,132.94,87.77,133Z"/><path class="cls-3" d="M67,130.94l1.05-.11c-0.16-1.48-.34-3-0.54-4.47l-1.05.14C66.65,128,66.83,129.47,67,130.94Z"/><path class="cls-3" d="M202.47,133V131.9q-2.23,0-4.47,0V133Q200.25,132.94,202.47,133Z"/><path class="cls-3" d="M215.88,163.56l-1.05.12c0.17,1.48.36,3,.58,4.47l1-.15C216.24,166.52,216,165,215.88,163.56Z"/><polygon class="cls-3" points="181.27 204.2 180.41 205.37 182.59 205.37 181.27 204.2"/><path class="cls-3" d="M202.41,163.26c1.35,0,2.73.11,4.09,0.19l0.06-1.06c-1.37-.08-2.75-0.14-4.11-0.19Z"/><path class="cls-3" d="M215.36,136.79l-1.06-.08c-0.11,1.49-.2,3-0.26,4.49l1.06,0C215.17,139.77,215.25,138.27,215.36,136.79Z"/><path class="cls-3" d="M215.15,154.66l-1.06.05c0.08,1.5.17,3,.3,4.49l1.06-.09C215.33,157.64,215.23,156.14,215.15,154.66Z"/><path class="cls-3" d="M215,147.43q0-.85,0-1.71h-1.06q0,0.86,0,1.72c0,0.93,0,1.86,0,2.78l1.06,0C215,149.28,215,148.35,215,147.43Z"/><path class="cls-2" d="M183.78,141.75c1-1.67,5.31-1.91,5.31-1.91l13.7-.12a4.22,4.22,0,0,1,4.25,4.22v7.43a2.65,2.65,0,0,1-1.6,2.43l-2.59,1.12a3.81,3.81,0,0,0-2.24,2.82l-0.46,2.59-3.38,18.41h16.37a5,5,0,0,0,3.12-1.11l2.15-1.75a6,6,0,0,1,3.79-1.34h3V163.17a7.51,7.51,0,0,1,2-5.1A288,288,0,0,1,227.4,125c0.39-6.18,1-12.44,1.79-18.62a6.16,6.16,0,0,0-4.91-6.83c-2.19-.39-4.4-0.74-6.6-1l-0.75,9.4a9.75,9.75,0,0,1-9.37,9h0l-22.54,0a9.84,9.84,0,0,1-1.34-.15C183.5,123.79,183.53,134.68,183.78,141.75Zm22.72,21.7c-1.36-.08-2.73-0.14-4.09-0.19l0-1.06c1.36,0,2.74.11,4.11,0.19Zm7.42-16q0-.86,0-1.72H215q0,0.86,0,1.71c0,0.92,0,1.85,0,2.76l-1.06,0C213.92,149.29,213.91,148.36,213.91,147.43Zm0.13-6.22c0.06-1.5.15-3,.26-4.49l1.06,0.08c-0.11,1.48-.2,3-0.26,4.46Zm0,13.5,1.06-.05c0.07,1.49.17,3,.29,4.46l-1.06.09C214.27,157.72,214.17,156.21,214.09,154.71Zm0.73,9,1.05-.12c0.17,1.47.36,3,.57,4.43l-1,.15C215.19,166.67,215,165.16,214.83,163.68Zm1.38,9.39-0.09-.48,1-.18,0.09,0.47Zm0.52-54.19,1,0.21c-0.29,1.45-.56,2.93-0.8,4.4l-1-.17C216.17,121.83,216.44,120.34,216.73,118.88Zm-1.48,8.88,1.05,0.14c-0.2,1.47-.38,3-0.53,4.44l-1.05-.11C214.86,130.74,215,129.24,215.24,127.76Zm-2.43,6.17,2.24,0.2-0.1,1.06-2.23-.2Zm-2.15,14.26,2.24,0.2-0.1,1.06-2.23-.2Zm0,14.49,2.24,0.2-0.1,1.06-2.23-.2ZM203.9,133.4c1.48,0.05,3,.12,4.46.21l-0.06,1.06c-1.47-.09-3-0.16-4.44-0.21Zm-4.46-.1v1.06q-2.22,0-4.44,0V133.3Q197.2,133.27,199.43,133.3Zm-8.93.1,0,1.06c-1.47.05-3,.12-4.44,0.21L186,133.61C187.53,133.53,189,133.46,190.5,133.4Z"/><path class="cls-2" d="M183.7,115.79l22.34,0a8.68,8.68,0,0,0,8.34-8l0.8-10V97.67a8.72,8.72,0,0,0-7.81-9.34h0a80.38,80.38,0,0,0-13.11-.79c-3.91,0-6.71.14-8.63,0.3-0.55,5.14-1,10.3-1.33,15.42Q183.87,109.51,183.7,115.79Z"/><path class="cls-2" d="M247.91,157.9a0.71,0.71,0,0,0-.2-0.55c-0.24-.25-0.93-0.66-2.85-0.66H232.75a6.4,6.4,0,0,0-4.46,1.8v0.1l-0.15.16a6.46,6.46,0,0,0-1.75,4.42v11.37h4.12a5.52,5.52,0,0,1,5.51,5.51v0.87c0,4.05-1.95,11.45-3.36,15.23a4.8,4.8,0,0,1-4.48,3.12H228l-0.1.26c-0.1.26-.2,0.52-0.3,0.77L227,201.87a3.39,3.39,0,0,1-.52.86l4.61,4.09h2.48l6.61-36a4.77,4.77,0,0,1,2.66-4.21,10.62,10.62,0,0,1,2.5-.78c1.54-.33,2.31-0.56,2.6-1.85Z"/><rect class="cls-2" x="231.52" y="207.88" width="1.96" height="3.29"/><polygon class="cls-2" points="230.46 212.23 226.78 212.23 226.78 213.73 237.9 213.73 237.9 212.23 234.53 212.23 230.46 212.23"/><path class="cls-2" d="M225.75,198.21h2.45a3.73,3.73,0,0,0,3.48-2.43c1.38-3.71,3.29-10.93,3.29-14.86v-0.87a4.46,4.46,0,0,0-4.45-4.45H222.2a5,5,0,0,0-3.12,1.11l-2.15,1.75a6,6,0,0,1-3.79,1.34H196.58l-3.38,18.42h32.55Z"/><path class="cls-2" d="M192.89,199.88l-0.65,3.52h30.12a4.22,4.22,0,0,0,3.38-1.46v-2.06H192.89Z"/><path class="cls-2" d="M226.67,199.88h-0.92v2.06a2.27,2.27,0,0,0,.27-0.47l0.65-1.56v0Z"/><path class="cls-3" d="M70.16,119.08l1-.21c0.29,1.46.56,2.95,0.81,4.43l-1,.17C70.71,122,70.44,120.53,70.16,119.08Z"/><path class="cls-3" d="M71.63,127.9l1.05-.14c0.2,1.48.38,3,.54,4.47l-1.05.11C72,130.86,71.83,129.37,71.63,127.9Z"/><path class="cls-3" d="M72.87,134.13l2.24-.2L75.2,135l-2.23.2Z"/><polygon class="cls-3" points="71.8 172.59 71.72 173.07 70.67 172.88 70.76 172.41 71.8 172.59"/><path class="cls-3" d="M75,148.38l2.24-.2,0.09,1.06-2.23.2Z"/><path class="cls-3" d="M75,162.88l2.24-.2,0.09,1.06-2.23.2Z"/><path class="cls-3" d="M79.56,133.61c1.48-.09,3-0.16,4.46-0.21l0,1.06c-1.47.05-3,.12-4.44,0.21Z"/><path class="cls-3" d="M72,163.56l1.05,0.12c-0.17,1.48-.36,3-0.58,4.47l-1-.15C71.68,166.52,71.88,165,72,163.56Z"/><path class="cls-3" d="M72.56,136.79l1.06-.08c0.11,1.49.2,3,.26,4.49l-1.06,0C72.76,139.77,72.67,138.27,72.56,136.79Z"/><path class="cls-3" d="M72.77,154.66l1.06,0.05c-0.08,1.5-.17,3-0.3,4.49l-1.06-.09C72.6,157.64,72.7,156.14,72.77,154.66Z"/><path class="cls-3" d="M73,147.43q0-.85,0-1.71H74q0,0.86,0,1.72c0,0.93,0,1.86,0,2.78l-1.06,0C72.94,149.28,73,148.35,73,147.43Z"/><path class="cls-2" d="M104.25,116.71a9.84,9.84,0,0,1-1.34.15l-22.54,0h0a9.75,9.75,0,0,1-9.37-9l-0.75-9.4c-2.2.3-4.42,0.65-6.6,1a6.16,6.16,0,0,0-4.91,6.83c0.79,6.17,1.4,12.44,1.79,18.62a288,288,0,0,1,.19,33.06,7.51,7.51,0,0,1,2,5.1v11.37h3a6,6,0,0,1,3.79,1.34l2.15,1.75a5,5,0,0,0,3.12,1.11H91.15l-3.38-18.41-0.46-2.59a3.81,3.81,0,0,0-2.24-2.82l-2.59-1.12a2.65,2.65,0,0,1-1.6-2.43v-7.43a4.22,4.22,0,0,1,4.25-4.22l13.7,0.12s4.36,0.24,5.31,1.91C104.39,134.68,104.42,123.79,104.25,116.71ZM81.37,162.39c1.37-.08,2.75-0.14,4.11-0.19l0,1.06c-1.35,0-2.73.11-4.09,0.19ZM74,150.21l-1.06,0c0-.91,0-1.84,0-2.76q0-.85,0-1.71H74q0,0.86,0,1.72C74,148.36,74,149.29,74,150.21Zm-1.17-9c-0.06-1.48-.15-3-0.26-4.46l1.06-.08c0.11,1.49.2,3,.26,4.49Zm0.71,17.95-1.06-.09c0.12-1.47.22-3,.29-4.46l1.06,0.05C73.75,156.21,73.65,157.72,73.53,159.2Zm-1,8.95-1-.15c0.21-1.47.41-3,.57-4.43l1.05,0.12C72.93,165.16,72.73,166.67,72.52,168.15Zm-1.84,4.73,0.09-.47,1,0.18-0.09.48ZM72,123.31l-1,.17c-0.25-1.47-.52-2.95-0.8-4.4l1-.21C71.49,120.34,71.76,121.83,72,123.31Zm1.21,8.92-1.05.11c-0.15-1.47-.33-3-0.53-4.44l1.05-.14C72.88,129.24,73.06,130.74,73.22,132.23Zm2,2.76-2.23.2-0.1-1.06,2.24-.2Zm2.15,14.26-2.23.2L75,148.38l2.24-.2Zm0,14.5-2.23.2L75,162.88l2.24-.2Zm6.71-29.28c-1.47.05-3,.12-4.44,0.21l-0.06-1.06c1.48-.09,3-0.16,4.46-0.21ZM93,133.3v1.06q-2.22,0-4.44,0V133.3Q90.72,133.27,93,133.3Zm8.93,0.31-0.06,1.06c-1.48-.09-3-0.16-4.44-0.21l0-1.06C98.89,133.46,100.4,133.53,101.88,133.61Z"/><path class="cls-2" d="M104.22,115.79l-22.34,0a8.68,8.68,0,0,1-8.34-8l-0.8-10V97.67a8.72,8.72,0,0,1,7.81-9.34h0a80.38,80.38,0,0,1,13.11-.79c3.91,0,6.71.14,8.63,0.3,0.55,5.14,1,10.3,1.33,15.42Q104.05,109.51,104.22,115.79Z"/><path class="cls-2" d="M40,157.9a0.71,0.71,0,0,1,.2-0.55c0.24-.25.93-0.66,2.85-0.66H55.17a6.4,6.4,0,0,1,4.46,1.8v0.1l0.15,0.16a6.46,6.46,0,0,1,1.75,4.42v11.37H57.41a5.52,5.52,0,0,0-5.51,5.51v0.87c0,4.05,1.95,11.45,3.36,15.23a4.8,4.8,0,0,0,4.48,3.12h0.15l0.1,0.26c0.1,0.26.2,0.52,0.3,0.77l0.65,1.56a3.39,3.39,0,0,0,.52.86l-4.61,4.09H54.36l-6.61-36a4.77,4.77,0,0,0-2.66-4.21,10.62,10.62,0,0,0-2.5-.78c-1.54-.33-2.31-0.56-2.6-1.85Z"/><rect class="cls-2" x="54.45" y="207.88" width="1.96" height="3.29"/><polygon class="cls-2" points="57.47 212.23 61.14 212.23 61.14 213.73 50.02 213.73 50.02 212.23 53.39 212.23 57.47 212.23"/><path class="cls-2" d="M62.18,198.21H59.73a3.73,3.73,0,0,1-3.48-2.43C54.87,192.08,53,184.85,53,180.93v-0.87a4.46,4.46,0,0,1,4.45-4.45h8.31a5,5,0,0,1,3.12,1.11L71,178.45a6,6,0,0,0,3.79,1.34H91.34l3.38,18.42H62.18Z"/><path class="cls-2" d="M95,199.88l0.65,3.52H65.56a4.22,4.22,0,0,1-3.38-1.46v-2.06H95Z"/><path class="cls-2" d="M61.25,199.88h0.92v2.06a2.27,2.27,0,0,1-.27-0.47l-0.65-1.56v0Z"/><path class="cls-4" d="M107.84,163.17h3.89a7.49,7.49,0,0,1,4.71,1.67l2.68,2.17a6.17,6.17,0,0,0,3.88,1.37h42a6.17,6.17,0,0,0,3.88-1.37l2.68-2.17a7.49,7.49,0,0,1,4.71-1.67H180V149a9.34,9.34,0,0,1,2.48-6.34,358.05,358.05,0,0,1,.24-41.1c0.49-7.68,1.24-15.47,2.23-23.14a7.66,7.66,0,0,0-6.1-8.5c-2.72-.48-5.48-0.92-8.21-1.3l-0.94,11.69A12.11,12.11,0,0,1,158,91.46h0l-28,0A12.11,12.11,0,0,1,118.28,80.3l-0.94-11.67c-2.73.38-5.49,0.81-8.21,1.3a7.66,7.66,0,0,0-6.1,8.49c1,7.69,1.74,15.47,2.23,23.15a358.15,358.15,0,0,1,.24,41.26l0.21,0.26,0.24,0.3,0.28,0.39,0.21,0.32c0.09,0.14.16,0.28,0.24,0.42l0.18,0.33c0.07,0.15.14,0.3,0.2,0.45s0.1,0.22.14,0.33,0.11,0.32.17,0.49,0.07,0.21.11,0.32,0.09,0.36.13,0.54,0,0.19.07,0.29,0.07,0.43.09,0.65,0,0.14,0,.21c0,0.29,0,.58,0,0.88v14.14Zm58.07-33.71q0-1.07,0-2.14l1.32,0q0,1.06,0,2.13c0,1.15,0,2.3,0,3.43l-1.32,0C165.91,131.77,165.9,130.61,165.9,129.46Zm0.17-7.74c0.08-1.86.19-3.74,0.33-5.59l1.31,0.1c-0.14,1.84-.24,3.7-0.32,5.55Zm0.06,16.79,1.32-.07c0.09,1.85.22,3.71,0.37,5.54l-1.31.11C166.35,142.25,166.22,140.37,166.13,138.51ZM167,149.66l1.31-.15c0.21,1.83.45,3.68,0.71,5.51l-1.3.19C167.49,153.37,167.25,151.5,167,149.66Zm1.71,11.67-0.11-.6,1.3-.23,0.11,0.59ZM169.4,94l1.29,0.26c-0.36,1.8-.69,3.64-1,5.47l-1.3-.22C168.71,97.62,169,95.77,169.4,94Zm-1.84,11,1.31,0.18c-0.25,1.83-.47,3.68-0.66,5.52l-1.31-.14C167.08,108.71,167.31,106.84,167.56,105Zm-3,7.67,2.79,0.25-0.12,1.31-2.77-.25Zm-2.68,17.73,2.79,0.25L164.52,132l-2.77-.24Zm0,18,2.79,0.25L164.52,150l-2.77-.24ZM153.45,112c1.84,0.06,3.7.15,5.55,0.26l-0.08,1.32c-1.83-.11-3.69-0.2-5.52-0.26Zm-1.81,17.78c1.7,0.06,3.42.14,5.11,0.24l-0.08,1.32c-1.68-.1-3.39-0.18-5.08-0.24Zm0,18c1.69,0.06,3.41.14,5.11,0.24l-0.08,1.32c-1.69-.1-3.4-0.18-5.08-0.24Zm-3.74-35.94,0,1.32q-2.76,0-5.52,0l0-1.32Q145.13,111.85,147.9,111.89Zm-1.37,17.8,0,1.32q-2.54,0-5.09,0l0-1.32Q144,129.65,146.53,129.68Zm0,18,0,1.32q-2.54,0-5.09,0l0-1.32Q144,147.67,146.53,147.7ZM136.8,112l0,1.32c-1.82.06-3.68,0.15-5.51,0.26l-0.08-1.32C133.1,112.17,135,112.08,136.8,112Zm-0.5,17.78,0,1.32c-1.68.06-3.39,0.14-5.08,0.24L131.19,130C132.89,129.94,134.61,129.86,136.3,129.8Zm0,18,0,1.32c-1.69.06-3.4,0.14-5.08,0.24l-0.08-1.32C132.88,148,134.6,147.88,136.3,147.82Zm-16,14.05v-1.32a0.22,0.22,0,0,0-.11,0,1.37,1.37,0,0,0,.31-0.53l1.22,0.5A1.81,1.81,0,0,1,120.28,161.88Zm2.54-7-1.31-.15c0.18-1.57.35-3.43,0.48-5.53l1.31,0.09C123.17,151.45,123,153.33,122.82,154.92Zm-0.47-33.51c0-1.91-.11-3.78-0.19-5.57l1.32-.05c0.07,1.79.14,3.67,0.19,5.59Zm0.07,16.71,1.32,0c0,1.93-.09,3.82-0.15,5.59l-1.32,0C122.34,141.92,122.39,140,122.42,138.12Zm1,11.86-0.12-1.31,2.79-.25,0.11,1.31Zm2.77-18.27-2.39.21v0.63h-1.32v-1.11c0-1.48,0-3,0-4.47h1.32c0,1.21,0,2.42,0,3.63l2.29-.2ZM125.82,114l-2.77.25-0.12-1.31,2.79-.25Zm-2.62-3.79-1.31.08c-0.12-2-.27-3.87-0.42-5.55l1.31-.12C122.93,106.3,123.07,108.18,123.2,110.2Zm-3.57-15.45V93.43c0.95,0,1.73,1,2.47,5.6l-1.3.21c-0.63-4-1.21-4.47-1.28-4.52A0.21,0.21,0,0,0,119.63,94.74Z"/><path class="cls-5" d="M159.65,56h-0.06c-0.05,0-5.32-1-16.3-1s-15,.9-15,0.91h-0.08a10.73,10.73,0,0,0-9.64,11.6l0,0.29,1,12.39A10.79,10.79,0,0,0,130,90.12l28,0a10.79,10.79,0,0,0,10.37-9.92l1-12.42,0-.21A10.85,10.85,0,0,0,159.65,56Z"/><rect class="cls-2" x="187.79" y="204.61" width="2.43" height="4.09"/><polygon class="cls-2" points="181.91 211.89 195.73 211.89 195.73 210.02 191.54 210.02 186.47 210.02 181.91 210.02 181.91 211.89"/><rect class="cls-2" x="97.57" y="204.61" width="2.43" height="4.09"/><polygon class="cls-2" points="92.06 211.89 105.88 211.89 105.88 210.02 101.32 210.02 96.25 210.02 92.06 210.02 92.06 211.89"/><path class="cls-5" d="M186.54,164.48H176.21a6.17,6.17,0,0,0-3.88,1.37L169.66,168A7.49,7.49,0,0,1,165,169.7H123a7.5,7.5,0,0,1-4.19-1.29q-0.26-.18-0.51-0.38l-2.68-2.17a6.18,6.18,0,0,0-3.88-1.37H101.4A5.54,5.54,0,0,0,95.87,170v1.09c0,4.88,2.37,13.87,4.09,18.47a4.64,4.64,0,0,0,4.33,3h79.37a4.64,4.64,0,0,0,4.33-3c1.71-4.61,4.09-13.59,4.09-18.47V170A5.54,5.54,0,0,0,186.54,164.48Z"/><path class="cls-2" d="M180.62,194.66H106.18v0l0.8,1.94a2.75,2.75,0,0,0,.18.35,5.07,5.07,0,0,0,4.35,2h64.89a5.24,5.24,0,0,0,4.2-1.82,2.82,2.82,0,0,0,.33-0.58l0.8-1.94v0h-1.15Z"/><path class="cls-4" d="M189.33,141a8,8,0,0,0-5.55,2.23v0.12l-0.19.2a8.05,8.05,0,0,0-2.17,5.5v14.14h5.12a6.85,6.85,0,0,1,6.85,6.85v1.09c0,5-2.42,14.23-4.17,18.93a6,6,0,0,1-5.56,3.88h-0.19l-0.12.33c-0.12.32-.25,0.64-0.38,1l-0.8,1.94a4.22,4.22,0,0,1-.65,1.07l5.74,5.08h3.08l8.22-44.8a5.93,5.93,0,0,1,3.31-5.23,13.72,13.72,0,0,1,2.16-.73,1.92,1.92,0,0,0,1.42-1.86v-6.5A3.16,3.16,0,0,0,202.3,141Z"/><path class="cls-4" d="M98.62,141a8,8,0,0,1,5.55,2.23v0.12l0.19,0.2a8.05,8.05,0,0,1,2.17,5.5v14.14H101.4A6.85,6.85,0,0,0,94.55,170v1.09c0,5,2.42,14.23,4.17,18.93a6,6,0,0,0,5.56,3.88h0.19l0.12,0.33c0.12,0.32.25,0.64,0.38,1l0.8,1.94a4.22,4.22,0,0,0,.65,1.07l-5.74,5.08H97.61l-8.22-44.8a5.93,5.93,0,0,0-3.31-5.23,16.3,16.3,0,0,0-2.67-.86,1.21,1.21,0,0,1-.91-1.17v-7.06A3.16,3.16,0,0,1,85.64,141Z"/></svg>