<svg width="56" height="47" viewBox="0 0 56 47" fill="none" xmlns="http://www.w3.org/2000/svg">
<path d="M1.58069 21.6471C7.20732 18.5172 13.4882 15.905 19.3567 13.2794C29.4529 8.97896 39.5892 4.75299 49.8277 0.81867C51.8198 0.1483 55.399 -0.507286 55.75 2.47394C55.5579 6.69382 54.7673 10.889 54.225 15.0842C52.8486 24.3098 51.2579 33.5038 49.7066 42.699C49.1721 45.7618 45.3727 47.3474 42.9416 45.3873C37.0991 41.402 31.2117 37.4555 25.4439 33.3778C23.5545 31.439 25.3065 28.6548 26.9939 27.2703C31.806 22.4813 36.9092 18.4125 41.4697 13.3761C42.6999 10.376 39.0651 12.9044 37.8662 13.679C31.2785 18.2635 24.852 23.1278 17.9065 27.1569C14.3588 29.1291 10.2238 27.4437 6.67767 26.3432C3.49808 25.0138 -1.16117 23.6744 1.58037 21.6473L1.58069 21.6471Z" fill="white"/>
</svg>
