<svg width="56" height="56" viewBox="0 0 56 56" fill="none" xmlns="http://www.w3.org/2000/svg">
<path fill-rule="evenodd" clip-rule="evenodd" d="M47 8.65625C41.8438 3.5 34.9688 0.75 27.75 0.75C12.625 0.75 0.25 13.125 0.25 28.25C0.25 33.0625 1.62502 37.875 4.03127 42L0.25 55.75L14.6875 51.9688C18.8125 54.0312 23.2812 55.4062 27.75 55.4062C42.875 55.4062 55.25 43.0312 55.25 27.9062C55.25 20.6875 52.1563 13.8125 47 8.65625ZM27.75 50.9375C23.625 50.9375 19.5 49.9063 16.0625 47.8438L15.375 47.5L6.78123 49.9062L9.18752 41.6562L8.49998 40.625C6.09373 36.8438 5.06248 32.7188 5.06248 28.5938C5.06248 16.2188 15.375 5.90625 27.75 5.90625C33.9375 5.90625 39.4375 8.3125 43.9063 12.4375C48.375 16.9062 50.4375 22.4063 50.4375 28.5938C50.4375 40.625 40.4688 50.9375 27.75 50.9375ZM40.125 33.75C39.4375 33.4062 36 31.6875 35.3125 31.6875C34.625 31.3438 34.2812 31.3438 33.9375 32.0313C33.5937 32.7188 32.2188 34.0938 31.875 34.7812C31.5313 35.125 31.1875 35.125 30.5 35.125C29.8125 34.7812 27.75 34.0938 25 31.6875C22.9375 29.9688 21.5625 27.5625 21.2188 26.875C20.875 26.1875 21.2188 25.8438 21.5625 25.5C21.9063 25.1562 22.25 24.8125 22.5938 24.4687C22.9375 24.125 22.9375 23.7813 23.2813 23.4375C23.625 23.0938 23.2813 22.75 23.2813 22.4062C23.2813 22.0625 21.9063 18.625 21.2188 17.25C20.875 16.2188 20.1875 16.2188 19.8438 16.2188C19.5 16.2188 19.1562 16.2188 18.4687 16.2188C18.125 16.2188 17.4375 16.2187 16.75 16.9062C16.0625 17.5938 14.3438 19.3125 14.3438 22.75C14.3438 26.1875 16.75 29.2812 17.0937 29.9688C17.4375 30.3125 21.9062 37.5312 28.7812 40.2812C34.625 42.6875 35.6563 42 37.0313 42C38.4063 42 41.1562 40.2812 41.5 38.9062C42.1875 37.1875 42.1875 35.8125 41.8438 35.8125C41.5 34.0938 40.8125 34.0938 40.125 33.75Z" fill="white"/>
</svg>
