<svg xmlns="http://www.w3.org/2000/svg" viewBox="0 0 523.13 520.2"><defs><style>.a{fill:#fb3d19;}.b{fill:#ffd600;}.c{fill:#00b43a;}.d{fill:#00922e;}.e{fill:#007fea;}.f{fill:#ff4a1e;}</style></defs><title>Ресурс 7</title><path class="a" d="M438,82c-3,9-50.53,51.36-58,58-6.5,5.78-15-2-24.85-8.4-4.28-2.78-8.23-6-12.71-8.48C329,115.79,303,104,284,102a201.57,201.57,0,0,0-22.5-1.14V0c8.6.23,70.55,2.61,110.5,24,44,23.55,66.7,45.94,66.7,45.94S441,73,438,82Z"/><path class="b" d="M124.83,339.3,35.57,391.23A260.07,260.07,0,0,1,19.83,160.34c.23-.57.47-1.14.71-1.71A255.91,255.91,0,0,1,34.87,130l89.63,51c-8,15.7-19.54,46.94-20.5,71-1,25,8,67,20,86Z"/><path class="c" d="M264.37,520.16c-2.52-.06-3.87-.16-3.87-.16A260.48,260.48,0,0,1,35.9,391.79l-.33-.56,89.26-51.93c8.14,13,23.31,37.37,56.17,56.7,28.91,17,54.5,24,73.5,23,2.71-.14,5.76-.31,9.06-.52Z"/><path class="d" d="M391.48,486.09c-57.89,33.18-112.41,34.42-127.11,34.07l-.81-101.68c19.87-1.31,49.15-4.62,71.44-17.48,1.74-1,3.58-2.11,5.5-3.33Z"/><path class="e" d="M521.62,295.32c-.53,4.46-1.23,9-2.12,13.68-9,47-32,112-107,165q-10.28,7.26-20.52,13.09l-51-88.42c16.6-10.46,38.94-28.36,52.5-49.67,14-22,18.4-32.78,17-32,0,0-113,0-123-1s-13-16-13-16V228a13.67,13.67,0,0,1,13-12c12-1,219-1,219-1s9.84,2.24,11.42,7.62C517.92,222.62,526.51,254.6,521.62,295.32Z"/><path class="f" d="M261.5,0V100.86C241,101,216.7,104.65,192,117c-34,17-57.5,45-65.5,60-.3.56-1.69,3.39-2,4L34.87,130A260.45,260.45,0,0,1,260.5,0Z"/></svg>