<svg width="751" height="117" viewBox="0 0 751 117" fill="none" xmlns="http://www.w3.org/2000/svg">
<path d="M703.626 47.9776C702.057 47.9776 699.648 44.8479 696.783 47.9776C694.555 49.2663 697.988 50.2789 699.579 50.7085C706.559 52.5955 742.549 54.4058 743.526 56.4922C744.686 67.4616 723.565 65.4672 711.583 66.403L721.86 72.5397C723.929 69.3947 723.997 68.9191 729.771 69.4714L725.27 73.2914L734.478 79.4435L729.408 89.1241L672.957 87.8814L696.828 90.9191L716.13 90.9498C716.54 93.1743 710.151 93.7113 707.991 93.8648C685.802 95.3836 657.861 89.0627 635.467 87.8507C630.169 93.297 645.174 90.3514 645.652 93.9874C627.941 95.3068 606.843 90.2288 589.769 90.7811C582.471 91.0265 584.722 93.6499 582.721 93.9721C564.101 96.9637 530.181 89.7378 510.106 88.0655C493.6 86.6848 474.957 87.9428 458.406 84.6903L454.814 90.0293L461.498 93.9874C409.344 90.9651 357.395 83.0334 304.627 84.7977L304.627 89.3849C341.73 92.9749 379.675 92.8368 416.892 95.721C470.206 99.848 522.837 108.439 576.356 112.382C590.656 113.441 605.411 113.226 619.552 115.45L654.769 115.481L646.857 117C568.307 116.647 490.735 106.476 412.641 101.674C361.35 98.5286 309.446 97.6694 258.088 95.5062C217.983 93.8186 177.697 91.456 137.615 89.3695L129.612 93.972C172.4 94.1561 213.573 103.315 255.815 106.245C281.937 108.056 309.174 108.455 335.478 107.872C343.276 107.703 349.937 106.246 358.054 106.215C360.691 106.215 366.625 105.202 366.057 107.78C334.773 109.774 303.308 112.167 271.729 110.848C251.654 110.02 137.342 95.675 129.953 98.8354C128.112 99.6179 128.93 105.923 121.655 106.307L43.2193 101.658C51.654 91.8702 33.4433 87.9121 32.1474 82.2203C31.579 79.735 37.6719 78.5843 36.376 75.5927L17.4605 74.0739L15.869 70.2231L29.5328 66.2956C25.4632 59.8367 29.2372 59.9288 36.3533 56.4155L22.7123 55.6484C20.7571 41.5033 40.4684 48.5759 50.9037 46.2439C54.7687 45.3848 54.1775 41.8562 54.564 41.8562L86.3931 41.8562C87.6208 38.1589 85.4382 39.3709 83.4148 38.4351C67.1365 30.8562 71.6154 35.1366 55.7691 34.2161C37.763 33.1728 21.8029 28.9845 4.547 28.0333L6.63855 23.5689L-8.90743e-07 20.3778L120.496 21.8813C117.563 16.5884 92.668 19.7488 90.9628 14.9775C89.2577 10.2062 104.104 11.4182 104.581 8.08906L67.0684 8.08906C63.7036 8.08906 52.2224 1.64554 45.4928 2.71946C56.542 -2.84959 73.2751 1.8296 85.1655 2.0137C213.596 3.85472 346.641 7.36801 473.752 20.5466C483.074 21.5131 491.94 24.1519 501.353 24.965C503.194 25.1184 509.56 25.502 505.831 23.4462L497.965 21.1296L505.945 17.3248C520.223 18.6135 534.75 18.184 549.051 18.8437C597.886 21.0835 646.334 26.7446 694.282 31.3011C701.262 31.9608 748.369 37.3611 750.188 38.8492C753.28 41.3653 746.868 47.993 742.321 47.993C729.43 47.9929 716.562 48.0236 703.672 47.9929L703.626 47.9776Z" fill="black"/>
</svg>
