<svg width="74" height="75" viewBox="0 0 74 75" fill="none" xmlns="http://www.w3.org/2000/svg">
<g filter="url(#filter0_d_18_1713)">
<path d="M16.801 28.0236C16.801 16.8681 25.8555 7.82471 37.0111 7.82471C48.1666 7.82471 57.2212 16.8681 57.2212 28.0236C57.2212 39.1792 48.1666 48.2225 37.0111 48.2225C25.8555 48.2225 16.801 39.1792 16.801 28.0236Z" fill="url(#paint0_linear_18_1713)"/>
<path d="M18.801 28.0236C18.801 17.9741 26.9587 9.82471 37.0111 9.82471C47.0635 9.82471 55.2212 17.9741 55.2212 28.0236C55.2212 38.0732 47.0635 46.2225 37.0111 46.2225C26.9587 46.2225 18.801 38.0732 18.801 28.0236Z" stroke="url(#paint1_linear_18_1713)" stroke-opacity="0.5" stroke-width="4"/>
<path d="M21.5217 28.2718C21.5217 19.5852 28.5724 12.5432 37.259 12.5432C45.9457 12.5432 52.9963 19.5852 52.9963 28.2718C52.9963 36.9585 45.9457 44.0004 37.259 44.0004C28.5724 44.0004 21.5217 36.9585 21.5217 28.2718Z" fill="url(#paint2_linear_18_1713)"/>
<path d="M32 38H29C28.4696 38 27.9609 37.7893 27.5858 37.4142C27.2107 37.0391 27 36.5304 27 36V29C27 28.4696 27.2107 27.9609 27.5858 27.5858C27.9609 27.2107 28.4696 27 29 27H32M39 25V21C39 20.2044 38.6839 19.4413 38.1213 18.8787C37.5587 18.3161 36.7956 18 36 18L32 27V38H43.28C43.7623 38.0055 44.2304 37.8364 44.5979 37.524C44.9654 37.2116 45.2077 36.7769 45.28 36.3L46.66 27.3C46.7035 27.0134 46.6842 26.7207 46.6033 26.4423C46.5225 26.1638 46.3821 25.9063 46.1919 25.6875C46.0016 25.4687 45.7661 25.2939 45.5016 25.1752C45.2371 25.0565 44.9499 24.9967 44.66 25H39Z" stroke="white" stroke-width="2" stroke-linecap="round" stroke-linejoin="round"/>
</g>
<path d="M65 28C65 43.464 52.464 56 37 56C21.536 56 9 43.464 9 28C9 12.536 21.536 0 37 0C52.464 0 65 12.536 65 28ZM14.6 28C14.6 40.3712 24.6288 50.4 37 50.4C49.3712 50.4 59.4 40.3712 59.4 28C59.4 15.6288 49.3712 5.6 37 5.6C24.6288 5.6 14.6 15.6288 14.6 28Z" fill="url(#paint3_linear_18_1713)" fill-opacity="0.1"/>
<path d="M37 2.8C37 2.75725 37 2.86413 37.0004 2.83938C37.0271 1.36218 38.4926 0.0364214 39.9651 0.157341C39.9897 0.159367 39.6659 0.126877 39.7954 0.139873C44.3456 0.596412 48.73 2.16245 52.556 4.71885C57.1605 7.79553 60.7494 12.1685 62.8686 17.2849C64.9879 22.4012 65.5424 28.0311 64.462 33.4625C63.3816 38.894 60.7149 43.8831 56.799 47.799C52.8831 51.7149 47.894 54.3816 42.4625 55.462C37.0311 56.5424 31.4012 55.9879 26.2849 53.8686C21.1685 51.7494 16.7955 48.1605 13.7189 43.556C11.1624 39.73 9.59641 35.3456 9.13987 30.7954C9.12688 30.6659 9.15937 30.9897 9.15734 30.9651C9.03642 29.4926 10.3622 28.0271 11.8394 28.0004C11.8641 28 11.7572 28 11.8 28C11.9516 28 12.0274 28 12.0488 28.0003C13.526 28.0234 14.5125 28.8937 14.7196 30.3566C14.7226 30.3778 14.74 30.5161 14.7748 30.7928C15.2071 34.2335 16.4344 37.5403 18.3751 40.4448C20.8364 44.1284 24.3348 46.9995 28.4279 48.6949C32.521 50.3903 37.0248 50.8339 41.37 49.9696C45.7152 49.1053 49.7065 46.9719 52.8392 43.8392C55.9719 40.7065 58.1053 36.7152 58.9696 32.37C59.8339 28.0248 59.3903 23.521 57.6949 19.4279C55.9995 15.3348 53.1284 11.8364 49.4448 9.37508C46.5403 7.43437 43.2335 6.20712 39.7928 5.77476C39.5161 5.74 39.3778 5.72262 39.3566 5.71961C37.8937 5.51252 37.0234 4.52603 37.0003 3.04877C37 3.02735 37 2.95157 37 2.8Z" fill="url(#paint4_linear_18_1713)" fill-opacity="0.5"/>
<defs>
<filter id="filter0_d_18_1713" x="0.777832" y="2.44425" width="72.4445" height="72.4448" filterUnits="userSpaceOnUse" color-interpolation-filters="sRGB">
<feFlood flood-opacity="0" result="BackgroundImageFix"/>
<feColorMatrix in="SourceAlpha" type="matrix" values="0 0 0 0 0 0 0 0 0 0 0 0 0 0 0 0 0 0 127 0" result="hardAlpha"/>
<feOffset dy="10.6667"/>
<feGaussianBlur stdDeviation="8"/>
<feComposite in2="hardAlpha" operator="out"/>
<feColorMatrix type="matrix" values="0 0 0 0 0.917647 0 0 0 0 0.690196 0 0 0 0 0.12549 0 0 0 0.4 0"/>
<feBlend mode="normal" in2="BackgroundImageFix" result="effect1_dropShadow_18_1713"/>
<feBlend mode="normal" in="SourceGraphic" in2="effect1_dropShadow_18_1713" result="shape"/>
</filter>
<linearGradient id="paint0_linear_18_1713" x1="23.8982" y1="11.6078" x2="46.051" y2="46.5447" gradientUnits="userSpaceOnUse">
<stop stop-color="#FFE092"/>
<stop offset="1" stop-color="#E3A302"/>
</linearGradient>
<linearGradient id="paint1_linear_18_1713" x1="42.8269" y1="48.2225" x2="30.0914" y2="12.2866" gradientUnits="userSpaceOnUse">
<stop stop-color="#F3B14E"/>
<stop offset="1" stop-color="#FFCE51"/>
</linearGradient>
<linearGradient id="paint2_linear_18_1713" x1="27.0482" y1="15.489" x2="44.2983" y2="42.6939" gradientUnits="userSpaceOnUse">
<stop stop-color="#FFE092"/>
<stop offset="1" stop-color="#E3A302"/>
</linearGradient>
<linearGradient id="paint3_linear_18_1713" x1="18.8328" y1="5.24415" x2="49.5485" y2="53.6589" gradientUnits="userSpaceOnUse">
<stop stop-color="#FDCF5C"/>
<stop offset="1" stop-color="#ECAF17"/>
</linearGradient>
<linearGradient id="paint4_linear_18_1713" x1="45.0576" y1="56" x2="27.3958" y2="6.1913" gradientUnits="userSpaceOnUse">
<stop stop-color="#F3B14E"/>
<stop offset="1" stop-color="#FFCE51"/>
</linearGradient>
</defs>
</svg>
