<svg width="74" height="75" viewBox="0 0 74 75" fill="none" xmlns="http://www.w3.org/2000/svg">
<g filter="url(#filter0_d_18_1628)">
<path d="M16.801 28.0236C16.801 16.8681 25.8555 7.82471 37.0111 7.82471C48.1666 7.82471 57.2212 16.8681 57.2212 28.0236C57.2212 39.1792 48.1666 48.2225 37.0111 48.2225C25.8555 48.2225 16.801 39.1792 16.801 28.0236Z" fill="url(#paint0_linear_18_1628)"/>
<path d="M18.801 28.0236C18.801 17.9741 26.9587 9.82471 37.0111 9.82471C47.0635 9.82471 55.2212 17.9741 55.2212 28.0236C55.2212 38.0732 47.0635 46.2225 37.0111 46.2225C26.9587 46.2225 18.801 38.0732 18.801 28.0236Z" stroke="url(#paint1_linear_18_1628)" stroke-opacity="0.5" stroke-width="4"/>
<path d="M21.5217 28.2718C21.5217 19.5852 28.5724 12.5432 37.259 12.5432C45.9457 12.5432 52.9963 19.5852 52.9963 28.2718C52.9963 36.9585 45.9457 44.0004 37.259 44.0004C28.5724 44.0004 21.5217 36.9585 21.5217 28.2718Z" fill="url(#paint2_linear_18_1628)"/>
<path d="M28.71 32.29C28.6149 32.199 28.5027 32.1276 28.38 32.08C28.1365 31.98 27.8634 31.98 27.62 32.08C27.4972 32.1276 27.3851 32.199 27.29 32.29C27.1989 32.3851 27.1276 32.4972 27.08 32.62C27.0034 32.8021 26.9825 33.0028 27.0199 33.1968C27.0572 33.3908 27.1512 33.5694 27.29 33.71C27.3872 33.7983 27.4988 33.8694 27.62 33.92C27.7397 33.9729 27.8691 34.0002 28 34.0002C28.1309 34.0002 28.2603 33.9729 28.38 33.92C28.5012 33.8694 28.6128 33.7983 28.71 33.71C28.8487 33.5694 28.9427 33.3908 28.9801 33.1968C29.0175 33.0028 28.9966 32.8021 28.92 32.62C28.8724 32.4972 28.801 32.3851 28.71 32.29ZM32 24H46C46.2652 24 46.5196 23.8946 46.7071 23.7071C46.8946 23.5196 47 23.2652 47 23C47 22.7348 46.8946 22.4804 46.7071 22.2929C46.5196 22.1054 46.2652 22 46 22H32C31.7348 22 31.4804 22.1054 31.2929 22.2929C31.1053 22.4804 31 22.7348 31 23C31 23.2652 31.1053 23.5196 31.2929 23.7071C31.4804 23.8946 31.7348 24 32 24ZM28.71 27.29C28.5694 27.1512 28.3908 27.0572 28.1968 27.0199C28.0028 26.9825 27.8021 27.0034 27.62 27.08C27.4988 27.1306 27.3872 27.2017 27.29 27.29C27.1989 27.3851 27.1276 27.4972 27.08 27.62C27.0271 27.7397 26.9998 27.8691 26.9998 28C26.9998 28.1309 27.0271 28.2603 27.08 28.38C27.1306 28.5012 27.2017 28.6128 27.29 28.71C27.3872 28.7983 27.4988 28.8694 27.62 28.92C27.7397 28.9729 27.8691 29.0002 28 29.0002C28.1309 29.0002 28.2603 28.9729 28.38 28.92C28.5012 28.8694 28.6128 28.7983 28.71 28.71C28.7983 28.6128 28.8693 28.5012 28.92 28.38C28.9729 28.2603 29.0002 28.1309 29.0002 28C29.0002 27.8691 28.9729 27.7397 28.92 27.62C28.8724 27.4972 28.801 27.3851 28.71 27.29ZM46 27H32C31.7348 27 31.4804 27.1054 31.2929 27.2929C31.1053 27.4804 31 27.7348 31 28C31 28.2652 31.1053 28.5196 31.2929 28.7071C31.4804 28.8946 31.7348 29 32 29H46C46.2652 29 46.5196 28.8946 46.7071 28.7071C46.8946 28.5196 47 28.2652 47 28C47 27.7348 46.8946 27.4804 46.7071 27.2929C46.5196 27.1054 46.2652 27 46 27ZM28.71 22.29C28.6149 22.199 28.5027 22.1276 28.38 22.08C28.1979 22.0034 27.9972 21.9825 27.8032 22.0199C27.6092 22.0572 27.4306 22.1512 27.29 22.29C27.2017 22.3872 27.1306 22.4988 27.08 22.62C27.0271 22.7397 26.9998 22.8691 26.9998 23C26.9998 23.1309 27.0271 23.2603 27.08 23.38C27.1306 23.5012 27.2017 23.6128 27.29 23.71C27.3872 23.7983 27.4988 23.8694 27.62 23.92C27.8021 23.9966 28.0028 24.0175 28.1968 23.9801C28.3908 23.9428 28.5694 23.8488 28.71 23.71C28.7983 23.6128 28.8693 23.5012 28.92 23.38C28.9729 23.2603 29.0002 23.1309 29.0002 23C29.0002 22.8691 28.9729 22.7397 28.92 22.62C28.8693 22.4988 28.7983 22.3872 28.71 22.29ZM46 32H32C31.7348 32 31.4804 32.1054 31.2929 32.2929C31.1053 32.4804 31 32.7348 31 33C31 33.2652 31.1053 33.5196 31.2929 33.7071C31.4804 33.8946 31.7348 34 32 34H46C46.2652 34 46.5196 33.8946 46.7071 33.7071C46.8946 33.5196 47 33.2652 47 33C47 32.7348 46.8946 32.4804 46.7071 32.2929C46.5196 32.1054 46.2652 32 46 32Z" fill="white"/>
</g>
<path d="M65 28C65 43.464 52.464 56 37 56C21.536 56 9 43.464 9 28C9 12.536 21.536 0 37 0C52.464 0 65 12.536 65 28ZM14.6 28C14.6 40.3712 24.6288 50.4 37 50.4C49.3712 50.4 59.4 40.3712 59.4 28C59.4 15.6288 49.3712 5.6 37 5.6C24.6288 5.6 14.6 15.6288 14.6 28Z" fill="url(#paint3_linear_18_1628)" fill-opacity="0.1"/>
<path d="M37 2.8C37 2.75725 37 2.86413 37.0004 2.83938C37.0271 1.36218 38.4926 0.0364214 39.9651 0.157341C39.9897 0.159367 39.6659 0.126877 39.7954 0.139873C44.3456 0.596412 48.73 2.16245 52.556 4.71885C57.1605 7.79553 60.7494 12.1685 62.8686 17.2849C64.9879 22.4012 65.5424 28.0311 64.462 33.4625C63.3816 38.894 60.7149 43.8831 56.799 47.799C52.8831 51.7149 47.894 54.3816 42.4625 55.462C37.0311 56.5424 31.4012 55.9879 26.2849 53.8686C21.1685 51.7494 16.7955 48.1605 13.7189 43.556C11.1624 39.73 9.59641 35.3456 9.13987 30.7954C9.12688 30.6659 9.15937 30.9897 9.15734 30.9651C9.03642 29.4926 10.3622 28.0271 11.8394 28.0004C11.8641 28 11.7572 28 11.8 28C11.9516 28 12.0274 28 12.0488 28.0003C13.526 28.0234 14.5125 28.8937 14.7196 30.3566C14.7226 30.3778 14.74 30.5161 14.7748 30.7928C15.2071 34.2335 16.4344 37.5403 18.3751 40.4448C20.8364 44.1284 24.3348 46.9995 28.4279 48.6949C32.521 50.3903 37.0248 50.8339 41.37 49.9696C45.7152 49.1053 49.7065 46.9719 52.8392 43.8392C55.9719 40.7065 58.1053 36.7152 58.9696 32.37C59.8339 28.0248 59.3903 23.521 57.6949 19.4279C55.9995 15.3348 53.1284 11.8364 49.4448 9.37508C46.5403 7.43437 43.2335 6.20712 39.7928 5.77476C39.5161 5.74 39.3778 5.72262 39.3566 5.71961C37.8937 5.51252 37.0234 4.52603 37.0003 3.04877C37 3.02735 37 2.95157 37 2.8Z" fill="url(#paint4_linear_18_1628)" fill-opacity="0.5"/>
<defs>
<filter id="filter0_d_18_1628" x="0.777832" y="2.44425" width="72.4445" height="72.4448" filterUnits="userSpaceOnUse" color-interpolation-filters="sRGB">
<feFlood flood-opacity="0" result="BackgroundImageFix"/>
<feColorMatrix in="SourceAlpha" type="matrix" values="0 0 0 0 0 0 0 0 0 0 0 0 0 0 0 0 0 0 127 0" result="hardAlpha"/>
<feOffset dy="10.6667"/>
<feGaussianBlur stdDeviation="8"/>
<feComposite in2="hardAlpha" operator="out"/>
<feColorMatrix type="matrix" values="0 0 0 0 0.917647 0 0 0 0 0.690196 0 0 0 0 0.12549 0 0 0 0.4 0"/>
<feBlend mode="normal" in2="BackgroundImageFix" result="effect1_dropShadow_18_1628"/>
<feBlend mode="normal" in="SourceGraphic" in2="effect1_dropShadow_18_1628" result="shape"/>
</filter>
<linearGradient id="paint0_linear_18_1628" x1="23.8982" y1="11.6078" x2="46.051" y2="46.5447" gradientUnits="userSpaceOnUse">
<stop stop-color="#FFE092"/>
<stop offset="1" stop-color="#E3A302"/>
</linearGradient>
<linearGradient id="paint1_linear_18_1628" x1="42.8269" y1="48.2225" x2="30.0914" y2="12.2866" gradientUnits="userSpaceOnUse">
<stop stop-color="#F3B14E"/>
<stop offset="1" stop-color="#FFCE51"/>
</linearGradient>
<linearGradient id="paint2_linear_18_1628" x1="27.0482" y1="15.489" x2="44.2983" y2="42.6939" gradientUnits="userSpaceOnUse">
<stop stop-color="#FFE092"/>
<stop offset="1" stop-color="#E3A302"/>
</linearGradient>
<linearGradient id="paint3_linear_18_1628" x1="18.8328" y1="5.24415" x2="49.5485" y2="53.6589" gradientUnits="userSpaceOnUse">
<stop stop-color="#FDCF5C"/>
<stop offset="1" stop-color="#ECAF17"/>
</linearGradient>
<linearGradient id="paint4_linear_18_1628" x1="45.0576" y1="56" x2="27.3958" y2="6.1913" gradientUnits="userSpaceOnUse">
<stop stop-color="#F3B14E"/>
<stop offset="1" stop-color="#FFCE51"/>
</linearGradient>
</defs>
</svg>
