<svg width="74" height="75" viewBox="0 0 74 75" fill="none" xmlns="http://www.w3.org/2000/svg">
<g filter="url(#filter0_d_18_1676)">
<path d="M16.8009 28.0236C16.8009 16.8681 25.8554 7.82471 37.011 7.82471C48.1665 7.82471 57.221 16.8681 57.221 28.0236C57.221 39.1792 48.1665 48.2225 37.011 48.2225C25.8554 48.2225 16.8009 39.1792 16.8009 28.0236Z" fill="url(#paint0_linear_18_1676)"/>
<path d="M18.8009 28.0236C18.8009 17.9741 26.9586 9.82471 37.011 9.82471C47.0634 9.82471 55.221 17.9741 55.221 28.0236C55.221 38.0732 47.0634 46.2225 37.011 46.2225C26.9586 46.2225 18.8009 38.0732 18.8009 28.0236Z" stroke="url(#paint1_linear_18_1676)" stroke-opacity="0.5" stroke-width="4"/>
<path d="M21.5215 28.2718C21.5215 19.5852 28.5722 12.5432 37.2588 12.5432C45.9455 12.5432 52.9961 19.5852 52.9961 28.2718C52.9961 36.9585 45.9455 44.0004 37.2588 44.0004C28.5722 44.0004 21.5215 36.9585 21.5215 28.2718Z" fill="url(#paint2_linear_18_1676)"/>
<path d="M43 17H35C34.2044 17 33.4413 17.3161 32.8787 17.8787C32.3161 18.4413 32 19.2044 32 20H31C30.2044 20 29.4413 20.3161 28.8787 20.8787C28.3161 21.4413 28 22.2044 28 23V26C28 26.7956 28.3161 27.5587 28.8787 28.1213C29.4413 28.6839 30.2044 29 31 29H37C37.2652 29 37.5196 29.1054 37.7071 29.2929C37.8946 29.4804 38 29.7348 38 30V31C37.4696 31 36.9609 31.2107 36.5858 31.5858C36.2107 31.9609 36 32.4696 36 33V37C36 37.5304 36.2107 38.0391 36.5858 38.4142C36.9609 38.7893 37.4696 39 38 39H40C40.5304 39 41.0391 38.7893 41.4142 38.4142C41.7893 38.0391 42 37.5304 42 37V33C42 32.4696 41.7893 31.9609 41.4142 31.5858C41.0391 31.2107 40.5304 31 40 31V30C40 29.2044 39.6839 28.4413 39.1213 27.8787C38.5587 27.3161 37.7956 27 37 27H31C30.7348 27 30.4804 26.8946 30.2929 26.7071C30.1054 26.5196 30 26.2652 30 26V23C30 22.7348 30.1054 22.4804 30.2929 22.2929C30.4804 22.1054 30.7348 22 31 22H32C32 22.7956 32.3161 23.5587 32.8787 24.1213C33.4413 24.6839 34.2044 25 35 25H43C43.7956 25 44.5587 24.6839 45.1213 24.1213C45.6839 23.5587 46 22.7956 46 22V20C46 19.2044 45.6839 18.4413 45.1213 17.8787C44.5587 17.3161 43.7956 17 43 17ZM40 33V37H38V33H40ZM44 22C44 22.2652 43.8946 22.5196 43.7071 22.7071C43.5196 22.8946 43.2652 23 43 23H35C34.7348 23 34.4804 22.8946 34.2929 22.7071C34.1054 22.5196 34 22.2652 34 22V20C34 19.7348 34.1054 19.4804 34.2929 19.2929C34.4804 19.1054 34.7348 19 35 19H43C43.2652 19 43.5196 19.1054 43.7071 19.2929C43.8946 19.4804 44 19.7348 44 20V22Z" fill="white"/>
</g>
<path d="M65 28C65 43.464 52.464 56 37 56C21.536 56 9 43.464 9 28C9 12.536 21.536 0 37 0C52.464 0 65 12.536 65 28ZM14.6 28C14.6 40.3712 24.6288 50.4 37 50.4C49.3712 50.4 59.4 40.3712 59.4 28C59.4 15.6288 49.3712 5.6 37 5.6C24.6288 5.6 14.6 15.6288 14.6 28Z" fill="url(#paint3_linear_18_1676)" fill-opacity="0.1"/>
<path d="M37 2.8C37 2.75725 37 2.86413 37.0004 2.83938C37.0271 1.36218 38.4926 0.0364214 39.9651 0.157341C39.9897 0.159367 39.6659 0.126877 39.7954 0.139873C44.3456 0.596412 48.73 2.16245 52.556 4.71885C57.1605 7.79553 60.7494 12.1685 62.8686 17.2849C64.9879 22.4012 65.5424 28.0311 64.462 33.4625C63.3816 38.894 60.7149 43.8831 56.799 47.799C52.8831 51.7149 47.894 54.3816 42.4625 55.462C37.0311 56.5424 31.4012 55.9879 26.2849 53.8686C21.1685 51.7494 16.7955 48.1605 13.7189 43.556C11.1624 39.73 9.59641 35.3456 9.13987 30.7954C9.12688 30.6659 9.15937 30.9897 9.15734 30.9651C9.03642 29.4926 10.3622 28.0271 11.8394 28.0004C11.8641 28 11.7572 28 11.8 28C11.9516 28 12.0274 28 12.0488 28.0003C13.526 28.0234 14.5125 28.8937 14.7196 30.3566C14.7226 30.3778 14.74 30.5161 14.7748 30.7928C15.2071 34.2335 16.4344 37.5403 18.3751 40.4448C20.8364 44.1284 24.3348 46.9995 28.4279 48.6949C32.521 50.3903 37.0248 50.8339 41.37 49.9696C45.7152 49.1053 49.7065 46.9719 52.8392 43.8392C55.9719 40.7065 58.1053 36.7152 58.9696 32.37C59.8339 28.0248 59.3903 23.521 57.6949 19.4279C55.9995 15.3348 53.1284 11.8364 49.4448 9.37508C46.5403 7.43437 43.2335 6.20712 39.7928 5.77476C39.5161 5.74 39.3778 5.72262 39.3566 5.71961C37.8937 5.51252 37.0234 4.52603 37.0003 3.04877C37 3.02735 37 2.95157 37 2.8Z" fill="url(#paint4_linear_18_1676)" fill-opacity="0.5"/>
<defs>
<filter id="filter0_d_18_1676" x="0.777771" y="2.44425" width="72.4445" height="72.4448" filterUnits="userSpaceOnUse" color-interpolation-filters="sRGB">
<feFlood flood-opacity="0" result="BackgroundImageFix"/>
<feColorMatrix in="SourceAlpha" type="matrix" values="0 0 0 0 0 0 0 0 0 0 0 0 0 0 0 0 0 0 127 0" result="hardAlpha"/>
<feOffset dy="10.6667"/>
<feGaussianBlur stdDeviation="8"/>
<feComposite in2="hardAlpha" operator="out"/>
<feColorMatrix type="matrix" values="0 0 0 0 0.917647 0 0 0 0 0.690196 0 0 0 0 0.12549 0 0 0 0.4 0"/>
<feBlend mode="normal" in2="BackgroundImageFix" result="effect1_dropShadow_18_1676"/>
<feBlend mode="normal" in="SourceGraphic" in2="effect1_dropShadow_18_1676" result="shape"/>
</filter>
<linearGradient id="paint0_linear_18_1676" x1="23.8981" y1="11.6078" x2="46.0509" y2="46.5447" gradientUnits="userSpaceOnUse">
<stop stop-color="#FFE092"/>
<stop offset="1" stop-color="#E3A302"/>
</linearGradient>
<linearGradient id="paint1_linear_18_1676" x1="42.8268" y1="48.2225" x2="30.0913" y2="12.2866" gradientUnits="userSpaceOnUse">
<stop stop-color="#F3B14E"/>
<stop offset="1" stop-color="#FFCE51"/>
</linearGradient>
<linearGradient id="paint2_linear_18_1676" x1="27.048" y1="15.489" x2="44.2981" y2="42.6939" gradientUnits="userSpaceOnUse">
<stop stop-color="#FFE092"/>
<stop offset="1" stop-color="#E3A302"/>
</linearGradient>
<linearGradient id="paint3_linear_18_1676" x1="18.8328" y1="5.24415" x2="49.5485" y2="53.6589" gradientUnits="userSpaceOnUse">
<stop stop-color="#FDCF5C"/>
<stop offset="1" stop-color="#ECAF17"/>
</linearGradient>
<linearGradient id="paint4_linear_18_1676" x1="45.0576" y1="56" x2="27.3958" y2="6.1913" gradientUnits="userSpaceOnUse">
<stop stop-color="#F3B14E"/>
<stop offset="1" stop-color="#FFCE51"/>
</linearGradient>
</defs>
</svg>
