<svg width="24" height="20" viewBox="0 0 24 20" fill="none" xmlns="http://www.w3.org/2000/svg">
<path d="M11.9236 0.985254C11.2885 0.985254 10.7736 1.50013 10.7736 2.13525V18.1353C10.7736 18.7704 11.2885 19.2853 11.9236 19.2853H12.3483C12.9834 19.2853 13.4983 18.7704 13.4983 18.1353V2.13525C13.4983 1.50013 12.9834 0.985254 12.3483 0.985254H11.9236Z" fill="#6F6C90" stroke="#6F6C90" stroke-width="0.3" stroke-linecap="round"/>
<path d="M2.22485 8.98525C1.58973 8.98525 1.07485 9.50013 1.07485 10.1353C1.07485 10.7704 1.58973 11.2853 2.22485 11.2853H22.047C22.6822 11.2853 23.197 10.7704 23.197 10.1353C23.197 9.50013 22.6821 8.98525 22.047 8.98525H2.22485Z" fill="#6F6C90" stroke="#6F6C90" stroke-width="0.3" stroke-linecap="round"/>
</svg>
