<svg width="74" height="75" viewBox="0 0 74 75" fill="none" xmlns="http://www.w3.org/2000/svg">
<g filter="url(#filter0_d_18_1652)">
<path d="M16.801 28.0236C16.801 16.8681 25.8555 7.82471 37.011 7.82471C48.1666 7.82471 57.2211 16.8681 57.2211 28.0236C57.2211 39.1792 48.1666 48.2225 37.011 48.2225C25.8555 48.2225 16.801 39.1792 16.801 28.0236Z" fill="url(#paint0_linear_18_1652)"/>
<path d="M18.801 28.0236C18.801 17.9741 26.9586 9.82471 37.011 9.82471C47.0635 9.82471 55.2211 17.9741 55.2211 28.0236C55.2211 38.0732 47.0635 46.2225 37.011 46.2225C26.9586 46.2225 18.801 38.0732 18.801 28.0236Z" stroke="url(#paint1_linear_18_1652)" stroke-opacity="0.5" stroke-width="4"/>
<path d="M21.5216 28.2718C21.5216 19.5852 28.5722 12.5432 37.2589 12.5432C45.9456 12.5432 52.9962 19.5852 52.9962 28.2718C52.9962 36.9585 45.9456 44.0004 37.2589 44.0004C28.5722 44.0004 21.5216 36.9585 21.5216 28.2718Z" fill="url(#paint2_linear_18_1652)"/>
<path d="M32 22C31.8022 22 31.6089 22.0587 31.4444 22.1685C31.28 22.2784 31.1518 22.4346 31.0761 22.6173C31.0004 22.8001 30.9806 23.0011 31.0192 23.1951C31.0578 23.3891 31.153 23.5673 31.2929 23.7071C31.4327 23.847 31.6109 23.9422 31.8049 23.9808C31.9989 24.0194 32.1999 23.9996 32.3827 23.9239C32.5654 23.8482 32.7216 23.72 32.8315 23.5556C32.9413 23.3911 33 23.1978 33 23C33 22.7348 32.8946 22.4804 32.7071 22.2929C32.5196 22.1054 32.2652 22 32 22ZM46.71 27.78L37.23 18.32C37.1367 18.2195 37.0238 18.1392 36.8982 18.0841C36.7727 18.0291 36.6371 18.0005 36.5 18H30.5C30.3684 17.9993 30.2379 18.0245 30.1161 18.0742C29.9942 18.124 29.8834 18.1973 29.79 18.29L27.29 20.78C27.1973 20.8735 27.124 20.9843 27.0742 21.1061C27.0245 21.2279 26.9992 21.3584 27 21.49V27.49C27.0037 27.7548 27.1073 28.0084 27.29 28.2L36.78 37.7C36.9716 37.8828 37.2252 37.9863 37.49 37.99C37.6216 37.9908 37.7521 37.9656 37.8739 37.9158C37.9957 37.866 38.1065 37.7927 38.2 37.7L46.71 29.19C46.8027 29.0966 46.876 28.9858 46.9258 28.8639C46.9755 28.7421 47.0007 28.6116 47 28.48C46.9938 28.2187 46.8904 27.9691 46.71 27.78ZM37.49 35.59L29 27.09V21.9L30.9 20H36.08L44.58 28.49L37.49 35.59Z" fill="white"/>
</g>
<path d="M65 28C65 43.464 52.464 56 37 56C21.536 56 9 43.464 9 28C9 12.536 21.536 0 37 0C52.464 0 65 12.536 65 28ZM14.6 28C14.6 40.3712 24.6288 50.4 37 50.4C49.3712 50.4 59.4 40.3712 59.4 28C59.4 15.6288 49.3712 5.6 37 5.6C24.6288 5.6 14.6 15.6288 14.6 28Z" fill="url(#paint3_linear_18_1652)" fill-opacity="0.1"/>
<path d="M37 2.8C37 2.75725 37 2.86413 37.0004 2.83938C37.0271 1.36218 38.4926 0.0364214 39.9651 0.157341C39.9897 0.159367 39.6659 0.126877 39.7954 0.139873C44.3456 0.596412 48.73 2.16245 52.556 4.71885C57.1605 7.79553 60.7494 12.1685 62.8686 17.2849C64.9879 22.4012 65.5424 28.0311 64.462 33.4625C63.3816 38.894 60.7149 43.8831 56.799 47.799C52.8831 51.7149 47.894 54.3816 42.4625 55.462C37.0311 56.5424 31.4012 55.9879 26.2849 53.8686C21.1685 51.7494 16.7955 48.1605 13.7189 43.556C11.1624 39.73 9.59641 35.3456 9.13987 30.7954C9.12688 30.6659 9.15937 30.9897 9.15734 30.9651C9.03642 29.4926 10.3622 28.0271 11.8394 28.0004C11.8641 28 11.7572 28 11.8 28C11.9516 28 12.0274 28 12.0488 28.0003C13.526 28.0234 14.5125 28.8937 14.7196 30.3566C14.7226 30.3778 14.74 30.5161 14.7748 30.7928C15.2071 34.2335 16.4344 37.5403 18.3751 40.4448C20.8364 44.1284 24.3348 46.9995 28.4279 48.6949C32.521 50.3903 37.0248 50.8339 41.37 49.9696C45.7152 49.1053 49.7065 46.9719 52.8392 43.8392C55.9719 40.7065 58.1053 36.7152 58.9696 32.37C59.8339 28.0248 59.3903 23.521 57.6949 19.4279C55.9995 15.3348 53.1284 11.8364 49.4448 9.37508C46.5403 7.43437 43.2335 6.20712 39.7928 5.77476C39.5161 5.74 39.3778 5.72262 39.3566 5.71961C37.8937 5.51252 37.0234 4.52603 37.0003 3.04877C37 3.02735 37 2.95157 37 2.8Z" fill="url(#paint4_linear_18_1652)" fill-opacity="0.5"/>
<defs>
<filter id="filter0_d_18_1652" x="0.777802" y="2.44425" width="72.4445" height="72.4448" filterUnits="userSpaceOnUse" color-interpolation-filters="sRGB">
<feFlood flood-opacity="0" result="BackgroundImageFix"/>
<feColorMatrix in="SourceAlpha" type="matrix" values="0 0 0 0 0 0 0 0 0 0 0 0 0 0 0 0 0 0 127 0" result="hardAlpha"/>
<feOffset dy="10.6667"/>
<feGaussianBlur stdDeviation="8"/>
<feComposite in2="hardAlpha" operator="out"/>
<feColorMatrix type="matrix" values="0 0 0 0 0.917647 0 0 0 0 0.690196 0 0 0 0 0.12549 0 0 0 0.4 0"/>
<feBlend mode="normal" in2="BackgroundImageFix" result="effect1_dropShadow_18_1652"/>
<feBlend mode="normal" in="SourceGraphic" in2="effect1_dropShadow_18_1652" result="shape"/>
</filter>
<linearGradient id="paint0_linear_18_1652" x1="23.8981" y1="11.6078" x2="46.0509" y2="46.5447" gradientUnits="userSpaceOnUse">
<stop stop-color="#FFE092"/>
<stop offset="1" stop-color="#E3A302"/>
</linearGradient>
<linearGradient id="paint1_linear_18_1652" x1="42.8269" y1="48.2225" x2="30.0913" y2="12.2866" gradientUnits="userSpaceOnUse">
<stop stop-color="#F3B14E"/>
<stop offset="1" stop-color="#FFCE51"/>
</linearGradient>
<linearGradient id="paint2_linear_18_1652" x1="27.0481" y1="15.489" x2="44.2981" y2="42.6939" gradientUnits="userSpaceOnUse">
<stop stop-color="#FFE092"/>
<stop offset="1" stop-color="#E3A302"/>
</linearGradient>
<linearGradient id="paint3_linear_18_1652" x1="18.8328" y1="5.24415" x2="49.5485" y2="53.6589" gradientUnits="userSpaceOnUse">
<stop stop-color="#FDCF5C"/>
<stop offset="1" stop-color="#ECAF17"/>
</linearGradient>
<linearGradient id="paint4_linear_18_1652" x1="45.0576" y1="56" x2="27.3958" y2="6.1913" gradientUnits="userSpaceOnUse">
<stop stop-color="#F3B14E"/>
<stop offset="1" stop-color="#FFCE51"/>
</linearGradient>
</defs>
</svg>
