<svg width="16" height="16" viewBox="0 0 16 16" version="1.1" xmlns="http://www.w3.org/2000/svg" xmlns:xlink="http://www.w3.org/1999/xlink">
<title>Shape</title>
<desc>Created using Figma</desc>
<g id="Canvas" transform="translate(-2700 -4209)">
<g id="Shape">
<use xlink:href="#path0_fill" transform="translate(2700.09 4209.09)" fill="#212121"/>
</g>
</g>
<defs>
<path id="path0_fill" d="M 10.8958 7.9125L 15.2125 3.59583C 16.0292 2.77917 16.0292 1.44583 15.2125 0.6125C 14.3958 -0.204167 13.0625 -0.204167 12.2292 0.6125L 7.9125 4.92917L 3.59583 0.6125C 2.77917 -0.204167 1.44583 -0.204167 0.6125 0.6125C -0.204167 1.42917 -0.204167 2.7625 0.6125 3.59583L 4.92917 7.9125L 0.6125 12.2292C -0.204167 13.0458 -0.204167 14.3792 0.6125 15.2125C 1.02917 15.6292 1.5625 15.8292 2.09583 15.8292C 2.62917 15.8292 3.17917 15.6292 3.57917 15.2125L 7.89583 10.8958L 12.2125 15.2125C 12.6292 15.6292 13.1625 15.8292 13.6958 15.8292C 14.2292 15.8292 14.7792 15.6292 15.1792 15.2125C 15.9958 14.3958 15.9958 13.0625 15.1792 12.2292L 10.8958 7.9125Z"/>
</defs>
</svg>
