<svg width="174" height="210" viewBox="0 0 174 210" version="1.1" xmlns="http://www.w3.org/2000/svg" xmlns:xlink="http://www.w3.org/1999/xlink">
<title>Icon</title>
<desc>Created using Figma</desc>
<g id="Canvas" transform="translate(-1134 -2549)">
<g id="Icon" opacity="0.05">
<g id="Shape">
<use xlink:href="#path0_fill" transform="matrix(0.978148 0.207912 -0.207912 0.978148 1168.94 2544.23)"/>
</g>
<g id="Shape">
<use xlink:href="#path1_fill" transform="matrix(0.978148 0.207912 -0.207912 0.978148 1204.88 2579.23)"/>
</g>
<g id="Shape">
<use xlink:href="#path2_fill" transform="matrix(0.978148 0.207912 -0.207912 0.978148 1198.55 2609)"/>
</g>
<g id="Shape">
<use xlink:href="#path1_fill" transform="matrix(0.978148 0.207912 -0.207912 0.978148 1192.03 2639.68)"/>
</g>
<g id="Shape">
<use xlink:href="#path3_fill" transform="matrix(0.978148 0.207912 -0.207912 0.978148 1174.79 2658.66)"/>
</g>
</g>
</g>
<defs>
<path id="path0_fill" fill-rule="evenodd" d="M 154.892 64.2822C 154.84 64.071 154.768 63.8685 154.674 63.6723L 154.546 63.4335C 154.428 63.2331 154.292 63.0435 154.129 62.8708L 154.08 62.8046L 92.089 0.908374L 92.0399 0.872144C 91.8584 0.697065 91.6555 0.554255 91.442 0.430654L 91.2456 0.326144C 90.8249 0.121529 90.3658 -2.36556e-05 89.8896 0.000109574L 29.013 7.64913e-05C 13.015 8.23783e-05 -3.42247e-05 12.9395 5.45801e-06 28.8449L -9.01977e-06 162.919L 0.0127528 163.038C 0.0768684 178.956 13.0597 191.887 29.0193 191.887L 29.03 191.887L 125.973 191.887C 141.971 191.887 154.986 178.892 154.986 162.919L 154.986 64.9943L 154.939 64.5296L 154.892 64.2822ZM 144.392 61.89L 114.717 61.8496L 114.713 61.8495C 102.749 61.8495 93.0158 52.1314 93.0157 40.1833L 93.0008 10.5773L 144.392 61.89ZM 29.013 185.695L 125.971 185.695C 138.552 185.696 148.785 175.476 148.785 162.919L 148.785 68.0857L 114.715 68.039C 99.3321 68.0389 86.8191 55.5449 86.819 40.1854L 86.7997 6.18941L 29.013 6.18953C 16.4316 6.1894 6.19888 16.353 6.19894 28.8449L 6.19888 162.857L 6.20534 162.916C 6.20531 175.474 16.4337 185.689 29.0088 185.696L 29.013 185.695Z"/>
<path id="path1_fill" d="M 3.22887 11.9929C 5.01008 11.9929 6.45774 10.6505 6.45774 8.99419L 6.45774 2.99875C 6.45774 1.34242 5.01231 0 3.22887 0C 1.44543 0 0 1.34242 0 2.99875L 0 8.99419C -1.58006e-14 10.6505 1.44543 11.9929 3.22887 11.9929Z"/>
<path id="path2_fill" d="M 3.22887 11.9929C 5.01008 11.9929 6.45774 10.6505 6.45774 8.99419L 6.45774 2.99875C 6.45774 1.34242 5.01231 0 3.22887 0C 1.44543 0 0 1.34242 0 2.99875L 0 8.99419C -1.58006e-14 10.6526 1.44543 11.9929 3.22887 11.9929Z"/>
<path id="path3_fill" fill-rule="evenodd" d="M 15.2245 -7.4484e-05C 19.0518 8.26159e-05 22.3714 2.20777 23.8862 5.76148L 29.1904 18.1828C 31.23 22.9538 30.7581 28.3942 27.9357 32.7351C 25.1113 37.0761 20.3594 39.6691 15.2224 39.669C 10.0833 39.6689 5.32937 37.0759 2.50704 32.7351C -0.315419 28.3943 -0.785109 22.9536 1.25238 18.1829L 6.55649 5.76151C 8.07344 2.20782 11.3951 -3.89321e-05 15.2224 0.000118168L 15.2245 -7.4484e-05ZM 15.2203 33.4563C 18.3304 33.4561 21.0935 31.9501 22.8009 29.3228C 24.5104 26.6934 24.7833 23.5314 23.5499 20.6432L 18.2457 8.22186C 17.4481 6.3542 15.7281 6.20865 15.2203 6.20875C 14.7104 6.20855 12.9903 6.35403 12.1926 8.22182L 6.88853 20.6432C 5.65522 23.5315 5.92811 26.6936 7.63751 29.3206C 9.34495 31.9478 12.1081 33.4561 15.2203 33.4563Z"/>
</defs>
</svg>
