<svg width="115" height="75" viewBox="0 0 115 75" version="1.1" xmlns="http://www.w3.org/2000/svg" xmlns:xlink="http://www.w3.org/1999/xlink">
<title>icon</title>
<desc>Created using Figma</desc>
<g id="Canvas" transform="translate(-362 -3078)">
<g id="icon">
<g id="Fill 1">
<use xlink:href="#path0_fill" transform="translate(395.455 3131.47)" fill="#8AC74F"/>
</g>
<g id="Fill 3">
<use xlink:href="#path1_fill" transform="translate(390.436 3139.49)" fill="#8AC74F"/>
</g>
<g id="Fill 5">
<use xlink:href="#path1_fill" transform="translate(399.438 3139.49)" fill="#8AC74F"/>
</g>
<g id="Fill 6">
<use xlink:href="#path2_fill" transform="translate(362 3078)" fill="#8AC74F"/>
</g>
<g id="Fill 7">
<use xlink:href="#path3_fill" transform="translate(383.365 3103.89)" fill="#8AC74F"/>
</g>
</g>
</g>
<defs>
<path id="path0_fill" fill-rule="evenodd" d="M 1.204 18.448C 0.54 18.448 0 17.906 0 17.242L 0 1.206C 0 0.542 0.54 0 1.204 0C 1.868 0 2.41 0.542 2.41 1.206L 2.41 17.242C 2.41 17.906 1.868 18.448 1.204 18.448Z"/>
<path id="path1_fill" fill-rule="evenodd" d="M 0 2.408L 3.444 2.408L 3.444 0L 0 0L 0 2.408Z"/>
<path id="path2_fill" fill-rule="evenodd" d="M 78.162 65.0755L 111.876 65.0755L 111.876 63.1335L 78.162 63.1335L 78.162 65.0755ZM 80.93 41.2896L 95.018 31.4216L 109.106 41.2896L 80.93 41.2896ZM 108.634 45.9756C 107.928 45.9756 107.358 46.5456 107.358 47.2516L 107.358 60.5836L 103.136 60.5836L 103.136 47.2516C 103.136 46.5456 102.566 45.9756 101.86 45.9756C 101.156 45.9756 100.584 46.5456 100.584 47.2516L 100.584 60.5836L 96.362 60.5836L 96.362 47.2516C 96.362 46.5456 95.792 45.9756 95.086 45.9756C 94.382 45.9756 93.812 46.5456 93.812 47.2516L 93.812 60.5836L 89.588 60.5836L 89.588 47.2516C 89.588 46.5456 89.018 45.9756 88.314 45.9756C 87.608 45.9756 87.038 46.5456 87.038 47.2516L 87.038 60.5836L 82.816 60.5836L 82.816 47.2516C 82.816 46.5456 82.246 45.9756 81.54 45.9756C 80.834 45.9756 80.264 46.5456 80.264 47.2516L 80.264 60.5836L 78.162 60.5836L 78.162 43.8416L 111.876 43.8416L 111.876 60.5836L 109.91 60.5836L 109.91 47.2516C 109.91 46.5456 109.338 45.9756 108.634 45.9756L 108.634 45.9756ZM 95.02 19.7595C 94.264 19.7595 93.65 19.1435 93.65 18.3875C 93.65 17.6315 94.264 17.0195 95.02 17.0195C 95.774 17.0195 96.39 17.6315 96.39 18.3875C 96.39 19.1435 95.774 19.7595 95.02 19.7595L 95.02 19.7595ZM 60.06 22.9137L 93.478 2.70965C 93.6 2.63565 93.718 2.58965 93.834 2.56165L 93.86 2.55565C 93.976 2.53365 94.084 2.53365 94.188 2.56365C 94.392 2.61565 94.574 2.76165 94.7 2.97165C 94.958 3.39365 94.83 3.76965 94.316 4.08165L 61.074 24.2757C 60.75 23.8157 60.41 23.3597 60.06 22.9137L 60.06 22.9137ZM 51.756 13.2295C 52.408 13.5855 52.88 14.1735 53.088 14.8855C 53.224 15.3455 53.196 15.8075 53.094 16.2635C 51.65 15.2495 50.136 14.3695 48.566 13.6155C 49.418 12.8475 50.696 12.6495 51.756 13.2295L 51.756 13.2295ZM 57.436 19.9097C 56.73 19.1997 55.99 18.5437 55.232 17.9137C 55.782 16.7377 55.908 15.4257 55.538 14.1697C 55.286 13.3097 54.816 12.5617 54.202 11.9417L 85.546 4.52368L 58.38 20.9477C 58.064 20.6037 57.77 20.2417 57.436 19.9097L 57.436 19.9097ZM 64.464 72.4915L 55.87 72.4915L 55.87 44.6135C 55.87 43.9915 55.362 43.4835 54.74 43.4835L 14.612 43.4835C 13.972 43.4835 13.45 44.0055 13.45 44.6455L 13.45 72.4915L 4.854 72.4915L 4.854 43.8915L 7.706 43.8915C 8.336 43.8915 8.858 43.3795 8.87 42.7495C 8.878 42.3915 8.888 42.0155 8.9 41.7955C 9.666 28.3335 20.544 17.3995 33.664 16.9015C 34 16.8895 34.332 16.8835 34.666 16.8835C 41.202 16.8835 47.404 19.3175 52.218 23.7935C 57.286 28.5095 60.208 34.8975 60.446 41.7855C 60.452 41.9215 60.456 42.3235 60.458 42.7215C 60.462 43.3655 60.992 43.8915 61.636 43.8915L 64.464 43.8915L 64.464 72.4915ZM 52.666 50.4856C 52.226 50.4856 51.868 50.1276 51.868 49.6896L 51.868 46.6876C 51.868 46.2496 52.226 45.8916 52.666 45.8916C 53.102 45.8916 53.46 46.2496 53.46 46.6876L 53.46 49.6896C 53.46 50.1276 53.102 50.4856 52.666 50.4856L 52.666 50.4856ZM 47.868 49.6896L 47.868 46.6876C 47.868 46.2496 48.226 45.8916 48.664 45.8916C 49.102 45.8916 49.46 46.2496 49.46 46.6876L 49.46 49.6896C 49.46 50.1276 49.102 50.4856 48.664 50.4856C 48.226 50.4856 47.868 50.1276 47.868 49.6896L 47.868 49.6896ZM 43.866 49.6896L 43.866 46.6876C 43.866 46.2496 44.224 45.8916 44.664 45.8916C 45.1 45.8916 45.458 46.2496 45.458 46.6876L 45.458 49.6896C 45.458 50.1276 45.1 50.4856 44.664 50.4856C 44.224 50.4856 43.866 50.1276 43.866 49.6896L 43.866 49.6896ZM 39.864 49.6896L 39.864 46.6876C 39.864 46.2496 40.222 45.8916 40.662 45.8916C 41.1 45.8916 41.458 46.2496 41.458 46.6876L 41.458 49.6896C 41.458 50.1276 41.1 50.4856 40.662 50.4856C 40.222 50.4856 39.864 50.1276 39.864 49.6896L 39.864 49.6896ZM 35.864 49.6896L 35.864 46.6876C 35.864 46.2496 36.222 45.8916 36.66 45.8916C 37.098 45.8916 37.456 46.2496 37.456 46.6876L 37.456 49.6896C 37.456 50.1276 37.098 50.4856 36.66 50.4856C 36.222 50.4856 35.864 50.1276 35.864 49.6896L 35.864 49.6896ZM 31.862 49.6896L 31.862 46.6876C 31.862 46.2496 32.22 45.8916 32.66 45.8916C 33.098 45.8916 33.456 46.2496 33.456 46.6876L 33.456 49.6896C 33.456 50.1276 33.098 50.4856 32.66 50.4856C 32.22 50.4856 31.862 50.1276 31.862 49.6896L 31.862 49.6896ZM 27.86 49.6896L 27.86 46.6876C 27.86 46.2496 28.218 45.8916 28.658 45.8916C 29.096 45.8916 29.454 46.2496 29.454 46.6876L 29.454 49.6896C 29.454 50.1276 29.096 50.4856 28.658 50.4856C 28.218 50.4856 27.86 50.1276 27.86 49.6896L 27.86 49.6896ZM 23.86 49.6896L 23.86 46.6876C 23.86 46.2496 24.218 45.8916 24.658 45.8916C 25.094 45.8916 25.452 46.2496 25.452 46.6876L 25.452 49.6896C 25.452 50.1276 25.094 50.4856 24.658 50.4856C 24.218 50.4856 23.86 50.1276 23.86 49.6896L 23.86 49.6896ZM 19.858 49.6896L 19.858 46.6876C 19.858 46.2496 20.216 45.8916 20.656 45.8916C 21.094 45.8916 21.452 46.2496 21.452 46.6876L 21.452 49.6896C 21.452 50.1276 21.094 50.4856 20.656 50.4856C 20.216 50.4856 19.858 50.1276 19.858 49.6896L 19.858 49.6896ZM 15.858 49.6896L 15.858 46.6876C 15.858 46.2496 16.216 45.8916 16.656 45.8916C 17.092 45.8916 17.45 46.2496 17.45 46.6876L 17.45 49.6896C 17.45 50.1276 17.092 50.4856 16.656 50.4856C 16.216 50.4856 15.858 50.1276 15.858 49.6896L 15.858 49.6896ZM 15.858 72.4916L 53.46 72.4916L 53.46 52.8936L 15.858 52.8936L 15.858 72.4916ZM 64.436 41.4816L 62.846 41.4816C 62.542 34.2476 59.5 27.4856 54.27 22.4236C 48.976 17.2976 42.01 14.4756 34.66 14.4756C 27.308 14.4756 20.342 17.2976 15.048 22.4236C 9.81799 27.4856 6.77599 34.2476 6.47199 41.4816L 4.88199 41.4816C 5.17599 33.9816 8.26199 26.9336 13.584 21.6116C 19.214 15.9836 26.696 12.8816 34.66 12.8816C 42.622 12.8816 50.104 15.9836 55.734 21.6116C 61.056 26.9336 64.142 33.9816 64.436 41.4816L 64.436 41.4816ZM 114.408 42.4596C 114.4 42.3716 114.38 42.2876 114.354 42.2036C 114.332 42.1256 114.306 42.0536 114.27 41.9836C 114.234 41.9136 114.188 41.8516 114.138 41.7856C 114.084 41.7176 114.026 41.6556 113.96 41.5996C 113.93 41.5756 113.916 41.5416 113.884 41.5216L 97.636 30.1396C 98.354 29.4496 98.806 28.4856 98.806 27.4136C 98.806 25.7476 97.726 24.3296 96.228 23.8236L 96.228 21.9756C 97.726 21.4716 98.806 20.0536 98.806 18.3876C 98.806 16.7236 97.726 15.3056 96.228 14.7996L 96.228 5.82763C 97.46 4.73363 97.75 3.06963 96.88 1.64363C 96.408 0.86763 95.682 0.31963 94.84 0.0976302C 94.46 -0.00436982 94.066 -0.0203698 93.672 0.0216302C 93.602 0.0236302 93.536 0.00963018 93.464 0.0256302L 49.612 10.4056C 49.59 10.4116 49.574 10.4276 49.552 10.4336C 49.342 10.4676 49.132 10.4916 48.924 10.5516C 47.776 10.8876 46.814 11.5996 46.126 12.5556C 40.712 10.4956 34.746 9.92763 28.71 11.0036C 24.324 11.7836 20.076 13.5476 16.422 16.1036C 7.54 22.3196 2.446 32.0096 2.446 42.6876L 2.446 72.5116L 1.2 72.5116C 0.536 72.5116 0 73.0476 0 73.7096C 0 74.3716 0.536 74.9096 1.2 74.9096L 112.916 74.9096C 113.58 74.9096 114.116 74.3716 114.116 73.7096C 114.116 73.0476 113.58 72.5116 112.916 72.5116L 66.872 72.5116L 66.872 42.6876C 66.872 36.8716 65.31 31.3116 62.442 26.4296L 93.81 7.37363L 93.81 14.7996C 92.314 15.3056 91.234 16.7236 91.234 18.3876C 91.234 20.0536 92.314 21.4716 93.81 21.9756L 93.81 24.8356C 93.81 25.5036 94.352 26.0436 95.02 26.0436C 95.774 26.0436 96.39 26.6576 96.39 27.4136C 96.39 28.0036 96.01 28.4956 95.486 28.6896C 95.184 28.5696 94.854 28.5676 94.552 28.6896C 94.028 28.4956 93.65 28.0036 93.65 27.4136C 93.65 26.7456 93.108 26.2036 92.442 26.2036C 91.774 26.2036 91.234 26.7456 91.234 27.4136C 91.234 28.4856 91.684 29.4476 92.404 30.1396L 76.154 41.5216C 76.122 41.5416 76.106 41.5756 76.08 41.5996C 76.01 41.6556 75.956 41.7176 75.902 41.7856C 75.85 41.8516 75.806 41.9136 75.768 41.9836C 75.732 42.0536 75.708 42.1256 75.684 42.2036C 75.658 42.2876 75.64 42.3716 75.632 42.4596C 75.63 42.4976 75.61 42.5276 75.61 42.5656L 75.61 66.3516C 75.61 67.0556 76.18 67.6256 76.886 67.6256L 113.152 67.6256C 113.856 67.6256 114.426 67.0556 114.426 66.3516L 114.426 42.5656C 114.426 42.5276 114.41 42.4976 114.408 42.4596L 114.408 42.4596Z"/>
<path id="path3_fill" fill-rule="evenodd" d="M 2.04199 12.296C 2.54999 6.534 7.40399 2 13.294 2C 19.186 2 24.04 6.534 24.548 12.296L 2.04199 12.296ZM 13.294 0C 5.964 0 0 5.964 0 13.296C 0 13.848 0.446 14.296 1 14.296L 25.59 14.296C 26.144 14.296 26.59 13.848 26.59 13.296C 26.59 5.964 20.626 0 13.294 0L 13.294 0Z"/>
</defs>
</svg>
