<?xml version="1.0" encoding="UTF-8"?>
<svg width="19px" height="23px" viewBox="0 0 19 23" version="1.1" xmlns="http://www.w3.org/2000/svg" xmlns:xlink="http://www.w3.org/1999/xlink">
    <!-- Generator: Sketch 46.1 (44463) - http://www.bohemiancoding.com/sketch -->
    <title>Phone</title>
    <desc>Created with Sketch.</desc>
    <defs></defs>
    <g id="Symbols" stroke="none" stroke-width="1" fill="none" fill-rule="evenodd">
        <g id="Меню" transform="translate(-979.000000, -3.000000)" fill="#FFFFFF">
            <g id="Phone" transform="translate(977.000000, 3.000000)">
                <path d="M16.1294573,13.6752026 C15.0784369,13.6752026 14.3110899,14.606698 13.4008858,14.606698 C12.4927226,14.606698 8.40088584,10.5089536 8.40088584,9.48973892 C8.40088584,8.47470133 9.3090491,7.97971386 9.3090491,6.93125939 C9.3090491,6.17729114 6.58251849,1.58455931 5.4457838,1.58455931 C4.31108992,1.58455931 1.58455931,3.65013993 1.58455931,5.53819339 C1.58455931,11.0624206 11.5274164,21.5845593 17.721294,21.5845593 C19.4274164,21.5845593 21.5845593,19.7508083 21.5845593,17.6309252 C21.5845593,16.9041082 17.1519062,13.6752026 16.1294573,13.6752026 L16.1294573,13.6752026 Z" transform="translate(11.584559, 11.584559) rotate(10.000000) translate(-11.584559, -11.584559) "></path>
            </g>
        </g>
    </g>
</svg>