<svg width="18" height="21" viewBox="0 0 18 21" version="1.1" xmlns="http://www.w3.org/2000/svg" xmlns:xlink="http://www.w3.org/1999/xlink">
<title>icon</title>
<desc>Created using Figma</desc>
<g id="Canvas" transform="translate(-120 -4170)">
<g id="icon">
<g id="Group">
<g id="Shape">
<use xlink:href="#path0_fill" transform="translate(127.62 4176.75)" fill="#FFFFFF"/>
</g>
<g id="Shape">
<use xlink:href="#path1_fill" transform="translate(120 4176.75)" fill="#FFFFFF"/>
</g>
</g>
<g id="Shape">
<use xlink:href="#path2_fill" transform="translate(120.187 4188.23)" fill="#FFFFFF"/>
</g>
<g id="Shape">
<use xlink:href="#path3_fill" transform="translate(127.619 4170)" fill="#FFFFFF"/>
</g>
</g>
</g>
<defs>
<path id="path0_fill" d="M 7.99716 0.374063C 8.50239 -0.124687 9.32057 -0.124687 9.82621 0.374063C 10.3306 0.872005 10.331 1.6805 9.82621 2.17925L 2.20689 9.70129C 1.70248 10.1996 0.883483 10.1992 0.378665 9.70089C -0.126153 9.20254 -0.126153 8.39445 0.378256 7.8957L 7.99716 0.374063Z"/>
<path id="path1_fill" d="M 0.378563 2.17946C -0.126256 1.68111 -0.126256 0.872611 0.378972 0.373861C 0.88379 -0.124889 1.70238 -0.124486 2.20761 0.374264L 9.82693 7.8955C 10.3317 8.39425 10.3326 9.20234 9.82734 9.70109C 9.32252 10.1998 8.50352 10.1998 7.99829 9.70109L 0.378563 2.17946Z"/>
<path id="path2_fill" d="M 16.1587 0C 16.8734 0 17.4518 0.571038 17.4518 1.27656C 17.4518 1.98087 16.873 2.55271 16.1591 2.55271L 1.29232 2.55312C 0.578455 2.55352 0 1.98167 0 1.27656C 0 0.571846 0.578864 0.000403846 1.29232 0.000403846L 16.1587 0Z"/>
<path id="path3_fill" d="M 0 1.27656C 0 0.571038 0.578455 0 1.29314 0C 2.00659 0 2.58586 0.571442 2.58586 1.27615L 2.58627 15.5481C 2.58668 16.2532 2.00741 16.8242 1.29314 16.8242C 0.579273 16.8242 0.000409091 16.2528 0.000409091 15.5481L 0 1.27656Z"/>
</defs>
</svg>
