<?xml version="1.0" encoding="UTF-8"?>
<svg width="200px" height="29px" viewBox="0 0 200 29" version="1.1" xmlns="http://www.w3.org/2000/svg" xmlns:xlink="http://www.w3.org/1999/xlink">
    <!-- Generator: Sketch 46.1 (44463) - http://www.bohemiancoding.com/sketch -->
    <title>Logo</title>
    <desc>Created with Sketch.</desc>
    <defs></defs>
    <g id="Symbols" stroke="none" stroke-width="1" fill="none" fill-rule="evenodd">
        <g id="Меню" fill="#FFFFFF">
            <g id="Logo">
                <path d="M23.4381396,3.67135192 L23.4381396,3.63997556 C23.8146559,3.54584649 24.1597959,3.42034106 24.5049358,3.32621198 L24.5049358,3.26345927 L24.2225486,1.78877043 C17.4452552,-0.564456445 7.24793876,-0.595832804 0.564774449,1.69464135 L0.564774449,1.78877043 L0.564774449,3.26345927 L0.564774449,3.32621198 C0.941290749,3.45171741 1.31780705,3.57722285 1.72569971,3.67135192 L1.72569971,3.67135192 C4.48681923,10.6369035 3.45139941,19.8929292 0,26.2937062 L0,27.3291261 C7.05968061,29.5254711 18.0727824,29.5882239 25.1952157,27.3291261 L25.1952157,26.2937062 C21.7438163,19.8615528 20.6770201,10.6055271 23.4381396,3.67135192 Z M3.73378664,2.76143753 L3.82791571,2.47905031 C5.30260455,1.94565222 6.96555154,1.25537234 8.53436945,1.38087777 C9.25602569,1.44363048 9.94630558,1.78877043 10.6679618,1.85152314 C11.7975107,1.97702858 12.8015542,1.31812505 13.8997267,1.34950141 C15.1861574,1.38087777 16.4098354,1.8828995 17.6962661,1.82014678 C19.0768258,1.75739407 20.4260092,3.23208291 21.8379454,2.76143753 C16.723599,4.45576088 8.81675668,4.42438452 3.73378664,2.76143753 Z" id="Shape" fill-rule="nonzero"></path>
                <path d="M36.888,14.384 C36.888,11.8559874 37.7319916,9.7520084 39.42,8.072 C41.1080084,6.3919916 43.2639869,5.552 45.888,5.552 C47.088006,5.552 48.2559943,5.75599796 49.392,6.164 C50.5280057,6.57200204 51.5039959,7.175996 52.32,7.976 L50.376,11.144 C49.7999971,10.6319974 49.1240039,10.2120016 48.348,9.884 C47.5719961,9.55599836 46.8160037,9.392 46.08,9.392 C44.479992,9.392 43.2720041,9.86799524 42.456,10.82 C41.6399959,11.7720048 41.232,12.9279932 41.232,14.288 C41.232,15.680007 41.6519958,16.8879949 42.492,17.912 C43.3320042,18.9360051 44.5279922,19.448 46.08,19.448 C47.7120082,19.448 49.231993,18.744007 50.64,17.336 L52.8,20.408 C50.9439907,22.3280096 48.6400138,23.288 45.888,23.288 C43.1679864,23.288 40.9880082,22.4520084 39.348,20.78 C37.7079918,19.1079916 36.888,16.976013 36.888,14.384 Z M53.64,19.52 C53.64,18.7359961 53.8559978,18.0560029 54.288,17.48 C54.7200022,16.9039971 55.2919964,16.4640015 56.004,16.16 C56.7160036,15.8559985 57.4559962,15.6360007 58.224,15.5 C58.9920038,15.3639993 59.7919958,15.296 60.624,15.296 L60.984,15.296 L60.984,15.08 C60.984,14.1679954 60.4000058,13.712 59.232,13.712 C58.1439946,13.712 57.0080059,14.1039961 55.824,14.888 L54.384,11.96 C54.9440028,11.5279978 55.7159951,11.1520016 56.7,10.832 C57.6840049,10.5119984 58.6559952,10.352 59.616,10.352 C61.3280086,10.352 62.6759951,10.7999955 63.66,11.696 C64.6440049,12.5920045 65.136,13.8239922 65.136,15.392 L65.136,23 L61.344,23 L61.344,22.256 L61.392,21.488 L61.344,21.488 C60.943998,22.0480028 60.4120033,22.4879984 59.748,22.808 C59.0839967,23.1280016 58.3920036,23.288 57.672,23.288 C56.4879941,23.288 55.5200038,22.9280036 54.768,22.208 C54.0159962,21.4879964 53.64,20.5920054 53.64,19.52 Z M57.744,19.136 C57.744,19.4400015 57.847999,19.691999 58.056,19.892 C58.264001,20.092001 58.5519982,20.192 58.92,20.192 C59.4960029,20.192 59.9919979,19.9600023 60.408,19.496 C60.8240021,19.0319977 61.032,18.5360026 61.032,18.008 L61.032,17.672 L60.648,17.672 C59.8799962,17.672 59.2040029,17.7879988 58.62,18.02 C58.0359971,18.2520012 57.744,18.6239974 57.744,19.136 Z M66.648,23 L70.536,16.88 L66.552,10.64 L71.232,10.64 L72.576,13.4 L72.96,14.216 L73.008,14.216 C73.1680008,13.8799983 73.2959995,13.608001 73.392,13.4 L74.736,10.64 L79.416,10.64 L75.456,16.88 L79.344,23 L74.784,23 L73.296,20.216 L73.008,19.592 L72.96,19.592 C72.8479994,19.8640014 72.7520004,20.0719993 72.672,20.216 L71.208,23 L66.648,23 Z M80.088,19.52 C80.088,18.7359961 80.3039978,18.0560029 80.736,17.48 C81.1680022,16.9039971 81.7399964,16.4640015 82.452,16.16 C83.1640036,15.8559985 83.9039962,15.6360007 84.672,15.5 C85.4400038,15.3639993 86.2399958,15.296 87.072,15.296 L87.432,15.296 L87.432,15.08 C87.432,14.1679954 86.8480058,13.712 85.68,13.712 C84.5919946,13.712 83.4560059,14.1039961 82.272,14.888 L80.832,11.96 C81.3920028,11.5279978 82.1639951,11.1520016 83.148,10.832 C84.1320049,10.5119984 85.1039952,10.352 86.064,10.352 C87.7760086,10.352 89.1239951,10.7999955 90.108,11.696 C91.0920049,12.5920045 91.584,13.8239922 91.584,15.392 L91.584,23 L87.792,23 L87.792,22.256 L87.84,21.488 L87.792,21.488 C87.391998,22.0480028 86.8600033,22.4879984 86.196,22.808 C85.5319967,23.1280016 84.8400036,23.288 84.12,23.288 C82.9359941,23.288 81.9680038,22.9280036 81.216,22.208 C80.4639962,21.4879964 80.088,20.5920054 80.088,19.52 Z M84.192,19.136 C84.192,19.4400015 84.295999,19.691999 84.504,19.892 C84.712001,20.092001 84.9999982,20.192 85.368,20.192 C85.9440029,20.192 86.4399979,19.9600023 86.856,19.496 C87.2720021,19.0319977 87.48,18.5360026 87.48,18.008 L87.48,17.672 L87.096,17.672 C86.3279962,17.672 85.6520029,17.7879988 85.068,18.02 C84.4839971,18.2520012 84.192,18.6239974 84.192,19.136 Z M94.224,27.8 L94.224,10.64 L97.968,10.64 L97.968,11.264 L97.92,12.056 L97.968,12.056 C98.8160042,10.9199943 100.063992,10.352 101.712,10.352 C103.392008,10.352 104.739995,10.947994 105.756,12.14 C106.772005,13.332006 107.28,14.8959903 107.28,16.832 C107.28,18.7680097 106.736005,20.3279941 105.648,21.512 C104.559995,22.6960059 103.184008,23.288 101.52,23.288 C100.335994,23.288 99.2880046,22.8960039 98.376,22.112 L98.328,22.112 C98.3600002,22.4000014 98.376,22.7519979 98.376,23.168 L98.376,27.8 L94.224,27.8 Z M98.256,16.904 C98.256,17.704004 98.4679979,18.3959971 98.892,18.98 C99.3160021,19.5640029 99.9119962,19.856 100.68,19.856 C101.368003,19.856 101.943998,19.5920026 102.408,19.064 C102.872002,18.5359974 103.104,17.8160046 103.104,16.904 C103.104,15.9919954 102.880002,15.2560028 102.432,14.696 C101.983998,14.1359972 101.400004,13.856 100.68,13.856 C99.9919966,13.856 99.4160023,14.1119974 98.952,14.624 C98.4879977,15.1360026 98.256,15.895995 98.256,16.904 Z M115.824,23 L115.824,5.84 L120.024,5.84 L120.024,12.464 L121.752,12.464 L125.304,5.84 L129.816,5.84 L125.184,14.048 L125.184,14.096 L130.08,23 L125.376,23 L121.752,16.04 L120.024,16.04 L120.024,23 L115.824,23 Z M131.736,24.128 C132.184002,24.4320015 132.607998,24.584 133.008,24.584 C134.000005,24.584 134.663998,24.1680042 135,23.336 L135.24,22.76 L129.984,10.64 L134.688,10.64 L136.512,16.328 L136.968,18.248 L137.016,18.248 C137.176001,17.4639961 137.311999,16.8480022 137.424,16.4 L138.984,10.64 L143.52,10.64 L138.456,24.32 C137.975998,25.6000064 137.268005,26.539997 136.332,27.14 C135.395995,27.740003 134.384005,28.04 133.296,28.04 C132.815998,28.04 132.336002,27.9680007 131.856,27.824 C131.375998,27.6799993 131.016001,27.5360007 130.776,27.392 L130.416,27.176 L131.736,24.128 Z M144.528,15.608 C144.528,13.1119875 145.067995,11.1520071 146.148,9.728 C147.228005,8.30399288 148.983988,7.17600416 151.416,6.344 L155.424,5 L156.6,8.336 L151.944,9.824 C151.287997,10.0480011 150.756002,10.255999 150.348,10.448 C149.939998,10.640001 149.552002,10.939998 149.184,11.348 C148.815998,11.756002 148.624,12.2399972 148.608,12.8 L148.656,12.8 C149.584005,12.0159961 150.791993,11.624 152.28,11.624 C153.912008,11.624 155.207995,12.1479948 156.168,13.196 C157.128005,14.2440052 157.608,15.6079916 157.608,17.288 C157.608,19.0320087 157.024006,20.4679944 155.856,21.596 C154.687994,22.7240056 153.14401,23.288 151.224,23.288 C149.047989,23.288 147.388006,22.592007 146.244,21.2 C145.099994,19.807993 144.528,17.9440117 144.528,15.608 Z M148.656,17.36 C148.656,18.1280038 148.887998,18.7439977 149.352,19.208 C149.816002,19.6720023 150.383997,19.904 151.056,19.904 C151.728003,19.904 152.295998,19.6720023 152.76,19.208 C153.224002,18.7439977 153.456,18.1280038 153.456,17.36 C153.456,16.5759961 153.224002,15.9440024 152.76,15.464 C152.295998,14.9839976 151.728003,14.744 151.056,14.744 C150.383997,14.744 149.816002,14.9839976 149.352,15.464 C148.887998,15.9440024 148.656,16.5759961 148.656,17.36 Z M158.88,19.52 C158.88,18.7359961 159.095998,18.0560029 159.528,17.48 C159.960002,16.9039971 160.531996,16.4640015 161.244,16.16 C161.956004,15.8559985 162.695996,15.6360007 163.464,15.5 C164.232004,15.3639993 165.031996,15.296 165.864,15.296 L166.224,15.296 L166.224,15.08 C166.224,14.1679954 165.640006,13.712 164.472,13.712 C163.383995,13.712 162.248006,14.1039961 161.064,14.888 L159.624,11.96 C160.184003,11.5279978 160.955995,11.1520016 161.94,10.832 C162.924005,10.5119984 163.895995,10.352 164.856,10.352 C166.568009,10.352 167.915995,10.7999955 168.9,11.696 C169.884005,12.5920045 170.376,13.8239922 170.376,15.392 L170.376,23 L166.584,23 L166.584,22.256 L166.632,21.488 L166.584,21.488 C166.183998,22.0480028 165.652003,22.4879984 164.988,22.808 C164.323997,23.1280016 163.632004,23.288 162.912,23.288 C161.727994,23.288 160.760004,22.9280036 160.008,22.208 C159.255996,21.4879964 158.88,20.5920054 158.88,19.52 Z M162.984,19.136 C162.984,19.4400015 163.087999,19.691999 163.296,19.892 C163.504001,20.092001 163.791998,20.192 164.16,20.192 C164.736003,20.192 165.231998,19.9600023 165.648,19.496 C166.064002,19.0319977 166.272,18.5360026 166.272,18.008 L166.272,17.672 L165.888,17.672 C165.119996,17.672 164.444003,17.7879988 163.86,18.02 C163.275997,18.2520012 162.984,18.6239974 162.984,19.136 Z M173.016,23 L173.016,10.64 L177.168,10.64 L177.168,15.008 L180.984,15.008 L180.984,10.64 L185.136,10.64 L185.136,23 L180.984,23 L180.984,18.488 L177.168,18.488 L177.168,23 L173.016,23 Z M187.92,23 L187.92,10.64 L191.832,10.64 L191.832,16.088 C191.832,16.488002 191.816,16.8959979 191.784,17.312 L191.832,17.312 C191.928,17.0719988 192.151998,16.6640029 192.504,16.088 L195.936,10.64 L199.968,10.64 L199.968,23 L196.056,23 L196.056,17.6 C196.056,17.0879974 196.072,16.6720016 196.104,16.352 L196.056,16.352 C196.008,16.4800006 195.784002,16.8879966 195.384,17.576 L191.952,23 L187.92,23 Z" id="Сахар-Кубани"></path>
            </g>
        </g>
    </g>
</svg>