<?xml version="1.0" standalone="no"?>
<!DOCTYPE svg PUBLIC "-//W3C//DTD SVG 20010904//EN"
 "http://www.w3.org/TR/2001/REC-SVG-20010904/DTD/svg10.dtd">
<svg version="1.0" xmlns="http://www.w3.org/2000/svg"
 width="700.000000pt" height="700.000000pt" viewBox="0 0 700.000000 700.000000"
 preserveAspectRatio="xMidYMid meet">
<metadata>
Created by potrace 1.11, written by Peter Selinger 2001-2013
</metadata>
<g transform="translate(0.000000,700.000000) scale(0.100000,-0.100000)"
fill="#000000" stroke="none">
<path d="M4379 5728 c-30 -35 -56 -65 -59 -68 -3 -3 -32 -36 -65 -75 -33 -38
-64 -75 -70 -81 -5 -6 -29 -33 -52 -60 -23 -27 -51 -60 -63 -74 -76 -88 -107
-124 -125 -144 -11 -12 -41 -47 -67 -77 -25 -29 -120 -139 -210 -244 -90 -104
-174 -203 -188 -219 -86 -101 -156 -182 -165 -192 -5 -6 -32 -37 -60 -69 -27
-33 -68 -80 -90 -105 -23 -25 -65 -74 -95 -110 -30 -36 -57 -67 -60 -70 -3 -3
-45 -52 -95 -110 -49 -58 -92 -107 -95 -110 -3 -3 -30 -34 -60 -70 -30 -36
-57 -67 -60 -70 -3 -3 -46 -52 -95 -110 -50 -58 -92 -107 -95 -110 -3 -3 -59
-68 -125 -145 -65 -77 -126 -147 -135 -156 -8 -9 -22 -25 -30 -35 -28 -33
-144 -169 -150 -174 -13 -12 -100 -119 -100 -123 0 -2 123 27 273 65 149 38
279 71 287 73 8 2 35 8 60 14 25 7 52 13 60 15 8 2 134 34 280 71 146 37 272
68 280 70 8 2 44 11 80 20 36 9 72 18 81 20 9 2 34 8 55 14 21 6 39 9 41 8 1
-2 -19 -36 -46 -77 -47 -72 -255 -399 -350 -548 -25 -40 -73 -114 -106 -165
-65 -99 -281 -437 -425 -663 -30 -47 -62 -97 -70 -109 -8 -13 -34 -54 -58 -92
-24 -37 -85 -133 -137 -213 -158 -243 -161 -250 -48 -133 54 56 226 233 383
394 157 160 327 335 379 388 107 109 331 340 807 827 182 186 373 383 425 436
52 53 227 233 390 400 349 356 419 429 419 434 0 4 1 4 -205 -46 -198 -47
-235 -56 -780 -185 -225 -53 -417 -98 -425 -100 -8 -2 -53 -13 -99 -24 -46
-12 -86 -21 -88 -21 -2 0 77 159 175 353 99 193 280 550 402 792 123 242 269
531 326 643 57 111 102 202 100 202 -2 0 -28 -28 -57 -62z"/>
</g>
</svg>
