<svg width="404" height="303" viewBox="0 0 404 303" fill="none" xmlns="http://www.w3.org/2000/svg">
<path d="M224 44.9333C222.133 45.2 216.533 46.9333 211.333 48.6667C195.2 54.4 181.333 67.4667 179.467 78.5333C178.667 84.1333 178.267 84.5333 163.067 98.1333C159.2 101.6 156 105.333 156 106.4C156 108.533 169.6 122.667 171.733 122.667C173.333 122.667 186.667 108.533 186.667 106.8C186.667 106.133 188.533 103.733 190.8 101.467C195.333 96.8 201.467 96 205.867 99.3333C207.333 100.4 209.467 101.067 210.8 100.667C212.267 100.133 215.2 102.4 220 107.6C223.867 111.867 232.533 121.067 239.2 128C245.867 134.933 257.333 146.933 264.667 154.667C353.6 248 353.6 248 356.667 248C360 248 376 231.867 376 228.4C376 225.733 364.133 213.6 322 173.333C313.2 164.933 299.467 151.6 291.333 143.867C283.333 136.133 266 119.6 253.067 107.2C237.333 92.2667 229.333 83.7333 229.333 81.8667C229.333 80.4 227.2 77.0667 224.667 74.6667C215.467 65.7333 221.733 60.1333 242 58.8C255.067 58 260 55.7333 260 50.5333C260 45.6 254.933 44 240.667 44.1333C233.333 44.2667 225.867 44.6667 224 44.9333ZM204 58.6667C202.133 60 200.4 60.9333 200.133 60.5333C199.333 59.8667 204.267 56.1333 206 56.1333C206.8 56 205.867 57.2 204 58.6667ZM192.8 67.0667C189.067 70.8 186.133 75.3333 184.8 79.7333C182.267 87.0667 180.667 89.0667 182.133 82.9333C183.467 77.3333 188.8 68.6667 193.467 64.8C199.6 59.6 199.333 60.6667 192.8 67.0667ZM180.133 90.4C179.467 91.7333 177.733 93.7333 176.533 94.8C175.067 96 175.333 95.0667 177.333 92.2667C180.8 87.6 182.133 86.6667 180.133 90.4ZM169.333 99.2C169.333 99.6 168.8 100.267 168 100.667C167.333 101.067 166.667 100.8 166.667 100.133C166.667 99.3333 167.333 98.6667 168 98.6667C168.8 98.6667 169.333 98.9333 169.333 99.2ZM163.733 105.2C162.667 107.067 162.533 108.4 163.333 109.067C164.133 109.6 166.133 111.867 168 114C170.933 117.6 170.8 117.467 166.267 113.467C161.2 108.667 160.133 105.733 162.933 102.933C165.2 100.667 165.733 102 163.733 105.2ZM174.4 104C175.333 105.467 175.867 106.667 175.6 106.667C175.333 106.667 174 105.467 172.667 104C171.333 102.533 170.8 101.333 171.467 101.333C172.133 101.333 173.467 102.533 174.4 104ZM242.133 122.933C253.867 134.933 272.933 154.533 284.667 166.667C296.533 178.8 316.267 199.067 328.667 211.733C341.2 224.4 351.867 235.867 352.533 237.067C353.067 238.267 350.133 235.733 346 231.333C341.733 226.933 328.133 212.8 315.6 200C303.067 187.2 284.667 168.267 274.667 158C264.8 147.733 248.267 130.8 238 120.267C227.867 109.867 219.867 101.333 220.267 101.333C220.667 101.333 230.533 111.067 242.133 122.933Z" fill="white"/>
<path d="M143.467 110.134C140.8 112.667 140.8 112.667 143.467 116.8L145.733 120.134L92.2667 173.067C41.3334 223.334 38.5334 226.4 34.6667 235.2C32.4 240.267 30.8 244.667 31.0667 244.934C31.4667 245.2 35.8667 243.867 40.9334 242C49.7334 238.667 51.4667 237.2 80.1334 209.2C96.5334 193.067 120.667 169.334 133.6 156.4C156.267 133.734 157.333 132.934 160.4 134.534C164.267 136.667 168.533 136 169.067 133.334C169.333 131.6 148 108 146.133 108C145.867 108 144.533 108.934 143.467 110.134Z" fill="white"/>
<path d="M176.533 155.066C176.133 156.133 176 161.6 176.267 167.466L176.667 178L188.8 178.4L200.933 178.8L201.867 168.266C203.2 153.2 203.333 153.333 189.2 153.333C180.4 153.333 177.067 153.866 176.533 155.066Z" fill="white"/>
<path d="M205.867 155.067C205.467 156.133 205.333 161.6 205.6 167.467L206 178H218.667H231.333V166V154L218.933 153.6C209.467 153.333 206.4 153.6 205.867 155.067Z" fill="white"/>
<path d="M176.267 194.933L176.667 207.333L189.067 207.733C198.4 208 201.333 207.733 201.467 206.4C202 196 202 185.733 201.6 184.267C201.2 183.2 197.333 182.667 188.533 182.667H175.867L176.267 194.933Z" fill="white"/>
<path d="M205.867 184.4C205.467 185.467 205.333 190.934 205.6 196.8L206 207.334L217.867 207.734C226.533 208 230.133 207.6 230.933 206.4C231.467 205.467 232 199.734 232 193.6V182.667H219.333C209.867 182.667 206.4 183.2 205.867 184.4Z" fill="white"/>
</svg>
