<svg xmlns="http://www.w3.org/2000/svg" style="display: none;">
    <symbol id="icon_clock" viewBox="5760 5216 49.152 49.152">
      <defs><style>.cls-1 { fill: #cba67a; }</style></defs><g id="clock"><g id="Group_192" data-name="Group 192"><path id="Path_551" data-name="Path 551" class="cls-1" d="M5784.576 5216a24.576 24.576 0 1 0 24.576 24.576 24.555 24.555 0 0 0-24.576-24.576zm1.446 46.186v-4.262a1.446 1.446 0 1 0-2.89 0v4.262a21.843 21.843 0 0 1-20.165-20.164h4.26a1.446 1.446 0 0 0 0-2.89h-4.26a21.843 21.843 0 0 1 20.163-20.165v4.26a1.446 1.446 0 0 0 2.89 0v-4.26a21.843 21.843 0 0 1 20.166 20.163h-4.262a1.446 1.446 0 1 0 0 2.89h4.262a21.84 21.84 0 0 1-20.164 20.166z"/><path id="Path_552" data-name="Path 552" class="cls-1" d="M5790.358 5239.13h-4.047a.283.283 0 0 1-.288-.29v-9.83a1.446 1.446 0 0 0-2.89 0v9.83a3.21 3.21 0 0 0 3.18 3.18h4.047a1.446 1.446 0 1 0 0-2.89z"/></g></g>
    </symbol>
    <symbol id="icon_close" viewBox="12523.023 851 21.953 22.141">
      <defs><style>.cls-1 { fill: #fff; }</style></defs><g id="close"><path id="Rectangle_414" data-name="Rectangle 414" class="cls-1" d="M12525.178 851l19.8 19.8-2.156 2.154-19.8-19.8z"/><path id="Rectangle_415" data-name="Rectangle 415" class="cls-1" d="M12523.023 870.986l19.8-19.8 2.154 2.156-19.8 19.8z"/></g>
    </symbol>
    <symbol id="icon_dummy" viewBox="5252 1554.07 36.737 64.948">
      <g fill="#CBA67A"><path data-name="Path 505" class="cls-1" d="M5288.522 1568.575a4.5 4.5 0 0 0-2.945-5.667l-7.75-2.422a2.29 2.29 0 0 1-1.577-1.853l-.272-1.9a3.113 3.113 0 0 0-3.067-2.663h-5.084a3.113 3.113 0 0 0-3.067 2.66l-.273 1.9a2.29 2.29 0 0 1-1.577 1.853l-7.75 2.422a4.5 4.5 0 0 0-2.945 5.667l4.545 14.22a21.172 21.172 0 0 1-.286 13.668l-.008.022a31.708 31.708 0 0 0-2.043 12.4l.277 7.608a1.36 1.36 0 0 0 1.132 1.292 86.787 86.787 0 0 0 14.537 1.23 86.787 86.787 0 0 0 14.536-1.23 1.36 1.36 0 0 0 1.132-1.292l.277-7.608a31.7 31.7 0 0 0-2.043-12.4l-.006-.017a21.176 21.176 0 0 1-.288-13.673l4.545-14.22zm-5.2 35.073c-.57.12-1.14.236-1.71.34a1.36 1.36 0 1 0 .488 2.676c.492-.09.987-.188 1.48-.29.038.8.044 1.608.015 2.417l-.236 6.495a83.87 83.87 0 0 1-25.983 0l-.236-6.494c-.03-.875-.02-1.747.026-2.617.48.107.96.21 1.44.305a1.36 1.36 0 0 0 .53-2.668c-.564-.112-1.13-.236-1.692-.364a29.31 29.31 0 0 1 1.566-6l.016-.042a23.705 23.705 0 0 0 1.28-5.365 1.36 1.36 0 0 0 .167-2.708 23.8 23.8 0 0 0-1.122-7.366l-1.383-4.332.64.134a1.36 1.36 0 0 0 .53-2.668c-.71-.14-1.424-.3-2.128-.464l-2.2-6.89a1.78 1.78 0 0 1 1.164-2.24l6.71-2.1c.12.227.245.452.382.668a1.362 1.362 0 1 0 2.3-1.46q-.088-.14-.17-.283a5.02 5.02 0 0 0 1.99-3.315l.273-1.9a.38.38 0 0 1 .373-.324h5.085a.38.38 0 0 1 .374.325l.272 1.9a5.022 5.022 0 0 0 1.99 3.316c-.054.1-.11.192-.17.284a1.362 1.362 0 1 0 2.3 1.46c.14-.216.264-.44.382-.67l6.71 2.1a1.78 1.78 0 0 1 1.166 2.243l-2.287 7.123c-.677.147-1.36.287-2.04.41a1.36 1.36 0 1 0 .487 2.676c.2-.037.4-.077.6-.116l-1.32 4.13a23.816 23.816 0 0 0-1.122 7.374 1.36 1.36 0 0 0 .167 2.7 23.652 23.652 0 0 0 1.277 5.357l.02.052a29.3 29.3 0 0 1 1.6 6.2z"/><path data-name="Path 506" class="cls-1" d="M5269.328 1592.04h2.143a1.36 1.36 0 1 0 0-2.72h-2.138a1.36 1.36 0 1 0 0 2.72z"/><path data-name="Path 507" class="cls-1" d="M5265.882 1589.32h-2.14a1.36 1.36 0 1 0 0 2.72h2.14a1.36 1.36 0 1 0 0-2.72z"/><path data-name="Path 508" class="cls-1" d="M5277.053 1592.04a1.36 1.36 0 0 0 0-2.72h-2.14a1.36 1.36 0 0 0 0 2.72z"/><path data-name="Path 509" class="cls-1" d="M5266.34 1567.098a8.628 8.628 0 0 0 1.8.7 1.36 1.36 0 1 0 .7-2.63 5.9 5.9 0 0 1-1.228-.48 1.36 1.36 0 1 0-1.267 2.408z"/><path data-name="Path 510" class="cls-1" d="M5272.245 1567.846a1.364 1.364 0 0 0 .35-.046 8.625 8.625 0 0 0 1.8-.7 1.36 1.36 0 0 0-1.267-2.408 5.893 5.893 0 0 1-1.23.48 1.36 1.36 0 0 0 .348 2.675z"/><path data-name="Path 511" class="cls-1" d="M5274.165 1577.535a1.36 1.36 0 0 0 1.355 1.257h.1c.828-.063 1.666-.144 2.49-.24a1.36 1.36 0 0 0-.314-2.7c-.79.092-1.59.17-2.383.23a1.36 1.36 0 0 0-1.248 1.453z"/><path data-name="Path 512" class="cls-1" d="M5262.584 1578.426c.823.11 1.66.2 2.487.28.044 0 .086.005.127.005a1.36 1.36 0 0 0 .123-2.714c-.79-.073-1.592-.163-2.38-.267a1.362 1.362 0 0 0-.356 2.7z"/><path data-name="Path 513" class="cls-1" d="M5271.58 1576.246h-.745c-.553 0-1.113-.008-1.666-.023a1.36 1.36 0 0 0-.077 2.72c.578.015 1.163.023 1.74.023h.763a1.36 1.36 0 0 0-.016-2.72z"/><path data-name="Path 514" class="cls-1" d="M5271.58 1604.955h-.016c-.8.01-1.6 0-2.394-.02h-.038a1.36 1.36 0 0 0-.037 2.72c.578.017 1.166.025 1.748.025h.755a1.36 1.36 0 0 0-.016-2.72z"/><path data-name="Path 515" class="cls-1" d="M5277.8 1604.557c-.79.092-1.59.17-2.383.23a1.36 1.36 0 0 0 .1 2.716h.1c.828-.063 1.666-.144 2.49-.24a1.36 1.36 0 0 0-.314-2.7z"/><path data-name="Path 516" class="cls-1" d="M5265.32 1604.705c-.79-.073-1.592-.163-2.38-.267a1.362 1.362 0 1 0-.356 2.7c.823.11 1.66.2 2.487.28.044 0 .086.005.127.005a1.36 1.36 0 0 0 .123-2.715z"/></g>
    </symbol>
    <symbol id="icon_fb" viewBox="4489 1633.673 35.787 35.787">
      <defs><style>.cls-1 { fill: #fff; }</style></defs><path id="Path_489" data-name="Path 489" class="cls-1" d="M4506.894 1633.673a17.894 17.894 0 1 0 17.893 17.894 17.914 17.914 0 0 0-17.893-17.894zm4.45 18.523h-2.912v10.377h-4.313v-10.377h-2.052v-3.667h2.05v-2.373a4.046 4.046 0 0 1 4.354-4.353l3.2.012v3.557h-2.32a.878.878 0 0 0-.915 1v2.155h3.283z"/>
    </symbol>
    <symbol id="icon_gamburger" viewBox="11943 854 28 15.235">
      <defs><style>.cls-1 { fill: #fff; }</style></defs><g id="gamburger"><path id="Rectangle_374" data-name="Rectangle 374" class="cls-1" d="M11943 854h28v3.047h-28z"/><path id="Rectangle_375" data-name="Rectangle 375" class="cls-1" d="M11943 860.094h28v3.047h-28z"/><path id="Rectangle_376" data-name="Rectangle 376" class="cls-1" d="M11943 866.188h28v3.047h-28z"/></g>
    </symbol>
    <symbol id="icon_icon__phone" viewBox="3466 1331 20.046 20.046">
      <defs><style>.cls-1 { fill: #ff7100; }</style></defs><path id="plus-orange" class="cls-1" d="M3476.023 1331a10.023 10.023 0 1 0 10.023 10.023 9.994 9.994 0 0 0-10.023-10.023zm5.467 10.48a.43.43 0 0 1-.456.455h-3.872a.215.215 0 0 0-.228.228v3.873a.43.43 0 0 1-.456.456h-.91a.43.43 0 0 1-.456-.456v-3.874a.215.215 0 0 0-.228-.228h-3.872a.43.43 0 0 1-.456-.456v-.91a.43.43 0 0 1 .456-.456h3.872a.215.215 0 0 0 .228-.228v-3.872a.43.43 0 0 1 .456-.456h.91a.43.43 0 0 1 .457.456v3.872a.215.215 0 0 0 .228.228h3.873a.43.43 0 0 1 .456.456z"/>
    </symbol>
    <symbol id="icon_insta" viewBox="4550.005 1633.673 35.787 35.787">
      <defs><style>.cls-1 { fill: #fff; } img:hover .cls-1{ fill: #ff0000; }</style></defs><g id="insta"><path id="Path_490" data-name="Path 490" class="cls-1" d="M4567.898 1655.15a3.576 3.576 0 1 0-3.58-3.584 3.588 3.588 0 0 0 3.58 3.583z"/><path id="Path_491" data-name="Path 491" class="cls-1" d="M4575.72 1647.185v-3.45h-.45l-3 .01.013 3.45z"/><path id="Path_492" data-name="Path 492" class="cls-1" d="M4567.9 1633.673a17.894 17.894 0 1 0 17.892 17.894 17.914 17.914 0 0 0-17.893-17.894zm10.175 15.805v8.332a3.937 3.937 0 0 1-3.933 3.934h-12.487a3.937 3.937 0 0 1-3.933-3.934v-12.486a3.937 3.937 0 0 1 3.933-3.933h12.486a3.937 3.937 0 0 1 3.935 3.934z"/><path id="Path_493" data-name="Path 493" class="cls-1" d="M4573.465 1651.567a5.566 5.566 0 1 1-10.723-2.088h-3.038v8.33a1.95 1.95 0 0 0 1.95 1.95h12.486a1.95 1.95 0 0 0 1.95-1.95v-8.33h-3.043a5.49 5.49 0 0 1 .418 2.087z"/></g>
    </symbol>
    <symbol id="icon_logo" viewBox="4488.389 944.726 160.803 45.321">
      <defs><style>.cls-1, .cls-2 { fill: #cba67a; } .cls-1 { stroke: rgba(0,0,0,0); }</style></defs><g id="logo"><path id="Path_951" data-name="Path 951" class="cls-1" d="M4520.82 961.908c-.11-.925-.333-1.443-.7-1.443s-.666.37-1.258 1.332l-10.14 17.908-10.583-17.723c-.778-1.147-1.04-1.517-1.44-1.517-.37 0-.63.333-.777 1.443l-3.37 22.755c-.37 2.442-.74 3.293-1.814 3.515-.408.074-.815.074-1.11.11-.52 0-.74.15-.74.37 0 .37.443.37.813.37 1.37 0 3.108-.11 4.255-.11 1.11 0 3.142.11 4.773.11.593 0 .74-.11.74-.406 0-.222-.11-.333-.665-.333a10.02 10.02 0 0 1-1.37-.186c-.924-.186-1.294-.63-1.294-1.702a28.374 28.374 0 0 1 .15-2.96l1.072-10.434c.7 1.258 2.33 4.292 2.96 5.365 1.406 2.368 3.663 6.586 4.958 8.658 1.036 1.63 1.258 2 1.665 2 .3 0 .518-.22 1.517-2.108l7.622-14.284 1.332 13.246c.148 1.665.11 1.887-.48 2.11-.26.073-.408.22-.408.37 0 .184.148.406.85.443 4.222.222 7.216.222 10.287.222.592 0 .888-.075.888-.37 0-.26-.222-.37-.7-.37a10.6 10.6 0 0 1-2.11-.334c-1.22-.37-1.59-1.295-1.886-3.7zm25.64 27.64c9.695 0 15.54-6.587 15.54-15.208 0-7.51-5.883-13.8-15.28-13.8-10.88 0-15.837 7.215-15.837 14.615 0 6.548 4.663 14.392 15.578 14.392zm1.11-2.37c-6.363 0-9.286-6.7-9.286-13.69 0-8.768 3.81-10.655 7.215-10.655 6.548 0 9.1 6.993 9.1 13.135 0 10.212-4.735 11.21-7.03 11.21zm21.98-3.588c-.112 3.44-.3 4.366-1.74 4.588-.407.074-.888.074-1.22.11-.52 0-.7.15-.7.37 0 .3.3.37.813.37 1.44 0 4.178-.11 5.03-.11 2.293.037 3.477.11 4.772.11.592 0 .888-.073.888-.37 0-.22-.185-.332-.74-.37a9.7 9.7 0 0 1-1.96-.258c-1.037-.37-1.185-1.37-1.26-4.033l-.37-12.617c2.7 2.627 6.4 6.105 8.474 7.992 2.22 2.035 5.476 4.958 7.992 7.178 2.404 2.11 3.55 3 4.143 3 .48 0 .74-.407.74-2.294.148-7.437.148-14.837.444-22.274.11-2.294.48-2.923 1.7-3.07a4.453 4.453 0 0 1 .925-.112c.444 0 .63-.222.63-.407 0-.222-.26-.333-.815-.333-1.554 0-3.4.11-4.218.11-1.48 0-3.886-.11-5.366-.11-.407 0-.74.11-.74.37 0 .185.185.37.666.37a12.184 12.184 0 0 1 1.628.185c1.48.26 1.665 1.22 1.74 3.293l.22 13.875c-1-.888-3.55-3.367-7.325-6.845-8.473-7.77-10.4-9.62-11.95-10.915-.963-.777-1.148-.888-1.444-.888-.445 0-.593.666-.63 1.776-.22 4.77-.146 13.688-.33 21.31zm36.037-5.29c0 3.625-.074 6.29-.222 7.843-.11 1.073-.37 1.887-1.147 2-.407.074-.777.11-1.147.148-.443 0-.74.112-.74.37 0 .3.3.37.89.37 1.257 0 5.142-.11 5.327-.11.333 0 4.292.11 6.808.11.592 0 .777-.184.777-.37 0-.22-.148-.37-.777-.37a12.184 12.184 0 0 1-1.628-.184c-1.11-.26-1.332-.925-1.406-1.887-.147-1.555-.184-5-.184-7.92v-6.51c0-5.736 0-6.7.11-7.882.075-1.332.445-1.813 1.407-2 .48-.074.7-.074 1.073-.11.37 0 .7-.075.7-.37 0-.223-.185-.37-.814-.37-1.332 0-5.7.11-6.03.11-.3 0-3.923-.11-5.4-.11-.63 0-.815.11-.815.332 0 .26.26.407.7.407a6.213 6.213 0 0 1 1.11.148c.814.148 1.22.814 1.3 1.85.11 1.184.11 2.257.11 7.992zm29.3 3.07a.31.31 0 0 1 .3.222l2.48 5.883c.11.333-.038.592-.445.666-.333.075-.518.223-.518.445s.222.333.814.333c2.368.037 6.586.11 10.212.11.7 0 .962-.11.962-.37 0-.22-.222-.37-.7-.37a7.38 7.38 0 0 1-1.192-.147c-1.295-.184-2.11-1.072-3.367-3.958-2.516-5.624-8.732-19.8-9.694-21.867-.63-1.332-.963-1.85-1.333-1.85-.407 0-.814.555-1.517 2.146l-9.874 22.35c-.777 1.775-1.517 2.922-2.812 3.18a10.33 10.33 0 0 1-1.184.15c-.444 0-.7.073-.7.37 0 .22.222.37.74.37 1.85 0 4.292-.112 4.7-.112 1.96 0 3.22.11 4.884.11.48 0 .777-.073.777-.37 0-.184-.11-.37-.665-.37-.3-.036-.888-.073-1.295-.147-.777-.073-1.11-.406-1.11-1.11a8.277 8.277 0 0 1 .592-2.367l1.147-3.034c.073-.186.147-.26.332-.26zm-7.4-2.96c-.11 0-.185-.074-.148-.185l3.144-7.918c.074-.185.148-.26.26 0l3.256 7.918c.037.074.037.185-.185.185z"/><path id="Path_499" data-name="Path 499" class="cls-2" d="M4542.17 956.168h11.052V948.4l-4.12 3.113-2.937-6.787-2.716 6.787-3.873-3.113v7.768z"/></g>
    </symbol>
    <symbol id="icon_placeholder" viewBox="5507 5603.113 51.875 70.554">
      <defs><style>.cls-1 { fill: #812e42; }</style></defs><g id="placeholder"><path id="Subtraction_2" data-name="Subtraction 2" class="cls-1" d="M5532.938 5673.668l-20.565-28.807a26.97 26.97 0 0 1-5.373-15.813 25.965 25.965 0 0 1 25.94-25.932 25.766 25.766 0 0 1 18.342 7.6 25.758 25.758 0 0 1 7.594 18.33 26.968 26.968 0 0 1-5.368 15.81l-20.567 28.81zm0-60.81a16.21 16.21 0 0 0-16.194 16.188 16.21 16.21 0 0 0 16.194 16.19 16.21 16.21 0 0 0 16.19-16.19 16.208 16.208 0 0 0-16.19-16.19z"/></g>
    </symbol>
    <symbol id="icon_point" viewBox="5384 5205 46.074 57">
      <defs><style>.cls-1 { fill: #cba67a; }</style></defs><g id="point"><path id="Path_563" data-name="Path 563" class="cls-1" d="M5407.02 5216.358a11.924 11.924 0 1 0 11.918 11.93 11.932 11.932 0 0 0-11.918-11.93zm0 20.99a9.06 9.06 0 1 1 9.06-9.06 9.07 9.07 0 0 1-9.06 9.06z"/><path id="Path_564" data-name="Path 564" class="cls-1" d="M5407.02 5205c-.268 0-.548 0-.816.012a23.015 23.015 0 0 0-21.795 27.334 7.294 7.294 0 0 0 .162.77 22.01 22.01 0 0 0 1.54 4.525c2.366 5.61 7.555 14.25 18.82 23.6a3.318 3.318 0 0 0 4.22 0c11.255-9.34 16.444-17.99 18.8-23.554a22.61 22.61 0 0 0 1.55-4.56c.07-.28.118-.513.153-.735a23.016 23.016 0 0 0-22.635-27.39zm19.8 26.9c0 .023-.035.222-.117.583a20.975 20.975 0 0 1-1.376 4.046c-2.25 5.317-7.195 13.538-18 22.505a.47.47 0 0 1-.292.1.5.5 0 0 1-.292-.1c-10.81-8.98-15.766-17.2-18.028-22.553a20.087 20.087 0 0 1-1.363-4.008c-.07-.3-.1-.49-.117-.548 0-.023-.012-.047-.012-.07a20.537 20.537 0 0 1-.268-5.8 20.17 20.17 0 0 1 40.243 1.97 20.923 20.923 0 0 1-.377 3.874z"/></g>
    </symbol>
    <symbol id="icon_telephone" viewBox="4548 1418 40.004 40.005">
      <g data-name="Ellipse 1" class="cls-1" transform="translate(4548 1418)" stroke="#cba67a" stroke-width="2" fill="#812E42"><circle class="cls-3" cx="20.002" cy="20.002" r="20.002" stroke="#812E42"/><circle class="cls-4" cx="20.002" cy="20.002" r="19.002"/></g><g data-name="Group 34" fill="#fff"><path data-name="Path 30" class="cls-2" d="M4573.064 1441.017a2.067 2.067 0 0 0-1.5-.687 2.137 2.137 0 0 0-1.517.683l-1.4 1.4c-.115-.062-.23-.12-.342-.177-.16-.08-.31-.155-.44-.235a15.232 15.232 0 0 1-3.65-3.325 8.987 8.987 0 0 1-1.2-1.89c.365-.332.7-.678 1.03-1.01.124-.124.248-.253.373-.377a2.035 2.035 0 0 0 0-3.07l-1.21-1.22c-.136-.136-.278-.278-.41-.42-.267-.275-.547-.56-.835-.825a2.1 2.1 0 0 0-1.486-.652 2.172 2.172 0 0 0-1.508.653l-.01.01-1.508 1.524a3.245 3.245 0 0 0-.962 2.062 7.775 7.775 0 0 0 .567 3.29 19.1 19.1 0 0 0 3.393 5.66 20.87 20.87 0 0 0 6.95 5.44 10.828 10.828 0 0 0 3.9 1.154c.093 0 .19.01.28.01a3.342 3.342 0 0 0 2.558-1.1c0-.01.013-.014.018-.023a10.083 10.083 0 0 1 .776-.8c.19-.18.386-.372.577-.57a2.213 2.213 0 0 0 .67-1.536 2.132 2.132 0 0 0-.684-1.52zm1.588 4.67c-.173.186-.35.355-.54.54a11.662 11.662 0 0 0-.857.888 2.138 2.138 0 0 1-1.668.705h-.2a9.62 9.62 0 0 1-3.46-1.042 19.7 19.7 0 0 1-6.55-5.127 18.006 18.006 0 0 1-3.193-5.317 6.333 6.333 0 0 1-.5-2.776 2.036 2.036 0 0 1 .612-1.317l1.512-1.512a1.008 1.008 0 0 1 .674-.315.95.95 0 0 1 .648.31l.013.013c.27.253.528.514.8.794.137.142.28.284.42.43l1.214 1.21a.846.846 0 0 1 0 1.376c-.13.13-.253.257-.38.38-.374.382-.728.737-1.114 1.083-.01.008-.018.012-.022.02a.9.9 0 0 0-.233 1.01l.013.04a9.72 9.72 0 0 0 1.433 2.336 16.28 16.28 0 0 0 3.938 3.584 6.057 6.057 0 0 0 .547.3c.16.08.31.155.44.235.017.01.034.022.052.03a.96.96 0 0 0 .438.112.948.948 0 0 0 .674-.306l1.517-1.516a1 1 0 0 1 .67-.333.9.9 0 0 1 .638.325l.01.01 2.45 2.444a.877.877 0 0 1 .004 1.387z"/><path data-name="Path 31" class="cls-2" d="M4567.813 1433a5.708 5.708 0 0 1 4.648 4.647.6.6 0 0 0 .59.5.79.79 0 0 0 .1-.01.6.6 0 0 0 .493-.69 6.9 6.9 0 0 0-5.624-5.625.6.6 0 0 0-.693.488.592.592 0 0 0 .486.69z"/><path data-name="Path 32" class="cls-2" d="M4577.445 1437.27a11.365 11.365 0 0 0-9.26-9.26.6.6 0 1 0-.2 1.18 10.15 10.15 0 0 1 8.276 8.275.6.6 0 0 0 .59.5.792.792 0 0 0 .1-.01.588.588 0 0 0 .495-.685z"/></g>
    </symbol>
    <symbol id="icon_telephone2" viewBox="5043.607 5205.473 54.793 60.054">
      <defs><style>.cls-1 { fill: #cba67a; }</style></defs><g id="telephone2"><g id="Group_194" data-name="Group 194"><path id="Path_553" data-name="Path 553" class="cls-1" d="M5090.64 5229.01c.454 0 .91.013 1.363.013s.933 0 1.338-.025a4.854 4.854 0 0 0 5.06-5.06v-4.983a7.585 7.585 0 0 0-1.842-5.034 18.146 18.146 0 0 0-6.385-4.505 44.408 44.408 0 0 0-14.89-3.742 48.728 48.728 0 0 0-20.406 2.48 25.2 25.2 0 0 0-8.353 4.54 8.037 8.037 0 0 0-2.91 6.557v.074a25.462 25.462 0 0 1 .05 2.578c-.013.614-.026 1.252 0 1.89a4.928 4.928 0 0 0 5.156 5.12h8.14a4.75 4.75 0 0 0 4.96-5.058v-4.518c.27-.074.53-.16.775-.246a10.6 10.6 0 0 1 1.093-.332 32.664 32.664 0 0 1 7.134-.76 39.7 39.7 0 0 1 4.285.232 20.24 20.24 0 0 1 4.973 1.105c-.05 1.117-.037 2.21-.025 3.278v1.228a4.834 4.834 0 0 0 5.157 5.158h3.978c.454 0 .908.013 1.35.013zm-7.478-5.168v-1.252c-.012-1.24-.012-2.407.05-3.61v-.086a2.2 2.2 0 0 0-1.34-2.136c-.036-.012-.06-.037-.1-.05a22.59 22.59 0 0 0-6.235-1.485 46.226 46.226 0 0 0-4.616-.25 34.86 34.86 0 0 0-7.784.835c-.49.11-.945.258-1.4.405a9.918 9.918 0 0 1-1.105.332l-.146.037a2.22 2.22 0 0 0-1.584 2.26v5a1.8 1.8 0 0 1-1.952 2.05h-8.14a1.948 1.948 0 0 1-2.15-2.187c-.012-.577-.012-1.142 0-1.756a28.28 28.28 0 0 0-.05-2.874 4.915 4.915 0 0 1 1.892-4.123 22.486 22.486 0 0 1 7.355-3.966 45.606 45.606 0 0 1 19.142-2.32 41.593 41.593 0 0 1 13.924 3.474 14.666 14.666 0 0 1 5.342 3.71 4.607 4.607 0 0 1 1.13 3.093v4.96a1.91 1.91 0 0 1-2.1 2.087c-.872.025-1.73.025-2.615.012-.467 0-.933-.012-1.4-.012h-3.978c-1.475 0-2.138-.662-2.138-2.148z"/><path id="Path_554" data-name="Path 554" class="cls-1" d="M5071.228 5232.177a4.69 4.69 0 1 0 4.69 4.69 4.7 4.7 0 0 0-4.69-4.69zm0 6.385a1.682 1.682 0 1 1 1.682-1.682 1.685 1.685 0 0 1-1.682 1.684z"/><path id="Path_555" data-name="Path 555" class="cls-1" d="M5083.752 5232.177a4.69 4.69 0 1 0 4.69 4.69 4.7 4.7 0 0 0-4.69-4.69zm0 6.385a1.682 1.682 0 1 1 1.682-1.682 1.685 1.685 0 0 1-1.682 1.684z"/><path id="Path_556" data-name="Path 556" class="cls-1" d="M5058.704 5232.177a4.69 4.69 0 1 0 4.69 4.69 4.7 4.7 0 0 0-4.69-4.69zm0 6.385a1.682 1.682 0 1 1 1.682-1.682 1.685 1.685 0 0 1-1.682 1.684z"/><path id="Path_557" data-name="Path 557" class="cls-1" d="M5071.228 5244.16a4.69 4.69 0 1 0 4.69 4.69 4.7 4.7 0 0 0-4.69-4.69zm0 6.386a1.682 1.682 0 1 1 1.682-1.682 1.685 1.685 0 0 1-1.682 1.684z"/><path id="Path_558" data-name="Path 558" class="cls-1" d="M5083.752 5244.16a4.69 4.69 0 1 0 4.69 4.69 4.7 4.7 0 0 0-4.69-4.69zm0 6.386a1.682 1.682 0 1 1 1.682-1.682 1.685 1.685 0 0 1-1.682 1.684z"/><path id="Path_559" data-name="Path 559" class="cls-1" d="M5058.704 5244.16a4.69 4.69 0 1 0 4.69 4.69 4.7 4.7 0 0 0-4.69-4.69zm0 6.386a1.682 1.682 0 1 1 1.682-1.682 1.685 1.685 0 0 1-1.682 1.684z"/><path id="Path_560" data-name="Path 560" class="cls-1" d="M5071.228 5256.144a4.69 4.69 0 1 0 4.69 4.69 4.7 4.7 0 0 0-4.69-4.69zm0 6.385a1.682 1.682 0 1 1 1.682-1.683 1.685 1.685 0 0 1-1.682 1.684z"/><path id="Path_561" data-name="Path 561" class="cls-1" d="M5083.752 5256.144a4.69 4.69 0 1 0 4.69 4.69 4.7 4.7 0 0 0-4.69-4.69zm0 6.385a1.682 1.682 0 1 1 1.682-1.683 1.685 1.685 0 0 1-1.682 1.684z"/><path id="Path_562" data-name="Path 562" class="cls-1" d="M5058.704 5256.144a4.69 4.69 0 1 0 4.69 4.69 4.7 4.7 0 0 0-4.69-4.69zm0 6.385a1.682 1.682 0 1 1 1.682-1.683 1.685 1.685 0 0 1-1.682 1.684z"/></g></g>
    </symbol>
    <symbol id="icon_tissue" viewBox="4998 1556 59.451 63.07">
      <g fill="#CBA67A"><path data-name="Path 500" class="cls-1" d="M5057.45 1569.32a1.363 1.363 0 1 0-2.724 0v1.2h-2.432v-1.2a1.363 1.363 0 1 0-2.725 0v1.2h-2.433v-7.27a1.363 1.363 0 1 0-2.725 0v1.2h-2.432v-1.2a1.363 1.363 0 1 0-2.725 0v1.2h-2.432v-7.087a1.363 1.363 0 1 0-2.725 0v1.2h-2.432v-1.2a1.363 1.363 0 1 0-2.725 0v1.2h-2.43v-1.2a1.363 1.363 0 1 0-2.725 0v1.2h-2.432v-1.2a1.363 1.363 0 1 0-2.725 0v1.2h-2.432v-1.2a1.363 1.363 0 1 0-2.725 0v1.2h-2.43v-1.2a1.363 1.363 0 1 0-2.726 0v1.2h-2.432v-1.2a1.363 1.363 0 1 0-2.725 0v1.2h-2.434v-1.2a1.363 1.363 0 1 0-2.725 0v48.387a1.363 1.363 0 0 0 2.725 0v-1.2h2.432v1.2a1.363 1.363 0 0 0 2.725 0v-1.2h2.433v7.086a1.363 1.363 0 1 0 2.725 0v-1.2h2.432v1.2a1.363 1.363 0 1 0 2.725 0v-1.2h2.428v7.266a1.363 1.363 0 0 0 2.725 0v-1.2h2.432v1.2a1.363 1.363 0 0 0 2.725 0v-1.2h2.432v1.2a1.363 1.363 0 0 0 2.725 0v-1.2h2.432v1.2a1.363 1.363 0 0 0 2.725 0v-1.2h2.43v1.2a1.363 1.363 0 0 0 2.726 0v-1.2h2.432v1.2a1.363 1.363 0 0 0 2.725 0v-1.2h2.432v1.2a1.363 1.363 0 1 0 2.725 0v-1.2h2.433v1.2a1.363 1.363 0 1 0 2.725 0v-48.382zm-2.727 32.11h-7.586v-3.558h7.586zm0-6.283h-7.586v-3.56h7.586zm0-6.284h-7.586v-3.563h7.586zm0-6.284h-7.586v-3.56h7.586zm-7.586 25.135v-3.56h7.586v3.56zm7.586-34.472v3.052h-7.586v-3.052h7.586zm-10.31-6.07v40.542h-33.374v-3.162h2.43v1.2a1.363 1.363 0 1 0 2.726 0v-1.2h2.427v1.2a1.363 1.363 0 1 0 2.725 0v-1.2h2.432v1.2a1.363 1.363 0 1 0 2.725 0v-1.2h2.432v1.2a1.363 1.363 0 1 0 2.725 0v-1.2h2.432v1.2a1.363 1.363 0 1 0 2.725 0v-38.58h7.587zm-15.547 33.317a4.315 4.315 0 0 1 5.232-4.216v5.553h-5.02a4.3 4.3 0 0 1-.21-1.337zm-28.143-39.205h33.375v19.273a5.715 5.715 0 1 0 0 4.3v8.653a7.034 7.034 0 0 0-7.828 8.316h-25.547v-40.54zm31.07 21.423a2.99 2.99 0 1 1-2.99-2.99 2.993 2.993 0 0 1 2.99 2.99zm-10.44 31.076V1610.442h2.43v1.2a1.363 1.363 0 1 0 2.726 0v-1.2h2.43v1.2a1.363 1.363 0 1 0 2.726 0v-1.2h2.432v1.2a1.363 1.363 0 1 0 2.725 0v-1.2h2.432v1.2a1.363 1.363 0 1 0 2.725 0v-1.2h2.432v1.2a1.363 1.363 0 1 0 2.725 0v-1.2h7.586v3.344h-33.37z"/><path data-name="Path 501" class="cls-1" d="M5008.958 1577.927c.17 0 .338-.008.505-.02a5.426 5.426 0 1 0 6.31-7.684 6.866 6.866 0 1 0-6.815 7.7zm6.573-4.882a2.7 2.7 0 1 1-3.35 4.077 6.9 6.9 0 0 0 3.356-4.077zm-6.572-6.127a4.142 4.142 0 1 1-4.142 4.142 4.146 4.146 0 0 1 4.142-4.142z"/><path data-name="Path 502" class="cls-1" d="M5016.177 1590.773a4.563 4.563 0 1 0 4.563-4.563 4.568 4.568 0 0 0-4.563 4.563zm4.563-1.838a1.838 1.838 0 1 1-1.838 1.838 1.84 1.84 0 0 1 1.838-1.838z"/><path data-name="Path 503" class="cls-1" d="M5025.396 1574.133a4.563 4.563 0 1 0-4.563-4.563 4.568 4.568 0 0 0 4.563 4.563zm0-6.4a1.838 1.838 0 1 1-1.838 1.838 1.84 1.84 0 0 1 1.838-1.838z"/><path data-name="Path 504" class="cls-1" d="M5010.894 1593.844c0-.137-.007-.274-.02-.41a6.485 6.485 0 1 0-8.508-1.842 4.562 4.562 0 1 0 8.528 2.252zm-3.256-9.78a3.758 3.758 0 1 1-3.758 3.76 3.762 3.762 0 0 1 3.758-3.76zm-3.142 9.78a1.867 1.867 0 0 1 .03-.335 6.443 6.443 0 0 0 3.112.8c.16 0 .32-.01.477-.02a1.836 1.836 0 0 1-3.62-.443z"/></g>
    </symbol>
    <symbol id="icon_vk" viewBox="4611.998 1633.673 35.787 35.787">
      <defs><style>.cls-1 { fill: #cba67a; }</style></defs><path id="vk" class="cls-1" d="M4629.892 1633.673a17.893 17.893 0 1 0 17.893 17.893 17.894 17.894 0 0 0-17.893-17.893zm9.076 19.83a34.025 34.025 0 0 1 2.465 2.48 7.026 7.026 0 0 1 .882 1.27c.34.66.033 1.382-.557 1.422h-3.666a2.832 2.832 0 0 1-2.335-.95c-.507-.517-.978-1.068-1.466-1.6a3.428 3.428 0 0 0-.66-.588.765.765 0 0 0-1.22.3 3.84 3.84 0 0 0-.385 1.71c-.04.865-.3 1.09-1.168 1.132a9.387 9.387 0 0 1-5.246-1.13 11.58 11.58 0 0 1-3.53-3.3 44.53 44.53 0 0 1-4.646-8.283c-.293-.653-.08-1 .64-1.016 1.2-.022 2.394-.02 3.59 0a1.055 1.055 0 0 1 1 .747 22.274 22.274 0 0 0 2.434 4.498 3.854 3.854 0 0 0 .92 1.01.558.558 0 0 0 .95-.28 3.074 3.074 0 0 0 .21-.945 14.13 14.13 0 0 0-.058-3.313 1.382 1.382 0 0 0-1.177-1.265c-.35-.066-.3-.2-.13-.4a1.318 1.318 0 0 1 1.126-.56h4.14c.654.13.8.422.89 1.08v4.6c-.01.254.127 1.01.584 1.175.366.12.608-.173.827-.4a14.314 14.314 0 0 0 2.336-3.586c.28-.567.52-1.154.755-1.743a.892.892 0 0 1 .938-.642h3.988a2.075 2.075 0 0 1 .353.02c.67.116.855.4.647 1.06a9.938 9.938 0 0 1-1.585 2.75c-.666.92-1.377 1.81-2.037 2.735-.608.852-.56 1.277.193 2.012z"/>
    </symbol></svg>