<svg xmlns="http://www.w3.org/2000/svg" xmlns:xlink="http://www.w3.org/1999/xlink">
<defs>
<path id="sq2ma" d="M1506.2 2291.6l9.2 9.2a1 1 0 0 1 0 1.4l-9.2 9.2a1 1 0 0 1-1.4-1.42l8.48-8.48-8.49-8.49a1 1 0 1 1 1.42-1.41z"/><mask id="sq2mc" width="2.57" height="2.32" x="-1.28" y="-1.16"><path fill="#fff" d="M1500.6 2287.6h18.8v27.8h-18.8z"/><use xlink:href="#sq2ma"/></mask><filter id="sq2mb" width="108" height="117" x="1456" y="2243" filterUnits="userSpaceOnUse"><feOffset in="SourceGraphic" result="FeOffset1055Out"/><feGaussianBlur in="FeOffset1055Out" result="FeGaussianBlur1056Out" stdDeviation="13.84 13.84"/></filter><clipPath id="sq2md"><use fill="#fff" xlink:href="#sq2ma"/></clipPath>
<path id="taxaa" d="M414.2 2291.6a1 1 0 0 1 0 1.41l-8.48 8.49 8.49 8.48a1 1 0 0 1-1.42 1.42l-9.19-9.2a1 1 0 0 1 0-1.4l9.2-9.2a1 1 0 0 1 1.4 0z"/><clipPath id="taxab"><use fill="#fff" xlink:href="#taxaa"/></clipPath>
<path id="te3va" d="M537.88 499.35l4.95 4.8 7.25-7.04c.25-.23.85-.03 1.35.46.5.48.72 1.07.47 1.3l-8.2 7.96c-.17.16-.5.12-.85-.08-.35.23-.65.31-.77.2l-6.02-5.84c-.18-.17.08-.7.58-1.2.5-.48 1.06-.74 1.24-.56z"/>
<path id="e08ba" d="M1397.88 438.07l5.76-5.66-5.55-5.56c-.24-.23-.03-.82.47-1.31.5-.5 1.09-.7 1.33-.46l5.55 5.56 5.65-5.53c.24-.23.84-.03 1.34.46.5.48.72 1.07.47 1.3l-5.67 5.57 5.68 5.68c.23.23.03.82-.47 1.31-.5.5-1.09.7-1.33.46l-5.68-5.69-5.73 5.63c-.25.23-.85.03-1.35-.46-.5-.48-.72-1.07-.47-1.3z"/>
<path id="3wefa" d="M1330.45 373.23l-53.33 31v-62z"/>
<path id="kz8fa" d="M1400.88 344.35l4.95 4.8 7.26-7.04c.24-.23.84-.03 1.34.46.5.48.72 1.07.47 1.3l-8.2 7.96c-.17.16-.5.12-.85-.08-.35.23-.65.31-.77.2l-6.02-5.84c-.18-.17.08-.7.58-1.2.5-.48 1.06-.74 1.24-.56z"/>
<clipPath id="clipPath16" clipPathUnits="userSpaceOnUse"><path id="path18" d="M 0,55 55,55 55,0 0,0 0,55 Z"/></clipPath>
 <clipPath id="clipPath16" clipPathUnits="userSpaceOnUse"> <path id="path18" d="M 0,55 55,55 55,0 0,0 0,55 Z"/> </clipPath> 
<clipPath id="clipPath16" clipPathUnits="userSpaceOnUse"><path id="path18" d="M 0,55 55,55 55,0 0,0 0,55 Z"/></clipPath>
</defs>
<symbol id="icon_arrow-active" viewBox="0 0 14 23"><g><g transform="translate(-1503 -2290)"><g filter="url(#sq2mb)"><use fill="none" stroke="#38c998" stroke-opacity=".24" stroke-width="6.8" mask="url(&quot;#sq2mc&quot;)" xlink:href="#sq2ma"/><use fill="#38c998" fill-opacity=".24" xlink:href="#sq2ma"/></g><g filter="url(#sq2mb)"><use fill="none" stroke="#38c998" stroke-opacity=".24" stroke-width="6.8" mask="url(&quot;#sq2mc&quot;)" xlink:href="#sq2ma"/><use fill="#38c998" fill-opacity=".24" xlink:href="#sq2ma"/></g><use fill="#61f1a2" xlink:href="#sq2ma"/><use fill="#fff" fill-opacity="0" stroke="#81b1ff" stroke-miterlimit="50" stroke-width="4" clip-path="url(&quot;#sq2md&quot;)" xlink:href="#sq2ma"/></g></g></symbol>
<symbol id="icon_arrow-left" viewBox="0 0 14 23"><g><g transform="translate(-402 -2290)"><use fill="#fff" fill-opacity="0" stroke="#81b1ff" stroke-miterlimit="50" stroke-width="4" clip-path="url(&quot;#taxab&quot;)" xlink:href="#taxaa"/></g></g></symbol>
<symbol id="icon_icon-checkbox" viewBox="0 0 20 14"><g><g transform="translate(-534 -495)"><use fill="#1b2f94" xlink:href="#te3va"/></g></g></symbol>
<symbol id="icon_icon-error" viewBox="0 0 19 19"><g><g transform="translate(-1396 -423)"><use fill="#e21212" xlink:href="#e08ba"/></g></g></symbol>
<symbol id="icon_icon-play" viewBox="0 0 56 65"><g><g transform="translate(-1276 -341)"><use fill="#243995" xlink:href="#3wefa"/></g></g></symbol>
<symbol id="icon_icon-valid" viewBox="0 0 20 14"><g><g transform="translate(-1397 -340)"><use fill="#61f1a2" xlink:href="#kz8fa"/></g></g></symbol>
<symbol id="icon_logo" viewBox="0 0 113 56"><g/></symbol>
<symbol id="icon_vb" viewBox="0 0 68.75 68.75"><metadata id="metadata8"><rdf:RDF><cc:Work rdf:about=""><dc:format>image/svg+xml</dc:format><dc:type rdf:resource="http://purl.org/dc/dcmitype/StillImage"/></cc:Work></rdf:RDF></metadata><g transform="matrix(1.25,0,0,-1.25,0,68.75)" id="g10"><g id="g12"><g clip-path="url(#clipPath16)" id="g14"><g transform="translate(34.9932,17.3096)" id="g20"><path id="path22" style="fill:#263e98;fill-opacity:1;fill-rule:evenodd;stroke:none" d="m 0,0 c -0.481,0.146 -0.939,0.244 -1.365,0.421 -4.413,1.83 -8.473,4.192 -11.691,7.813 -1.829,2.059 -3.261,4.384 -4.471,6.843 -0.575,1.168 -1.058,2.38 -1.551,3.584 -0.449,1.098 0.213,2.233 0.91,3.061 0.655,0.775 1.496,1.37 2.407,1.808 0.712,0.342 1.414,0.144 1.934,-0.458 1.123,-1.304 2.156,-2.676 2.992,-4.187 0.513,-0.929 0.373,-2.066 -0.559,-2.699 -0.226,-0.154 -0.433,-0.334 -0.644,-0.508 -0.184,-0.153 -0.358,-0.306 -0.485,-0.512 -0.232,-0.378 -0.243,-0.822 -0.094,-1.232 1.149,-3.156 3.085,-5.611 6.262,-6.933 0.507,-0.212 1.018,-0.458 1.604,-0.39 0.98,0.116 1.299,1.192 1.985,1.753 0.672,0.55 1.531,0.557 2.255,0.098 C 0.212,8.005 0.914,7.513 1.611,7.016 2.296,6.528 2.99,6.04 3.609,5.494 4.229,4.95 4.566,4.561 4.083,3.533 3.6,2.505 2.547,1.099 1.233,0.393 0.862,0.193 0.419,0.129 0,0 -0.481,0.146 0.419,0.129 0,0 M -6.795,25.05 C -1.023,24.889 3.717,21.058 4.732,15.351 4.905,14.378 4.968,13.385 5.045,12.397 5.077,11.983 4.842,11.588 4.394,11.583 3.932,11.578 3.723,11.964 3.693,12.38 3.634,13.2 3.592,14.025 3.479,14.84 c -0.597,4.3 -4.026,7.857 -8.306,8.621 -0.644,0.115 -1.303,0.144 -1.955,0.213 -0.413,0.043 -0.952,0.069 -1.044,0.581 -0.076,0.431 0.286,0.772 0.695,0.794 0.112,0.006 0.224,0.002 0.336,0.001 5.772,-0.161 -0.112,10e-4 0,0 M 1.977,13.678 C 1.967,13.606 1.961,13.438 1.919,13.277 1.766,12.698 0.887,12.625 0.685,13.21 c -0.06,0.174 -0.069,0.372 -0.069,0.558 -0.003,1.223 -0.268,2.444 -0.885,3.507 -0.633,1.094 -1.601,2.013 -2.737,2.569 -0.686,0.336 -1.43,0.545 -2.181,0.67 -0.33,0.054 -0.662,0.088 -0.993,0.133 -0.4,0.056 -0.614,0.311 -0.595,0.706 0.017,0.369 0.289,0.636 0.691,0.613 1.324,-0.076 2.605,-0.362 3.782,-0.986 2.395,-1.267 3.762,-3.27 4.161,-5.942 0.019,-0.121 0.048,-0.241 0.057,-0.363 0.022,-0.3 0.036,-0.6 0.061,-0.997 -0.01,-0.072 -0.025,0.397 0,0 m -3.591,0.14 c -0.484,-0.008 -0.741,0.259 -0.791,0.702 -0.035,0.308 -0.062,0.621 -0.136,0.922 -0.146,0.591 -0.46,1.14 -0.957,1.502 -0.234,0.171 -0.501,0.296 -0.779,0.376 -0.356,0.102 -0.723,0.075 -1.077,0.161 -0.383,0.094 -0.595,0.405 -0.536,0.765 0.055,0.327 0.374,0.584 0.733,0.558 2.237,-0.162 3.837,-1.319 4.065,-3.953 0.016,-0.186 0.035,-0.383 -0.007,-0.561 -0.07,-0.304 -0.296,-0.457 -0.515,-0.472 -0.484,-0.008 0.219,0.015 0,0 m 17.59,8.793 C 14.657,28.24 10.675,32.121 4.857,33.35 -0.96,34.579 -11.557,34.7 -18.42,33.362 -24.627,32.15 -28.293,28.299 -29.578,22.668 -30.863,17.037 -30.801,8.586 -29.59,3.029 c 1.211,-5.557 6.128,-9.334 10.503,-10.583 l 0,-5.193 c 0,-1.879 2.291,-2.803 3.593,-1.445 l 5.261,5.467 c 1.141,-0.063 2.283,-0.099 3.424,-0.099 3.881,0 7.326,0.248 11.613,1.102 4.288,0.855 9.855,5.548 11.157,10.694 1.301,5.145 1.336,13.996 0.015,19.639"/></g></g></g></g></symbol>
<symbol id="icon_ws" viewBox="0 0 68.75 68.75">  <g transform="matrix(1.25,0,0,-1.25,0,68.75)" id="g10"> <g id="g12"> <g clip-path="url(#clipPath16)" id="g14"> <g transform="translate(39.3594,22.917)" id="g20"> <path id="path22" style="fill:#263e98;fill-opacity:1;fill-rule:evenodd;stroke:none" d="M 0,0 C -0.14,0.229 -0.51,0.367 -1.064,0.644 -1.621,0.919 -4.352,2.252 -4.859,2.436 -5.368,2.619 -5.739,2.711 -6.109,2.16 -6.479,1.608 -7.543,0.367 -7.867,0 c -0.324,-0.368 -0.649,-0.414 -1.204,-0.139 -0.555,0.276 -2.344,0.858 -4.465,2.735 -1.651,1.46 -2.766,3.263 -3.089,3.815 -0.324,0.551 -0.034,0.849 0.243,1.123 0.25,0.248 0.556,0.644 0.834,0.966 0.278,0.321 0.37,0.551 0.554,0.919 0.186,0.368 0.093,0.688 -0.046,0.966 -0.138,0.275 -1.251,2.986 -1.712,4.09 -0.463,1.102 -0.925,0.918 -1.249,0.918 -0.324,0 -0.695,0.047 -1.065,0.047 -0.371,0 -0.973,-0.138 -1.481,-0.69 -0.509,-0.551 -1.944,-1.884 -1.944,-4.595 0,-2.712 1.989,-5.331 2.268,-5.698 0.277,-0.368 3.84,-6.112 9.486,-8.319 5.646,-2.205 5.646,-1.47 6.664,-1.377 1.017,0.092 3.285,1.333 3.75,2.618 C 0.138,-1.333 0.138,-0.229 0,0 m 11.215,5.177 c 0,-12.415 -10.142,-22.48 -22.655,-22.48 -3.972,0 -7.705,1.017 -10.951,2.798 l -12.542,-3.985 4.089,12.06 c -2.063,3.387 -3.251,7.36 -3.251,11.607 0,12.416 10.143,22.48 22.655,22.48 12.513,0 22.655,-10.064 22.655,-22.48"/> </g></g></g></g></symbol>
<symbol id="icon_yt" viewBox="0 0 68.75 68.75"><metadata id="metadata8"><rdf:RDF><cc:Work rdf:about=""><dc:format>image/svg+xml</dc:format><dc:type rdf:resource="http://purl.org/dc/dcmitype/StillImage"/></cc:Work></rdf:RDF></metadata><g transform="matrix(1.25,0,0,-1.25,0,68.75)" id="g10"><g id="g12"><g clip-path="url(#clipPath16)" id="g14"><g transform="translate(27.5,50.5737)" id="g20"><path id="path22" style="fill:#263e98;fill-opacity:1;fill-rule:evenodd;stroke:none" d="m 0,0 c -12.723,0 -23.074,-10.351 -23.074,-23.073 0,-12.722 10.351,-23.074 23.074,-23.074 12.722,0 23.074,10.352 23.074,23.074 C 23.074,-10.351 12.724,0 0,0"/></g><g transform="translate(30.3965,23.2813)" id="g24"><path id="path26" style="fill:#ffffff;fill-opacity:1;fill-rule:evenodd;stroke:none" d="m 0,0 c 0.053,-0.135 0.095,-0.284 0.096,-0.429 0.007,-1.357 0.005,-2.716 0.003,-4.074 0,-0.077 -0.009,-0.155 -0.026,-0.23 -0.063,-0.301 -0.292,-0.437 -0.617,-0.37 -0.197,0.041 -0.351,0.155 -0.482,0.297 -0.006,0.007 -0.045,0.059 -0.045,0.059 l 0,0.113 -0.004,4.564 c 0,0 0.029,0.085 0.095,0.141 0.162,0.143 0.341,0.234 0.565,0.211 C -0.224,0.264 -0.071,0.176 0,0 m 5.248,-0.34 c 0,0.341 -0.275,0.616 -0.615,0.616 -0.341,0 -0.616,-0.275 -0.616,-0.616 l 0,-1.064 1.231,0 0,1.064 z m 1.263,-4.838 c 0.179,0.525 0.158,1.676 0.158,1.676 l -1.421,0 0,-0.975 c 0,-0.341 -0.275,-0.617 -0.615,-0.617 -0.341,0 -0.616,0.276 -0.616,0.617 l 0,1.897 2.645,0 c 0,0 0.015,1.323 0.004,1.923 C 6.662,-0.4 6.642,-0.141 6.59,0.109 6.453,0.759 6.104,1.248 5.45,1.464 5.258,1.526 5.052,1.56 4.85,1.572 4.178,1.615 3.589,1.423 3.129,0.908 2.726,0.457 2.585,-0.085 2.585,-0.674 2.582,-1.799 2.577,-2.925 2.588,-4.051 c 0.003,-0.286 0.036,-0.579 0.1,-0.858 0.141,-0.6 0.468,-1.07 1.045,-1.331 0.422,-0.191 0.869,-0.2 1.319,-0.134 0.724,0.106 1.219,0.495 1.459,1.196 M 1.407,-5.467 c -0.184,-0.554 -0.59,-0.838 -1.174,-0.831 -0.473,0.004 -0.858,0.193 -1.175,0.536 -0.036,0.038 -0.133,0.143 -0.133,0.143 l 0,-0.577 -1.383,0 0,10.278 1.383,0 0,-3.384 c 0,0 0.077,0.156 0.148,0.237 0.214,0.239 0.474,0.424 0.795,0.505 0.53,0.133 1.142,-0.031 1.433,-0.651 0.172,-0.366 0.22,-0.757 0.22,-1.153 0.002,-1.438 0.002,-2.874 0,-4.311 0,-0.268 -0.028,-0.534 -0.114,-0.792 m -5.246,2.925 0,3.936 -1.38,-0.004 0,-5.655 c 0,-0.047 0,-0.106 -0.027,-0.139 -0.177,-0.23 -0.388,-0.42 -0.666,-0.522 -0.24,-0.088 -0.433,0.02 -0.484,0.271 -0.02,0.097 -0.021,0.202 -0.021,0.303 0,1.865 -0.005,5.688 -0.008,5.734 l -1.375,0 c 0,-0.051 -0.003,-5.377 10e-4,-6.383 0.001,-0.272 0.029,-0.543 0.143,-0.796 0.122,-0.273 0.324,-0.447 0.625,-0.497 0.221,-0.038 0.436,-0.014 0.646,0.059 0.429,0.147 0.766,0.426 1.063,0.761 0.026,0.03 0.053,0.058 0.104,0.112 l 0,-0.835 1.379,0 0,3.655 z m -5.574,-3.655 0,8.808 1.616,0 0,1.47 -4.786,0 0,-1.474 1.612,0 0,-8.804 1.558,0 z M 5.205,6.454 C 7.08,6.414 8.578,4.882 8.578,3.008 l 0,-8.437 c 0,-1.875 -1.498,-3.407 -3.373,-3.447 -5.399,-0.115 -10.803,-0.115 -16.205,0 -1.874,0.04 -3.372,1.572 -3.372,3.447 l 0,8.437 c 0,1.874 1.498,3.406 3.372,3.446 5.402,0.115 10.806,0.115 16.205,0 M 0.096,-0.429 c 0.007,-1.357 0.005,-2.716 0.003,-4.074 0,-0.077 -0.009,-0.155 -0.026,-0.23 -0.063,-0.301 -0.292,-0.437 -0.617,-0.37 -0.197,0.041 -0.351,0.155 -0.482,0.297 -0.006,0.007 -0.045,0.059 -0.045,0.059 l 0,0.113 -0.004,4.564 c 0,0 0.029,0.085 0.095,0.141 0.162,0.143 0.341,0.234 0.565,0.211 C -0.224,0.265 -0.071,0.176 0,0 0.053,-0.135 0.095,-0.284 0.096,-0.429 m 0,0 C 0.095,-0.284 0.053,-0.135 0,0 -0.071,0.176 -0.224,0.265 -0.415,0.282 -0.639,0.305 -0.818,0.214 -0.98,0.071 -1.046,0.015 -1.075,-0.07 -1.075,-0.07 l 0.004,-4.564 0,-0.113 c 0,0 0.039,-0.052 0.045,-0.059 0.131,-0.142 0.285,-0.256 0.482,-0.297 0.325,-0.067 0.554,0.069 0.617,0.37 0.017,0.075 0.026,0.153 0.026,0.23 0.002,1.358 0.004,2.717 -0.003,4.074"/></g><g transform="translate(33.9277,39.4888)" id="g28"><path id="path30" style="fill:#ffffff;fill-opacity:1;fill-rule:evenodd;stroke:none" d="m 0,0 0,-7.631 -1.414,0 10e-4,0.82 c -0.156,-0.154 -0.289,-0.298 -0.437,-0.427 -0.258,-0.229 -0.553,-0.4 -0.898,-0.467 -0.528,-0.104 -0.979,0.064 -1.148,0.611 -0.055,0.183 -0.089,0.38 -0.091,0.57 l 0,6.524 1.403,0 0,-5.819 c 0,-0.077 0.007,-0.155 0.021,-0.231 0.042,-0.24 0.219,-0.352 0.45,-0.273 0.281,0.098 0.497,0.293 0.678,0.523 0.027,0.033 0.022,0.094 0.022,0.142 L -1.413,0 0,0 Z"/></g><g transform="translate(22.2334,38.1626)" id="g32"><path id="path34" style="fill:#ffffff;fill-opacity:1;fill-rule:evenodd;stroke:none" d="m 0,0 c -0.308,1.294 -0.95,4.025 -0.95,4.025 l -1.61,0 c 0,0 1.237,-4.1 1.79,-5.928 0.02,-0.067 0.028,-0.138 0.028,-0.207 l 0,-4.193 1.484,0 -0.001,4.193 c 0,0.069 0.009,0.141 0.029,0.207 0.553,1.828 1.789,5.928 1.789,5.928 l -1.608,0 C 0.951,4.025 0.307,1.294 0,0 Z"/></g><g transform="translate(27.3135,33.6133)" id="g36"><path id="path38" style="fill:#ffffff;fill-opacity:1;fill-rule:evenodd;stroke:none" d="m 0,0 c 0,-0.322 -0.262,-0.584 -0.584,-0.584 -0.322,0 -0.584,0.262 -0.584,0.584 l 0,4.123 c 0,0.321 0.262,0.583 0.584,0.583 C -0.262,4.706 0,4.444 0,4.123 L 0,0 Z m -0.584,6.066 0,0 c -1.119,0 -2.025,-0.906 -2.025,-2.024 l 0,-3.962 c 0,-1.119 0.906,-2.025 2.025,-2.025 1.118,0 2.024,0.906 2.024,2.025 l 0,3.962 c 0,1.118 -0.906,2.024 -2.024,2.024"/></g></g></g></g></symbol>
</svg>