<svg version="1" xmlns="http://www.w3.org/2000/svg" width="1866.667" height="1866.667" viewBox="0 0 1400.000000 1400.000000"><path d="M668.9 22.4c-.2.2-6.2.7-13.4 1-7.1.4-14.1.9-15.5 1-1.4.2-6.1.7-10.5 1.1-4.4.3-11.4 1.1-15.5 1.6-4.1.6-9.1 1.2-11 1.5-1.9.2-8 1.1-13.5 2-5.5.9-10.7 1.7-11.5 1.9-.8.1-2.8.5-4.5.8-1.6.4-4.4.9-6.2 1.2-21.1 3.4-61.9 14.3-91.6 24.5-35.4 12-76.8 30.4-108.2 47.8-52 28.9-99.8 64-141.9 104.2-38.1 36.4-69.1 73.3-98.1 117C88 387.4 57.9 452.2 39.3 518c-4.4 15.3-14 56.3-14.8 63.4-.4 2.8-.8 5.3-1 5.6-.2.3-.6 3-1 6s-.8 5.7-1 6c-.3.5-1.4 7.6-2 13-.3 2.8-1.3 11-1.9 15.5-.2 1.6-.7 6.6-1.1 11-.4 4.4-.9 8.8-1.1 9.9-1.8 9.8-2.6 79.9-1.1 100.6 1.4 19.2 1.7 22.5 2.2 27 .4 3.8 2.9 23.5 4 32 .4 3.2 2.4 15.8 3.1 19 .2 1.4 1.1 6.1 1.9 10.4.8 4.3 1.7 8.6 1.9 9.5.3.9.8 3.2 1.1 5.1.6 3.5 5.6 24.4 7.5 31 5.7 20.7 14 47.2 15.9 51.5.5 1.1 1.5 3.8 2.2 6 .6 2.2 2 5.8 2.9 8 1 2.2 3.3 7.8 5.1 12.5 11.5 29.8 33.8 74.3 52.4 104.3 17.3 27.9 47.3 68.9 64.7 88.3 10.4 11.6 14.1 15.6 21.3 23.2 27.4 28.8 53.8 52.5 84 75.4 11.4 8.7 31.3 22.8 32 22.8.2 0 3.2 2 6.7 4.4 6.3 4.3 25.3 16.1 33.8 20.8 2.5 1.4 7.4 4.2 11 6.3 17.4 9.9 51.3 25.9 76.8 36.1 30.7 12.4 81.9 28.1 106.8 32.8 26.1 4.9 40.9 7.6 45.4 8.1 3 .4 5.7.8 6 1 .3.2 3.4.6 7 1 3.6.3 8.3.8 10.5 1.1 8.9 1.1 12.3 1.4 18 1.8 3.3.3 10.3.8 15.5 1.2 19.1 1.6 93 .8 102.8-1.1.9-.1 5.5-.6 10.2-1 4.7-.3 9.2-.8 10-1 .8-.2 4.4-.7 8-1 3.6-.4 11.5-1.5 17.5-2.5 6.1-1 13-2.1 15.5-2.5 2.5-.4 8.8-1.6 14-2.7 5.2-1 10.6-2.2 12-2.4 1.4-.3 3.2-.7 4-.9.8-.2 2.9-.7 4.5-.9 7.7-1.4 43-11.4 61.5-17.5 43.9-14.6 93-36.5 125-56 1.9-1.1 4.2-2.4 5-2.8 8.6-4.1 48.5-30.6 65-43.2 33.3-25.5 59.9-49.2 87-77.7 72.1-75.9 126.2-168.9 157.4-270.4 3-9.8 8.4-29.2 9-32.5.1-.6.5-1.9.9-3 .3-1.1.8-3.1 1.1-4.5.2-1.4 1.4-6.8 2.6-12 3.3-14.7 7-35 8.6-46.5.2-1.7.6-4.1.8-5.5.3-1.4.8-5.4 1.2-9 .3-3.6.7-7.2.9-8.1.2-.8.6-4.9 1-9 .3-4.1.8-8.5 1-9.9 2.7-17.5 2.7-92.8 0-118-.2-1.9-.6-6.4-1-10-1.3-13.7-1.6-16.6-2-19-.5-2.3-.7-4.3-2-14.5-.3-2.2-.7-5.1-1-6.5-.3-1.4-.9-5-1.5-8-3-17.7-5.4-29.3-10.1-48.5-.5-2.2-1.2-5-1.4-6.3-3.8-16.9-19-62.7-28.2-85.2-11.4-27.8-30.7-67.4-40-82.2-1.2-2.1-2.3-4.1-2.3-4.4 0-.4-1-2.1-2.3-3.8-1.3-1.7-2.7-3.9-3-5-2-5.4-36.2-54.8-49.8-72-4.7-5.9-24.5-29.3-28.4-33.6-24.8-27-47.1-48.5-69.5-67-4.1-3.4-8.4-7-9.5-7.9-3.9-3.2-24.1-18.7-31-23.8-8.3-6-35.6-24-46.9-30.8-16.1-9.6-26.3-15.2-48.6-26.3-37.4-18.7-74.5-33.1-116-45-10-2.9-36.7-9.6-42-10.6-1.4-.2-5.8-1.2-9.7-2-4-.9-8.7-1.8-10.5-2.1-4.7-.8-8.9-1.5-12.3-2.1-1.6-.2-4.1-.6-5.5-.9-1.4-.3-4.7-.7-7.5-1.1-2.7-.3-5.9-.8-7-1-4.8-.9-23.7-3-35.5-3.9-4.1-.4-10-.9-13-1.1-6.2-.6-73.6-1.5-74.1-1z"/></svg>