<svg xmlns="http://www.w3.org/2000/svg" xmlns:xlink="http://www.w3.org/1999/xlink" width="281" height="231" viewBox="0 0 281 231"><defs><path id="a" d="M699.58 392.93c-16.95-.2-20.33-8.21-31.63-14.63-21.62-12.3-29.17-7.47-67.77-32.64-4.08-2.66-22.9-5.42-22.6-5.63 9.77-6.7 11.26-8.37 14.58-14.22 2.1-3.72-3.8-9.16-17.97-1.54-.04.03 12.7-19.9 15.82-23.64 3.26-3.9-14.5-1.26-13.56-2.25 9.05-9.43 15.07-21.7 22.15-27.03 26.9-20.27 55.8-33.45 91.95-38.25 3.46-.46 6.72.52 9.9 1.79 2.18-1.25 4.48-2.02 7.04-1.68 36.16 4.79 65.06 17.93 91.95 38.16 7.08 5.33 13.1 17.57 22.15 26.98.94.98-16.82-1.65-13.56 2.24 3.13 3.73 15.86 23.61 15.81 23.59-14.16-7.6-20.07-2.18-17.96 1.53 3.32 5.83 4.81 7.51 14.58 14.19.3.21-18.52 2.96-22.6 5.62-31.5 20.5-50.23 24.42-63.81 30.92-9.34 6.8-15.97 16.71-34.47 16.5z"/><path id="b" d="M646.8 284.48c26.5 1.75 37.47 12.07 48.04 20.19.95.72 2.48-24.26 3.57-42.03.45-10.48.85-18.02 1.03-17.09l.07.53.07-.6c.16-.85.5 5.36.86 14.42 1.1 17.8 2.74 45.57 3.74 44.8 10.54-8.1 21.5-18.42 47.94-20.17 22.32-1.47 65.51 59.12 78.12 54.4 5.02-1.9-44.2 31.06-55.25 31.49-.6.02 17.44-17.53 16.9-22.5-1.16-10.94-34.05-20.65-57.9-16.46-26.85 4.73-29.51-12.44-33.04-16.36-.52-.44-.97-.7-1.38-.78-.53-.02-1.12.25-1.84.89-3.4 4.17-6.17 20.9-32.76 16.23-23.89-4.2-56.85 5.52-58.02 16.47-.53 4.97 17.54 22.53 16.95 22.51-11.07-.43-60.38-33.4-55.35-31.52 12.62 4.73 55.9-55.89 78.26-54.42z"/><path id="c" d="M796.04 177.77c17.62 6.55 21.76 55.28 12.78 79.59-8.98 24.3-29.8 14.5-45.53 8.75s-36.94-11.5-27.96-35.81c8.99-24.31 43.59-58.9 60.71-52.53z"/><path id="d" d="M607.4 185.47c-17.62 6.53-21.76 55.08-12.78 79.3 8.97 24.22 29.78 14.45 45.5 8.72 15.73-5.73 36.93-11.46 27.95-35.68-8.98-24.23-43.56-58.69-60.68-52.34z"/><path id="e" d="M796.24 184.25c15.38 5.76 19 48.6 11.16 69.97-7.84 21.37-26.01 12.75-39.75 7.7-13.73-5.06-32.24-10.12-24.4-31.49 7.84-21.37 38.04-51.78 52.99-46.18z"/><path id="f" d="M606.62 192.04c-13.4 5-16.55 42.12-9.72 60.64 6.83 18.52 22.66 11.05 34.62 6.67 11.96-4.38 28.08-8.77 21.25-27.29-6.83-18.52-33.13-44.87-46.15-40.02z"/><path id="g" d="M699.58 355.79c6.23 0 12.74 1.77 11.3 6.75-1.08 3.75-7.25 11.26-11.3 11.26-4 0-8.41-7.6-10.16-11.26-.87-1.82.04-6.75 10.16-6.75z"/></defs><g transform="translate(-559 -168)"><use fill="#fff" xlink:href="#a"/><use fill="#2d2d2d" xlink:href="#b"/><use fill="#fff" xlink:href="#c"/><use fill="#fff" xlink:href="#d"/><g><use fill="#2d2d2d" xlink:href="#e"/></g><g><use fill="#2d2d2d" xlink:href="#f"/></g><g><use fill="#292b28" xlink:href="#g"/></g></g></svg>