<svg xmlns="http://www.w3.org/2000/svg" xmlns:xlink="http://www.w3.org/1999/xlink" width="129" height="42" viewBox="0 0 129 42"><defs><path id="a" d="M156 59v-2h69v2z"/><path id="b" d="M121.75 70.9c-2.2-.02-2.65-1.07-4.12-1.9-2.82-1.6-3.8-.98-8.83-4.26-.53-.35-2.99-.7-2.95-.74 1.28-.87 1.47-1.09 1.9-1.85.28-.48-.5-1.2-2.34-.2 0 0 1.66-2.6 2.06-3.08.43-.51-1.89-.17-1.76-.3 1.18-1.23 1.96-2.83 2.88-3.52a24.56 24.56 0 0 1 11.98-5c.45-.05.88.08 1.3.24.28-.16.58-.26.91-.22 4.71.63 8.48 2.34 11.98 4.98.92.7 1.7 2.3 2.89 3.52.12.13-2.2-.22-1.77.3.4.48 2.07 3.07 2.06 3.07-1.85-1-2.61-.29-2.34.2.43.76.63.98 1.9 1.85.04.03-2.41.38-2.94.73-4.11 2.67-6.55 3.19-8.32 4.03-1.22.89-2.08 2.18-4.49 2.15z"/><path id="c" d="M114.87 56.76c3.46.23 4.89 1.57 6.26 2.63.13.1.33-3.16.47-5.48a23.33 23.33 0 0 1 .15-2.24c.02-.1.06.7.11 1.89.14 2.32.36 5.94.49 5.84 1.37-1.06 2.8-2.4 6.25-2.63 2.9-.2 8.53 7.7 10.17 7.09.66-.25-5.76 4.05-7.2 4.1-.07.01 2.28-2.28 2.2-2.93-.14-1.42-4.43-2.69-7.54-2.14-3.5.61-3.84-1.62-4.3-2.14a.41.41 0 0 0-.18-.1c-.07 0-.15.03-.24.12-.44.54-.8 2.72-4.27 2.11-3.11-.54-7.4.72-7.56 2.15-.07.65 2.29 2.94 2.2 2.94-1.43-.06-7.86-4.36-7.2-4.11 1.64.61 7.28-7.3 10.2-7.1z"/><path id="d" d="M134.32 42.84c2.3.86 2.83 7.21 1.66 10.38-1.17 3.17-3.88 1.9-5.93 1.14-2.05-.75-4.81-1.5-3.64-4.67 1.17-3.17 5.68-7.68 7.9-6.85z"/><path id="e" d="M109.74 43.85c-2.3.85-2.84 7.18-1.67 10.34s3.88 1.88 5.93 1.14c2.05-.75 4.81-1.5 3.64-4.66-1.17-3.16-5.67-7.65-7.9-6.82z"/><path id="f" d="M134.34 43.69c2 .75 2.48 6.34 1.46 9.12-1.02 2.79-3.4 1.67-5.18 1-1.79-.65-4.2-1.31-3.18-4.1 1.02-2.79 4.96-6.75 6.9-6.02z"/><path id="g" d="M109.64 44.7c-1.75.65-2.16 5.5-1.27 7.91.9 2.42 2.95 1.44 4.51.87 1.56-.57 3.66-1.14 2.77-3.56-.89-2.41-4.32-5.85-6.01-5.22z"/><path id="h" d="M121.75 66.06c.81 0 1.66.23 1.47.88-.14.49-.94 1.47-1.47 1.47-.52 0-1.1-1-1.32-1.47-.12-.24 0-.88 1.32-.88z"/></defs><g transform="translate(-100 -35)"><use fill="#fff" xlink:href="#a"/><use fill="#fff" xlink:href="#b"/><use fill="#2d2d2d" xlink:href="#c"/><use fill="#fff" xlink:href="#d"/><use fill="#fff" xlink:href="#e"/><g><use fill="#2d2d2d" xlink:href="#f"/></g><g><use fill="#2d2d2d" xlink:href="#g"/></g><g><use fill="#292b28" xlink:href="#h"/></g><g><text fill="#ececec" dominant-baseline="text-before-edge" font-family="Helvetica, Arial, sans-serif" font-size="20" font-style="none" font-weight="400" transform="translate(156 51)"><tspan letter-spacing="8.4" style="font-kerning:normal">Е</tspan><tspan letter-spacing="8.4" style="font-kerning:normal">НОТ</tspan></text></g></g></svg>