<svg xmlns="http://www.w3.org/2000/svg" xmlns:xlink="http://www.w3.org/1999/xlink" width="258" height="257" viewBox="0 0 258 257" id="dote-yellow"><defs><path id="21wna" d="M1021.5 2942a18.5 18.5 0 1 1 0 37 18.5 18.5 0 0 1 0-37z"/><path id="21wne" d="M1021.5 2948a12.5 12.5 0 1 1 0 25 12.5 12.5 0 0 1 0-25z"/><path id="21wnf" d="M1021.5 2956a4.5 4.5 0 1 1 0 9 4.5 4.5 0 0 1 0-9z"/><mask id="21wnc" width="4.01" height="4.01" x="-2" y="-2"><path fill="#fff" d="M965.9 2904.9h111.2v111.2H965.9z"/><use xlink:href="#21wna"/></mask><filter id="21wnb" width="275" height="275" x="884" y="2823" filterUnits="userSpaceOnUse"><feOffset in="SourceGraphic" result="FeOffset1213Out"/><feGaussianBlur in="FeOffset1213Out" result="FeGaussianBlur1214Out" stdDeviation="28.76 28.76"/></filter><clipPath id="21wnd"><use fill="#fff" xlink:href="#21wna"/></clipPath></defs><g><g transform="translate(-892 -2832)"><g><g filter="url(#21wnb)"><use fill="none" stroke="#ffd554" stroke-width="74.2" mask="url(&quot;#21wnc&quot;)" xlink:href="#21wna"/><use fill="#ffd554" xlink:href="#21wna"/></g><use fill="#fff" fill-opacity="0" stroke="#f6e45d" stroke-miterlimit="50" stroke-width="4" clip-path="url(&quot;#21wnd&quot;)" xlink:href="#21wna"/></g><g><use fill="#fff" xlink:href="#21wne"/></g><g><use fill="#ffe65c" xlink:href="#21wnf"/></g></g></g></svg>