<svg xmlns="http://www.w3.org/2000/svg" xmlns:xlink="http://www.w3.org/1999/xlink" width="258" height="258" id="dote-green" viewBox="0 0 258 258"><defs><path id="1vp0a" d="M547.5 2983a18.5 18.5 0 1 1 0 37 18.5 18.5 0 0 1 0-37z"/><path id="1vp0b" d="M547.5 2989a12.5 12.5 0 1 1 0 25 12.5 12.5 0 0 1 0-25z"/><path id="1vp0f" d="M547.5 2997a4.5 4.5 0 1 1 0 9 4.5 4.5 0 0 1 0-9z"/><mask id="1vp0d" width="4.01" height="4.01" x="-2" y="-2"><path fill="#fff" d="M491.9 2945.9h111.2v111.2H491.9z"/><use xlink:href="#1vp0a"/></mask><filter id="1vp0c" width="275" height="275" x="410" y="2864" filterUnits="userSpaceOnUse"><feOffset in="SourceGraphic" result="FeOffset1155Out"/><feGaussianBlur in="FeOffset1155Out" result="FeGaussianBlur1156Out" stdDeviation="28.76 28.76"/></filter><clipPath id="1vp0e"><use fill="#fff" xlink:href="#1vp0a"/></clipPath></defs><g><g transform="translate(-418 -2872)"><g><use fill="#25b577" xlink:href="#1vp0b"/></g><g><g filter="url(#1vp0c)"><use fill="none" stroke="#25b577" stroke-width="74.2" mask="url(&quot;#1vp0d&quot;)" xlink:href="#1vp0a"/><use fill="#25b577" xlink:href="#1vp0a"/></g><use fill="#fff" fill-opacity="0" stroke="#29dc8f" stroke-miterlimit="50" stroke-width="4" clip-path="url(&quot;#1vp0e&quot;)" xlink:href="#1vp0a"/></g><g><use fill="#fff" xlink:href="#1vp0f"/></g></g></g></svg>