<?xml version="1.0" encoding="UTF-8"?>
<!DOCTYPE svg PUBLIC "-//W3C//DTD SVG 1.1//EN" "http://www.w3.org/Graphics/SVG/1.1/DTD/svg11.dtd">
<!-- Creator: CorelDRAW X6 -->
<svg xmlns="http://www.w3.org/2000/svg" xml:space="preserve" version="1.1" style="shape-rendering:geometricPrecision; text-rendering:geometricPrecision; image-rendering:optimizeQuality; fill-rule:evenodd; clip-rule:evenodd"
viewBox="0 0 266 269"
 xmlns:xlink="http://www.w3.org/1999/xlink">
 <defs>
  <style type="text/css">
   <![CDATA[
    .str1 {stroke:#FEFEFE;stroke-width:6.20915;stroke-linecap:round;stroke-linejoin:round}
    .str0 {stroke:#0A0A0A;stroke-width:6.20915;stroke-linecap:round;stroke-linejoin:round}
    .fil1 {fill:none}
    .fil0 {fill:#25B577}
   ]]>
  </style>
 </defs>
 <g id="Layer_x0020_1">
  <metadata id="CorelCorpID_0Corel-Layer"/>
  <circle class="fil0" cx="129" cy="128" r="105"/>
  <g id="_710917984">
   <path class="fil1 str0" d="M26 144c0,-3 0,-6 0,-9 0,-9 1,-17 2,-25m4 -13c6,-15 15,-29 26,-40m12 -11c19,-13 41,-21 66,-21 48,0 89,31 104,74m4 15c1,7 2,14 2,21 0,61 -49,110 -110,110 -53,0 -98,-37 -108,-87"/>
   <path class="fil1 str0" d="M80 191c-1,-2 -2,-5 -3,-8m-2 -11c-3,-11 -4,-24 -4,-37 0,-61 29,-110 65,-110 27,0 50,28 59,68m3 12c1,4 1,8 1,11m1 17c0,1 0,1 0,2 0,61 -29,110 -64,110 -21,0 -40,-17 -52,-44"/>
   <line class="fil1 str1" x1="30" y1="57" x2="76" y2= "57" />
   <line class="fil1 str1" x1="90" y1="57" x2="110" y2= "57" />
   <line class="fil1 str0" x1="161" y1="57" x2="181" y2= "57" />
   <line class="fil1 str0" x1="194" y1="57" x2="240" y2= "57" />
   <line class="fil1 str0" x1="217" y1="99" x2="263" y2= "99" />
   <line class="fil1 str1" x1="53" y1="99" x2="99" y2= "99" />
   <line class="fil1 str1" x1="5" y1="144" x2="51" y2= "144" />
   <line class="fil1 str1" x1="213" y1="180" x2="259" y2= "180" />
   <line class="fil1 str0" x1="195" y1="214" x2="245" y2= "214" />
   <line class="fil1 str0" x1="25" y1="214" x2="77" y2= "214" />
   <line class="fil1 str0" x1="3" y1="214" x2="13" y2= "214" />
   <line class="fil1 str0" x1="91" y1="214" x2="112" y2= "214" />
   <line class="fil1 str1" x1="181" y1="144" x2="199" y2= "144" />
   <line class="fil1 str1" x1="242" y1="144" x2="255" y2= "144" />
   <line class="fil1 str0" x1="82" y1="39" x2="82" y2= "13" />
   <line class="fil1 str0" x1="188" y1="37" x2="188" y2= "3" />
   <line class="fil1 str0" x1="213" y1="57" x2="213" y2= "23" />
   <line class="fil1 str0" x1="136" y1="40" x2="136" y2= "25" />
   <line class="fil1 str1" x1="136" y1="264" x2="136" y2= "230" />
   <line class="fil1 str0" x1="82" y1="266" x2="82" y2= "231" />
   <line class="fil1 str1" x1="59" y1="248" x2="59" y2= "231" />
   <line class="fil1 str0" x1="213" y1="240" x2="213" y2= "214" />
   <line class="fil1 str1" x1="213" y1="262" x2="213" y2= "252" />
   <line class="fil1 str1" x1="136" y1="96" x2="136" y2= "82" />
   <line class="fil1 str1" x1="136" y1="184" x2="136" y2= "169" />
   <path class="fil1 str1" d="M155 118c0,-23 -39,-23 -39,0 0,26 39,5 39,34 0,22 -41,25 -41,-2"/>
  </g>
 </g>
</svg>
