<?xml version="1.0" encoding="UTF-8"?>
<!DOCTYPE svg PUBLIC "-//W3C//DTD SVG 1.1//EN" "http://www.w3.org/Graphics/SVG/1.1/DTD/svg11.dtd">
<!-- Creator: CorelDRAW X6 -->
<svg xmlns="http://www.w3.org/2000/svg" xml:space="preserve" version="1.1" style="shape-rendering:geometricPrecision; text-rendering:geometricPrecision; image-rendering:optimizeQuality; fill-rule:evenodd; clip-rule:evenodd"
viewBox="0 0 781 780"
 xmlns:xlink="http://www.w3.org/1999/xlink">
 <defs>
  <style type="text/css">
   <![CDATA[
    .str1 {stroke:#FEFEFE;stroke-width:17.8794;stroke-linecap:round;stroke-linejoin:round}
    .str0 {stroke:#0A0A0A;stroke-width:17.8794;stroke-linecap:round;stroke-linejoin:round}
    .fil1 {fill:none}
    .fil0 {fill:#25B577}
   ]]>
  </style>
 </defs>
 <g id="Layer_x0020_1">
  <metadata id="CorelCorpID_0Corel-Layer"/>
  <circle class="fil0" cx="399" cy="372" r="303"/>
  <g id="_710915456">
   <g>
    <path class="fil1 str0" d="M222 417c-79,0 -162,77 -174,155l-15 95c-4,26 21,48 47,48l208 0m93 0l206 0c26,0 52,-22 48,-48l-15 -95c-12,-78 -94,-155 -173,-155"/>
    <path class="fil1 str1" d="M375 667l-22 -189 -36 0 -29 237m23 25l27 31 43 -56"/>
    <polyline class="fil1 str0" points="222,417 255,404 317,478 265,521 234,447 "/>
    <polygon class="fil1 str0" points="447,417 414,404 353,478 405,521 "/>
    <path class="fil1 str0" d="M255 404c10,-8 7,-21 5,-39"/>
    <path class="fil1 str0" d="M414 404c-9,-8 -7,-21 -4,-39"/>
    <path class="fil1 str0" d="M250 132c-8,12 -7,27 -6,43 -10,-8 -21,-17 -31,-25 -4,27 -1,54 4,81 -11,-5 -9,-6 -20,-11 -20,-53 -36,-123 14,-148 112,-140 195,0 298,-17 13,91 -40,130 -95,131 -39,3 -70,-3 -96,-14"/>
    <path class="fil1 str0" d="M312 170c28,12 60,19 102,16 18,0 35,-4 49,-12m0 58c-9,95 -63,168 -129,168 -67,0 -122,-77 -130,-175l13 6c-4,-27 -8,-54 -4,-81 11,8 21,17 32,25 -2,-16 -2,-31 6,-43"/>
   </g>
   <line class="fil1 str1" x1="616" y1="362" x2="772" y2= "362" />
   <line class="fil1 str0" x1="531" y1="313" x2="619" y2= "313" />
   <line class="fil1 str0" x1="657" y1="313" x2="683" y2= "313" />
   <line class="fil1 str1" x1="531" y1="263" x2="675" y2= "263" />
   <line class="fil1 str1" x1="711" y1="263" x2="772" y2= "263" />
   <line class="fil1 str1" x1="720" y1="313" x2="772" y2= "313" />
   <line class="fil1 str1" x1="531" y1="362" x2="577" y2= "362" />
   <g>
    <line class="fil1 str1" x1="90" y1="115" x2="90" y2= "179" />
    <line class="fil1 str1" x1="122" y1="147" x2="58" y2= "147" />
   </g>
   <g>
    <line class="fil1 str1" x1="639" y1="186" x2="667" y2= "215" />
    <line class="fil1 str1" x1="667" y1="186" x2="639" y2= "215" />
   </g>
   <g>
    <line class="fil1 str1" x1="87" y1="352" x2="9" y2= "430" />
    <line class="fil1 str1" x1="87" y1="430" x2="9" y2= "352" />
   </g>
   <g>
    <line class="fil1 str1" x1="731" y1="574" x2="731" y2= "638" />
    <line class="fil1 str1" x1="763" y1="606" x2="699" y2= "606" />
   </g>
   <path class="fil1 str0" d="M291 323c31,14 57,13 80,0"/>
   <path class="fil1 str0" d="M317 292c11,5 20,4 29,0l-10 -38"/>
   <path class="fil1 str0" d="M296 229c-13,-10 -23,-6 -32,0"/>
   <path class="fil1 str0" d="M402 229c-12,-10 -22,-6 -32,0"/>
   <path class="fil1 str1" d="M471 100c-104,-11 -139,-63 -199,-30"/>
   <line class="fil1 str1" x1="164" y1="571" x2="150" y2= "632" />
   <line class="fil1 str0" x1="500" y1="571" x2="513" y2= "632" />
  </g>
 </g>
</svg>
