<?xml version="1.0" encoding="UTF-8"?>
<svg width="300px" height="300px" viewBox="0 0 300 300" version="1.1" xmlns="http://www.w3.org/2000/svg" xmlns:xlink="http://www.w3.org/1999/xlink">
    <!-- Generator: sketchtool 48.2 (47327) - http://www.bohemiancoding.com/sketch -->
    <title>9B25CA8E-6F81-4758-B2B7-4C1F46F6B1C6</title>
    <desc>Created with sketchtool.</desc>
    <defs></defs>
    <g id="Symbols" stroke="none" stroke-width="1" fill="none" fill-rule="evenodd">
        <g id="logo_team/Нефтехимик">
            <g id="Group" transform="translate(0.000000, 13.000000)">
                <path d="M101.631579,180.115789 C81.9894737,180.115789 63.1789474,174.305263 46.8,163.105263 C45.8421053,162.457895 44.8473684,161.747368 43.7526316,160.931579 L45.0578947,159.173684 C46.1263158,159.973684 47.1,160.663158 48.0263158,161.3 C84.8842105,186.489474 133.910526,182.989474 167.257895,152.784211 L168.731579,154.410526 C152.742105,168.884211 131.989474,177.878947 110.284211,179.736842 C107.378947,179.984211 104.494737,180.115789 101.631579,180.115789" id="Fill-221" fill="#1F3E85"></path>
                <path d="M42.1842105,159.763158 L40.0947368,159.110526 C48.1894737,133.147368 66.0315789,111.368421 90.3315789,97.7842105 C97.5210526,93.7684211 105.184211,90.5368421 113.105263,88.1894737 L113.726316,90.2842105 C105.957895,92.5894737 98.4473684,95.7578947 91.3947368,99.6947368 C67.5894737,113.005263 50.1105263,134.336842 42.1842105,159.763158" id="Fill-222" fill="#1F3E85"></path>
                <path d="M46.0421053,159.768421 L44.0684211,158.821053 L44.9631579,156.957895 C60.7684211,117.478947 83.0263158,99.8894737 129.994737,89.7947368 L130.457895,91.9263158 C84.3263158,101.847368 62.4842105,119.089474 46.9631579,157.836842 L46.0421053,159.768421" id="Fill-223" fill="#1F3E85"></path>
                <path d="M118.236842,183.068421 C105.426316,183.068421 92.3578947,180.773684 80.1842105,176.221053 C57.6315789,167.8 39.5631579,152.368421 29.3105263,132.794737 L31.2473684,131.778947 C53.6578947,174.557895 106.873684,188.421053 145.378947,177.105263 L146,179.210526 C137.210526,181.789474 127.794737,183.068421 118.236842,183.068421" id="Fill-224" fill="#1F3E85"></path>
                <path d="M69.4210526,155.478947 L67.4684211,154.494737 C76.6315789,136.336842 89.6105263,122.989474 103.073684,117.863158 L103.852632,119.9 C90.8894737,124.842105 78.3421053,137.805263 69.4210526,155.478947 M73.0684211,158.089474 L71.1105263,157.105263 C80.2789474,138.942105 93.2578947,125.594737 106.721053,120.473684 L107.5,122.510526 C94.5368421,127.452632 81.9894737,140.415789 73.0684211,158.089474" id="Fill-225" fill="#1F3E85"></path>
                <path d="M202.6,103.126316 L200.431579,102.810526 C207.242105,55.7473684 196.789474,34.2315789 170.768421,3.81052632 L172.431579,2.37894737 C198.357895,32.7052632 209.494737,55.5157895 202.6,103.126316" id="Fill-226" fill="#1F3E85"></path>
                <path d="M114.089474,98.8 C113.142105,76.3473684 122.789474,52.4368421 140.552632,33.2 C157.984211,14.3210526 180.768421,3.02105263 203.057895,2.18947368 L203.142105,4.37368421 C181.426316,5.18421053 159.2,16.2315789 142.163158,34.6842105 C124.789474,53.4947368 115.352632,76.8368421 116.273684,98.7157895 L114.089474,98.8" id="Fill-227" fill="#1F3E85"></path>
                <path d="M119.578836,101.021053 C119.510526,61.3315789 150.9,22.1421053 192.615789,9.85789474 L193.236842,11.9578947 C152.421053,23.9736842 121.7,62.2631579 121.768421,101.015789 L119.578836,101.021053" id="Fill-228" fill="#1F3E85"></path>
                <path d="M206.757895,111.063158 L204.605263,110.636842 C211.884211,74.0631579 207.373684,62 199.894737,42.0157895 L199.294737,40.3842105 L201.336842,39.6210526 L201.952632,41.2473684 C209.557895,61.5947368 214.152632,73.8789474 206.757895,111.063158" id="Fill-229" fill="#1F3E85"></path>
                <path d="M185.468421,103.089474 L183.310526,102.742105 C187.610526,75.9052632 184.868421,65.7789474 175.910526,43.6842105 L177.942105,42.8684211 C186.878947,64.9210526 189.842105,75.8263158 185.468421,103.089474" id="Fill-230" fill="#1F3E85"></path>
                <path d="M179.815789,94.8631579 L177.657895,94.4842105 C182.068421,69.4368421 178.494737,58.9210526 167.936842,37.3526316 L169.905263,36.3842105 C180.689474,58.4315789 184.336842,69.1842105 179.815789,94.8631579" id="Fill-231" fill="#1F3E85"></path>
                <path d="M192.094737,104.947368 C174.505263,95.7526316 161.563158,92.2210526 146.021053,92.2789474 L146.015789,90.0894737 L146.505263,90.0894737 C159.721053,90.0894737 171.073684,92.6578947 184.884211,98.9736842 C168.278947,90.5157895 155.757895,87.2263158 140.757895,87.3 L140.747368,85.1105263 L141.242105,85.1105263 C156.984211,85.1105263 170.089474,88.7526316 187.842105,98.0315789 L186.868421,99.8894737 C188.894737,100.852632 190.968421,101.889474 193.105263,103.010526 L192.094737,104.947368" id="Fill-232" fill="#1F3E85"></path>
                <path d="M139.836842,124.410526 C128.447368,80.5473684 152.605263,48.1421053 179.015789,32.4421053 L180.131579,34.3263158 C154.405263,49.6210526 130.868421,81.1736842 141.957895,123.857895 L139.836842,124.410526 Z M145.431579,128.110526 C132.984211,80.1947368 162.931579,51.6736842 176.384211,41.6315789 L177.694737,43.3894737 C164.594737,53.1631579 135.436842,80.9315789 147.547368,127.557895 L145.431579,128.110526 Z" id="Fill-233" fill="#1F3E85"></path>
                <path d="M222.547368,210.815789 C217.531579,210.815789 212.431579,210.463158 207.3,209.742105 C181.852632,206.173684 159.584211,193.894737 146.194737,176.052632 L147.947368,174.736842 C160.984211,192.121053 182.731579,204.084211 207.605263,207.568421 C232.963158,211.131579 257.515789,205.584211 274.968421,192.363158 L276.294737,194.105263 C261.921053,204.994737 242.9,210.815789 222.547368,210.815789" id="Fill-234" fill="#1F3E85"></path>
                <path d="M213.594737,180.694737 C200.015789,180.694737 186.842105,177.1 172.173684,169.536842 L173.178947,167.589474 C191.415789,176.994737 207.236842,180.121053 224.510526,177.742105 L224.815789,179.905263 C221.021053,180.431579 217.294737,180.694737 213.594737,180.694737 M220.105263,187.342105 C207.626316,187.342105 194.352632,184.236842 178.626316,176.131579 L179.636842,174.184211 C206.952632,188.273684 226.710526,186.894737 247.968421,180.489474 L248.6,182.584211 C239.068421,185.457895 229.826316,187.342105 220.105263,187.342105" id="Fill-235" fill="#1F3E85"></path>
                <path d="M220.194737,203.721053 C190.610526,203.721053 160.705263,191.236842 143.942105,168.889474 L145.694737,167.573684 C170.836842,201.094737 226.3,211.868421 264.373684,190.631579 L265.447368,192.542105 C251.847368,200.121053 236.063158,203.721053 220.194737,203.721053" id="Fill-236" fill="#1F3E85"></path>
                <path d="M108.405263,160.252632 C88.9421053,160.252632 73.0631579,152.705263 64.8157895,147.815789 L65.9315789,145.931579 C79.9894737,154.273684 116.826316,170.526316 155.226316,141.442105 L156.552632,143.184211 C139.631579,156 123.010526,160.252632 108.405263,160.252632" id="Fill-237" fill="#1F3E85"></path>
                <path d="M102.963158,156.868421 C86.3842105,156.868421 72.5578947,151.573684 64.8947368,147.857895 L65.8526316,145.889474 C80.5578947,153.015789 118.626316,166.131579 154.452632,133.926316 L155.921053,135.557895 C137.773684,151.863158 119.078947,156.868421 102.963158,156.868421" id="Fill-238" fill="#1F3E85"></path>
                <path d="M165.226316,114.773684 C154.605263,111.284211 143.352632,110.257895 131.794737,111.742105 L131.515789,109.568421 C143.4,108.047368 154.973684,109.1 165.905263,112.694737 L165.226316,114.773684 Z M196.126316,138.910526 C173.284211,116.226316 148.289474,114.047368 131.342105,116.226316 L131.063158,114.052632 C148.494737,111.821053 174.194737,114.047368 197.663158,137.357895 L196.126316,138.910526 Z" id="Fill-239" fill="#1F3E85"></path>
                <path d="M238.936842,194.589474 L236.784211,194.242105 C238.547368,183.205263 237.768421,171.931579 234.473684,160.747368 L236.573684,160.126316 C239.963158,171.626316 240.757895,183.226316 238.936842,194.589474 M218.173684,195.473684 L216.010526,195.126316 C217.773684,184.089474 217,172.815789 213.705263,161.631579 L215.8,161.015789 C219.189474,172.510526 219.984211,184.105263 218.173684,195.473684" id="Fill-240" fill="#1F3E85"></path>
                <path d="M169.747368,143.221053 C174.389474,137.326316 179.021053,131.426316 183.657895,125.526316 C181.557895,119.736842 179.463158,113.942105 177.373684,108.152632 C174.842105,119.842105 172.3,131.526316 169.747368,143.221053 M132.884211,110.721053 C137.363158,110.726316 143.005263,110.742105 146.905263,110.747368 C147.7,107.126316 148.484211,103.494737 149.263158,99.8684211 L153.6,79.7157895 L201.626316,79.8052632 L202.842105,83.9 C204.005263,87.8210526 205.178947,91.7263158 206.373684,95.6315789 L206.663158,96.5631579 C207.352632,95.6578947 208.042105,94.7526316 208.731579,93.8473684 L219.526316,79.7105263 L293.968421,79.8631579 L288.557895,86.5052632 L288.573684,86.5052632 L281.157895,95.8105263 L279.310526,98.1315789 L277.578947,100.3 L276.184211,100.294737 L274.321053,102.678947 L272.426316,105.105263 L270.810526,107.168421 L270.815789,107.168421 L263.473684,116.5 L261.578947,118.910526 L259.847368,121.110526 L259.836842,121.110526 L254.652632,127.684211 L254.815789,128.2 L254.889474,128.2 L256.2,132.136842 C256.468421,132.942105 256.736842,133.742105 257.005263,134.542105 L257.4,135.736842 L257.505263,135.736842 L258.789474,139.7 C259.042105,140.468421 259.294737,141.252632 259.542105,142.021053 L260.105263,143.763158 L260.136842,143.763158 L261.468421,147.631579 C261.736842,148.4 262,149.184211 262.268421,149.957895 L264.905263,157.589474 L264.894737,157.589474 L265.373684,158.942105 L265.415789,158.942105 L266.026316,160.778947 L267.552632,165.068421 L267.463158,165.068421 L267.5,165.184211 L270.036842,172.768421 L252.563158,172.726316 L253.6,175.842105 L245.631579,175.842105 C232.163158,175.842105 218.689474,175.815789 205.221053,175.784211 L201.026316,175.778947 L199.757895,171.789474 C198.368421,167.431579 196.984211,163.063158 195.610526,158.7 L194.842105,156.252632 C190.494737,162.021053 186.152632,167.789474 181.794737,173.542105 L180.063158,175.815789 L132.542105,175.747368 L134.126316,168.742105 C135.468421,162.826316 136.794737,156.905263 138.105263,150.984211 C138.894737,147.405263 139.684211,143.826316 140.468421,140.242105 C135.968421,140.242105 130.278947,140.226316 126.357895,140.221053 C125.378947,144.621053 124.4,149.015789 123.421053,153.415789 C122.094737,159.378947 120.752632,165.347368 119.410526,171.310526 L118.394737,175.784211 L95.6473684,175.784211 L88.4631579,175.789474 L90.0421053,168.778947 C93.2105263,154.678947 96.3736842,140.563158 99.5210526,126.442105 C102.657895,112.384211 105.768421,98.3157895 108.857895,84.2473684 L109.852632,79.7263158 L114.473684,79.7263158 L132.510526,79.7368421 L139.642105,79.7368421 L138.126316,86.7105263 C136.994737,91.8894737 135.868421,97.0631579 134.742105,102.247368 C134.126316,105.073684 133.510526,107.894737 132.884211,110.721053" id="Fill-241" fill="#1F3E85"></path>
                <path d="M164.268421,154.815789 C166.457895,152.036842 168.647368,149.263158 170.831579,146.484211 C176.194737,139.673684 181.547368,132.857895 186.9,126.047368 C184.610526,119.731579 182.326316,113.415789 180.047368,107.094737 C178.926316,103.984211 177.805263,100.873684 176.678947,97.7684211 C174.473684,107.989474 172.257895,118.215789 170.031579,128.436842 C168.115789,137.231579 166.194737,146.026316 164.268421,154.815789 M129.305263,113.584211 C134.684211,113.594737 144.7,113.615789 149.215789,113.621053 C150.178947,109.242105 151.131579,104.857895 152.073684,100.473684 L155.915789,82.5894737 L199.478947,82.6736842 L200.089474,84.7210526 C201.252632,88.6421053 202.431579,92.5631579 203.631579,96.4684211 C204.268421,98.5631579 204.910526,100.647368 205.552632,102.736842 C207.378947,100.352632 209.194737,97.9736842 211.015789,95.5894737 L220.942105,82.5894737 L287.931579,82.7210526 L282.526316,89.3631579 L282.621053,89.3684211 L278.915789,94.0157895 L277.063158,96.3368421 L276.194737,97.4210526 L274.784211,97.4210526 L272.057895,100.910526 L270.163158,103.331579 L269.294737,104.436842 L269.278947,104.436842 L264.873684,110.057895 L264.889474,110.057895 L261.215789,114.726316 L259.321053,117.131579 L258.452632,118.231579 L258.442105,118.231579 L255.847368,121.526316 L253.963158,123.915789 L253.1,125.015789 L250.773684,125.010526 L251.057895,125.884211 C251.315789,126.694737 251.573684,127.505263 251.831579,128.310526 L252.721053,131.078947 L252.815789,131.078947 L253.473684,133.047368 C253.742105,133.847368 254.010526,134.652632 254.278947,135.452632 L255.331579,138.6 L255.415789,138.6 L256.057895,140.584211 C256.305263,141.357895 256.557895,142.136842 256.810526,142.910526 L258.015789,146.631579 L258.084211,146.631579 L258.752632,148.568421 C259.015789,149.342105 259.284211,150.115789 259.552632,150.894737 L260.868421,154.710526 L260.826316,154.710526 L261.289474,156.021053 C261.563158,156.794737 261.842105,157.573684 262.115789,158.347368 L263.478947,162.189474 L263.473684,162.189474 L264,163.768421 C264.257895,164.542105 264.515789,165.321053 264.773684,166.094737 L266.042105,169.884211 L248.578947,169.852632 L249.615789,172.968421 L245.631579,172.968421 C232.163158,172.968421 218.694737,172.947368 205.226316,172.915789 L203.131579,172.910526 L202.494737,170.915789 C201.105263,166.563158 199.726316,162.2 198.347368,157.836842 L195.905263,150.078947 C190.436842,157.321053 184.984211,164.573684 179.505263,171.805263 L178.636842,172.947368 L136.131579,172.878947 L136.926316,169.373684 C138.268421,163.452632 139.594737,157.531579 140.905263,151.605263 C141.957895,146.863158 143,142.126316 144.036842,137.384211 C138.652632,137.373684 128.584211,137.352632 124.057895,137.342105 C122.910526,142.494737 121.763158,147.642105 120.615789,152.794737 C119.289474,158.757895 117.952632,164.715789 116.605263,170.678947 L116.1,172.915789 L113.805263,172.915789 L95.6526316,172.921053 L92.0526316,172.921053 L92.8421053,169.415789 C96.0157895,155.305263 99.1789474,141.189474 102.321053,127.073684 C105.457895,113.005263 108.573684,98.9368421 111.663158,84.8631579 L112.163158,82.6052632 L114.473684,82.6052632 L132.510526,82.6105263 L136.078947,82.6105263 L135.315789,86.0947368 C134.189474,91.2736842 133.057895,96.4526316 131.931579,101.631579 C131.068421,105.621053 130.189474,109.6 129.305263,113.584211" id="Fill-242" fill="#FFFFFE"></path>
                <path d="M176.757895,98.9842105 C174.636842,108.826316 172.505263,118.668421 170.363158,128.505263 C168.552632,136.826316 166.731579,145.142105 164.910526,153.457895 C166.8,151.063158 168.684211,148.668421 170.573684,146.273684 C175.894737,139.510526 181.210526,132.752632 186.521053,125.989474 C184.252632,119.731579 181.989474,113.473684 179.731579,107.205263 L176.757895,98.9842105 Z M163.631579,156.168421 L163.942105,154.742105 C165.868421,145.952632 167.789474,137.163158 169.705263,128.368421 C171.931579,118.142105 174.147368,107.921053 176.352632,97.7 L176.6,96.5578947 L180.363158,106.978947 C182.642105,113.3 184.926316,119.621053 187.221053,125.936842 L187.278947,126.105263 L187.168421,126.252632 C181.815789,133.068421 176.457895,139.878947 171.1,146.689474 C168.915789,149.468421 166.726316,152.247368 164.536842,155.021053 L163.631579,156.168421 Z M203.378947,172.573684 L205.226316,172.578947 C218.694737,172.610526 232.163158,172.636842 245.636842,172.636842 L249.152632,172.636842 L248.115789,169.510526 L265.584211,169.547368 L263.010526,161.852632 L260.347368,154.368421 L260.4,154.368421 L257.842105,146.968421 L257.7,146.736842 L255.163158,138.931579 L255.015789,138.705263 L252.578947,131.421053 L252.478947,131.421053 L250.315789,124.673684 L252.936842,124.673684 L253.7,123.705263 L253.715789,123.715789 C253.836842,123.536842 254.147368,123.142105 254.910526,122.173684 L259.647368,116.168421 C260.526316,115.057895 260.836842,114.663158 260.963158,114.526316 L260.957895,114.515789 L265.494737,108.721053 C265.978947,108.105263 266.473684,107.473684 266.473684,107.473684 L269.9,103.131579 C269.921053,103.094737 270.384211,102.510526 270.847368,101.910526 C271.457895,101.131579 271.694737,100.831579 271.8,100.710526 L271.794737,100.7 L274.621053,97.0842105 L276.036842,97.0842105 L276.8,96.1315789 C276.826316,96.1052632 277.278947,95.5315789 277.726316,94.9684211 C278.326316,94.2157895 278.552632,93.9315789 278.657895,93.8105263 L278.652632,93.8052632 L281.926316,89.6947368 L281.826316,89.6947368 L287.231579,83.0526316 L221.110526,82.9210526 L205.431579,103.457895 L205.236842,102.831579 C204.594737,100.747368 203.947368,98.6578947 203.310526,96.5736842 C202.110526,92.6578947 200.931579,88.7368421 199.768421,84.8157895 L199.231579,83.0052632 L156.189474,82.9210526 L152.405263,100.547368 C151.463158,104.931579 150.510526,109.315789 149.547368,113.7 L149.489474,113.957895 L128.889474,113.921053 L128.978947,113.505263 C129.863158,109.531579 130.742105,105.552632 131.610526,101.557895 L135.663158,82.9526316 L112.431579,82.9368421 L111.994737,84.9368421 C108.9,99.0315789 105.757895,113.236842 102.652632,127.142105 C99.5052632,141.263158 96.3473684,155.373684 93.1736842,169.489474 L92.4789474,172.578947 L115.836842,172.578947 L116.278947,170.6 C117.626316,164.642105 118.963158,158.684211 120.289474,152.726316 L123.789474,137 L144.457895,137.047368 L144.368421,137.452632 C143.331579,142.2 142.289474,146.936842 141.231579,151.673684 C139.926316,157.6 138.594737,163.526316 137.257895,169.447368 L136.557895,172.542105 L178.473684,172.610526 L179.236842,171.6 C182.694737,167.042105 186.136842,162.473684 189.578947,157.905263 C191.6,155.226316 193.615789,152.552632 195.636842,149.878947 L196.031579,149.352632 L198.668421,157.742105 C200.047368,162.094737 201.426316,166.457895 202.815789,170.815789 L203.378947,172.573684 Z M250.084211,173.310526 L245.636842,173.310526 C232.163158,173.305263 218.694737,173.284211 205.226316,173.252632 L202.889474,173.247368 L202.178947,171.015789 C200.789474,166.657895 199.405263,162.3 198.026316,157.936842 L195.778947,150.8 C193.894737,153.3 192,155.810526 190.115789,158.310526 C186.673684,162.878947 183.226316,167.447368 179.773684,172.010526 L178.805263,173.278947 L178.642105,173.278947 L135.715789,173.210526 L136.6,169.3 C137.936842,163.378947 139.268421,157.457895 140.584211,151.531579 C141.6,146.926316 142.615789,142.321053 143.626316,137.715789 L124.326316,137.678947 L120.942105,152.868421 C119.621053,158.836842 118.278947,164.794737 116.936842,170.747368 L116.368421,173.252632 L91.6368421,173.252632 L92.5157895,169.347368 C95.6894737,155.226316 98.8526316,141.121053 102,126.994737 C105.1,113.084211 108.242105,98.8842105 111.342105,84.7894737 L111.894737,82.2684211 L136.494737,82.2789474 L132.263158,101.705263 C131.426316,105.557895 130.578947,109.4 129.721053,113.252632 L148.947368,113.284211 C149.889474,108.994737 150.826316,104.7 151.747368,100.4 L155.647368,82.2526316 L199.731579,82.3421053 L200.415789,84.6263158 C201.578947,88.5473684 202.747368,92.4631579 203.947368,96.3789474 C204.531579,98.2526316 205.110526,100.131579 205.689474,102.010526 L220.778947,82.2473684 L220.942105,82.2473684 L288.642105,82.3894737 L283.226316,89.0315789 L283.315789,89.0315789 L279.178947,94.2210526 C279.157895,94.2526316 278.705263,94.8210526 278.252632,95.3842105 C277.657895,96.1368421 277.426316,96.4210526 277.321053,96.5473684 L277.326316,96.5526316 L276.363158,97.7578947 L274.952632,97.7526316 L272.321053,101.115789 C272.3,101.147368 271.842105,101.736842 271.378947,102.326316 C270.763158,103.110526 270.526316,103.410526 270.426316,103.531579 L270.426316,103.536842 L266.994737,107.9 C266.973684,107.926316 266.494737,108.536842 266.021053,109.136842 L265.573684,109.710526 L265.584211,109.710526 L265.152632,110.263158 L261.484211,114.931579 C261.452632,114.968421 260.726316,115.9 260.178947,116.589474 C259.573684,117.352632 259.573684,117.352632 259.563158,117.373684 L258.615789,118.573684 L258.605263,118.573684 L256.115789,121.731579 L255.436842,122.589474 C254.905263,123.263158 254.257895,124.089474 254.231579,124.121053 L253.263158,125.347368 L251.236842,125.342105 L252.963158,130.752632 L253.063158,130.752632 L255.573684,138.268421 L255.736842,138.494737 L258.268421,146.310526 L258.405263,146.521053 L261.342105,155.052632 L261.3,155.047368 L263.963158,162.526316 L263.942105,162.526316 L266.515789,170.226316 L249.047368,170.184211 L250.084211,173.310526 Z" id="Fill-243" fill="#FFFFFE"></path>
                <path d="M176.063158,88.6052632 C174.673684,95.0578947 171.131579,111.484211 167.552632,127.894737 C164.326316,142.731579 161.073684,157.568421 159.431579,165.036842 C162.721053,160.868421 167.778947,154.463158 172.826316,148.047368 C180.773684,137.957895 188.721053,127.831579 189.768421,126.505263 C189.263158,125.115789 185.842105,115.678947 182.436842,106.236842 C179.931579,99.2947368 177.415789,92.3473684 176.063158,88.6052632 Z M158.142105,167.747368 L158.457895,166.326316 C159.973684,159.436842 163.447368,143.6 166.894737,127.752632 C170.568421,110.9 174.205263,94.0315789 175.515789,87.9631579 L175.894737,86.1789474 L176.294737,87.2789474 C177.505263,90.6157895 180.289474,98.3157895 183.068421,106.005263 C186.752632,116.226316 190.463158,126.452632 190.463158,126.452632 L190.531579,126.631579 L190.415789,126.773684 C190.415789,126.773684 181.884211,137.636842 173.357895,148.468421 C167.826316,155.5 162.273684,162.526316 159.052632,166.6 L158.142105,167.747368 Z M205.478947,169.710526 C218.710526,169.736842 231.936842,169.757895 245.168421,169.763158 L244.126316,166.631579 L261.589474,166.668421 L261.036842,165.015789 L225.305263,164.931579 L224.010526,161.3 L242.336842,161.342105 L241.531579,158.931579 L258.931579,158.973684 L258.342105,157.315789 L222.563158,157.236842 L221.347368,153.826316 L239.794737,153.857895 L238.978947,151.457895 L256.363158,151.489474 L255.8,149.836842 L219.9,149.768421 L218.515789,145.857895 L237.1,145.905263 L236.252632,143.421053 L253.621053,143.457895 L253.078947,141.805263 L217.042105,141.726316 L215.810526,138.273684 L234.531579,138.310526 L233.715789,135.984211 L251.089474,136.021053 L250.510526,134.294737 C240.9,134.315789 231.178947,134.289474 221.778947,134.268421 L214.378947,134.252632 L213.263158,131.1 L232.078947,131.142105 L231.278947,128.810526 L248.642105,128.852632 L248.073684,127.1 C237.147368,127.131579 226.078947,127.110526 215.363158,127.089474 L211.826316,127.084211 L211.294737,125.6 L212.531579,124.047368 L232.357895,124.089474 L234.2,121.763158 L251.542105,121.805263 L252.894737,120.084211 C243.668421,120.094737 234.405263,120.073684 225.426316,120.057895 L215.726316,120.031579 L217.921053,117.268421 L237.721053,117.305263 L239.557895,114.978947 L256.905263,115.021053 L258.263158,113.284211 C248.173684,113.305263 238.036842,113.284211 228.215789,113.268421 L221.121053,113.252632 L223.515789,110.221053 L243.3,110.263158 L245.136842,107.936842 L262.426316,107.973684 L263.778947,106.257895 C253.689474,106.268421 243.526316,106.252632 233.689474,106.221053 L226.694737,106.2 L228.857895,103.473684 L248.6,103.515789 L250.431579,101.2 L267.736842,101.226316 L269.105263,99.4736842 L232.021053,99.4631579 L234.184211,96.7263158 L253.910526,96.7736842 L255.947368,94.1736842 L274.657895,94.2105263 L275.973684,92.5578947 L237.536842,92.4736842 L239.505263,89.9789474 L258.384211,90.0210526 L260.431579,87.3894737 L260.605263,87.3894737 L279.963158,87.4263158 L281.2,85.9157895 L222.526316,85.8 L213.568421,97.5368421 C209.152632,103.310526 204.721053,109.105263 204.721053,109.105263 L204.326316,109.621053 L204.142105,109 C204.142105,109 202.336842,103.205263 200.557895,97.4105263 C199,92.3052632 197.431579,87.0473684 197.078947,85.8736842 L158.510526,85.8 L155.215789,101.147368 C153.552632,108.863158 151.857895,116.573684 151.857895,116.573684 L151.794737,116.836842 L125.305263,116.784211 L125.4,116.373684 C125.4,116.373684 127.121053,108.663158 128.8,100.952632 C130.252632,94.2789474 131.721053,87.5210526 132.094737,85.8157895 L114.736842,85.8105263 C114.189474,88.3210526 109.821053,108.215789 105.457895,127.768421 C101.136842,147.121053 96.7473684,166.663158 96.0631579,169.710526 L113.531579,169.710526 C113.884211,168.163158 115.710526,160.057895 117.484211,152.094737 L121.489474,134.126316 L148.026316,134.184211 L147.931579,134.589474 C147.931579,134.589474 145.994737,143.452632 144.042105,152.3 C142.326316,160.026316 140.568421,167.826316 140.147368,169.673684 L177.052632,169.731579 C180.489474,165.189474 183.931579,160.621053 187.384211,156.047368 C190.484211,151.926316 193.6,147.805263 196.705263,143.7 L197.1,143.184211 L201.410526,156.873684 C203.242105,162.678947 205.089474,168.489474 205.478947,169.710526 Z M246.094737,170.431579 L245.631579,170.431579 C232.163158,170.431579 218.7,170.410526 205.231579,170.378947 L204.984211,170.378947 L204.915789,170.147368 C204.915789,170.147368 202.831579,163.610526 200.768421,157.073684 L196.842105,144.626316 C193.868421,148.563158 190.894737,152.510526 187.921053,156.457895 C184.436842,161.073684 180.957895,165.684211 177.484211,170.278947 L177.384211,170.405263 L177.210526,170.405263 L139.305263,170.347368 L139.4,169.936842 C139.4,169.936842 141.431579,161 143.389474,152.152632 C145.089474,144.426316 146.789474,136.684211 147.184211,134.852632 L122.026316,134.8 L118.136842,152.242105 C116.168421,161.089474 114.136842,170.121053 114.136842,170.121053 L114.068421,170.378947 L95.2210526,170.378947 L95.3157895,169.973684 C95.3157895,169.973684 100.105263,148.684211 104.805263,127.621053 C109.436842,106.805263 114.1,85.6210526 114.147368,85.4105263 L114.205263,85.1421053 L132.926316,85.1473684 L132.836842,85.5578947 C132.836842,85.5578947 131.136842,93.3842105 129.457895,101.094737 C128.005263,107.757895 126.521053,114.426316 126.136842,116.115789 L151.252632,116.163158 C151.563158,114.747368 153.073684,107.878947 154.557895,101.005263 L157.968421,85.1263158 L197.589474,85.2052632 L197.657895,85.4473684 C197.657895,85.4473684 199.436842,91.4315789 201.205263,97.2157895 C202.631579,101.873684 204.073684,106.536842 204.589474,108.178947 C205.768421,106.636842 209.410526,101.873684 213.036842,97.1315789 L222.194737,85.1263158 L222.363158,85.1263158 L282.605263,85.2473684 L280.278947,88.1 L280.126316,88.1 L260.763158,88.0578947 L258.715789,90.6894737 L239.831579,90.6473684 L238.921053,91.8052632 L277.368421,91.8894737 L274.978947,94.8842105 L256.273684,94.8473684 L254.236842,97.4473684 L234.510526,97.4 L233.410526,98.7947368 L270.484211,98.8052632 L268.063158,101.9 L250.752632,101.863158 L248.926316,104.184211 L229.178947,104.147368 L228.084211,105.536842 L233.694737,105.547368 C243.752632,105.578947 254.152632,105.6 264.468421,105.589474 L265.152632,105.589474 L262.752632,108.652632 L245.463158,108.610526 L243.621053,110.931579 L223.842105,110.894737 L222.505263,112.578947 L228.215789,112.6 C238.263158,112.615789 248.647368,112.636842 258.963158,112.610526 L259.647368,112.610526 L257.231579,115.694737 L239.884211,115.652632 L238.047368,117.978947 L218.247368,117.936842 L217.115789,119.363158 L225.431579,119.378947 C234.631579,119.410526 244.147368,119.426316 253.594737,119.410526 L254.284211,119.410526 L251.868421,122.478947 L234.526316,122.431579 L232.684211,124.757895 L212.857895,124.721053 L212.057895,125.726316 L212.294737,126.410526 L215.363158,126.421053 C226.157895,126.436842 237.310526,126.463158 248.321053,126.426316 L248.568421,126.426316 L249.563158,129.526316 L232.221053,129.489474 L233.015789,131.815789 L214.215789,131.778947 L214.852632,133.578947 L221.784211,133.594737 C231.263158,133.615789 241.078947,133.647368 250.752632,133.621053 L250.989474,133.621053 L252.015789,136.694737 L234.657895,136.657895 L235.468421,138.984211 L216.768421,138.947368 L217.521053,141.052632 L253.573684,141.136842 L254.536842,144.131579 L237.189474,144.094737 L238.042105,146.584211 L219.468421,146.531579 L220.378947,149.094737 L256.273684,149.163158 L257.310526,152.168421 L239.915789,152.131579 L240.726316,154.531579 L222.294737,154.494737 L223.031579,156.568421 L258.815789,156.647368 L259.884211,159.647368 L242.457895,159.605263 L243.278947,162.015789 L224.968421,161.973684 L225.773684,164.263158 L261.515789,164.347368 L262.515789,167.342105 L245.063158,167.305263 L246.094737,170.431579 Z" id="Fill-244" fill="#FFFFFE"></path>
                <path d="M175.978947,87.3894737 C174.810526,92.8210526 171.036842,110.336842 167.226316,127.826316 C163.778947,143.673684 160.3,159.515789 158.789474,166.394737 C162.005263,162.321053 167.557895,155.294737 173.094737,148.257895 C181.615789,137.426316 190.147368,126.568421 190.147368,126.568421 C190.147368,126.568421 186.436842,116.342105 182.752632,106.121053 C179.978947,98.4315789 177.189474,90.7315789 175.978947,87.3894737 M114.468421,85.4789474 L132.510526,85.4842105 C132.510526,85.4842105 130.805263,93.3105263 129.126316,101.021053 C127.452632,108.736842 125.726316,116.452632 125.726316,116.452632 L151.526316,116.5 C151.526316,116.5 153.226316,108.789474 154.884211,101.073684 L158.236842,85.4684211 L197.336842,85.5421053 C197.336842,85.5421053 199.110526,91.5263158 200.884211,97.3105263 C202.657895,103.105263 204.457895,108.894737 204.457895,108.894737 C204.457895,108.894737 208.894737,103.110526 213.3,97.3368421 L222.363158,85.4631579 L281.9,85.5842105 L280.126316,87.7684211 L260.6,87.7263158 L258.552632,90.3526316 L239.668421,90.3157895 L238.231579,92.1421053 L276.668421,92.2210526 L274.815789,94.5473684 L256.115789,94.5105263 L254.073684,97.1157895 L234.347368,97.0578947 L232.715789,99.1315789 L269.794737,99.1421053 L267.9,101.568421 L250.589474,101.531579 L248.768421,103.847368 L229.021053,103.810526 L227.494737,105.742105 L227.394737,105.868421 C239.826316,105.9 252.052632,105.942105 264.468421,105.926316 L262.594737,108.310526 L245.3,108.273684 L243.457895,110.6 L223.684211,110.557895 L221.815789,112.915789 C234.284211,112.942105 246.505263,112.984211 258.957895,112.947368 L257.063158,115.357895 L239.715789,115.321053 L237.878947,117.647368 L218.089474,117.605263 L216.426316,119.7 C228.9,119.721053 241.131579,119.768421 253.594737,119.747368 L251.710526,122.136842 L234.363158,122.1 L232.526316,124.426316 L212.694737,124.384211 L211.678947,125.668421 L212.063158,126.747368 C224.173684,126.768421 236.210526,126.8 248.321053,126.763158 L249.1,129.189474 L231.752632,129.152632 L232.547368,131.473684 L213.736842,131.442105 L214.621053,133.910526 C226.689474,133.942105 238.684211,133.984211 250.752632,133.957895 L251.552632,136.363158 L234.194737,136.315789 L235,138.652632 L216.289474,138.610526 L217.278947,141.389474 L253.326316,141.473684 L254.078947,143.8 L236.721053,143.752632 L237.573684,146.242105 L218.989474,146.189474 L219.589474,147.884211 L220.142105,149.431579 L256.036842,149.505263 L256.842105,151.831579 L239.447368,151.794737 L240.257895,154.2 L221.821053,154.157895 L222.8,156.905263 L258.584211,156.984211 L259.410526,159.310526 L242,159.268421 L242.810526,161.678947 L224.489474,161.642105 L225.542105,164.594737 L261.273684,164.678947 L262.052632,167 L244.594737,166.968421 L245.636842,170.094737 C232.168421,170.089474 218.7,170.068421 205.231579,170.047368 C205.231579,170.047368 203.152632,163.505263 201.089474,156.973684 L196.968421,143.905263 C190.389474,152.6 183.8,161.378947 177.215789,170.068421 L139.726316,170.010526 C139.726316,170.010526 141.752632,161.073684 143.715789,152.226316 C145.668421,143.384211 147.605263,134.521053 147.605263,134.521053 L121.752632,134.468421 C121.752632,134.468421 119.784211,143.321053 117.815789,152.173684 C115.842105,161.015789 113.805263,170.047368 113.805263,170.047368 L95.6473684,170.047368 C95.6473684,170.047368 100.431579,148.763158 105.131579,127.7 C109.821053,106.636842 114.468421,85.4789474 114.468421,85.4789474" id="Fill-245" fill="#1F3E85"></path>
                <path d="M260.968421,217.547368 L275.563158,217.547368 L275.273684,218.863158 L276.536842,217.547368 L295.6,217.547368 L278.647368,234.4 L288.105263,250.926316 L271.384211,250.926316 L269.284211,246.805263 L268.442105,250.926316 L242.242105,250.926316 L243.094737,246.852632 L239.868421,250.926316 L179.963158,250.926316 L180.815789,246.852632 L177.594737,250.926316 L155.863158,250.926316 L154.178947,246.594737 L150.684211,250.926316 L114.4,250.926316 L118.742105,230.521053 L116.226316,230.521053 L111.894737,250.926316 L97.3421053,250.926316 L101.673684,230.521053 L100,230.521053 C100.094737,231.252632 100.136842,231.989474 100.136842,232.736842 C100.136842,237.210526 98.3631579,241.063158 94.9842105,244.005263 C91.9052632,246.7 88.0526316,247.894737 84.0789474,248.205263 L83.3052632,251.878947 L68.7578947,251.878947 L69.6,247.857895 C68.9736842,247.710526 68.3526316,247.526316 67.7421053,247.315789 L67.7105263,247.305263 C66.2157895,246.768421 64.8684211,245.947368 63.6736842,244.931579 L62.4263158,250.926316 L21.7894737,250.926316 L24.1052632,240.036842 L23.4526316,240.036842 L21.1684211,250.926316 L6.61052632,250.926316 L13.6736842,217.547368 L28.2263158,217.547368 L26.2105263,227.068421 L26.8526316,227.068421 L28.9,217.547368 L69.1894737,217.547368 L68.3315789,221.542105 C70.5842105,220.473684 73.0947368,219.952632 75.6052632,219.773684 L76.4473684,216.115789 L90.7842105,216.115789 L89.9842105,220.110526 C90.5526316,220.242105 91.1105263,220.4 91.6631579,220.584211 C93.1368421,221.084211 94.4684211,221.831579 95.6578947,222.784211 L96.7526316,217.547368 L156.978947,217.547368 L158.378947,221.157895 L161.184211,217.547368 L185.536842,217.547368 L184.689474,221.526316 L187.868421,217.547368 L214.447368,217.547368 L215.421053,225.231579 L219.442105,217.547368 L247.810526,217.547368 L246.968421,221.526316 L250.142105,217.547368 L260.968421,217.547368" id="Fill-246" fill="#1F3E85"></path>
                <path d="M83.8263158,237.263158 C84.4578947,237.131579 85.0578947,236.921053 85.4736842,236.589474 C86.1421053,236.068421 86.7842105,235.4 87.0842105,234.594737 L87.0947368,234.568421 L87.1052632,234.542105 L87.3315789,233.678947 L87.4052632,232.663158 L87.3789474,232.305263 L87.3157895,232.015789 L87.3052632,231.978947 L86.5210526,231.010526 C86.2526316,230.8 85.7526316,230.678947 85.2315789,230.610526 L83.8263158,237.263158 Z M74.4052632,237.352632 L75.8210526,230.736842 C75.2,230.868421 74.6157895,231.078947 74.1894737,231.4 C73.5315789,231.9 72.8631579,232.557895 72.5684211,233.347368 L72.3052632,234.336842 L72.2210526,235.289474 C72.2210526,235.847368 72.2736842,236.531579 72.8210526,236.821053 C73.3157895,237.084211 73.8526316,237.252632 74.4052632,237.352632 Z M271.747368,225.457895 L277.394737,219.557895 L290.715789,219.557895 L276.131579,234.063158 L284.631579,248.910526 L272.621053,248.910526 L268.463158,240.757895 L266.794737,248.910526 L256.347368,248.910526 L262.6,219.557895 L273.052632,219.557895 L271.747368,225.457895 Z M243.231579,229.431579 L251.110526,219.557895 L261.357895,219.557895 L255.147368,248.910526 L244.721053,248.910526 L246.821053,238.905263 L238.894737,248.910526 L228.642105,248.910526 L234.889474,219.557895 L245.321053,219.557895 L243.231579,229.431579 Z M206.052632,241.531579 L204.515789,248.910526 L194.073684,248.910526 L200.326316,219.557895 L212.668421,219.557895 L214.236842,231.847368 L220.663158,219.557895 L233.652632,219.557895 L227.405263,248.910526 L216.963158,248.910526 L218.2,243.189474 L215.184211,248.910526 L206.963158,248.910526 L206.052632,241.531579 Z M21.8157895,238.021053 L19.5315789,248.910526 L9.09473684,248.910526 L15.3052632,219.557895 L25.7368421,219.557895 L23.7263158,229.078947 L28.4842105,229.078947 L30.5315789,219.557895 L40.9631579,219.557895 L34.7105263,248.910526 L24.2789474,248.910526 L26.6,238.021053 L21.8157895,238.021053 Z M62.8526316,229.626316 L63.5,228.505263 L50.7157895,228.505263 L50.4789474,229.626316 L62.8526316,229.626316 Z M61.5210526,235.963158 L61.0210526,238.294737 L48.6368421,238.294737 L48.2894737,239.963158 L62.3368421,239.963158 C61.8105263,238.710526 61.5736842,237.336842 61.5210526,235.963158 Z M146.457895,225.036842 L145.710526,228.505263 L131.657895,228.505263 L131.421053,229.626316 L143.810526,229.626316 L141.957895,238.294737 L129.578947,238.294737 L129.231579,239.963158 L143.589474,239.963158 L143.347368,241.126316 L150.268421,233.363158 L146.457895,225.036842 Z M171.784211,223.468421 L162.336842,234.2 L167.263158,244.710526 L171.784211,223.468421 Z M172.615789,219.557895 L183.047368,219.557895 L180.952632,229.431579 L188.836842,219.557895 L199.084211,219.557895 L192.873684,248.910526 L182.447368,248.910526 L184.547368,238.905263 L176.621053,248.910526 L157.242105,248.910526 L154.794737,242.610526 L149.721053,248.910526 L116.889474,248.910526 L121.231579,228.505263 L114.594737,228.505263 L110.257895,248.910526 L99.8263158,248.910526 L104.163158,228.505263 L97.4842105,228.505263 C97.9526316,229.847368 98.1210526,231.305263 98.1210526,232.731579 C98.1210526,236.631579 96.5947368,239.926316 93.6631579,242.489474 C90.5368421,245.221053 86.4736842,246.178947 82.4210526,246.273684 L81.6684211,249.863158 L71.2368421,249.863158 L72.0052632,246.194737 L71.2789474,246.110526 C70.3,245.984211 69.3368421,245.742105 68.4,245.410526 C66.6,244.763158 65.0631579,243.636842 63.7736842,242.236842 C63.2736842,241.689474 62.8684211,241.084211 62.5526316,240.442105 L60.7894737,248.910526 L35.9473684,248.910526 L42.1947368,219.557895 L66.6947368,219.557895 L65.2421053,226.3 L66.3578947,225.226316 C69.3,222.594737 73.3842105,221.794737 77.2315789,221.715789 L78.0526316,218.126316 L88.3263158,218.126316 L87.5947368,221.784211 L88.2947368,221.857895 C89.2263158,221.973684 90.1368421,222.194737 91.0157895,222.494737 C92.8631579,223.115789 94.4421053,224.221053 95.7789474,225.631579 C96.1947368,226.068421 96.5421053,226.547368 96.8263158,227.052632 L98.3894737,219.557895 L155.6,219.557895 L157.778947,225.205263 L162.173684,219.557895 L172.615789,219.557895 Z" id="Fill-247" fill="#FFFFFE"></path>
                <path d="M268.226316,232.052632 L278.257895,221.578947 L285.831579,221.578947 L273.615789,233.721053 L281.157895,246.889474 L273.857895,246.889474 L267.647368,234.715789 L265.152632,246.889474 L258.842105,246.889474 L264.231579,221.578947 L270.547368,221.578947 L268.226316,232.052632 Z M239.494737,237.342105 L252.084211,221.578947 L258.873684,221.578947 L253.515789,246.889474 L247.205263,246.889474 L250.552632,230.957895 L237.921053,246.889474 L231.131579,246.889474 L236.526316,221.578947 L242.836842,221.578947 L239.494737,237.342105 Z M208.747368,246.889474 L206.563158,229.221053 L202.878947,246.889474 L196.563158,246.889474 L201.957895,221.578947 L210.9,221.578947 L213.047368,238.468421 L221.884211,221.578947 L231.168421,221.578947 L225.773684,246.889474 L219.463158,246.889474 L223.284211,229.252632 L213.968421,246.889474 L208.747368,246.889474 Z M177.221053,237.342105 L189.810526,221.578947 L196.6,221.578947 L191.242105,246.889474 L184.931579,246.889474 L188.273684,230.957895 L175.647368,246.889474 L168.857895,246.889474 L174.247368,221.578947 L180.563158,221.578947 L177.221053,237.342105 Z M155.415789,238.636842 L148.763158,246.889474 L140.910526,246.889474 L152.652632,233.721053 L147.084211,221.578947 L154.221053,221.578947 L157.189474,229.252632 L163.157895,221.578947 L170.768421,221.578947 L159.952632,233.863158 L166.057895,246.889474 L158.621053,246.889474 L155.415789,238.636842 Z M128.931579,231.642105 L141.321053,231.642105 L140.331579,236.284211 L127.942105,236.284211 L126.747368,241.984211 L141.115789,241.984211 L140.089474,246.889474 L119.378947,246.889474 L124.768421,221.578947 L145.142105,221.578947 L144.084211,226.484211 L130.026316,226.484211 L128.931579,231.642105 Z M106.652632,226.484211 L99.0105263,226.484211 L100.031579,221.578947 L121.631579,221.578947 L120.610526,226.484211 L112.963158,226.484211 L108.631579,246.889474 L102.315789,246.889474 L106.652632,226.484211 Z M81.2947368,239.489474 L81.4315789,239.489474 C83.8473684,239.489474 85.6105263,239.052632 86.7263158,238.178947 C87.8368421,237.3 88.5894737,236.336842 88.9736842,235.289474 L89.3315789,233.921053 L89.4210526,232.663158 L89.3842105,232.089474 L89.2473684,231.436842 C89.0473684,230.710526 88.5473684,230.031579 87.7631579,229.426316 C86.9789474,228.810526 85.6421053,228.5 83.7578947,228.5 L83.6157895,228.5 L81.2947368,239.489474 Z M76.0105263,239.489474 L78.3631579,228.5 L78.2263158,228.5 C75.8631579,228.5 74.1105263,228.931579 72.9736842,229.794737 C71.8368421,230.657895 71.0736842,231.610526 70.6842105,232.626316 C70.5052632,233.105263 70.3789474,233.584211 70.3105263,234.047368 L70.2052632,235.289474 C70.2052632,236.910526 70.7631579,238.015789 71.8789474,238.605263 C72.9947368,239.189474 74.3263158,239.489474 75.8736842,239.489474 L76.0105263,239.489474 Z M73.7210526,247.852632 L74.4736842,244.263158 L73.5157895,244.263158 C72.9947368,244.263158 72.3368421,244.210526 71.5368421,244.115789 C70.7421053,244.005263 69.9210526,243.810526 69.0842105,243.515789 C67.6947368,243.015789 66.4210526,242.136842 65.2578947,240.873684 C64.1,239.605263 63.5210526,237.742105 63.5210526,235.252632 L63.5526316,234.305263 L63.6894737,233.347368 C64.1210526,230.936842 65.4578947,228.731579 67.7,226.726316 C69.9421053,224.721053 73.3368421,223.726316 77.8842105,223.726316 L78.8421053,223.726316 L79.6578947,220.136842 L85.8736842,220.136842 L85.1526316,223.726316 L86.1105263,223.726316 C86.6526316,223.726316 87.3052632,223.773684 88.0526316,223.857895 C88.8052632,223.952632 89.5789474,224.136842 90.3736842,224.410526 C91.8105263,224.884211 93.1210526,225.757895 94.3157895,227.021053 C95.5105263,228.278947 96.1105263,230.184211 96.1105263,232.736842 C96.1105263,236.031579 94.8526316,238.773684 92.3368421,240.968421 C89.8210526,243.168421 86.2894737,244.263158 81.7421053,244.263158 L80.7842105,244.263158 L80.0368421,247.852632 L73.7210526,247.852632 Z M47.9947368,231.642105 L60.3789474,231.642105 L59.3894737,236.284211 L47.0052632,236.284211 L45.8105263,241.984211 L60.1736842,241.984211 L59.1526316,246.889474 L38.4368421,246.889474 L43.8315789,221.578947 L64.2,221.578947 L63.1421053,226.484211 L49.0842105,226.484211 L47.9947368,231.642105 Z M20.1842105,236.010526 L17.8947368,246.889474 L11.5842105,246.889474 L16.9421053,221.578947 L23.2526316,221.578947 L21.2421053,231.089474 L30.1105263,231.089474 L32.1631579,221.578947 L38.4736842,221.578947 L33.0789474,246.889474 L26.7684211,246.889474 L29.0894737,236.010526 L20.1842105,236.010526 Z" id="Fill-248" fill="#1F3E85"></path>
                <path d="M278.121053,263.889474 L277.589474,266.405263 L279.726316,266.405263 L280.831579,266.057895 L281.342105,265.305263 L281.378947,265.163158 L281.384211,265.026316 L281.078947,264.189474 L280.4,263.915789 L280.147368,263.894737 L279.921053,263.889474 L278.121053,263.889474 Z M278.889474,260.273684 L278.505263,262.078947 L280.894737,262.078947 L281.494737,262.105263 L282.221053,262.236842 L283.431579,263 C283.8,263.384211 283.984211,264.005263 283.984211,264.863158 L283.905263,265.515789 L283.626316,266.273684 C283.368421,266.763158 282.931579,267.210526 282.310526,267.605263 C281.694737,268.010526 280.784211,268.210526 279.594737,268.210526 L274.747368,268.210526 L276.847368,258.363158 L284.636842,258.363158 L284.226316,260.273684 L278.889474,260.273684 Z M258.942105,263.089474 L261.621053,258.363158 L264.3,258.363158 L259.431579,266.189474 L259.210526,266.536842 L258.952632,266.894737 L257.826316,267.915789 C257.357895,268.226316 256.721053,268.378947 255.915789,268.378947 L255.784211,268.394737 L255.2,268.357895 L254.684211,268.278947 L254.510526,268.242105 L254.336842,268.210526 L254.736842,266.305263 L254.868421,266.305263 L255.189474,266.373684 L255.557895,266.431579 L255.694737,266.436842 L255.789474,266.447368 L256.073684,266.426316 L256.310526,266.363158 L256.815789,266.089474 L257.252632,265.489474 L255.026316,258.363158 L257.678947,258.363158 L258.942105,263.089474 Z M230.421053,268.210526 L230.831579,266.305263 L231.015789,266.305263 L231.1,266.315789 L231.215789,266.331579 L231.294737,266.331579 C232.084211,266.310526 232.652632,265.984211 233.005263,265.357895 C233.363158,264.731579 233.631579,263.963158 233.815789,263.063158 L234.784211,258.363158 L242.294737,258.363158 L240.2,268.210526 L237.742105,268.210526 L239.431579,260.273684 L236.736842,260.273684 L235.989474,263.710526 C235.657895,265.268421 235.1,266.415789 234.321053,267.152632 C233.542105,267.894737 232.568421,268.263158 231.4,268.263158 L231.268421,268.278947 L230.857895,268.242105 L230.431579,268.210526 L230.421053,268.210526 Z M213.652632,262.436842 L217.557895,258.363158 L220.5,258.363158 L215.752632,263.089474 L218.684211,268.210526 L215.842105,268.210526 L213.431579,263.478947 L212.463158,268.210526 L210.005263,268.210526 L212.1,258.363158 L214.557895,258.363158 L213.652632,262.436842 Z M186.9,255.947368 L188.463158,255.947368 L188.442105,256.047368 L188.436842,256.147368 L188.684211,256.652632 L189.5,256.894737 L190.336842,256.636842 L190.721053,256.105263 L190.752632,256.031579 L190.773684,255.947368 L192.473684,255.947368 C192.278947,256.505263 191.931579,256.968421 191.447368,257.342105 C190.952632,257.7 190.257895,257.884211 189.368421,257.884211 L189.236842,257.884211 C188.447368,257.884211 187.878947,257.773684 187.536842,257.547368 L186.857895,256.784211 L186.773684,256.473684 L186.752632,256.189474 L186.752632,256.063158 L186.768421,255.947368 L186.9,255.947368 Z M186.063158,264.494737 L190.957895,258.363158 L193.6,258.363158 L191.515789,268.210526 L189.063158,268.210526 L190.363158,262.015789 L185.452632,268.210526 L182.810526,268.210526 L184.905263,258.363158 L187.363158,258.363158 L186.063158,264.494737 Z M168.857895,258.363158 L171.194737,258.363158 L169.1,268.210526 L166.642105,268.210526 L168.726316,258.363158 L168.857895,258.363158 Z M160.884211,263.842105 L160.342105,266.405263 L162.436842,266.405263 L162.710526,266.384211 L162.994737,266.331579 L163.752632,265.9 L164.094737,265.026316 L164.089474,264.831579 L164.057895,264.626316 L163.678947,264.089474 C163.478947,263.926316 163.136842,263.842105 162.652632,263.842105 L160.884211,263.842105 Z M162.052632,258.363158 L161.294737,261.936842 L163.326316,261.936842 L163.994737,261.963158 L164.8,262.105263 C165.278947,262.247368 165.715789,262.510526 166.105263,262.9 C166.5,263.294737 166.694737,263.921053 166.694737,264.778947 L166.615789,265.442105 L166.326316,266.231579 C166.068421,266.726316 165.631579,267.184211 165.021053,267.594737 C164.405263,268.005263 163.505263,268.210526 162.315789,268.210526 L157.5,268.210526 L159.6,258.363158 L162.052632,258.363158 Z M138.773684,263.978947 L137.884211,268.210526 L135.431579,268.210526 L137.510526,258.363158 L139.968421,258.363158 L139.184211,262.068421 L142.636842,262.068421 L143.431579,258.363158 L145.884211,258.363158 L143.789474,268.210526 L141.331579,268.210526 L142.236842,263.978947 L138.773684,263.978947 Z M117.110526,255.947368 L118.678947,255.947368 L118.657895,256.047368 L118.652632,256.147368 L118.894737,256.652632 L119.715789,256.894737 L120.547368,256.636842 L120.931579,256.105263 L120.968421,256.031579 L120.989474,255.947368 L122.684211,255.947368 C122.489474,256.505263 122.147368,256.968421 121.657895,257.342105 C121.168421,257.7 120.473684,257.884211 119.578947,257.884211 L119.447368,257.884211 C118.657895,257.884211 118.094737,257.773684 117.747368,257.547368 L117.073684,256.784211 L116.984211,256.473684 L116.963158,256.189474 L116.963158,256.063158 L116.978947,255.947368 L117.110526,255.947368 Z M116.273684,264.494737 L121.173684,258.363158 L123.815789,258.363158 L121.731579,268.210526 L119.273684,268.210526 L120.573684,262.015789 L115.668421,268.210526 L113.026316,268.210526 L115.121053,258.363158 L117.578947,258.363158 L116.273684,264.494737 Z M95.7052632,262.278947 L100.521053,262.278947 L100.136842,264.084211 L95.3210526,264.084211 L94.8526316,266.305263 L100.442105,266.305263 L100.042105,268.210526 L91.9894737,268.210526 L94.0842105,258.363158 L102.005263,258.363158 L101.594737,260.273684 L96.1263158,260.273684 L95.7052632,262.278947 Z M74.3736842,262.436842 L78.2736842,258.363158 L81.2210526,258.363158 L76.4684211,263.089474 L79.4052632,268.210526 L76.5631579,268.210526 L74.1473684,263.478947 L73.1789474,268.210526 L70.7263158,268.210526 L72.8210526,258.363158 L75.2736842,258.363158 L74.3736842,262.436842 Z M53.1105263,262.436842 L57.0105263,258.363158 L59.9578947,258.363158 L55.2052632,263.089474 L58.1421053,268.210526 L55.3,268.210526 L52.8842105,263.478947 L51.9157895,268.210526 L49.4631579,268.210526 L51.5578947,258.363158 L54.0157895,258.363158 L53.1105263,262.436842 Z M31.6631579,266.578947 C32.4578947,266.563158 33.0789474,266.315789 33.5210526,265.826316 C33.9631579,265.347368 34.2789474,264.810526 34.4631579,264.226316 L34.7,263.273684 L34.7684211,262.478947 C34.7684211,261.721053 34.6421053,261.163158 34.3947368,260.831579 L33.5736842,260.142105 L33.1368421,260.021053 L32.7526316,259.994737 C31.9105263,260.015789 31.2578947,260.294737 30.8,260.852632 C30.3421053,261.394737 30.0263158,261.994737 29.8578947,262.652632 L29.7052632,263.405263 L29.6578947,264.094737 L29.6578947,264.115789 L29.6789474,264.589474 L29.8315789,265.289474 L30.4,266.168421 C30.6789474,266.431579 31.0947368,266.568421 31.6631579,266.578947 Z M31.4105263,268.494737 L30.5263158,268.431579 L29.3684211,268.168421 C28.7736842,267.957895 28.2315789,267.573684 27.7421053,267.010526 C27.2526316,266.447368 27.0052632,265.589474 27.0052632,264.426316 L27.0315789,263.863158 L27.1,263.289474 C27.3105263,261.984211 27.9,260.794737 28.8631579,259.710526 C29.8263158,258.631579 31.1894737,258.084211 32.9526316,258.084211 L33.0842105,258.084211 C34.5684211,258.084211 35.6631579,258.463158 36.3631579,259.226316 C37.0578947,259.989474 37.4105263,260.957895 37.4105263,262.152632 L37.3894737,262.689474 L37.3315789,263.252632 C37.1263158,264.563158 36.5526316,265.752632 35.6052632,266.842105 C34.6578947,267.931579 33.3052632,268.473684 31.5421053,268.473684 L31.4105263,268.494737 Z M9.69473684,265.005263 L7.11052632,268.210526 L4.05789474,268.210526 L8.62105263,263.089474 L6.45789474,258.363158 L9.23157895,258.363158 L10.3842105,261.347368 L12.7105263,258.363158 L15.6684211,258.363158 L11.4631579,263.142105 L13.8368421,268.210526 L10.9421053,268.210526 L9.69473684,265.005263 Z" id="Fill-249" fill="#1F3E85"></path>
                <path d="M146.394737,205.594737 L150.294737,201.515789 L153.242105,201.515789 L148.489474,206.247368 L151.421053,211.363158 L148.584211,211.363158 L146.168421,206.631579 L145.2,211.363158 L142.747368,211.363158 L144.842105,201.515789 L147.294737,201.515789 L146.394737,205.594737 Z M136.573684,207.884211 L138.884211,207.884211 L138.636842,208.6 L138.231579,209.384211 C137.884211,209.963158 137.373684,210.484211 136.684211,210.957895 C136,211.431579 135.063158,211.673684 133.878947,211.673684 L133.747368,211.684211 C132.426316,211.678947 131.410526,211.3 130.689474,210.578947 C129.968421,209.842105 129.605263,208.868421 129.605263,207.631579 L129.657895,206.757895 L129.821053,205.852632 C130.084211,204.710526 130.652632,203.652632 131.515789,202.694737 C132.384211,201.731579 133.652632,201.252632 135.326316,201.252632 L135.457895,201.252632 C136.784211,201.252632 137.731579,201.473684 138.305263,201.921053 C138.878947,202.368421 139.231579,202.857895 139.373684,203.4 L139.447368,203.810526 L139.468421,204.215789 L139.452632,204.547368 L139.410526,204.857895 L136.994737,204.857895 L137.010526,204.747368 L137.010526,204.621053 L136.989474,204.368421 L136.931579,204.105263 L136.442105,203.468421 C136.194737,203.273684 135.810526,203.173684 135.284211,203.168421 C134.436842,203.189474 133.773684,203.531579 133.289474,204.189474 C132.805263,204.847368 132.5,205.578947 132.368421,206.357895 L132.305263,206.831579 L132.284211,207.294737 L132.305263,207.773684 L132.394737,208.336842 L132.9,209.305263 C133.147368,209.594737 133.536842,209.752632 134.063158,209.757895 L134.594737,209.7 L135.326316,209.410526 L135.942105,208.852632 L136.442105,207.884211 L136.573684,207.884211 Z M117.263158,211.363158 L116.415789,204.494737 L114.978947,211.363158 L112.526316,211.363158 L114.621053,201.515789 L118.1,201.515789 L118.936842,208.084211 L122.373684,201.515789 L125.984211,201.515789 L123.884211,211.363158 L121.431579,211.363158 L122.915789,204.5 L119.294737,211.363158 L117.263158,211.363158 Z M103.052632,207.847368 L105.489474,207.847368 L105.026316,204.289474 L103.052632,207.847368 Z M104.468421,201.515789 L106.821053,201.515789 L108.426316,211.363158 L105.878947,211.363158 L105.636842,209.521053 L102.2,209.521053 L101.178947,211.363158 L98.5526316,211.363158 L104.336842,201.515789 L104.468421,201.515789 Z M90.5473684,205.594737 L94.4526316,201.515789 L97.3947368,201.515789 L92.6421053,206.247368 L95.5789474,211.363158 L92.7368421,211.363158 L90.3210526,206.631579 L89.3526316,211.363158 L86.9,211.363158 L88.9947368,201.515789 L91.4526316,201.515789 L90.5473684,205.594737 Z M78.0210526,205.431579 L82.8368421,205.431579 L82.4526316,207.231579 L77.6368421,207.231579 L77.1736842,209.452632 L82.7578947,209.452632 L82.3578947,211.363158 L74.3052632,211.363158 L76.4,201.515789 L84.3210526,201.515789 L83.9105263,203.426316 L78.4421053,203.426316 L78.0210526,205.431579 Z M64.0210526,207.126316 L63.1315789,211.363158 L60.6736842,211.363158 L62.7578947,201.515789 L65.2105263,201.515789 L64.4315789,205.215789 L67.8789474,205.215789 L68.6789474,201.515789 L71.1315789,201.515789 L69.0368421,211.363158 L66.5789474,211.363158 L67.4842105,207.126316 L64.0210526,207.126316 Z M48.2263158,211.363158 L49.1947368,206.994737 L45.4368421,211.363158 L42.3210526,211.363158 L47.2052632,206.005263 L44.5368421,201.515789 L47.3894737,201.515789 L49.5157895,205.431579 L50.3157895,201.515789 L52.7789474,201.515789 L51.9,205.442105 L55.5105263,201.515789 L58.5526316,201.515789 L53.9315789,206.278947 L56.5842105,211.363158 L53.6421053,211.363158 L51.5684211,206.984211 L50.6789474,211.363158 L48.2263158,211.363158 Z M32.7789474,207.647368 L37.6736842,201.515789 L40.3157895,201.515789 L38.2315789,211.363158 L35.7789474,211.363158 L37.0789474,205.163158 L32.1684211,211.363158 L29.5263158,211.363158 L31.6210526,201.515789 L34.0789474,201.515789 L32.7789474,207.647368 Z M19.2421053,207.126316 L18.3526316,211.363158 L15.8947368,211.363158 L17.9789474,201.515789 L20.4368421,201.515789 L19.6526316,205.215789 L23.1052632,205.215789 L23.9,201.515789 L26.3526316,201.515789 L24.2578947,211.363158 L21.8052632,211.363158 L22.7052632,207.126316 L19.2421053,207.126316 Z" id="Fill-250" fill="#1F3E85"></path>
            </g>
        </g>
    </g>
</svg>