<?xml version="1.0" encoding="UTF-8"?>
<svg width="300px" height="300px" viewBox="0 0 300 300" version="1.1" xmlns="http://www.w3.org/2000/svg" xmlns:xlink="http://www.w3.org/1999/xlink">
    <!-- Generator: sketchtool 48.2 (47327) - http://www.bohemiancoding.com/sketch -->
    <title>773DBEC9-4A82-4114-BC65-C8B9A090E358</title>
    <desc>Created with sketchtool.</desc>
    <defs></defs>
    <g id="Symbols" stroke="none" stroke-width="1" fill="none" fill-rule="evenodd">
        <g id="logo_team/Автомобилист">
            <g id="Group" transform="translate(3.000000, 56.000000)">
                <path d="M219.981818,93.6163636 C219.981818,134.236364 187.052727,167.165455 146.432727,167.165455 C105.818182,167.165455 72.8890909,134.236364 72.8890909,93.6163636 C72.8890909,52.9963636 105.818182,20.0672727 146.432727,20.0672727 C187.052727,20.0672727 219.981818,52.9963636 219.981818,93.6163636" id="Fill-103" fill="#FFFFFE"></path>
                <path d="M225.469091,95.0618182 L225.501818,93.6327273 C225.501818,91.7236364 225.409091,89.8418182 225.283636,87.9709091 C264.376364,80.9781818 283.767273,60.3436364 291.965455,31.9636364 C291.965455,31.9636364 266.58,53.8090909 218.585455,60.9763636 C208.129091,37.4672727 186.747273,19.9472727 160.936364,15.0218182 L160.025455,14.8527273 L163.156364,26.6236364 C192.807273,34.2818182 214.729091,61.3745455 214.729091,93.6327273 C214.729091,131.830909 183.987273,162.796364 146.050909,162.796364 C108.12,162.796364 77.3672727,131.830909 77.3672727,93.6327273 C77.3727273,61.3745455 99.2890909,34.2818182 128.94,26.6236364 L132.076364,14.8527273 L131.105455,15.0327273 C105.36,19.9745455 84.0272727,37.4290909 73.5654545,60.8781818 C26.0290909,53.6072727 0.9,31.9636364 0.9,31.9636364 C9.04363636,60.1636364 28.2327273,80.7272727 66.8290909,87.84 C66.6927273,89.76 66.6,91.68 66.6,93.6327273 L66.6327273,94.9145455 C42.5236364,90.1854545 25.1836364,82.2654545 14.6345455,71.16 C20.6345455,96.3109091 39.36,112.336364 70.7727273,119.209091 C71.5854545,121.630909 72.5072727,123.992727 73.5327273,126.3 C55.8163636,124.096364 41.8909091,118.909091 31.8,110.732727 C38.9945455,132.796364 58.1945455,143.307273 85.8,145.750909 C100.374545,162.818182 121.952727,173.645455 146.050909,173.645455 C170.121818,173.645455 191.667273,162.850909 206.241818,145.821818 C234.289091,143.514545 253.8,133.014545 261.065455,110.732727 C250.816364,119.029091 236.629091,124.249091 218.530909,126.409091 C219.550909,124.123636 220.461818,121.783636 221.274545,119.389091 C253.183636,112.603636 272.170909,96.5290909 278.230909,71.16 C267.567273,82.3745455 249.970909,90.3381818 225.469091,95.0618182" id="Fill-104" fill="#D8232A"></path>
                <path d="M146.050909,0.06 C109.38,0.06 77.6781818,21.4581818 62.5690909,52.5381818 C67.5109091,53.6290909 71.6672727,54.1418182 76.6527273,54.7145455 C88.0581818,34.1236364 108.218182,19.1236364 132.076364,14.8527273 L98.6618182,140.427273 L125.830909,140.427273 L129.261818,125.901818 L162.834545,125.901818 L166.270909,140.427273 L193.434545,140.427273 L160.02,14.8472727 C184.052727,19.1509091 204.332727,34.3418182 215.694545,55.1563636 C220.385455,54.3981818 224.950909,53.6945455 229.603636,52.68 C214.521818,21.5290909 182.781818,0.06 146.050909,0.06 Z M134.345455,104.389091 L146.050909,54.8290909 L157.756364,104.389091 L134.345455,104.389091 Z M199.565455,152.683636 C185.443636,165.676364 166.674545,173.618182 146.045455,173.618182 C125.012727,173.618182 105.9,165.365455 91.6909091,151.925455 C84.7636364,151.930909 78.6763636,151.363636 71.8690909,149.945455 C88.8272727,172.554545 115.74,187.172727 146.045455,187.172727 C176.263636,187.172727 203.105455,172.630909 220.074545,150.125455 C213.621818,151.418182 206.138182,152.345455 199.565455,152.683636 Z" id="Fill-105" fill="#1A1919"></path>
            </g>
        </g>
    </g>
</svg>