<?xml version="1.0" encoding="UTF-8"?>
<svg width="338px" height="160px" viewBox="0 0 338 160" version="1.1" xmlns="http://www.w3.org/2000/svg" xmlns:xlink="http://www.w3.org/1999/xlink">
    <!-- Generator: sketchtool 48.2 (47327) - http://www.bohemiancoding.com/sketch -->
    <title>D41EEA3A-91ED-4EF8-A24F-12CF5B048F07</title>
    <desc>Created with sketchtool.</desc>
    <defs></defs>
    <g id="14-sponsor-1400" stroke="none" stroke-width="1" fill="none" fill-rule="evenodd" transform="translate(-211.000000, -385.000000)">
        <g id="Group" transform="translate(80.000000, 385.000000)" fill="#0079C1">
            <g id="logo-sponsor1" transform="translate(131.000000, 0.000000)">
                <path d="M281.211259,48.4392099 L272.278914,48.4392099 C264.723951,48.4392099 264.277333,54.465371 264.277333,58.3554897 L264.277333,94.0118213 C264.277333,97.9056484 264.723951,103.93181 272.278914,103.93181 L281.211259,103.93181 C288.766222,103.93181 289.227852,97.9056484 289.227852,94.0118213 L289.227852,58.3554897 C289.227852,54.465371 288.766222,48.4392099 281.211259,48.4392099 M276.74884,97.0712569 C275.427753,97.0712569 274.350617,96.0848207 274.350617,94.8684633 C274.350617,94.838796 274.36563,94.8128372 274.36563,94.7831699 L274.36563,57.5915579 L274.36563,57.4246796 L274.376889,57.2689265 C274.500741,56.1749465 275.506568,55.3071793 276.741333,55.3071793 C277.972346,55.3071793 278.993185,56.1749465 279.113284,57.2689265 L279.128296,57.4246796 L279.128296,57.5915579 L279.128296,94.7831699 C279.128296,94.8128372 279.135802,94.838796 279.135802,94.8684633 C279.135802,96.0848207 278.06242,97.0712569 276.74884,97.0712569" id="Fill-12"></path>
                <polygon id="Fill-13" points="113.078993 48.4392099 133.657165 48.4392099 133.657165 55.3294297 123.865363 55.3294297 123.865363 103.93181 113.078993 103.93181"></polygon>
                <path d="M147.187417,83.0827755 L149.045195,55.3216421 L149.653195,55.3216421 L151.499714,83.0827755 L147.187417,83.0827755 Z M135.252602,103.931439 L145.795022,103.931439 L146.808356,89.1793964 L151.897541,89.1793964 L152.892109,103.931439 L163.453294,103.931439 L157.819911,48.438839 L140.878479,48.438839 L135.252602,103.931439 Z" id="Fill-14"></path>
                <path d="M178.897244,84.501612 L178.897244,94.9444856 C178.897244,96.3722222 179.963121,96.780147 180.586133,96.780147 C181.584454,96.780147 182.278775,95.8975461 182.278775,94.9444856 L182.278775,82.0429383 C182.278775,80.2999871 181.978528,78.4049912 177.95522,78.4049912 L173.582874,78.4049912 L173.582874,72.2972451 L178.112849,72.2972451 C181.194133,72.2972451 182.278775,71.5741058 182.278775,68.184622 L182.278775,57.1446949 C182.278775,56.1953427 181.584454,55.331284 180.586133,55.331284 C179.963121,55.331284 178.897244,55.7243751 178.897244,57.1446949 L178.897244,66.1969159 L168.103368,66.1969159 L168.103368,58.3536355 C168.103368,54.4672252 168.572504,48.4373557 176.116207,48.4373557 L185.059812,48.4373557 C192.614775,48.4373557 193.072652,54.4672252 193.072652,58.3536355 L193.072652,67.2389782 C193.072652,73.2503057 188.981788,74.911672 185.742874,74.7559189 L185.742874,75.3158883 C192.982578,75.1453016 193.072652,80.8599565 193.072652,82.8476626 L193.072652,94.0099671 C193.072652,97.9037942 192.614775,103.933664 185.059812,103.933664 L176.116207,103.933664 C168.572504,103.933664 168.103368,97.9037942 168.103368,94.0099671 L168.103368,84.501612 L178.897244,84.501612 Z" id="Fill-15"></path>
                <polygon id="Fill-16" points="200.166736 48.4392099 225.128514 48.4392099 225.128514 103.93181 215.062736 103.93181 215.062736 55.3294297 210.221254 55.3294297 210.221254 103.93181 200.166736 103.93181"></polygon>
                <path d="M243.720928,78.9493853 L243.720928,55.3305423 L246.554509,55.3305423 C247.725472,55.3305423 248.573669,56.3614794 248.573669,58.0970138 L248.573669,76.1829138 C248.573669,77.9295734 247.725472,78.9493853 246.554509,78.9493853 L243.720928,78.9493853 Z M232.942064,103.932922 L243.720928,103.932922 L243.720928,85.0682566 L249.883496,85.0682566 C257.438459,85.0682566 258.639447,79.0458039 258.639447,75.1445599 L258.639447,58.3566022 C258.639447,54.4664835 257.438459,48.4403224 249.883496,48.4403224 L232.942064,48.4403224 L232.942064,103.932922 Z" id="Fill-17"></path>
                <polygon id="Fill-18" points="323.647032 48.4392099 337.679822 48.4392099 337.679822 103.93181 326.885946 103.93181 326.885946 69.1321199 326.499378 69.1321199 320.94481 103.93181 312.327723 103.93181 306.776909 69.1321199 306.397847 69.1321199 306.397847 103.93181 295.60397 103.93181 295.60397 48.4392099 309.614242 48.4392099 316.617501 87.436816"></polygon>
                <path d="M91.057758,29.0579633 C87.6537086,14.3133378 79.1004247,2.31664174 77.9332148,0.366019753 C76.071684,3.11394921 69.256079,13.6977423 65.7957333,25.4459751 C62.0163753,38.544068 61.4571654,50.1587981 62.7594864,61.6103584 C64.0618074,73.047085 68.9558321,84.7916094 68.9558321,84.7916094 C71.556721,90.9623984 75.4561778,97.5633625 77.9895111,100.808218 C81.7013136,96.0354989 90.2621037,81.7989251 92.9192889,63.2012649 C94.3980049,52.8622267 94.4543012,43.7988804 91.057758,29.0579633 M77.9332148,97.1368957 C76.2630914,94.0255424 73.6509432,88.0920915 73.4069926,78.9323266 C73.339437,70.0544007 76.9348938,62.4595835 77.9895111,60.868677 C78.9315358,62.4595835 82.0128198,69.0753813 82.3843753,78.1276024 C82.6395852,86.9869862 79.6708938,93.9587911 77.9332148,97.1368957 M90.0744494,54.0785841 C89.9468444,59.7079457 89.2637827,65.6413966 88.4005728,69.1866335 C88.7158321,63.0788875 87.9652148,54.4494248 86.539042,47.714958 C85.1203753,40.9730744 81.0858074,29.7403102 77.8656593,24.5262902 C74.9044741,29.4807217 71.2414617,39.2078728 69.3236346,47.6593319 C67.3983012,56.1033743 67.3420049,66.3237434 67.3420049,69.3943043 C66.8278321,66.7872943 65.5480296,57.5941538 65.9158321,48.334262 C66.2198321,40.6912355 68.0250667,32.8516635 69.0121284,29.2359668 C72.7914864,17.1799363 77.0700049,9.47757531 77.8656593,8.25009265 C78.6725728,9.47757531 84.065758,18.96368 86.8543012,28.9318775 C89.6315852,38.9074918 90.187042,48.4566394 90.0744494,54.0785841" id="Fill-19"></path>
                <path d="M57.0187654,103.922539 L57.0187654,121.363176 C57.041284,121.340925 57.0638025,121.318675 57.0975802,121.292716 C63.2639012,115.218346 73.2733827,115.218346 79.4472099,121.292716 C85.6247901,127.35967 85.6247901,137.224032 79.4472099,143.294694 C79.4246914,143.320653 79.3984198,143.342903 79.3683951,143.368862 L79.3683951,143.376279 C79.3308642,143.402238 79.3045926,143.428196 79.278321,143.457864 C73.1157531,149.465483 65.0653827,152.484126 57.0187654,152.484126 C48.9496296,152.484126 40.8579753,149.435815 34.6954074,143.387404 C23.8339753,132.68865 22.5354074,116.145447 30.8259753,104.05975 C31.9368889,102.424342 33.2241975,100.874228 34.6954074,99.4390747 C40.8579753,93.3684127 48.9496296,90.3423527 57.0187654,90.3423527 L57.0187654,48.7377366 C25.9732346,48.7377366 0.775012346,73.517311 0.775012346,104.05975 C0.775012346,134.628147 25.9732346,159.404013 57.0187654,159.404013 C73.2245926,159.404013 87.8053333,152.654713 98.0625185,141.881791 L98.0625185,103.922539 L57.0187654,103.922539 Z" id="Fill-20"></path>
                <path d="M229.039605,134.463494 L228.165136,134.463494 L228.165136,145.688841 L229.039605,145.688841 C230.304395,145.688841 230.762272,145.336543 230.762272,143.919931 L230.762272,136.173069 C230.762272,134.752749 230.304395,134.463494 229.039605,134.463494 L229.039605,134.463494 Z M320.247111,141.965601 L318.982321,141.965601 L318.982321,148.255059 L320.247111,148.255059 C321.526914,148.255059 321.909728,147.936136 321.909728,146.556608 L321.909728,143.656634 C321.909728,142.277107 321.526914,141.965601 320.247111,141.965601 L320.247111,141.965601 Z M219.994667,136.239821 L219.994667,143.953307 C219.994667,145.36621 220.452543,145.688841 221.709827,145.688841 L222.629333,145.688841 L222.629333,134.463494 L221.709827,134.463494 C220.452543,134.463494 219.994667,134.823209 219.994667,136.239821 L219.994667,136.239821 Z M113.080494,159.406238 L337.680198,159.406238 L337.680198,122.411172 L113.080494,122.411172 L113.080494,159.406238 Z M137.460543,152.508601 L131.763358,152.508601 L131.763358,141.965601 L128.839704,141.965601 L128.839704,152.508601 L123.146272,152.508601 L123.146272,128.418791 L128.839704,128.418791 L128.839704,137.715766 L131.763358,137.715766 L131.763358,128.418791 L137.460543,128.418791 L137.460543,152.508601 Z M184.678123,132.969006 L176.890469,132.969006 L176.890469,137.70835 L183.859951,137.70835 L183.859951,142.277107 L176.890469,142.277107 L176.890469,147.954678 L184.678123,147.954678 L184.678123,152.527143 L171.016889,152.527143 L171.016889,128.39654 L184.678123,128.39654 L184.678123,132.969006 Z M236.286815,143.919931 C236.286815,148.81132 233.772247,150.127804 228.165136,150.127804 L228.165136,152.508601 L222.629333,152.508601 L222.629333,150.127804 C217.003457,150.127804 214.458864,148.81132 214.458864,143.919931 L214.458864,136.391865 C214.458864,131.474518 216.902123,130.224785 222.629333,130.224785 L222.629333,128.418791 L228.165136,128.418791 L228.165136,130.224785 C233.854815,130.224785 236.286815,131.474518 236.286815,136.391865 L236.286815,143.919931 Z M280.089086,132.969006 L275.77679,132.969006 L275.77679,152.527143 L270.361086,152.527143 L270.361086,132.969006 L265.741037,132.969006 L265.741037,128.39654 L280.089086,128.39654 L280.089086,132.969006 Z M327.599407,146.29702 C327.599407,151.570374 325.167407,152.508601 318.982321,152.508601 L313.288889,152.508601 L313.288889,128.418791 L318.982321,128.418791 L318.982321,137.715766 L319.931852,137.715766 C325.527704,137.715766 327.599407,139.006292 327.599407,143.823513 L327.599407,146.29702 Z" id="Fill-21"></path>
            </g>
        </g>
    </g>
</svg>