<?xml version="1.0" encoding="UTF-8"?>
<svg width="300px" height="300px" viewBox="0 0 300 300" version="1.1" xmlns="http://www.w3.org/2000/svg" xmlns:xlink="http://www.w3.org/1999/xlink">
    <!-- Generator: sketchtool 48.2 (47327) - http://www.bohemiancoding.com/sketch -->
    <title>6EC02414-4260-4E8F-912F-DA192241E81B</title>
    <desc>Created with sketchtool.</desc>
    <defs></defs>
    <g id="Symbols" stroke="none" stroke-width="1" fill="none" fill-rule="evenodd">
        <g id="logo_team/спартак">
            <g id="Group" transform="translate(-37.000000, 58.000000)">
                <path d="M63.9723156,96.0460688 L57.5850758,92.4905815 L186.497636,21.1736282 L315.433835,92.4858722 L186.497636,163.816953 L63.9723156,96.0460688 Z M186.497636,12 L41,92.4905815 L186.488181,173 L332,92.4764537 L186.497636,12 Z" id="Fill-11263" fill="#BF263A"></path>
                <path d="M73.6435762,91.9929682 L185.488219,30.2069592 L222.681806,50.7585421 L110.827738,112.553927 L73.6435762,91.9929682 Z M185.488219,21 L57,91.9929682 L63.3709272,95.5369912 L185.488219,163 L314,91.9835925 L185.488219,21 Z" id="Fill-11264" fill="#FFFFFE"></path>
                <polyline id="Fill-11265" fill="#BF263A" points="186.716744 29.7926319 74.5977334 91.4820893 111.871542 112 224 50.3058625 186.716744 29.7926319 -2.84217094e-14 0"></polyline>
                <polyline id="Fill-11266" fill="#BF263A" points="260.813595 73 260.813595 73 149 135.283079 186.181695 156 298 93.7027442 260.813595 73"></polyline>
                <path d="M214.829667,54.6010813 L203.45305,54.6153531 L203.45305,58.3878648 C198.852489,55.2100113 193.154763,52.8504076 182.861185,53.0073974 C158.841267,53.3499205 142.882925,71.7082086 143.000647,92.649692 C143.108951,114.361852 159.45342,131.754416 185.097896,131.997036 C199.313958,132.144511 211.236803,126.768801 220,120.251347 L212.90845,111.873802 C205.501406,117.477861 198.127324,121.355033 189.373545,121.250373 C175.892066,121.060082 161.652459,114.352338 161.854941,92.202509 C162.085675,67.2506507 176.480674,63.1594022 186.595315,63.0928005 C197.727071,62.9976552 203.438923,70.6140375 203.523683,79.0629413 L214.829667,79.0201259 L214.829667,54.6010813" id="Fill-11267" fill="#BF263A"></path>
                <path d="M213.581946,55.6499041 L205.795005,55.6499041 L205.795005,59.6940654 L205.828694,61.2681118 L204.433012,60.0164605 C200.226717,57.2903259 193.700702,54 183.170525,54 C160.108091,54.1185276 144,70.9447043 144,91.8245246 C144,112.268163 160.315036,129.103822 185.798257,128.999518 C199.702133,128.999518 210.641389,123.741634 218,118.834592 L213.278746,113.363358 C205.693939,118.938896 198.628902,121.996908 189.686915,121.996908 C174.425858,121.996908 159.472815,113.690494 159.472815,91.6111749 C159.472815,64.9424671 176.115114,60.452642 187.063996,60.3483377 C198.431582,60.3483377 205.693939,67.8961747 205.795005,76.3068925 L213.702263,76.2594814 L213.581946,55.6499041" id="Fill-11268" fill="#FFFFFE"></path>
            </g>
        </g>
    </g>
</svg>