<?xml version="1.0" encoding="UTF-8"?>
<svg width="300px" height="300px" viewBox="0 0 300 300" version="1.1" xmlns="http://www.w3.org/2000/svg" xmlns:xlink="http://www.w3.org/1999/xlink">
    <!-- Generator: sketchtool 48.2 (47327) - http://www.bohemiancoding.com/sketch -->
    <title>C574B4C6-5D8C-4973-B0E3-C5A1D5908AFF</title>
    <desc>Created with sketchtool.</desc>
    <defs></defs>
    <g id="Symbols" stroke="none" stroke-width="1" fill="none" fill-rule="evenodd">
        <g id="logo_team/Локомотив">
            <g id="Group-7" transform="translate(0.000000, 5.000000)">
                <path d="M259.397561,153.468293 C256.273171,144.812195 252.387805,135.929268 247.85122,127.887805 C245.992683,124.587805 244.031707,121.44878 241.97561,118.507317 C231.358537,119.758537 223.302439,128.509756 218.056098,140.707317 C229.280488,147.9 240.54878,151.946341 250.07561,153.190244 C253.434146,153.629268 256.565854,153.709756 259.397561,153.468293 Z M186.021951,118.368293 C190.156098,121.339024 194.34878,124.214634 198.439024,127.009756 C203.656098,130.587805 208.704878,134.04878 213.270732,137.458537 L213.263415,137.45122 C214.060976,138.021951 214.865854,138.578049 215.663415,139.134146 C221.085366,126.84878 229.280488,117.84878 240.05122,115.865854 C234.936585,109.119512 229.309756,103.778049 223.280488,100.873171 C219.592683,99.0878049 216.058537,97.6317073 212.656098,96.4756098 C207.563415,97.8878049 202.836585,100.55122 198.563415,104.041463 C193.778049,107.941463 189.570732,112.895122 186.021951,118.368293 Z M208.163415,172.368293 L207.534146,172.595122 C202.67561,156.226829 191.282927,148.097561 174.036585,149.480488 C175.097561,142.309756 177.534146,134.495122 181.104878,127.097561 C182.143902,124.968293 183.270732,122.868293 184.485366,120.841463 C188.590244,123.782927 192.746341,126.636585 196.8,129.417073 C201.95122,132.936585 206.94878,136.360976 211.536585,139.785366 L211.558537,139.792683 C212.546341,140.517073 213.534146,141.197561 214.514634,141.870732 C210.95122,150.95122 208.8,161.57561 208.163415,172.368293 Z M211.441463,167.634146 L211.441463,167.619512 L211.441463,167.634146 Z M211.207317,170.385366 L211.207317,170.326829 L211.207317,170.385366 Z M211.156098,170.897561 L211.170732,170.882927 L211.170732,170.846341 L211.178049,170.736585 L211.156098,170.897561 Z M253.660976,119.304878 L253.792683,119.334146 L253.660976,119.304878 Z M251.341463,118.895122 L251.458537,118.902439 L251.341463,118.895122 Z M218.260976,95.4292683 L218.268293,95.4292683 L218.260976,95.4292683 Z M211.156098,170.897561 C211.060976,172.346341 210.980488,173.787805 210.936585,175.236585 L211.156098,170.897561 Z M211.207317,170.385366 L211.178049,170.736585 L211.207317,170.385366 Z M211.441463,167.634146 L211.426829,167.890244 L211.412195,168.029268 L211.404878,168.080488 L211.397561,168.160976 L211.382927,168.3 L211.368293,168.439024 L211.360976,168.541463 L211.360976,168.585366 L211.309756,169.112195 L211.287805,169.243902 L211.280488,169.382927 L211.280488,169.463415 L211.207317,170.326829 L211.280488,169.463415 L211.441463,167.634146 Z M210.936585,175.236585 C212.34878,176.531707 214.02439,176.392683 215.758537,175.960976 C231.826829,171.24878 248.22439,169.792683 265.017073,172.060976 C264.526829,170.026829 263.970732,167.934146 263.363415,165.782927 L263.158537,165.058537 L263.121951,164.970732 C262.931707,164.282927 262.719512,163.565854 262.5,162.856098 L262.5,162.834146 L262.463415,162.709756 L262.419512,162.570732 L262.404878,162.526829 C261.782927,160.478049 261.109756,158.385366 260.378049,156.278049 C257.158537,156.636585 253.558537,156.563415 249.695122,156.065854 C239.919512,154.785366 228.402439,150.695122 216.936585,143.443902 C214.258537,150.490244 212.436585,158.52439 211.536585,166.814634 L211.521951,166.953659 L211.521951,166.960976 L211.492683,167.209756 L211.492683,167.22439 L211.478049,167.363415 L211.44878,167.619512 L211.478049,167.363415 L210.936585,175.236585 Z M167.882927,103.821951 C174.790244,99.4902439 181.712195,95.9780488 188.546341,93.6804878 C190.419512,93.4097561 192.321951,93.2560976 194.246341,93.2341463 C198.607317,93.1829268 203.129268,93.7829268 207.878049,95.0268293 L207.753659,95.0853659 C203.817073,96.702439 200.136585,98.9926829 196.719512,101.795122 C191.75122,105.863415 187.353659,110.985366 183.665854,116.656098 C179.114634,113.326829 174.665854,109.858537 170.509756,106.2 C169.617073,105.417073 168.746341,104.619512 167.882927,103.821951 Z M218.268293,95.4292683 L218.290244,95.4292683 C219.907317,95.2756098 221.553659,95.2536585 223.221951,95.3707317 C225.702439,95.5317073 228.234146,95.9926829 230.839024,96.7756098 L218.268293,95.4292683 Z M230.839024,96.7756098 C240.109756,101.45122 248.019512,108.512195 255.556098,116.721951 C254.312195,116.421951 252.973171,116.158537 251.52439,115.968293 L251.480488,115.960976 L251.231707,115.931707 L251.158537,115.909756 L251.063415,115.902439 L250.990244,115.887805 L250.953659,115.887805 L249.47561,115.719512 L249.468293,115.719512 L247.895122,115.587805 L247.865854,115.580488 C247.104878,115.536585 246.314634,115.492683 245.495122,115.463415 L243.995122,115.456098 L243.380488,115.485366 C241.185366,112.478049 238.880488,109.704878 236.495122,107.246341 L236.436585,107.187805 L236.319512,107.056098 L235.807317,106.543902 L235.785366,106.529268 C235.07561,105.819512 234.358537,105.146341 233.641463,104.502439 L233.634146,104.487805 L232.37561,103.404878 L232.353659,103.37561 L232.317073,103.353659 L232.090244,103.178049 L232.090244,103.170732 L231.980488,103.07561 L231.863415,102.995122 L231.797561,102.929268 L231.790244,102.921951 L231.497561,102.695122 L231.241463,102.482927 L231.197561,102.446341 L231.139024,102.409756 L230.312195,101.780488 L230.297561,101.773171 L230.121951,101.641463 C228.3,100.302439 226.44878,99.1756098 224.546341,98.2609756 C223.134146,97.5731707 221.736585,96.9439024 220.360976,96.3439024 L220.346341,96.3439024 L220.331707,96.3365854 L220.287805,96.3219512 L220.273171,96.3073171 L220.243902,96.3 L220.229268,96.2926829 L220.2,96.2780488 L220.053659,96.204878 L220.046341,96.204878 L219.84878,96.1317073 L219.841463,96.1243902 L219.307317,95.8902439 L219.263415,95.8829268 L219.256098,95.8756098 L219.234146,95.8682927 L218.87561,95.7219512 L218.868293,95.7219512 L218.743902,95.6707317 L218.736585,95.6634146 L218.714634,95.6560976 L218.678049,95.6341463 L218.670732,95.6268293 L218.473171,95.5609756 L218.429268,95.5390244 L218.392683,95.5243902 L218.385366,95.5170732 L218.363415,95.5097561 L218.334146,95.502439 L218.297561,95.4804878 L218.282927,95.4731707 L218.268293,95.4658537 L218.187805,95.4292683 L218.22439,95.4292683 L230.839024,96.7756098 Z M259.514634,121.163415 C260.604878,122.414634 261.695122,123.687805 262.778049,124.990244 C266.992683,129.541463 270.717073,134.4 274.017073,139.44878 C274.353659,141.841463 274.119512,143.934146 273.380488,145.719512 L273.380488,145.726829 L273.373171,145.734146 L273.373171,145.741463 L273.365854,145.741463 L273.365854,145.763415 L273.35122,145.763415 L273.35122,145.778049 L273.343902,145.785366 C272.070732,148.807317 269.290244,151.002439 265.419512,152.282927 C264.460976,152.597561 263.421951,152.860976 262.339024,153.058537 C259.134146,144.073171 255.102439,134.831707 250.382927,126.468293 C248.795122,123.65122 247.126829,120.936585 245.4,118.37561 C247.573171,118.44878 249.54878,118.617073 251.341463,118.895122 L251.458537,118.902439 L251.487805,118.909756 L251.604878,118.92439 L251.64878,118.931707 L251.663415,118.939024 L251.890244,118.97561 L251.956098,118.990244 L252.439024,119.063415 L252.54878,119.085366 L252.585366,119.085366 L252.658537,119.1 L252.72439,119.114634 L253.134146,119.195122 L253.258537,119.217073 L253.397561,119.239024 L253.419512,119.246341 L253.492683,119.260976 L253.558537,119.282927 L253.660976,119.304878 L253.792683,119.334146 L253.829268,119.341463 L253.895122,119.356098 L253.960976,119.363415 L254.04878,119.385366 L254.114634,119.4 L254.180488,119.414634 L254.443902,119.480488 L254.52439,119.502439 L254.560976,119.509756 L254.582927,119.509756 L254.75122,119.546341 L254.795122,119.553659 L254.809756,119.560976 L254.817073,119.560976 L254.941463,119.597561 C256.660976,120.021951 258.17561,120.556098 259.514634,121.163415 Z M165.417073,212.414634 C200.056098,191.195122 239.107317,169.053659 290.839024,190.521951 C294.563415,193.580488 281.121951,200.853659 270.914634,204.402439 C281.041463,203.64878 296.714634,195.995122 295.653659,190.55122 L295.719512,190.67561 C291.460976,175.646341 285.856098,159.153659 276.870732,144.021951 C276.695122,144.995122 276.431707,145.931707 276.065854,146.809756 L275.678049,147.658537 L275.531707,147.958537 L275.517073,147.980488 L275.509756,147.980488 L275.502439,148.002439 L275.45122,148.104878 L275.436585,148.119512 L275.429268,148.141463 L275.414634,148.156098 L275.363415,148.243902 L275.34878,148.273171 L275.341463,148.287805 L275.334146,148.302439 L275.260976,148.426829 L275.231707,148.470732 L275.217073,148.492683 L275.202439,148.521951 L275.158537,148.580488 L275.15122,148.609756 L275.129268,148.631707 L275.121951,148.653659 L275.092683,148.690244 C273.263415,151.617073 270.241463,153.746341 266.334146,155.034146 C265.382927,155.356098 264.365854,155.626829 263.304878,155.831707 C264.080488,158.114634 264.790244,160.37561 265.456098,162.592683 C265.682927,163.32439 265.895122,164.056098 266.1,164.787805 L266.114634,164.82439 L266.195122,165.102439 L266.202439,165.146341 L266.282927,165.417073 L266.290244,165.446341 C266.970732,167.882927 267.585366,170.246341 268.112195,172.514634 C273.12439,173.326829 278.173171,174.47561 283.258537,175.960976 L288.109756,177.446341 C289.156098,180.519512 290.092683,183.54878 290.897561,186.490244 C286.785366,184.587805 280.807317,183.263415 273.54878,181.185366 C230.414634,171.643902 194.282927,188.934146 165.417073,212.414634 Z M157.243902,153.219512 C155.531707,142.8 153.812195,132.373171 152.107317,121.953659 C144.241463,127.74878 136.419512,134.056098 128.458537,140.34878 C105.782927,161.568293 80.1292683,186.109756 57.4463415,207.314634 C67.8073171,197.034146 79.9170732,182.802439 90.2707317,172.521951 C102,160.858537 114.036585,149.604878 125.773171,137.956098 C138.270732,126.241463 151.763415,114.35122 165.365854,105.439024 C166.243902,106.265854 167.143902,107.092683 168.05122,107.897561 C172.5,111.856098 177.263415,115.565854 182.121951,119.121951 C180.819512,121.309756 179.604878,123.556098 178.5,125.839024 C174.665854,133.756098 172.097561,142.14878 171.036585,149.802439 C166.770732,150.395122 162.168293,151.521951 157.243902,153.219512 Z M159.365854,166.873171 C144.936585,173.217073 126.387805,186.556098 95.195122,207.578049 C112.309756,207.54878 123.834146,207.512195 140.94878,207.482927 C154.097561,197.356098 177.278049,185.246341 193.14878,177.914634 C189.614634,165.746341 181.931707,158.136585 159.365854,166.873171 Z M90.2853659,194.209756 C88.997561,195.168293 87.695122,196.14878 86.4073171,197.121951 C85.8,193.5 85.2073171,189.870732 84.6073171,186.24878 C85.8512195,185.041463 87.1097561,183.826829 88.3682927,182.604878 C89.004878,186.47561 89.6414634,190.360976 90.2853659,194.209756 Z M105.585366,183.102439 C103.668293,184.44878 101.773171,185.802439 99.8560976,187.185366 C99.1243902,182.736585 98.3853659,178.258537 97.6463415,173.795122 C99.497561,172.068293 101.341463,170.341463 103.185366,168.629268 C103.97561,173.473171 104.780488,178.287805 105.585366,183.102439 Z M122.912195,171.504878 C120.54878,172.990244 118.163415,174.534146 115.770732,176.121951 C114.84878,170.626829 113.941463,165.12439 113.026829,159.621951 C115.360976,157.514634 117.658537,155.458537 119.912195,153.453659 C120.409756,156.453659 120.907317,159.47561 121.404878,162.482927 C121.902439,165.490244 122.407317,168.497561 122.912195,171.504878 Z M143.392683,159.958537 C140.443902,161.4 137.429268,162.973171 134.363415,164.678049 C133.785366,161.209756 133.2,157.734146 132.621951,154.265854 C132.043902,150.77561 131.465854,147.3 130.887805,143.817073 C133.92439,141.204878 136.807317,138.753659 139.485366,136.521951 C140.136585,140.421951 140.787805,144.343902 141.439024,148.243902 C142.097561,152.143902 142.741463,156.065854 143.392683,159.958537 Z M77.7219512,192.987805 C78.2487805,196.178049 78.7682927,199.346341 79.2804878,202.514634 C78.3073171,203.260976 77.3195122,204.014634 76.3390244,204.753659 C75.8560976,201.790244 75.3658537,198.804878 74.8756098,195.819512 C75.8195122,194.897561 76.7707317,193.939024 77.7219512,192.987805 Z M201.995122,90.8560976 C203.1,90.7829268 204.190244,90.7390244 205.273171,90.7390244 C210.256098,90.7682927 214.865854,91.3609756 219.182927,92.4292683 C216.973171,92.5609756 214.814634,92.897561 212.721951,93.4390244 C209.019512,92.2243902 205.463415,91.3609756 201.995122,90.8560976 Z" id="Fill-11227" fill="#005093"></path>
                <path d="M211.126829,292.273171 C200.7,285.856098 190.104878,272.802439 188.721951,241.982927 C186.621951,223.997561 176.356098,213.65122 147.578049,214.895122 L14.7878049,214.895122 L14.7878049,214.902439 C10.1926829,214.931707 6.43170732,218.641463 6.43170732,223.178049 C6.43170732,227.721951 10.1926829,231.431707 14.7878049,231.460976 L14.7878049,231.47561 L141.204878,231.47561 L141.204878,231.482927 L141.219512,231.47561 C142.368293,231.47561 143.290244,232.412195 143.290244,233.553659 C143.290244,234.695122 142.368293,235.62439 141.219512,235.62439 L141.204878,235.62439 L141.204878,235.646341 L25.4560976,235.646341 C20.8390244,235.682927 17.0926829,239.22439 17.0926829,243.556098 C17.0926829,247.895122 20.8536585,251.436585 25.4560976,251.458537 L25.4560976,251.392683 L25.4780488,251.429268 L151.741463,251.429268 L151.741463,251.443902 L151.74878,251.443902 C152.897561,251.443902 153.819512,252.380488 153.819512,253.514634 C153.819512,254.663415 152.897561,255.592683 151.74878,255.592683 L151.741463,255.592683 L151.741463,255.6 L42.0219512,255.6 L42.0219512,255.621951 C37.4634146,255.709756 33.7756098,259.302439 33.7756098,263.7 C33.7756098,268.126829 37.5219512,271.741463 42.1317073,271.770732 L42.1317073,271.763415 L160.660976,271.763415 L160.660976,271.778049 L160.668293,271.778049 C161.802439,271.778049 162.739024,272.707317 162.739024,273.84878 C162.739024,274.990244 161.802439,275.919512 160.668293,275.919512 L160.660976,275.919512 L160.660976,275.926829 L64.7707317,275.926829 L64.7707317,275.941463 C60.1536585,275.978049 56.4073171,279.629268 56.4073171,284.107317 C56.4073171,288.585366 60.1536585,292.236585 64.7707317,292.273171 L211.126829,292.273171" id="Fill-11228" fill="#005093"></path>
                <path d="M87.7536585,169.404878 L138.24878,62.3560976 L138.95122,60.9292683 C138.95122,60.9292683 142.090244,54.7463415 145.126829,54.6292683 C145.126829,54.6292683 148.382927,54.0146341 150.270732,56.1439024 C152.956098,59.1804878 156.365854,71.3853659 156.365854,71.3853659 C159.256098,81.8121951 162.095122,91.7414634 164.87561,101.202439 C166.646341,100.097561 168.431707,99.0146341 170.239024,97.9609756 C172.829268,96.5341463 175.419512,95.1878049 178.082927,93.9 L183.329268,91.6682927 L188.57561,89.8536585 L193.829268,88.5146341 L196.44878,88.0317073 L199.068293,87.6804878 L201.687805,87.4682927 L206.802439,87.4682927 L211.660976,87.8560976 L214.580488,88.3243902 C211.397561,78.4243902 207.95122,68.2390244 204.219512,57.8121951 C197.129268,36.5487805 186.146341,3.5195122 186.146341,3.5195122 L185.1,2.76585366 L87.9878049,2.76585366 L87.1902439,3.55609756 L87.1902439,23.4585366 L87.9878049,24.2560976 C87.9878049,24.2560976 102.146341,24.2560976 105.3,25.3097561 C108.446341,26.3560976 112.068293,29.7439024 113.004878,33.1317073 C113.941463,36.5195122 115.221951,43.295122 111.95122,51.9439024 C108.680488,60.5853659 46.302439,191.165854 46.302439,191.165854 L45.6219512,192.607317 C45.6219512,192.607317 42.3365854,199.741463 38.7878049,207.17561 L51.5707317,207.17561 L59.1219512,199.653659 C68.6195122,189.987805 77.4585366,179.692683 87.0585366,170.092683 L87.7536585,169.404878" id="Fill-11229" fill="#D8232A"></path>
                <path d="M221.897561,204.343902 C233.809756,208.163415 242.860976,225.819512 242.860976,246.914634 C242.860976,268.002439 233.817073,285.658537 221.904878,289.485366 C220.997561,289.646341 220.07561,289.734146 219.153659,289.734146 C212.429268,289.734146 206.165854,285.095122 201.47561,277.617073 C196.543902,269.765854 193.492683,258.907317 193.492683,246.907317 C193.492683,234.914634 196.543902,224.056098 201.47561,216.204878 C206.165854,208.726829 212.436585,204.095122 219.153659,204.095122 C220.07561,204.095122 220.990244,204.17561 221.897561,204.343902" id="Fill-11230" fill="#1A1919"></path>
                <path d="M224.57561,201.72439 L246.036585,201.72439 C281.582927,205.119512 283.67561,288.453659 246.036585,292.214634 L224.568293,292.214634 C230.378049,290.312195 235.5,285.673171 239.378049,279.146341 C244.309756,270.878049 247.37561,259.478049 247.37561,246.965854 C247.37561,234.453659 244.309756,223.060976 239.378049,214.785366 C235.5,208.265854 230.385366,203.626829 224.57561,201.72439" id="Fill-11231" fill="#1A1919"></path>
            </g>
        </g>
    </g>
</svg>