<?xml version="1.0" encoding="UTF-8"?>
<svg width="300px" height="300px" viewBox="0 0 300 300" version="1.1" xmlns="http://www.w3.org/2000/svg" xmlns:xlink="http://www.w3.org/1999/xlink">
    <!-- Generator: sketchtool 48.2 (47327) - http://www.bohemiancoding.com/sketch -->
    <title>3323E9F1-2B47-4D46-9AEA-A0D5C8F635E4</title>
    <desc>Created with sketchtool.</desc>
    <defs></defs>
    <g id="Symbols" stroke="none" stroke-width="1" fill="none" fill-rule="evenodd">
        <g id="logo_team/МеталлургНК">
            <g id="Group" transform="translate(4.000000, 0.000000)">
                <path d="M0,157.5 C0,76.5910456 65.5910456,11 146.5,11 C227.408954,11 293,76.5910456 293,157.5 C293,238.408954 227.408954,304 146.5,304 C65.5910456,304 0,238.408954 0,157.5" id="Fill-177" fill="#FFFFFE"></path>
                <path d="M146.5,71 C99.2769356,71 61,109.276936 61,156.506646 C61,203.716418 99.2769356,242 146.5,242 C193.723064,242 232,203.716418 232,156.506646 C232,109.276936 193.723064,71 146.5,71 M146.5,76.8887593 C190.39319,76.8887593 226.111241,112.600163 226.111241,156.506646 C226.111241,200.399837 190.39319,236.111241 146.5,236.111241 C102.60681,236.111241 66.8954058,200.399837 66.8954058,156.506646 C66.8954058,112.600163 102.60681,76.8887593 146.5,76.8887593" id="Fill-178" fill="#1A1919"></path>
                <path d="M146.496672,28 C75.5259887,28 18,85.5326444 18,156.496672 C18,227.467356 75.5259887,285 146.496672,285 C217.467356,285 275,227.467356 275,156.496672 C275,85.5326444 217.467356,28 146.496672,28 M146.496672,64.866418 C197.02077,64.866418 238.133582,105.972574 238.133582,156.496672 C238.133582,207.02077 197.02077,248.133582 146.496672,248.133582 C95.972574,248.133582 54.866418,207.02077 54.866418,156.496672 C54.866418,105.972574 95.972574,64.866418 146.496672,64.866418" id="Fill-179" fill="#1A1919"></path>
                <path d="M146.496668,17 C68.9042808,17 6,79.9057727 6,157.5 C6,235.100892 68.9042808,298 146.496668,298 C224.095719,298 287,235.100892 287,157.5 C287,79.9057727 224.095719,17 146.496668,17 M146.496668,22.9047054 C220.710257,22.9047054 281.08877,83.2846504 281.08877,157.5 C281.08877,231.71535 220.710257,292.095295 146.496668,292.095295 C72.2830784,292.095295 11.9045654,231.71535 11.9045654,157.5 C11.9045654,83.2846504 72.2830784,22.9047054 146.496668,22.9047054" id="Fill-180" fill="#1A1919"></path>
                <polyline id="Fill-181" fill="#FFFFFE" points="39.0945946 184.160324 47.1891892 185.837466 48.3918919 189.629266 42.6959459 195.522465 53.4527027 192.227842 55 197.100172 35.6959459 203 34.0675676 197.85588 42.5472973 189.337589 30.6351351 187.037319 29 181.899828 48.2972973 176 49.8445946 180.87233 39.0945946 184.160324"></polyline>
                <polyline id="Fill-182" fill="#FFFFFE" points="46.2021893 154 47 169.994043 26.7978107 171 26 155.005957 30.0363812 154.803415 30.5772698 165.612391 34.4784288 165.4166 34.0524791 156.909849 38.0888603 156.714059 38.51481 165.214059 42.6999356 165.004766 42.159047 154.202542 46.2021893 154"></polyline>
                <polyline id="Fill-183" fill="#FFFFFE" points="48 138.366578 47.1915554 143.567187 31.7919901 140.936049 30.8531512 147 27 146.349067 29.6861223 129 33.5392735 129.657785 32.6004346 135.728588 48 138.366578"></polyline>
                <path d="M45.8411295,120.569672 L47.4549344,116.204918 L40.5011409,115.918033 L45.8411295,120.569672 Z M51.6075299,125.699454 L49.6460354,131 L34,116.45082 L36.013976,111 L57,111.11612 L55.0319452,116.437158 L51.3123217,116.348361 L48.7932116,123.15847 L51.6075299,125.699454 Z" id="Fill-184" fill="#FFFFFE"></path>
                <path d="M59.0091839,99.6200049 C60.0653372,100.473891 60.6819732,101.433685 60.8918919,102.519245 C61.0821307,103.598186 60.8197324,104.670507 60.098137,105.722971 L59.461821,106.570238 L58.845185,107.291738 L58.1826292,108 L55.0732091,105.809022 L55.8013645,104.763177 L56.0047232,103.82986 L55.4799265,102.995832 L44,93.8877176 L52.908423,81 L69,92.32557 L66.1136185,96.502329 L53.2429808,87.4537877 L49.8646025,92.3189507 L59.0091839,99.6200049" id="Fill-185" fill="#FFFFFE"></path>
                <path d="M76.3888149,80.9171084 C77.207723,82.0236145 77.5938748,83.1368675 77.5272969,84.2568675 C77.460719,85.3768675 76.9347537,86.3754217 75.9627164,87.2322892 L75.1304927,87.900241 L74.3515313,88.460241 L73.5326232,89 L71.0026631,86.0718072 L71.9680426,85.2216867 L72.4007989,84.3378313 L72.081225,83.379759 L63,71.5253012 L74.89747,61 L88,76.2009639 L84.138482,79.6149398 L73.6591212,67.4433735 L69.1584554,71.4375904 L76.3888149,80.9171084" id="Fill-186" fill="#FFFFFE"></path>
                <path d="M82,55.4709898 L86.9822273,52.8718824 L96.0724917,59.3696508 L95.2048743,48.592544 L100.187102,46 L100.975845,62.9860856 C101.021855,63.7671305 101.002136,64.4956682 100.916689,65.1520084 C100.831242,65.8149121 100.660347,66.4318719 100.410579,66.9963245 L99.3326299,68.5518509 C98.8725298,69.0244159 98.2875453,69.4444736 97.5711036,69.8185876 L96.5457376,70.3042793 L95.6189644,70.6783933 L94.705337,71 L92.9503836,67.6395379 L95.1917286,66.4712523 L95.730703,65.9855605 L95.8884517,65.3817275 L95.7372759,64.7844579 L95.3429043,64.3381465 L82,55.4709898" id="Fill-187" fill="#FFFFFE"></path>
                <path d="M122.877536,44.8003752 C122.590697,43.6723081 121.880429,43.2577775 120.753562,43.543192 L115.09191,44.9498781 L116.649035,51.1474513 L122.310687,49.7407652 C123.444384,49.4553507 123.867813,48.7486099 123.587803,47.6205428 L122.877536,44.8003752 Z M109,42.2792133 L120.890152,39.3163384 C122.870706,38.8202607 124.427831,38.9086033 125.547869,39.5745706 C126.667906,40.2405379 127.473786,41.5656769 127.97234,43.5363964 L128.682607,46.3565641 C129.18116,48.3272836 129.092377,49.8698814 128.416257,50.9843572 C127.746966,52.0988331 126.422044,52.9075077 124.44149,53.4035854 L117.646142,55.095686 L119.059847,60.7292257 L113.965044,62 L109,42.2792133 Z" id="Fill-188" fill="#FFFFFE"></path>
                <polyline id="Fill-189" fill="#FFFFFE" points="142.725021 56.8883415 137.471392 57 137 37.3612479 152.911187 37 153 40.9343186 142.349274 41.1707718 142.725021 56.8883415"></polyline>
                <polyline id="Fill-190" fill="#FFFFFE" points="127.016237 275 122.589834 273.952381 124.212849 266.843537 118.056124 265.401361 116.43311 272.510204 112 271.47619 115.990469 254 120.416873 255.040816 118.854218 261.904762 125.004236 263.353741 126.573597 256.482993 131 257.517007 127.016237 275"></polyline>
                <path d="M148.345416,263.127538 C148.372859,262.127451 147.865168,261.620827 146.836065,261.594509 L142.438363,261.502396 C141.40926,261.476078 140.880987,261.962963 140.853544,262.949891 L140.654584,270.878218 C140.627141,271.871726 141.134832,272.378349 142.163935,272.404668 L146.561637,272.50336 C147.59074,272.529678 148.119013,272.042794 148.146456,271.055865 L148.345416,263.127538 Z M152.798003,271.161137 C152.749978,272.898132 152.310894,274.148241 151.47389,274.911466 C150.636886,275.674691 149.312773,276.036565 147.501551,275.997088 L141.045643,275.845759 C139.234421,275.806282 137.93089,275.385192 137.13505,274.58249 C136.33921,273.773209 135.961873,272.50336 136.003037,270.772946 L136.201997,262.844619 C136.250022,261.114204 136.689106,259.864094 137.52611,259.09429 C138.363114,258.324486 139.687227,257.969191 141.491588,258.002089 L147.954357,258.159998 C149.765579,258.199475 151.06911,258.620564 151.86495,259.416687 C152.66079,260.225968 153.038127,261.502396 152.996963,263.226231 L152.798003,271.161137 Z" id="Fill-191" fill="#FFFFFE"></path>
                <path d="M170.203173,267.704711 C170.02686,266.735084 169.430106,266.326126 168.426475,266.504221 L163.394757,267.36831 L164.018636,270.785091 L169.050354,269.921002 C170.060766,269.756099 170.467644,269.182238 170.29133,268.199419 L170.203173,267.704711 Z M168.202693,260.98988 C168.019598,260.007061 167.429625,259.611295 166.425994,259.776197 L162.153781,260.521557 L162.770879,263.938337 L167.049873,263.20617 C168.053504,263.028075 168.467163,262.454214 168.290849,261.471395 L168.202693,260.98988 Z M157,257.869924 L167.056654,256.135149 C168.704508,255.851517 169.972609,256.016419 170.881302,256.610068 C171.783214,257.203717 172.373186,258.239305 172.637657,259.716832 C172.81397,260.699651 172.746157,261.53076 172.420655,262.216755 C172.095153,262.909345 171.634026,263.423841 171.044053,263.780031 L172.237561,264.057067 L173.363255,264.736466 L174.278729,265.936956 C174.543199,266.411875 174.739857,266.998929 174.86192,267.665135 C175.153516,269.267988 174.983983,270.501459 174.346542,271.391932 C173.709101,272.269214 172.576625,272.856267 170.928771,273.139899 L160.112613,275 L157,257.869924 Z" id="Fill-192" fill="#FFFFFE"></path>
                <path d="M189.372756,253.99245 C189.004967,253.071565 188.374471,252.795299 187.448431,253.157075 L183.534104,254.716003 C182.621199,255.07778 182.345358,255.715822 182.706579,256.643286 L185.635756,264.010371 C185.99041,264.931257 186.634041,265.207523 187.560081,264.845746 L191.461272,263.293396 C192.380745,262.925042 192.656586,262.273844 192.295365,261.359536 L189.372756,253.99245 Z M196.43956,259.715097 C197.070055,261.326647 197.16857,262.642198 196.735104,263.655173 C196.301639,264.681303 195.270516,265.5101 193.654871,266.141564 L187.908167,268.430623 C186.305658,269.075243 184.985558,269.167332 183.96757,268.7332 C182.95615,268.29249 182.122057,267.26636 181.484994,265.65481 L178.562385,258.287724 C177.925321,256.676174 177.833374,255.360623 178.26684,254.334494 C178.706873,253.321519 179.737996,252.492722 181.340505,251.85468 L187.087209,249.572199 C188.696286,248.927579 190.016386,248.828913 191.027806,249.269622 C192.052362,249.703754 192.879887,250.736462 193.510382,252.348012 L196.43956,259.715097 Z" id="Fill-193" fill="#FFFFFE"></path>
                <path d="M211,235.927007 L214.635135,232.388029 L224.22973,235.604672 L220.628378,226.538978 L224.263514,223 L229.432432,237.444672 C229.675676,238.102774 229.851351,238.734015 229.952703,239.324964 L230,241.057518 L229.47973,242.675912 L228.283784,244.233869 L227.52027,244.918832 L226.817568,245.48292 L226.108108,246 L223.702703,243.55562 L225.337838,241.970803 L225.675676,241.406715 L225.655405,240.842628 L225.364865,240.365839 L224.905405,240.083796 L211,235.927007" id="Fill-194" fill="#FFFFFE"></path>
                <path d="M244.73403,216.431073 C246.044885,217.345774 246.782652,218.333385 246.95392,219.387279 C247.138362,220.45443 246.769478,221.647518 245.840681,222.979799 C245.274181,223.808332 244.66157,224.689892 244.002849,225.65099 C243.337541,226.60546 242.718343,227.493648 242.151843,228.315553 C241.499709,229.276651 240.748767,230.164839 239.912191,231 L237.303655,229.177227 C237.949202,228.242642 238.574987,227.341198 239.187598,226.446382 C239.714574,225.69076 240.274487,224.882111 240.854162,224.04695 C241.433837,223.20516 241.954226,222.449538 242.402157,221.79334 L242.659058,220.865382 L242.145256,220.096504 L241.374552,219.552986 C240.603848,219.016096 239.93854,219.15529 239.372039,219.970567 L235.973038,224.895368 L233.120776,222.906888 L236.236527,218.386411 C236.803027,217.571135 236.671283,216.881795 235.854468,216.311764 L235.452649,216.026749 C234.642422,215.456718 233.950764,215.576027 233.377677,216.391303 L228.852263,222.959914 L226,220.958178 L231.236833,213.375443 C232.16563,212.036533 233.147125,211.261026 234.187904,211.062178 C235.222096,210.850074 236.361684,211.181487 237.60008,212.043161 C238.410307,212.613192 238.943871,213.276019 239.194185,213.9985 C239.444499,214.727609 239.457673,215.483231 239.233708,216.232225 L240.234964,215.595912 L241.486534,215.29764 L242.935721,215.496488 L244.536413,216.298508 L244.73403,216.431073" id="Fill-195" fill="#FFFFFE"></path>
                <polyline id="Fill-196" fill="#FFFFFE" points="259 198.03981 257.200719 202.16019 250.721989 199.293839 248.230677 205.01327 254.702816 207.879621 252.903535 212 237 204.953555 238.799281 200.833175 245.040743 203.6 247.545237 197.880569 241.297184 195.113744 243.089874 191 259 198.03981"></polyline>
                <polyline id="Fill-197" fill="#FFFFFE" points="264 175.743119 260.981506 189 244 185.256881 247.005284 172 250.406869 172.747324 248.365918 181.702217 251.648613 182.430046 253.253633 175.379205 256.655218 176.126529 255.043593 183.170872 258.564069 183.950688 260.598415 174.995795 264 175.743119"></polyline>
                <polyline id="Fill-198" fill="#FFFFFE" points="265.868553 168 248 167.580247 248.108459 163.133488 262.404657 163.474537 262.553787 157.296296 248.264368 156.961806 248.372826 152.521605 262.669024 152.849537 262.709696 151 268.925729 151.091821 271 154.86304 266.207486 154.954861 265.868553 168"></polyline>
                <polyline id="Fill-199" fill="#FFFFFE" points="209.853124 247.805789 219 252.605499 214.913533 255.19508 207.605567 251.320695 205.657684 252.552243 209.64199 258.54356 205.773468 261 196 246.274674 199.861712 243.818234 203.702991 249.603184 205.644063 248.384949 204.962985 240.576266 208.94048 238 209.853124 247.805789"></polyline>
                <polyline id="Fill-200" fill="#FFFFFE" points="254.377289 134.288525 262.282717 128 263.121878 132.616393 256.768232 137.632787 257.167832 139.816393 264.207459 138.570492 265 142.944262 247.717283 146 246.918082 141.62623 253.711289 140.42623 253.318348 138.236066 245.859141 135.868852 245 131.344262 254.377289 134.288525"></polyline>
                <path d="M285.481476,0 C274.982214,14.1562523 255.043616,18.2485022 241.871209,21.0944154 C215.046428,26.8862154 208.913526,31.1917423 195.434474,44.154977 C187.101726,52.1728544 173.795995,54.9387888 159.850309,58.6578042 C144.584715,62.7300594 130.165729,66.5823729 123.679518,74.7268834 C118.993181,80.6186569 119.71313,86.3771324 120.179764,90.1827916 C120.999707,96.9809918 110.260462,100.713337 101.834387,104.785592 C99.4212237,105.945285 96.9213994,107.158297 94.414909,108.431294 C69.436665,121.154592 73.2430641,139.116503 74.9429446,155.545487 C75.8695461,164.57643 77.5094308,174.913693 73.6497022,184.811073 C69.7899735,194.721782 55.7509605,230.718919 55.7509605,230.718919 L22,277 L104.867507,256.652054 L111.647031,239.050047 L111.75369,240.56298 L120.819719,243.602175 L128.352523,233.178268 L197.900967,216.02281 L198.247609,195.041698 C198.247609,195.041698 204.973803,177.826255 209.80013,165.376218 C218.646175,142.562258 234.285076,131.705132 247.204167,119.808282 C250.937238,116.389187 254.456991,113.14338 257.31679,110.190828 C261.669817,105.698684 277.122064,88.449917 262.169782,66.8956233 C264.202972,60.7639133 261.109856,55.8652102 258.35005,51.859604 C256.716832,49.4935637 256.950149,48.1205938 262.083121,44.568201 C270.402536,38.8297202 289.36787,25.1866654 285.481476,0" id="Fill-201" fill="#FFFFFE"></path>
                <path d="M279,14 C263.842016,29.8078091 228.593529,24.8295488 214.556875,37.5784269 C204.464902,46.7485556 209.177159,56.2718942 205.439391,65.6419531 C200.833927,77.1779217 183.480005,87.8541907 174.616155,83.5356999 C165.632162,79.1439013 193.571978,68.7808562 197.423214,50.9071024 C185.155326,64.5956521 141.363369,65.9884986 130.817524,78.3908312 C126.352226,83.6489936 129.315742,88.9538065 128.695005,92.772472 C127.213247,101.989251 114.584931,106.147798 100.207874,113.465241 C68.7171786,129.506302 89.3349737,159.562465 84.0353527,178.695778 L62.7167261,234.68288 L43,262 L98.6994174,247.851611 L118.422818,194.277 L120.018044,228.898234 L152.683466,183.61406 L138.626789,220.527826 L189.086656,207.61234 L189.320267,193.57058 C189.320267,193.57058 195.027038,180.328541 206.534023,153.231344 C223.053623,114.344933 270.036031,106.860882 259.984105,76.2115927 C257.841563,83.8422594 240.534363,90.1400586 238.618757,80.9832585 C237.390633,75.13197 249.805362,69.5139333 253.362916,62.5963507 C256.713558,56.0919571 242.543413,50.4872491 248.150065,43.6029882 C252.234911,38.5714132 271.791447,34.9060275 279,14" id="Fill-202" fill="#C2242B"></path>
                <path d="M189,60.0123607 C177.550662,69.0124731 150.920252,73.5526488 142.527192,81.8974782 C135.33123,89.0520996 143.824606,94.7022445 150.391924,87.808399 C147.810473,102.679313 125.520379,109.747009 113.02776,114.955841 C102.962776,119.148315 85.9358991,124.691475 84.7923028,141 L83,138.23845 L86.2970347,126.470101 L98.5756467,114.728498 L115.535647,106.597638 L126.128959,98.6473161 L127.687192,82.6263134 L133.278107,74.9768865 L160.958486,67.320773 C160.958486,67.320773 183.689968,59.6512863 189,60.0123607" id="Fill-203" fill="#FFFFFE"></path>
                <path d="M174.77596,87.839709 C184.960716,92.090326 208.092083,84.2327185 215.414675,71.2797341 C221.801045,59.9693382 216.578265,52.5609284 220.998569,45.8765985 C227.739367,35.6791402 257.497846,32.4408941 269,24 C263.25561,24.2346555 243.013157,28.4785681 243.013157,28.4785681 L215.682167,36.8591222 L208.031897,45.8296673 L205.791652,61.6454491 L201.78596,73.3379982 L190.965911,82.0738878 L177.223512,86.2105293 C177.223512,86.2105293 169.660177,84.7489606 174.77596,87.839709" id="Fill-204" fill="#FFFFFE"></path>
                <path d="M239.627387,74 C216.277306,93.3656937 246.467173,104.57777 258,84.0608968 C251.993178,84.6058337 241.306859,88.0798062 241.306859,88.0798062 L236.65445,84.3674238 L239.627387,74" id="Fill-205" fill="#FFFFFE"></path>
                <polyline id="Fill-206" fill="#FFFFFE" points="120 222 125.258134 205.84 126 159 120.683297 179.233333 120 222"></polyline>
                <polyline id="Fill-207" fill="#FFFFFE" points="142 216 150.457219 208.714533 175 147 162.998162 163.20023 142 216"></polyline>
                <polyline id="Fill-208" fill="#FFFFFE" points="136 129 98.0521496 138.322991 97.952041 152.164609 65.6903616 234.576392 50 256 70.2219463 237.041702 103.077604 153.141429 103.151017 142.323305 130.760981 135.545364 136 129"></polyline>
                <polyline id="Fill-209" fill="#FFFFFE" points="177.311652 118.52867 134.404332 177.783628 129 194 180.364531 123.062567 211.628156 115.34558 224 107 177.311652 118.52867"></polyline>
                <path d="M247.898665,55.5122763 C251.509149,60.5992509 251.236031,63.3824386 243.488812,70.1073658 C238.999021,73.9958385 233.410098,78.5701207 234.848963,83.9300874 C236.96063,91.8002497 253.027951,90.0091552 257.337883,83.7236787 C257.870796,93.471494 250.423339,100.629213 237.85992,111.242613 C232.211044,116.009988 224.716958,121.862672 218.39528,128.26134 L240.131461,98.2388681 L174.449958,114.43196 L142.142119,158.97628 L142.76163,122.248856 L92.0483156,134.753225 L91.9217488,152.404494 L87.0122896,165.015397 C86.7125262,162.172285 86.2928573,158.490221 85.7732674,153.463171 C83.9213954,135.518935 83.6949074,125.025385 101.480872,115.956721 C103.865657,114.738244 106.130536,113.646275 108.302156,112.587599 C119.380081,107.214315 130.71114,103.179359 132.769515,94.2372035 C133.995215,88.8772368 128.912559,83.670412 135.540662,78.8031627 C140.576688,75.1077819 152.387368,71.2992093 157.030371,69.9941739 C166.156502,67.43737 181.397809,63.9883479 188.745344,60.1265085 C185.714402,64.2014149 181.78417,67.7503121 178.480111,70.7199334 C173.577313,75.127757 170.026782,78.323762 170.579679,82.2788181 C170.786182,83.6770703 171.585552,85.6213067 174.323391,86.9596338 C175.609043,87.5921764 177.194459,87.9184353 179.013024,87.9184353 C188.718698,87.9184353 203.147312,80.6808156 209.102613,67.8967957 C213.479159,58.4952143 207.064221,45.917603 218.142146,38.8131502 C224.250659,34.8980441 233.763153,32.5143571 243.935126,30.4569288 C252.628266,28.6924677 261.501264,26.8947149 268.808831,23.8252185 C264.259088,29.6179775 258.423693,33.2201415 253.700753,36.136496 C250.529922,38.0807324 248.038555,39.6188098 246.519753,41.4898044 C241.863427,47.2292967 246.053454,52.9022056 247.898665,55.5122763 Z M185.454607,191.628797 L185.234781,205.657928 L141.928954,216.337911 L162.672585,163.264253 L120.339324,221.657928 L121.038772,178.944653 L95.1325485,245.534748 L49.5218739,256.734082 L65.1828489,235.267582 L97.3907665,152.690803 L97.4773648,138.821473 L135.354142,129.479817 L134.548112,178.125676 L177.334348,119.126092 L223.890943,107.647108 L211.540689,124.699126 L185.454607,191.628797 Z M280,12 C262.893499,27.6670828 226.062563,24.8705784 212.053618,37.60799 C201.974904,46.7632127 207.044237,56.397836 203.313848,65.7594673 C199.323663,75.7336663 189.311564,82.6583437 180.824927,82.8114856 C176.947987,82.8847274 177.827293,79.8418643 183.269665,75.2808989 C190.9969,68.7956721 199.370293,59.3208489 199.070529,48.281315 C182.39702,63.5089471 138.538296,64.4810653 127.780119,78.0241365 C123.490171,83.4173949 125.661791,88.5243446 125.661791,92.3928423 C125.668452,101.035372 111.159901,105.256762 96.7512711,112.441115 C64.2702357,128.620891 88.3978629,161.453184 79.0052747,185.529754 C73.8493434,198.746567 60.4465864,233.110279 60.4465864,233.110279 L35,268 L100.76144,251.846858 L115.68966,213.514773 L116.049376,240.587599 L139.524185,208.201415 L132.41646,226.385352 L192.409119,211.59717 L192.708883,193.806076 L204.153185,164.429463 C217.182903,130.565127 240.464531,119.545568 253.234454,106.355389 C261.521249,97.7927591 266.224204,87.2592593 259.442889,74.2022472 C257.964056,79.4556804 251.216047,84.4627549 245.247424,84.6957969 C241.017428,84.8689139 241.057397,82.3054515 243.921803,79.0628381 C248.478208,73.8959634 254.413524,69.7677903 256.338672,66.2122347 C260.688572,58.1423221 247.452351,52.4228048 251.575763,46.2372035 C255.492672,40.3512276 276.076429,33.1468997 280,12 Z" id="Fill-210" fill="#1A1919"></path>
            </g>
        </g>
    </g>
</svg>