<svg version="1" xmlns="http://www.w3.org/2000/svg" width="682.667" height="682.667" viewBox="0 0 512.000000 512.000000"><path d="M148.3 41.1c-9 1.7-15.4 6.7-19.2 15.3-2.2 5.1-3.2 5.9-8 6.1-7.1.5-17.6 1.5-19.1 2-.8.2-3.1.6-5 .9-9.4 1.5-15 2.9-23.5 5.8-5.8 2-21.3 9.2-22.7 10.6-1.3 1.3-1.8 6.6-2.3 22.1l-.5 15.3 5.2-5c19.5-18.5 35.4-26.6 61-31.2 7.2-1.3 10-1.4 10.7-.6 1 1.3 7.1 20.2 7.1 22.1 0 .8-1.8 5.5-4 10.4-3.9 8.9-7.5 19.9-6.8 20.6.2.2 6.4-4.1 13.8-9.6 7.4-5.4 14.6-10.7 15.9-11.7l2.5-1.8-1.7-7.5c-2.6-11-2.7-11.9-2.8-18-.1-7.3 1.4-12.5 5.1-18.1 5.7-8.6 11.8-10.5 25.1-7.7 13.1 2.7 25.5 8.1 55 24 8 4.3 17.1 9 20.2 10.4l5.8 2.5-1.2-2.2c-.6-1.3-3.4-4.6-6-7.5-2.7-2.8-4.9-5.6-4.9-6.1 0-.6 1.9-1.2 4.3-1.4 5.6-.6 37.8-.2 44.2.6 2.8.3 7 .8 9.5 1.2 27.6 3.4 48 11.3 58.5 22.5 5 5.3 6.4 10.1 4.6 15.9-1.9 6.3-12.1 15.6-12.1 11 0-.5-1-2.5-2.1-4.5l-2.2-3.6-2.6 2.4c-7.2 6.6-16.9 9.5-38.1 11.2-3.6.3-8.3.7-10.5 1-5.4.6-18.7 1.8-20.3 1.8-.7 0-.9.4-.5.8 1.4 1.3 9.3 2.1 33.8 3.4 27 1.4 34.4 5.4 36.1 19.5.7 6.4.6 6.2 2.7 5.4 1.6-.6 6.9-10.4 6.6-12.1-.1-.4-.1-2.8 0-5.3.1-4 .6-4.8 3.9-7.2 4.6-3.2 13.7-6.4 21.2-7.3 9.7-1.2 17.9-.9 30.5 1.1 3.4.5 26 8.1 28.9 9.6 1.7.9 1.2 1.6-4.4 6.8l-6.3 5.8.7 5.4c1 7.2 4.5 18.8 5.7 18.8.6 0 2.5-1.1 4.2-2.4 1.8-1.3 4.3-2.7 5.6-3.1 2.4-.7 2.4-.7 1.8 5.3-1.5 17.4-16.1 31.5-43.7 42.3-10.1 4-24.7 8.2-32.6 9.3-2.2.4-5 .8-6.2 1.1-9.3 1.8-53.3 2.7-54.9 1.2-.3-.4 1.2-2.7 3.3-5.2 9.4-11 12.4-15.1 15.2-20.9 3.2-6.5 5-13.6 3.6-13.6-.5.1-4 2.8-7.9 6.1-3.8 3.3-10.4 8.3-14.5 11-4.1 2.7-8 5.4-8.7 5.9-.7.6-1.5 1-1.8 1-.4 0-3.2 1.5-6.3 3.3-17.6 10.1-48.2 21.3-66.2 24.1-34.5 5.3-58.8 0-76.5-16.6-15.4-14.4-22.4-33.2-22-59.3.2-11.6 1.4-27.5 2.2-28.8.8-1.3-1-.7-4.1 1.4-9 6.1-16.7 21.9-23 47.3-1.4 5.4-2.7 10.1-3 10.4-.9.8-5.3-9.8-6.1-14.8-.9-5-.9-16.3 0-19.1.6-1.8.4-1.8-4.1.1-27.4 11.8-57.7 61.3-63.8 104.1-.5 3.5-.3 3.8 7.9 10.5 5.6 4.6 8.5 7.6 8.5 9 .1 7.3 7 17.8 14.3 21.5 4.9 2.6 14.3 3.6 18.7 2.1 2.8-1 4.1-.7 14.3 4.2 10.7 5.1 27.1 11.7 33 13.1l2.7.7V464h23c12.7 0 23-.3 23.1-.8 0-.4.1-19.3.2-42.1l.2-41.3 4.8-4.3c12.2-11.1 30.4-6.9 32.2 7.3.1 1.5.3 20.4.4 41.9l.1 39.3h23c17.7 0 23-.3 23.1-1.3 0-.6.1-19.4.1-41.7l.1-40.4 4.6-4.6c5.4-5.4 11.6-7.6 18.9-6.6 5.5.7 8.9 3 11.7 7.7 1.9 3.2 2 5.5 2.3 45.2l.3 41.7h46.4l-.1-43.2c-.1-23.8-.4-46-.8-49.3-2.4-22.5-16.2-38.7-35.7-42.4-7.9-1.4-20.4-.7-28 1.8-8 2.5-17.2 8.5-22.6 14.5l-4 4.4-1.6-2.7c-5.3-8.9-19-17.4-30.1-18.6l-6.4-.7 3.1-5.3c9.5-16.1 21.2-27 37.2-34.9 14.6-7.2 48.2-19.6 56.9-21 2.1-.4 4.1-.8 4.5-1 .3-.2 2.2-.7 4.1-1 1.9-.3 7.1-1.2 11.4-2.1 8.9-1.7 8.5-1.6 25.1-4.4 6.6-1.1 14.5-2.2 17.5-2.6 5.5-.7 6.8-.8 14.5-1.9 2.2-.3 6.4-.8 9.4-1.2 9.3-1 23-4.1 24.5-5.5.6-.5 1.6-.9 2.3-.9 2.2 0 12.4-6.8 17.1-11.4 8.3-7.9 14.4-17.9 19.7-32.1 4-10.6 5.4-13.4 11.1-21.5 8.8-12.7 10.6-19.7 6.6-26.1-4.7-7.7-3.9-7.3-72.2-31.6l-16.4-5.8-3.6-6.4c-9-16-26-27.1-54.2-35.7-7.6-2.2-22.8-5.6-31.8-7-2.5-.3-5.2-.8-6-.9-.8-.2-5.8-.8-11-1.4-10.5-1.3-14.8-1.9-20-2.6-1.9-.2-5.7-.7-8.5-1-23.9-2.8-44.8-7-62-12.7-15.7-5.1-25-7.8-28.8-8.3-8.6-1.1-13.3-1.2-17.4-.4z"/><path d="M452.4 329.4c-11 2.7-26.9 13.5-31.2 21.1-.8 1.6-1.1-.1-1-7.5 0-5.2 0-10.1-.1-10.8-.1-.9-5.4-1.2-23.1-1.2h-23v133h46.5l-.1-38.6-.1-38.7 3.1-3.5c6.6-7.6 16.6-11.5 29.6-11.6 4.7 0 10.4.3 12.6.7l4.2.8-.2-22.3-.1-22.3-6-.2c-3.3-.1-8.3.4-11.1 1.1zM50 397.5V464l23.2-.2 23.1-.3v-64.8c-.1-35.6-.2-65.4-.2-66.2-.1-1.3-3.4-1.5-23.1-1.5H50v66.5z"/></svg>