<?xml version="1.0" encoding="UTF-8"?>
<svg width="118px" height="24px" viewBox="0 0 118 24" version="1.1" xmlns="http://www.w3.org/2000/svg" xmlns:xlink="http://www.w3.org/1999/xlink">
    <!-- Generator: sketchtool 47 (45396) - http://www.bohemiancoding.com/sketch -->
    <title>E8CD8804-9822-48F7-AF44-777FBC35989C</title>
    <desc>Created with sketchtool.</desc>
    <defs>
        <linearGradient x1="50%" y1="100%" x2="50%" y2="0%" id="linearGradient-1">
            <stop stop-color="#FCAE3C" offset="0%"></stop>
            <stop stop-color="#FFEC00" offset="100%"></stop>
        </linearGradient>
    </defs>
    <g id="Symbols" stroke="none" stroke-width="1" fill="none" fill-rule="evenodd">
        <g id="Mobile/Header/White/index" transform="translate(-20.000000, -30.000000)">
            <g id="Logo/Horizontal/Dark" transform="translate(20.000000, 30.000000)">
                <g id="Logo-horizontal">
                    <path d="M25.2483203,17.1474639 L18.5340314,17.1474639 L18.5340314,6.3930131 L25.0239765,6.3930131 C27.2353652,6.3930131 28.1968386,7.87638562 28.1968386,9.13402754 C28.1968386,10.4722875 27.4116353,11.3752099 26.3700392,11.6009405 C27.5238072,11.7783003 28.4051578,12.8424589 28.4051578,14.2290897 C28.4051578,15.7285858 27.3956108,17.1474639 25.2483203,17.1474639 Z M24.2708224,10.3594222 C24.6073381,10.3594222 24.9118046,10.1014444 24.9118046,9.71447766 C24.9118046,9.34363453 24.6073381,9.10178032 24.2708224,9.10178032 L21.7709917,9.10178032 L21.7709917,10.3594222 L24.2708224,10.3594222 Z M24.3669697,14.4386967 C24.8316818,14.4386967 25.1201238,14.1645952 25.1201238,13.7615049 C25.1201238,13.3745381 24.8316818,13.0681895 24.3669697,13.0681895 L21.7709917,13.0681895 L21.7709917,14.4386967 L24.3669697,14.4386967 Z M32.56689,17.1474639 L32.56689,12.374874 C32.8873811,11.9879073 33.6725844,11.8266711 34.2815175,11.8266711 C34.5539349,11.8266711 34.7943033,11.8589184 34.9385243,11.9072892 L34.9385243,9.13402754 C34.0571737,9.13402754 33.0476267,9.6499832 32.56689,10.2143097 L32.56689,9.35975815 L29.68247,9.35975815 L29.68247,17.1474639 L32.56689,17.1474639 Z M39.7572633,17.3409473 C37.3375553,17.3409473 35.4466578,15.8092039 35.4466578,13.2455492 C35.4466578,10.9882432 37.1612852,9.16627477 39.6611159,9.16627477 C41.9366029,9.16627477 43.6832794,10.8108834 43.6832794,13.5518979 L43.6832794,14.1484716 L38.4272251,14.1484716 C38.5874707,14.6483037 39.1483301,15.1320121 40.0937789,15.1320121 C40.5264419,15.1320121 41.4879153,14.9224051 41.8725046,14.5838092 L43.0583218,16.3735304 C42.2891431,17.0345986 40.9110313,17.3409473 39.7572633,17.3409473 Z M40.9430804,12.3103796 C40.8629576,11.9717837 40.5905402,11.3752099 39.6611159,11.3752099 C38.7797654,11.3752099 38.4913234,11.9556601 38.395176,12.3103796 L40.9430804,12.3103796 Z M52.0754944,17.1474639 L49.1910743,17.1474639 L49.1910743,16.4057776 C48.7584113,16.9539805 47.8129625,17.3409473 46.8514892,17.3409473 C45.6977212,17.3409473 44.1914129,16.5508902 44.1914129,14.7772926 C44.1914129,12.8424589 45.6977212,12.294256 46.8514892,12.294256 C47.8610362,12.294256 48.7744359,12.6167282 49.1910743,13.1488075 L49.1910743,12.3426268 C49.1910743,11.7944239 48.6943131,11.3752099 47.7488643,11.3752099 C47.0277593,11.3752099 46.210507,11.665435 45.6015738,12.1330198 L44.6240759,10.3432986 C45.6656721,9.50487068 47.1078821,9.16627477 48.2776747,9.16627477 C50.2006214,9.16627477 52.0754944,9.84346658 52.0754944,12.4393685 L52.0754944,17.1474639 Z M48.0533309,15.4544844 C48.5020184,15.4544844 48.9987797,15.3093719 49.1910743,15.0352704 L49.1910743,14.5999328 C48.9987797,14.3258314 48.5020184,14.1807188 48.0533309,14.1807188 C47.5725942,14.1807188 47.0437839,14.341955 47.0437839,14.8256634 C47.0437839,15.3093719 47.5725942,15.4544844 48.0533309,15.4544844 Z M62.0381158,17.1474639 L59.2017694,12.9069533 L61.8618457,9.35975815 L58.3845171,9.35975815 L56.6057914,12.1330198 L56.6057914,6.3930131 L53.7213713,6.3930131 L53.7213713,17.1474639 L56.6057914,17.1474639 L56.6057914,15.3899899 L57.1666508,14.63218 L58.496689,17.1474639 L62.0381158,17.1474639 Z M64.1326803,8.79543164 C65.0300554,8.79543164 65.7511604,8.069869 65.7511604,7.16694659 C65.7511604,6.26402419 65.0300554,5.53846154 64.1326803,5.53846154 C63.2353052,5.53846154 62.5142002,6.26402419 62.5142002,7.16694659 C62.5142002,8.069869 63.2353052,8.79543164 64.1326803,8.79543164 Z M65.5748903,17.1474639 L65.5748903,9.35975815 L62.6904703,9.35975815 L62.6904703,17.1474639 L65.5748903,17.1474639 Z M75.3452171,17.1474639 L75.3452171,11.6170642 C75.3452171,10.2626806 74.5600138,9.16627477 72.7652636,9.16627477 C71.4031764,9.16627477 70.5538749,9.73060128 70.1051873,10.2465569 L70.1051873,9.35975815 L67.2207673,9.35975815 L67.2207673,17.1474639 L70.1051873,17.1474639 L70.1051873,12.3426268 C70.3455557,12.0685254 70.6820713,11.7299295 71.3390781,11.7299295 C72.028134,11.7299295 72.460797,12.0362781 72.460797,12.8424589 L72.460797,17.1474639 L75.3452171,17.1474639 Z M80.2440789,20.3076923 C78.9140407,20.3076923 77.7282236,19.9529728 76.7186766,19.1467921 L77.9365428,17.0829694 C78.5294514,17.6795432 79.410802,17.937521 80.2440789,17.937521 C80.9171102,17.937521 82.0388291,17.6795432 82.0388291,16.3090359 L82.0388291,15.889822 C81.3818223,16.6476318 80.6607173,16.9378569 79.8594895,16.9378569 C78.000641,16.9378569 76.4622837,15.7124622 76.4622837,13.0520658 C76.4622837,10.4561639 77.9525674,9.16627477 79.8594895,9.16627477 C80.6607173,9.16627477 81.4138714,9.44037622 82.0388291,10.1820625 L82.0388291,9.35975815 L84.9232492,9.35975815 L84.9232492,16.3090359 C84.9232492,19.6788713 82.1670256,20.3076923 80.2440789,20.3076923 Z M80.853012,14.3742022 C81.2215768,14.3742022 81.7664117,14.1968425 82.0388291,13.8743702 L82.0388291,12.2297615 C81.7664117,11.9072892 81.2215768,11.7299295 80.853012,11.7299295 C80.0678087,11.7299295 79.410802,12.1007726 79.410802,13.0520658 C79.410802,14.0033591 80.0678087,14.3742022 80.853012,14.3742022 Z M97.7061924,17.1474639 L94.3089866,17.1474639 L92.9308748,11.0527377 L91.552763,17.1474639 L88.1555571,17.1474639 L85.094867,6.3930131 L88.7164166,6.3930131 L90.0945284,12.9714478 L91.7130085,6.3930131 L94.148741,6.3930131 L95.7672211,12.9714478 L97.1293084,6.3930131 L100.766883,6.3930131 L97.7061924,17.1474639 Z M104.56005,17.3409473 C102.140342,17.3409473 100.249444,15.8092039 100.249444,13.2455492 C100.249444,10.9882432 101.964072,9.16627477 104.463903,9.16627477 C106.73939,9.16627477 108.486066,10.8108834 108.486066,13.5518979 L108.486066,14.1484716 L103.230012,14.1484716 C103.390257,14.6483037 103.951117,15.1320121 104.896566,15.1320121 C105.329229,15.1320121 106.290702,14.9224051 106.675291,14.5838092 L107.861108,16.3735304 C107.09193,17.0345986 105.713818,17.3409473 104.56005,17.3409473 Z M105.745867,12.3103796 C105.665744,11.9717837 105.393327,11.3752099 104.463903,11.3752099 C103.582552,11.3752099 103.29411,11.9556601 103.197963,12.3103796 L105.745867,12.3103796 Z M112.40743,14.2613369 C112.679847,14.5999328 113.224682,14.7772926 113.609272,14.7772926 C114.394475,14.7772926 115.051482,14.2290897 115.051482,13.2455492 C115.051482,12.2781323 114.394475,11.7299295 113.609272,11.7299295 C113.224682,11.7299295 112.679847,11.9234128 112.40743,12.2620087 L112.40743,14.2613369 Z M112.40743,17.1474639 L109.52301,17.1474639 L109.52301,6.3930131 L112.40743,6.3930131 L112.40743,10.1820625 C113.016363,9.44037622 113.801566,9.16627477 114.58677,9.16627477 C116.493692,9.16627477 118,10.6657709 118,13.2455492 C118,15.9220692 116.461643,17.3409473 114.58677,17.3409473 C113.801566,17.3409473 113.064437,17.0668458 112.40743,16.3251596 L112.40743,17.1474639 Z" id="BreakingWeb" fill="#26282D" fill-rule="nonzero"></path>
                    <polygon id="Path-2" fill="url(#linearGradient-1)" fill-rule="nonzero" points="12.9798595 0 0 15.0070688 7.89157328 13.0348369 0.84264585 24 16.0628272 8.46161755 7.66162135 10.4499242"></polygon>
                </g>
            </g>
        </g>
    </g>
</svg>