<svg xmlns="http://www.w3.org/2000/svg" style="display: none;">
    <symbol id="icon_close" viewBox="0 0 12 12">
      <title>469AB5E3-200E-4B06-B79D-5C46D43407DD</title><path d="M.43 11.576c.294.295.663.424 1.05.424.39 0 .758-.148 1.053-.424l3.47-3.488 3.47 3.47c.294.294.663.424 1.05.424.388 0 .757-.148 1.053-.425.572-.572.572-1.513 0-2.085l-3.488-3.47 3.47-3.47c.57-.57.57-1.512 0-2.084-.573-.573-1.514-.573-2.086 0l-3.47 3.47-3.47-3.49C1.963-.14 1.02-.14.45.43c-.573.573-.573 1.514 0 2.086l3.47 3.488-3.49 3.47c-.57.59-.57 1.513 0 2.104z" fill-rule="nonzero" fill="#000"/>
    </symbol>
    <symbol id="icon_line" viewBox="0 0 159 85">
      <title>2C413819-3E42-4EF3-9C77-4F042CC75AD5</title><defs><filter x="-7.8%" y="-200%" width="115.6%" height="500%" filterUnits="objectBoundingBox" id="a"><feGaussianBlur stdDeviation="4" in="SourceGraphic"/></filter></defs><rect filter="url(#a)" transform="rotate(24 819.752 -1322.093)" x="621.779" y="222.49" width="154" height="6" rx="3" fill="#313131" fill-rule="evenodd"/>
    </symbol>
    <symbol id="icon_logo-light" viewBox="0 0 191 39">
      <title>9C9CE2F9-7F6C-45A9-9987-595D72468F68</title><defs><linearGradient x1="50%" y1="100%" x2="50%" y2="0%" id="a"><stop stop-color="#FCAE3C" offset="0%"/><stop stop-color="#FFEC00" offset="100%"/></linearGradient></defs><g fill-rule="nonzero" fill="none"><path d="M40.868 27.865H30V10.39h10.505c3.58 0 5.136 2.41 5.136 4.453 0 2.174-1.27 3.642-2.956 4.01 1.867.287 3.294 2.016 3.294 4.27 0 2.436-1.634 4.742-5.11 4.742zm-1.582-11.03c.545 0 1.037-.42 1.037-1.05 0-.602-.492-.995-1.037-.995H35.24v2.044h4.046zm.155 6.628c.754 0 1.22-.446 1.22-1.1 0-.63-.466-1.127-1.22-1.127h-4.2v2.227h4.2zm13.274 4.402V20.11c.52-.63 1.79-.892 2.776-.892.44 0 .83.053 1.063.13v-4.505c-1.427 0-3.06.838-3.84 1.755V15.21h-4.668v12.655h4.67zm11.64.314c-3.918 0-6.978-2.49-6.978-6.656 0-3.668 2.775-6.63 6.82-6.63 3.684 0 6.512 2.674 6.512 7.128v.97H62.2c.26.81 1.167 1.598 2.698 1.598.7 0 2.256-.34 2.88-.89l1.918 2.907c-1.245 1.074-3.476 1.572-5.343 1.572zm1.918-8.176c-.13-.55-.57-1.52-2.075-1.52-1.426 0-1.893.944-2.05 1.52h4.125zm18.02 7.86h-4.67V26.66c-.7.89-2.23 1.52-3.786 1.52-1.868 0-4.306-1.285-4.306-4.167 0-3.144 2.438-4.035 4.306-4.035 1.634 0 3.112.524 3.787 1.39v-1.31c0-.892-.804-1.573-2.335-1.573-1.167 0-2.49.47-3.475 1.23L72.23 16.81c1.686-1.363 4.02-1.913 5.914-1.913 3.113 0 6.148 1.1 6.148 5.32v7.65zm-6.51-2.75c.726 0 1.53-.236 1.84-.682v-.707c-.31-.446-1.114-.68-1.84-.68-.78 0-1.635.26-1.635 1.047 0 .786.856 1.022 1.634 1.022zm22.636 2.75l-4.59-6.89 4.304-5.764h-5.628l-2.88 4.506V10.39h-4.668v17.475h4.67V25.01l.906-1.233 2.153 4.088h5.733zm3.39-13.57c1.453 0 2.62-1.18 2.62-2.648 0-1.467-1.167-2.646-2.62-2.646s-2.62 1.18-2.62 2.646c0 1.468 1.167 2.647 2.62 2.647zm2.334 13.57V15.21h-4.668v12.655h4.668zm15.815 0V18.88c0-2.2-1.27-3.983-4.176-3.983-2.204 0-3.578.917-4.305 1.756v-1.44h-4.67v12.655h4.67v-7.808c.39-.446.934-.996 1.998-.996 1.115 0 1.815.5 1.815 1.81v6.995h4.67zm7.93 5.136c-2.153 0-4.073-.576-5.707-1.886l1.972-3.354c.96.97 2.386 1.388 3.735 1.388 1.09 0 2.905-.42 2.905-2.646v-.68c-1.064 1.23-2.23 1.702-3.528 1.702-3.01 0-5.5-1.99-5.5-6.314 0-4.22 2.413-6.315 5.5-6.315 1.297 0 2.516.446 3.528 1.65V15.21h4.67v11.292c0 5.476-4.463 6.498-7.575 6.498zm.985-9.642c.597 0 1.48-.288 1.92-.812v-2.673c-.44-.524-1.323-.812-1.92-.812-1.27 0-2.334.604-2.334 2.15 0 1.545 1.063 2.148 2.334 2.148zm27.28 4.507h-5.5l-2.23-9.904-2.23 9.905h-5.5l-4.954-17.476h5.862l2.23 10.69 2.62-10.69h3.943l2.62 10.69 2.205-10.69h5.888l-4.954 17.475zm11.094.314c-3.917 0-6.978-2.49-6.978-6.656 0-3.668 2.776-6.63 6.822-6.63 3.683 0 6.51 2.674 6.51 7.128v.97h-8.507c.26.81 1.167 1.598 2.697 1.598.7 0 2.257-.34 2.88-.89l1.92 2.907c-1.246 1.074-3.477 1.572-5.344 1.572zm1.92-8.176c-.13-.55-.572-1.52-2.076-1.52-1.427 0-1.894.944-2.05 1.52h4.125zm10.782 3.17c.44.55 1.322.84 1.945.84 1.27 0 2.334-.892 2.334-2.49 0-1.572-1.063-2.463-2.334-2.463-.623 0-1.504.316-1.945.866v3.25zm0 4.69h-4.67V10.39h4.67v6.156c.985-1.205 2.256-1.65 3.527-1.65 3.087 0 5.525 2.436 5.525 6.628 0 4.35-2.49 6.655-5.525 6.655-1.27 0-2.464-.446-3.527-1.652v1.337z" fill="#26282D"/><path fill="url(#a)" d="M21.01 0L0 24.386l12.774-3.204L1.364 39 26 13.75l-13.6 3.23"/></g>
    </symbol>
    <symbol id="icon_logo" viewBox="0 0 191 39">
      <title>C67B5D51-2F10-4947-95E2-5E97D0F4E661</title><defs><linearGradient x1="50%" y1="100%" x2="50%" y2="0%" id="a"><stop stop-color="#FCAE3C" offset="0%"/><stop stop-color="#FFEC00" offset="100%"/></linearGradient></defs><g fill-rule="nonzero" fill="none"><path d="M40.868 27.865H30V10.39h10.505c3.58 0 5.136 2.41 5.136 4.453 0 2.174-1.27 3.642-2.956 4.01 1.867.287 3.294 2.016 3.294 4.27 0 2.436-1.634 4.742-5.11 4.742zm-1.582-11.03c.545 0 1.037-.42 1.037-1.05 0-.602-.492-.995-1.037-.995H35.24v2.044h4.046zm.155 6.628c.754 0 1.22-.446 1.22-1.1 0-.63-.466-1.127-1.22-1.127h-4.2v2.227h4.2zm13.274 4.402V20.11c.52-.63 1.79-.892 2.776-.892.44 0 .83.053 1.063.13v-4.505c-1.427 0-3.06.838-3.84 1.755V15.21h-4.668v12.655h4.67zm11.64.314c-3.918 0-6.978-2.49-6.978-6.656 0-3.668 2.775-6.63 6.82-6.63 3.684 0 6.512 2.674 6.512 7.128v.97H62.2c.26.81 1.167 1.598 2.698 1.598.7 0 2.256-.34 2.88-.89l1.918 2.907c-1.245 1.074-3.476 1.572-5.343 1.572zm1.918-8.176c-.13-.55-.57-1.52-2.075-1.52-1.426 0-1.893.944-2.05 1.52h4.125zm18.02 7.86h-4.67V26.66c-.7.89-2.23 1.52-3.786 1.52-1.868 0-4.306-1.285-4.306-4.167 0-3.144 2.438-4.035 4.306-4.035 1.634 0 3.112.524 3.787 1.39v-1.31c0-.892-.804-1.573-2.335-1.573-1.167 0-2.49.47-3.475 1.23L72.23 16.81c1.686-1.363 4.02-1.913 5.914-1.913 3.113 0 6.148 1.1 6.148 5.32v7.65zm-6.51-2.75c.726 0 1.53-.236 1.84-.682v-.707c-.31-.446-1.114-.68-1.84-.68-.78 0-1.635.26-1.635 1.047 0 .786.856 1.022 1.634 1.022zm22.636 2.75l-4.59-6.89 4.304-5.764h-5.628l-2.88 4.506V10.39h-4.668v17.475h4.67V25.01l.906-1.233 2.153 4.088h5.733zm3.39-13.57c1.453 0 2.62-1.18 2.62-2.648 0-1.467-1.167-2.646-2.62-2.646s-2.62 1.18-2.62 2.646c0 1.468 1.167 2.647 2.62 2.647zm2.334 13.57V15.21h-4.668v12.655h4.668zm15.815 0V18.88c0-2.2-1.27-3.983-4.176-3.983-2.204 0-3.578.917-4.305 1.756v-1.44h-4.67v12.655h4.67v-7.808c.39-.446.934-.996 1.998-.996 1.115 0 1.815.5 1.815 1.81v6.995h4.67zm7.93 5.136c-2.153 0-4.073-.576-5.707-1.886l1.972-3.354c.96.97 2.386 1.388 3.735 1.388 1.09 0 2.905-.42 2.905-2.646v-.68c-1.064 1.23-2.23 1.702-3.528 1.702-3.01 0-5.5-1.99-5.5-6.314 0-4.22 2.413-6.315 5.5-6.315 1.297 0 2.516.446 3.528 1.65V15.21h4.67v11.292c0 5.476-4.463 6.498-7.575 6.498zm.985-9.642c.597 0 1.48-.288 1.92-.812v-2.673c-.44-.524-1.323-.812-1.92-.812-1.27 0-2.334.604-2.334 2.15 0 1.545 1.063 2.148 2.334 2.148zm27.28 4.507h-5.5l-2.23-9.904-2.23 9.905h-5.5l-4.954-17.476h5.862l2.23 10.69 2.62-10.69h3.943l2.62 10.69 2.205-10.69h5.888l-4.954 17.475zm11.094.314c-3.917 0-6.978-2.49-6.978-6.656 0-3.668 2.776-6.63 6.822-6.63 3.683 0 6.51 2.674 6.51 7.128v.97h-8.507c.26.81 1.167 1.598 2.697 1.598.7 0 2.257-.34 2.88-.89l1.92 2.907c-1.246 1.074-3.477 1.572-5.344 1.572zm1.92-8.176c-.13-.55-.572-1.52-2.076-1.52-1.427 0-1.894.944-2.05 1.52h4.125zm10.782 3.17c.44.55 1.322.84 1.945.84 1.27 0 2.334-.892 2.334-2.49 0-1.572-1.063-2.463-2.334-2.463-.623 0-1.504.316-1.945.866v3.25zm0 4.69h-4.67V10.39h4.67v6.156c.985-1.205 2.256-1.65 3.527-1.65 3.087 0 5.525 2.436 5.525 6.628 0 4.35-2.49 6.655-5.525 6.655-1.27 0-2.464-.446-3.527-1.652v1.337z" fill="#FFF"/><path fill="url(#a)" d="M21.01 0L0 24.386l12.774-3.204L1.364 39 26 13.75l-13.6 3.23"/></g>
    </symbol>
    <symbol id="icon_marker" viewBox="0 0 51 69">
      <title>F32F82CB-8AC6-452E-8C90-6AFB1CCC1DE2</title><path d="M25.16 0C11.264 0 0 11.265 0 25.16s25.16 43.07 25.16 43.07 25.16-29.176 25.16-43.07C50.32 11.263 39.056 0 25.16 0zm0 30.282c-3.59 0-6.5-2.91-6.5-6.5s2.91-6.5 6.5-6.5 6.5 2.91 6.5 6.5-2.91 6.5-6.5 6.5z" fill-rule="nonzero" fill="#1567D0"/>
    </symbol>
    <symbol id="icon_rectangle" viewBox="0 0 72 72">
      <title>F430CA5C-C40C-4F84-BFD8-F5289C035DEF</title><defs><filter x="-24%" y="-24%" width="148%" height="148%" filterUnits="objectBoundingBox" id="a"><feGaussianBlur stdDeviation="4" in="SourceGraphic"/></filter></defs><rect filter="url(#a)" transform="rotate(5 -4386.564 -9290.2)" x="809.596" y="362.475" width="45" height="45" rx="14" stroke="#465F7F" stroke-width="5" fill="none" fill-rule="evenodd"/>
    </symbol>
    <symbol id="icon_triangle" viewBox="0 0 71 70">
      <title>6A15DC47-8DE5-418A-B557-7361486E47CB</title><defs><filter x="-27.4%" y="-38.2%" width="154.7%" height="176.3%" filterUnits="objectBoundingBox" id="a"><feGaussianBlur stdDeviation="4" in="SourceGraphic"/></filter></defs><path filter="url(#a)" transform="rotate(124 482.005 376.08)" d="M453.32 905.58l26.5 38h-53z" stroke-width="5" stroke="#8BB0A1" fill="none" fill-rule="evenodd"/>
    </symbol>
    <symbol id="icon_triangle1" viewBox="0 0 88 99">
      <title>C5C503E9-0FE0-4180-9FEC-907800F9A66C</title><path d="M25.43 49.037L60.853 25.15l-.855 48.994z" stroke-width="5" stroke="#8BB0A1" fill="none" fill-rule="evenodd"/>
    </symbol></svg>