<svg xmlns="http://www.w3.org/2000/svg" style="display: none;">
    <symbol id="icon_figure" viewBox="0 0 507.64 456.03">
      <defs><radialGradient id="a" cx="285.33" cy="438.7" r="318.36" gradientUnits="userSpaceOnUse"><stop offset="0" stop-color="#93f5b7"/><stop offset=".87" stop-color="#3be6f3"/></radialGradient></defs><path d="M520.77 294.27c0 65.85 23.35 140.89-20.88 192.78-40.62 47.67-136.14 22.14-203.71 22.14-64.56 0-127.51 19.35-161.68-11.66C102 468 8.69 308.89 26.47 242.37c17.09-63.92 76.58-70.89 105.06-96.83 48.74-44.41 92.41-81 141.77-84.81 63.33-4.88 189.79 14.34 232.92 54.43 47.45 44.11 14.55 109.21 14.55 179.11z" transform="translate(-24.24 -59.98)" opacity=".8" fill="url(#a)"/>
    </symbol>
    <symbol id="icon_icn-appstore" viewBox="0 0 24 28">
      <path d="M22.565 9.785c-.123.077-3.05 1.702-3.05 5.305.137 4.11 3.694 5.55 3.755 5.55-.06.077-.537 1.963-1.947 3.94-1.12 1.703-2.36 3.42-4.247 3.42-1.794 0-2.438-1.135-4.508-1.135-2.223 0-2.852 1.135-4.554 1.135-1.886 0-3.22-1.81-4.4-3.496-1.533-2.208-2.836-5.673-2.882-9-.03-1.763.307-3.496 1.165-4.968C3.107 8.48 5.27 7.086 7.63 7.04c1.81-.06 3.42 1.242 4.524 1.242 1.058 0 3.036-1.242 5.274-1.242.966 0 3.542.292 5.137 2.745zM12 6.688c-.32-1.61.568-3.22 1.396-4.247 1.058-1.24 2.73-2.084 4.17-2.084.092 1.61-.49 3.19-1.533 4.34-.935 1.24-2.545 2.176-4.032 1.992z" fill="#363636" fill-rule="nonzero"/>
    </symbol>
    <symbol id="icon_icon-apple" viewBox="0 0 24 28">
      <path d="M22.565 9.785c-.123.077-3.05 1.702-3.05 5.305.137 4.11 3.694 5.55 3.755 5.55-.06.077-.537 1.963-1.947 3.94-1.12 1.703-2.36 3.42-4.247 3.42-1.794 0-2.438-1.135-4.508-1.135-2.223 0-2.852 1.135-4.554 1.135-1.886 0-3.22-1.81-4.4-3.496-1.533-2.208-2.836-5.673-2.882-9-.03-1.763.307-3.496 1.165-4.968C3.107 8.48 5.27 7.086 7.63 7.04c1.81-.06 3.42 1.242 4.524 1.242 1.058 0 3.036-1.242 5.274-1.242.966 0 3.542.292 5.137 2.745zM12 6.688c-.32-1.61.568-3.22 1.396-4.247 1.058-1.24 2.73-2.084 4.17-2.084.092 1.61-.49 3.19-1.533 4.34-.935 1.24-2.545 2.176-4.032 1.992z" fill="#363636" fill-rule="nonzero"/>
    </symbol>
    <symbol id="icon_logo" viewBox="0 0 507.64 456.03">
      <defs><style>.cls-1{opacity:0.8;fill:url(#Безымянный_градиент_17);}.cls-2{fill:#e2e2e2;stroke:#201600;stroke-linecap:round;stroke-miterlimit:10;}</style><radialGradient id="Безымянный_градиент_17" cx="285.33" cy="438.7" r="318.36" gradientUnits="userSpaceOnUse"><stop offset="0" stop-color="#93f5b7"/><stop offset=".87" stop-color="#3be6f3"/></radialGradient></defs><title>logo</title><path class="cls-1" d="M496.53 234.29c0 65.85 23.35 140.89-20.88 192.78-40.62 47.67-136.14 22.14-203.71 22.14-64.56 0-127.51 19.35-161.68-11.66C77.76 408.02-15.55 248.91 2.23 182.39c17.09-63.92 76.58-70.89 105.06-96.83 48.74-44.41 92.41-81 141.77-84.81 63.33-4.88 189.79 14.34 232.92 54.43 47.45 44.11 14.55 109.21 14.55 179.11z"/>
    </symbol></svg>