<svg width="121" height="55" viewBox="0 0 121 55" version="1.1" xmlns="http://www.w3.org/2000/svg" xmlns:xlink="http://www.w3.org/1999/xlink">
<title>icon</title>
<desc>Created using Figma</desc>
<g id="Canvas" transform="translate(-959 -3098)">
<g id="icon">
<g id="Shape">
<use xlink:href="#path0_fill" transform="translate(1040.21 3106.14)" fill="#8AC74F"/>
</g>
<g id="Shape">
<use xlink:href="#path0_fill" transform="translate(1040.21 3113.27)" fill="#8AC74F"/>
</g>
<g id="Shape">
<use xlink:href="#path1_fill" transform="translate(1040.21 3120.4)" fill="#8AC74F"/>
</g>
<g id="Shape">
<use xlink:href="#path2_fill" transform="translate(1040.15 3127.62)" fill="#8AC74F"/>
</g>
<g id="Shape">
<use xlink:href="#path0_fill" transform="translate(1008.28 3106.14)" fill="#8AC74F"/>
</g>
<g id="Shape">
<use xlink:href="#path3_fill" transform="translate(1008.12 3113.27)" fill="#8AC74F"/>
</g>
<g id="Shape">
<use xlink:href="#path4_fill" transform="translate(1008.12 3120.4)" fill="#8AC74F"/>
</g>
<g id="Shape">
<use xlink:href="#path4_fill" transform="translate(1008.12 3127.62)" fill="#8AC74F"/>
</g>
<g id="Shape">
<use xlink:href="#path0_fill" transform="translate(976.353 3106.14)" fill="#8AC74F"/>
</g>
<g id="Shape">
<use xlink:href="#path1_fill" transform="translate(976.353 3113.27)" fill="#8AC74F"/>
</g>
<g id="Shape">
<use xlink:href="#path1_fill" transform="translate(976.353 3120.4)" fill="#8AC74F"/>
</g>
<g id="Shape">
<use xlink:href="#path5_fill" transform="translate(976.29 3127.53)" fill="#8AC74F"/>
</g>
<g id="Shape">
<use xlink:href="#path6_fill" transform="translate(959 3098)" fill="#8AC74F"/>
</g>
</g>
</g>
<defs>
<path id="path0_fill" d="M 1.36724 2.75L 20.2983 2.75C 21.0534 2.75 21.6655 2.13439 21.6655 1.375C 21.6655 0.615608 21.0534 0 20.2983 0L 1.36724 0C 0.612135 0 0 0.615608 0 1.375C 0 2.13439 0.612135 2.75 1.36724 2.75L 1.36724 2.75Z"/>
<path id="path1_fill" d="M 1.36724 2.75L 20.2983 2.75C 21.0534 2.75 21.6655 2.13439 21.6655 1.375C 21.6655 0.615608 21.0534 0 20.2983 0L 1.36724 0C 0.612135 0 0 0.615608 0 1.375C 0 2.13439 0.612135 2.75 1.36724 2.75Z"/>
<path id="path2_fill" d="M 20.2983 0L 1.36724 0C 0.612135 0 0 0.615608 0 1.375C 0 2.13439 0.612135 2.75 1.36724 2.75L 20.2983 2.75C 21.0534 2.75 21.6655 2.13439 21.6655 1.375C 21.6655 0.615608 21.0534 0 20.2983 0L 20.2983 0Z"/>
<path id="path3_fill" d="M 20.2983 1.87884e-15L 1.36724 1.87884e-15C 0.612135 0 0 0.615608 0 1.375C 0 2.13439 0.612135 2.75 1.36724 2.75L 20.2983 2.75C 21.0534 2.75 21.6655 2.13439 21.6655 1.375C 21.6655 0.615608 21.0534 0 20.2983 0L 20.2983 1.87884e-15Z"/>
<path id="path4_fill" d="M 20.2983 0L 1.36724 0C 0.612135 0 0 0.615608 0 1.375C 0 2.13439 0.612135 2.75 1.36724 2.75L 20.2983 2.75C 21.0534 2.75 21.6655 2.13439 21.6655 1.375C 21.6655 0.615608 21.0534 0 20.2983 0Z"/>
<path id="path5_fill" d="M 21.6655 1.375C 21.6655 0.615608 21.0534 0 20.2983 0L 1.36724 0C 0.612135 0 0 0.615608 0 1.375C 0 2.13439 0.612135 2.75 1.36724 2.75L 20.2983 2.75C 21.0534 2.75 21.6655 2.13439 21.6655 1.375Z"/>
<path id="path6_fill" fill-rule="evenodd" d="M 106.96 52.2083L 118.782 52.2083L 118.782 52.1873C 119.537 52.1873 120.149 52.8027 120.149 53.5623C 120.149 54.3215 119.537 54.9373 118.782 54.9373L 1.36725 54.9373C 0.612122 54.9373 0 54.3215 0 53.5623C 0 52.8027 0.612122 52.1873 1.36725 52.1873L 13.1465 52.1873C 9.99432 48.9075 9.99432 43.7053 13.1465 40.4255L 9.15002 40.4255C 8.3949 40.4255 7.78278 39.8101 7.78278 39.0505C 7.78278 38.2913 8.3949 37.6755 9.15002 37.6755L 10.8117 37.6755L 10.8117 1.37573C 10.8117 0.616211 11.4239 0.000732422 12.179 0.000732422L 107.97 0.000732422C 108.34 -0.0107422 108.698 0.128906 108.964 0.388184C 109.23 0.647217 109.38 1.00342 109.379 1.37573L 109.379 37.6968L 110.957 37.6968C 111.712 37.6968 112.324 38.3125 112.324 39.0718C 112.324 39.8313 111.712 40.4468 110.957 40.4468L 106.96 40.4468C 110.113 43.7266 110.113 48.9287 106.96 52.2083ZM 25.5989 40.5315C 26.4528 41.4502 27.0923 42.5486 27.471 43.7468L 27.471 43.6411C 27.8605 42.4836 28.4916 41.4233 29.322 40.5315L 25.5989 40.5315ZM 35.5693 40.5312C 38.7872 40.5312 41.3959 43.1548 41.3959 46.3909C 41.3959 49.6272 38.7872 52.2505 35.5693 52.2505C 32.3514 52.2505 29.7428 49.6272 29.7428 46.3909C 29.7145 44.8186 30.3159 43.3008 31.4117 42.179C 32.5074 41.0571 34.0056 40.4253 35.5693 40.4255L 35.5693 40.5312ZM 48.9683 40.5312L 41.8796 40.5312L 41.7534 40.4255C 44.9057 43.7053 44.9057 48.9075 41.7534 52.187L 78.4375 52.187C 75.2853 48.9075 75.2853 43.7053 78.4375 40.4255L 71.3489 40.4255L 71.3489 45.2698C 71.3489 46.0291 70.7368 46.6448 69.9817 46.6448L 50.3355 46.6448C 49.5804 46.6448 48.9683 46.0291 48.9683 45.2698L 48.9683 40.5312ZM 45.5607 37.7815L 45.5607 2.75073L 74.6724 2.75073L 74.6724 37.6758L 45.5607 37.7815ZM 68.6986 44.0007L 68.6986 40.5525L 51.871 40.4468L 51.871 44.0007L 68.6986 44.0007ZM 92.8462 43.7468C 92.8151 43.6494 92.7822 43.5527 92.7477 43.4568C 93.177 42.3611 93.826 41.365 94.6552 40.5315L 90.9741 40.5315C 91.7554 41.3777 92.3582 42.3728 92.7477 43.4568C 92.7238 43.5181 92.7004 43.5793 92.6779 43.6411L 92.8462 43.7468ZM 84.6217 52.1448C 87.8396 52.1448 90.4482 49.5212 90.4482 46.2852C 90.4482 43.0491 87.8396 40.4255 84.6217 40.4255C 81.4038 40.4255 78.7952 43.0491 78.7952 46.2852C 78.7952 49.5212 81.4038 52.1448 84.6217 52.1448ZM 92.72 48.9294C 93.1127 50.1543 93.7739 51.2749 94.6552 52.2083L 90.7638 52.2083C 91.6375 51.2729 92.2915 50.1526 92.678 48.9294L 92.72 48.9294ZM 100.818 52.1448C 104.036 52.1448 106.645 49.5212 106.645 46.2852L 106.603 46.2852C 106.603 43.0654 104.02 40.4487 100.818 40.4255C 97.6003 40.4255 94.9917 43.0491 94.9917 46.2852C 94.9917 49.5212 97.6003 52.1448 100.818 52.1448ZM 106.645 37.6758L 77.4069 37.6758L 77.4069 2.75073L 106.603 2.75073L 106.645 37.6758ZM 42.7421 2.75073L 13.5462 2.75073L 13.5462 37.6758L 42.7421 37.6758L 42.7421 2.75073ZM 25.2413 46.2852C 25.2413 49.5212 22.6328 52.1448 19.4148 52.1448C 16.1969 52.1448 13.5883 49.5212 13.5883 46.2852C 13.5883 43.0491 16.1969 40.4255 19.4148 40.4255C 22.6328 40.4255 25.2413 43.0491 25.2413 46.2852ZM 29.4482 52.2083C 28.5671 51.2749 27.9057 50.1543 27.5131 48.9294L 27.471 48.9294C 27.0846 50.1526 26.4305 51.2729 25.5569 52.2083L 29.4482 52.2083Z"/>
</defs>
</svg>
