<svg id="figure" data-name="figure" xmlns="http://www.w3.org/2000/svg" xmlns:xlink="http://www.w3.org/1999/xlink" viewBox="0 0 507.64 456.03">
	<defs>
		<radialGradient id="155f9f20-b901-457a-b5f8-1c8367d5d3a8" cx="285.33" cy="438.7" r="318.36" gradientUnits="userSpaceOnUse">
			<stop offset="0" stop-color="#93f5b7"/>
			<stop offset="0.87" stop-color="#3be6f3"/>
		</radialGradient>
	</defs>
		<path d="M520.77,294.27c0,65.85,23.35,140.89-20.88,192.78-40.62,47.67-136.14,22.14-203.71,22.14-64.56,0-127.51,19.35-161.68-11.66C102,468,8.69,308.89,26.47,242.37c17.09-63.92,76.58-70.89,105.06-96.83,48.74-44.41,92.41-81,141.77-84.81,63.33-4.88,189.79,14.34,232.92,54.43C553.67,159.27,520.77,224.37,520.77,294.27Z" transform="translate(-24.24 -59.98)" style="opacity:0.8;fill:url(#155f9f20-b901-457a-b5f8-1c8367d5d3a8)"/>
		<path d="M260.65,448.43" transform="translate(-24.24 -59.98)" style="fill:#e2e2e2;stroke:#201600;stroke-linecap:round;stroke-miterlimit:10"/>
		<path d="M145.4,198.82" transform="translate(-24.24 -59.98)" style="fill:#e2e2e2;stroke:#201600;stroke-linecap:round;stroke-miterlimit:10"/>
</svg>